%TF.GenerationSoftware,tscircuit,circuit-json-to-gerber,0.0.93*%
%TF.CreationDate,2026-08-31T06:38:35.112Z*%
%TF.SameCoordinates,Original*%
%TF.FileFunction,Copper,L2,Bot*%
%TF.FilePolarity,Positive*%
%FSLAX46Y46*%
%MOMM*%
G04 Gerber Fmt 4.6, Leading zero omitted, Abs format (unit mm)*
G04 Created by tscircuit (builder) date 2026-08-31T06:38:35.112Z*
G01*
%LPD*%
G75*
G04 APERTURE MACROS START*
%AMHORZPILL*
0 Horizontal pill (stadium) shape macro*
0 Parameters:*
0 $1 = Total width*
0 $2 = Total height*
0 $3 = Circle diameter (equal to height)*
0 $4 = Circle center offset
0 21 = Center Line(Exposure, Width, Height, Center X, Center Y, Rotation)*
0 1 = Circle(Exposure, Diameter, Center X, Center Y, Rotation)*
21,1,$1-$3,$2,0.0,0.0,0.0*
1,1,$3,0.0-$4,0.0*
1,1,$3,$4,0.0*%
%AMVERTPILL*
0 Vertical pill (stadium) shape macro*
0 Parameters:*
0 $1 = Total width*
0 $2 = Total height*
0 $3 = Circle diameter (equal to width)*
0 $4 = Circle center offset
0 21 = Center Line(Exposure, Width, Height, Center X, Center Y, Rotation)*
21,1,$1,$2-$3,0.0,0.0,0.0*
1,1,$3,0.0,0.0-$4*
1,1,$3,0.0,$4*%
%AMROUNDRECT*
0 Rectangle with rounded corners*
0 $1 Corner radius*
0 $2 $3 $4 $5 $6 $7 $8 $9 X,Y Position of each corner*
0 Polygon box body*
4,1,4,$2,$3,$4,$5,$6,$7,$8,$9,$2,$3,0*
0 Circles for rounded corners*
1,1,$1+$1,$2,$3*
1,1,$1+$1,$4,$5*
1,1,$1+$1,$6,$7*
1,1,$1+$1,$8,$9*
0 Rectangles between the rounded corners*
20,1,$1+$1,$2,$3,$4,$5,0*
20,1,$1+$1,$4,$5,$6,$7,0*
20,1,$1+$1,$6,$7,$8,$9,0*
20,1,$1+$1,$8,$9,$2,$3,0*%
G04 APERTURE MACROS END*
G04 aperture START LIST*
%ADD10C,0.150000*%
%ADD11C,1.000000*%
%ADD12C,0.825000*%
%ADD13C,0.800000*%
%ADD14C,3.200000*%
%ADD15R,1.500000X1.500000*%
%ADD16C,1.500000*%
%ADD17C,0.063000*%
%ADD18C,0.200000*%
%ADD19C,0.108000*%
%ADD20C,2.500000*%
%ADD21R,1.800000X1.800000*%
%ADD22C,0.081000*%
%ADD23C,2.180000*%
%ADD24C,0.090000*%
%ADD25C,0.100000*%
%ADD26R,1.700000X1.700000*%
%ADD27C,0.120000*%
%ADD28C,0.036000*%
%ADD29R,2.200000X2.200000*%
%ADD30C,0.150000*%
%ADD31R,2.800000X2.800000*%
%ADD32C,0.072000*%
%ADD33R,2.000000X2.000000*%
%ADD34C,0.045000*%
%ADD35C,1.400000*%
%ADD36C,3.250000*%
%ADD37C,0.300000*%
%ADD38C,0.001000*%
%TD*%
G04 aperture END LIST*
D38*
G36*
X079500000Y049500000D02*
G01*
X-79500000Y049500000D01*
G01*
X-79500000Y-49500000D01*
G01*
X079500000Y-49500000D01*
G01*
X079500000Y049500000D01*
G37*
%LPC*%
D38*
G36*
X063110000Y044650000D02*
G01*
X065810000Y044650000D01*
G01*
X065810000Y047350000D01*
G01*
X063110000Y047350000D01*
G01*
X063110000Y044650000D01*
G37*
D38*
G36*
X068190000Y044650000D02*
G01*
X070890000Y044650000D01*
G01*
X070890000Y047350000D01*
G01*
X068190000Y047350000D01*
G01*
X068190000Y044650000D01*
G37*
D38*
G36*
X-75000000Y043150000D02*
G01*
X-74639083Y043185547D01*
G01*
X-74292036Y043290823D01*
G01*
X-73972195Y043461781D01*
G01*
X-73691852Y043691852D01*
G01*
X-73461781Y043972195D01*
G01*
X-73290823Y044292036D01*
G01*
X-73185547Y044639083D01*
G01*
X-73150000Y045000000D01*
G01*
X-73185547Y045360917D01*
G01*
X-73290823Y045707964D01*
G01*
X-73461781Y046027805D01*
G01*
X-73691852Y046308148D01*
G01*
X-73972195Y046538219D01*
G01*
X-74292036Y046709177D01*
G01*
X-74639083Y046814453D01*
G01*
X-75000000Y046850000D01*
G01*
X-75360917Y046814453D01*
G01*
X-75707964Y046709177D01*
G01*
X-76027805Y046538219D01*
G01*
X-76308148Y046308148D01*
G01*
X-76538219Y046027805D01*
G01*
X-76709177Y045707964D01*
G01*
X-76814453Y045360917D01*
G01*
X-76850000Y045000000D01*
G01*
X-76814453Y044639083D01*
G01*
X-76709177Y044292036D01*
G01*
X-76538219Y043972195D01*
G01*
X-76308148Y043691852D01*
G01*
X-76027805Y043461781D01*
G01*
X-75707964Y043290823D01*
G01*
X-75360917Y043185547D01*
G01*
X-75000000Y043150000D01*
G37*
D38*
G36*
X075000000Y043150000D02*
G01*
X075360917Y043185547D01*
G01*
X075707964Y043290823D01*
G01*
X076027805Y043461781D01*
G01*
X076308148Y043691852D01*
G01*
X076538219Y043972195D01*
G01*
X076709177Y044292036D01*
G01*
X076814453Y044639083D01*
G01*
X076850000Y045000000D01*
G01*
X076814453Y045360917D01*
G01*
X076709177Y045707964D01*
G01*
X076538219Y046027805D01*
G01*
X076308148Y046308148D01*
G01*
X076027805Y046538219D01*
G01*
X075707964Y046709177D01*
G01*
X075360917Y046814453D01*
G01*
X075000000Y046850000D01*
G01*
X074639083Y046814453D01*
G01*
X074292036Y046709177D01*
G01*
X073972195Y046538219D01*
G01*
X073691852Y046308148D01*
G01*
X073461781Y046027805D01*
G01*
X073290823Y045707964D01*
G01*
X073185547Y045360917D01*
G01*
X073150000Y045000000D01*
G01*
X073185547Y044639083D01*
G01*
X073290823Y044292036D01*
G01*
X073461781Y043972195D01*
G01*
X073691852Y043691852D01*
G01*
X073972195Y043461781D01*
G01*
X074292036Y043290823D01*
G01*
X074639083Y043185547D01*
G01*
X075000000Y043150000D01*
G37*
D38*
G36*
X-44541000Y043201000D02*
G01*
X-44279579Y043226748D01*
G01*
X-44028204Y043303001D01*
G01*
X-43796536Y043426831D01*
G01*
X-43593477Y043593477D01*
G01*
X-43426831Y043796536D01*
G01*
X-43303001Y044028204D01*
G01*
X-43226748Y044279579D01*
G01*
X-43201000Y044541000D01*
G01*
X-43226748Y044802421D01*
G01*
X-43303001Y045053796D01*
G01*
X-43426831Y045285464D01*
G01*
X-43593477Y045488523D01*
G01*
X-43796536Y045655169D01*
G01*
X-44028204Y045778999D01*
G01*
X-44279579Y045855252D01*
G01*
X-44541000Y045881000D01*
G01*
X-44802421Y045855252D01*
G01*
X-45053796Y045778999D01*
G01*
X-45285464Y045655169D01*
G01*
X-45488523Y045488523D01*
G01*
X-45655169Y045285464D01*
G01*
X-45778999Y045053796D01*
G01*
X-45855252Y044802421D01*
G01*
X-45881000Y044541000D01*
G01*
X-45855252Y044279579D01*
G01*
X-45778999Y044028204D01*
G01*
X-45655169Y043796536D01*
G01*
X-45488523Y043593477D01*
G01*
X-45285464Y043426831D01*
G01*
X-45053796Y043303001D01*
G01*
X-44802421Y043226748D01*
G01*
X-44541000Y043201000D01*
G37*
D38*
G36*
X-23459000Y043201000D02*
G01*
X-23197579Y043226748D01*
G01*
X-22946204Y043303001D01*
G01*
X-22714536Y043426831D01*
G01*
X-22511477Y043593477D01*
G01*
X-22344831Y043796536D01*
G01*
X-22221001Y044028204D01*
G01*
X-22144748Y044279579D01*
G01*
X-22119000Y044541000D01*
G01*
X-22144748Y044802421D01*
G01*
X-22221001Y045053796D01*
G01*
X-22344831Y045285464D01*
G01*
X-22511477Y045488523D01*
G01*
X-22714536Y045655169D01*
G01*
X-22946204Y045778999D01*
G01*
X-23197579Y045855252D01*
G01*
X-23459000Y045881000D01*
G01*
X-23720421Y045855252D01*
G01*
X-23971796Y045778999D01*
G01*
X-24203464Y045655169D01*
G01*
X-24406523Y045488523D01*
G01*
X-24573169Y045285464D01*
G01*
X-24696999Y045053796D01*
G01*
X-24773252Y044802421D01*
G01*
X-24799000Y044541000D01*
G01*
X-24773252Y044279579D01*
G01*
X-24696999Y044028204D01*
G01*
X-24573169Y043796536D01*
G01*
X-24406523Y043593477D01*
G01*
X-24203464Y043426831D01*
G01*
X-23971796Y043303001D01*
G01*
X-23720421Y043226748D01*
G01*
X-23459000Y043201000D01*
G37*
D38*
G36*
X-69747000Y042207500D02*
G01*
X-69454365Y042236322D01*
G01*
X-69172975Y042321681D01*
G01*
X-68913645Y042460296D01*
G01*
X-68686340Y042646840D01*
G01*
X-68499796Y042874145D01*
G01*
X-68361181Y043133475D01*
G01*
X-68275822Y043414865D01*
G01*
X-68247000Y043707500D01*
G01*
X-68275822Y044000135D01*
G01*
X-68361181Y044281525D01*
G01*
X-68499796Y044540855D01*
G01*
X-68686340Y044768160D01*
G01*
X-68913645Y044954704D01*
G01*
X-69172975Y045093319D01*
G01*
X-69454365Y045178678D01*
G01*
X-69747000Y045207500D01*
G01*
X-70039635Y045178678D01*
G01*
X-70321025Y045093319D01*
G01*
X-70580355Y044954704D01*
G01*
X-70807660Y044768160D01*
G01*
X-70994204Y044540855D01*
G01*
X-71132819Y044281525D01*
G01*
X-71218178Y044000135D01*
G01*
X-71247000Y043707500D01*
G01*
X-71218178Y043414865D01*
G01*
X-71132819Y043133475D01*
G01*
X-70994204Y042874145D01*
G01*
X-70807660Y042646840D01*
G01*
X-70580355Y042460296D01*
G01*
X-70321025Y042321681D01*
G01*
X-70039635Y042236322D01*
G01*
X-69747000Y042207500D01*
G37*
D38*
G36*
X-54507000Y042207500D02*
G01*
X-54214365Y042236322D01*
G01*
X-53932975Y042321681D01*
G01*
X-53673645Y042460296D01*
G01*
X-53446340Y042646840D01*
G01*
X-53259796Y042874145D01*
G01*
X-53121181Y043133475D01*
G01*
X-53035822Y043414865D01*
G01*
X-53007000Y043707500D01*
G01*
X-53035822Y044000135D01*
G01*
X-53121181Y044281525D01*
G01*
X-53259796Y044540855D01*
G01*
X-53446340Y044768160D01*
G01*
X-53673645Y044954704D01*
G01*
X-53932975Y045093319D01*
G01*
X-54214365Y045178678D01*
G01*
X-54507000Y045207500D01*
G01*
X-54799635Y045178678D01*
G01*
X-55081025Y045093319D01*
G01*
X-55340355Y044954704D01*
G01*
X-55567660Y044768160D01*
G01*
X-55754204Y044540855D01*
G01*
X-55892819Y044281525D01*
G01*
X-55978178Y044000135D01*
G01*
X-56007000Y043707500D01*
G01*
X-55978178Y043414865D01*
G01*
X-55892819Y043133475D01*
G01*
X-55754204Y042874145D01*
G01*
X-55567660Y042646840D01*
G01*
X-55340355Y042460296D01*
G01*
X-55081025Y042321681D01*
G01*
X-54799635Y042236322D01*
G01*
X-54507000Y042207500D01*
G37*
D38*
G36*
X-31260000Y-39450000D02*
G01*
X-29060000Y-39450000D01*
G01*
X-29060000Y-37442307D01*
G01*
X-06837720Y-15220027D01*
G01*
X-06828843Y-15230843D01*
G01*
X-06768228Y-15280588D01*
G01*
X-06699073Y-15317552D01*
G01*
X-06649892Y-15332471D01*
G01*
X-04833000Y-17149364D01*
G01*
X-04833000Y-29227526D01*
G01*
X-04840588Y-29236772D01*
G01*
X-04877552Y-29305927D01*
G01*
X-04900314Y-29380964D01*
G01*
X-04908000Y-29459000D01*
G01*
X-04900314Y-29537036D01*
G01*
X-04877552Y-29612073D01*
G01*
X-04840588Y-29681228D01*
G01*
X-04790843Y-29741843D01*
G01*
X-04730228Y-29791588D01*
G01*
X-04661073Y-29828552D01*
G01*
X-04586036Y-29851314D01*
G01*
X-04508000Y-29859000D01*
G01*
X-04429964Y-29851314D01*
G01*
X-04354927Y-29828552D01*
G01*
X-04285772Y-29791588D01*
G01*
X-04225157Y-29741843D01*
G01*
X-04175412Y-29681228D01*
G01*
X-04138448Y-29612073D01*
G01*
X-04115686Y-29537036D01*
G01*
X-04108000Y-29459000D01*
G01*
X-04115686Y-29380964D01*
G01*
X-04138448Y-29305927D01*
G01*
X-04175412Y-29236772D01*
G01*
X-04183000Y-29227526D01*
G01*
X-04183000Y-17014744D01*
G01*
X-04189245Y-16951340D01*
G01*
X-04207739Y-16890372D01*
G01*
X-04237772Y-16834184D01*
G01*
X-04278190Y-16784934D01*
G01*
X-06149373Y-14913752D01*
G01*
X-06153686Y-14869964D01*
G01*
X-06176448Y-14794927D01*
G01*
X-06213412Y-14725772D01*
G01*
X-06215488Y-14723242D01*
G01*
X-06162550Y-14707183D01*
G01*
X-06106362Y-14677150D01*
G01*
X-06057113Y-14636732D01*
G01*
X-05798867Y-14378486D01*
G01*
X-05786964Y-14377314D01*
G01*
X-05711927Y-14354552D01*
G01*
X-05642772Y-14317588D01*
G01*
X-05582157Y-14267843D01*
G01*
X-05532412Y-14207228D01*
G01*
X-05504539Y-14155081D01*
G01*
X000348926Y-20008545D01*
G01*
X000398175Y-20048963D01*
G01*
X000454363Y-20078996D01*
G01*
X000515331Y-20097491D01*
G01*
X000578735Y-20103735D01*
G01*
X002561116Y-20103735D01*
G01*
X005222514Y-22765134D01*
G01*
X005223686Y-22777036D01*
G01*
X005246448Y-22852073D01*
G01*
X005283412Y-22921228D01*
G01*
X005333157Y-22981843D01*
G01*
X005356365Y-23000889D01*
G01*
X002429808Y-25927446D01*
G01*
X002401470Y-25874430D01*
G01*
X002277107Y-25722893D01*
G01*
X002125570Y-25598530D01*
G01*
X001952683Y-25506120D01*
G01*
X001765090Y-25449215D01*
G01*
X001570000Y-25430000D01*
G01*
X001374910Y-25449215D01*
G01*
X001187317Y-25506120D01*
G01*
X001014430Y-25598530D01*
G01*
X000862893Y-25722893D01*
G01*
X000738530Y-25874430D01*
G01*
X000646120Y-26047317D01*
G01*
X000589215Y-26234910D01*
G01*
X000570000Y-26430000D01*
G01*
X000589215Y-26625090D01*
G01*
X000646120Y-26812683D01*
G01*
X000738530Y-26985570D01*
G01*
X000862893Y-27137107D01*
G01*
X001014430Y-27261470D01*
G01*
X001187317Y-27353880D01*
G01*
X001374910Y-27410785D01*
G01*
X001570000Y-27430000D01*
G01*
X001765090Y-27410785D01*
G01*
X001952683Y-27353880D01*
G01*
X002125570Y-27261470D01*
G01*
X002235000Y-27171663D01*
G01*
X002235000Y-27845380D01*
G01*
X002005845Y-28074535D01*
G01*
X001952683Y-28046120D01*
G01*
X001765090Y-27989215D01*
G01*
X001570000Y-27970000D01*
G01*
X001374910Y-27989215D01*
G01*
X001187317Y-28046120D01*
G01*
X001014430Y-28138530D01*
G01*
X000862893Y-28262893D01*
G01*
X000738530Y-28414430D01*
G01*
X000646120Y-28587317D01*
G01*
X000589215Y-28774910D01*
G01*
X000570000Y-28970000D01*
G01*
X000589215Y-29165090D01*
G01*
X000646120Y-29352683D01*
G01*
X000738530Y-29525570D01*
G01*
X000862893Y-29677107D01*
G01*
X001014430Y-29801470D01*
G01*
X001187317Y-29893880D01*
G01*
X001374910Y-29950785D01*
G01*
X001570000Y-29970000D01*
G01*
X001765090Y-29950785D01*
G01*
X001952683Y-29893880D01*
G01*
X002125570Y-29801470D01*
G01*
X002277107Y-29677107D01*
G01*
X002401470Y-29525570D01*
G01*
X002493880Y-29352683D01*
G01*
X002550785Y-29165090D01*
G01*
X002570000Y-28970000D01*
G01*
X002550785Y-28774910D01*
G01*
X002493880Y-28587317D01*
G01*
X002465465Y-28534155D01*
G01*
X002789810Y-28209810D01*
G01*
X002830228Y-28160560D01*
G01*
X002860261Y-28104372D01*
G01*
X002878755Y-28043404D01*
G01*
X002885000Y-27980000D01*
G01*
X002885000Y-26980215D01*
G01*
X002932588Y-26922228D01*
G01*
X002969552Y-26853073D01*
G01*
X002992314Y-26778036D01*
G01*
X003000000Y-26700000D01*
G01*
X002992314Y-26621964D01*
G01*
X002969552Y-26546927D01*
G01*
X002932588Y-26477772D01*
G01*
X002882843Y-26417157D01*
G01*
X002869932Y-26406562D01*
G01*
X008049275Y-21227219D01*
G01*
X008154227Y-21122266D01*
G01*
X008194645Y-21073017D01*
G01*
X008224679Y-21016828D01*
G01*
X008243173Y-20955861D01*
G01*
X008249418Y-20892456D01*
G01*
X008249418Y-08870588D01*
G01*
X008297964Y-08885314D01*
G01*
X008376000Y-08893000D01*
G01*
X008454036Y-08885314D01*
G01*
X008529073Y-08862552D01*
G01*
X008567075Y-08842240D01*
G01*
X008567000Y-08843000D01*
G01*
X008574686Y-08921036D01*
G01*
X008597448Y-08996073D01*
G01*
X008634412Y-09065228D01*
G01*
X008684157Y-09125843D01*
G01*
X008744772Y-09175588D01*
G01*
X008813927Y-09212552D01*
G01*
X008888964Y-09235314D01*
G01*
X008967000Y-09243000D01*
G01*
X009045036Y-09235314D01*
G01*
X009120073Y-09212552D01*
G01*
X009189228Y-09175588D01*
G01*
X009249843Y-09125843D01*
G01*
X009299588Y-09065228D01*
G01*
X009336552Y-08996073D01*
G01*
X009359314Y-08921036D01*
G01*
X009367000Y-08843000D01*
G01*
X009359314Y-08764964D01*
G01*
X009336552Y-08689927D01*
G01*
X009299588Y-08620772D01*
G01*
X009292000Y-08611526D01*
G01*
X009292000Y-08426709D01*
G01*
X016903342Y-00815367D01*
G01*
X016914036Y-00814314D01*
G01*
X016989073Y-00791552D01*
G01*
X017058228Y-00754588D01*
G01*
X017118843Y-00704843D01*
G01*
X017168588Y-00644228D01*
G01*
X017205552Y-00575073D01*
G01*
X017228314Y-00500036D01*
G01*
X017236000Y-00422000D01*
G01*
X017228314Y-00343964D01*
G01*
X017205552Y-00268927D01*
G01*
X017168588Y-00199772D01*
G01*
X017118843Y-00139157D01*
G01*
X017058228Y-00089412D01*
G01*
X016989073Y-00052448D01*
G01*
X016914036Y-00029686D01*
G01*
X016836000Y-00022000D01*
G01*
X016757964Y-00029686D01*
G01*
X016682927Y-00052448D01*
G01*
X016613772Y-00089412D01*
G01*
X016595000Y-00104818D01*
G01*
X016595000Y039580000D01*
G01*
X017420000Y039580000D01*
G01*
X017420000Y041880000D01*
G01*
X015120000Y041880000D01*
G01*
X015120000Y039580000D01*
G01*
X015945000Y039580000D01*
G01*
X015945000Y-00464380D01*
G01*
X008309866Y-08099514D01*
G01*
X008297964Y-08100686D01*
G01*
X008249418Y-08115412D01*
G01*
X008249418Y-01560140D01*
G01*
X008243173Y-01496735D01*
G01*
X008224679Y-01435768D01*
G01*
X008194645Y-01379580D01*
G01*
X008154227Y-01330330D01*
G01*
X007506285Y-00682388D01*
G01*
X007506285Y006443747D01*
G01*
X007509588Y006447772D01*
G01*
X007546552Y006516927D01*
G01*
X007569314Y006591964D01*
G01*
X007577000Y006670000D01*
G01*
X007569314Y006748036D01*
G01*
X007546552Y006823073D01*
G01*
X007509588Y006892228D01*
G01*
X007459843Y006952843D01*
G01*
X007399228Y007002588D01*
G01*
X007330073Y007039552D01*
G01*
X007255036Y007062314D01*
G01*
X007177000Y007070000D01*
G01*
X007098964Y007062314D01*
G01*
X007023927Y007039552D01*
G01*
X006954772Y007002588D01*
G01*
X006894157Y006952843D01*
G01*
X006844412Y006892228D01*
G01*
X006807448Y006823073D01*
G01*
X006784686Y006748036D01*
G01*
X006777000Y006670000D01*
G01*
X006784686Y006591964D01*
G01*
X006807448Y006516927D01*
G01*
X006844412Y006447772D01*
G01*
X006856285Y006433305D01*
G01*
X006856285Y-00817007D01*
G01*
X006862529Y-00880411D01*
G01*
X006881024Y-00941379D01*
G01*
X006911057Y-00997567D01*
G01*
X006951475Y-01046816D01*
G01*
X007599418Y-01694760D01*
G01*
X007599418Y-08628140D01*
G01*
X007598000Y-08628000D01*
G01*
X007519964Y-08635686D01*
G01*
X007444927Y-08658448D01*
G01*
X007375772Y-08695412D01*
G01*
X007315157Y-08745157D01*
G01*
X007265412Y-08805772D01*
G01*
X007228448Y-08874927D01*
G01*
X007205686Y-08949964D01*
G01*
X007198599Y-09021915D01*
G01*
X007188442Y-09055398D01*
G01*
X007182197Y-09118803D01*
G01*
X007182197Y-09229358D01*
G01*
X007182197Y-10198184D01*
G01*
X002005845Y-15374535D01*
G01*
X001952683Y-15346120D01*
G01*
X001765090Y-15289215D01*
G01*
X001570000Y-15270000D01*
G01*
X001374910Y-15289215D01*
G01*
X001187317Y-15346120D01*
G01*
X001014430Y-15438530D01*
G01*
X000862893Y-15562893D01*
G01*
X000738530Y-15714430D01*
G01*
X000646120Y-15887317D01*
G01*
X000589215Y-16074910D01*
G01*
X000570000Y-16270000D01*
G01*
X000589215Y-16465090D01*
G01*
X000646120Y-16652683D01*
G01*
X000738530Y-16825570D01*
G01*
X000862893Y-16977107D01*
G01*
X001014430Y-17101470D01*
G01*
X001187317Y-17193880D01*
G01*
X001374910Y-17250785D01*
G01*
X001570000Y-17270000D01*
G01*
X001765090Y-17250785D01*
G01*
X001952683Y-17193880D01*
G01*
X002125570Y-17101470D01*
G01*
X002277107Y-16977107D01*
G01*
X002401470Y-16825570D01*
G01*
X002493880Y-16652683D01*
G01*
X002550785Y-16465090D01*
G01*
X002570000Y-16270000D01*
G01*
X002550785Y-16074910D01*
G01*
X002493880Y-15887317D01*
G01*
X002465465Y-15834155D01*
G01*
X007599418Y-10700201D01*
G01*
X007599418Y-20757836D01*
G01*
X007589655Y-20767599D01*
G01*
X005917889Y-22439365D01*
G01*
X005898843Y-22416157D01*
G01*
X005838228Y-22366412D01*
G01*
X005769073Y-22329448D01*
G01*
X005694036Y-22306686D01*
G01*
X005682134Y-22305514D01*
G01*
X002925545Y-19548926D01*
G01*
X002876296Y-19508508D01*
G01*
X002820108Y-19478475D01*
G01*
X002759140Y-19459980D01*
G01*
X002695735Y-19453735D01*
G01*
X002329115Y-19453735D01*
G01*
X002401470Y-19365570D01*
G01*
X002493880Y-19192683D01*
G01*
X002550785Y-19005090D01*
G01*
X002570000Y-18810000D01*
G01*
X002550785Y-18614910D01*
G01*
X002493880Y-18427317D01*
G01*
X002401470Y-18254430D01*
G01*
X002277107Y-18102893D01*
G01*
X002125570Y-17978530D01*
G01*
X001952683Y-17886120D01*
G01*
X001765090Y-17829215D01*
G01*
X001570000Y-17810000D01*
G01*
X001374910Y-17829215D01*
G01*
X001187317Y-17886120D01*
G01*
X001014430Y-17978530D01*
G01*
X000862893Y-18102893D01*
G01*
X000738530Y-18254430D01*
G01*
X000646120Y-18427317D01*
G01*
X000589215Y-18614910D01*
G01*
X000570000Y-18810000D01*
G01*
X000589215Y-19005090D01*
G01*
X000646120Y-19192683D01*
G01*
X000738530Y-19365570D01*
G01*
X000810885Y-19453735D01*
G01*
X000713354Y-19453735D01*
G01*
X-05207291Y-13533089D01*
G01*
X-05139073Y-13569552D01*
G01*
X-05064036Y-13592314D01*
G01*
X-04986000Y-13600000D01*
G01*
X-04907964Y-13592314D01*
G01*
X-04832927Y-13569552D01*
G01*
X-04763772Y-13532588D01*
G01*
X-04703157Y-13482843D01*
G01*
X-04653412Y-13422228D01*
G01*
X-04616448Y-13353073D01*
G01*
X-04593686Y-13278036D01*
G01*
X-04592514Y-13266134D01*
G01*
X-01277608Y-09951228D01*
G01*
X006280359Y-09951228D01*
G01*
X006380772Y-09951228D01*
G01*
X006444176Y-09944983D01*
G01*
X006505144Y-09926489D01*
G01*
X006561332Y-09896456D01*
G01*
X006610582Y-09856038D01*
G01*
X006657134Y-09809486D01*
G01*
X006669036Y-09808314D01*
G01*
X006744073Y-09785552D01*
G01*
X006813228Y-09748588D01*
G01*
X006873843Y-09698843D01*
G01*
X006923588Y-09638228D01*
G01*
X006960552Y-09569073D01*
G01*
X006983314Y-09494036D01*
G01*
X006991000Y-09416000D01*
G01*
X006983314Y-09337964D01*
G01*
X006960552Y-09262927D01*
G01*
X006923588Y-09193772D01*
G01*
X006873843Y-09133157D01*
G01*
X006813228Y-09083412D01*
G01*
X006744073Y-09046448D01*
G01*
X006669036Y-09023686D01*
G01*
X006591000Y-09016000D01*
G01*
X006512964Y-09023686D01*
G01*
X006437927Y-09046448D01*
G01*
X006368772Y-09083412D01*
G01*
X006308157Y-09133157D01*
G01*
X006258412Y-09193772D01*
G01*
X006221448Y-09262927D01*
G01*
X006209830Y-09301228D01*
G01*
X002322966Y-09301228D01*
G01*
X002401470Y-09205570D01*
G01*
X002493880Y-09032683D01*
G01*
X002550785Y-08845090D01*
G01*
X002570000Y-08650000D01*
G01*
X002550785Y-08454910D01*
G01*
X002493880Y-08267317D01*
G01*
X002401470Y-08094430D01*
G01*
X002277107Y-07942893D01*
G01*
X002125570Y-07818530D01*
G01*
X001952683Y-07726120D01*
G01*
X001765090Y-07669215D01*
G01*
X001570000Y-07650000D01*
G01*
X001374910Y-07669215D01*
G01*
X001187317Y-07726120D01*
G01*
X001014430Y-07818530D01*
G01*
X000862893Y-07942893D01*
G01*
X000738530Y-08094430D01*
G01*
X000646120Y-08267317D01*
G01*
X000589215Y-08454910D01*
G01*
X000570000Y-08650000D01*
G01*
X000589215Y-08845090D01*
G01*
X000646120Y-09032683D01*
G01*
X000738530Y-09205570D01*
G01*
X000817034Y-09301228D01*
G01*
X-01412228Y-09301228D01*
G01*
X-01475632Y-09307473D01*
G01*
X-01536600Y-09325967D01*
G01*
X-01592788Y-09356000D01*
G01*
X-01642038Y-09396418D01*
G01*
X-04116000Y-11870380D01*
G01*
X-04116000Y011030096D01*
G01*
X009699883Y024845979D01*
G01*
X010314825Y025460921D01*
G01*
X010355243Y025510170D01*
G01*
X010385276Y025566358D01*
G01*
X010403770Y025627326D01*
G01*
X010410015Y025690730D01*
G01*
X010410015Y039580000D01*
G01*
X012340000Y039580000D01*
G01*
X012340000Y041880000D01*
G01*
X010410015Y041880000D01*
G01*
X010410015Y041980467D01*
G01*
X010410015Y042030395D01*
G01*
X010499620Y042120000D01*
G01*
X012340000Y042120000D01*
G01*
X012340000Y044420000D01*
G01*
X010040000Y044420000D01*
G01*
X010040000Y042579620D01*
G01*
X009855205Y042394825D01*
G01*
X009814787Y042345575D01*
G01*
X009784754Y042289387D01*
G01*
X009766260Y042228419D01*
G01*
X009760015Y042165015D01*
G01*
X009760015Y041980467D01*
G01*
X009760015Y041880000D01*
G01*
X007500000Y041880000D01*
G01*
X007500000Y039580000D01*
G01*
X009760015Y039580000D01*
G01*
X009760015Y025825350D01*
G01*
X009240263Y025305598D01*
G01*
X000171513Y016236848D01*
G01*
X000128843Y016288843D01*
G01*
X000068228Y016338588D01*
G01*
X-00000927Y016375552D01*
G01*
X-00075964Y016398314D01*
G01*
X-00154000Y016406000D01*
G01*
X-00232036Y016398314D01*
G01*
X-00307073Y016375552D01*
G01*
X-00376228Y016338588D01*
G01*
X-00436843Y016288843D01*
G01*
X-00486588Y016228228D01*
G01*
X-00523552Y016159073D01*
G01*
X-00546314Y016084036D01*
G01*
X-00547486Y016072134D01*
G01*
X-06229810Y010389810D01*
G01*
X-06270228Y010340560D01*
G01*
X-06300261Y010284372D01*
G01*
X-06318755Y010223404D01*
G01*
X-06325000Y010160000D01*
G01*
X-06325000Y-08168526D01*
G01*
X-06332588Y-08177772D01*
G01*
X-06369552Y-08246927D01*
G01*
X-06392314Y-08321964D01*
G01*
X-06400000Y-08400000D01*
G01*
X-06392314Y-08478036D01*
G01*
X-06369552Y-08553073D01*
G01*
X-06332588Y-08622228D01*
G01*
X-06282843Y-08682843D01*
G01*
X-06222228Y-08732588D01*
G01*
X-06153073Y-08769552D01*
G01*
X-06078036Y-08792314D01*
G01*
X-06000000Y-08800000D01*
G01*
X-05921964Y-08792314D01*
G01*
X-05846927Y-08769552D01*
G01*
X-05777772Y-08732588D01*
G01*
X-05717157Y-08682843D01*
G01*
X-05667412Y-08622228D01*
G01*
X-05630448Y-08553073D01*
G01*
X-05607686Y-08478036D01*
G01*
X-05600000Y-08400000D01*
G01*
X-05607686Y-08321964D01*
G01*
X-05630448Y-08246927D01*
G01*
X-05667412Y-08177772D01*
G01*
X-05675000Y-08168526D01*
G01*
X-05675000Y010025380D01*
G01*
X-04766000Y010934380D01*
G01*
X-04766000Y-11926526D01*
G01*
X-04773588Y-11935772D01*
G01*
X-04810552Y-12004927D01*
G01*
X-04833314Y-12079964D01*
G01*
X-04841000Y-12158000D01*
G01*
X-04833314Y-12236036D01*
G01*
X-04810552Y-12311073D01*
G01*
X-04773588Y-12380228D01*
G01*
X-04723843Y-12440843D01*
G01*
X-04703312Y-12457692D01*
G01*
X-05052134Y-12806514D01*
G01*
X-05064036Y-12807686D01*
G01*
X-05139073Y-12830448D01*
G01*
X-05208228Y-12867412D01*
G01*
X-05268843Y-12917157D01*
G01*
X-05318588Y-12977772D01*
G01*
X-05355552Y-13046927D01*
G01*
X-05378314Y-13121964D01*
G01*
X-05386000Y-13200000D01*
G01*
X-05378314Y-13278036D01*
G01*
X-05355552Y-13353073D01*
G01*
X-05319089Y-13421291D01*
G01*
X-05467749Y-13272631D01*
G01*
X-05516999Y-13232213D01*
G01*
X-05573187Y-13202180D01*
G01*
X-05634155Y-13183686D01*
G01*
X-05697559Y-13177441D01*
G01*
X-07400013Y-13177441D01*
G01*
X-07398000Y-13157000D01*
G01*
X-07405686Y-13078964D01*
G01*
X-07428448Y-13003927D01*
G01*
X-07465412Y-12934772D01*
G01*
X-07473000Y-12925526D01*
G01*
X-07473000Y026687380D01*
G01*
X005419620Y039580000D01*
G01*
X007260000Y039580000D01*
G01*
X007260000Y041880000D01*
G01*
X005179620Y041880000D01*
G01*
X005419620Y042120000D01*
G01*
X007260000Y042120000D01*
G01*
X007260000Y044420000D01*
G01*
X004960000Y044420000D01*
G01*
X004960000Y042579620D01*
G01*
X004200190Y041819810D01*
G01*
X004159772Y041770560D01*
G01*
X004129739Y041714372D01*
G01*
X004111245Y041653404D01*
G01*
X004105000Y041590000D01*
G01*
X004105000Y040562474D01*
G01*
X004097412Y040553228D01*
G01*
X004060448Y040484073D01*
G01*
X004037686Y040409036D01*
G01*
X004030000Y040331000D01*
G01*
X004037686Y040252964D01*
G01*
X004060448Y040177927D01*
G01*
X004097412Y040108772D01*
G01*
X004147157Y040048157D01*
G01*
X004207772Y039998412D01*
G01*
X004276927Y039961448D01*
G01*
X004351964Y039938686D01*
G01*
X004430000Y039931000D01*
G01*
X004508036Y039938686D01*
G01*
X004583073Y039961448D01*
G01*
X004652228Y039998412D01*
G01*
X004712843Y040048157D01*
G01*
X004762588Y040108772D01*
G01*
X004799552Y040177927D01*
G01*
X004822314Y040252964D01*
G01*
X004830000Y040331000D01*
G01*
X004822314Y040409036D01*
G01*
X004799552Y040484073D01*
G01*
X004762588Y040553228D01*
G01*
X004755000Y040562474D01*
G01*
X004755000Y041455380D01*
G01*
X004960000Y041660380D01*
G01*
X004960000Y040039620D01*
G01*
X-08027810Y027051810D01*
G01*
X-08068228Y027002560D01*
G01*
X-08098261Y026946372D01*
G01*
X-08116755Y026885404D01*
G01*
X-08123000Y026822000D01*
G01*
X-08123000Y-12925526D01*
G01*
X-08130588Y-12934772D01*
G01*
X-08167552Y-13003927D01*
G01*
X-08190314Y-13078964D01*
G01*
X-08198000Y-13157000D01*
G01*
X-08195987Y-13177441D01*
G01*
X-17816197Y-13177441D01*
G01*
X-17942989Y-13177441D01*
G01*
X-48212782Y017092352D01*
G01*
X-48235448Y017167073D01*
G01*
X-48272412Y017236228D01*
G01*
X-48322157Y017296843D01*
G01*
X-48382772Y017346588D01*
G01*
X-48451927Y017383552D01*
G01*
X-48526964Y017406314D01*
G01*
X-48605000Y017414000D01*
G01*
X-48683036Y017406314D01*
G01*
X-48758073Y017383552D01*
G01*
X-48827228Y017346588D01*
G01*
X-48887843Y017296843D01*
G01*
X-48937588Y017236228D01*
G01*
X-48974552Y017167073D01*
G01*
X-48997314Y017092036D01*
G01*
X-49005000Y017014000D01*
G01*
X-48997314Y016935964D01*
G01*
X-48974552Y016860927D01*
G01*
X-48937588Y016791772D01*
G01*
X-48887843Y016731157D01*
G01*
X-48827228Y016681412D01*
G01*
X-48758073Y016644448D01*
G01*
X-48683036Y016621686D01*
G01*
X-48658987Y016619317D01*
G01*
X-18307419Y-13732251D01*
G01*
X-18258169Y-13772669D01*
G01*
X-18201981Y-13802702D01*
G01*
X-18141013Y-13821196D01*
G01*
X-18077609Y-13827441D01*
G01*
X-17816197Y-13827441D01*
G01*
X-06232154Y-13827441D01*
G01*
X-06234552Y-13831927D01*
G01*
X-06257314Y-13906964D01*
G01*
X-06258486Y-13918867D01*
G01*
X-06421541Y-14081922D01*
G01*
X-06484235Y-14081922D01*
G01*
X-06547639Y-14088167D01*
G01*
X-06608607Y-14106662D01*
G01*
X-06664795Y-14136695D01*
G01*
X-06714045Y-14177113D01*
G01*
X-29060000Y-36523068D01*
G01*
X-29060000Y-34710000D01*
G01*
X-31260000Y-34710000D01*
G01*
X-31260000Y-36910000D01*
G01*
X-29446932Y-36910000D01*
G01*
X-29786932Y-37250000D01*
G01*
X-31260000Y-37250000D01*
G01*
X-31260000Y-39450000D01*
G37*
D38*
G36*
X015120000Y042120000D02*
G01*
X017420000Y042120000D01*
G01*
X017420000Y044420000D01*
G01*
X015120000Y044420000D01*
G01*
X015120000Y042120000D01*
G37*
D38*
G36*
X024430000Y-32510000D02*
G01*
X024625090Y-32490785D01*
G01*
X024812683Y-32433880D01*
G01*
X024985570Y-32341470D01*
G01*
X025137107Y-32217107D01*
G01*
X025261470Y-32065570D01*
G01*
X025353880Y-31892683D01*
G01*
X025410785Y-31705090D01*
G01*
X025430000Y-31510000D01*
G01*
X025410785Y-31314910D01*
G01*
X025353880Y-31127317D01*
G01*
X025325465Y-31074155D01*
G01*
X028796164Y-27603455D01*
G01*
X028836582Y-27554206D01*
G01*
X028866615Y-27498018D01*
G01*
X028885110Y-27437050D01*
G01*
X028891355Y-27373645D01*
G01*
X028891355Y036053645D01*
G01*
X028885110Y036117050D01*
G01*
X028866615Y036178018D01*
G01*
X028836582Y036234206D01*
G01*
X028796164Y036283455D01*
G01*
X025040000Y040039620D01*
G01*
X025040000Y041880000D01*
G01*
X023045798Y041880000D01*
G01*
X023045798Y041899202D01*
G01*
X023039553Y041962607D01*
G01*
X023021059Y042023574D01*
G01*
X022991025Y042079763D01*
G01*
X022950607Y042129012D01*
G01*
X022500000Y042579619D01*
G01*
X022500000Y044420000D01*
G01*
X020200000Y044420000D01*
G01*
X020200000Y042313654D01*
G01*
X020180326Y042350462D01*
G01*
X020139908Y042399711D01*
G01*
X019960000Y042579619D01*
G01*
X019960000Y044420000D01*
G01*
X017660000Y044420000D01*
G01*
X017660000Y042120000D01*
G01*
X019500381Y042120000D01*
G01*
X019585099Y042035282D01*
G01*
X019585099Y041880000D01*
G01*
X017660000Y041880000D01*
G01*
X017660000Y039580000D01*
G01*
X019585099Y039580000D01*
G01*
X019585099Y027225974D01*
G01*
X019585099Y-23749597D01*
G01*
X018523282Y-24811414D01*
G01*
X018482864Y-24860664D01*
G01*
X018452831Y-24916852D01*
G01*
X018434336Y-24977819D01*
G01*
X018428091Y-25041224D01*
G01*
X018428091Y-25098091D01*
G01*
X018434336Y-25161496D01*
G01*
X018452831Y-25222464D01*
G01*
X018461518Y-25238716D01*
G01*
X018465686Y-25281036D01*
G01*
X018488448Y-25356073D01*
G01*
X018525412Y-25425228D01*
G01*
X018575157Y-25485843D01*
G01*
X018635772Y-25535588D01*
G01*
X018704927Y-25572552D01*
G01*
X018779964Y-25595314D01*
G01*
X018858000Y-25603000D01*
G01*
X018936036Y-25595314D01*
G01*
X019011073Y-25572552D01*
G01*
X019080228Y-25535588D01*
G01*
X019140843Y-25485843D01*
G01*
X019190588Y-25425228D01*
G01*
X019227552Y-25356073D01*
G01*
X019250314Y-25281036D01*
G01*
X019258000Y-25203000D01*
G01*
X019250314Y-25124964D01*
G01*
X019227552Y-25049927D01*
G01*
X019219351Y-25034584D01*
G01*
X020139908Y-24114026D01*
G01*
X020180326Y-24064777D01*
G01*
X020210359Y-24008589D01*
G01*
X020228854Y-23947621D01*
G01*
X020235099Y-23884217D01*
G01*
X020235099Y027225974D01*
G01*
X020235099Y039580000D01*
G01*
X022500000Y039580000D01*
G01*
X022500000Y039599076D01*
G01*
X025165561Y036933515D01*
G01*
X025165561Y007262436D01*
G01*
X025137107Y007297107D01*
G01*
X024985570Y007421470D01*
G01*
X024812683Y007513880D01*
G01*
X024625090Y007570785D01*
G01*
X024430000Y007590000D01*
G01*
X024234910Y007570785D01*
G01*
X024047317Y007513880D01*
G01*
X023874430Y007421470D01*
G01*
X023722893Y007297107D01*
G01*
X023598530Y007145570D01*
G01*
X023506120Y006972683D01*
G01*
X023449215Y006785090D01*
G01*
X023430000Y006590000D01*
G01*
X023449215Y006394910D01*
G01*
X023506120Y006207317D01*
G01*
X023598530Y006034430D01*
G01*
X023722893Y005882893D01*
G01*
X023874430Y005758530D01*
G01*
X024047317Y005666120D01*
G01*
X024234910Y005609215D01*
G01*
X024430000Y005590000D01*
G01*
X024625090Y005609215D01*
G01*
X024812683Y005666120D01*
G01*
X024985570Y005758530D01*
G01*
X025137107Y005882893D01*
G01*
X025165561Y005917564D01*
G01*
X025165561Y004722436D01*
G01*
X025137107Y004757107D01*
G01*
X024985570Y004881470D01*
G01*
X024812683Y004973880D01*
G01*
X024625090Y005030785D01*
G01*
X024430000Y005050000D01*
G01*
X024234910Y005030785D01*
G01*
X024047317Y004973880D01*
G01*
X023874430Y004881470D01*
G01*
X023722893Y004757107D01*
G01*
X023598530Y004605570D01*
G01*
X023506120Y004432683D01*
G01*
X023449215Y004245090D01*
G01*
X023430000Y004050000D01*
G01*
X023449215Y003854910D01*
G01*
X023506120Y003667317D01*
G01*
X023598530Y003494430D01*
G01*
X023722893Y003342893D01*
G01*
X023874430Y003218530D01*
G01*
X024047317Y003126120D01*
G01*
X024234910Y003069215D01*
G01*
X024430000Y003050000D01*
G01*
X024625090Y003069215D01*
G01*
X024812683Y003126120D01*
G01*
X024985570Y003218530D01*
G01*
X025137107Y003342893D01*
G01*
X025165561Y003377564D01*
G01*
X025165561Y002182436D01*
G01*
X025137107Y002217107D01*
G01*
X024985570Y002341470D01*
G01*
X024812683Y002433880D01*
G01*
X024625090Y002490785D01*
G01*
X024430000Y002510000D01*
G01*
X024234910Y002490785D01*
G01*
X024047317Y002433880D01*
G01*
X023874430Y002341470D01*
G01*
X023722893Y002217107D01*
G01*
X023598530Y002065570D01*
G01*
X023506120Y001892683D01*
G01*
X023449215Y001705090D01*
G01*
X023430000Y001510000D01*
G01*
X023449215Y001314910D01*
G01*
X023506120Y001127317D01*
G01*
X023598530Y000954430D01*
G01*
X023722893Y000802893D01*
G01*
X023874430Y000678530D01*
G01*
X024047317Y000586120D01*
G01*
X024234910Y000529215D01*
G01*
X024430000Y000510000D01*
G01*
X024625090Y000529215D01*
G01*
X024812683Y000586120D01*
G01*
X024985570Y000678530D01*
G01*
X025137107Y000802893D01*
G01*
X025165561Y000837564D01*
G01*
X025165561Y-00357564D01*
G01*
X025137107Y-00322893D01*
G01*
X024985570Y-00198530D01*
G01*
X024812683Y-00106120D01*
G01*
X024625090Y-00049215D01*
G01*
X024430000Y-00030000D01*
G01*
X024234910Y-00049215D01*
G01*
X024047317Y-00106120D01*
G01*
X023874430Y-00198530D01*
G01*
X023722893Y-00322893D01*
G01*
X023598530Y-00474430D01*
G01*
X023506120Y-00647317D01*
G01*
X023449215Y-00834910D01*
G01*
X023430000Y-01030000D01*
G01*
X023449215Y-01225090D01*
G01*
X023506120Y-01412683D01*
G01*
X023598530Y-01585570D01*
G01*
X023722893Y-01737107D01*
G01*
X023874430Y-01861470D01*
G01*
X024047317Y-01953880D01*
G01*
X024234910Y-02010785D01*
G01*
X024430000Y-02030000D01*
G01*
X024625090Y-02010785D01*
G01*
X024812683Y-01953880D01*
G01*
X024985570Y-01861470D01*
G01*
X025137107Y-01737107D01*
G01*
X025165561Y-01702436D01*
G01*
X025165561Y-02897564D01*
G01*
X025137107Y-02862893D01*
G01*
X024985570Y-02738530D01*
G01*
X024812683Y-02646120D01*
G01*
X024625090Y-02589215D01*
G01*
X024430000Y-02570000D01*
G01*
X024234910Y-02589215D01*
G01*
X024047317Y-02646120D01*
G01*
X023874430Y-02738530D01*
G01*
X023722893Y-02862893D01*
G01*
X023598530Y-03014430D01*
G01*
X023506120Y-03187317D01*
G01*
X023449215Y-03374910D01*
G01*
X023430000Y-03570000D01*
G01*
X023449215Y-03765090D01*
G01*
X023506120Y-03952683D01*
G01*
X023598530Y-04125570D01*
G01*
X023722893Y-04277107D01*
G01*
X023874430Y-04401470D01*
G01*
X024047317Y-04493880D01*
G01*
X024234910Y-04550785D01*
G01*
X024430000Y-04570000D01*
G01*
X024625090Y-04550785D01*
G01*
X024812683Y-04493880D01*
G01*
X024985570Y-04401470D01*
G01*
X025137107Y-04277107D01*
G01*
X025165561Y-04242436D01*
G01*
X025165561Y-05437564D01*
G01*
X025137107Y-05402893D01*
G01*
X024985570Y-05278530D01*
G01*
X024812683Y-05186120D01*
G01*
X024625090Y-05129215D01*
G01*
X024430000Y-05110000D01*
G01*
X024234910Y-05129215D01*
G01*
X024047317Y-05186120D01*
G01*
X023874430Y-05278530D01*
G01*
X023722893Y-05402893D01*
G01*
X023598530Y-05554430D01*
G01*
X023506120Y-05727317D01*
G01*
X023449215Y-05914910D01*
G01*
X023430000Y-06110000D01*
G01*
X023449215Y-06305090D01*
G01*
X023506120Y-06492683D01*
G01*
X023598530Y-06665570D01*
G01*
X023722893Y-06817107D01*
G01*
X023874430Y-06941470D01*
G01*
X024047317Y-07033880D01*
G01*
X024234910Y-07090785D01*
G01*
X024430000Y-07110000D01*
G01*
X024625090Y-07090785D01*
G01*
X024812683Y-07033880D01*
G01*
X024985570Y-06941470D01*
G01*
X025137107Y-06817107D01*
G01*
X025165561Y-06782436D01*
G01*
X025165561Y-07977564D01*
G01*
X025137107Y-07942893D01*
G01*
X024985570Y-07818530D01*
G01*
X024812683Y-07726120D01*
G01*
X024625090Y-07669215D01*
G01*
X024430000Y-07650000D01*
G01*
X024234910Y-07669215D01*
G01*
X024047317Y-07726120D01*
G01*
X023874430Y-07818530D01*
G01*
X023722893Y-07942893D01*
G01*
X023598530Y-08094430D01*
G01*
X023506120Y-08267317D01*
G01*
X023449215Y-08454910D01*
G01*
X023430000Y-08650000D01*
G01*
X023449215Y-08845090D01*
G01*
X023506120Y-09032683D01*
G01*
X023598530Y-09205570D01*
G01*
X023722893Y-09357107D01*
G01*
X023874430Y-09481470D01*
G01*
X024047317Y-09573880D01*
G01*
X024234910Y-09630785D01*
G01*
X024430000Y-09650000D01*
G01*
X024625090Y-09630785D01*
G01*
X024812683Y-09573880D01*
G01*
X024985570Y-09481470D01*
G01*
X025137107Y-09357107D01*
G01*
X025165561Y-09322436D01*
G01*
X025165561Y-10517564D01*
G01*
X025137107Y-10482893D01*
G01*
X024985570Y-10358530D01*
G01*
X024812683Y-10266120D01*
G01*
X024625090Y-10209215D01*
G01*
X024430000Y-10190000D01*
G01*
X024234910Y-10209215D01*
G01*
X024047317Y-10266120D01*
G01*
X023874430Y-10358530D01*
G01*
X023722893Y-10482893D01*
G01*
X023598530Y-10634430D01*
G01*
X023506120Y-10807317D01*
G01*
X023449215Y-10994910D01*
G01*
X023430000Y-11190000D01*
G01*
X023449215Y-11385090D01*
G01*
X023506120Y-11572683D01*
G01*
X023598530Y-11745570D01*
G01*
X023722893Y-11897107D01*
G01*
X023874430Y-12021470D01*
G01*
X024047317Y-12113880D01*
G01*
X024234910Y-12170785D01*
G01*
X024430000Y-12190000D01*
G01*
X024625090Y-12170785D01*
G01*
X024812683Y-12113880D01*
G01*
X024985570Y-12021470D01*
G01*
X025137107Y-11897107D01*
G01*
X025165561Y-11862436D01*
G01*
X025165561Y-13057564D01*
G01*
X025137107Y-13022893D01*
G01*
X024985570Y-12898530D01*
G01*
X024812683Y-12806120D01*
G01*
X024625090Y-12749215D01*
G01*
X024430000Y-12730000D01*
G01*
X024234910Y-12749215D01*
G01*
X024047317Y-12806120D01*
G01*
X023874430Y-12898530D01*
G01*
X023722893Y-13022893D01*
G01*
X023598530Y-13174430D01*
G01*
X023506120Y-13347317D01*
G01*
X023449215Y-13534910D01*
G01*
X023430000Y-13730000D01*
G01*
X023449215Y-13925090D01*
G01*
X023506120Y-14112683D01*
G01*
X023598530Y-14285570D01*
G01*
X023722893Y-14437107D01*
G01*
X023874430Y-14561470D01*
G01*
X024047317Y-14653880D01*
G01*
X024234910Y-14710785D01*
G01*
X024430000Y-14730000D01*
G01*
X024625090Y-14710785D01*
G01*
X024812683Y-14653880D01*
G01*
X024985570Y-14561470D01*
G01*
X025137107Y-14437107D01*
G01*
X025165561Y-14402436D01*
G01*
X025165561Y-15597564D01*
G01*
X025137107Y-15562893D01*
G01*
X024985570Y-15438530D01*
G01*
X024812683Y-15346120D01*
G01*
X024625090Y-15289215D01*
G01*
X024430000Y-15270000D01*
G01*
X024234910Y-15289215D01*
G01*
X024047317Y-15346120D01*
G01*
X023874430Y-15438530D01*
G01*
X023722893Y-15562893D01*
G01*
X023598530Y-15714430D01*
G01*
X023506120Y-15887317D01*
G01*
X023449215Y-16074910D01*
G01*
X023430000Y-16270000D01*
G01*
X023449215Y-16465090D01*
G01*
X023506120Y-16652683D01*
G01*
X023598530Y-16825570D01*
G01*
X023722893Y-16977107D01*
G01*
X023874430Y-17101470D01*
G01*
X024047317Y-17193880D01*
G01*
X024234910Y-17250785D01*
G01*
X024430000Y-17270000D01*
G01*
X024625090Y-17250785D01*
G01*
X024812683Y-17193880D01*
G01*
X024985570Y-17101470D01*
G01*
X025137107Y-16977107D01*
G01*
X025165561Y-16942436D01*
G01*
X025165561Y-18137564D01*
G01*
X025137107Y-18102893D01*
G01*
X024985570Y-17978530D01*
G01*
X024812683Y-17886120D01*
G01*
X024625090Y-17829215D01*
G01*
X024430000Y-17810000D01*
G01*
X024234910Y-17829215D01*
G01*
X024047317Y-17886120D01*
G01*
X023874430Y-17978530D01*
G01*
X023722893Y-18102893D01*
G01*
X023598530Y-18254430D01*
G01*
X023506120Y-18427317D01*
G01*
X023449215Y-18614910D01*
G01*
X023430000Y-18810000D01*
G01*
X023449215Y-19005090D01*
G01*
X023506120Y-19192683D01*
G01*
X023598530Y-19365570D01*
G01*
X023722893Y-19517107D01*
G01*
X023874430Y-19641470D01*
G01*
X024047317Y-19733880D01*
G01*
X024234910Y-19790785D01*
G01*
X024430000Y-19810000D01*
G01*
X024625090Y-19790785D01*
G01*
X024812683Y-19733880D01*
G01*
X024985570Y-19641470D01*
G01*
X025137107Y-19517107D01*
G01*
X025165561Y-19482436D01*
G01*
X025165561Y-20677564D01*
G01*
X025137107Y-20642893D01*
G01*
X024985570Y-20518530D01*
G01*
X024812683Y-20426120D01*
G01*
X024625090Y-20369215D01*
G01*
X024430000Y-20350000D01*
G01*
X024234910Y-20369215D01*
G01*
X024047317Y-20426120D01*
G01*
X023874430Y-20518530D01*
G01*
X023722893Y-20642893D01*
G01*
X023598530Y-20794430D01*
G01*
X023506120Y-20967317D01*
G01*
X023449215Y-21154910D01*
G01*
X023430000Y-21350000D01*
G01*
X023449215Y-21545090D01*
G01*
X023506120Y-21732683D01*
G01*
X023598530Y-21905570D01*
G01*
X023722893Y-22057107D01*
G01*
X023874430Y-22181470D01*
G01*
X024047317Y-22273880D01*
G01*
X024234910Y-22330785D01*
G01*
X024430000Y-22350000D01*
G01*
X024625090Y-22330785D01*
G01*
X024812683Y-22273880D01*
G01*
X024985570Y-22181470D01*
G01*
X025137107Y-22057107D01*
G01*
X025165561Y-22022436D01*
G01*
X025165561Y-22694819D01*
G01*
X024865845Y-22994535D01*
G01*
X024812683Y-22966120D01*
G01*
X024625090Y-22909215D01*
G01*
X024430000Y-22890000D01*
G01*
X024234910Y-22909215D01*
G01*
X024047317Y-22966120D01*
G01*
X023874430Y-23058530D01*
G01*
X023722893Y-23182893D01*
G01*
X023598530Y-23334430D01*
G01*
X023506120Y-23507317D01*
G01*
X023449215Y-23694910D01*
G01*
X023430000Y-23890000D01*
G01*
X023449215Y-24085090D01*
G01*
X023506120Y-24272683D01*
G01*
X023598530Y-24445570D01*
G01*
X023722893Y-24597107D01*
G01*
X023874430Y-24721470D01*
G01*
X024047317Y-24813880D01*
G01*
X024234910Y-24870785D01*
G01*
X024430000Y-24890000D01*
G01*
X024625090Y-24870785D01*
G01*
X024812683Y-24813880D01*
G01*
X024985570Y-24721470D01*
G01*
X025137107Y-24597107D01*
G01*
X025261470Y-24445570D01*
G01*
X025353880Y-24272683D01*
G01*
X025410785Y-24085090D01*
G01*
X025430000Y-23890000D01*
G01*
X025410785Y-23694910D01*
G01*
X025353880Y-23507317D01*
G01*
X025325465Y-23454155D01*
G01*
X025720371Y-23059249D01*
G01*
X025760789Y-23009999D01*
G01*
X025790822Y-22953811D01*
G01*
X025809316Y-22892843D01*
G01*
X025815561Y-22829439D01*
G01*
X025815561Y037068135D01*
G01*
X025809316Y037131539D01*
G01*
X025790822Y037192507D01*
G01*
X025760789Y037248695D01*
G01*
X025720371Y037297944D01*
G01*
X023438315Y039580000D01*
G01*
X024580380Y039580000D01*
G01*
X028241355Y035919026D01*
G01*
X028241355Y-27239026D01*
G01*
X024865845Y-30614535D01*
G01*
X024812683Y-30586120D01*
G01*
X024625090Y-30529215D01*
G01*
X024430000Y-30510000D01*
G01*
X024234910Y-30529215D01*
G01*
X024047317Y-30586120D01*
G01*
X023874430Y-30678530D01*
G01*
X023722893Y-30802893D01*
G01*
X023598530Y-30954430D01*
G01*
X023506120Y-31127317D01*
G01*
X023449215Y-31314910D01*
G01*
X023430000Y-31510000D01*
G01*
X023449215Y-31705090D01*
G01*
X023506120Y-31892683D01*
G01*
X023598530Y-32065570D01*
G01*
X023722893Y-32217107D01*
G01*
X023874430Y-32341470D01*
G01*
X024047317Y-32433880D01*
G01*
X024234910Y-32490785D01*
G01*
X024430000Y-32510000D01*
G37*
D38*
G36*
X012580000Y039580000D02*
G01*
X014880000Y039580000D01*
G01*
X014880000Y041880000D01*
G01*
X012580000Y041880000D01*
G01*
X012580000Y039580000D01*
G37*
D38*
G36*
X036350000Y038370000D02*
G01*
X039650000Y038370000D01*
G01*
X039650000Y041670000D01*
G01*
X036350000Y041670000D01*
G01*
X036350000Y038370000D01*
G37*
D38*
G36*
X-45310000Y039200000D02*
G01*
X-43010000Y039200000D01*
G01*
X-43010000Y041500000D01*
G01*
X-45310000Y041500000D01*
G01*
X-45310000Y039200000D01*
G37*
D38*
G36*
X-42770000Y039200000D02*
G01*
X-40470000Y039200000D01*
G01*
X-40470000Y041500000D01*
G01*
X-42770000Y041500000D01*
G01*
X-42770000Y039200000D01*
G37*
D38*
G36*
X036350000Y034410000D02*
G01*
X039650000Y034410000D01*
G01*
X039650000Y037710000D01*
G01*
X036350000Y037710000D01*
G01*
X036350000Y034410000D01*
G37*
D38*
G36*
X-45310000Y034120000D02*
G01*
X-43010000Y034120000D01*
G01*
X-43010000Y036420000D01*
G01*
X-45310000Y036420000D01*
G01*
X-45310000Y034120000D01*
G37*
D38*
G36*
X-42770000Y034120000D02*
G01*
X-40470000Y034120000D01*
G01*
X-40470000Y036420000D01*
G01*
X-42770000Y036420000D01*
G01*
X-42770000Y034120000D01*
G37*
D38*
G36*
X-65690000Y024142500D02*
G01*
X-63390000Y024142500D01*
G01*
X-63390000Y025381882D01*
G01*
X-56792325Y031980000D01*
G01*
X-45310000Y031980000D01*
G01*
X-45310000Y031580000D01*
G01*
X-43010000Y031580000D01*
G01*
X-43010000Y033880000D01*
G01*
X-45310000Y033880000D01*
G01*
X-45310000Y033480000D01*
G01*
X-57103000Y033480000D01*
G01*
X-57249318Y033465589D01*
G01*
X-57390013Y033422910D01*
G01*
X-57519678Y033353602D01*
G01*
X-57633330Y033260330D01*
G01*
X-57633346Y033260310D01*
G01*
X-57633348Y033260312D01*
G01*
X-64450702Y026442500D01*
G01*
X-65690000Y026442500D01*
G01*
X-65690000Y024142500D01*
G37*
D38*
G36*
X-42770000Y031580000D02*
G01*
X-40470000Y031580000D01*
G01*
X-40470000Y033880000D01*
G01*
X-42770000Y033880000D01*
G01*
X-42770000Y031580000D01*
G37*
D38*
G36*
X064250000Y-07250000D02*
G01*
X066750000Y-07250000D01*
G01*
X066750000Y-04750000D01*
G01*
X064709620Y-04750000D01*
G01*
X055848000Y004111620D01*
G01*
X055848000Y030901526D01*
G01*
X055855588Y030910772D01*
G01*
X055892552Y030979927D01*
G01*
X055915314Y031054964D01*
G01*
X055923000Y031133000D01*
G01*
X055915314Y031211036D01*
G01*
X055892552Y031286073D01*
G01*
X055855588Y031355228D01*
G01*
X055805843Y031415843D01*
G01*
X055745228Y031465588D01*
G01*
X055676073Y031502552D01*
G01*
X055601036Y031525314D01*
G01*
X055523000Y031533000D01*
G01*
X055444964Y031525314D01*
G01*
X055369927Y031502552D01*
G01*
X055300772Y031465588D01*
G01*
X055240157Y031415843D01*
G01*
X055190412Y031355228D01*
G01*
X055153448Y031286073D01*
G01*
X055130686Y031211036D01*
G01*
X055123000Y031133000D01*
G01*
X055130686Y031054964D01*
G01*
X055153448Y030979927D01*
G01*
X055190412Y030910772D01*
G01*
X055198000Y030901526D01*
G01*
X055198000Y003977000D01*
G01*
X055204245Y003913596D01*
G01*
X055222739Y003852628D01*
G01*
X055252772Y003796440D01*
G01*
X055293190Y003747190D01*
G01*
X064250000Y-05209620D01*
G01*
X064250000Y-07250000D01*
G37*
D38*
G36*
X009808000Y022949000D02*
G01*
X009886036Y022956686D01*
G01*
X009961073Y022979448D01*
G01*
X010030228Y023016412D01*
G01*
X010039474Y023024000D01*
G01*
X011593000Y023024000D01*
G01*
X011656404Y023030245D01*
G01*
X011717372Y023048739D01*
G01*
X011773560Y023078772D01*
G01*
X011822810Y023119190D01*
G01*
X014706133Y026002514D01*
G01*
X014718036Y026003686D01*
G01*
X014793073Y026026448D01*
G01*
X014862228Y026063412D01*
G01*
X014922843Y026113157D01*
G01*
X014972588Y026173772D01*
G01*
X015009552Y026242927D01*
G01*
X015032314Y026317964D01*
G01*
X015040000Y026396000D01*
G01*
X015032314Y026474036D01*
G01*
X015009552Y026549073D01*
G01*
X014972588Y026618228D01*
G01*
X014922843Y026678843D01*
G01*
X014862228Y026728588D01*
G01*
X014793073Y026765552D01*
G01*
X014718036Y026788314D01*
G01*
X014640000Y026796000D01*
G01*
X014561964Y026788314D01*
G01*
X014486927Y026765552D01*
G01*
X014417772Y026728588D01*
G01*
X014357157Y026678843D01*
G01*
X014307412Y026618228D01*
G01*
X014270448Y026549073D01*
G01*
X014247686Y026474036D01*
G01*
X014246514Y026462133D01*
G01*
X011458380Y023674000D01*
G01*
X010039474Y023674000D01*
G01*
X010030228Y023681588D01*
G01*
X009961073Y023718552D01*
G01*
X009886036Y023741314D01*
G01*
X009808000Y023749000D01*
G01*
X009729964Y023741314D01*
G01*
X009654927Y023718552D01*
G01*
X009585772Y023681588D01*
G01*
X009525157Y023631843D01*
G01*
X009475412Y023571228D01*
G01*
X009438448Y023502073D01*
G01*
X009415686Y023427036D01*
G01*
X009408000Y023349000D01*
G01*
X009415686Y023270964D01*
G01*
X009438448Y023195927D01*
G01*
X009475412Y023126772D01*
G01*
X009525157Y023066157D01*
G01*
X009585772Y023016412D01*
G01*
X009654927Y022979448D01*
G01*
X009729964Y022956686D01*
G01*
X009808000Y022949000D01*
G37*
D38*
G36*
X-60610000Y024142500D02*
G01*
X-58310000Y024142500D01*
G01*
X-58310000Y026442500D01*
G01*
X-60610000Y026442500D01*
G01*
X-60610000Y024142500D01*
G37*
D38*
G36*
X021679000Y022590000D02*
G01*
X021739158Y022590000D01*
G01*
X021885476Y022604411D01*
G01*
X022026171Y022647090D01*
G01*
X022155836Y022716398D01*
G01*
X022269488Y022809670D01*
G01*
X022865724Y023405906D01*
G01*
X023421493Y023961675D01*
G01*
X023470802Y024002142D01*
G01*
X023564330Y024095670D01*
G01*
X023657602Y024209322D01*
G01*
X023726910Y024338987D01*
G01*
X023769589Y024479682D01*
G01*
X023784000Y024626000D01*
G01*
X023769589Y024772318D01*
G01*
X023726910Y024913013D01*
G01*
X023657602Y025042678D01*
G01*
X023564330Y025156330D01*
G01*
X023450678Y025249602D01*
G01*
X023321013Y025318910D01*
G01*
X023180318Y025361589D01*
G01*
X023034000Y025376000D01*
G01*
X022887682Y025361589D01*
G01*
X022746987Y025318910D01*
G01*
X022617322Y025249602D01*
G01*
X022503670Y025156330D01*
G01*
X022450609Y025103269D01*
G01*
X022401300Y025062802D01*
G01*
X021805064Y024466566D01*
G01*
X021347777Y024009279D01*
G01*
X021262322Y023963602D01*
G01*
X021148670Y023870330D01*
G01*
X021055398Y023756678D01*
G01*
X020986090Y023627013D01*
G01*
X020943411Y023486318D01*
G01*
X020929000Y023340000D01*
G01*
X020943411Y023193682D01*
G01*
X020986090Y023052987D01*
G01*
X021055398Y022923322D01*
G01*
X021148670Y022809670D01*
G01*
X021262322Y022716398D01*
G01*
X021391987Y022647090D01*
G01*
X021532682Y022604411D01*
G01*
X021679000Y022590000D01*
G37*
D38*
G36*
X-44541000Y022119000D02*
G01*
X-44279579Y022144748D01*
G01*
X-44028204Y022221001D01*
G01*
X-43796536Y022344831D01*
G01*
X-43593477Y022511477D01*
G01*
X-43426831Y022714536D01*
G01*
X-43303001Y022946204D01*
G01*
X-43226748Y023197579D01*
G01*
X-43201000Y023459000D01*
G01*
X-43226748Y023720421D01*
G01*
X-43303001Y023971796D01*
G01*
X-43426831Y024203464D01*
G01*
X-43593477Y024406523D01*
G01*
X-43796536Y024573169D01*
G01*
X-44028204Y024696999D01*
G01*
X-44279579Y024773252D01*
G01*
X-44541000Y024799000D01*
G01*
X-44802421Y024773252D01*
G01*
X-45053796Y024696999D01*
G01*
X-45285464Y024573169D01*
G01*
X-45488523Y024406523D01*
G01*
X-45655169Y024203464D01*
G01*
X-45778999Y023971796D01*
G01*
X-45855252Y023720421D01*
G01*
X-45881000Y023459000D01*
G01*
X-45855252Y023197579D01*
G01*
X-45778999Y022946204D01*
G01*
X-45655169Y022714536D01*
G01*
X-45488523Y022511477D01*
G01*
X-45285464Y022344831D01*
G01*
X-45053796Y022221001D01*
G01*
X-44802421Y022144748D01*
G01*
X-44541000Y022119000D01*
G37*
D38*
G36*
X003805000Y-00975000D02*
G01*
X003883036Y-00967314D01*
G01*
X003958073Y-00944552D01*
G01*
X004027228Y-00907588D01*
G01*
X004087843Y-00857843D01*
G01*
X004137588Y-00797228D01*
G01*
X004174552Y-00728073D01*
G01*
X004197314Y-00653036D01*
G01*
X004205000Y-00575000D01*
G01*
X004197314Y-00496964D01*
G01*
X004174552Y-00421927D01*
G01*
X004137588Y-00352772D01*
G01*
X004130000Y-00343526D01*
G01*
X004130000Y010097639D01*
G01*
X009075737Y015043376D01*
G01*
X009089036Y015044686D01*
G01*
X009164073Y015067448D01*
G01*
X009233228Y015104412D01*
G01*
X009293843Y015154157D01*
G01*
X009343588Y015214772D01*
G01*
X009380552Y015283927D01*
G01*
X009403314Y015358964D01*
G01*
X009411000Y015437000D01*
G01*
X009404795Y015500000D01*
G01*
X012850000Y015500000D01*
G01*
X012996318Y015514411D01*
G01*
X013137013Y015557090D01*
G01*
X013266678Y015626398D01*
G01*
X013380330Y015719670D01*
G01*
X014730330Y017069670D01*
G01*
X014823602Y017183322D01*
G01*
X014892910Y017312987D01*
G01*
X014935589Y017453682D01*
G01*
X014950000Y017600000D01*
G01*
X014935589Y017746318D01*
G01*
X014892910Y017887013D01*
G01*
X014823602Y018016678D01*
G01*
X014730330Y018130330D01*
G01*
X014616678Y018223602D01*
G01*
X014487013Y018292910D01*
G01*
X014346318Y018335589D01*
G01*
X014200000Y018350000D01*
G01*
X014053682Y018335589D01*
G01*
X013912987Y018292910D01*
G01*
X013783322Y018223602D01*
G01*
X013669670Y018130330D01*
G01*
X012539340Y017000000D01*
G01*
X009000000Y017000000D01*
G01*
X008853682Y016985589D01*
G01*
X008803534Y016970377D01*
G01*
X008802662Y016973573D01*
G01*
X003399561Y015500000D01*
G01*
X002000000Y015500000D01*
G01*
X001853682Y015485589D01*
G01*
X001712987Y015442910D01*
G01*
X001583322Y015373602D01*
G01*
X001469670Y015280330D01*
G01*
X-00530330Y013280330D01*
G01*
X-00623602Y013166678D01*
G01*
X-00692910Y013037013D01*
G01*
X-00735589Y012896318D01*
G01*
X-00750000Y012750000D01*
G01*
X-00750000Y009130000D01*
G01*
X-00735589Y008983682D01*
G01*
X-00692910Y008842987D01*
G01*
X-00623602Y008713322D01*
G01*
X-00530330Y008599670D01*
G01*
X-00416678Y008506398D01*
G01*
X-00287013Y008437090D01*
G01*
X-00146318Y008394411D01*
G01*
X000000000Y008380000D01*
G01*
X000915158Y008380000D01*
G01*
X001014430Y008298530D01*
G01*
X001187317Y008206120D01*
G01*
X001374910Y008149215D01*
G01*
X001570000Y008130000D01*
G01*
X001765090Y008149215D01*
G01*
X001952683Y008206120D01*
G01*
X002125570Y008298530D01*
G01*
X002277107Y008422893D01*
G01*
X002401470Y008574430D01*
G01*
X002493880Y008747317D01*
G01*
X002550785Y008934910D01*
G01*
X002570000Y009130000D01*
G01*
X002550785Y009325090D01*
G01*
X002493880Y009512683D01*
G01*
X002401470Y009685570D01*
G01*
X002277107Y009837107D01*
G01*
X002125570Y009961470D01*
G01*
X001952683Y010053880D01*
G01*
X001765090Y010110785D01*
G01*
X001570000Y010130000D01*
G01*
X001374910Y010110785D01*
G01*
X001187317Y010053880D01*
G01*
X001014430Y009961470D01*
G01*
X000915158Y009880000D01*
G01*
X000750000Y009880000D01*
G01*
X000750000Y012439340D01*
G01*
X002310660Y014000000D01*
G01*
X003188831Y014000000D01*
G01*
X003148772Y013978588D01*
G01*
X003088157Y013928843D01*
G01*
X003038412Y013868228D01*
G01*
X003001448Y013799073D01*
G01*
X002978686Y013724036D01*
G01*
X002976210Y013698896D01*
G01*
X002949739Y013649372D01*
G01*
X002931245Y013588404D01*
G01*
X002925000Y013525000D01*
G01*
X002925000Y013484212D01*
G01*
X002925000Y011217474D01*
G01*
X002917412Y011208228D01*
G01*
X002880448Y011139073D01*
G01*
X002857686Y011064036D01*
G01*
X002850000Y010986000D01*
G01*
X002857686Y010907964D01*
G01*
X002880448Y010832927D01*
G01*
X002917412Y010763772D01*
G01*
X002967157Y010703157D01*
G01*
X003027772Y010653412D01*
G01*
X003096927Y010616448D01*
G01*
X003171964Y010593686D01*
G01*
X003250000Y010586000D01*
G01*
X003328036Y010593686D01*
G01*
X003403073Y010616448D01*
G01*
X003472228Y010653412D01*
G01*
X003532843Y010703157D01*
G01*
X003582588Y010763772D01*
G01*
X003619552Y010832927D01*
G01*
X003642314Y010907964D01*
G01*
X003650000Y010986000D01*
G01*
X003642314Y011064036D01*
G01*
X003619552Y011139073D01*
G01*
X003582588Y011208228D01*
G01*
X003575000Y011217474D01*
G01*
X003575000Y013303669D01*
G01*
X003593228Y013313412D01*
G01*
X003653843Y013363157D01*
G01*
X003703588Y013423772D01*
G01*
X003740552Y013492927D01*
G01*
X003763314Y013567964D01*
G01*
X003771000Y013646000D01*
G01*
X003763314Y013724036D01*
G01*
X003740552Y013799073D01*
G01*
X003703588Y013868228D01*
G01*
X003653843Y013928843D01*
G01*
X003593228Y013978588D01*
G01*
X003544896Y014004422D01*
G01*
X003646318Y014014411D01*
G01*
X003696466Y014029623D01*
G01*
X003697338Y014026427D01*
G01*
X008430378Y015317256D01*
G01*
X003575190Y010462068D01*
G01*
X003534772Y010412819D01*
G01*
X003504739Y010356631D01*
G01*
X003486245Y010295663D01*
G01*
X003480000Y010232259D01*
G01*
X003480000Y-00343526D01*
G01*
X003472412Y-00352772D01*
G01*
X003435448Y-00421927D01*
G01*
X003412686Y-00496964D01*
G01*
X003405000Y-00575000D01*
G01*
X003412686Y-00653036D01*
G01*
X003435448Y-00728073D01*
G01*
X003472412Y-00797228D01*
G01*
X003522157Y-00857843D01*
G01*
X003582772Y-00907588D01*
G01*
X003651927Y-00944552D01*
G01*
X003726964Y-00967314D01*
G01*
X003805000Y-00975000D01*
G37*
D38*
G36*
X-77500000Y014000000D02*
G01*
X-75500000Y014000000D01*
G01*
X-75500000Y016000000D01*
G01*
X-77500000Y016000000D01*
G01*
X-77500000Y014000000D01*
G37*
D38*
G36*
X-65460000Y-01000000D02*
G01*
X-65264910Y-00980785D01*
G01*
X-65077317Y-00923880D01*
G01*
X-64904430Y-00831470D01*
G01*
X-64752893Y-00707107D01*
G01*
X-64628530Y-00555570D01*
G01*
X-64536120Y-00382683D01*
G01*
X-64479215Y-00195090D01*
G01*
X-64460000Y000000000D01*
G01*
X-64479215Y000195090D01*
G01*
X-64536120Y000382683D01*
G01*
X-64628530Y000555570D01*
G01*
X-64752893Y000707107D01*
G01*
X-64904430Y000831470D01*
G01*
X-65077317Y000923880D01*
G01*
X-65135000Y000941378D01*
G01*
X-65135000Y005102539D01*
G01*
X-60479169Y009758370D01*
G01*
X-60475964Y009758686D01*
G01*
X-60400927Y009781448D01*
G01*
X-60331772Y009818412D01*
G01*
X-60271157Y009868157D01*
G01*
X-60221412Y009928772D01*
G01*
X-60184448Y009997927D01*
G01*
X-60161686Y010072964D01*
G01*
X-60154000Y010151000D01*
G01*
X-60161686Y010229036D01*
G01*
X-60184448Y010304073D01*
G01*
X-60221412Y010373228D01*
G01*
X-60271157Y010433843D01*
G01*
X-60331772Y010483588D01*
G01*
X-60400927Y010520552D01*
G01*
X-60475964Y010543314D01*
G01*
X-60554000Y010551000D01*
G01*
X-60632036Y010543314D01*
G01*
X-60707073Y010520552D01*
G01*
X-60776228Y010483588D01*
G01*
X-60836843Y010433843D01*
G01*
X-60886588Y010373228D01*
G01*
X-60923552Y010304073D01*
G01*
X-60946314Y010229036D01*
G01*
X-60948343Y010208434D01*
G01*
X-65689810Y005466968D01*
G01*
X-65730228Y005417719D01*
G01*
X-65760261Y005361530D01*
G01*
X-65778755Y005300563D01*
G01*
X-65785000Y005237158D01*
G01*
X-65785000Y000941378D01*
G01*
X-65842683Y000923880D01*
G01*
X-66015570Y000831470D01*
G01*
X-66167107Y000707107D01*
G01*
X-66291470Y000555570D01*
G01*
X-66383880Y000382683D01*
G01*
X-66440785Y000195090D01*
G01*
X-66460000Y000000000D01*
G01*
X-66440785Y-00195090D01*
G01*
X-66383880Y-00382683D01*
G01*
X-66291470Y-00555570D01*
G01*
X-66167107Y-00707107D01*
G01*
X-66015570Y-00831470D01*
G01*
X-65842683Y-00923880D01*
G01*
X-65655090Y-00980785D01*
G01*
X-65460000Y-01000000D01*
G37*
D38*
G36*
X027071000Y-17203000D02*
G01*
X027149036Y-17195314D01*
G01*
X027224073Y-17172552D01*
G01*
X027293228Y-17135588D01*
G01*
X027353843Y-17085843D01*
G01*
X027403588Y-17025228D01*
G01*
X027440552Y-16956073D01*
G01*
X027463314Y-16881036D01*
G01*
X027465849Y-16855293D01*
G01*
X027553810Y-16767333D01*
G01*
X027594228Y-16718083D01*
G01*
X027624261Y-16661895D01*
G01*
X027642755Y-16600927D01*
G01*
X027649000Y-16537523D01*
G01*
X027649000Y008943526D01*
G01*
X027656588Y008952772D01*
G01*
X027693552Y009021927D01*
G01*
X027716314Y009096964D01*
G01*
X027724000Y009175000D01*
G01*
X027716314Y009253036D01*
G01*
X027693552Y009328073D01*
G01*
X027656588Y009397228D01*
G01*
X027606843Y009457843D01*
G01*
X027546228Y009507588D01*
G01*
X027477073Y009544552D01*
G01*
X027402036Y009567314D01*
G01*
X027324000Y009575000D01*
G01*
X027245964Y009567314D01*
G01*
X027170927Y009544552D01*
G01*
X027101772Y009507588D01*
G01*
X027041157Y009457843D01*
G01*
X026991412Y009397228D01*
G01*
X026954448Y009328073D01*
G01*
X026931686Y009253036D01*
G01*
X026924000Y009175000D01*
G01*
X026931686Y009096964D01*
G01*
X026954448Y009021927D01*
G01*
X026991412Y008952772D01*
G01*
X026999000Y008943526D01*
G01*
X026999000Y-16402903D01*
G01*
X026990457Y-16411447D01*
G01*
X026917927Y-16433448D01*
G01*
X026848772Y-16470412D01*
G01*
X026788157Y-16520157D01*
G01*
X026738412Y-16580772D01*
G01*
X026701448Y-16649927D01*
G01*
X026678686Y-16724964D01*
G01*
X026671000Y-16803000D01*
G01*
X026678686Y-16881036D01*
G01*
X026701448Y-16956073D01*
G01*
X026738412Y-17025228D01*
G01*
X026788157Y-17085843D01*
G01*
X026848772Y-17135588D01*
G01*
X026917927Y-17172552D01*
G01*
X026992964Y-17195314D01*
G01*
X027071000Y-17203000D01*
G37*
D38*
G36*
X001570000Y005590000D02*
G01*
X001765090Y005609215D01*
G01*
X001952683Y005666120D01*
G01*
X002125570Y005758530D01*
G01*
X002277107Y005882893D01*
G01*
X002401470Y006034430D01*
G01*
X002493880Y006207317D01*
G01*
X002550785Y006394910D01*
G01*
X002570000Y006590000D01*
G01*
X002550785Y006785090D01*
G01*
X002493880Y006972683D01*
G01*
X002401470Y007145570D01*
G01*
X002277107Y007297107D01*
G01*
X002125570Y007421470D01*
G01*
X001952683Y007513880D01*
G01*
X001765090Y007570785D01*
G01*
X001570000Y007590000D01*
G01*
X001374910Y007570785D01*
G01*
X001187317Y007513880D01*
G01*
X001014430Y007421470D01*
G01*
X000862893Y007297107D01*
G01*
X000738530Y007145570D01*
G01*
X000646120Y006972683D01*
G01*
X000589215Y006785090D01*
G01*
X000570000Y006590000D01*
G01*
X000589215Y006394910D01*
G01*
X000646120Y006207317D01*
G01*
X000738530Y006034430D01*
G01*
X000862893Y005882893D01*
G01*
X001014430Y005758530D01*
G01*
X001187317Y005666120D01*
G01*
X001374910Y005609215D01*
G01*
X001570000Y005590000D01*
G37*
D38*
G36*
X008200000Y005397000D02*
G01*
X008278036Y005404686D01*
G01*
X008353073Y005427448D01*
G01*
X008422228Y005464412D01*
G01*
X008482843Y005514157D01*
G01*
X008532588Y005574772D01*
G01*
X008569552Y005643927D01*
G01*
X008592314Y005718964D01*
G01*
X008600000Y005797000D01*
G01*
X008592314Y005875036D01*
G01*
X008569552Y005950073D01*
G01*
X008532588Y006019228D01*
G01*
X008525000Y006028474D01*
G01*
X008525000Y006377526D01*
G01*
X008532588Y006386772D01*
G01*
X008569552Y006455927D01*
G01*
X008592314Y006530964D01*
G01*
X008600000Y006609000D01*
G01*
X008592314Y006687036D01*
G01*
X008569552Y006762073D01*
G01*
X008532588Y006831228D01*
G01*
X008482843Y006891843D01*
G01*
X008422228Y006941588D01*
G01*
X008353073Y006978552D01*
G01*
X008278036Y007001314D01*
G01*
X008200000Y007009000D01*
G01*
X008121964Y007001314D01*
G01*
X008046927Y006978552D01*
G01*
X007977772Y006941588D01*
G01*
X007917157Y006891843D01*
G01*
X007867412Y006831228D01*
G01*
X007830448Y006762073D01*
G01*
X007807686Y006687036D01*
G01*
X007800000Y006609000D01*
G01*
X007807686Y006530964D01*
G01*
X007830448Y006455927D01*
G01*
X007867412Y006386772D01*
G01*
X007875000Y006377526D01*
G01*
X007875000Y006028474D01*
G01*
X007867412Y006019228D01*
G01*
X007830448Y005950073D01*
G01*
X007807686Y005875036D01*
G01*
X007800000Y005797000D01*
G01*
X007807686Y005718964D01*
G01*
X007830448Y005643927D01*
G01*
X007867412Y005574772D01*
G01*
X007917157Y005514157D01*
G01*
X007977772Y005464412D01*
G01*
X008046927Y005427448D01*
G01*
X008121964Y005404686D01*
G01*
X008200000Y005397000D01*
G37*
D38*
G36*
X001570000Y003050000D02*
G01*
X001765090Y003069215D01*
G01*
X001952683Y003126120D01*
G01*
X002125570Y003218530D01*
G01*
X002277107Y003342893D01*
G01*
X002401470Y003494430D01*
G01*
X002493880Y003667317D01*
G01*
X002550785Y003854910D01*
G01*
X002570000Y004050000D01*
G01*
X002550785Y004245090D01*
G01*
X002493880Y004432683D01*
G01*
X002401470Y004605570D01*
G01*
X002277107Y004757107D01*
G01*
X002125570Y004881470D01*
G01*
X001952683Y004973880D01*
G01*
X001765090Y005030785D01*
G01*
X001570000Y005050000D01*
G01*
X001374910Y005030785D01*
G01*
X001187317Y004973880D01*
G01*
X001014430Y004881470D01*
G01*
X000862893Y004757107D01*
G01*
X000738530Y004605570D01*
G01*
X000646120Y004432683D01*
G01*
X000589215Y004245090D01*
G01*
X000570000Y004050000D01*
G01*
X000589215Y003854910D01*
G01*
X000646120Y003667317D01*
G01*
X000738530Y003494430D01*
G01*
X000862893Y003342893D01*
G01*
X001014430Y003218530D01*
G01*
X001187317Y003126120D01*
G01*
X001374910Y003069215D01*
G01*
X001570000Y003050000D01*
G37*
D38*
G36*
X001570000Y000510000D02*
G01*
X001765090Y000529215D01*
G01*
X001952683Y000586120D01*
G01*
X002125570Y000678530D01*
G01*
X002277107Y000802893D01*
G01*
X002401470Y000954430D01*
G01*
X002493880Y001127317D01*
G01*
X002550785Y001314910D01*
G01*
X002570000Y001510000D01*
G01*
X002550785Y001705090D01*
G01*
X002493880Y001892683D01*
G01*
X002401470Y002065570D01*
G01*
X002277107Y002217107D01*
G01*
X002125570Y002341470D01*
G01*
X001952683Y002433880D01*
G01*
X001765090Y002490785D01*
G01*
X001570000Y002510000D01*
G01*
X001374910Y002490785D01*
G01*
X001187317Y002433880D01*
G01*
X001014430Y002341470D01*
G01*
X000862893Y002217107D01*
G01*
X000738530Y002065570D01*
G01*
X000646120Y001892683D01*
G01*
X000589215Y001705090D01*
G01*
X000570000Y001510000D01*
G01*
X000589215Y001314910D01*
G01*
X000646120Y001127317D01*
G01*
X000738530Y000954430D01*
G01*
X000862893Y000802893D01*
G01*
X001014430Y000678530D01*
G01*
X001187317Y000586120D01*
G01*
X001374910Y000529215D01*
G01*
X001570000Y000510000D01*
G37*
D38*
G36*
X-71540000Y-01000000D02*
G01*
X-69540000Y-01000000D01*
G01*
X-69540000Y001000000D01*
G01*
X-71540000Y001000000D01*
G01*
X-71540000Y-01000000D01*
G37*
D38*
G36*
X-68000000Y-01000000D02*
G01*
X-67804910Y-00980785D01*
G01*
X-67617317Y-00923880D01*
G01*
X-67444430Y-00831470D01*
G01*
X-67292893Y-00707107D01*
G01*
X-67168530Y-00555570D01*
G01*
X-67076120Y-00382683D01*
G01*
X-67019215Y-00195090D01*
G01*
X-67000000Y000000000D01*
G01*
X-67019215Y000195090D01*
G01*
X-67076120Y000382683D01*
G01*
X-67168530Y000555570D01*
G01*
X-67292893Y000707107D01*
G01*
X-67444430Y000831470D01*
G01*
X-67617317Y000923880D01*
G01*
X-67804910Y000980785D01*
G01*
X-68000000Y001000000D01*
G01*
X-68195090Y000980785D01*
G01*
X-68382683Y000923880D01*
G01*
X-68555570Y000831470D01*
G01*
X-68707107Y000707107D01*
G01*
X-68831470Y000555570D01*
G01*
X-68923880Y000382683D01*
G01*
X-68980785Y000195090D01*
G01*
X-69000000Y000000000D01*
G01*
X-68980785Y-00195090D01*
G01*
X-68923880Y-00382683D01*
G01*
X-68831470Y-00555570D01*
G01*
X-68707107Y-00707107D01*
G01*
X-68555570Y-00831470D01*
G01*
X-68382683Y-00923880D01*
G01*
X-68195090Y-00980785D01*
G01*
X-68000000Y-01000000D01*
G37*
D38*
G36*
X035692000Y-06344000D02*
G01*
X035770036Y-06336314D01*
G01*
X035845073Y-06313552D01*
G01*
X035914228Y-06276588D01*
G01*
X035974843Y-06226843D01*
G01*
X036024588Y-06166228D01*
G01*
X036061552Y-06097073D01*
G01*
X036084314Y-06022036D01*
G01*
X036092000Y-05944000D01*
G01*
X036084314Y-05865964D01*
G01*
X036061552Y-05790927D01*
G01*
X036024588Y-05721772D01*
G01*
X036017000Y-05712526D01*
G01*
X036017000Y-02132225D01*
G01*
X037373162Y-00776063D01*
G01*
X037384997Y-00761642D01*
G01*
X037405073Y-00755552D01*
G01*
X037474228Y-00718588D01*
G01*
X037534843Y-00668843D01*
G01*
X037584588Y-00608228D01*
G01*
X037621552Y-00539073D01*
G01*
X037644314Y-00464036D01*
G01*
X037652000Y-00386000D01*
G01*
X037644314Y-00307964D01*
G01*
X037621552Y-00232927D01*
G01*
X037584588Y-00163772D01*
G01*
X037534843Y-00103157D01*
G01*
X037474228Y-00053412D01*
G01*
X037405073Y-00016448D01*
G01*
X037330036Y000006314D01*
G01*
X037252000Y000014000D01*
G01*
X037173964Y000006314D01*
G01*
X037098927Y-00016448D01*
G01*
X037029772Y-00053412D01*
G01*
X036969157Y-00103157D01*
G01*
X036919412Y-00163772D01*
G01*
X036882448Y-00232927D01*
G01*
X036859686Y-00307964D01*
G01*
X036855911Y-00346291D01*
G01*
X036843091Y-00370276D01*
G01*
X036835855Y-00394131D01*
G01*
X035462190Y-01767796D01*
G01*
X035421772Y-01817045D01*
G01*
X035391739Y-01873234D01*
G01*
X035373245Y-01934201D01*
G01*
X035367000Y-01997606D01*
G01*
X035367000Y-05712526D01*
G01*
X035359412Y-05721772D01*
G01*
X035322448Y-05790927D01*
G01*
X035299686Y-05865964D01*
G01*
X035292000Y-05944000D01*
G01*
X035299686Y-06022036D01*
G01*
X035322448Y-06097073D01*
G01*
X035359412Y-06166228D01*
G01*
X035409157Y-06226843D01*
G01*
X035469772Y-06276588D01*
G01*
X035538927Y-06313552D01*
G01*
X035613964Y-06336314D01*
G01*
X035692000Y-06344000D01*
G37*
D38*
G36*
X001570000Y-02030000D02*
G01*
X001765090Y-02010785D01*
G01*
X001952683Y-01953880D01*
G01*
X002125570Y-01861470D01*
G01*
X002277107Y-01737107D01*
G01*
X002401470Y-01585570D01*
G01*
X002493880Y-01412683D01*
G01*
X002550785Y-01225090D01*
G01*
X002570000Y-01030000D01*
G01*
X002550785Y-00834910D01*
G01*
X002493880Y-00647317D01*
G01*
X002401470Y-00474430D01*
G01*
X002277107Y-00322893D01*
G01*
X002125570Y-00198530D01*
G01*
X001952683Y-00106120D01*
G01*
X001765090Y-00049215D01*
G01*
X001570000Y-00030000D01*
G01*
X001374910Y-00049215D01*
G01*
X001187317Y-00106120D01*
G01*
X001014430Y-00198530D01*
G01*
X000862893Y-00322893D01*
G01*
X000738530Y-00474430D01*
G01*
X000646120Y-00647317D01*
G01*
X000589215Y-00834910D01*
G01*
X000570000Y-01030000D01*
G01*
X000589215Y-01225090D01*
G01*
X000646120Y-01412683D01*
G01*
X000738530Y-01585570D01*
G01*
X000862893Y-01737107D01*
G01*
X001014430Y-01861470D01*
G01*
X001187317Y-01953880D01*
G01*
X001374910Y-02010785D01*
G01*
X001570000Y-02030000D01*
G37*
D38*
G36*
X008712000Y-05009000D02*
G01*
X008790036Y-05001314D01*
G01*
X008865073Y-04978552D01*
G01*
X008934228Y-04941588D01*
G01*
X008994843Y-04891843D01*
G01*
X009044588Y-04831228D01*
G01*
X009081552Y-04762073D01*
G01*
X009104314Y-04687036D01*
G01*
X009112000Y-04609000D01*
G01*
X009104314Y-04530964D01*
G01*
X009081552Y-04455927D01*
G01*
X009044588Y-04386772D01*
G01*
X009037000Y-04377526D01*
G01*
X009037000Y-02598688D01*
G01*
X009058699Y-02572247D01*
G01*
X009081063Y-02530407D01*
G01*
X009087843Y-02524843D01*
G01*
X009137588Y-02464228D01*
G01*
X009174552Y-02395073D01*
G01*
X009197314Y-02320036D01*
G01*
X009205000Y-02242000D01*
G01*
X009197314Y-02163964D01*
G01*
X009174552Y-02088927D01*
G01*
X009137588Y-02019772D01*
G01*
X009087843Y-01959157D01*
G01*
X009027228Y-01909412D01*
G01*
X008958073Y-01872448D01*
G01*
X008883036Y-01849686D01*
G01*
X008805000Y-01842000D01*
G01*
X008726964Y-01849686D01*
G01*
X008651927Y-01872448D01*
G01*
X008582772Y-01909412D01*
G01*
X008522157Y-01959157D01*
G01*
X008472412Y-02019772D01*
G01*
X008435448Y-02088927D01*
G01*
X008412686Y-02163964D01*
G01*
X008405000Y-02242000D01*
G01*
X008412686Y-02320036D01*
G01*
X008416939Y-02334057D01*
G01*
X008411739Y-02343786D01*
G01*
X008393245Y-02404754D01*
G01*
X008387000Y-02468158D01*
G01*
X008387000Y-04377526D01*
G01*
X008379412Y-04386772D01*
G01*
X008342448Y-04455927D01*
G01*
X008319686Y-04530964D01*
G01*
X008312000Y-04609000D01*
G01*
X008319686Y-04687036D01*
G01*
X008342448Y-04762073D01*
G01*
X008379412Y-04831228D01*
G01*
X008429157Y-04891843D01*
G01*
X008489772Y-04941588D01*
G01*
X008558927Y-04978552D01*
G01*
X008633964Y-05001314D01*
G01*
X008712000Y-05009000D01*
G37*
D38*
G36*
X001570000Y-04570000D02*
G01*
X001765090Y-04550785D01*
G01*
X001952683Y-04493880D01*
G01*
X002125570Y-04401470D01*
G01*
X002277107Y-04277107D01*
G01*
X002401470Y-04125570D01*
G01*
X002493880Y-03952683D01*
G01*
X002550785Y-03765090D01*
G01*
X002570000Y-03570000D01*
G01*
X002550785Y-03374910D01*
G01*
X002493880Y-03187317D01*
G01*
X002401470Y-03014430D01*
G01*
X002277107Y-02862893D01*
G01*
X002125570Y-02738530D01*
G01*
X001952683Y-02646120D01*
G01*
X001765090Y-02589215D01*
G01*
X001570000Y-02570000D01*
G01*
X001374910Y-02589215D01*
G01*
X001187317Y-02646120D01*
G01*
X001014430Y-02738530D01*
G01*
X000862893Y-02862893D01*
G01*
X000738530Y-03014430D01*
G01*
X000646120Y-03187317D01*
G01*
X000589215Y-03374910D01*
G01*
X000570000Y-03570000D01*
G01*
X000589215Y-03765090D01*
G01*
X000646120Y-03952683D01*
G01*
X000738530Y-04125570D01*
G01*
X000862893Y-04277107D01*
G01*
X001014430Y-04401470D01*
G01*
X001187317Y-04493880D01*
G01*
X001374910Y-04550785D01*
G01*
X001570000Y-04570000D01*
G37*
D38*
G36*
X069250000Y-07250000D02*
G01*
X071750000Y-07250000D01*
G01*
X071750000Y-04750000D01*
G01*
X069250000Y-04750000D01*
G01*
X069250000Y-07250000D01*
G37*
D38*
G36*
X001570000Y-07110000D02*
G01*
X001765090Y-07090785D01*
G01*
X001952683Y-07033880D01*
G01*
X002125570Y-06941470D01*
G01*
X002277107Y-06817107D01*
G01*
X002401470Y-06665570D01*
G01*
X002493880Y-06492683D01*
G01*
X002550785Y-06305090D01*
G01*
X002570000Y-06110000D01*
G01*
X002550785Y-05914910D01*
G01*
X002493880Y-05727317D01*
G01*
X002401470Y-05554430D01*
G01*
X002277107Y-05402893D01*
G01*
X002125570Y-05278530D01*
G01*
X001952683Y-05186120D01*
G01*
X001765090Y-05129215D01*
G01*
X001570000Y-05110000D01*
G01*
X001374910Y-05129215D01*
G01*
X001187317Y-05186120D01*
G01*
X001014430Y-05278530D01*
G01*
X000862893Y-05402893D01*
G01*
X000738530Y-05554430D01*
G01*
X000646120Y-05727317D01*
G01*
X000589215Y-05914910D01*
G01*
X000570000Y-06110000D01*
G01*
X000589215Y-06305090D01*
G01*
X000646120Y-06492683D01*
G01*
X000738530Y-06665570D01*
G01*
X000862893Y-06817107D01*
G01*
X001014430Y-06941470D01*
G01*
X001187317Y-07033880D01*
G01*
X001374910Y-07090785D01*
G01*
X001570000Y-07110000D01*
G37*
D38*
G36*
X010382000Y-09392000D02*
G01*
X010460036Y-09384314D01*
G01*
X010535073Y-09361552D01*
G01*
X010604228Y-09324588D01*
G01*
X010664843Y-09274843D01*
G01*
X010714588Y-09214228D01*
G01*
X010751552Y-09145073D01*
G01*
X010774314Y-09070036D01*
G01*
X010779334Y-09019064D01*
G01*
X011200717Y-08597681D01*
G01*
X011267073Y-08577552D01*
G01*
X011336228Y-08540588D01*
G01*
X011396843Y-08490843D01*
G01*
X011446588Y-08430228D01*
G01*
X011483552Y-08361073D01*
G01*
X011506314Y-08286036D01*
G01*
X011514000Y-08208000D01*
G01*
X011506314Y-08129964D01*
G01*
X011483552Y-08054927D01*
G01*
X011446588Y-07985772D01*
G01*
X011396843Y-07925157D01*
G01*
X011336228Y-07875412D01*
G01*
X011267073Y-07838448D01*
G01*
X011192036Y-07815686D01*
G01*
X011114000Y-07808000D01*
G01*
X011035964Y-07815686D01*
G01*
X010960927Y-07838448D01*
G01*
X010891772Y-07875412D01*
G01*
X010831157Y-07925157D01*
G01*
X010781412Y-07985772D01*
G01*
X010744448Y-08054927D01*
G01*
X010721686Y-08129964D01*
G01*
X010718681Y-08160478D01*
G01*
X010268809Y-08610350D01*
G01*
X010228927Y-08622448D01*
G01*
X010159772Y-08659412D01*
G01*
X010099157Y-08709157D01*
G01*
X010049412Y-08769772D01*
G01*
X010012448Y-08838927D01*
G01*
X009989686Y-08913964D01*
G01*
X009982000Y-08992000D01*
G01*
X009989686Y-09070036D01*
G01*
X010012448Y-09145073D01*
G01*
X010049412Y-09214228D01*
G01*
X010099157Y-09274843D01*
G01*
X010159772Y-09324588D01*
G01*
X010228927Y-09361552D01*
G01*
X010303964Y-09384314D01*
G01*
X010382000Y-09392000D01*
G37*
D38*
G36*
X001570000Y-12190000D02*
G01*
X001765090Y-12170785D01*
G01*
X001952683Y-12113880D01*
G01*
X002125570Y-12021470D01*
G01*
X002277107Y-11897107D01*
G01*
X002401470Y-11745570D01*
G01*
X002493880Y-11572683D01*
G01*
X002550785Y-11385090D01*
G01*
X002570000Y-11190000D01*
G01*
X002550785Y-10994910D01*
G01*
X002493880Y-10807317D01*
G01*
X002401470Y-10634430D01*
G01*
X002277107Y-10482893D01*
G01*
X002125570Y-10358530D01*
G01*
X001952683Y-10266120D01*
G01*
X001765090Y-10209215D01*
G01*
X001570000Y-10190000D01*
G01*
X001374910Y-10209215D01*
G01*
X001187317Y-10266120D01*
G01*
X001014430Y-10358530D01*
G01*
X000862893Y-10482893D01*
G01*
X000738530Y-10634430D01*
G01*
X000646120Y-10807317D01*
G01*
X000589215Y-10994910D01*
G01*
X000570000Y-11190000D01*
G01*
X000589215Y-11385090D01*
G01*
X000646120Y-11572683D01*
G01*
X000738530Y-11745570D01*
G01*
X000862893Y-11897107D01*
G01*
X001014430Y-12021470D01*
G01*
X001187317Y-12113880D01*
G01*
X001374910Y-12170785D01*
G01*
X001570000Y-12190000D01*
G37*
D38*
G36*
X-65460000Y-16000000D02*
G01*
X-65264910Y-15980785D01*
G01*
X-65077317Y-15923880D01*
G01*
X-64904430Y-15831470D01*
G01*
X-64752893Y-15707107D01*
G01*
X-64628530Y-15555570D01*
G01*
X-64536120Y-15382683D01*
G01*
X-64479215Y-15195090D01*
G01*
X-64460000Y-15000000D01*
G01*
X-64479215Y-14804910D01*
G01*
X-64536120Y-14617317D01*
G01*
X-64628530Y-14444430D01*
G01*
X-64697622Y-14360241D01*
G01*
X-61556867Y-11219486D01*
G01*
X-61544964Y-11218314D01*
G01*
X-61469927Y-11195552D01*
G01*
X-61400772Y-11158588D01*
G01*
X-61340157Y-11108843D01*
G01*
X-61290412Y-11048228D01*
G01*
X-61253448Y-10979073D01*
G01*
X-61230686Y-10904036D01*
G01*
X-61223000Y-10826000D01*
G01*
X-61230686Y-10747964D01*
G01*
X-61253448Y-10672927D01*
G01*
X-61290412Y-10603772D01*
G01*
X-61340157Y-10543157D01*
G01*
X-61400772Y-10493412D01*
G01*
X-61469927Y-10456448D01*
G01*
X-61544964Y-10433686D01*
G01*
X-61623000Y-10426000D01*
G01*
X-61701036Y-10433686D01*
G01*
X-61776073Y-10456448D01*
G01*
X-61845228Y-10493412D01*
G01*
X-61905843Y-10543157D01*
G01*
X-61955588Y-10603772D01*
G01*
X-61992552Y-10672927D01*
G01*
X-62015314Y-10747964D01*
G01*
X-62016486Y-10759867D01*
G01*
X-65274855Y-14018235D01*
G01*
X-65460000Y-14000000D01*
G01*
X-65655090Y-14019215D01*
G01*
X-65842683Y-14076120D01*
G01*
X-66015570Y-14168530D01*
G01*
X-66167107Y-14292893D01*
G01*
X-66291470Y-14444430D01*
G01*
X-66383880Y-14617317D01*
G01*
X-66440785Y-14804910D01*
G01*
X-66460000Y-15000000D01*
G01*
X-66440785Y-15195090D01*
G01*
X-66383880Y-15382683D01*
G01*
X-66291470Y-15555570D01*
G01*
X-66167107Y-15707107D01*
G01*
X-66015570Y-15831470D01*
G01*
X-65842683Y-15923880D01*
G01*
X-65655090Y-15980785D01*
G01*
X-65460000Y-16000000D01*
G37*
D38*
G36*
X046200000Y-14400000D02*
G01*
X046278036Y-14392314D01*
G01*
X046353073Y-14369552D01*
G01*
X046422228Y-14332588D01*
G01*
X046482843Y-14282843D01*
G01*
X046532588Y-14222228D01*
G01*
X046569552Y-14153073D01*
G01*
X046592314Y-14078036D01*
G01*
X046600000Y-14000000D01*
G01*
X046592314Y-13921964D01*
G01*
X046569552Y-13846927D01*
G01*
X046532588Y-13777772D01*
G01*
X046525000Y-13768526D01*
G01*
X046525000Y-11402623D01*
G01*
X046518755Y-11339218D01*
G01*
X046500261Y-11278250D01*
G01*
X046470933Y-11223381D01*
G01*
X046468729Y-11201001D01*
G01*
X046445966Y-11125964D01*
G01*
X046409002Y-11056809D01*
G01*
X046359257Y-10996194D01*
G01*
X046298642Y-10946449D01*
G01*
X046229488Y-10909485D01*
G01*
X046154451Y-10886723D01*
G01*
X046076414Y-10879037D01*
G01*
X045998378Y-10886723D01*
G01*
X045923341Y-10909485D01*
G01*
X045854186Y-10946449D01*
G01*
X045793572Y-10996194D01*
G01*
X045743827Y-11056809D01*
G01*
X045706863Y-11125964D01*
G01*
X045684100Y-11201001D01*
G01*
X045676414Y-11279037D01*
G01*
X045684100Y-11357073D01*
G01*
X045706863Y-11432110D01*
G01*
X045743827Y-11501265D01*
G01*
X045793572Y-11561880D01*
G01*
X045854186Y-11611625D01*
G01*
X045875000Y-11622750D01*
G01*
X045875000Y-13768526D01*
G01*
X045867412Y-13777772D01*
G01*
X045830448Y-13846927D01*
G01*
X045807686Y-13921964D01*
G01*
X045800000Y-14000000D01*
G01*
X045807686Y-14078036D01*
G01*
X045830448Y-14153073D01*
G01*
X045867412Y-14222228D01*
G01*
X045917157Y-14282843D01*
G01*
X045977772Y-14332588D01*
G01*
X046046927Y-14369552D01*
G01*
X046121964Y-14392314D01*
G01*
X046200000Y-14400000D01*
G37*
D38*
G36*
X001570000Y-14730000D02*
G01*
X001765090Y-14710785D01*
G01*
X001952683Y-14653880D01*
G01*
X002125570Y-14561470D01*
G01*
X002277107Y-14437107D01*
G01*
X002401470Y-14285570D01*
G01*
X002493880Y-14112683D01*
G01*
X002550785Y-13925090D01*
G01*
X002570000Y-13730000D01*
G01*
X002550785Y-13534910D01*
G01*
X002493880Y-13347317D01*
G01*
X002401470Y-13174430D01*
G01*
X002277107Y-13022893D01*
G01*
X002125570Y-12898530D01*
G01*
X001952683Y-12806120D01*
G01*
X001765090Y-12749215D01*
G01*
X001570000Y-12730000D01*
G01*
X001374910Y-12749215D01*
G01*
X001187317Y-12806120D01*
G01*
X001014430Y-12898530D01*
G01*
X000862893Y-13022893D01*
G01*
X000738530Y-13174430D01*
G01*
X000646120Y-13347317D01*
G01*
X000589215Y-13534910D01*
G01*
X000570000Y-13730000D01*
G01*
X000589215Y-13925090D01*
G01*
X000646120Y-14112683D01*
G01*
X000738530Y-14285570D01*
G01*
X000862893Y-14437107D01*
G01*
X001014430Y-14561470D01*
G01*
X001187317Y-14653880D01*
G01*
X001374910Y-14710785D01*
G01*
X001570000Y-14730000D01*
G37*
D38*
G36*
X-71540000Y-16000000D02*
G01*
X-69540000Y-16000000D01*
G01*
X-69540000Y-14000000D01*
G01*
X-71540000Y-14000000D01*
G01*
X-71540000Y-16000000D01*
G37*
D38*
G36*
X-68000000Y-16000000D02*
G01*
X-67804910Y-15980785D01*
G01*
X-67617317Y-15923880D01*
G01*
X-67444430Y-15831470D01*
G01*
X-67292893Y-15707107D01*
G01*
X-67168530Y-15555570D01*
G01*
X-67076120Y-15382683D01*
G01*
X-67019215Y-15195090D01*
G01*
X-67000000Y-15000000D01*
G01*
X-67019215Y-14804910D01*
G01*
X-67076120Y-14617317D01*
G01*
X-67168530Y-14444430D01*
G01*
X-67292893Y-14292893D01*
G01*
X-67444430Y-14168530D01*
G01*
X-67617317Y-14076120D01*
G01*
X-67804910Y-14019215D01*
G01*
X-68000000Y-14000000D01*
G01*
X-68195090Y-14019215D01*
G01*
X-68382683Y-14076120D01*
G01*
X-68555570Y-14168530D01*
G01*
X-68707107Y-14292893D01*
G01*
X-68831470Y-14444430D01*
G01*
X-68923880Y-14617317D01*
G01*
X-68980785Y-14804910D01*
G01*
X-69000000Y-15000000D01*
G01*
X-68980785Y-15195090D01*
G01*
X-68923880Y-15382683D01*
G01*
X-68831470Y-15555570D01*
G01*
X-68707107Y-15707107D01*
G01*
X-68555570Y-15831470D01*
G01*
X-68382683Y-15923880D01*
G01*
X-68195090Y-15980785D01*
G01*
X-68000000Y-16000000D01*
G37*
D38*
G36*
X003563000Y-19019000D02*
G01*
X003641036Y-19011314D01*
G01*
X003716073Y-18988552D01*
G01*
X003785228Y-18951588D01*
G01*
X003794474Y-18944000D01*
G01*
X004942536Y-18944000D01*
G01*
X005005940Y-18937755D01*
G01*
X005066908Y-18919261D01*
G01*
X005123096Y-18889228D01*
G01*
X005172346Y-18848810D01*
G01*
X006796204Y-17224952D01*
G01*
X006817000Y-17227000D01*
G01*
X006895036Y-17219314D01*
G01*
X006970073Y-17196552D01*
G01*
X007039228Y-17159588D01*
G01*
X007099843Y-17109843D01*
G01*
X007149588Y-17049228D01*
G01*
X007186552Y-16980073D01*
G01*
X007209314Y-16905036D01*
G01*
X007217000Y-16827000D01*
G01*
X007209314Y-16748964D01*
G01*
X007186552Y-16673927D01*
G01*
X007149588Y-16604772D01*
G01*
X007099843Y-16544157D01*
G01*
X007039228Y-16494412D01*
G01*
X006970073Y-16457448D01*
G01*
X006895036Y-16434686D01*
G01*
X006817000Y-16427000D01*
G01*
X006738964Y-16434686D01*
G01*
X006663927Y-16457448D01*
G01*
X006594772Y-16494412D01*
G01*
X006534157Y-16544157D01*
G01*
X006484412Y-16604772D01*
G01*
X006469792Y-16632124D01*
G01*
X004807916Y-18294000D01*
G01*
X003794474Y-18294000D01*
G01*
X003785228Y-18286412D01*
G01*
X003716073Y-18249448D01*
G01*
X003641036Y-18226686D01*
G01*
X003563000Y-18219000D01*
G01*
X003484964Y-18226686D01*
G01*
X003409927Y-18249448D01*
G01*
X003340772Y-18286412D01*
G01*
X003280157Y-18336157D01*
G01*
X003230412Y-18396772D01*
G01*
X003193448Y-18465927D01*
G01*
X003170686Y-18540964D01*
G01*
X003163000Y-18619000D01*
G01*
X003170686Y-18697036D01*
G01*
X003193448Y-18772073D01*
G01*
X003230412Y-18841228D01*
G01*
X003280157Y-18901843D01*
G01*
X003340772Y-18951588D01*
G01*
X003409927Y-18988552D01*
G01*
X003484964Y-19011314D01*
G01*
X003563000Y-19019000D01*
G37*
D38*
G36*
X061600000Y-18000000D02*
G01*
X061678036Y-17992314D01*
G01*
X061753073Y-17969552D01*
G01*
X061822228Y-17932588D01*
G01*
X061882843Y-17882843D01*
G01*
X061932588Y-17822228D01*
G01*
X061969552Y-17753073D01*
G01*
X061992314Y-17678036D01*
G01*
X062000000Y-17600000D01*
G01*
X061992314Y-17521964D01*
G01*
X061969552Y-17446927D01*
G01*
X061932588Y-17377772D01*
G01*
X061882843Y-17317157D01*
G01*
X061822228Y-17267412D01*
G01*
X061753073Y-17230448D01*
G01*
X061678036Y-17207686D01*
G01*
X061600000Y-17200000D01*
G01*
X061521964Y-17207686D01*
G01*
X061446927Y-17230448D01*
G01*
X061377772Y-17267412D01*
G01*
X061368526Y-17275000D01*
G01*
X060234474Y-17275000D01*
G01*
X060225228Y-17267412D01*
G01*
X060156073Y-17230448D01*
G01*
X060081036Y-17207686D01*
G01*
X060003000Y-17200000D01*
G01*
X059924964Y-17207686D01*
G01*
X059849927Y-17230448D01*
G01*
X059780772Y-17267412D01*
G01*
X059720157Y-17317157D01*
G01*
X059670412Y-17377772D01*
G01*
X059633448Y-17446927D01*
G01*
X059610686Y-17521964D01*
G01*
X059603000Y-17600000D01*
G01*
X059610686Y-17678036D01*
G01*
X059633448Y-17753073D01*
G01*
X059670412Y-17822228D01*
G01*
X059720157Y-17882843D01*
G01*
X059780772Y-17932588D01*
G01*
X059849927Y-17969552D01*
G01*
X059924964Y-17992314D01*
G01*
X060003000Y-18000000D01*
G01*
X060081036Y-17992314D01*
G01*
X060156073Y-17969552D01*
G01*
X060225228Y-17932588D01*
G01*
X060234474Y-17925000D01*
G01*
X061368526Y-17925000D01*
G01*
X061377772Y-17932588D01*
G01*
X061446927Y-17969552D01*
G01*
X061521964Y-17992314D01*
G01*
X061600000Y-18000000D01*
G37*
D38*
G36*
X001570000Y-24890000D02*
G01*
X001765090Y-24870785D01*
G01*
X001952683Y-24813880D01*
G01*
X002125570Y-24721470D01*
G01*
X002277107Y-24597107D01*
G01*
X002401470Y-24445570D01*
G01*
X002493880Y-24272683D01*
G01*
X002550785Y-24085090D01*
G01*
X002570000Y-23890000D01*
G01*
X002550785Y-23694910D01*
G01*
X002493880Y-23507317D01*
G01*
X002401470Y-23334430D01*
G01*
X002277107Y-23182893D01*
G01*
X002125570Y-23058530D01*
G01*
X001952683Y-22966120D01*
G01*
X001765090Y-22909215D01*
G01*
X001570000Y-22890000D01*
G01*
X001374910Y-22909215D01*
G01*
X001187317Y-22966120D01*
G01*
X001014430Y-23058530D01*
G01*
X000862893Y-23182893D01*
G01*
X000738530Y-23334430D01*
G01*
X000646120Y-23507317D01*
G01*
X000628622Y-23565000D01*
G01*
X-01807033Y-23565000D01*
G01*
X-01866727Y-23505306D01*
G01*
X-01859772Y-23501588D01*
G01*
X-01799157Y-23451843D01*
G01*
X-01749412Y-23391228D01*
G01*
X-01712448Y-23322073D01*
G01*
X-01689686Y-23247036D01*
G01*
X-01682000Y-23169000D01*
G01*
X-01689686Y-23090964D01*
G01*
X-01712448Y-23015927D01*
G01*
X-01745520Y-22954053D01*
G01*
X-01694073Y-22981552D01*
G01*
X-01619036Y-23004314D01*
G01*
X-01541000Y-23012000D01*
G01*
X-01462964Y-23004314D01*
G01*
X-01387927Y-22981552D01*
G01*
X-01318772Y-22944588D01*
G01*
X-01258157Y-22894843D01*
G01*
X-01208412Y-22834228D01*
G01*
X-01171448Y-22765073D01*
G01*
X-01148686Y-22690036D01*
G01*
X-01141000Y-22612000D01*
G01*
X-01148686Y-22533964D01*
G01*
X-01171448Y-22458927D01*
G01*
X-01208412Y-22389772D01*
G01*
X-01216000Y-22380526D01*
G01*
X-01216000Y-21881747D01*
G01*
X-00332747Y-20998494D01*
G01*
X-00292329Y-20949244D01*
G01*
X-00274731Y-20916320D01*
G01*
X-00235157Y-20883843D01*
G01*
X-00185412Y-20823228D01*
G01*
X-00148448Y-20754073D01*
G01*
X-00125686Y-20679036D01*
G01*
X-00118000Y-20601000D01*
G01*
X-00125686Y-20522964D01*
G01*
X-00148448Y-20447927D01*
G01*
X-00185412Y-20378772D01*
G01*
X-00235157Y-20318157D01*
G01*
X-00275988Y-20284648D01*
G01*
X-00222927Y-20268552D01*
G01*
X-00153772Y-20231588D01*
G01*
X-00093157Y-20181843D01*
G01*
X-00043412Y-20121228D01*
G01*
X-00006448Y-20052073D01*
G01*
X000016314Y-19977036D01*
G01*
X000024000Y-19899000D01*
G01*
X000016314Y-19820964D01*
G01*
X-00006448Y-19745927D01*
G01*
X-00043412Y-19676772D01*
G01*
X-00093157Y-19616157D01*
G01*
X-00153772Y-19566412D01*
G01*
X-00222927Y-19529448D01*
G01*
X-00297964Y-19506686D01*
G01*
X-00376000Y-19499000D01*
G01*
X-00454036Y-19506686D01*
G01*
X-00529073Y-19529448D01*
G01*
X-00598228Y-19566412D01*
G01*
X-00658843Y-19616157D01*
G01*
X-00708588Y-19676772D01*
G01*
X-00745552Y-19745927D01*
G01*
X-00763538Y-19805219D01*
G01*
X-02138676Y-21180357D01*
G01*
X-02138676Y-19444295D01*
G01*
X-02090867Y-19396486D01*
G01*
X-02078964Y-19395314D01*
G01*
X-02003927Y-19372552D01*
G01*
X-01934772Y-19335588D01*
G01*
X-01874157Y-19285843D01*
G01*
X-01824412Y-19225228D01*
G01*
X-01787448Y-19156073D01*
G01*
X-01764686Y-19081036D01*
G01*
X-01757000Y-19003000D01*
G01*
X-01764686Y-18924964D01*
G01*
X-01787448Y-18849927D01*
G01*
X-01824412Y-18780772D01*
G01*
X-01874157Y-18720157D01*
G01*
X-01934772Y-18670412D01*
G01*
X-02003927Y-18633448D01*
G01*
X-02078964Y-18610686D01*
G01*
X-02157000Y-18603000D01*
G01*
X-02235036Y-18610686D01*
G01*
X-02310073Y-18633448D01*
G01*
X-02379228Y-18670412D01*
G01*
X-02439843Y-18720157D01*
G01*
X-02489588Y-18780772D01*
G01*
X-02526552Y-18849927D01*
G01*
X-02549314Y-18924964D01*
G01*
X-02550486Y-18936867D01*
G01*
X-02693486Y-19079867D01*
G01*
X-02733904Y-19129116D01*
G01*
X-02763937Y-19185304D01*
G01*
X-02782432Y-19246272D01*
G01*
X-02788676Y-19309676D01*
G01*
X-02788676Y-23367976D01*
G01*
X-02782432Y-23431380D01*
G01*
X-02763937Y-23492348D01*
G01*
X-02733904Y-23548536D01*
G01*
X-02693486Y-23597786D01*
G01*
X-02171462Y-24119810D01*
G01*
X-02122213Y-24160228D01*
G01*
X-02066025Y-24190261D01*
G01*
X-02005057Y-24208755D01*
G01*
X-01941652Y-24215000D01*
G01*
X000628622Y-24215000D01*
G01*
X000646120Y-24272683D01*
G01*
X000738530Y-24445570D01*
G01*
X000862893Y-24597107D01*
G01*
X001014430Y-24721470D01*
G01*
X001187317Y-24813880D01*
G01*
X001374910Y-24870785D01*
G01*
X001570000Y-24890000D01*
G37*
D38*
G36*
X043040000Y-22610000D02*
G01*
X045340000Y-22610000D01*
G01*
X045340000Y-21785000D01*
G01*
X045960149Y-21785000D01*
G01*
X046023553Y-21778755D01*
G01*
X046084521Y-21760261D01*
G01*
X046140709Y-21730228D01*
G01*
X046189959Y-21689810D01*
G01*
X046450988Y-21428781D01*
G01*
X046476036Y-21426314D01*
G01*
X046551073Y-21403552D01*
G01*
X046620228Y-21366588D01*
G01*
X046680843Y-21316843D01*
G01*
X046730588Y-21256228D01*
G01*
X046767552Y-21187073D01*
G01*
X046790314Y-21112036D01*
G01*
X046798000Y-21034000D01*
G01*
X046790314Y-20955964D01*
G01*
X046767552Y-20880927D01*
G01*
X046730588Y-20811772D01*
G01*
X046680843Y-20751157D01*
G01*
X046620228Y-20701412D01*
G01*
X046551073Y-20664448D01*
G01*
X046476036Y-20641686D01*
G01*
X046398000Y-20634000D01*
G01*
X046319964Y-20641686D01*
G01*
X046244927Y-20664448D01*
G01*
X046175772Y-20701412D01*
G01*
X046115157Y-20751157D01*
G01*
X046065412Y-20811772D01*
G01*
X046028448Y-20880927D01*
G01*
X046006174Y-20954355D01*
G01*
X045825529Y-21135000D01*
G01*
X045340000Y-21135000D01*
G01*
X045340000Y-20310000D01*
G01*
X043040000Y-20310000D01*
G01*
X043040000Y-22610000D01*
G37*
D38*
G36*
X050660000Y-22610000D02*
G01*
X052960000Y-22610000D01*
G01*
X052960000Y-20310000D01*
G01*
X050660000Y-20310000D01*
G01*
X050660000Y-22610000D01*
G37*
D38*
G36*
X063040000Y-22610000D02*
G01*
X065340000Y-22610000D01*
G01*
X065340000Y-20310000D01*
G01*
X063040000Y-20310000D01*
G01*
X063040000Y-22610000D01*
G37*
D38*
G36*
X058095000Y-31480000D02*
G01*
X058280336Y-31461746D01*
G01*
X058458549Y-31407686D01*
G01*
X058622792Y-31319896D01*
G01*
X058766751Y-31201751D01*
G01*
X058884896Y-31057792D01*
G01*
X058972686Y-30893549D01*
G01*
X059026746Y-30715336D01*
G01*
X059045000Y-30530000D01*
G01*
X059026746Y-30344664D01*
G01*
X058972686Y-30166451D01*
G01*
X058953696Y-30130924D01*
G01*
X063040000Y-26044619D01*
G01*
X063040000Y-27690000D01*
G01*
X065340000Y-27690000D01*
G01*
X065340000Y-25392528D01*
G01*
X065348594Y-25385475D01*
G01*
X067845431Y-22888638D01*
G01*
X070660000Y-22888638D01*
G01*
X070660000Y-25150000D01*
G01*
X072960000Y-25150000D01*
G01*
X072960000Y-22888638D01*
G01*
X073294543Y-22888638D01*
G01*
X073429419Y-22888638D01*
G01*
X073492824Y-22882393D01*
G01*
X073553792Y-22863899D01*
G01*
X073609980Y-22833866D01*
G01*
X073659229Y-22793448D01*
G01*
X074298088Y-22154589D01*
G01*
X074311036Y-22153314D01*
G01*
X074386073Y-22130552D01*
G01*
X074455228Y-22093588D01*
G01*
X074515843Y-22043843D01*
G01*
X074565588Y-21983228D01*
G01*
X074602552Y-21914073D01*
G01*
X074625314Y-21839036D01*
G01*
X074633000Y-21761000D01*
G01*
X074625314Y-21682964D01*
G01*
X074602552Y-21607927D01*
G01*
X074565588Y-21538772D01*
G01*
X074515843Y-21478157D01*
G01*
X074455228Y-21428412D01*
G01*
X074386073Y-21391448D01*
G01*
X074311036Y-21368686D01*
G01*
X074233000Y-21361000D01*
G01*
X074154964Y-21368686D01*
G01*
X074079927Y-21391448D01*
G01*
X074010772Y-21428412D01*
G01*
X073950157Y-21478157D01*
G01*
X073900412Y-21538772D01*
G01*
X073863448Y-21607927D01*
G01*
X073840686Y-21682964D01*
G01*
X073839617Y-21693821D01*
G01*
X073294800Y-22238638D01*
G01*
X073294543Y-22238638D01*
G01*
X072960000Y-22238638D01*
G01*
X072960000Y-20310000D01*
G01*
X070660000Y-20310000D01*
G01*
X070660000Y-22238638D01*
G01*
X067710812Y-22238638D01*
G01*
X067647407Y-22244883D01*
G01*
X067586439Y-22263377D01*
G01*
X067530251Y-22293410D01*
G01*
X067481002Y-22333828D01*
G01*
X064984165Y-24830665D01*
G01*
X063469335Y-24830665D01*
G01*
X063405930Y-24836910D01*
G01*
X063344963Y-24855404D01*
G01*
X063288774Y-24885438D01*
G01*
X063239525Y-24925856D01*
G01*
X058494076Y-29671304D01*
G01*
X058458549Y-29652314D01*
G01*
X058280336Y-29598254D01*
G01*
X058095000Y-29580000D01*
G01*
X057909664Y-29598254D01*
G01*
X057731451Y-29652314D01*
G01*
X057567208Y-29740104D01*
G01*
X057423249Y-29858249D01*
G01*
X057305104Y-30002208D01*
G01*
X057217314Y-30166451D01*
G01*
X057163254Y-30344664D01*
G01*
X057145000Y-30530000D01*
G01*
X057163254Y-30715336D01*
G01*
X057217314Y-30893549D01*
G01*
X057305104Y-31057792D01*
G01*
X057423249Y-31201751D01*
G01*
X057567208Y-31319896D01*
G01*
X057731451Y-31407686D01*
G01*
X057909664Y-31461746D01*
G01*
X058095000Y-31480000D01*
G37*
D38*
G36*
X001570000Y-22350000D02*
G01*
X001765090Y-22330785D01*
G01*
X001952683Y-22273880D01*
G01*
X002125570Y-22181470D01*
G01*
X002277107Y-22057107D01*
G01*
X002401470Y-21905570D01*
G01*
X002493880Y-21732683D01*
G01*
X002550785Y-21545090D01*
G01*
X002570000Y-21350000D01*
G01*
X002550785Y-21154910D01*
G01*
X002493880Y-20967317D01*
G01*
X002401470Y-20794430D01*
G01*
X002277107Y-20642893D01*
G01*
X002125570Y-20518530D01*
G01*
X001952683Y-20426120D01*
G01*
X001765090Y-20369215D01*
G01*
X001570000Y-20350000D01*
G01*
X001374910Y-20369215D01*
G01*
X001187317Y-20426120D01*
G01*
X001014430Y-20518530D01*
G01*
X000862893Y-20642893D01*
G01*
X000738530Y-20794430D01*
G01*
X000646120Y-20967317D01*
G01*
X000589215Y-21154910D01*
G01*
X000570000Y-21350000D01*
G01*
X000589215Y-21545090D01*
G01*
X000646120Y-21732683D01*
G01*
X000738530Y-21905570D01*
G01*
X000862893Y-22057107D01*
G01*
X001014430Y-22181470D01*
G01*
X001187317Y-22273880D01*
G01*
X001374910Y-22330785D01*
G01*
X001570000Y-22350000D01*
G37*
D38*
G36*
X014025000Y-31709000D02*
G01*
X014103036Y-31701314D01*
G01*
X014178073Y-31678552D01*
G01*
X014247228Y-31641588D01*
G01*
X014307843Y-31591843D01*
G01*
X014357588Y-31531228D01*
G01*
X014394552Y-31462073D01*
G01*
X014417314Y-31387036D01*
G01*
X014425000Y-31309000D01*
G01*
X014417314Y-31230964D01*
G01*
X014394552Y-31155927D01*
G01*
X014357588Y-31086772D01*
G01*
X014350000Y-31077526D01*
G01*
X014350000Y-27872346D01*
G01*
X014343755Y-27808942D01*
G01*
X014325261Y-27747974D01*
G01*
X014295228Y-27691786D01*
G01*
X014254810Y-27642536D01*
G01*
X009542322Y-22930049D01*
G01*
X009542314Y-22929964D01*
G01*
X009519552Y-22854927D01*
G01*
X009482588Y-22785772D01*
G01*
X009432843Y-22725157D01*
G01*
X009372228Y-22675412D01*
G01*
X009303073Y-22638448D01*
G01*
X009228036Y-22615686D01*
G01*
X009150000Y-22608000D01*
G01*
X009071964Y-22615686D01*
G01*
X008996927Y-22638448D01*
G01*
X008927772Y-22675412D01*
G01*
X008867157Y-22725157D01*
G01*
X008817412Y-22785772D01*
G01*
X008780448Y-22854927D01*
G01*
X008757686Y-22929964D01*
G01*
X008750000Y-23008000D01*
G01*
X008757686Y-23086036D01*
G01*
X008780448Y-23161073D01*
G01*
X008817412Y-23230228D01*
G01*
X008867157Y-23290843D01*
G01*
X008927772Y-23340588D01*
G01*
X008996927Y-23377552D01*
G01*
X009071964Y-23400314D01*
G01*
X009095685Y-23402650D01*
G01*
X013700000Y-28006966D01*
G01*
X013700000Y-31077526D01*
G01*
X013692412Y-31086772D01*
G01*
X013655448Y-31155927D01*
G01*
X013632686Y-31230964D01*
G01*
X013625000Y-31309000D01*
G01*
X013632686Y-31387036D01*
G01*
X013655448Y-31462073D01*
G01*
X013692412Y-31531228D01*
G01*
X013742157Y-31591843D01*
G01*
X013802772Y-31641588D01*
G01*
X013871927Y-31678552D01*
G01*
X013946964Y-31701314D01*
G01*
X014025000Y-31709000D01*
G37*
D38*
G36*
X050660000Y-25150000D02*
G01*
X052960000Y-25150000D01*
G01*
X052960000Y-22850000D01*
G01*
X050660000Y-22850000D01*
G01*
X050660000Y-25150000D01*
G37*
D38*
G36*
X043040000Y-27690000D02*
G01*
X045340000Y-27690000D01*
G01*
X045340000Y-25390000D01*
G01*
X043040000Y-25390000D01*
G01*
X043040000Y-27690000D01*
G37*
D38*
G36*
X050660000Y-27690000D02*
G01*
X052960000Y-27690000D01*
G01*
X052960000Y-25390000D01*
G01*
X050660000Y-25390000D01*
G01*
X050660000Y-27690000D01*
G37*
D38*
G36*
X070660000Y-27690000D02*
G01*
X072960000Y-27690000D01*
G01*
X072960000Y-25390000D01*
G01*
X070660000Y-25390000D01*
G01*
X070660000Y-27690000D01*
G37*
D38*
G36*
X024430000Y-27430000D02*
G01*
X024625090Y-27410785D01*
G01*
X024812683Y-27353880D01*
G01*
X024985570Y-27261470D01*
G01*
X025137107Y-27137107D01*
G01*
X025261470Y-26985570D01*
G01*
X025353880Y-26812683D01*
G01*
X025410785Y-26625090D01*
G01*
X025430000Y-26430000D01*
G01*
X025410785Y-26234910D01*
G01*
X025353880Y-26047317D01*
G01*
X025261470Y-25874430D01*
G01*
X025137107Y-25722893D01*
G01*
X024985570Y-25598530D01*
G01*
X024812683Y-25506120D01*
G01*
X024625090Y-25449215D01*
G01*
X024430000Y-25430000D01*
G01*
X024234910Y-25449215D01*
G01*
X024047317Y-25506120D01*
G01*
X023874430Y-25598530D01*
G01*
X023722893Y-25722893D01*
G01*
X023598530Y-25874430D01*
G01*
X023506120Y-26047317D01*
G01*
X023449215Y-26234910D01*
G01*
X023430000Y-26430000D01*
G01*
X023449215Y-26625090D01*
G01*
X023506120Y-26812683D01*
G01*
X023598530Y-26985570D01*
G01*
X023722893Y-27137107D01*
G01*
X023874430Y-27261470D01*
G01*
X024047317Y-27353880D01*
G01*
X024234910Y-27410785D01*
G01*
X024430000Y-27430000D01*
G37*
D38*
G36*
X022535000Y-34172000D02*
G01*
X022613036Y-34164314D01*
G01*
X022688073Y-34141552D01*
G01*
X022757228Y-34104588D01*
G01*
X022817843Y-34054843D01*
G01*
X022867588Y-33994228D01*
G01*
X022904552Y-33925073D01*
G01*
X022927314Y-33850036D01*
G01*
X022935000Y-33772000D01*
G01*
X022927314Y-33693964D01*
G01*
X022904552Y-33618927D01*
G01*
X022867588Y-33549772D01*
G01*
X022860000Y-33540526D01*
G01*
X022860000Y-27479317D01*
G01*
X022853755Y-27415913D01*
G01*
X022835261Y-27354945D01*
G01*
X022805228Y-27298757D01*
G01*
X022764810Y-27249508D01*
G01*
X022640854Y-27125552D01*
G01*
X022641314Y-27124036D01*
G01*
X022649000Y-27046000D01*
G01*
X022641314Y-26967964D01*
G01*
X022618552Y-26892927D01*
G01*
X022581588Y-26823772D01*
G01*
X022531843Y-26763157D01*
G01*
X022471228Y-26713412D01*
G01*
X022402073Y-26676448D01*
G01*
X022327036Y-26653686D01*
G01*
X022249000Y-26646000D01*
G01*
X022170964Y-26653686D01*
G01*
X022095927Y-26676448D01*
G01*
X022026772Y-26713412D01*
G01*
X021966157Y-26763157D01*
G01*
X021916412Y-26823772D01*
G01*
X021879448Y-26892927D01*
G01*
X021856686Y-26967964D01*
G01*
X021849000Y-27046000D01*
G01*
X021856686Y-27124036D01*
G01*
X021879448Y-27199073D01*
G01*
X021897822Y-27233449D01*
G01*
X021912333Y-27281283D01*
G01*
X021942366Y-27337471D01*
G01*
X021982784Y-27386721D01*
G01*
X022210000Y-27613937D01*
G01*
X022210000Y-33540526D01*
G01*
X022202412Y-33549772D01*
G01*
X022165448Y-33618927D01*
G01*
X022142686Y-33693964D01*
G01*
X022135000Y-33772000D01*
G01*
X022142686Y-33850036D01*
G01*
X022165448Y-33925073D01*
G01*
X022202412Y-33994228D01*
G01*
X022252157Y-34054843D01*
G01*
X022312772Y-34104588D01*
G01*
X022381927Y-34141552D01*
G01*
X022456964Y-34164314D01*
G01*
X022535000Y-34172000D01*
G37*
D38*
G36*
X-31260000Y-29290000D02*
G01*
X-29060000Y-29290000D01*
G01*
X-29060000Y-27090000D01*
G01*
X-31260000Y-27090000D01*
G01*
X-31260000Y-29290000D01*
G37*
D38*
G36*
X001570000Y-40130000D02*
G01*
X001765090Y-40110785D01*
G01*
X001952683Y-40053880D01*
G01*
X002125570Y-39961470D01*
G01*
X002277107Y-39837107D01*
G01*
X002401470Y-39685570D01*
G01*
X002493880Y-39512683D01*
G01*
X002550785Y-39325090D01*
G01*
X002570000Y-39130000D01*
G01*
X002550785Y-38934910D01*
G01*
X002493880Y-38747317D01*
G01*
X002401470Y-38574430D01*
G01*
X002277107Y-38422893D01*
G01*
X002125570Y-38298530D01*
G01*
X001952683Y-38206120D01*
G01*
X001765090Y-38149215D01*
G01*
X001570000Y-38130000D01*
G01*
X001374910Y-38149215D01*
G01*
X001187317Y-38206120D01*
G01*
X001134155Y-38234535D01*
G01*
X-00062971Y-37037409D01*
G01*
X-00112221Y-36996992D01*
G01*
X-00168409Y-36966958D01*
G01*
X-00229377Y-36948464D01*
G01*
X-00292781Y-36942219D01*
G01*
X-00451981Y-36942219D01*
G01*
X-03627156Y-36942219D01*
G01*
X-03607686Y-36878036D01*
G01*
X-03600000Y-36800000D01*
G01*
X-03607686Y-36721964D01*
G01*
X-03630448Y-36646927D01*
G01*
X-03667412Y-36577772D01*
G01*
X-03675000Y-36568526D01*
G01*
X-03675000Y-36528747D01*
G01*
X-00551959Y-33405706D01*
G01*
X-00478927Y-33383552D01*
G01*
X-00409772Y-33346588D01*
G01*
X-00349157Y-33296843D01*
G01*
X-00299412Y-33236228D01*
G01*
X-00262448Y-33167073D01*
G01*
X-00239686Y-33092036D01*
G01*
X-00232000Y-33014000D01*
G01*
X-00239686Y-32935964D01*
G01*
X-00262448Y-32860927D01*
G01*
X-00299412Y-32791772D01*
G01*
X-00349157Y-32731157D01*
G01*
X-00409772Y-32681412D01*
G01*
X-00478927Y-32644448D01*
G01*
X-00553964Y-32621686D01*
G01*
X-00632000Y-32614000D01*
G01*
X-00710036Y-32621686D01*
G01*
X-00785073Y-32644448D01*
G01*
X-00854228Y-32681412D01*
G01*
X-00914843Y-32731157D01*
G01*
X-00964588Y-32791772D01*
G01*
X-01001552Y-32860927D01*
G01*
X-01024314Y-32935964D01*
G01*
X-01026811Y-32961319D01*
G01*
X-04229810Y-36164318D01*
G01*
X-04270228Y-36213567D01*
G01*
X-04300261Y-36269755D01*
G01*
X-04318755Y-36330723D01*
G01*
X-04325000Y-36394127D01*
G01*
X-04325000Y-36568526D01*
G01*
X-04332588Y-36577772D01*
G01*
X-04369552Y-36646927D01*
G01*
X-04392314Y-36721964D01*
G01*
X-04400000Y-36800000D01*
G01*
X-04392314Y-36878036D01*
G01*
X-04372844Y-36942219D01*
G01*
X-10729161Y-36942219D01*
G01*
X-10761380Y-36910000D01*
G01*
X-08740000Y-36910000D01*
G01*
X-08740000Y-36135000D01*
G01*
X-08548000Y-36135000D01*
G01*
X-08484596Y-36128755D01*
G01*
X-08423628Y-36110261D01*
G01*
X-08367440Y-36080228D01*
G01*
X-08318190Y-36039810D01*
G01*
X-00564866Y-28286486D01*
G01*
X-00552964Y-28285314D01*
G01*
X-00477927Y-28262552D01*
G01*
X-00408772Y-28225588D01*
G01*
X-00348157Y-28175843D01*
G01*
X-00298412Y-28115228D01*
G01*
X-00261448Y-28046073D01*
G01*
X-00238686Y-27971036D01*
G01*
X-00231000Y-27893000D01*
G01*
X-00238686Y-27814964D01*
G01*
X-00261448Y-27739927D01*
G01*
X-00298412Y-27670772D01*
G01*
X-00348157Y-27610157D01*
G01*
X-00408772Y-27560412D01*
G01*
X-00477927Y-27523448D01*
G01*
X-00552964Y-27500686D01*
G01*
X-00631000Y-27493000D01*
G01*
X-00709036Y-27500686D01*
G01*
X-00784073Y-27523448D01*
G01*
X-00853228Y-27560412D01*
G01*
X-00913843Y-27610157D01*
G01*
X-00963588Y-27670772D01*
G01*
X-01000552Y-27739927D01*
G01*
X-01023314Y-27814964D01*
G01*
X-01024486Y-27826866D01*
G01*
X-08682620Y-35485000D01*
G01*
X-08740000Y-35485000D01*
G01*
X-08740000Y-34710000D01*
G01*
X-10940000Y-34710000D01*
G01*
X-10940000Y-36731380D01*
G01*
X-11238514Y-36432866D01*
G01*
X-11239686Y-36420964D01*
G01*
X-11262448Y-36345927D01*
G01*
X-11299412Y-36276772D01*
G01*
X-11349157Y-36216157D01*
G01*
X-11409772Y-36166412D01*
G01*
X-11478927Y-36129448D01*
G01*
X-11553964Y-36106686D01*
G01*
X-11632000Y-36099000D01*
G01*
X-11710036Y-36106686D01*
G01*
X-11785073Y-36129448D01*
G01*
X-11854228Y-36166412D01*
G01*
X-11914843Y-36216157D01*
G01*
X-11964588Y-36276772D01*
G01*
X-12001552Y-36345927D01*
G01*
X-12024314Y-36420964D01*
G01*
X-12032000Y-36499000D01*
G01*
X-12024314Y-36577036D01*
G01*
X-12001552Y-36652073D01*
G01*
X-11964588Y-36721228D01*
G01*
X-11914843Y-36781843D01*
G01*
X-11854228Y-36831588D01*
G01*
X-11785073Y-36868552D01*
G01*
X-11710036Y-36891314D01*
G01*
X-11698134Y-36892486D01*
G01*
X-11093591Y-37497029D01*
G01*
X-11044341Y-37537447D01*
G01*
X-10988153Y-37567480D01*
G01*
X-10940000Y-37582087D01*
G01*
X-10940000Y-39450000D01*
G01*
X-08740000Y-39450000D01*
G01*
X-08740000Y-37592219D01*
G01*
X-00451981Y-37592219D01*
G01*
X-00427401Y-37592219D01*
G01*
X000674535Y-38694155D01*
G01*
X000646120Y-38747317D01*
G01*
X000589215Y-38934910D01*
G01*
X000570000Y-39130000D01*
G01*
X000589215Y-39325090D01*
G01*
X000646120Y-39512683D01*
G01*
X000738530Y-39685570D01*
G01*
X000862893Y-39837107D01*
G01*
X001014430Y-39961470D01*
G01*
X001187317Y-40053880D01*
G01*
X001374910Y-40110785D01*
G01*
X001570000Y-40130000D01*
G37*
D38*
G36*
X035347437Y-32234437D02*
G01*
X035425473Y-32226751D01*
G01*
X035500510Y-32203989D01*
G01*
X035569665Y-32167025D01*
G01*
X035630279Y-32117279D01*
G01*
X035680025Y-32056665D01*
G01*
X035716989Y-31987510D01*
G01*
X035739751Y-31912473D01*
G01*
X035747437Y-31834437D01*
G01*
X035739751Y-31756401D01*
G01*
X035716989Y-31681363D01*
G01*
X035680025Y-31612209D01*
G01*
X035670320Y-31600384D01*
G01*
X035645987Y-28925843D01*
G01*
X035645709Y-28925846D01*
G01*
X035641760Y-28885752D01*
G01*
X035645314Y-28874036D01*
G01*
X035653000Y-28796000D01*
G01*
X035645314Y-28717964D01*
G01*
X035622552Y-28642927D01*
G01*
X035585588Y-28573772D01*
G01*
X035551704Y-28532484D01*
G01*
X035554757Y-28532785D01*
G01*
X040993166Y-28532785D01*
G01*
X041670000Y-29209619D01*
G01*
X041670000Y-31250000D01*
G01*
X044170000Y-31250000D01*
G01*
X044170000Y-28750000D01*
G01*
X042129619Y-28750000D01*
G01*
X041357594Y-27977975D01*
G01*
X041308345Y-27937557D01*
G01*
X041252157Y-27907524D01*
G01*
X041191189Y-27889029D01*
G01*
X041127785Y-27882785D01*
G01*
X035831078Y-27882785D01*
G01*
X035823588Y-27868772D01*
G01*
X035773843Y-27808157D01*
G01*
X035713228Y-27758412D01*
G01*
X035644073Y-27721448D01*
G01*
X035569036Y-27698686D01*
G01*
X035491000Y-27691000D01*
G01*
X035412964Y-27698686D01*
G01*
X035337927Y-27721448D01*
G01*
X035268772Y-27758412D01*
G01*
X035208157Y-27808157D01*
G01*
X035158412Y-27868772D01*
G01*
X035121448Y-27937927D01*
G01*
X035098686Y-28012964D01*
G01*
X035091000Y-28091000D01*
G01*
X035098686Y-28169036D01*
G01*
X035121448Y-28244073D01*
G01*
X035158412Y-28313228D01*
G01*
X035208157Y-28373843D01*
G01*
X035237068Y-28397569D01*
G01*
X035174964Y-28403686D01*
G01*
X035099927Y-28426448D01*
G01*
X035030772Y-28463412D01*
G01*
X034970157Y-28513157D01*
G01*
X034920412Y-28573772D01*
G01*
X034883448Y-28642927D01*
G01*
X034860686Y-28717964D01*
G01*
X034853000Y-28796000D01*
G01*
X034860686Y-28874036D01*
G01*
X034883448Y-28949073D01*
G01*
X034920412Y-29018228D01*
G01*
X034970157Y-29078843D01*
G01*
X034997556Y-29101328D01*
G01*
X035020340Y-31605518D01*
G01*
X035014849Y-31612209D01*
G01*
X034977885Y-31681363D01*
G01*
X034955123Y-31756401D01*
G01*
X034947437Y-31834437D01*
G01*
X034955123Y-31912473D01*
G01*
X034977885Y-31987510D01*
G01*
X035014849Y-32056665D01*
G01*
X035064594Y-32117279D01*
G01*
X035125209Y-32167025D01*
G01*
X035194363Y-32203989D01*
G01*
X035269401Y-32226751D01*
G01*
X035347437Y-32234437D01*
G37*
D38*
G36*
X024430000Y-29970000D02*
G01*
X024625090Y-29950785D01*
G01*
X024812683Y-29893880D01*
G01*
X024985570Y-29801470D01*
G01*
X025137107Y-29677107D01*
G01*
X025261470Y-29525570D01*
G01*
X025353880Y-29352683D01*
G01*
X025410785Y-29165090D01*
G01*
X025430000Y-28970000D01*
G01*
X025410785Y-28774910D01*
G01*
X025353880Y-28587317D01*
G01*
X025261470Y-28414430D01*
G01*
X025137107Y-28262893D01*
G01*
X024985570Y-28138530D01*
G01*
X024812683Y-28046120D01*
G01*
X024625090Y-27989215D01*
G01*
X024430000Y-27970000D01*
G01*
X024234910Y-27989215D01*
G01*
X024047317Y-28046120D01*
G01*
X023874430Y-28138530D01*
G01*
X023722893Y-28262893D01*
G01*
X023598530Y-28414430D01*
G01*
X023506120Y-28587317D01*
G01*
X023449215Y-28774910D01*
G01*
X023430000Y-28970000D01*
G01*
X023449215Y-29165090D01*
G01*
X023506120Y-29352683D01*
G01*
X023598530Y-29525570D01*
G01*
X023722893Y-29677107D01*
G01*
X023874430Y-29801470D01*
G01*
X024047317Y-29893880D01*
G01*
X024234910Y-29950785D01*
G01*
X024430000Y-29970000D01*
G37*
D38*
G36*
X051830000Y-31250000D02*
G01*
X054330000Y-31250000D01*
G01*
X054330000Y-28750000D01*
G01*
X051830000Y-28750000D01*
G01*
X051830000Y-31250000D01*
G37*
D38*
G36*
X061670000Y-31250000D02*
G01*
X064170000Y-31250000D01*
G01*
X064170000Y-28750000D01*
G01*
X061670000Y-28750000D01*
G01*
X061670000Y-31250000D01*
G37*
D38*
G36*
X071830000Y-31250000D02*
G01*
X074330000Y-31250000D01*
G01*
X074330000Y-28750000D01*
G01*
X071830000Y-28750000D01*
G01*
X071830000Y-31250000D01*
G37*
D38*
G36*
X038095000Y-31480000D02*
G01*
X038280336Y-31461746D01*
G01*
X038458549Y-31407686D01*
G01*
X038622792Y-31319896D01*
G01*
X038766751Y-31201751D01*
G01*
X038884896Y-31057792D01*
G01*
X038972686Y-30893549D01*
G01*
X039026746Y-30715336D01*
G01*
X039045000Y-30530000D01*
G01*
X039026746Y-30344664D01*
G01*
X038972686Y-30166451D01*
G01*
X038884896Y-30002208D01*
G01*
X038766751Y-29858249D01*
G01*
X038622792Y-29740104D01*
G01*
X038458549Y-29652314D01*
G01*
X038280336Y-29598254D01*
G01*
X038095000Y-29580000D01*
G01*
X037909664Y-29598254D01*
G01*
X037731451Y-29652314D01*
G01*
X037567208Y-29740104D01*
G01*
X037423249Y-29858249D01*
G01*
X037305104Y-30002208D01*
G01*
X037217314Y-30166451D01*
G01*
X037163254Y-30344664D01*
G01*
X037145000Y-30530000D01*
G01*
X037163254Y-30715336D01*
G01*
X037217314Y-30893549D01*
G01*
X037305104Y-31057792D01*
G01*
X037423249Y-31201751D01*
G01*
X037567208Y-31319896D01*
G01*
X037731451Y-31407686D01*
G01*
X037909664Y-31461746D01*
G01*
X038095000Y-31480000D01*
G37*
D38*
G36*
X039365000Y-34020000D02*
G01*
X039550336Y-34001746D01*
G01*
X039728549Y-33947686D01*
G01*
X039892792Y-33859896D01*
G01*
X040036751Y-33741751D01*
G01*
X040154896Y-33597792D01*
G01*
X040242686Y-33433549D01*
G01*
X040296746Y-33255336D01*
G01*
X040315000Y-33070000D01*
G01*
X040296746Y-32884664D01*
G01*
X040242686Y-32706451D01*
G01*
X040223696Y-32670924D01*
G01*
X040864810Y-32029810D01*
G01*
X040905228Y-31980560D01*
G01*
X040935261Y-31924372D01*
G01*
X040953755Y-31863404D01*
G01*
X040960000Y-31800000D01*
G01*
X040960000Y-31419380D01*
G01*
X040998549Y-31407686D01*
G01*
X041162792Y-31319896D01*
G01*
X041306751Y-31201751D01*
G01*
X041424896Y-31057792D01*
G01*
X041512686Y-30893549D01*
G01*
X041566746Y-30715336D01*
G01*
X041585000Y-30530000D01*
G01*
X041566746Y-30344664D01*
G01*
X041512686Y-30166451D01*
G01*
X041424896Y-30002208D01*
G01*
X041306751Y-29858249D01*
G01*
X041162792Y-29740104D01*
G01*
X040998549Y-29652314D01*
G01*
X040820336Y-29598254D01*
G01*
X040635000Y-29580000D01*
G01*
X040449664Y-29598254D01*
G01*
X040271451Y-29652314D01*
G01*
X040107208Y-29740104D01*
G01*
X039963249Y-29858249D01*
G01*
X039845104Y-30002208D01*
G01*
X039757314Y-30166451D01*
G01*
X039703254Y-30344664D01*
G01*
X039685000Y-30530000D01*
G01*
X039703254Y-30715336D01*
G01*
X039757314Y-30893549D01*
G01*
X039845104Y-31057792D01*
G01*
X039963249Y-31201751D01*
G01*
X040107208Y-31319896D01*
G01*
X040271451Y-31407686D01*
G01*
X040310000Y-31419380D01*
G01*
X040310000Y-31665380D01*
G01*
X039764076Y-32211304D01*
G01*
X039728549Y-32192314D01*
G01*
X039550336Y-32138254D01*
G01*
X039365000Y-32120000D01*
G01*
X039179664Y-32138254D01*
G01*
X039001451Y-32192314D01*
G01*
X038837208Y-32280104D01*
G01*
X038693249Y-32398249D01*
G01*
X038575104Y-32542208D01*
G01*
X038487314Y-32706451D01*
G01*
X038433254Y-32884664D01*
G01*
X038415000Y-33070000D01*
G01*
X038433254Y-33255336D01*
G01*
X038487314Y-33433549D01*
G01*
X038575104Y-33597792D01*
G01*
X038693249Y-33741751D01*
G01*
X038837208Y-33859896D01*
G01*
X039001451Y-33947686D01*
G01*
X039179664Y-34001746D01*
G01*
X039365000Y-34020000D01*
G37*
D38*
G36*
X059365000Y-34020000D02*
G01*
X059550336Y-34001746D01*
G01*
X059728549Y-33947686D01*
G01*
X059892792Y-33859896D01*
G01*
X060036751Y-33741751D01*
G01*
X060154896Y-33597792D01*
G01*
X060242686Y-33433549D01*
G01*
X060296746Y-33255336D01*
G01*
X060315000Y-33070000D01*
G01*
X060296746Y-32884664D01*
G01*
X060242686Y-32706451D01*
G01*
X060223696Y-32670924D01*
G01*
X060864810Y-32029810D01*
G01*
X060905228Y-31980560D01*
G01*
X060935261Y-31924372D01*
G01*
X060953755Y-31863404D01*
G01*
X060960000Y-31800000D01*
G01*
X060960000Y-31419380D01*
G01*
X060998549Y-31407686D01*
G01*
X061162792Y-31319896D01*
G01*
X061306751Y-31201751D01*
G01*
X061424896Y-31057792D01*
G01*
X061512686Y-30893549D01*
G01*
X061566746Y-30715336D01*
G01*
X061585000Y-30530000D01*
G01*
X061566746Y-30344664D01*
G01*
X061512686Y-30166451D01*
G01*
X061424896Y-30002208D01*
G01*
X061306751Y-29858249D01*
G01*
X061162792Y-29740104D01*
G01*
X060998549Y-29652314D01*
G01*
X060820336Y-29598254D01*
G01*
X060635000Y-29580000D01*
G01*
X060449664Y-29598254D01*
G01*
X060271451Y-29652314D01*
G01*
X060107208Y-29740104D01*
G01*
X059963249Y-29858249D01*
G01*
X059845104Y-30002208D01*
G01*
X059757314Y-30166451D01*
G01*
X059703254Y-30344664D01*
G01*
X059685000Y-30530000D01*
G01*
X059703254Y-30715336D01*
G01*
X059757314Y-30893549D01*
G01*
X059845104Y-31057792D01*
G01*
X059963249Y-31201751D01*
G01*
X060107208Y-31319896D01*
G01*
X060271451Y-31407686D01*
G01*
X060310000Y-31419380D01*
G01*
X060310000Y-31665380D01*
G01*
X059764076Y-32211304D01*
G01*
X059728549Y-32192314D01*
G01*
X059550336Y-32138254D01*
G01*
X059365000Y-32120000D01*
G01*
X059179664Y-32138254D01*
G01*
X059001451Y-32192314D01*
G01*
X058837208Y-32280104D01*
G01*
X058693249Y-32398249D01*
G01*
X058575104Y-32542208D01*
G01*
X058487314Y-32706451D01*
G01*
X058433254Y-32884664D01*
G01*
X058415000Y-33070000D01*
G01*
X058433254Y-33255336D01*
G01*
X058487314Y-33433549D01*
G01*
X058575104Y-33597792D01*
G01*
X058693249Y-33741751D01*
G01*
X058837208Y-33859896D01*
G01*
X059001451Y-33947686D01*
G01*
X059179664Y-34001746D01*
G01*
X059365000Y-34020000D01*
G37*
D38*
G36*
X-31260000Y-31830000D02*
G01*
X-29060000Y-31830000D01*
G01*
X-29060000Y-29630000D01*
G01*
X-31260000Y-29630000D01*
G01*
X-31260000Y-31830000D01*
G37*
D38*
G36*
X-10940000Y-31830000D02*
G01*
X-08740000Y-31830000D01*
G01*
X-08740000Y-29630000D01*
G01*
X-10940000Y-29630000D01*
G01*
X-10940000Y-31830000D01*
G37*
D38*
G36*
X001570000Y-32510000D02*
G01*
X001765090Y-32490785D01*
G01*
X001952683Y-32433880D01*
G01*
X002125570Y-32341470D01*
G01*
X002277107Y-32217107D01*
G01*
X002401470Y-32065570D01*
G01*
X002493880Y-31892683D01*
G01*
X002550785Y-31705090D01*
G01*
X002570000Y-31510000D01*
G01*
X002550785Y-31314910D01*
G01*
X002493880Y-31127317D01*
G01*
X002401470Y-30954430D01*
G01*
X002277107Y-30802893D01*
G01*
X002125570Y-30678530D01*
G01*
X001952683Y-30586120D01*
G01*
X001765090Y-30529215D01*
G01*
X001570000Y-30510000D01*
G01*
X001374910Y-30529215D01*
G01*
X001187317Y-30586120D01*
G01*
X001014430Y-30678530D01*
G01*
X000862893Y-30802893D01*
G01*
X000738530Y-30954430D01*
G01*
X000646120Y-31127317D01*
G01*
X000589215Y-31314910D01*
G01*
X000570000Y-31510000D01*
G01*
X000589215Y-31705090D01*
G01*
X000646120Y-31892683D01*
G01*
X000738530Y-32065570D01*
G01*
X000862893Y-32217107D01*
G01*
X001014430Y-32341470D01*
G01*
X001187317Y-32433880D01*
G01*
X001374910Y-32490785D01*
G01*
X001570000Y-32510000D01*
G37*
D38*
G36*
X041905000Y-34020000D02*
G01*
X042090336Y-34001746D01*
G01*
X042268549Y-33947686D01*
G01*
X042432792Y-33859896D01*
G01*
X042576751Y-33741751D01*
G01*
X042694896Y-33597792D01*
G01*
X042782686Y-33433549D01*
G01*
X042836746Y-33255336D01*
G01*
X042855000Y-33070000D01*
G01*
X042836746Y-32884664D01*
G01*
X042782686Y-32706451D01*
G01*
X042694896Y-32542208D01*
G01*
X042576751Y-32398249D01*
G01*
X042432792Y-32280104D01*
G01*
X042268549Y-32192314D01*
G01*
X042090336Y-32138254D01*
G01*
X041905000Y-32120000D01*
G01*
X041719664Y-32138254D01*
G01*
X041541451Y-32192314D01*
G01*
X041377208Y-32280104D01*
G01*
X041233249Y-32398249D01*
G01*
X041115104Y-32542208D01*
G01*
X041027314Y-32706451D01*
G01*
X040973254Y-32884664D01*
G01*
X040955000Y-33070000D01*
G01*
X040973254Y-33255336D01*
G01*
X041027314Y-33433549D01*
G01*
X041115104Y-33597792D01*
G01*
X041233249Y-33741751D01*
G01*
X041377208Y-33859896D01*
G01*
X041541451Y-33947686D01*
G01*
X041719664Y-34001746D01*
G01*
X041905000Y-34020000D01*
G37*
D38*
G36*
X061905000Y-34020000D02*
G01*
X062090336Y-34001746D01*
G01*
X062268549Y-33947686D01*
G01*
X062432792Y-33859896D01*
G01*
X062576751Y-33741751D01*
G01*
X062694896Y-33597792D01*
G01*
X062782686Y-33433549D01*
G01*
X062836746Y-33255336D01*
G01*
X062855000Y-33070000D01*
G01*
X062836746Y-32884664D01*
G01*
X062782686Y-32706451D01*
G01*
X062694896Y-32542208D01*
G01*
X062576751Y-32398249D01*
G01*
X062432792Y-32280104D01*
G01*
X062268549Y-32192314D01*
G01*
X062090336Y-32138254D01*
G01*
X061905000Y-32120000D01*
G01*
X061719664Y-32138254D01*
G01*
X061541451Y-32192314D01*
G01*
X061377208Y-32280104D01*
G01*
X061233249Y-32398249D01*
G01*
X061115104Y-32542208D01*
G01*
X061027314Y-32706451D01*
G01*
X060973254Y-32884664D01*
G01*
X060955000Y-33070000D01*
G01*
X060973254Y-33255336D01*
G01*
X061027314Y-33433549D01*
G01*
X061115104Y-33597792D01*
G01*
X061233249Y-33741751D01*
G01*
X061377208Y-33859896D01*
G01*
X061541451Y-33947686D01*
G01*
X061719664Y-34001746D01*
G01*
X061905000Y-34020000D01*
G37*
D38*
G36*
X-31260000Y-34370000D02*
G01*
X-29060000Y-34370000D01*
G01*
X-29060000Y-32170000D01*
G01*
X-31260000Y-32170000D01*
G01*
X-31260000Y-34370000D01*
G37*
D38*
G36*
X-10940000Y-34370000D02*
G01*
X-08740000Y-34370000D01*
G01*
X-08740000Y-32170000D01*
G01*
X-10940000Y-32170000D01*
G01*
X-10940000Y-34370000D01*
G37*
D38*
G36*
X001570000Y-35050000D02*
G01*
X001765090Y-35030785D01*
G01*
X001952683Y-34973880D01*
G01*
X002125570Y-34881470D01*
G01*
X002277107Y-34757107D01*
G01*
X002401470Y-34605570D01*
G01*
X002493880Y-34432683D01*
G01*
X002550785Y-34245090D01*
G01*
X002570000Y-34050000D01*
G01*
X002550785Y-33854910D01*
G01*
X002493880Y-33667317D01*
G01*
X002401470Y-33494430D01*
G01*
X002277107Y-33342893D01*
G01*
X002125570Y-33218530D01*
G01*
X001952683Y-33126120D01*
G01*
X001765090Y-33069215D01*
G01*
X001570000Y-33050000D01*
G01*
X001374910Y-33069215D01*
G01*
X001187317Y-33126120D01*
G01*
X001014430Y-33218530D01*
G01*
X000862893Y-33342893D01*
G01*
X000738530Y-33494430D01*
G01*
X000646120Y-33667317D01*
G01*
X000589215Y-33854910D01*
G01*
X000570000Y-34050000D01*
G01*
X000589215Y-34245090D01*
G01*
X000646120Y-34432683D01*
G01*
X000738530Y-34605570D01*
G01*
X000862893Y-34757107D01*
G01*
X001014430Y-34881470D01*
G01*
X001187317Y-34973880D01*
G01*
X001374910Y-35030785D01*
G01*
X001570000Y-35050000D01*
G37*
D38*
G36*
X024430000Y-35050000D02*
G01*
X024625090Y-35030785D01*
G01*
X024812683Y-34973880D01*
G01*
X024985570Y-34881470D01*
G01*
X025137107Y-34757107D01*
G01*
X025261470Y-34605570D01*
G01*
X025353880Y-34432683D01*
G01*
X025410785Y-34245090D01*
G01*
X025430000Y-34050000D01*
G01*
X025410785Y-33854910D01*
G01*
X025353880Y-33667317D01*
G01*
X025261470Y-33494430D01*
G01*
X025137107Y-33342893D01*
G01*
X024985570Y-33218530D01*
G01*
X024812683Y-33126120D01*
G01*
X024625090Y-33069215D01*
G01*
X024430000Y-33050000D01*
G01*
X024234910Y-33069215D01*
G01*
X024047317Y-33126120D01*
G01*
X023874430Y-33218530D01*
G01*
X023722893Y-33342893D01*
G01*
X023598530Y-33494430D01*
G01*
X023506120Y-33667317D01*
G01*
X023449215Y-33854910D01*
G01*
X023430000Y-34050000D01*
G01*
X023449215Y-34245090D01*
G01*
X023506120Y-34432683D01*
G01*
X023598530Y-34605570D01*
G01*
X023722893Y-34757107D01*
G01*
X023874430Y-34881470D01*
G01*
X024047317Y-34973880D01*
G01*
X024234910Y-35030785D01*
G01*
X024430000Y-35050000D01*
G37*
D38*
G36*
X001570000Y-37590000D02*
G01*
X001765090Y-37570785D01*
G01*
X001952683Y-37513880D01*
G01*
X002125570Y-37421470D01*
G01*
X002277107Y-37297107D01*
G01*
X002401470Y-37145570D01*
G01*
X002493880Y-36972683D01*
G01*
X002550785Y-36785090D01*
G01*
X002570000Y-36590000D01*
G01*
X002550785Y-36394910D01*
G01*
X002493880Y-36207317D01*
G01*
X002401470Y-36034430D01*
G01*
X002277107Y-35882893D01*
G01*
X002125570Y-35758530D01*
G01*
X001952683Y-35666120D01*
G01*
X001765090Y-35609215D01*
G01*
X001570000Y-35590000D01*
G01*
X001374910Y-35609215D01*
G01*
X001187317Y-35666120D01*
G01*
X001014430Y-35758530D01*
G01*
X000862893Y-35882893D01*
G01*
X000738530Y-36034430D01*
G01*
X000646120Y-36207317D01*
G01*
X000589215Y-36394910D01*
G01*
X000570000Y-36590000D01*
G01*
X000589215Y-36785090D01*
G01*
X000646120Y-36972683D01*
G01*
X000738530Y-37145570D01*
G01*
X000862893Y-37297107D01*
G01*
X001014430Y-37421470D01*
G01*
X001187317Y-37513880D01*
G01*
X001374910Y-37570785D01*
G01*
X001570000Y-37590000D01*
G37*
D38*
G36*
X024430000Y-37590000D02*
G01*
X024625090Y-37570785D01*
G01*
X024812683Y-37513880D01*
G01*
X024985570Y-37421470D01*
G01*
X025137107Y-37297107D01*
G01*
X025261470Y-37145570D01*
G01*
X025353880Y-36972683D01*
G01*
X025410785Y-36785090D01*
G01*
X025430000Y-36590000D01*
G01*
X025410785Y-36394910D01*
G01*
X025353880Y-36207317D01*
G01*
X025261470Y-36034430D01*
G01*
X025137107Y-35882893D01*
G01*
X024985570Y-35758530D01*
G01*
X024812683Y-35666120D01*
G01*
X024625090Y-35609215D01*
G01*
X024430000Y-35590000D01*
G01*
X024234910Y-35609215D01*
G01*
X024047317Y-35666120D01*
G01*
X023874430Y-35758530D01*
G01*
X023722893Y-35882893D01*
G01*
X023598530Y-36034430D01*
G01*
X023506120Y-36207317D01*
G01*
X023449215Y-36394910D01*
G01*
X023430000Y-36590000D01*
G01*
X023449215Y-36785090D01*
G01*
X023506120Y-36972683D01*
G01*
X023598530Y-37145570D01*
G01*
X023722893Y-37297107D01*
G01*
X023874430Y-37421470D01*
G01*
X024047317Y-37513880D01*
G01*
X024234910Y-37570785D01*
G01*
X024430000Y-37590000D01*
G37*
D38*
G36*
X034920000Y-41295000D02*
G01*
X035285794Y-41258972D01*
G01*
X035637531Y-41152274D01*
G01*
X035961694Y-40979006D01*
G01*
X036245825Y-40745825D01*
G01*
X036479006Y-40461694D01*
G01*
X036652274Y-40137531D01*
G01*
X036758972Y-39785794D01*
G01*
X036795000Y-39420000D01*
G01*
X036758972Y-39054206D01*
G01*
X036652274Y-38702469D01*
G01*
X036479006Y-38378306D01*
G01*
X036245825Y-38094175D01*
G01*
X035961694Y-37860994D01*
G01*
X035637531Y-37687726D01*
G01*
X035285794Y-37581028D01*
G01*
X034920000Y-37545000D01*
G01*
X034554206Y-37581028D01*
G01*
X034202469Y-37687726D01*
G01*
X033878306Y-37860994D01*
G01*
X033594175Y-38094175D01*
G01*
X033360994Y-38378306D01*
G01*
X033187726Y-38702469D01*
G01*
X033081028Y-39054206D01*
G01*
X033045000Y-39420000D01*
G01*
X033081028Y-39785794D01*
G01*
X033187726Y-40137531D01*
G01*
X033360994Y-40461694D01*
G01*
X033594175Y-40745825D01*
G01*
X033878306Y-40979006D01*
G01*
X034202469Y-41152274D01*
G01*
X034554206Y-41258972D01*
G01*
X034920000Y-41295000D01*
G37*
D38*
G36*
X045080000Y-41295000D02*
G01*
X045445794Y-41258972D01*
G01*
X045797531Y-41152274D01*
G01*
X046121694Y-40979006D01*
G01*
X046405825Y-40745825D01*
G01*
X046639006Y-40461694D01*
G01*
X046812274Y-40137531D01*
G01*
X046918972Y-39785794D01*
G01*
X046955000Y-39420000D01*
G01*
X046918972Y-39054206D01*
G01*
X046812274Y-38702469D01*
G01*
X046639006Y-38378306D01*
G01*
X046405825Y-38094175D01*
G01*
X046121694Y-37860994D01*
G01*
X045797531Y-37687726D01*
G01*
X045445794Y-37581028D01*
G01*
X045080000Y-37545000D01*
G01*
X044714206Y-37581028D01*
G01*
X044362469Y-37687726D01*
G01*
X044038306Y-37860994D01*
G01*
X043754175Y-38094175D01*
G01*
X043520994Y-38378306D01*
G01*
X043347726Y-38702469D01*
G01*
X043241028Y-39054206D01*
G01*
X043205000Y-39420000D01*
G01*
X043241028Y-39785794D01*
G01*
X043347726Y-40137531D01*
G01*
X043520994Y-40461694D01*
G01*
X043754175Y-40745825D01*
G01*
X044038306Y-40979006D01*
G01*
X044362469Y-41152274D01*
G01*
X044714206Y-41258972D01*
G01*
X045080000Y-41295000D01*
G37*
D38*
G36*
X054920000Y-41295000D02*
G01*
X055285794Y-41258972D01*
G01*
X055637531Y-41152274D01*
G01*
X055961694Y-40979006D01*
G01*
X056245825Y-40745825D01*
G01*
X056479006Y-40461694D01*
G01*
X056652274Y-40137531D01*
G01*
X056758972Y-39785794D01*
G01*
X056795000Y-39420000D01*
G01*
X056758972Y-39054206D01*
G01*
X056652274Y-38702469D01*
G01*
X056479006Y-38378306D01*
G01*
X056245825Y-38094175D01*
G01*
X055961694Y-37860994D01*
G01*
X055637531Y-37687726D01*
G01*
X055285794Y-37581028D01*
G01*
X054920000Y-37545000D01*
G01*
X054554206Y-37581028D01*
G01*
X054202469Y-37687726D01*
G01*
X053878306Y-37860994D01*
G01*
X053594175Y-38094175D01*
G01*
X053360994Y-38378306D01*
G01*
X053187726Y-38702469D01*
G01*
X053081028Y-39054206D01*
G01*
X053045000Y-39420000D01*
G01*
X053081028Y-39785794D01*
G01*
X053187726Y-40137531D01*
G01*
X053360994Y-40461694D01*
G01*
X053594175Y-40745825D01*
G01*
X053878306Y-40979006D01*
G01*
X054202469Y-41152274D01*
G01*
X054554206Y-41258972D01*
G01*
X054920000Y-41295000D01*
G37*
D38*
G36*
X065080000Y-41295000D02*
G01*
X065445794Y-41258972D01*
G01*
X065797531Y-41152274D01*
G01*
X066121694Y-40979006D01*
G01*
X066405825Y-40745825D01*
G01*
X066639006Y-40461694D01*
G01*
X066812274Y-40137531D01*
G01*
X066918972Y-39785794D01*
G01*
X066955000Y-39420000D01*
G01*
X066918972Y-39054206D01*
G01*
X066812274Y-38702469D01*
G01*
X066639006Y-38378306D01*
G01*
X066405825Y-38094175D01*
G01*
X066121694Y-37860994D01*
G01*
X065797531Y-37687726D01*
G01*
X065445794Y-37581028D01*
G01*
X065080000Y-37545000D01*
G01*
X064714206Y-37581028D01*
G01*
X064362469Y-37687726D01*
G01*
X064038306Y-37860994D01*
G01*
X063754175Y-38094175D01*
G01*
X063520994Y-38378306D01*
G01*
X063347726Y-38702469D01*
G01*
X063241028Y-39054206D01*
G01*
X063205000Y-39420000D01*
G01*
X063241028Y-39785794D01*
G01*
X063347726Y-40137531D01*
G01*
X063520994Y-40461694D01*
G01*
X063754175Y-40745825D01*
G01*
X064038306Y-40979006D01*
G01*
X064362469Y-41152274D01*
G01*
X064714206Y-41258972D01*
G01*
X065080000Y-41295000D01*
G37*
D38*
G36*
X024430000Y-40130000D02*
G01*
X024625090Y-40110785D01*
G01*
X024812683Y-40053880D01*
G01*
X024985570Y-39961470D01*
G01*
X025137107Y-39837107D01*
G01*
X025261470Y-39685570D01*
G01*
X025353880Y-39512683D01*
G01*
X025410785Y-39325090D01*
G01*
X025430000Y-39130000D01*
G01*
X025410785Y-38934910D01*
G01*
X025353880Y-38747317D01*
G01*
X025261470Y-38574430D01*
G01*
X025137107Y-38422893D01*
G01*
X024985570Y-38298530D01*
G01*
X024812683Y-38206120D01*
G01*
X024625090Y-38149215D01*
G01*
X024430000Y-38130000D01*
G01*
X024234910Y-38149215D01*
G01*
X024047317Y-38206120D01*
G01*
X023874430Y-38298530D01*
G01*
X023722893Y-38422893D01*
G01*
X023598530Y-38574430D01*
G01*
X023506120Y-38747317D01*
G01*
X023449215Y-38934910D01*
G01*
X023430000Y-39130000D01*
G01*
X023449215Y-39325090D01*
G01*
X023506120Y-39512683D01*
G01*
X023598530Y-39685570D01*
G01*
X023722893Y-39837107D01*
G01*
X023874430Y-39961470D01*
G01*
X024047317Y-40053880D01*
G01*
X024234910Y-40110785D01*
G01*
X024430000Y-40130000D01*
G37*
D38*
G36*
X000570000Y-42670000D02*
G01*
X002570000Y-42670000D01*
G01*
X002570000Y-40670000D01*
G01*
X000570000Y-40670000D01*
G01*
X000570000Y-42670000D01*
G37*
D38*
G36*
X-75000000Y-46850000D02*
G01*
X-74639083Y-46814453D01*
G01*
X-74292036Y-46709177D01*
G01*
X-73972195Y-46538219D01*
G01*
X-73691852Y-46308148D01*
G01*
X-73461781Y-46027805D01*
G01*
X-73290823Y-45707964D01*
G01*
X-73185547Y-45360917D01*
G01*
X-73150000Y-45000000D01*
G01*
X-73185547Y-44639083D01*
G01*
X-73290823Y-44292036D01*
G01*
X-73461781Y-43972195D01*
G01*
X-73691852Y-43691852D01*
G01*
X-73972195Y-43461781D01*
G01*
X-74292036Y-43290823D01*
G01*
X-74639083Y-43185547D01*
G01*
X-75000000Y-43150000D01*
G01*
X-75360917Y-43185547D01*
G01*
X-75707964Y-43290823D01*
G01*
X-76027805Y-43461781D01*
G01*
X-76308148Y-43691852D01*
G01*
X-76538219Y-43972195D01*
G01*
X-76709177Y-44292036D01*
G01*
X-76814453Y-44639083D01*
G01*
X-76850000Y-45000000D01*
G01*
X-76814453Y-45360917D01*
G01*
X-76709177Y-45707964D01*
G01*
X-76538219Y-46027805D01*
G01*
X-76308148Y-46308148D01*
G01*
X-76027805Y-46538219D01*
G01*
X-75707964Y-46709177D01*
G01*
X-75360917Y-46814453D01*
G01*
X-75000000Y-46850000D01*
G37*
D38*
G36*
X075000000Y-46850000D02*
G01*
X075360917Y-46814453D01*
G01*
X075707964Y-46709177D01*
G01*
X076027805Y-46538219D01*
G01*
X076308148Y-46308148D01*
G01*
X076538219Y-46027805D01*
G01*
X076709177Y-45707964D01*
G01*
X076814453Y-45360917D01*
G01*
X076850000Y-45000000D01*
G01*
X076814453Y-44639083D01*
G01*
X076709177Y-44292036D01*
G01*
X076538219Y-43972195D01*
G01*
X076308148Y-43691852D01*
G01*
X076027805Y-43461781D01*
G01*
X075707964Y-43290823D01*
G01*
X075360917Y-43185547D01*
G01*
X075000000Y-43150000D01*
G01*
X074639083Y-43185547D01*
G01*
X074292036Y-43290823D01*
G01*
X073972195Y-43461781D01*
G01*
X073691852Y-43691852D01*
G01*
X073461781Y-43972195D01*
G01*
X073290823Y-44292036D01*
G01*
X073185547Y-44639083D01*
G01*
X073150000Y-45000000D01*
G01*
X073185547Y-45360917D01*
G01*
X073290823Y-45707964D01*
G01*
X073461781Y-46027805D01*
G01*
X073691852Y-46308148D01*
G01*
X073972195Y-46538219D01*
G01*
X074292036Y-46709177D01*
G01*
X074639083Y-46814453D01*
G01*
X075000000Y-46850000D01*
G37*
%LPD*%
D38*
G36*
X022040381Y042120000D02*
G01*
X020235099Y042120000D01*
G01*
X020235099Y041880000D01*
G01*
X022280381Y041880000D01*
G01*
X022040381Y042120000D01*
G37*
D15*
X001570000Y-41670000D03*
D16*
X001570000Y-39130000D03*
D16*
X001570000Y-36590000D03*
D16*
X001570000Y-34050000D03*
D16*
X001570000Y-31510000D03*
D16*
X001570000Y-28970000D03*
D16*
X001570000Y-26430000D03*
D16*
X001570000Y-23890000D03*
D16*
X001570000Y-21350000D03*
D16*
X001570000Y-18810000D03*
D16*
X001570000Y-16270000D03*
D16*
X001570000Y-13730000D03*
D16*
X001570000Y-11190000D03*
D16*
X001570000Y-08650000D03*
D16*
X001570000Y-06110000D03*
D16*
X001570000Y-03570000D03*
D16*
X001570000Y-01030000D03*
D16*
X001570000Y001510000D03*
D16*
X001570000Y004050000D03*
D16*
X001570000Y006590000D03*
D16*
X001570000Y009130000D03*
D16*
X001570000Y011670000D03*
D15*
X024430000Y-41670000D03*
D16*
X024430000Y-39130000D03*
D16*
X024430000Y-36590000D03*
D16*
X024430000Y-34050000D03*
D16*
X024430000Y-31510000D03*
D16*
X024430000Y-28970000D03*
D16*
X024430000Y-26430000D03*
D16*
X024430000Y-23890000D03*
D16*
X024430000Y-21350000D03*
D16*
X024430000Y-18810000D03*
D16*
X024430000Y-16270000D03*
D16*
X024430000Y-13730000D03*
D16*
X024430000Y-11190000D03*
D16*
X024430000Y-08650000D03*
D16*
X024430000Y-06110000D03*
D16*
X024430000Y-03570000D03*
D16*
X024430000Y-01030000D03*
D16*
X024430000Y001510000D03*
D16*
X024430000Y004050000D03*
D16*
X024430000Y006590000D03*
D16*
X024430000Y009130000D03*
D16*
X024430000Y011670000D03*
D15*
X-70540000Y-15000000D03*
D16*
X-68000000Y-15000000D03*
D16*
X-65460000Y-15000000D03*
D15*
X-70540000Y000000000D03*
D16*
X-68000000Y000000000D03*
D16*
X-65460000Y000000000D03*
D15*
X-76500000Y015000000D03*
D21*
X-64540000Y025292500D03*
D21*
X-59460000Y025292500D03*
D21*
X-44160000Y040350000D03*
D21*
X-41620000Y040350000D03*
D21*
X-44160000Y037810000D03*
D21*
X-41620000Y037810000D03*
D21*
X-44160000Y035270000D03*
D21*
X-41620000Y035270000D03*
D21*
X-44160000Y032730000D03*
D21*
X-41620000Y032730000D03*
D26*
X-09840000Y-25650000D03*
D26*
X-09840000Y-28190000D03*
D26*
X-09840000Y-30730000D03*
D26*
X-09840000Y-33270000D03*
D26*
X-09840000Y-35810000D03*
D26*
X-09840000Y-38350000D03*
D26*
X-30160000Y-25650000D03*
D26*
X-30160000Y-28190000D03*
D26*
X-30160000Y-30730000D03*
D26*
X-30160000Y-33270000D03*
D26*
X-30160000Y-35810000D03*
D26*
X-30160000Y-38350000D03*
D29*
X069540000Y046000000D03*
D29*
X067000000Y046000000D03*
D29*
X064460000Y046000000D03*
D21*
X006110000Y040730000D03*
D21*
X006110000Y043270000D03*
D21*
X008650000Y040730000D03*
D21*
X008650000Y043270000D03*
D21*
X011190000Y040730000D03*
D21*
X011190000Y043270000D03*
D21*
X013730000Y040730000D03*
D21*
X013730000Y043270000D03*
D21*
X016270000Y040730000D03*
D21*
X016270000Y043270000D03*
D21*
X018810000Y040730000D03*
D21*
X018810000Y043270000D03*
D21*
X021350000Y040730000D03*
D21*
X021350000Y043270000D03*
D21*
X023890000Y040730000D03*
D21*
X023890000Y043270000D03*
D31*
X038000000Y036060000D03*
D31*
X038000000Y040020000D03*
D31*
X038000000Y043980000D03*
D31*
X038000000Y047940000D03*
D33*
X065500000Y-06000000D03*
D33*
X070500000Y-06000000D03*
D35*
X041905000Y-33070000D03*
D35*
X040635000Y-30530000D03*
D35*
X039365000Y-33070000D03*
D35*
X038095000Y-30530000D03*
D21*
X044190000Y-21460000D03*
D21*
X044190000Y-24000000D03*
D21*
X044190000Y-26540000D03*
D21*
X051810000Y-26540000D03*
D21*
X051810000Y-24000000D03*
D21*
X051810000Y-21460000D03*
D33*
X042920000Y-30000000D03*
D33*
X053080000Y-30000000D03*
D35*
X061905000Y-33070000D03*
D35*
X060635000Y-30530000D03*
D35*
X059365000Y-33070000D03*
D35*
X058095000Y-30530000D03*
D21*
X064190000Y-21460000D03*
D21*
X064190000Y-24000000D03*
D21*
X064190000Y-26540000D03*
D21*
X071810000Y-26540000D03*
D21*
X071810000Y-24000000D03*
D21*
X071810000Y-21460000D03*
D33*
X062920000Y-30000000D03*
D33*
X073080000Y-30000000D03*
D10*
X-00632000Y-33014000D02*
X-00632000Y-33014000D01*
D10*
X-00632000Y-33014000D02*
X-00752230Y-33134230D01*
D10*
X-00752230Y-33134230D02*
X-00752230Y-33146357D01*
D10*
X-00752230Y-33146357D02*
X-04000000Y-36394127D01*
D10*
X-04000000Y-36394127D02*
X-04000000Y-36800000D01*
D10*
X-04000000Y-36800000D02*
X-04000000Y-36800000D01*
D10*
X-00631000Y-27893000D02*
X-00631000Y-27893000D01*
D10*
X-00631000Y-27893000D02*
X-00648168Y-27910168D01*
D10*
X-00648168Y-27910168D02*
X-08548000Y-35810000D01*
D10*
X-08548000Y-35810000D02*
X-09840000Y-35810000D01*
D10*
X016836000Y-00422000D02*
X016836000Y-00422000D01*
D10*
X016836000Y-00422000D02*
X016706018Y-00551982D01*
D10*
X016706018Y-00551982D02*
X016706018Y-00553072D01*
D10*
X016706018Y-00553072D02*
X008967000Y-08292089D01*
D10*
X008967000Y-08292089D02*
X008967000Y-08843000D01*
D10*
X008967000Y-08843000D02*
X008967000Y-08843000D01*
D10*
X006591000Y-09416000D02*
X006591000Y-09416000D01*
D10*
X006591000Y-09416000D02*
X006380772Y-09626228D01*
D10*
X006380772Y-09626228D02*
X006280359Y-09626228D01*
D10*
X006280359Y-09626228D02*
X-01412228Y-09626228D01*
D10*
X-01412228Y-09626228D02*
X-04986000Y-13200000D01*
D10*
X-04986000Y-13200000D02*
X-04986000Y-13200000D01*
D10*
X-05865000Y-13985000D02*
X-05865000Y-13985000D01*
D10*
X-05865000Y-13985000D02*
X-05896444Y-14016444D01*
D10*
X-05896444Y-14016444D02*
X-06286922Y-14406922D01*
D10*
X-06286922Y-14406922D02*
X-06484235Y-14406922D01*
D10*
X-06484235Y-14406922D02*
X-30160000Y-38082688D01*
D10*
X-30160000Y-38082688D02*
X-30160000Y-38350000D01*
D10*
X006817000Y-16827000D02*
X006817000Y-16827000D01*
D10*
X006817000Y-16827000D02*
X006775768Y-16785768D01*
D10*
X006775768Y-16785768D02*
X004942536Y-18619000D01*
D10*
X004942536Y-18619000D02*
X003563000Y-18619000D01*
D10*
X003563000Y-18619000D02*
X003563000Y-18619000D01*
D10*
X-00518000Y-20601000D02*
X-00518000Y-20601000D01*
D10*
X-00518000Y-20601000D02*
X-00562556Y-20645556D01*
D10*
X-00562556Y-20645556D02*
X-00562556Y-20768684D01*
D10*
X-00562556Y-20768684D02*
X-01541000Y-21747127D01*
D10*
X-01541000Y-21747127D02*
X-01541000Y-22612000D01*
D10*
X-01541000Y-22612000D02*
X-01541000Y-22612000D01*
D10*
X-00376000Y-19899000D02*
X-00376000Y-19899000D01*
D10*
X-00376000Y-19899000D02*
X-00430664Y-19953664D01*
D10*
X-00430664Y-19953664D02*
X-00452363Y-19953664D01*
D10*
X-00452363Y-19953664D02*
X-02082000Y-21583301D01*
D10*
X-02082000Y-21583301D02*
X-02082000Y-23169000D01*
D10*
X-02082000Y-23169000D02*
X-02082000Y-23169000D01*
D10*
X060003000Y-17600000D02*
X060003000Y-17600000D01*
D10*
X060003000Y-17600000D02*
X061501444Y-17600000D01*
D10*
X061501444Y-17600000D02*
X061600000Y-17600000D01*
D10*
X061600000Y-17600000D02*
X061600000Y-17600000D01*
D10*
X023890000Y040730000D02*
X028566355Y036053645D01*
D10*
X028566355Y036053645D02*
X028566355Y-27373645D01*
D10*
X028566355Y-27373645D02*
X024430000Y-31510000D01*
D10*
X021350000Y043270000D02*
X022720798Y041899202D01*
D10*
X022720798Y041899202D02*
X022720798Y039837898D01*
D10*
X022720798Y039837898D02*
X025490561Y037068135D01*
D10*
X025490561Y037068135D02*
X025490561Y-22829439D01*
D10*
X025490561Y-22829439D02*
X024430000Y-23890000D01*
D10*
X027324000Y009175000D02*
X027324000Y009175000D01*
D10*
X027324000Y009175000D02*
X027324000Y-16537523D01*
D10*
X027324000Y-16537523D02*
X027064761Y-16796761D01*
D10*
X027064761Y-16796761D02*
X027071000Y-16803000D01*
D10*
X027071000Y-16803000D02*
X027071000Y-16803000D01*
D10*
X018810000Y043270000D02*
X019910099Y042169901D01*
D10*
X019910099Y042169901D02*
X019910099Y027225974D01*
D10*
X019910099Y027225974D02*
X019910099Y-23884217D01*
D10*
X019910099Y-23884217D02*
X018753091Y-25041224D01*
D10*
X018753091Y-25041224D02*
X018753091Y-25098091D01*
D10*
X018753091Y-25098091D02*
X018858000Y-25203000D01*
D10*
X018858000Y-25203000D02*
X018858000Y-25203000D01*
D10*
X014640000Y026396000D02*
X014640000Y026396000D01*
D10*
X014640000Y026396000D02*
X014569759Y026325759D01*
D10*
X014569759Y026325759D02*
X011593000Y023349000D01*
D10*
X011593000Y023349000D02*
X009808000Y023349000D01*
D10*
X009808000Y023349000D02*
X009808000Y023349000D01*
D10*
X009011000Y015437000D02*
X009011000Y015437000D01*
D10*
X009011000Y015437000D02*
X008891527Y015317527D01*
D10*
X008891527Y015317527D02*
X008890268Y015317527D01*
D10*
X008890268Y015317527D02*
X003805000Y010232259D01*
D10*
X003805000Y010232259D02*
X003805000Y-00575000D01*
D10*
X003805000Y-00575000D02*
X003805000Y-00575000D01*
D10*
X008805000Y-02242000D02*
X008805000Y-02242000D01*
D10*
X008805000Y-02242000D02*
X008788471Y-02258529D01*
D10*
X008788471Y-02258529D02*
X008788471Y-02391687D01*
D10*
X008788471Y-02391687D02*
X008712000Y-02468158D01*
D10*
X008712000Y-02468158D02*
X008712000Y-04609000D01*
D10*
X008712000Y-04609000D02*
X008712000Y-04609000D01*
D10*
X016270000Y040730000D02*
X016270000Y-00599000D01*
D10*
X016270000Y-00599000D02*
X008376000Y-08493000D01*
D10*
X008376000Y-08493000D02*
X008376000Y-08493000D01*
D10*
X007598000Y-09028000D02*
X007598000Y-09028000D01*
D10*
X007598000Y-09028000D02*
X007507197Y-09118803D01*
D10*
X007507197Y-09118803D02*
X007507197Y-09229358D01*
D10*
X007507197Y-09229358D02*
X007507197Y-10332803D01*
D10*
X007507197Y-10332803D02*
X001570000Y-16270000D01*
D10*
X008200000Y006609000D02*
X008200000Y006609000D01*
D10*
X008200000Y006609000D02*
X008200000Y006542823D01*
D10*
X008200000Y006542823D02*
X008200000Y005797000D01*
D10*
X008200000Y005797000D02*
X008200000Y005797000D01*
D10*
X011114000Y-08208000D02*
X011114000Y-08208000D01*
D10*
X011114000Y-08208000D02*
X011062758Y-08259242D01*
D10*
X011062758Y-08259242D02*
X011062758Y-08276020D01*
D10*
X011062758Y-08276020D02*
X010382000Y-08956779D01*
D10*
X010382000Y-08956779D02*
X010382000Y-08992000D01*
D10*
X010382000Y-08992000D02*
X010382000Y-08992000D01*
D10*
X011190000Y043270000D02*
X010085015Y042165015D01*
D10*
X010085015Y042165015D02*
X010085015Y041980467D01*
D10*
X010085015Y041980467D02*
X010085015Y025690730D01*
D10*
X010085015Y025690730D02*
X009470073Y025075788D01*
D10*
X009470073Y025075788D02*
X-04441000Y011164715D01*
D10*
X-04441000Y011164715D02*
X-04441000Y-12158000D01*
D10*
X-04441000Y-12158000D02*
X-04441000Y-12158000D01*
D10*
X-02157000Y-19003000D02*
X-02157000Y-19003000D01*
D10*
X-02157000Y-19003000D02*
X-02170699Y-19016699D01*
D10*
X-02170699Y-19016699D02*
X-02463676Y-19309676D01*
D10*
X-02463676Y-19309676D02*
X-02463676Y-23367976D01*
D10*
X-02463676Y-23367976D02*
X-01941652Y-23890000D01*
D10*
X-01941652Y-23890000D02*
X001570000Y-23890000D01*
D10*
X007177000Y006670000D02*
X007177000Y006670000D01*
D10*
X007177000Y006670000D02*
X007181285Y006665715D01*
D10*
X007181285Y006665715D02*
X007181285Y006630702D01*
D10*
X007181285Y006630702D02*
X007181285Y-00817007D01*
D10*
X007181285Y-00817007D02*
X007924418Y-01560140D01*
D10*
X007924418Y-01560140D02*
X007924418Y-20892456D01*
D10*
X007924418Y-20892456D02*
X007819465Y-20997409D01*
D10*
X007819465Y-20997409D02*
X002386874Y-26430000D01*
D10*
X002386874Y-26430000D02*
X001570000Y-26430000D01*
D10*
X003371000Y013646000D02*
X003371000Y013646000D01*
D10*
X003371000Y013646000D02*
X003250000Y013525000D01*
D10*
X003250000Y013525000D02*
X003250000Y013484212D01*
D10*
X003250000Y013484212D02*
X003250000Y010986000D01*
D10*
X003250000Y010986000D02*
X003250000Y010986000D01*
D10*
X002600000Y-26700000D02*
X002600000Y-26700000D01*
D10*
X002600000Y-26700000D02*
X002560000Y-26880662D01*
D10*
X002560000Y-26880662D02*
X002560000Y-27980000D01*
D10*
X002560000Y-27980000D02*
X001570000Y-28970000D01*
D10*
X006110000Y043270000D02*
X004430000Y041590000D01*
D10*
X004430000Y041590000D02*
X004430000Y040331000D01*
D10*
X004430000Y040331000D02*
X004430000Y040331000D01*
D10*
X-00154000Y016006000D02*
X-00154000Y016006000D01*
D10*
X-00154000Y016006000D02*
X-00211013Y015948987D01*
D10*
X-00211013Y015948987D02*
X-06000000Y010160000D01*
D10*
X-06000000Y010160000D02*
X-06000000Y-08400000D01*
D10*
X-06000000Y-08400000D02*
X-06000000Y-08400000D01*
D10*
X006110000Y040730000D02*
X-07798000Y026822000D01*
D10*
X-07798000Y026822000D02*
X-07798000Y-13157000D01*
D10*
X-07798000Y-13157000D02*
X-07798000Y-13157000D01*
D10*
X-06546000Y-14948000D02*
X-06546000Y-14948000D01*
D10*
X-06546000Y-14948000D02*
X-06490780Y-15003220D01*
D10*
X-06490780Y-15003220D02*
X-06490780Y-15031964D01*
D10*
X-06490780Y-15031964D02*
X-04508000Y-17014744D01*
D10*
X-04508000Y-17014744D02*
X-04508000Y-29459000D01*
D10*
X-04508000Y-29459000D02*
X-04508000Y-29459000D01*
D10*
X037252000Y-00386000D02*
X037252000Y-00386000D01*
D10*
X037252000Y-00386000D02*
X037143352Y-00494648D01*
D10*
X037143352Y-00494648D02*
X037143352Y-00546254D01*
D10*
X037143352Y-00546254D02*
X035692000Y-01997606D01*
D10*
X035692000Y-01997606D02*
X035692000Y-05944000D01*
D10*
X035692000Y-05944000D02*
X035692000Y-05944000D01*
D10*
X001570000Y-39130000D02*
X-00292781Y-37267219D01*
D10*
X-00292781Y-37267219D02*
X-00451981Y-37267219D01*
D10*
X-00451981Y-37267219D02*
X-10863781Y-37267219D01*
D10*
X-10863781Y-37267219D02*
X-11632000Y-36499000D01*
D10*
X-11632000Y-36499000D02*
X-11632000Y-36499000D01*
D10*
X055523000Y031133000D02*
X055523000Y031133000D01*
D10*
X055523000Y031133000D02*
X055523000Y003977000D01*
D10*
X055523000Y003977000D02*
X065500000Y-06000000D01*
D10*
X022249000Y-27046000D02*
X022249000Y-27046000D01*
D10*
X022249000Y-27046000D02*
X022212593Y-27082407D01*
D10*
X022212593Y-27082407D02*
X022212593Y-27156911D01*
D10*
X022212593Y-27156911D02*
X022535000Y-27479317D01*
D10*
X022535000Y-27479317D02*
X022535000Y-33772000D01*
D10*
X022535000Y-33772000D02*
X022535000Y-33772000D01*
D10*
X-48605000Y017014000D02*
X-48605000Y017014000D01*
D10*
X-48605000Y017014000D02*
X-48599525Y017019475D01*
D10*
X-48599525Y017019475D02*
X-18077609Y-13502441D01*
D10*
X-18077609Y-13502441D02*
X-17816197Y-13502441D01*
D10*
X-17816197Y-13502441D02*
X-05697559Y-13502441D01*
D10*
X-05697559Y-13502441D02*
X000578735Y-19778735D01*
D10*
X000578735Y-19778735D02*
X002695735Y-19778735D01*
D10*
X002695735Y-19778735D02*
X005616000Y-22699000D01*
D10*
X005616000Y-22699000D02*
X005616000Y-22699000D01*
D10*
X009150000Y-23008000D02*
X009150000Y-23008000D01*
D10*
X009150000Y-23008000D02*
X009197361Y-23055361D01*
D10*
X009197361Y-23055361D02*
X009208015Y-23055361D01*
D10*
X009208015Y-23055361D02*
X014025000Y-27872346D01*
D10*
X014025000Y-27872346D02*
X014025000Y-31309000D01*
D10*
X014025000Y-31309000D02*
X014025000Y-31309000D01*
D10*
X-60554000Y010151000D02*
X-60554000Y010151000D01*
D10*
X-60554000Y010151000D02*
X-60678018Y010026982D01*
D10*
X-60678018Y010026982D02*
X-60678018Y010019141D01*
D10*
X-60678018Y010019141D02*
X-65460000Y005237158D01*
D10*
X-65460000Y005237158D02*
X-65460000Y000000000D01*
D10*
X-61623000Y-10826000D02*
X-61623000Y-10826000D01*
D10*
X-61623000Y-10826000D02*
X-61632800Y-10835800D01*
D10*
X-61632800Y-10835800D02*
X-65460000Y-14663000D01*
D10*
X-65460000Y-14663000D02*
X-65460000Y-15000000D01*
D11*
X023034000Y024626000D02*
X023034000Y024626000D01*
D11*
X023034000Y024626000D02*
X022940472Y024532472D01*
D11*
X022940472Y024532472D02*
X022931630Y024532472D01*
D11*
X022931630Y024532472D02*
X022335394Y023936236D01*
D11*
X022335394Y023936236D02*
X021739158Y023340000D01*
D11*
X021739158Y023340000D02*
X021679000Y023340000D01*
D11*
X021679000Y023340000D02*
X021679000Y023340000D01*
D11*
X014200000Y017600000D02*
X014200000Y017600000D01*
D11*
X014200000Y017600000D02*
X012850000Y016250000D01*
D11*
X012850000Y016250000D02*
X009000000Y016250000D01*
D11*
X009000000Y016250000D02*
X003500000Y014750000D01*
D11*
X003500000Y014750000D02*
X002000000Y014750000D01*
D11*
X002000000Y014750000D02*
X000000000Y012750000D01*
D11*
X000000000Y012750000D02*
X000000000Y009130000D01*
D11*
X000000000Y009130000D02*
X001570000Y009130000D01*
D11*
X-14942000Y037500000D02*
X-14942000Y037500000D01*
D11*
X-14942000Y037500000D02*
X-11905272Y037500000D01*
D11*
X-11905272Y037500000D02*
X-11301688Y036896416D01*
D11*
X-11301688Y036896416D02*
X-11296416Y036896416D01*
D11*
X-11296416Y036896416D02*
X-11200000Y036800000D01*
D11*
X-11200000Y036800000D02*
X-11200000Y036800000D01*
D11*
X051395000Y-13915000D02*
X051395000Y-13915000D01*
D11*
X051395000Y-13915000D02*
X051345227Y-13865227D01*
D11*
X051345227Y-13865227D02*
X051172225Y-13865227D01*
D11*
X051172225Y-13865227D02*
X051105998Y-13799000D01*
D11*
X051105998Y-13799000D02*
X050201000Y-13799000D01*
D11*
X050201000Y-13799000D02*
X050201000Y-13799000D01*
D11*
X044921000Y-16294000D02*
X044921000Y-16294000D01*
D11*
X044921000Y-16294000D02*
X045222000Y-16595000D01*
D11*
X045222000Y-16595000D02*
X045222000Y-18607000D01*
D11*
X045222000Y-18607000D02*
X045222000Y-18607000D01*
D11*
X060025000Y040250000D02*
X060025000Y040250000D01*
D11*
X060025000Y040250000D02*
X059954765Y040250000D01*
D11*
X059954765Y040250000D02*
X056224765Y043980000D01*
D11*
X056224765Y043980000D02*
X038000000Y043980000D01*
D11*
X010860000Y006398000D02*
X010860000Y006398000D01*
D11*
X010860000Y006398000D02*
X011058130Y006398000D01*
D11*
X011058130Y006398000D02*
X011447055Y006786925D01*
D11*
X011447055Y006786925D02*
X011537925Y006786925D01*
D11*
X011537925Y006786925D02*
X011634000Y006883000D01*
D11*
X011634000Y006883000D02*
X011634000Y006883000D01*
D11*
X040000000Y-08800000D02*
X040000000Y-08800000D01*
D11*
X040000000Y-08800000D02*
X039921974Y-08721974D01*
D11*
X039921974Y-08721974D02*
X039921974Y-08641195D01*
D11*
X039921974Y-08641195D02*
X039673000Y-08392222D01*
D11*
X039673000Y-08392222D02*
X039673000Y-07409518D01*
D11*
X039673000Y-07409518D02*
X039673000Y-06426814D01*
D11*
X039673000Y-06426814D02*
X039673000Y-05444111D01*
D11*
X039673000Y-05444111D02*
X039673000Y-04461407D01*
D11*
X039673000Y-04461407D02*
X039673000Y-03478704D01*
D11*
X039673000Y-03478704D02*
X039673000Y-02496000D01*
D11*
X039673000Y-02496000D02*
X039673000Y-02496000D01*
D11*
X024430000Y-41670000D02*
X024076447Y-42023553D01*
D11*
X024076447Y-42023553D02*
X018605677Y-36552784D01*
D11*
X018605677Y-36552784D02*
X014832893Y-32780000D01*
D11*
X014832893Y-32780000D02*
X011673355Y-32780000D01*
D11*
X011673355Y-32780000D02*
X010706694Y-32780000D01*
D11*
X010706694Y-32780000D02*
X009740032Y-32780000D01*
D11*
X009740032Y-32780000D02*
X008773371Y-32780000D01*
D11*
X008773371Y-32780000D02*
X007806710Y-32780000D01*
D11*
X007806710Y-32780000D02*
X006840048Y-32780000D01*
D11*
X006840048Y-32780000D02*
X005873387Y-32780000D01*
D11*
X005873387Y-32780000D02*
X004906726Y-32780000D01*
D11*
X004906726Y-32780000D02*
X003940064Y-32780000D01*
D11*
X003940064Y-32780000D02*
X002973403Y-32780000D01*
D12*
X002973403Y-32780000D02*
X002006742Y-32780000D01*
D12*
X002006742Y-32780000D02*
X001040081Y-32780000D01*
D13*
X001040081Y-32780000D02*
X000375000Y-32812500D01*
D13*
X000375000Y-32812500D02*
X000145562Y-32198147D01*
D11*
X000145562Y-32198147D02*
X000145562Y-27520562D01*
D11*
X000145562Y-27520562D02*
X-00125000Y-27250000D01*
D11*
X-00125000Y-27250000D02*
X-00625000Y-27000000D01*
D11*
X-00625000Y-27000000D02*
X-02526892Y-28069459D01*
D11*
X-02526892Y-28069459D02*
X-03103481Y-28646048D01*
D11*
X-03103481Y-28646048D02*
X-03680071Y-29222638D01*
D11*
X-03680071Y-29222638D02*
X-03750000Y-30000000D01*
D11*
X-03750000Y-30000000D02*
X-04250000Y-30500000D01*
D11*
X-04250000Y-30500000D02*
X-06243716Y-29799227D01*
D11*
X-06243716Y-29799227D02*
X-07852944Y-28190000D01*
D11*
X-07852944Y-28190000D02*
X-09840000Y-28190000D01*
D10*
X074233000Y-21761000D02*
X074233000Y-21761000D01*
D10*
X074233000Y-21761000D02*
X074217954Y-21776046D01*
D10*
X074217954Y-21776046D02*
X074217012Y-21776046D01*
D10*
X074217012Y-21776046D02*
X073429419Y-22563638D01*
D10*
X073429419Y-22563638D02*
X073294543Y-22563638D01*
D10*
X073294543Y-22563638D02*
X067710812Y-22563638D01*
D10*
X067710812Y-22563638D02*
X065118784Y-25155665D01*
D10*
X065118784Y-25155665D02*
X063469335Y-25155665D01*
D10*
X063469335Y-25155665D02*
X058095000Y-30530000D01*
D10*
X060635000Y-30530000D02*
X060635000Y-31800000D01*
D10*
X060635000Y-31800000D02*
X059365000Y-33070000D01*
D10*
X040635000Y-30530000D02*
X040635000Y-31800000D01*
D10*
X040635000Y-31800000D02*
X039365000Y-33070000D01*
D10*
X035253000Y-28796000D02*
X035253000Y-28796000D01*
D10*
X035253000Y-28796000D02*
X035237013Y-28811987D01*
D10*
X035237013Y-28811987D02*
X035237013Y-28844812D01*
D10*
X035237013Y-28844812D02*
X035321000Y-28928800D01*
D10*
X035321000Y-28928800D02*
X035347437Y-31834437D01*
D10*
X035347437Y-31834437D02*
X035347437Y-31834437D01*
D10*
X042920000Y-30000000D02*
X041127785Y-28207785D01*
D10*
X041127785Y-28207785D02*
X035554757Y-28207785D01*
D10*
X035554757Y-28207785D02*
X035554757Y-28154757D01*
D10*
X035554757Y-28154757D02*
X035491000Y-28091000D01*
D10*
X035491000Y-28091000D02*
X035491000Y-28091000D01*
D10*
X046398000Y-21034000D02*
X046398000Y-21034000D01*
D10*
X046398000Y-21034000D02*
X046311249Y-21120751D01*
D10*
X046311249Y-21120751D02*
X046299398Y-21120751D01*
D10*
X046299398Y-21120751D02*
X045960149Y-21460000D01*
D10*
X045960149Y-21460000D02*
X044190000Y-21460000D01*
D10*
X046076414Y-11279037D02*
X046076414Y-11279037D01*
D10*
X046076414Y-11279037D02*
X046093656Y-11296278D01*
D10*
X046093656Y-11296278D02*
X046200000Y-11402623D01*
D10*
X046200000Y-11402623D02*
X046200000Y-14000000D01*
D10*
X046200000Y-14000000D02*
X046200000Y-14000000D01*
D11*
X-64540000Y025292500D02*
X-57103000Y032730000D01*
D11*
X-57103000Y032730000D02*
X-44160000Y032730000D01*
D37*
X-00632000Y-33014000D03*
D37*
X-04000000Y-36800000D03*
D37*
X-00631000Y-27893000D03*
D37*
X016836000Y-00422000D03*
D37*
X008967000Y-08843000D03*
D37*
X006591000Y-09416000D03*
D37*
X-04986000Y-13200000D03*
D37*
X-05865000Y-13985000D03*
D37*
X006817000Y-16827000D03*
D37*
X003563000Y-18619000D03*
D37*
X-00518000Y-20601000D03*
D37*
X-01541000Y-22612000D03*
D37*
X-00376000Y-19899000D03*
D37*
X-02082000Y-23169000D03*
D37*
X060003000Y-17600000D03*
D37*
X061600000Y-17600000D03*
D37*
X027324000Y009175000D03*
D37*
X027071000Y-16803000D03*
D37*
X018858000Y-25203000D03*
D37*
X014640000Y026396000D03*
D37*
X009808000Y023349000D03*
D37*
X009011000Y015437000D03*
D37*
X003805000Y-00575000D03*
D37*
X008805000Y-02242000D03*
D37*
X008712000Y-04609000D03*
D37*
X008376000Y-08493000D03*
D37*
X007598000Y-09028000D03*
D37*
X008200000Y006609000D03*
D37*
X008200000Y005797000D03*
D37*
X011114000Y-08208000D03*
D37*
X010382000Y-08992000D03*
D37*
X-04441000Y-12158000D03*
D37*
X-02157000Y-19003000D03*
D37*
X007177000Y006670000D03*
D37*
X003371000Y013646000D03*
D37*
X003250000Y010986000D03*
D37*
X002600000Y-26700000D03*
D37*
X004430000Y040331000D03*
D37*
X-00154000Y016006000D03*
D37*
X-06000000Y-08400000D03*
D37*
X-07798000Y-13157000D03*
D37*
X-06546000Y-14948000D03*
D37*
X-04508000Y-29459000D03*
D37*
X037252000Y-00386000D03*
D37*
X035692000Y-05944000D03*
D37*
X-11632000Y-36499000D03*
D37*
X055523000Y031133000D03*
D37*
X022249000Y-27046000D03*
D37*
X022535000Y-33772000D03*
D37*
X-48605000Y017014000D03*
D37*
X005616000Y-22699000D03*
D37*
X009150000Y-23008000D03*
D37*
X014025000Y-31309000D03*
D37*
X-60554000Y010151000D03*
D37*
X-61623000Y-10826000D03*
D37*
X023034000Y024626000D03*
D37*
X021679000Y023340000D03*
D37*
X014200000Y017600000D03*
D37*
X-14942000Y037500000D03*
D37*
X-11200000Y036800000D03*
D37*
X051395000Y-13915000D03*
D37*
X050201000Y-13799000D03*
D37*
X044921000Y-16294000D03*
D37*
X045222000Y-18607000D03*
D37*
X060025000Y040250000D03*
D37*
X010860000Y006398000D03*
D37*
X011634000Y006883000D03*
D37*
X040000000Y-08800000D03*
D37*
X039673000Y-02496000D03*
D37*
X074233000Y-21761000D03*
D37*
X035253000Y-28796000D03*
D37*
X035347437Y-31834437D03*
D37*
X035491000Y-28091000D03*
D37*
X046398000Y-21034000D03*
D37*
X046076414Y-11279037D03*
D37*
X046200000Y-14000000D03*
%LPC*%
D14*
X-75000000Y-45000000D03*
%LPD*%
%LPC*%
D14*
X075000000Y-45000000D03*
%LPD*%
%LPC*%
D14*
X-75000000Y045000000D03*
%LPD*%
%LPC*%
D14*
X075000000Y045000000D03*
%LPD*%
%LPC*%
D20*
X-69747000Y043707500D03*
%LPD*%
%LPC*%
D20*
X-54507000Y043707500D03*
%LPD*%
%LPC*%
D23*
X-44541000Y044541000D03*
%LPD*%
%LPC*%
D23*
X-44541000Y023459000D03*
%LPD*%
%LPC*%
D23*
X-23459000Y044541000D03*
%LPD*%
%LPC*%
D36*
X045080000Y-39420000D03*
%LPD*%
%LPC*%
D36*
X034920000Y-39420000D03*
%LPD*%
%LPC*%
D36*
X065080000Y-39420000D03*
%LPD*%
%LPC*%
D36*
X054920000Y-39420000D03*
%LPD*%
M02*