%TF.GenerationSoftware,tscircuit,circuit-json-to-gerber,0.0.93*%
%TF.CreationDate,2026-08-31T00:40:08.852Z*%
%TF.SameCoordinates,Original*%
%TF.FileFunction,Copper,L2,Bot*%
%TF.FilePolarity,Positive*%
%FSLAX46Y46*%
%MOMM*%
G04 Gerber Fmt 4.6, Leading zero omitted, Abs format (unit mm)*
G04 Created by tscircuit (builder) date 2026-08-31T00:40:08.852Z*
G01*
%LPD*%
G75*
G04 APERTURE MACROS START*
%AMHORZPILL*
0 Horizontal pill (stadium) shape macro*
0 Parameters:*
0 $1 = Total width*
0 $2 = Total height*
0 $3 = Circle diameter (equal to height)*
0 $4 = Circle center offset
0 21 = Center Line(Exposure, Width, Height, Center X, Center Y, Rotation)*
0 1 = Circle(Exposure, Diameter, Center X, Center Y, Rotation)*
21,1,$1-$3,$2,0.0,0.0,0.0*
1,1,$3,0.0-$4,0.0*
1,1,$3,$4,0.0*%
%AMVERTPILL*
0 Vertical pill (stadium) shape macro*
0 Parameters:*
0 $1 = Total width*
0 $2 = Total height*
0 $3 = Circle diameter (equal to width)*
0 $4 = Circle center offset
0 21 = Center Line(Exposure, Width, Height, Center X, Center Y, Rotation)*
21,1,$1,$2-$3,0.0,0.0,0.0*
1,1,$3,0.0,0.0-$4*
1,1,$3,0.0,$4*%
%AMROUNDRECT*
0 Rectangle with rounded corners*
0 $1 Corner radius*
0 $2 $3 $4 $5 $6 $7 $8 $9 X,Y Position of each corner*
0 Polygon box body*
4,1,4,$2,$3,$4,$5,$6,$7,$8,$9,$2,$3,0*
0 Circles for rounded corners*
1,1,$1+$1,$2,$3*
1,1,$1+$1,$4,$5*
1,1,$1+$1,$6,$7*
1,1,$1+$1,$8,$9*
0 Rectangles between the rounded corners*
20,1,$1+$1,$2,$3,$4,$5,0*
20,1,$1+$1,$4,$5,$6,$7,0*
20,1,$1+$1,$6,$7,$8,$9,0*
20,1,$1+$1,$8,$9,$2,$3,0*%
G04 APERTURE MACROS END*
G04 aperture START LIST*
%ADD10C,0.150000*%
%ADD11C,1.000000*%
%ADD12C,0.825000*%
%ADD13C,0.550000*%
%ADD14C,0.350000*%
%ADD15C,0.875000*%
%ADD16C,0.925000*%
%ADD17C,0.400000*%
%ADD18C,0.325000*%
%ADD19C,0.375000*%
%ADD20C,0.850000*%
%ADD21C,0.800000*%
%ADD22C,0.775000*%
%ADD23C,3.200000*%
%ADD24R,1.500000X1.500000*%
%ADD25C,1.500000*%
%ADD26C,0.063000*%
%ADD27C,0.200000*%
%ADD28C,0.108000*%
%ADD29C,2.500000*%
%ADD30R,1.800000X1.800000*%
%ADD31C,0.081000*%
%ADD32C,2.180000*%
%ADD33C,0.090000*%
%ADD34C,0.100000*%
%ADD35R,1.700000X1.700000*%
%ADD36C,0.120000*%
%ADD37C,0.036000*%
%ADD38R,2.200000X2.200000*%
%ADD39C,0.150000*%
%ADD40R,2.800000X2.800000*%
%ADD41C,0.072000*%
%ADD42R,2.000000X2.000000*%
%ADD43C,0.045000*%
%ADD44C,1.400000*%
%ADD45C,3.250000*%
%ADD46C,0.300000*%
%ADD47C,0.001000*%
%TD*%
G04 aperture END LIST*
D47*
G36*
X079500000Y049500000D02*
G01*
X-79500000Y049500000D01*
G01*
X-79500000Y-49500000D01*
G01*
X079500000Y-49500000D01*
G01*
X079500000Y049500000D01*
G37*
%LPC*%
D47*
G36*
X063110000Y044650000D02*
G01*
X065810000Y044650000D01*
G01*
X065810000Y047350000D01*
G01*
X063110000Y047350000D01*
G01*
X063110000Y044650000D01*
G37*
D47*
G36*
X068190000Y044650000D02*
G01*
X070890000Y044650000D01*
G01*
X070890000Y047350000D01*
G01*
X068190000Y047350000D01*
G01*
X068190000Y044650000D01*
G37*
D47*
G36*
X-75000000Y043150000D02*
G01*
X-74639083Y043185547D01*
G01*
X-74292036Y043290823D01*
G01*
X-73972195Y043461781D01*
G01*
X-73691852Y043691852D01*
G01*
X-73461781Y043972195D01*
G01*
X-73290823Y044292036D01*
G01*
X-73185547Y044639083D01*
G01*
X-73150000Y045000000D01*
G01*
X-73185547Y045360917D01*
G01*
X-73290823Y045707964D01*
G01*
X-73461781Y046027805D01*
G01*
X-73691852Y046308148D01*
G01*
X-73972195Y046538219D01*
G01*
X-74292036Y046709177D01*
G01*
X-74639083Y046814453D01*
G01*
X-75000000Y046850000D01*
G01*
X-75360917Y046814453D01*
G01*
X-75707964Y046709177D01*
G01*
X-76027805Y046538219D01*
G01*
X-76308148Y046308148D01*
G01*
X-76538219Y046027805D01*
G01*
X-76709177Y045707964D01*
G01*
X-76814453Y045360917D01*
G01*
X-76850000Y045000000D01*
G01*
X-76814453Y044639083D01*
G01*
X-76709177Y044292036D01*
G01*
X-76538219Y043972195D01*
G01*
X-76308148Y043691852D01*
G01*
X-76027805Y043461781D01*
G01*
X-75707964Y043290823D01*
G01*
X-75360917Y043185547D01*
G01*
X-75000000Y043150000D01*
G37*
D47*
G36*
X075000000Y043150000D02*
G01*
X075360917Y043185547D01*
G01*
X075707964Y043290823D01*
G01*
X076027805Y043461781D01*
G01*
X076308148Y043691852D01*
G01*
X076538219Y043972195D01*
G01*
X076709177Y044292036D01*
G01*
X076814453Y044639083D01*
G01*
X076850000Y045000000D01*
G01*
X076814453Y045360917D01*
G01*
X076709177Y045707964D01*
G01*
X076538219Y046027805D01*
G01*
X076308148Y046308148D01*
G01*
X076027805Y046538219D01*
G01*
X075707964Y046709177D01*
G01*
X075360917Y046814453D01*
G01*
X075000000Y046850000D01*
G01*
X074639083Y046814453D01*
G01*
X074292036Y046709177D01*
G01*
X073972195Y046538219D01*
G01*
X073691852Y046308148D01*
G01*
X073461781Y046027805D01*
G01*
X073290823Y045707964D01*
G01*
X073185547Y045360917D01*
G01*
X073150000Y045000000D01*
G01*
X073185547Y044639083D01*
G01*
X073290823Y044292036D01*
G01*
X073461781Y043972195D01*
G01*
X073691852Y043691852D01*
G01*
X073972195Y043461781D01*
G01*
X074292036Y043290823D01*
G01*
X074639083Y043185547D01*
G01*
X075000000Y043150000D01*
G37*
D47*
G36*
X-44541000Y043201000D02*
G01*
X-44279579Y043226748D01*
G01*
X-44028204Y043303001D01*
G01*
X-43796536Y043426831D01*
G01*
X-43593477Y043593477D01*
G01*
X-43426831Y043796536D01*
G01*
X-43303001Y044028204D01*
G01*
X-43226748Y044279579D01*
G01*
X-43201000Y044541000D01*
G01*
X-43226748Y044802421D01*
G01*
X-43303001Y045053796D01*
G01*
X-43426831Y045285464D01*
G01*
X-43593477Y045488523D01*
G01*
X-43796536Y045655169D01*
G01*
X-44028204Y045778999D01*
G01*
X-44279579Y045855252D01*
G01*
X-44541000Y045881000D01*
G01*
X-44802421Y045855252D01*
G01*
X-45053796Y045778999D01*
G01*
X-45285464Y045655169D01*
G01*
X-45488523Y045488523D01*
G01*
X-45655169Y045285464D01*
G01*
X-45778999Y045053796D01*
G01*
X-45855252Y044802421D01*
G01*
X-45881000Y044541000D01*
G01*
X-45855252Y044279579D01*
G01*
X-45778999Y044028204D01*
G01*
X-45655169Y043796536D01*
G01*
X-45488523Y043593477D01*
G01*
X-45285464Y043426831D01*
G01*
X-45053796Y043303001D01*
G01*
X-44802421Y043226748D01*
G01*
X-44541000Y043201000D01*
G37*
D47*
G36*
X-23459000Y043201000D02*
G01*
X-23197579Y043226748D01*
G01*
X-22946204Y043303001D01*
G01*
X-22714536Y043426831D01*
G01*
X-22511477Y043593477D01*
G01*
X-22344831Y043796536D01*
G01*
X-22221001Y044028204D01*
G01*
X-22144748Y044279579D01*
G01*
X-22119000Y044541000D01*
G01*
X-22144748Y044802421D01*
G01*
X-22221001Y045053796D01*
G01*
X-22344831Y045285464D01*
G01*
X-22511477Y045488523D01*
G01*
X-22714536Y045655169D01*
G01*
X-22946204Y045778999D01*
G01*
X-23197579Y045855252D01*
G01*
X-23459000Y045881000D01*
G01*
X-23720421Y045855252D01*
G01*
X-23971796Y045778999D01*
G01*
X-24203464Y045655169D01*
G01*
X-24406523Y045488523D01*
G01*
X-24573169Y045285464D01*
G01*
X-24696999Y045053796D01*
G01*
X-24773252Y044802421D01*
G01*
X-24799000Y044541000D01*
G01*
X-24773252Y044279579D01*
G01*
X-24696999Y044028204D01*
G01*
X-24573169Y043796536D01*
G01*
X-24406523Y043593477D01*
G01*
X-24203464Y043426831D01*
G01*
X-23971796Y043303001D01*
G01*
X-23720421Y043226748D01*
G01*
X-23459000Y043201000D01*
G37*
D47*
G36*
X-69747000Y042207500D02*
G01*
X-69454365Y042236322D01*
G01*
X-69172975Y042321681D01*
G01*
X-68913645Y042460296D01*
G01*
X-68686340Y042646840D01*
G01*
X-68499796Y042874145D01*
G01*
X-68361181Y043133475D01*
G01*
X-68275822Y043414865D01*
G01*
X-68247000Y043707500D01*
G01*
X-68275822Y044000135D01*
G01*
X-68361181Y044281525D01*
G01*
X-68499796Y044540855D01*
G01*
X-68686340Y044768160D01*
G01*
X-68913645Y044954704D01*
G01*
X-69172975Y045093319D01*
G01*
X-69454365Y045178678D01*
G01*
X-69747000Y045207500D01*
G01*
X-70039635Y045178678D01*
G01*
X-70321025Y045093319D01*
G01*
X-70580355Y044954704D01*
G01*
X-70807660Y044768160D01*
G01*
X-70994204Y044540855D01*
G01*
X-71132819Y044281525D01*
G01*
X-71218178Y044000135D01*
G01*
X-71247000Y043707500D01*
G01*
X-71218178Y043414865D01*
G01*
X-71132819Y043133475D01*
G01*
X-70994204Y042874145D01*
G01*
X-70807660Y042646840D01*
G01*
X-70580355Y042460296D01*
G01*
X-70321025Y042321681D01*
G01*
X-70039635Y042236322D01*
G01*
X-69747000Y042207500D01*
G37*
D47*
G36*
X-54507000Y042207500D02*
G01*
X-54214365Y042236322D01*
G01*
X-53932975Y042321681D01*
G01*
X-53673645Y042460296D01*
G01*
X-53446340Y042646840D01*
G01*
X-53259796Y042874145D01*
G01*
X-53121181Y043133475D01*
G01*
X-53035822Y043414865D01*
G01*
X-53007000Y043707500D01*
G01*
X-53035822Y044000135D01*
G01*
X-53121181Y044281525D01*
G01*
X-53259796Y044540855D01*
G01*
X-53446340Y044768160D01*
G01*
X-53673645Y044954704D01*
G01*
X-53932975Y045093319D01*
G01*
X-54214365Y045178678D01*
G01*
X-54507000Y045207500D01*
G01*
X-54799635Y045178678D01*
G01*
X-55081025Y045093319D01*
G01*
X-55340355Y044954704D01*
G01*
X-55567660Y044768160D01*
G01*
X-55754204Y044540855D01*
G01*
X-55892819Y044281525D01*
G01*
X-55978178Y044000135D01*
G01*
X-56007000Y043707500D01*
G01*
X-55978178Y043414865D01*
G01*
X-55892819Y043133475D01*
G01*
X-55754204Y042874145D01*
G01*
X-55567660Y042646840D01*
G01*
X-55340355Y042460296D01*
G01*
X-55081025Y042321681D01*
G01*
X-54799635Y042236322D01*
G01*
X-54507000Y042207500D01*
G37*
D47*
G36*
X002772000Y-33012000D02*
G01*
X002850036Y-33004314D01*
G01*
X002925073Y-32981552D01*
G01*
X002994228Y-32944588D01*
G01*
X003054843Y-32894843D01*
G01*
X003104588Y-32834228D01*
G01*
X003141552Y-32765073D01*
G01*
X003164314Y-32690036D01*
G01*
X003165486Y-32678134D01*
G01*
X004991462Y-30852157D01*
G01*
X005031880Y-30802908D01*
G01*
X005061913Y-30746720D01*
G01*
X005080408Y-30685752D01*
G01*
X005086652Y-30622348D01*
G01*
X005086652Y-18854957D01*
G01*
X005134157Y-18912843D01*
G01*
X005194772Y-18962588D01*
G01*
X005263927Y-18999552D01*
G01*
X005338964Y-19022314D01*
G01*
X005417000Y-19030000D01*
G01*
X005495036Y-19022314D01*
G01*
X005570073Y-18999552D01*
G01*
X005639228Y-18962588D01*
G01*
X005699843Y-18912843D01*
G01*
X005749588Y-18852228D01*
G01*
X005786552Y-18783073D01*
G01*
X005809314Y-18708036D01*
G01*
X005817000Y-18630000D01*
G01*
X005809314Y-18551964D01*
G01*
X005786552Y-18476927D01*
G01*
X005749588Y-18407772D01*
G01*
X005742000Y-18398526D01*
G01*
X005742000Y-13687354D01*
G01*
X010541152Y-08888202D01*
G01*
X010581570Y-08838953D01*
G01*
X010611603Y-08782764D01*
G01*
X010630097Y-08721797D01*
G01*
X010636342Y-08658392D01*
G01*
X010636342Y-06565621D01*
G01*
X010697964Y-06584314D01*
G01*
X010776000Y-06592000D01*
G01*
X010854036Y-06584314D01*
G01*
X010929073Y-06561552D01*
G01*
X010998228Y-06524588D01*
G01*
X011058843Y-06474843D01*
G01*
X011108588Y-06414228D01*
G01*
X011145552Y-06345073D01*
G01*
X011168314Y-06270036D01*
G01*
X011176000Y-06192000D01*
G01*
X011168314Y-06113964D01*
G01*
X011145552Y-06038927D01*
G01*
X011108588Y-05969772D01*
G01*
X011101000Y-05960526D01*
G01*
X011101000Y000444044D01*
G01*
X011144119Y000487163D01*
G01*
X011193228Y000513412D01*
G01*
X011253843Y000563157D01*
G01*
X011275000Y000588937D01*
G01*
X011275000Y-10761526D01*
G01*
X011267412Y-10770772D01*
G01*
X011230448Y-10839927D01*
G01*
X011207686Y-10914964D01*
G01*
X011200000Y-10993000D01*
G01*
X011207686Y-11071036D01*
G01*
X011230448Y-11146073D01*
G01*
X011267412Y-11215228D01*
G01*
X011317157Y-11275843D01*
G01*
X011377772Y-11325588D01*
G01*
X011446927Y-11362552D01*
G01*
X011521964Y-11385314D01*
G01*
X011600000Y-11393000D01*
G01*
X011678036Y-11385314D01*
G01*
X011753073Y-11362552D01*
G01*
X011822228Y-11325588D01*
G01*
X011882843Y-11275843D01*
G01*
X011932588Y-11215228D01*
G01*
X011969552Y-11146073D01*
G01*
X011992314Y-11071036D01*
G01*
X012000000Y-10993000D01*
G01*
X011992314Y-10914964D01*
G01*
X011969552Y-10839927D01*
G01*
X011932588Y-10770772D01*
G01*
X011925000Y-10761526D01*
G01*
X011925000Y002203744D01*
G01*
X011931588Y002211772D01*
G01*
X011968552Y002280927D01*
G01*
X011991314Y002355964D01*
G01*
X011999000Y002434000D01*
G01*
X011991314Y002512036D01*
G01*
X011968552Y002587073D01*
G01*
X011931588Y002656228D01*
G01*
X011881843Y002716843D01*
G01*
X011821228Y002766588D01*
G01*
X011752073Y002803552D01*
G01*
X011677036Y002826314D01*
G01*
X011599000Y002834000D01*
G01*
X011520964Y002826314D01*
G01*
X011445927Y002803552D01*
G01*
X011376772Y002766588D01*
G01*
X011316157Y002716843D01*
G01*
X011266412Y002656228D01*
G01*
X011229448Y002587073D01*
G01*
X011206686Y002512036D01*
G01*
X011199000Y002434000D01*
G01*
X011206686Y002355964D01*
G01*
X011229448Y002280927D01*
G01*
X011266412Y002211772D01*
G01*
X011275000Y002201307D01*
G01*
X011275000Y001103063D01*
G01*
X011253843Y001128843D01*
G01*
X011193228Y001178588D01*
G01*
X011124073Y001215552D01*
G01*
X011049036Y001238314D01*
G01*
X010971000Y001246000D01*
G01*
X010892964Y001238314D01*
G01*
X010817927Y001215552D01*
G01*
X010748772Y001178588D01*
G01*
X010688157Y001128843D01*
G01*
X010638412Y001068228D01*
G01*
X010636342Y001064355D01*
G01*
X010636342Y014286614D01*
G01*
X011544434Y015194707D01*
G01*
X011584852Y015243956D01*
G01*
X011614886Y015300145D01*
G01*
X011633380Y015361112D01*
G01*
X011639625Y015424517D01*
G01*
X011639625Y027629238D01*
G01*
X012077281Y028066894D01*
G01*
X012112073Y028077448D01*
G01*
X012181228Y028114412D01*
G01*
X012241843Y028164157D01*
G01*
X012291588Y028224772D01*
G01*
X012328552Y028293927D01*
G01*
X012351314Y028368964D01*
G01*
X012359000Y028447000D01*
G01*
X012351314Y028525036D01*
G01*
X012328552Y028600073D01*
G01*
X012291588Y028669228D01*
G01*
X012241843Y028729843D01*
G01*
X012181228Y028779588D01*
G01*
X012112073Y028816552D01*
G01*
X012037036Y028839314D01*
G01*
X011959000Y028847000D01*
G01*
X011880964Y028839314D01*
G01*
X011805927Y028816552D01*
G01*
X011736772Y028779588D01*
G01*
X011676157Y028729843D01*
G01*
X011626412Y028669228D01*
G01*
X011589448Y028600073D01*
G01*
X011566686Y028525036D01*
G01*
X011561278Y028470130D01*
G01*
X011084815Y027993667D01*
G01*
X011044397Y027944417D01*
G01*
X011014364Y027888229D01*
G01*
X010995869Y027827261D01*
G01*
X010989625Y027763857D01*
G01*
X010989625Y016917144D01*
G01*
X010957422Y016926912D01*
G01*
X010855000Y016937000D01*
G01*
X010752578Y016926912D01*
G01*
X010654091Y016897037D01*
G01*
X010563326Y016848522D01*
G01*
X010483769Y016783231D01*
G01*
X010431932Y016731394D01*
G01*
X010366641Y016651837D01*
G01*
X010318126Y016561071D01*
G01*
X010300856Y016504139D01*
G01*
X010340441Y019913821D01*
G01*
X010450134Y020023514D01*
G01*
X010462036Y020024686D01*
G01*
X010537073Y020047448D01*
G01*
X010606228Y020084412D01*
G01*
X010666843Y020134157D01*
G01*
X010716588Y020194772D01*
G01*
X010753552Y020263927D01*
G01*
X010776314Y020338964D01*
G01*
X010784000Y020417000D01*
G01*
X010776314Y020495036D01*
G01*
X010753552Y020570073D01*
G01*
X010716588Y020639228D01*
G01*
X010666843Y020699843D01*
G01*
X010606228Y020749588D01*
G01*
X010537073Y020786552D01*
G01*
X010462036Y020809314D01*
G01*
X010384000Y020817000D01*
G01*
X010305964Y020809314D01*
G01*
X010230927Y020786552D01*
G01*
X010161772Y020749588D01*
G01*
X010101157Y020699843D01*
G01*
X010051412Y020639228D01*
G01*
X010014448Y020570073D01*
G01*
X009991686Y020495036D01*
G01*
X009990514Y020483134D01*
G01*
X009963683Y020456303D01*
G01*
X009963683Y027800015D01*
G01*
X011419810Y029256142D01*
G01*
X011460228Y029305392D01*
G01*
X011490261Y029361580D01*
G01*
X011508755Y029422547D01*
G01*
X011515000Y029485952D01*
G01*
X011515000Y039580000D01*
G01*
X012340000Y039580000D01*
G01*
X012340000Y041880000D01*
G01*
X010391349Y041880000D01*
G01*
X010391349Y042011729D01*
G01*
X010499620Y042120000D01*
G01*
X012340000Y042120000D01*
G01*
X012340000Y044420000D01*
G01*
X010040000Y044420000D01*
G01*
X010040000Y042579620D01*
G01*
X009836539Y042376159D01*
G01*
X009796121Y042326909D01*
G01*
X009766088Y042270721D01*
G01*
X009747594Y042209753D01*
G01*
X009741349Y042146349D01*
G01*
X009741349Y041880000D01*
G01*
X007500000Y041880000D01*
G01*
X007500000Y039580000D01*
G01*
X009295625Y039580000D01*
G01*
X007196223Y037480598D01*
G01*
X007155805Y037431348D01*
G01*
X007125772Y037375160D01*
G01*
X007107278Y037314192D01*
G01*
X007101033Y037250788D01*
G01*
X007101033Y016251606D01*
G01*
X007057868Y016274678D01*
G01*
X006924208Y016315223D01*
G01*
X006785206Y016328913D01*
G01*
X006646205Y016315223D01*
G01*
X006512544Y016274678D01*
G01*
X006389363Y016208836D01*
G01*
X006281393Y016120227D01*
G01*
X005861686Y015700520D01*
G01*
X005645919Y015484753D01*
G01*
X005596987Y015469910D01*
G01*
X005467322Y015400602D01*
G01*
X005353670Y015307330D01*
G01*
X005260398Y015193678D01*
G01*
X005191090Y015064013D01*
G01*
X005148411Y014923318D01*
G01*
X005134000Y014777000D01*
G01*
X005148411Y014630682D01*
G01*
X005191090Y014489987D01*
G01*
X005260398Y014360322D01*
G01*
X005353670Y014246670D01*
G01*
X005467322Y014153398D01*
G01*
X005596987Y014084090D01*
G01*
X005737682Y014041411D01*
G01*
X005884000Y014027000D01*
G01*
X005945793Y014027000D01*
G01*
X006092111Y014041411D01*
G01*
X006232806Y014084090D01*
G01*
X006362471Y014153398D01*
G01*
X006476123Y014246670D01*
G01*
X006569395Y014360322D01*
G01*
X006606890Y014430469D01*
G01*
X006869313Y014692893D01*
G01*
X007101033Y014924613D01*
G01*
X007101033Y005490972D01*
G01*
X007101033Y-10565033D01*
G01*
X007107278Y-10628437D01*
G01*
X007125772Y-10689405D01*
G01*
X007155805Y-10745593D01*
G01*
X007196223Y-10794843D01*
G01*
X007260514Y-10859134D01*
G01*
X007261686Y-10871036D01*
G01*
X007284448Y-10946073D01*
G01*
X007321412Y-11015228D01*
G01*
X007371157Y-11075843D01*
G01*
X007405823Y-11104292D01*
G01*
X005187190Y-13322925D01*
G01*
X005146772Y-13372174D01*
G01*
X005116739Y-13428362D01*
G01*
X005098245Y-13489330D01*
G01*
X005092000Y-13552735D01*
G01*
X005092000Y-18398526D01*
G01*
X005086652Y-18405043D01*
G01*
X005086652Y-10957706D01*
G01*
X005080408Y-10894302D01*
G01*
X005061913Y-10833334D01*
G01*
X005031880Y-10777146D01*
G01*
X004991462Y-10727896D01*
G01*
X004200955Y-09937389D01*
G01*
X004200955Y-09614153D01*
G01*
X004212927Y-09620552D01*
G01*
X004287964Y-09643314D01*
G01*
X004366000Y-09651000D01*
G01*
X004444036Y-09643314D01*
G01*
X004519073Y-09620552D01*
G01*
X004588228Y-09583588D01*
G01*
X004648843Y-09533843D01*
G01*
X004698588Y-09473228D01*
G01*
X004735552Y-09404073D01*
G01*
X004758314Y-09329036D01*
G01*
X004759486Y-09317134D01*
G01*
X006138145Y-07938474D01*
G01*
X006178563Y-07889225D01*
G01*
X006208596Y-07833037D01*
G01*
X006227091Y-07772069D01*
G01*
X006233336Y-07708664D01*
G01*
X006233336Y-02891491D01*
G01*
X006233336Y-02482782D01*
G01*
X006227091Y-02419377D01*
G01*
X006208596Y-02358410D01*
G01*
X006178563Y-02302221D01*
G01*
X006138145Y-02252972D01*
G01*
X006054031Y-02168858D01*
G01*
X006049314Y-02120964D01*
G01*
X006026552Y-02045927D01*
G01*
X005989588Y-01976772D01*
G01*
X005939843Y-01916157D01*
G01*
X005879228Y-01866412D01*
G01*
X005810073Y-01829448D01*
G01*
X005735036Y-01806686D01*
G01*
X005657000Y-01799000D01*
G01*
X005578964Y-01806686D01*
G01*
X005503927Y-01829448D01*
G01*
X005434772Y-01866412D01*
G01*
X005374157Y-01916157D01*
G01*
X005324412Y-01976772D01*
G01*
X005287448Y-02045927D01*
G01*
X005264686Y-02120964D01*
G01*
X005257000Y-02199000D01*
G01*
X005264686Y-02277036D01*
G01*
X005287448Y-02352073D01*
G01*
X005324412Y-02421228D01*
G01*
X005374157Y-02481843D01*
G01*
X005434772Y-02531588D01*
G01*
X005503927Y-02568552D01*
G01*
X005547793Y-02581858D01*
G01*
X005583336Y-02617401D01*
G01*
X005583336Y-02891491D01*
G01*
X005583336Y-04363717D01*
G01*
X004533000Y-03313380D01*
G01*
X004533000Y-01079474D01*
G01*
X004540588Y-01070228D01*
G01*
X004577552Y-01001073D01*
G01*
X004600314Y-00926036D01*
G01*
X004608000Y-00848000D01*
G01*
X004600314Y-00769964D01*
G01*
X004577552Y-00694927D01*
G01*
X004540588Y-00625772D01*
G01*
X004490843Y-00565157D01*
G01*
X004430228Y-00515412D01*
G01*
X004361073Y-00478448D01*
G01*
X004286036Y-00455686D01*
G01*
X004208000Y-00448000D01*
G01*
X004200955Y-00448694D01*
G01*
X004200955Y034284430D01*
G01*
X006339810Y036423285D01*
G01*
X006380228Y036472534D01*
G01*
X006410261Y036528722D01*
G01*
X006428755Y036589690D01*
G01*
X006435000Y036653094D01*
G01*
X006435000Y039580000D01*
G01*
X007260000Y039580000D01*
G01*
X007260000Y041880000D01*
G01*
X005179620Y041880000D01*
G01*
X005419620Y042120000D01*
G01*
X007260000Y042120000D01*
G01*
X007260000Y044420000D01*
G01*
X004960000Y044420000D01*
G01*
X004960000Y042579620D01*
G01*
X-09635810Y027983810D01*
G01*
X-09676228Y027934560D01*
G01*
X-09706261Y027878372D01*
G01*
X-09724755Y027817404D01*
G01*
X-09731000Y027754000D01*
G01*
X-09731000Y-15938526D01*
G01*
X-09738588Y-15947772D01*
G01*
X-09775552Y-16016927D01*
G01*
X-09798314Y-16091964D01*
G01*
X-09806000Y-16170000D01*
G01*
X-09798314Y-16248036D01*
G01*
X-09775552Y-16323073D01*
G01*
X-09738588Y-16392228D01*
G01*
X-09688843Y-16452843D01*
G01*
X-09648441Y-16486000D01*
G01*
X-14458380Y-16486000D01*
G01*
X-48011514Y017067134D01*
G01*
X-48012686Y017079036D01*
G01*
X-48035448Y017154073D01*
G01*
X-48072412Y017223228D01*
G01*
X-48122157Y017283843D01*
G01*
X-48182772Y017333588D01*
G01*
X-48251927Y017370552D01*
G01*
X-48326964Y017393314D01*
G01*
X-48405000Y017401000D01*
G01*
X-48483036Y017393314D01*
G01*
X-48558073Y017370552D01*
G01*
X-48627228Y017333588D01*
G01*
X-48687843Y017283843D01*
G01*
X-48737588Y017223228D01*
G01*
X-48774552Y017154073D01*
G01*
X-48797314Y017079036D01*
G01*
X-48805000Y017001000D01*
G01*
X-48797314Y016922964D01*
G01*
X-48774552Y016847927D01*
G01*
X-48737588Y016778772D01*
G01*
X-48687843Y016718157D01*
G01*
X-48627228Y016668412D01*
G01*
X-48558073Y016631448D01*
G01*
X-48483036Y016608686D01*
G01*
X-48471134Y016607514D01*
G01*
X-14822810Y-17040810D01*
G01*
X-14773560Y-17081228D01*
G01*
X-14717372Y-17111261D01*
G01*
X-14656404Y-17129755D01*
G01*
X-14593000Y-17136000D01*
G01*
X-08872996Y-17136000D01*
G01*
X-08876843Y-17139157D01*
G01*
X-08926588Y-17199772D01*
G01*
X-08963552Y-17268927D01*
G01*
X-08986314Y-17343964D01*
G01*
X-08994000Y-17422000D01*
G01*
X-08986314Y-17500036D01*
G01*
X-08963552Y-17575073D01*
G01*
X-08926588Y-17644228D01*
G01*
X-08891578Y-17686888D01*
G01*
X-08891578Y-21373422D01*
G01*
X-08885334Y-21436826D01*
G01*
X-08866839Y-21497794D01*
G01*
X-08836806Y-21553982D01*
G01*
X-08796388Y-21603231D01*
G01*
X000674535Y-31074155D01*
G01*
X000646120Y-31127317D01*
G01*
X000589215Y-31314910D01*
G01*
X000570000Y-31510000D01*
G01*
X000589215Y-31705090D01*
G01*
X000646120Y-31892683D01*
G01*
X000738530Y-32065570D01*
G01*
X000862893Y-32217107D01*
G01*
X001014430Y-32341470D01*
G01*
X001187317Y-32433880D01*
G01*
X001374910Y-32490785D01*
G01*
X001570000Y-32510000D01*
G01*
X001765090Y-32490785D01*
G01*
X001952683Y-32433880D01*
G01*
X002125570Y-32341470D01*
G01*
X002277107Y-32217107D01*
G01*
X002401470Y-32065570D01*
G01*
X002493880Y-31892683D01*
G01*
X002550785Y-31705090D01*
G01*
X002570000Y-31510000D01*
G01*
X002550785Y-31314910D01*
G01*
X002493880Y-31127317D01*
G01*
X002401470Y-30954430D01*
G01*
X002277107Y-30802893D01*
G01*
X002125570Y-30678530D01*
G01*
X001952683Y-30586120D01*
G01*
X001765090Y-30529215D01*
G01*
X001570000Y-30510000D01*
G01*
X001374910Y-30529215D01*
G01*
X001187317Y-30586120D01*
G01*
X001134155Y-30614535D01*
G01*
X-08241578Y-21238803D01*
G01*
X-08241578Y-17607121D01*
G01*
X-08224448Y-17575073D01*
G01*
X-08201686Y-17500036D01*
G01*
X-08194000Y-17422000D01*
G01*
X-08201686Y-17343964D01*
G01*
X-08224448Y-17268927D01*
G01*
X-08261412Y-17199772D01*
G01*
X-08311157Y-17139157D01*
G01*
X-08315004Y-17136000D01*
G01*
X-03430474Y-17136000D01*
G01*
X-03421228Y-17143588D01*
G01*
X-03352073Y-17180552D01*
G01*
X-03277036Y-17203314D01*
G01*
X-03199000Y-17211000D01*
G01*
X-03120964Y-17203314D01*
G01*
X-03045927Y-17180552D01*
G01*
X-02976772Y-17143588D01*
G01*
X-02916157Y-17093843D01*
G01*
X-02866412Y-17033228D01*
G01*
X-02829448Y-16964073D01*
G01*
X-02806686Y-16889036D01*
G01*
X-02799000Y-16811000D01*
G01*
X-02806686Y-16732964D01*
G01*
X-02829448Y-16657927D01*
G01*
X-02866412Y-16588772D01*
G01*
X-02916157Y-16528157D01*
G01*
X-02976772Y-16478412D01*
G01*
X-03045927Y-16441448D01*
G01*
X-03120964Y-16418686D01*
G01*
X-03199000Y-16411000D01*
G01*
X-03277036Y-16418686D01*
G01*
X-03352073Y-16441448D01*
G01*
X-03421228Y-16478412D01*
G01*
X-03430474Y-16486000D01*
G01*
X-09163559Y-16486000D01*
G01*
X-09123157Y-16452843D01*
G01*
X-09073412Y-16392228D01*
G01*
X-09036448Y-16323073D01*
G01*
X-09013686Y-16248036D01*
G01*
X-09006000Y-16170000D01*
G01*
X-09013686Y-16091964D01*
G01*
X-09036448Y-16016927D01*
G01*
X-09073412Y-15947772D01*
G01*
X-09081000Y-15938526D01*
G01*
X-09081000Y027619380D01*
G01*
X004960000Y041660380D01*
G01*
X004960000Y039580000D01*
G01*
X005785000Y039580000D01*
G01*
X005785000Y036787714D01*
G01*
X005773675Y036776389D01*
G01*
X005755588Y036810228D01*
G01*
X005705843Y036870843D01*
G01*
X005645228Y036920588D01*
G01*
X005576073Y036957552D01*
G01*
X005501036Y036980314D01*
G01*
X005423000Y036988000D01*
G01*
X005344964Y036980314D01*
G01*
X005269927Y036957552D01*
G01*
X005200772Y036920588D01*
G01*
X005140157Y036870843D01*
G01*
X005090412Y036810228D01*
G01*
X005053448Y036741073D01*
G01*
X005030686Y036666036D01*
G01*
X005029146Y036650405D01*
G01*
X005004112Y036619900D01*
G01*
X004987397Y036588628D01*
G01*
X-02645345Y028955886D01*
G01*
X-02685763Y028906637D01*
G01*
X-02715796Y028850449D01*
G01*
X-02734290Y028789481D01*
G01*
X-02740535Y028726076D01*
G01*
X-02740535Y013602365D01*
G01*
X-02740535Y-22078445D01*
G01*
X-02748157Y-22069157D01*
G01*
X-02808772Y-22019412D01*
G01*
X-02877927Y-21982448D01*
G01*
X-02952964Y-21959686D01*
G01*
X-03031000Y-21952000D01*
G01*
X-03109036Y-21959686D01*
G01*
X-03184073Y-21982448D01*
G01*
X-03253228Y-22019412D01*
G01*
X-03313843Y-22069157D01*
G01*
X-03363588Y-22129772D01*
G01*
X-03400552Y-22198927D01*
G01*
X-03423314Y-22273964D01*
G01*
X-03429472Y-22336481D01*
G01*
X-03601810Y-22508819D01*
G01*
X-03642228Y-22558069D01*
G01*
X-03672261Y-22614257D01*
G01*
X-03690755Y-22675225D01*
G01*
X-03697000Y-22738629D01*
G01*
X-03697000Y-23149526D01*
G01*
X-03704588Y-23158772D01*
G01*
X-03741552Y-23227927D01*
G01*
X-03764314Y-23302964D01*
G01*
X-03772000Y-23381000D01*
G01*
X-03764314Y-23459036D01*
G01*
X-03741552Y-23534073D01*
G01*
X-03704588Y-23603228D01*
G01*
X-03654843Y-23663843D01*
G01*
X-03594228Y-23713588D01*
G01*
X-03525073Y-23750552D01*
G01*
X-03450036Y-23773314D01*
G01*
X-03372000Y-23781000D01*
G01*
X-03293964Y-23773314D01*
G01*
X-03218927Y-23750552D01*
G01*
X-03149772Y-23713588D01*
G01*
X-03089157Y-23663843D01*
G01*
X-03039412Y-23603228D01*
G01*
X-03002448Y-23534073D01*
G01*
X-02979686Y-23459036D01*
G01*
X-02972000Y-23381000D01*
G01*
X-02979686Y-23302964D01*
G01*
X-03002448Y-23227927D01*
G01*
X-03039412Y-23158772D01*
G01*
X-03047000Y-23149526D01*
G01*
X-03047000Y-22873249D01*
G01*
X-02902870Y-22729118D01*
G01*
X-02877927Y-22721552D01*
G01*
X-02808772Y-22684588D01*
G01*
X-02748157Y-22634843D01*
G01*
X-02740535Y-22625555D01*
G01*
X-02740535Y-24984465D01*
G01*
X-02734290Y-25047869D01*
G01*
X-02715796Y-25108837D01*
G01*
X-02685763Y-25165025D01*
G01*
X-02645345Y-25214275D01*
G01*
X000674535Y-28534155D01*
G01*
X000646120Y-28587317D01*
G01*
X000589215Y-28774910D01*
G01*
X000570000Y-28970000D01*
G01*
X000589215Y-29165090D01*
G01*
X000646120Y-29352683D01*
G01*
X000738530Y-29525570D01*
G01*
X000862893Y-29677107D01*
G01*
X001014430Y-29801470D01*
G01*
X001187317Y-29893880D01*
G01*
X001374910Y-29950785D01*
G01*
X001570000Y-29970000D01*
G01*
X001765090Y-29950785D01*
G01*
X001952683Y-29893880D01*
G01*
X002125570Y-29801470D01*
G01*
X002277107Y-29677107D01*
G01*
X002401470Y-29525570D01*
G01*
X002493880Y-29352683D01*
G01*
X002550785Y-29165090D01*
G01*
X002570000Y-28970000D01*
G01*
X002550785Y-28774910D01*
G01*
X002493880Y-28587317D01*
G01*
X002401470Y-28414430D01*
G01*
X002277107Y-28262893D01*
G01*
X002125570Y-28138530D01*
G01*
X001952683Y-28046120D01*
G01*
X001765090Y-27989215D01*
G01*
X001570000Y-27970000D01*
G01*
X001374910Y-27989215D01*
G01*
X001187317Y-28046120D01*
G01*
X001134155Y-28074535D01*
G01*
X-02090535Y-24849845D01*
G01*
X-02090535Y-17399170D01*
G01*
X-02074269Y-17412519D01*
G01*
X-02062516Y-17418801D01*
G01*
X000325399Y-19806716D01*
G01*
X000325399Y-19828690D01*
G01*
X000331644Y-19892094D01*
G01*
X000350139Y-19953062D01*
G01*
X000380172Y-20009250D01*
G01*
X000420590Y-20058500D01*
G01*
X000469839Y-20098918D01*
G01*
X000526027Y-20128951D01*
G01*
X000586995Y-20147445D01*
G01*
X000650399Y-20153690D01*
G01*
X002526070Y-20153690D01*
G01*
X004025514Y-21653134D01*
G01*
X004026686Y-21665036D01*
G01*
X004049448Y-21740073D01*
G01*
X004086412Y-21809228D01*
G01*
X004136157Y-21869843D01*
G01*
X004196772Y-21919588D01*
G01*
X004265927Y-21956552D01*
G01*
X004340964Y-21979314D01*
G01*
X004419000Y-21987000D01*
G01*
X004436652Y-21985261D01*
G01*
X004436652Y-30487729D01*
G01*
X002705866Y-32218514D01*
G01*
X002693964Y-32219686D01*
G01*
X002618927Y-32242448D01*
G01*
X002549772Y-32279412D01*
G01*
X002489157Y-32329157D01*
G01*
X002439412Y-32389772D01*
G01*
X002402448Y-32458927D01*
G01*
X002379686Y-32533964D01*
G01*
X002372000Y-32612000D01*
G01*
X002379686Y-32690036D01*
G01*
X002402448Y-32765073D01*
G01*
X002439412Y-32834228D01*
G01*
X002489157Y-32894843D01*
G01*
X002549772Y-32944588D01*
G01*
X002618927Y-32981552D01*
G01*
X002693964Y-33004314D01*
G01*
X002772000Y-33012000D01*
G37*
D47*
G36*
X015120000Y042120000D02*
G01*
X017420000Y042120000D01*
G01*
X017420000Y044420000D01*
G01*
X015120000Y044420000D01*
G01*
X015120000Y042120000D01*
G37*
D47*
G36*
X017660000Y042120000D02*
G01*
X019960000Y042120000D01*
G01*
X019960000Y044420000D01*
G01*
X017660000Y044420000D01*
G01*
X017660000Y042120000D01*
G37*
D47*
G36*
X024430000Y-29970000D02*
G01*
X024625090Y-29950785D01*
G01*
X024812683Y-29893880D01*
G01*
X024985570Y-29801470D01*
G01*
X025137107Y-29677107D01*
G01*
X025261470Y-29525570D01*
G01*
X025353880Y-29352683D01*
G01*
X025410785Y-29165090D01*
G01*
X025430000Y-28970000D01*
G01*
X025410785Y-28774910D01*
G01*
X025353880Y-28587317D01*
G01*
X025261470Y-28414430D01*
G01*
X025137107Y-28262893D01*
G01*
X024985570Y-28138530D01*
G01*
X024812683Y-28046120D01*
G01*
X024625090Y-27989215D01*
G01*
X024430000Y-27970000D01*
G01*
X024234910Y-27989215D01*
G01*
X024047317Y-28046120D01*
G01*
X023994155Y-28074535D01*
G01*
X018713041Y-22793421D01*
G01*
X018713041Y-10662130D01*
G01*
X018726927Y-10669552D01*
G01*
X018801964Y-10692314D01*
G01*
X018880000Y-10700000D01*
G01*
X018958036Y-10692314D01*
G01*
X019033073Y-10669552D01*
G01*
X019102228Y-10632588D01*
G01*
X019162843Y-10582843D01*
G01*
X019212588Y-10522228D01*
G01*
X019249552Y-10453073D01*
G01*
X019272314Y-10378036D01*
G01*
X019273486Y-10366134D01*
G01*
X023438932Y-06200687D01*
G01*
X023449215Y-06305090D01*
G01*
X023506120Y-06492683D01*
G01*
X023598530Y-06665570D01*
G01*
X023722893Y-06817107D01*
G01*
X023874430Y-06941470D01*
G01*
X024047317Y-07033880D01*
G01*
X024234910Y-07090785D01*
G01*
X024430000Y-07110000D01*
G01*
X024625090Y-07090785D01*
G01*
X024812683Y-07033880D01*
G01*
X024985570Y-06941470D01*
G01*
X025137107Y-06817107D01*
G01*
X025261470Y-06665570D01*
G01*
X025353880Y-06492683D01*
G01*
X025410785Y-06305090D01*
G01*
X025430000Y-06110000D01*
G01*
X025410785Y-05914910D01*
G01*
X025353880Y-05727317D01*
G01*
X025261470Y-05554430D01*
G01*
X025137107Y-05402893D01*
G01*
X024985570Y-05278530D01*
G01*
X024812683Y-05186120D01*
G01*
X024625090Y-05129215D01*
G01*
X024430000Y-05110000D01*
G01*
X024234910Y-05129215D01*
G01*
X024047317Y-05186120D01*
G01*
X023874430Y-05278530D01*
G01*
X023722893Y-05402893D01*
G01*
X023695432Y-05436354D01*
G01*
X023695432Y-04243646D01*
G01*
X023722893Y-04277107D01*
G01*
X023874430Y-04401470D01*
G01*
X024047317Y-04493880D01*
G01*
X024234910Y-04550785D01*
G01*
X024430000Y-04570000D01*
G01*
X024625090Y-04550785D01*
G01*
X024812683Y-04493880D01*
G01*
X024985570Y-04401470D01*
G01*
X025137107Y-04277107D01*
G01*
X025261470Y-04125570D01*
G01*
X025353880Y-03952683D01*
G01*
X025371378Y-03895000D01*
G01*
X027780460Y-03895000D01*
G01*
X027843864Y-03888755D01*
G01*
X027904832Y-03870261D01*
G01*
X027961020Y-03840228D01*
G01*
X028010269Y-03799810D01*
G01*
X028378982Y-03431097D01*
G01*
X028389908Y-03430021D01*
G01*
X028410000Y-03432000D01*
G01*
X028488036Y-03424314D01*
G01*
X028563073Y-03401552D01*
G01*
X028632228Y-03364588D01*
G01*
X028692843Y-03314843D01*
G01*
X028742588Y-03254228D01*
G01*
X028779552Y-03185073D01*
G01*
X028802314Y-03110036D01*
G01*
X028810000Y-03032000D01*
G01*
X028802314Y-02953964D01*
G01*
X028779552Y-02878927D01*
G01*
X028742588Y-02809772D01*
G01*
X028692843Y-02749157D01*
G01*
X028632228Y-02699412D01*
G01*
X028563073Y-02662448D01*
G01*
X028488036Y-02639686D01*
G01*
X028410000Y-02632000D01*
G01*
X028331964Y-02639686D01*
G01*
X028256927Y-02662448D01*
G01*
X028187772Y-02699412D01*
G01*
X028127157Y-02749157D01*
G01*
X028077412Y-02809772D01*
G01*
X028061688Y-02839190D01*
G01*
X028059095Y-02840576D01*
G01*
X028009846Y-02880994D01*
G01*
X027645840Y-03245000D01*
G01*
X025371378Y-03245000D01*
G01*
X025353880Y-03187317D01*
G01*
X025261470Y-03014430D01*
G01*
X025137107Y-02862893D01*
G01*
X024985570Y-02738530D01*
G01*
X024812683Y-02646120D01*
G01*
X024625090Y-02589215D01*
G01*
X024430000Y-02570000D01*
G01*
X024234910Y-02589215D01*
G01*
X024047317Y-02646120D01*
G01*
X023874430Y-02738530D01*
G01*
X023722893Y-02862893D01*
G01*
X023695432Y-02896354D01*
G01*
X023695432Y-02224187D01*
G01*
X023994155Y-01925464D01*
G01*
X024047317Y-01953880D01*
G01*
X024234910Y-02010785D01*
G01*
X024430000Y-02030000D01*
G01*
X024625090Y-02010785D01*
G01*
X024812683Y-01953880D01*
G01*
X024985570Y-01861470D01*
G01*
X025137107Y-01737107D01*
G01*
X025261470Y-01585570D01*
G01*
X025353880Y-01412683D01*
G01*
X025410785Y-01225090D01*
G01*
X025430000Y-01030000D01*
G01*
X025410785Y-00834910D01*
G01*
X025353880Y-00647317D01*
G01*
X025261470Y-00474430D01*
G01*
X025137107Y-00322893D01*
G01*
X024985570Y-00198530D01*
G01*
X024812683Y-00106120D01*
G01*
X024625090Y-00049215D01*
G01*
X024430000Y-00030000D01*
G01*
X024234910Y-00049215D01*
G01*
X024047317Y-00106120D01*
G01*
X023874430Y-00198530D01*
G01*
X023722893Y-00322893D01*
G01*
X023598530Y-00474430D01*
G01*
X023506120Y-00647317D01*
G01*
X023449215Y-00834910D01*
G01*
X023430000Y-01030000D01*
G01*
X023449215Y-01225090D01*
G01*
X023506120Y-01412683D01*
G01*
X023534536Y-01465845D01*
G01*
X023140623Y-01859758D01*
G01*
X023100205Y-01909007D01*
G01*
X023070172Y-01965195D01*
G01*
X023051677Y-02026163D01*
G01*
X023045432Y-02089568D01*
G01*
X023045432Y-05674949D01*
G01*
X018813866Y-09906514D01*
G01*
X018801964Y-09907686D01*
G01*
X018726927Y-09930448D01*
G01*
X018713041Y-09937870D01*
G01*
X018713041Y-09426110D01*
G01*
X018783000Y-09433000D01*
G01*
X018861036Y-09425314D01*
G01*
X018936073Y-09402552D01*
G01*
X019005228Y-09365588D01*
G01*
X019065843Y-09315843D01*
G01*
X019115588Y-09255228D01*
G01*
X019152552Y-09186073D01*
G01*
X019175314Y-09111036D01*
G01*
X019183000Y-09033000D01*
G01*
X019175314Y-08954964D01*
G01*
X019152552Y-08879927D01*
G01*
X019115588Y-08810772D01*
G01*
X019108000Y-08801526D01*
G01*
X019108000Y-04271620D01*
G01*
X023994155Y000614535D01*
G01*
X024047317Y000586120D01*
G01*
X024234910Y000529215D01*
G01*
X024430000Y000510000D01*
G01*
X024625090Y000529215D01*
G01*
X024812683Y000586120D01*
G01*
X024985570Y000678530D01*
G01*
X025137107Y000802893D01*
G01*
X025261470Y000954430D01*
G01*
X025353880Y001127317D01*
G01*
X025410785Y001314910D01*
G01*
X025430000Y001510000D01*
G01*
X025410785Y001705090D01*
G01*
X025353880Y001892683D01*
G01*
X025261470Y002065570D01*
G01*
X025137107Y002217107D01*
G01*
X024985570Y002341470D01*
G01*
X024812683Y002433880D01*
G01*
X024625090Y002490785D01*
G01*
X024430000Y002510000D01*
G01*
X024234910Y002490785D01*
G01*
X024047317Y002433880D01*
G01*
X023874430Y002341470D01*
G01*
X023722893Y002217107D01*
G01*
X023598530Y002065570D01*
G01*
X023506120Y001892683D01*
G01*
X023449215Y001705090D01*
G01*
X023430000Y001510000D01*
G01*
X023449215Y001314910D01*
G01*
X023506120Y001127317D01*
G01*
X023534535Y001074155D01*
G01*
X018713041Y-03747339D01*
G01*
X018713041Y023367421D01*
G01*
X021166134Y025820514D01*
G01*
X021178036Y025821686D01*
G01*
X021253073Y025844448D01*
G01*
X021322228Y025881412D01*
G01*
X021382843Y025931157D01*
G01*
X021432588Y025991772D01*
G01*
X021469552Y026060927D01*
G01*
X021485000Y026111853D01*
G01*
X021485000Y002413474D01*
G01*
X021477412Y002404228D01*
G01*
X021440448Y002335073D01*
G01*
X021417686Y002260036D01*
G01*
X021410000Y002182000D01*
G01*
X021417686Y002103964D01*
G01*
X021440448Y002028927D01*
G01*
X021477412Y001959772D01*
G01*
X021527157Y001899157D01*
G01*
X021587772Y001849412D01*
G01*
X021656927Y001812448D01*
G01*
X021731964Y001789686D01*
G01*
X021810000Y001782000D01*
G01*
X021888036Y001789686D01*
G01*
X021963073Y001812448D01*
G01*
X022032228Y001849412D01*
G01*
X022092843Y001899157D01*
G01*
X022142588Y001959772D01*
G01*
X022179552Y002028927D01*
G01*
X022202314Y002103964D01*
G01*
X022210000Y002182000D01*
G01*
X022202314Y002260036D01*
G01*
X022179552Y002335073D01*
G01*
X022142588Y002404228D01*
G01*
X022135000Y002413474D01*
G01*
X022135000Y031628200D01*
G01*
X022150472Y031619930D01*
G01*
X022274753Y031582230D01*
G01*
X022404000Y031569500D01*
G01*
X023040761Y031569500D01*
G01*
X023097654Y031539090D01*
G01*
X023238349Y031496411D01*
G01*
X023384667Y031482000D01*
G01*
X024365333Y031482000D01*
G01*
X025346000Y031482000D01*
G01*
X026326667Y031482000D01*
G01*
X027307333Y031482000D01*
G01*
X028288000Y031482000D01*
G01*
X029268667Y031482000D01*
G01*
X030249333Y031482000D01*
G01*
X031230000Y031482000D01*
G01*
X032210667Y031482000D01*
G01*
X033191333Y031482000D01*
G01*
X034172000Y031482000D01*
G01*
X034318318Y031496411D01*
G01*
X034459013Y031539090D01*
G01*
X034588678Y031608398D01*
G01*
X034702330Y031701670D01*
G01*
X035340330Y032339670D01*
G01*
X035978330Y032977670D01*
G01*
X036616330Y033615670D01*
G01*
X037254330Y034253670D01*
G01*
X037410660Y034410000D01*
G01*
X039650000Y034410000D01*
G01*
X039650000Y037710000D01*
G01*
X036350000Y037710000D01*
G01*
X036350000Y035470660D01*
G01*
X036193670Y035314330D01*
G01*
X035555670Y034676330D01*
G01*
X034917670Y034038330D01*
G01*
X034279670Y033400330D01*
G01*
X033861340Y032982000D01*
G01*
X033191333Y032982000D01*
G01*
X032210667Y032982000D01*
G01*
X031230000Y032982000D01*
G01*
X030249333Y032982000D01*
G01*
X029268667Y032982000D01*
G01*
X028288000Y032982000D01*
G01*
X027307333Y032982000D01*
G01*
X026326667Y032982000D01*
G01*
X025346000Y032982000D01*
G01*
X024365333Y032982000D01*
G01*
X023384667Y032982000D01*
G01*
X023238349Y032967589D01*
G01*
X023097654Y032924910D01*
G01*
X023040761Y032894500D01*
G01*
X022404000Y032894500D01*
G01*
X022274753Y032881770D01*
G01*
X022150472Y032844070D01*
G01*
X022135000Y032835800D01*
G01*
X022135000Y038683785D01*
G01*
X022673960Y039222745D01*
G01*
X022714378Y039271995D01*
G01*
X022744411Y039328183D01*
G01*
X022762905Y039389151D01*
G01*
X022769150Y039452555D01*
G01*
X022769150Y039580000D01*
G01*
X025040000Y039580000D01*
G01*
X025040000Y041880000D01*
G01*
X022769150Y041880000D01*
G01*
X022769150Y042175850D01*
G01*
X022762905Y042239254D01*
G01*
X022744411Y042300222D01*
G01*
X022714378Y042356410D01*
G01*
X022673960Y042405659D01*
G01*
X022500000Y042579619D01*
G01*
X022500000Y044420000D01*
G01*
X020200000Y044420000D01*
G01*
X020200000Y042120000D01*
G01*
X022040381Y042120000D01*
G01*
X022119150Y042041231D01*
G01*
X022119150Y041880000D01*
G01*
X020200000Y041880000D01*
G01*
X020200000Y039580000D01*
G01*
X022111976Y039580000D01*
G01*
X021580190Y039048214D01*
G01*
X021539772Y038998965D01*
G01*
X021509739Y038942777D01*
G01*
X021491245Y038881809D01*
G01*
X021485000Y038818405D01*
G01*
X021485000Y026316147D01*
G01*
X021469552Y026367073D01*
G01*
X021432588Y026436228D01*
G01*
X021382843Y026496843D01*
G01*
X021322228Y026546588D01*
G01*
X021253073Y026583552D01*
G01*
X021178036Y026606314D01*
G01*
X021100000Y026614000D01*
G01*
X021021964Y026606314D01*
G01*
X020946927Y026583552D01*
G01*
X020877772Y026546588D01*
G01*
X020817157Y026496843D01*
G01*
X020767412Y026436228D01*
G01*
X020730448Y026367073D01*
G01*
X020707686Y026292036D01*
G01*
X020706514Y026280134D01*
G01*
X018158231Y023731851D01*
G01*
X018117813Y023682601D01*
G01*
X018087780Y023626413D01*
G01*
X018069286Y023565445D01*
G01*
X018063041Y023502041D01*
G01*
X018063041Y-22909672D01*
G01*
X018063041Y-22928041D01*
G01*
X018069286Y-22991445D01*
G01*
X018087780Y-23052413D01*
G01*
X018117813Y-23108601D01*
G01*
X018158231Y-23157851D01*
G01*
X023534535Y-28534155D01*
G01*
X023506120Y-28587317D01*
G01*
X023449215Y-28774910D01*
G01*
X023430000Y-28970000D01*
G01*
X023449215Y-29165090D01*
G01*
X023506120Y-29352683D01*
G01*
X023598530Y-29525570D01*
G01*
X023722893Y-29677107D01*
G01*
X023874430Y-29801470D01*
G01*
X024047317Y-29893880D01*
G01*
X024234910Y-29950785D01*
G01*
X024430000Y-29970000D01*
G37*
D47*
G36*
X015567000Y-33497000D02*
G01*
X015645036Y-33489314D01*
G01*
X015720073Y-33466552D01*
G01*
X015789228Y-33429588D01*
G01*
X015849843Y-33379843D01*
G01*
X015899588Y-33319228D01*
G01*
X015936552Y-33250073D01*
G01*
X015959314Y-33175036D01*
G01*
X015960486Y-33163134D01*
G01*
X018241556Y-30882063D01*
G01*
X023657920Y-30882063D01*
G01*
X023598530Y-30954430D01*
G01*
X023506120Y-31127317D01*
G01*
X023449215Y-31314910D01*
G01*
X023430000Y-31510000D01*
G01*
X023449215Y-31705090D01*
G01*
X023506120Y-31892683D01*
G01*
X023598530Y-32065570D01*
G01*
X023722893Y-32217107D01*
G01*
X023874430Y-32341470D01*
G01*
X024047317Y-32433880D01*
G01*
X024234910Y-32490785D01*
G01*
X024430000Y-32510000D01*
G01*
X024625090Y-32490785D01*
G01*
X024812683Y-32433880D01*
G01*
X024985570Y-32341470D01*
G01*
X025137107Y-32217107D01*
G01*
X025261470Y-32065570D01*
G01*
X025353880Y-31892683D01*
G01*
X025410785Y-31705090D01*
G01*
X025430000Y-31510000D01*
G01*
X025410785Y-31314910D01*
G01*
X025353880Y-31127317D01*
G01*
X025261470Y-30954430D01*
G01*
X025202080Y-30882063D01*
G01*
X025372735Y-30882063D01*
G01*
X025425786Y-30910419D01*
G01*
X025486754Y-30928913D01*
G01*
X025550158Y-30935158D01*
G01*
X026223834Y-30935158D01*
G01*
X026287239Y-30928913D01*
G01*
X026348206Y-30910419D01*
G01*
X026404395Y-30880386D01*
G01*
X026453644Y-30839968D01*
G01*
X042535639Y-14757973D01*
G01*
X057019962Y-14757973D01*
G01*
X057067027Y-14757973D01*
G01*
X057130432Y-14751728D01*
G01*
X057191400Y-14733233D01*
G01*
X057247588Y-14703200D01*
G01*
X057296837Y-14662782D01*
G01*
X064709620Y-07250000D01*
G01*
X066750000Y-07250000D01*
G01*
X066750000Y-04750000D01*
G01*
X064709620Y-04750000D01*
G01*
X056376364Y003583256D01*
G01*
X056376364Y040002328D01*
G01*
X056400000Y040000000D01*
G01*
X056478036Y040007686D01*
G01*
X056553073Y040030448D01*
G01*
X056622228Y040067412D01*
G01*
X056682843Y040117157D01*
G01*
X056732588Y040177772D01*
G01*
X056769552Y040246927D01*
G01*
X056792314Y040321964D01*
G01*
X056800000Y040400000D01*
G01*
X056792314Y040478036D01*
G01*
X056769552Y040553073D01*
G01*
X056732588Y040622228D01*
G01*
X056725000Y040631474D01*
G01*
X056725000Y041452039D01*
G01*
X056752306Y041503125D01*
G01*
X056764038Y041541801D01*
G01*
X056788843Y041562157D01*
G01*
X056838588Y041622772D01*
G01*
X056875552Y041691927D01*
G01*
X056898314Y041766964D01*
G01*
X056906000Y041845000D01*
G01*
X056898314Y041923036D01*
G01*
X056875552Y041998073D01*
G01*
X056838588Y042067228D01*
G01*
X056788843Y042127843D01*
G01*
X056728228Y042177588D01*
G01*
X056659073Y042214552D01*
G01*
X056584036Y042237314D01*
G01*
X056506000Y042245000D01*
G01*
X056427964Y042237314D01*
G01*
X056376364Y042221661D01*
G01*
X056376364Y042282744D01*
G01*
X056543134Y042449514D01*
G01*
X056555036Y042450686D01*
G01*
X056630073Y042473448D01*
G01*
X056699228Y042510412D01*
G01*
X056759843Y042560157D01*
G01*
X056809588Y042620772D01*
G01*
X056846552Y042689927D01*
G01*
X056869314Y042764964D01*
G01*
X056877000Y042843000D01*
G01*
X056869314Y042921036D01*
G01*
X056846552Y042996073D01*
G01*
X056809588Y043065228D01*
G01*
X056759843Y043125843D01*
G01*
X056699228Y043175588D01*
G01*
X056630073Y043212552D01*
G01*
X056555036Y043235314D01*
G01*
X056477000Y043243000D01*
G01*
X056398964Y043235314D01*
G01*
X056323927Y043212552D01*
G01*
X056254772Y043175588D01*
G01*
X056194157Y043125843D01*
G01*
X056144412Y043065228D01*
G01*
X056107448Y042996073D01*
G01*
X056084686Y042921036D01*
G01*
X056083514Y042909134D01*
G01*
X055821554Y042647174D01*
G01*
X055781136Y042597924D01*
G01*
X055751103Y042541736D01*
G01*
X055732609Y042480768D01*
G01*
X055726364Y042417364D01*
G01*
X055726364Y003521103D01*
G01*
X055726364Y003448636D01*
G01*
X055732609Y003385232D01*
G01*
X055751103Y003324264D01*
G01*
X055781136Y003268076D01*
G01*
X055821554Y003218826D01*
G01*
X064250000Y-05209620D01*
G01*
X064250000Y-06790380D01*
G01*
X056932408Y-14107973D01*
G01*
X046583233Y-14107973D01*
G01*
X046592314Y-14078036D01*
G01*
X046600000Y-14000000D01*
G01*
X046592314Y-13921964D01*
G01*
X046569552Y-13846927D01*
G01*
X046532588Y-13777772D01*
G01*
X046525000Y-13768526D01*
G01*
X046525000Y-11402623D01*
G01*
X046518755Y-11339218D01*
G01*
X046500261Y-11278250D01*
G01*
X046470933Y-11223381D01*
G01*
X046468729Y-11201001D01*
G01*
X046445966Y-11125964D01*
G01*
X046409002Y-11056809D01*
G01*
X046359257Y-10996194D01*
G01*
X046298642Y-10946449D01*
G01*
X046229488Y-10909485D01*
G01*
X046154451Y-10886723D01*
G01*
X046076414Y-10879037D01*
G01*
X045998378Y-10886723D01*
G01*
X045923341Y-10909485D01*
G01*
X045854186Y-10946449D01*
G01*
X045793572Y-10996194D01*
G01*
X045743827Y-11056809D01*
G01*
X045706863Y-11125964D01*
G01*
X045684100Y-11201001D01*
G01*
X045676414Y-11279037D01*
G01*
X045684100Y-11357073D01*
G01*
X045706863Y-11432110D01*
G01*
X045743827Y-11501265D01*
G01*
X045793572Y-11561880D01*
G01*
X045854186Y-11611625D01*
G01*
X045875000Y-11622750D01*
G01*
X045875000Y-13768526D01*
G01*
X045867412Y-13777772D01*
G01*
X045830448Y-13846927D01*
G01*
X045807686Y-13921964D01*
G01*
X045800000Y-14000000D01*
G01*
X045807686Y-14078036D01*
G01*
X045816767Y-14107973D01*
G01*
X042401020Y-14107973D01*
G01*
X042337615Y-14114217D01*
G01*
X042276648Y-14132712D01*
G01*
X042220460Y-14162745D01*
G01*
X042171210Y-14203163D01*
G01*
X029888172Y-26486202D01*
G01*
X029888172Y-19882464D01*
G01*
X029888172Y013360828D01*
G01*
X029881928Y013424232D01*
G01*
X029863433Y013485200D01*
G01*
X029833400Y013541388D01*
G01*
X029792982Y013590637D01*
G01*
X026947486Y016436134D01*
G01*
X026946314Y016448036D01*
G01*
X026923552Y016523073D01*
G01*
X026886588Y016592228D01*
G01*
X026836843Y016652843D01*
G01*
X026776228Y016702588D01*
G01*
X026707073Y016739552D01*
G01*
X026632036Y016762314D01*
G01*
X026554000Y016770000D01*
G01*
X026475964Y016762314D01*
G01*
X026400927Y016739552D01*
G01*
X026331772Y016702588D01*
G01*
X026271157Y016652843D01*
G01*
X026221412Y016592228D01*
G01*
X026184448Y016523073D01*
G01*
X026161686Y016448036D01*
G01*
X026154000Y016370000D01*
G01*
X026161686Y016291964D01*
G01*
X026184448Y016216927D01*
G01*
X026221412Y016147772D01*
G01*
X026271157Y016087157D01*
G01*
X026331772Y016037412D01*
G01*
X026400927Y016000448D01*
G01*
X026475964Y015977686D01*
G01*
X026487866Y015976514D01*
G01*
X029238172Y013226209D01*
G01*
X029238172Y-19882464D01*
G01*
X029238172Y-26428602D01*
G01*
X025761186Y-29905587D01*
G01*
X025757772Y-29907412D01*
G01*
X025697157Y-29957157D01*
G01*
X025647412Y-30017772D01*
G01*
X025610448Y-30086927D01*
G01*
X025587686Y-30161964D01*
G01*
X025580000Y-30240000D01*
G01*
X025580430Y-30244364D01*
G01*
X025560468Y-30238308D01*
G01*
X025497063Y-30232063D01*
G01*
X018106937Y-30232063D01*
G01*
X018043532Y-30238308D01*
G01*
X017982564Y-30256803D01*
G01*
X017926376Y-30286836D01*
G01*
X017877127Y-30327254D01*
G01*
X015500866Y-32703514D01*
G01*
X015488964Y-32704686D01*
G01*
X015413927Y-32727448D01*
G01*
X015344772Y-32764412D01*
G01*
X015284157Y-32814157D01*
G01*
X015234412Y-32874772D01*
G01*
X015197448Y-32943927D01*
G01*
X015174686Y-33018964D01*
G01*
X015167000Y-33097000D01*
G01*
X015174686Y-33175036D01*
G01*
X015197448Y-33250073D01*
G01*
X015234412Y-33319228D01*
G01*
X015284157Y-33379843D01*
G01*
X015344772Y-33429588D01*
G01*
X015413927Y-33466552D01*
G01*
X015488964Y-33489314D01*
G01*
X015567000Y-33497000D01*
G37*
D47*
G36*
X012580000Y039580000D02*
G01*
X014880000Y039580000D01*
G01*
X014880000Y041880000D01*
G01*
X012580000Y041880000D01*
G01*
X012580000Y039580000D01*
G37*
D47*
G36*
X015120000Y039580000D02*
G01*
X017420000Y039580000D01*
G01*
X017420000Y041880000D01*
G01*
X015120000Y041880000D01*
G01*
X015120000Y039580000D01*
G37*
D47*
G36*
X017660000Y039580000D02*
G01*
X019960000Y039580000D01*
G01*
X019960000Y041880000D01*
G01*
X017660000Y041880000D01*
G01*
X017660000Y039580000D01*
G37*
D47*
G36*
X036350000Y038370000D02*
G01*
X039650000Y038370000D01*
G01*
X039650000Y041670000D01*
G01*
X036350000Y041670000D01*
G01*
X036350000Y038370000D01*
G37*
D47*
G36*
X-45310000Y039200000D02*
G01*
X-43010000Y039200000D01*
G01*
X-43010000Y041500000D01*
G01*
X-45310000Y041500000D01*
G01*
X-45310000Y039200000D01*
G37*
D47*
G36*
X-42770000Y039200000D02*
G01*
X-40470000Y039200000D01*
G01*
X-40470000Y041500000D01*
G01*
X-42770000Y041500000D01*
G01*
X-42770000Y039200000D01*
G37*
D47*
G36*
X-45310000Y034120000D02*
G01*
X-43010000Y034120000D01*
G01*
X-43010000Y036420000D01*
G01*
X-45310000Y036420000D01*
G01*
X-45310000Y034120000D01*
G37*
D47*
G36*
X-42770000Y034120000D02*
G01*
X-40470000Y034120000D01*
G01*
X-40470000Y036420000D01*
G01*
X-42770000Y036420000D01*
G01*
X-42770000Y034120000D01*
G37*
D47*
G36*
X-65690000Y024142500D02*
G01*
X-63390000Y024142500D01*
G01*
X-63390000Y025381882D01*
G01*
X-56792325Y031980000D01*
G01*
X-45310000Y031980000D01*
G01*
X-45310000Y031580000D01*
G01*
X-43010000Y031580000D01*
G01*
X-43010000Y033880000D01*
G01*
X-45310000Y033880000D01*
G01*
X-45310000Y033480000D01*
G01*
X-57103000Y033480000D01*
G01*
X-57249318Y033465589D01*
G01*
X-57390013Y033422910D01*
G01*
X-57519678Y033353602D01*
G01*
X-57633330Y033260330D01*
G01*
X-57633346Y033260310D01*
G01*
X-57633348Y033260312D01*
G01*
X-64450702Y026442500D01*
G01*
X-65690000Y026442500D01*
G01*
X-65690000Y024142500D01*
G37*
D47*
G36*
X-42770000Y031580000D02*
G01*
X-40470000Y031580000D01*
G01*
X-40470000Y033880000D01*
G01*
X-42770000Y033880000D01*
G01*
X-42770000Y031580000D01*
G37*
D47*
G36*
X-60610000Y024142500D02*
G01*
X-58310000Y024142500D01*
G01*
X-58310000Y026442500D01*
G01*
X-60610000Y026442500D01*
G01*
X-60610000Y024142500D01*
G37*
D47*
G36*
X-44541000Y022119000D02*
G01*
X-44279579Y022144748D01*
G01*
X-44028204Y022221001D01*
G01*
X-43796536Y022344831D01*
G01*
X-43593477Y022511477D01*
G01*
X-43426831Y022714536D01*
G01*
X-43303001Y022946204D01*
G01*
X-43226748Y023197579D01*
G01*
X-43201000Y023459000D01*
G01*
X-43226748Y023720421D01*
G01*
X-43303001Y023971796D01*
G01*
X-43426831Y024203464D01*
G01*
X-43593477Y024406523D01*
G01*
X-43796536Y024573169D01*
G01*
X-44028204Y024696999D01*
G01*
X-44279579Y024773252D01*
G01*
X-44541000Y024799000D01*
G01*
X-44802421Y024773252D01*
G01*
X-45053796Y024696999D01*
G01*
X-45285464Y024573169D01*
G01*
X-45488523Y024406523D01*
G01*
X-45655169Y024203464D01*
G01*
X-45778999Y023971796D01*
G01*
X-45855252Y023720421D01*
G01*
X-45881000Y023459000D01*
G01*
X-45855252Y023197579D01*
G01*
X-45778999Y022946204D01*
G01*
X-45655169Y022714536D01*
G01*
X-45488523Y022511477D01*
G01*
X-45285464Y022344831D01*
G01*
X-45053796Y022221001D01*
G01*
X-44802421Y022144748D01*
G01*
X-44541000Y022119000D01*
G37*
D47*
G36*
X-77500000Y014000000D02*
G01*
X-75500000Y014000000D01*
G01*
X-75500000Y016000000D01*
G01*
X-77500000Y016000000D01*
G01*
X-77500000Y014000000D01*
G37*
D47*
G36*
X-65460000Y-01000000D02*
G01*
X-65264910Y-00980785D01*
G01*
X-65077317Y-00923880D01*
G01*
X-64904430Y-00831470D01*
G01*
X-64752893Y-00707107D01*
G01*
X-64628530Y-00555570D01*
G01*
X-64536120Y-00382683D01*
G01*
X-64518622Y-00325000D01*
G01*
X-58327423Y-00325000D01*
G01*
X-58264018Y-00318755D01*
G01*
X-58203051Y-00300261D01*
G01*
X-58146862Y-00270228D01*
G01*
X-58097613Y-00229810D01*
G01*
X-47226364Y010641439D01*
G01*
X-47177772Y010667412D01*
G01*
X-47117157Y010717157D01*
G01*
X-47067412Y010777772D01*
G01*
X-47030448Y010846927D01*
G01*
X-47007686Y010921964D01*
G01*
X-47000000Y011000000D01*
G01*
X-47007686Y011078036D01*
G01*
X-47030448Y011153073D01*
G01*
X-47067412Y011222228D01*
G01*
X-47117157Y011282843D01*
G01*
X-47177772Y011332588D01*
G01*
X-47246927Y011369552D01*
G01*
X-47321964Y011392314D01*
G01*
X-47400000Y011400000D01*
G01*
X-47478036Y011392314D01*
G01*
X-47553073Y011369552D01*
G01*
X-47622228Y011332588D01*
G01*
X-47682843Y011282843D01*
G01*
X-47732588Y011222228D01*
G01*
X-47769552Y011153073D01*
G01*
X-47792314Y011078036D01*
G01*
X-47800000Y011000000D01*
G01*
X-47798838Y010988205D01*
G01*
X-58462042Y000325000D01*
G01*
X-64518622Y000325000D01*
G01*
X-64536120Y000382683D01*
G01*
X-64628530Y000555570D01*
G01*
X-64752893Y000707107D01*
G01*
X-64904430Y000831470D01*
G01*
X-65077317Y000923880D01*
G01*
X-65264910Y000980785D01*
G01*
X-65460000Y001000000D01*
G01*
X-65655090Y000980785D01*
G01*
X-65842683Y000923880D01*
G01*
X-66015570Y000831470D01*
G01*
X-66167107Y000707107D01*
G01*
X-66291470Y000555570D01*
G01*
X-66383880Y000382683D01*
G01*
X-66440785Y000195090D01*
G01*
X-66460000Y000000000D01*
G01*
X-66440785Y-00195090D01*
G01*
X-66383880Y-00382683D01*
G01*
X-66291470Y-00555570D01*
G01*
X-66167107Y-00707107D01*
G01*
X-66015570Y-00831470D01*
G01*
X-65842683Y-00923880D01*
G01*
X-65655090Y-00980785D01*
G01*
X-65460000Y-01000000D01*
G37*
D47*
G36*
X024430000Y005590000D02*
G01*
X024625090Y005609215D01*
G01*
X024812683Y005666120D01*
G01*
X024985570Y005758530D01*
G01*
X025137107Y005882893D01*
G01*
X025261470Y006034430D01*
G01*
X025353880Y006207317D01*
G01*
X025410785Y006394910D01*
G01*
X025430000Y006590000D01*
G01*
X025410785Y006785090D01*
G01*
X025353880Y006972683D01*
G01*
X025261470Y007145570D01*
G01*
X025137107Y007297107D01*
G01*
X024985570Y007421470D01*
G01*
X024812683Y007513880D01*
G01*
X024625090Y007570785D01*
G01*
X024430000Y007590000D01*
G01*
X024234910Y007570785D01*
G01*
X024047317Y007513880D01*
G01*
X023874430Y007421470D01*
G01*
X023722893Y007297107D01*
G01*
X023598530Y007145570D01*
G01*
X023506120Y006972683D01*
G01*
X023449215Y006785090D01*
G01*
X023430000Y006590000D01*
G01*
X023449215Y006394910D01*
G01*
X023506120Y006207317D01*
G01*
X023598530Y006034430D01*
G01*
X023722893Y005882893D01*
G01*
X023874430Y005758530D01*
G01*
X024047317Y005666120D01*
G01*
X024234910Y005609215D01*
G01*
X024430000Y005590000D01*
G37*
D47*
G36*
X024430000Y003050000D02*
G01*
X024625090Y003069215D01*
G01*
X024812683Y003126120D01*
G01*
X024985570Y003218530D01*
G01*
X025137107Y003342893D01*
G01*
X025261470Y003494430D01*
G01*
X025353880Y003667317D01*
G01*
X025410785Y003854910D01*
G01*
X025430000Y004050000D01*
G01*
X025410785Y004245090D01*
G01*
X025353880Y004432683D01*
G01*
X025261470Y004605570D01*
G01*
X025137107Y004757107D01*
G01*
X024985570Y004881470D01*
G01*
X024812683Y004973880D01*
G01*
X024625090Y005030785D01*
G01*
X024430000Y005050000D01*
G01*
X024234910Y005030785D01*
G01*
X024047317Y004973880D01*
G01*
X023874430Y004881470D01*
G01*
X023722893Y004757107D01*
G01*
X023598530Y004605570D01*
G01*
X023506120Y004432683D01*
G01*
X023449215Y004245090D01*
G01*
X023430000Y004050000D01*
G01*
X023449215Y003854910D01*
G01*
X023506120Y003667317D01*
G01*
X023598530Y003494430D01*
G01*
X023722893Y003342893D01*
G01*
X023874430Y003218530D01*
G01*
X024047317Y003126120D01*
G01*
X024234910Y003069215D01*
G01*
X024430000Y003050000D01*
G37*
D47*
G36*
X035761000Y-01573000D02*
G01*
X035839036Y-01565314D01*
G01*
X035914073Y-01542552D01*
G01*
X035983228Y-01505588D01*
G01*
X036043843Y-01455843D01*
G01*
X036093588Y-01395228D01*
G01*
X036130552Y-01326073D01*
G01*
X036153314Y-01251036D01*
G01*
X036161000Y-01173000D01*
G01*
X036153314Y-01094964D01*
G01*
X036130552Y-01019927D01*
G01*
X036093588Y-00950772D01*
G01*
X036086000Y-00941526D01*
G01*
X036086000Y000538869D01*
G01*
X037682792Y002135662D01*
G01*
X037691096Y002142477D01*
G01*
X037700133Y002151514D01*
G01*
X037712036Y002152686D01*
G01*
X037787073Y002175448D01*
G01*
X037856228Y002212412D01*
G01*
X037916843Y002262157D01*
G01*
X037966588Y002322772D01*
G01*
X038003552Y002391927D01*
G01*
X038026314Y002466964D01*
G01*
X038034000Y002545000D01*
G01*
X038026314Y002623036D01*
G01*
X038003552Y002698073D01*
G01*
X037966588Y002767228D01*
G01*
X037916843Y002827843D01*
G01*
X037856228Y002877588D01*
G01*
X037787073Y002914552D01*
G01*
X037712036Y002937314D01*
G01*
X037634000Y002945000D01*
G01*
X037555964Y002937314D01*
G01*
X037480927Y002914552D01*
G01*
X037411772Y002877588D01*
G01*
X037351157Y002827843D01*
G01*
X037301412Y002767228D01*
G01*
X037264448Y002698073D01*
G01*
X037241686Y002623036D01*
G01*
X037240514Y002611133D01*
G01*
X037238292Y002608911D01*
G01*
X037229988Y002602096D01*
G01*
X035531190Y000903299D01*
G01*
X035490772Y000854049D01*
G01*
X035460739Y000797861D01*
G01*
X035442245Y000736893D01*
G01*
X035436000Y000673489D01*
G01*
X035436000Y-00941526D01*
G01*
X035428412Y-00950772D01*
G01*
X035391448Y-01019927D01*
G01*
X035368686Y-01094964D01*
G01*
X035361000Y-01173000D01*
G01*
X035368686Y-01251036D01*
G01*
X035391448Y-01326073D01*
G01*
X035428412Y-01395228D01*
G01*
X035478157Y-01455843D01*
G01*
X035538772Y-01505588D01*
G01*
X035607927Y-01542552D01*
G01*
X035682964Y-01565314D01*
G01*
X035761000Y-01573000D01*
G37*
D47*
G36*
X-71540000Y-01000000D02*
G01*
X-69540000Y-01000000D01*
G01*
X-69540000Y001000000D01*
G01*
X-71540000Y001000000D01*
G01*
X-71540000Y-01000000D01*
G37*
D47*
G36*
X-68000000Y-01000000D02*
G01*
X-67804910Y-00980785D01*
G01*
X-67617317Y-00923880D01*
G01*
X-67444430Y-00831470D01*
G01*
X-67292893Y-00707107D01*
G01*
X-67168530Y-00555570D01*
G01*
X-67076120Y-00382683D01*
G01*
X-67019215Y-00195090D01*
G01*
X-67000000Y000000000D01*
G01*
X-67019215Y000195090D01*
G01*
X-67076120Y000382683D01*
G01*
X-67168530Y000555570D01*
G01*
X-67292893Y000707107D01*
G01*
X-67444430Y000831470D01*
G01*
X-67617317Y000923880D01*
G01*
X-67804910Y000980785D01*
G01*
X-68000000Y001000000D01*
G01*
X-68195090Y000980785D01*
G01*
X-68382683Y000923880D01*
G01*
X-68555570Y000831470D01*
G01*
X-68707107Y000707107D01*
G01*
X-68831470Y000555570D01*
G01*
X-68923880Y000382683D01*
G01*
X-68980785Y000195090D01*
G01*
X-69000000Y000000000D01*
G01*
X-68980785Y-00195090D01*
G01*
X-68923880Y-00382683D01*
G01*
X-68831470Y-00555570D01*
G01*
X-68707107Y-00707107D01*
G01*
X-68555570Y-00831470D01*
G01*
X-68382683Y-00923880D01*
G01*
X-68195090Y-00980785D01*
G01*
X-68000000Y-01000000D01*
G37*
D47*
G36*
X069250000Y-07250000D02*
G01*
X071750000Y-07250000D01*
G01*
X071750000Y-04750000D01*
G01*
X069250000Y-04750000D01*
G01*
X069250000Y-07250000D01*
G37*
D47*
G36*
X024430000Y-09650000D02*
G01*
X024625090Y-09630785D01*
G01*
X024812683Y-09573880D01*
G01*
X024985570Y-09481470D01*
G01*
X025137107Y-09357107D01*
G01*
X025261470Y-09205570D01*
G01*
X025353880Y-09032683D01*
G01*
X025410785Y-08845090D01*
G01*
X025430000Y-08650000D01*
G01*
X025410785Y-08454910D01*
G01*
X025353880Y-08267317D01*
G01*
X025261470Y-08094430D01*
G01*
X025137107Y-07942893D01*
G01*
X024985570Y-07818530D01*
G01*
X024812683Y-07726120D01*
G01*
X024625090Y-07669215D01*
G01*
X024430000Y-07650000D01*
G01*
X024234910Y-07669215D01*
G01*
X024047317Y-07726120D01*
G01*
X023874430Y-07818530D01*
G01*
X023722893Y-07942893D01*
G01*
X023598530Y-08094430D01*
G01*
X023506120Y-08267317D01*
G01*
X023449215Y-08454910D01*
G01*
X023430000Y-08650000D01*
G01*
X023449215Y-08845090D01*
G01*
X023506120Y-09032683D01*
G01*
X023598530Y-09205570D01*
G01*
X023722893Y-09357107D01*
G01*
X023874430Y-09481470D01*
G01*
X024047317Y-09573880D01*
G01*
X024234910Y-09630785D01*
G01*
X024430000Y-09650000D01*
G37*
D47*
G36*
X024430000Y-12190000D02*
G01*
X024625090Y-12170785D01*
G01*
X024812683Y-12113880D01*
G01*
X024985570Y-12021470D01*
G01*
X025137107Y-11897107D01*
G01*
X025261470Y-11745570D01*
G01*
X025353880Y-11572683D01*
G01*
X025410785Y-11385090D01*
G01*
X025430000Y-11190000D01*
G01*
X025410785Y-10994910D01*
G01*
X025353880Y-10807317D01*
G01*
X025261470Y-10634430D01*
G01*
X025137107Y-10482893D01*
G01*
X024985570Y-10358530D01*
G01*
X024812683Y-10266120D01*
G01*
X024625090Y-10209215D01*
G01*
X024430000Y-10190000D01*
G01*
X024234910Y-10209215D01*
G01*
X024047317Y-10266120D01*
G01*
X023874430Y-10358530D01*
G01*
X023722893Y-10482893D01*
G01*
X023598530Y-10634430D01*
G01*
X023506120Y-10807317D01*
G01*
X023449215Y-10994910D01*
G01*
X023430000Y-11190000D01*
G01*
X023449215Y-11385090D01*
G01*
X023506120Y-11572683D01*
G01*
X023598530Y-11745570D01*
G01*
X023722893Y-11897107D01*
G01*
X023874430Y-12021470D01*
G01*
X024047317Y-12113880D01*
G01*
X024234910Y-12170785D01*
G01*
X024430000Y-12190000D01*
G37*
D47*
G36*
X-65460000Y-16000000D02*
G01*
X-65264910Y-15980785D01*
G01*
X-65077317Y-15923880D01*
G01*
X-64904430Y-15831470D01*
G01*
X-64752893Y-15707107D01*
G01*
X-64628530Y-15555570D01*
G01*
X-64536120Y-15382683D01*
G01*
X-64479215Y-15195090D01*
G01*
X-64460000Y-15000000D01*
G01*
X-64479215Y-14804910D01*
G01*
X-64536120Y-14617317D01*
G01*
X-64628530Y-14444430D01*
G01*
X-64698072Y-14359692D01*
G01*
X-61554867Y-11216486D01*
G01*
X-61542964Y-11215314D01*
G01*
X-61467927Y-11192552D01*
G01*
X-61398772Y-11155588D01*
G01*
X-61338157Y-11105843D01*
G01*
X-61288412Y-11045228D01*
G01*
X-61251448Y-10976073D01*
G01*
X-61228686Y-10901036D01*
G01*
X-61221000Y-10823000D01*
G01*
X-61228686Y-10744964D01*
G01*
X-61251448Y-10669927D01*
G01*
X-61288412Y-10600772D01*
G01*
X-61338157Y-10540157D01*
G01*
X-61398772Y-10490412D01*
G01*
X-61467927Y-10453448D01*
G01*
X-61542964Y-10430686D01*
G01*
X-61621000Y-10423000D01*
G01*
X-61699036Y-10430686D01*
G01*
X-61774073Y-10453448D01*
G01*
X-61843228Y-10490412D01*
G01*
X-61903843Y-10540157D01*
G01*
X-61953588Y-10600772D01*
G01*
X-61990552Y-10669927D01*
G01*
X-62013314Y-10744964D01*
G01*
X-62014486Y-10756867D01*
G01*
X-65275766Y-14018146D01*
G01*
X-65460000Y-14000000D01*
G01*
X-65655090Y-14019215D01*
G01*
X-65842683Y-14076120D01*
G01*
X-66015570Y-14168530D01*
G01*
X-66167107Y-14292893D01*
G01*
X-66291470Y-14444430D01*
G01*
X-66383880Y-14617317D01*
G01*
X-66440785Y-14804910D01*
G01*
X-66460000Y-15000000D01*
G01*
X-66440785Y-15195090D01*
G01*
X-66383880Y-15382683D01*
G01*
X-66291470Y-15555570D01*
G01*
X-66167107Y-15707107D01*
G01*
X-66015570Y-15831470D01*
G01*
X-65842683Y-15923880D01*
G01*
X-65655090Y-15980785D01*
G01*
X-65460000Y-16000000D01*
G37*
D47*
G36*
X024430000Y-24890000D02*
G01*
X024625090Y-24870785D01*
G01*
X024812683Y-24813880D01*
G01*
X024985570Y-24721470D01*
G01*
X025137107Y-24597107D01*
G01*
X025261470Y-24445570D01*
G01*
X025353880Y-24272683D01*
G01*
X025410785Y-24085090D01*
G01*
X025430000Y-23890000D01*
G01*
X025410785Y-23694910D01*
G01*
X025353880Y-23507317D01*
G01*
X025261470Y-23334430D01*
G01*
X025137107Y-23182893D01*
G01*
X024985570Y-23058530D01*
G01*
X024812683Y-22966120D01*
G01*
X024625090Y-22909215D01*
G01*
X024430000Y-22890000D01*
G01*
X024234910Y-22909215D01*
G01*
X024047317Y-22966120D01*
G01*
X023994155Y-22994535D01*
G01*
X022546000Y-21546380D01*
G01*
X022546000Y-12448474D01*
G01*
X022553588Y-12439228D01*
G01*
X022590552Y-12370073D01*
G01*
X022613314Y-12295036D01*
G01*
X022621000Y-12217000D01*
G01*
X022613314Y-12138964D01*
G01*
X022590552Y-12063927D01*
G01*
X022553588Y-11994772D01*
G01*
X022503843Y-11934157D01*
G01*
X022443228Y-11884412D01*
G01*
X022374073Y-11847448D01*
G01*
X022299036Y-11824686D01*
G01*
X022221000Y-11817000D01*
G01*
X022142964Y-11824686D01*
G01*
X022067927Y-11847448D01*
G01*
X021998772Y-11884412D01*
G01*
X021938157Y-11934157D01*
G01*
X021888412Y-11994772D01*
G01*
X021851448Y-12063927D01*
G01*
X021828686Y-12138964D01*
G01*
X021821000Y-12217000D01*
G01*
X021828686Y-12295036D01*
G01*
X021851448Y-12370073D01*
G01*
X021888412Y-12439228D01*
G01*
X021896000Y-12448474D01*
G01*
X021896000Y-21681000D01*
G01*
X021902245Y-21744404D01*
G01*
X021920739Y-21805372D01*
G01*
X021950772Y-21861560D01*
G01*
X021991190Y-21910810D01*
G01*
X023534535Y-23454155D01*
G01*
X023506120Y-23507317D01*
G01*
X023449215Y-23694910D01*
G01*
X023430000Y-23890000D01*
G01*
X023449215Y-24085090D01*
G01*
X023506120Y-24272683D01*
G01*
X023598530Y-24445570D01*
G01*
X023722893Y-24597107D01*
G01*
X023874430Y-24721470D01*
G01*
X024047317Y-24813880D01*
G01*
X024234910Y-24870785D01*
G01*
X024430000Y-24890000D01*
G37*
D47*
G36*
X014025000Y-31709000D02*
G01*
X014103036Y-31701314D01*
G01*
X014178073Y-31678552D01*
G01*
X014247228Y-31641588D01*
G01*
X014307843Y-31591843D01*
G01*
X014357588Y-31531228D01*
G01*
X014394552Y-31462073D01*
G01*
X014417314Y-31387036D01*
G01*
X014425000Y-31309000D01*
G01*
X014417314Y-31230964D01*
G01*
X014394552Y-31155927D01*
G01*
X014357588Y-31086772D01*
G01*
X014350000Y-31077526D01*
G01*
X014350000Y-26328481D01*
G01*
X014343755Y-26265076D01*
G01*
X014325261Y-26204109D01*
G01*
X014295228Y-26147920D01*
G01*
X014254810Y-26098671D01*
G01*
X009860585Y-21704447D01*
G01*
X009908843Y-21664843D01*
G01*
X009958588Y-21604228D01*
G01*
X009995552Y-21535073D01*
G01*
X010018314Y-21460036D01*
G01*
X010019486Y-21448134D01*
G01*
X010706378Y-20761242D01*
G01*
X010746796Y-20711992D01*
G01*
X010776829Y-20655804D01*
G01*
X010795323Y-20594836D01*
G01*
X010801568Y-20531432D01*
G01*
X010801568Y-12528268D01*
G01*
X010807552Y-12517073D01*
G01*
X010830314Y-12442036D01*
G01*
X010838000Y-12364000D01*
G01*
X010830314Y-12285964D01*
G01*
X010807552Y-12210927D01*
G01*
X010770588Y-12141772D01*
G01*
X010720843Y-12081157D01*
G01*
X010660228Y-12031412D01*
G01*
X010591073Y-11994448D01*
G01*
X010516036Y-11971686D01*
G01*
X010438000Y-11964000D01*
G01*
X010359964Y-11971686D01*
G01*
X010284927Y-11994448D01*
G01*
X010215772Y-12031412D01*
G01*
X010155157Y-12081157D01*
G01*
X010105412Y-12141772D01*
G01*
X010068448Y-12210927D01*
G01*
X010045686Y-12285964D01*
G01*
X010038000Y-12364000D01*
G01*
X010045686Y-12442036D01*
G01*
X010068448Y-12517073D01*
G01*
X010105412Y-12586228D01*
G01*
X010151568Y-12642470D01*
G01*
X010151568Y-20396812D01*
G01*
X009559866Y-20988514D01*
G01*
X009547964Y-20989686D01*
G01*
X009472927Y-21012448D01*
G01*
X009403772Y-21049412D01*
G01*
X009378046Y-21070524D01*
G01*
X009346228Y-21044412D01*
G01*
X009277073Y-21007448D01*
G01*
X009202036Y-20984686D01*
G01*
X009124000Y-20977000D01*
G01*
X009045964Y-20984686D01*
G01*
X008970927Y-21007448D01*
G01*
X008922000Y-21033600D01*
G01*
X008922000Y-15147040D01*
G01*
X009465897Y-14603143D01*
G01*
X009537073Y-14581552D01*
G01*
X009606228Y-14544588D01*
G01*
X009666843Y-14494843D01*
G01*
X009716588Y-14434228D01*
G01*
X009753552Y-14365073D01*
G01*
X009776314Y-14290036D01*
G01*
X009784000Y-14212000D01*
G01*
X009776314Y-14133964D01*
G01*
X009753552Y-14058927D01*
G01*
X009716588Y-13989772D01*
G01*
X009666843Y-13929157D01*
G01*
X009606228Y-13879412D01*
G01*
X009537073Y-13842448D01*
G01*
X009462036Y-13819686D01*
G01*
X009384000Y-13812000D01*
G01*
X009305964Y-13819686D01*
G01*
X009230927Y-13842448D01*
G01*
X009161772Y-13879412D01*
G01*
X009101157Y-13929157D01*
G01*
X009051412Y-13989772D01*
G01*
X009014448Y-14058927D01*
G01*
X008991686Y-14133964D01*
G01*
X008989564Y-14155506D01*
G01*
X008988916Y-14156296D01*
G01*
X008983647Y-14166153D01*
G01*
X008367190Y-14782611D01*
G01*
X008326772Y-14831860D01*
G01*
X008296739Y-14888048D01*
G01*
X008278245Y-14949016D01*
G01*
X008272000Y-15012420D01*
G01*
X008272000Y-23093526D01*
G01*
X008264412Y-23102772D01*
G01*
X008227448Y-23171927D01*
G01*
X008204686Y-23246964D01*
G01*
X008197000Y-23325000D01*
G01*
X008204686Y-23403036D01*
G01*
X008227448Y-23478073D01*
G01*
X008264412Y-23547228D01*
G01*
X008314157Y-23607843D01*
G01*
X008374772Y-23657588D01*
G01*
X008443927Y-23694552D01*
G01*
X008518964Y-23717314D01*
G01*
X008597000Y-23725000D01*
G01*
X008675036Y-23717314D01*
G01*
X008750073Y-23694552D01*
G01*
X008819228Y-23657588D01*
G01*
X008879843Y-23607843D01*
G01*
X008929588Y-23547228D01*
G01*
X008966552Y-23478073D01*
G01*
X008989314Y-23403036D01*
G01*
X008997000Y-23325000D01*
G01*
X008989314Y-23246964D01*
G01*
X008966552Y-23171927D01*
G01*
X008929588Y-23102772D01*
G01*
X008922000Y-23093526D01*
G01*
X008922000Y-21720400D01*
G01*
X008970927Y-21746552D01*
G01*
X008993754Y-21753476D01*
G01*
X009009213Y-21772313D01*
G01*
X013700000Y-26463101D01*
G01*
X013700000Y-31077526D01*
G01*
X013692412Y-31086772D01*
G01*
X013655448Y-31155927D01*
G01*
X013632686Y-31230964D01*
G01*
X013625000Y-31309000D01*
G01*
X013632686Y-31387036D01*
G01*
X013655448Y-31462073D01*
G01*
X013692412Y-31531228D01*
G01*
X013742157Y-31591843D01*
G01*
X013802772Y-31641588D01*
G01*
X013871927Y-31678552D01*
G01*
X013946964Y-31701314D01*
G01*
X014025000Y-31709000D01*
G37*
D47*
G36*
X024430000Y-14730000D02*
G01*
X024625090Y-14710785D01*
G01*
X024812683Y-14653880D01*
G01*
X024985570Y-14561470D01*
G01*
X025137107Y-14437107D01*
G01*
X025261470Y-14285570D01*
G01*
X025353880Y-14112683D01*
G01*
X025410785Y-13925090D01*
G01*
X025430000Y-13730000D01*
G01*
X025410785Y-13534910D01*
G01*
X025353880Y-13347317D01*
G01*
X025261470Y-13174430D01*
G01*
X025137107Y-13022893D01*
G01*
X024985570Y-12898530D01*
G01*
X024812683Y-12806120D01*
G01*
X024625090Y-12749215D01*
G01*
X024430000Y-12730000D01*
G01*
X024234910Y-12749215D01*
G01*
X024047317Y-12806120D01*
G01*
X023874430Y-12898530D01*
G01*
X023722893Y-13022893D01*
G01*
X023598530Y-13174430D01*
G01*
X023506120Y-13347317D01*
G01*
X023449215Y-13534910D01*
G01*
X023430000Y-13730000D01*
G01*
X023449215Y-13925090D01*
G01*
X023506120Y-14112683D01*
G01*
X023598530Y-14285570D01*
G01*
X023722893Y-14437107D01*
G01*
X023874430Y-14561470D01*
G01*
X024047317Y-14653880D01*
G01*
X024234910Y-14710785D01*
G01*
X024430000Y-14730000D01*
G37*
D47*
G36*
X-71540000Y-16000000D02*
G01*
X-69540000Y-16000000D01*
G01*
X-69540000Y-14000000D01*
G01*
X-71540000Y-14000000D01*
G01*
X-71540000Y-16000000D01*
G37*
D47*
G36*
X-68000000Y-16000000D02*
G01*
X-67804910Y-15980785D01*
G01*
X-67617317Y-15923880D01*
G01*
X-67444430Y-15831470D01*
G01*
X-67292893Y-15707107D01*
G01*
X-67168530Y-15555570D01*
G01*
X-67076120Y-15382683D01*
G01*
X-67019215Y-15195090D01*
G01*
X-67000000Y-15000000D01*
G01*
X-67019215Y-14804910D01*
G01*
X-67076120Y-14617317D01*
G01*
X-67168530Y-14444430D01*
G01*
X-67292893Y-14292893D01*
G01*
X-67444430Y-14168530D01*
G01*
X-67617317Y-14076120D01*
G01*
X-67804910Y-14019215D01*
G01*
X-68000000Y-14000000D01*
G01*
X-68195090Y-14019215D01*
G01*
X-68382683Y-14076120D01*
G01*
X-68555570Y-14168530D01*
G01*
X-68707107Y-14292893D01*
G01*
X-68831470Y-14444430D01*
G01*
X-68923880Y-14617317D01*
G01*
X-68980785Y-14804910D01*
G01*
X-69000000Y-15000000D01*
G01*
X-68980785Y-15195090D01*
G01*
X-68923880Y-15382683D01*
G01*
X-68831470Y-15555570D01*
G01*
X-68707107Y-15707107D01*
G01*
X-68555570Y-15831470D01*
G01*
X-68382683Y-15923880D01*
G01*
X-68195090Y-15980785D01*
G01*
X-68000000Y-16000000D01*
G37*
D47*
G36*
X027109000Y-17165000D02*
G01*
X027187036Y-17157314D01*
G01*
X027262073Y-17134552D01*
G01*
X027331228Y-17097588D01*
G01*
X027391843Y-17047843D01*
G01*
X027441588Y-16987228D01*
G01*
X027478552Y-16918073D01*
G01*
X027501314Y-16843036D01*
G01*
X027509000Y-16765000D01*
G01*
X027501314Y-16686964D01*
G01*
X027478552Y-16611927D01*
G01*
X027441588Y-16542772D01*
G01*
X027431000Y-16529870D01*
G01*
X027431000Y-14665474D01*
G01*
X027438588Y-14656228D01*
G01*
X027475552Y-14587073D01*
G01*
X027498314Y-14512036D01*
G01*
X027506000Y-14434000D01*
G01*
X027498314Y-14355964D01*
G01*
X027475552Y-14280927D01*
G01*
X027438588Y-14211772D01*
G01*
X027388843Y-14151157D01*
G01*
X027328228Y-14101412D01*
G01*
X027259073Y-14064448D01*
G01*
X027184036Y-14041686D01*
G01*
X027106000Y-14034000D01*
G01*
X027027964Y-14041686D01*
G01*
X026952927Y-14064448D01*
G01*
X026883772Y-14101412D01*
G01*
X026823157Y-14151157D01*
G01*
X026773412Y-14211772D01*
G01*
X026736448Y-14280927D01*
G01*
X026713686Y-14355964D01*
G01*
X026706000Y-14434000D01*
G01*
X026713686Y-14512036D01*
G01*
X026736448Y-14587073D01*
G01*
X026773412Y-14656228D01*
G01*
X026781000Y-14665474D01*
G01*
X026781000Y-16537181D01*
G01*
X026776412Y-16542772D01*
G01*
X026739448Y-16611927D01*
G01*
X026716686Y-16686964D01*
G01*
X026709000Y-16765000D01*
G01*
X026716686Y-16843036D01*
G01*
X026739448Y-16918073D01*
G01*
X026776412Y-16987228D01*
G01*
X026826157Y-17047843D01*
G01*
X026886772Y-17097588D01*
G01*
X026955927Y-17134552D01*
G01*
X027030964Y-17157314D01*
G01*
X027109000Y-17165000D01*
G37*
D47*
G36*
X024430000Y-17270000D02*
G01*
X024625090Y-17250785D01*
G01*
X024812683Y-17193880D01*
G01*
X024985570Y-17101470D01*
G01*
X025137107Y-16977107D01*
G01*
X025261470Y-16825570D01*
G01*
X025353880Y-16652683D01*
G01*
X025410785Y-16465090D01*
G01*
X025430000Y-16270000D01*
G01*
X025410785Y-16074910D01*
G01*
X025353880Y-15887317D01*
G01*
X025261470Y-15714430D01*
G01*
X025137107Y-15562893D01*
G01*
X024985570Y-15438530D01*
G01*
X024812683Y-15346120D01*
G01*
X024625090Y-15289215D01*
G01*
X024430000Y-15270000D01*
G01*
X024234910Y-15289215D01*
G01*
X024047317Y-15346120D01*
G01*
X023874430Y-15438530D01*
G01*
X023722893Y-15562893D01*
G01*
X023598530Y-15714430D01*
G01*
X023506120Y-15887317D01*
G01*
X023449215Y-16074910D01*
G01*
X023430000Y-16270000D01*
G01*
X023449215Y-16465090D01*
G01*
X023506120Y-16652683D01*
G01*
X023598530Y-16825570D01*
G01*
X023722893Y-16977107D01*
G01*
X023874430Y-17101470D01*
G01*
X024047317Y-17193880D01*
G01*
X024234910Y-17250785D01*
G01*
X024430000Y-17270000D01*
G37*
D47*
G36*
X024430000Y-19810000D02*
G01*
X024625090Y-19790785D01*
G01*
X024812683Y-19733880D01*
G01*
X024985570Y-19641470D01*
G01*
X025137107Y-19517107D01*
G01*
X025261470Y-19365570D01*
G01*
X025353880Y-19192683D01*
G01*
X025410785Y-19005090D01*
G01*
X025430000Y-18810000D01*
G01*
X025410785Y-18614910D01*
G01*
X025353880Y-18427317D01*
G01*
X025261470Y-18254430D01*
G01*
X025137107Y-18102893D01*
G01*
X024985570Y-17978530D01*
G01*
X024812683Y-17886120D01*
G01*
X024625090Y-17829215D01*
G01*
X024430000Y-17810000D01*
G01*
X024234910Y-17829215D01*
G01*
X024047317Y-17886120D01*
G01*
X023874430Y-17978530D01*
G01*
X023722893Y-18102893D01*
G01*
X023598530Y-18254430D01*
G01*
X023506120Y-18427317D01*
G01*
X023449215Y-18614910D01*
G01*
X023430000Y-18810000D01*
G01*
X023449215Y-19005090D01*
G01*
X023506120Y-19192683D01*
G01*
X023598530Y-19365570D01*
G01*
X023722893Y-19517107D01*
G01*
X023874430Y-19641470D01*
G01*
X024047317Y-19733880D01*
G01*
X024234910Y-19790785D01*
G01*
X024430000Y-19810000D01*
G37*
D47*
G36*
X024430000Y-40130000D02*
G01*
X024625090Y-40110785D01*
G01*
X024812683Y-40053880D01*
G01*
X024985570Y-39961470D01*
G01*
X025137107Y-39837107D01*
G01*
X025261470Y-39685570D01*
G01*
X025353880Y-39512683D01*
G01*
X025410785Y-39325090D01*
G01*
X025430000Y-39130000D01*
G01*
X025410785Y-38934910D01*
G01*
X025353880Y-38747317D01*
G01*
X025325465Y-38694155D01*
G01*
X043040000Y-20979620D01*
G01*
X043040000Y-22610000D01*
G01*
X045340000Y-22610000D01*
G01*
X045340000Y-20334619D01*
G01*
X045535133Y-20139486D01*
G01*
X045547036Y-20138314D01*
G01*
X045622073Y-20115552D01*
G01*
X045691228Y-20078588D01*
G01*
X045751843Y-20028843D01*
G01*
X045801588Y-19968228D01*
G01*
X045838552Y-19899073D01*
G01*
X045861314Y-19824036D01*
G01*
X045869000Y-19746000D01*
G01*
X045861314Y-19667964D01*
G01*
X045838552Y-19592927D01*
G01*
X045801588Y-19523772D01*
G01*
X045751843Y-19463157D01*
G01*
X045691228Y-19413412D01*
G01*
X045628712Y-19379996D01*
G01*
X045665552Y-19311073D01*
G01*
X045688314Y-19236036D01*
G01*
X045696000Y-19158000D01*
G01*
X045688314Y-19079964D01*
G01*
X045665552Y-19004927D01*
G01*
X045628588Y-18935772D01*
G01*
X045578843Y-18875157D01*
G01*
X045518228Y-18825412D01*
G01*
X045449073Y-18788448D01*
G01*
X045374036Y-18765686D01*
G01*
X045296000Y-18758000D01*
G01*
X045217964Y-18765686D01*
G01*
X045142927Y-18788448D01*
G01*
X045073772Y-18825412D01*
G01*
X045029873Y-18861439D01*
G01*
X044373561Y-18861439D01*
G01*
X044310157Y-18867684D01*
G01*
X044249189Y-18886178D01*
G01*
X044193001Y-18916211D01*
G01*
X044143751Y-18956629D01*
G01*
X024865845Y-38234535D01*
G01*
X024812683Y-38206120D01*
G01*
X024625090Y-38149215D01*
G01*
X024430000Y-38130000D01*
G01*
X024234910Y-38149215D01*
G01*
X024047317Y-38206120D01*
G01*
X023874430Y-38298530D01*
G01*
X023722893Y-38422893D01*
G01*
X023598530Y-38574430D01*
G01*
X023506120Y-38747317D01*
G01*
X023449215Y-38934910D01*
G01*
X023430000Y-39130000D01*
G01*
X023449215Y-39325090D01*
G01*
X023506120Y-39512683D01*
G01*
X023598530Y-39685570D01*
G01*
X023722893Y-39837107D01*
G01*
X023874430Y-39961470D01*
G01*
X024047317Y-40053880D01*
G01*
X024234910Y-40110785D01*
G01*
X024430000Y-40130000D01*
G37*
D47*
G36*
X050660000Y-22610000D02*
G01*
X052960000Y-22610000D01*
G01*
X052960000Y-20310000D01*
G01*
X050660000Y-20310000D01*
G01*
X050660000Y-22610000D01*
G37*
D47*
G36*
X063040000Y-22610000D02*
G01*
X065340000Y-22610000D01*
G01*
X065340000Y-20310000D01*
G01*
X063040000Y-20310000D01*
G01*
X063040000Y-22610000D01*
G37*
D47*
G36*
X070660000Y-22610000D02*
G01*
X072960000Y-22610000D01*
G01*
X072960000Y-20310000D01*
G01*
X070660000Y-20310000D01*
G01*
X070660000Y-22610000D01*
G37*
D47*
G36*
X001570000Y-22350000D02*
G01*
X001765090Y-22330785D01*
G01*
X001952683Y-22273880D01*
G01*
X002125570Y-22181470D01*
G01*
X002277107Y-22057107D01*
G01*
X002401470Y-21905570D01*
G01*
X002493880Y-21732683D01*
G01*
X002550785Y-21545090D01*
G01*
X002570000Y-21350000D01*
G01*
X002550785Y-21154910D01*
G01*
X002493880Y-20967317D01*
G01*
X002401470Y-20794430D01*
G01*
X002277107Y-20642893D01*
G01*
X002125570Y-20518530D01*
G01*
X001952683Y-20426120D01*
G01*
X001765090Y-20369215D01*
G01*
X001570000Y-20350000D01*
G01*
X001374910Y-20369215D01*
G01*
X001187317Y-20426120D01*
G01*
X001014430Y-20518530D01*
G01*
X000862893Y-20642893D01*
G01*
X000738530Y-20794430D01*
G01*
X000646120Y-20967317D01*
G01*
X000589215Y-21154910D01*
G01*
X000570000Y-21350000D01*
G01*
X000589215Y-21545090D01*
G01*
X000646120Y-21732683D01*
G01*
X000738530Y-21905570D01*
G01*
X000862893Y-22057107D01*
G01*
X001014430Y-22181470D01*
G01*
X001187317Y-22273880D01*
G01*
X001374910Y-22330785D01*
G01*
X001570000Y-22350000D01*
G37*
D47*
G36*
X024430000Y-22350000D02*
G01*
X024625090Y-22330785D01*
G01*
X024812683Y-22273880D01*
G01*
X024985570Y-22181470D01*
G01*
X025137107Y-22057107D01*
G01*
X025261470Y-21905570D01*
G01*
X025353880Y-21732683D01*
G01*
X025410785Y-21545090D01*
G01*
X025430000Y-21350000D01*
G01*
X025410785Y-21154910D01*
G01*
X025353880Y-20967317D01*
G01*
X025261470Y-20794430D01*
G01*
X025137107Y-20642893D01*
G01*
X024985570Y-20518530D01*
G01*
X024812683Y-20426120D01*
G01*
X024625090Y-20369215D01*
G01*
X024430000Y-20350000D01*
G01*
X024234910Y-20369215D01*
G01*
X024047317Y-20426120D01*
G01*
X023874430Y-20518530D01*
G01*
X023722893Y-20642893D01*
G01*
X023598530Y-20794430D01*
G01*
X023506120Y-20967317D01*
G01*
X023449215Y-21154910D01*
G01*
X023430000Y-21350000D01*
G01*
X023449215Y-21545090D01*
G01*
X023506120Y-21732683D01*
G01*
X023598530Y-21905570D01*
G01*
X023722893Y-22057107D01*
G01*
X023874430Y-22181470D01*
G01*
X024047317Y-22273880D01*
G01*
X024234910Y-22330785D01*
G01*
X024430000Y-22350000D01*
G37*
D47*
G36*
X050660000Y-25150000D02*
G01*
X052960000Y-25150000D01*
G01*
X052960000Y-22850000D01*
G01*
X050660000Y-22850000D01*
G01*
X050660000Y-25150000D01*
G37*
D47*
G36*
X061670000Y-31250000D02*
G01*
X064170000Y-31250000D01*
G01*
X064170000Y-30325000D01*
G01*
X065810000Y-30325000D01*
G01*
X065873404Y-30318755D01*
G01*
X065934372Y-30300261D01*
G01*
X065990560Y-30270228D01*
G01*
X066039810Y-30229810D01*
G01*
X070660000Y-25609620D01*
G01*
X070660000Y-27690000D01*
G01*
X072960000Y-27690000D01*
G01*
X072960000Y-25390000D01*
G01*
X070879620Y-25390000D01*
G01*
X071119620Y-25150000D01*
G01*
X072960000Y-25150000D01*
G01*
X072960000Y-22850000D01*
G01*
X070660000Y-22850000D01*
G01*
X070660000Y-24690380D01*
G01*
X065675380Y-29675000D01*
G01*
X064170000Y-29675000D01*
G01*
X064170000Y-28750000D01*
G01*
X061670000Y-28750000D01*
G01*
X061670000Y-31250000D01*
G37*
D47*
G36*
X001570000Y-24890000D02*
G01*
X001765090Y-24870785D01*
G01*
X001952683Y-24813880D01*
G01*
X002125570Y-24721470D01*
G01*
X002277107Y-24597107D01*
G01*
X002401470Y-24445570D01*
G01*
X002493880Y-24272683D01*
G01*
X002550785Y-24085090D01*
G01*
X002570000Y-23890000D01*
G01*
X002550785Y-23694910D01*
G01*
X002493880Y-23507317D01*
G01*
X002401470Y-23334430D01*
G01*
X002277107Y-23182893D01*
G01*
X002125570Y-23058530D01*
G01*
X001952683Y-22966120D01*
G01*
X001765090Y-22909215D01*
G01*
X001570000Y-22890000D01*
G01*
X001374910Y-22909215D01*
G01*
X001187317Y-22966120D01*
G01*
X001014430Y-23058530D01*
G01*
X000862893Y-23182893D01*
G01*
X000738530Y-23334430D01*
G01*
X000646120Y-23507317D01*
G01*
X000589215Y-23694910D01*
G01*
X000570000Y-23890000D01*
G01*
X000589215Y-24085090D01*
G01*
X000646120Y-24272683D01*
G01*
X000738530Y-24445570D01*
G01*
X000862893Y-24597107D01*
G01*
X001014430Y-24721470D01*
G01*
X001187317Y-24813880D01*
G01*
X001374910Y-24870785D01*
G01*
X001570000Y-24890000D01*
G37*
D47*
G36*
X043040000Y-27690000D02*
G01*
X045340000Y-27690000D01*
G01*
X045340000Y-25390000D01*
G01*
X043040000Y-25390000D01*
G01*
X043040000Y-27690000D01*
G37*
D47*
G36*
X050660000Y-27690000D02*
G01*
X052960000Y-27690000D01*
G01*
X052960000Y-25390000D01*
G01*
X050660000Y-25390000D01*
G01*
X050660000Y-27690000D01*
G37*
D47*
G36*
X063040000Y-27690000D02*
G01*
X065340000Y-27690000D01*
G01*
X065340000Y-25390000D01*
G01*
X063040000Y-25390000D01*
G01*
X063040000Y-27690000D01*
G37*
D47*
G36*
X001570000Y-27430000D02*
G01*
X001765090Y-27410785D01*
G01*
X001952683Y-27353880D01*
G01*
X002125570Y-27261470D01*
G01*
X002277107Y-27137107D01*
G01*
X002401470Y-26985570D01*
G01*
X002493880Y-26812683D01*
G01*
X002550785Y-26625090D01*
G01*
X002570000Y-26430000D01*
G01*
X002550785Y-26234910D01*
G01*
X002493880Y-26047317D01*
G01*
X002401470Y-25874430D01*
G01*
X002277107Y-25722893D01*
G01*
X002125570Y-25598530D01*
G01*
X001952683Y-25506120D01*
G01*
X001765090Y-25449215D01*
G01*
X001570000Y-25430000D01*
G01*
X001374910Y-25449215D01*
G01*
X001187317Y-25506120D01*
G01*
X001014430Y-25598530D01*
G01*
X000862893Y-25722893D01*
G01*
X000738530Y-25874430D01*
G01*
X000646120Y-26047317D01*
G01*
X000589215Y-26234910D01*
G01*
X000570000Y-26430000D01*
G01*
X000589215Y-26625090D01*
G01*
X000646120Y-26812683D01*
G01*
X000738530Y-26985570D01*
G01*
X000862893Y-27137107D01*
G01*
X001014430Y-27261470D01*
G01*
X001187317Y-27353880D01*
G01*
X001374910Y-27410785D01*
G01*
X001570000Y-27430000D01*
G37*
D47*
G36*
X024430000Y-27430000D02*
G01*
X024625090Y-27410785D01*
G01*
X024812683Y-27353880D01*
G01*
X024985570Y-27261470D01*
G01*
X025137107Y-27137107D01*
G01*
X025261470Y-26985570D01*
G01*
X025353880Y-26812683D01*
G01*
X025410785Y-26625090D01*
G01*
X025430000Y-26430000D01*
G01*
X025410785Y-26234910D01*
G01*
X025353880Y-26047317D01*
G01*
X025261470Y-25874430D01*
G01*
X025137107Y-25722893D01*
G01*
X024985570Y-25598530D01*
G01*
X024812683Y-25506120D01*
G01*
X024625090Y-25449215D01*
G01*
X024430000Y-25430000D01*
G01*
X024234910Y-25449215D01*
G01*
X024047317Y-25506120D01*
G01*
X023874430Y-25598530D01*
G01*
X023722893Y-25722893D01*
G01*
X023598530Y-25874430D01*
G01*
X023506120Y-26047317D01*
G01*
X023449215Y-26234910D01*
G01*
X023430000Y-26430000D01*
G01*
X023449215Y-26625090D01*
G01*
X023506120Y-26812683D01*
G01*
X023598530Y-26985570D01*
G01*
X023722893Y-27137107D01*
G01*
X023874430Y-27261470D01*
G01*
X024047317Y-27353880D01*
G01*
X024234910Y-27410785D01*
G01*
X024430000Y-27430000D01*
G37*
D47*
G36*
X-31260000Y-29290000D02*
G01*
X-29060000Y-29290000D01*
G01*
X-29060000Y-27090000D01*
G01*
X-31260000Y-27090000D01*
G01*
X-31260000Y-29290000D01*
G37*
D47*
G36*
X060174000Y-30990000D02*
G01*
X060252036Y-30982314D01*
G01*
X060327073Y-30959552D01*
G01*
X060396228Y-30922588D01*
G01*
X060456843Y-30872843D01*
G01*
X060506588Y-30812228D01*
G01*
X060543552Y-30743073D01*
G01*
X060566314Y-30668036D01*
G01*
X060574000Y-30590000D01*
G01*
X060566314Y-30511964D01*
G01*
X060543552Y-30436927D01*
G01*
X060506588Y-30367772D01*
G01*
X060499000Y-30358526D01*
G01*
X060499000Y-28599680D01*
G01*
X060492755Y-28536276D01*
G01*
X060474261Y-28475308D01*
G01*
X060444228Y-28419120D01*
G01*
X060403810Y-28369871D01*
G01*
X060379570Y-28345631D01*
G01*
X060372314Y-28271964D01*
G01*
X060349552Y-28196927D01*
G01*
X060312588Y-28127772D01*
G01*
X060262843Y-28067157D01*
G01*
X060202228Y-28017412D01*
G01*
X060133073Y-27980448D01*
G01*
X060058036Y-27957686D01*
G01*
X059980000Y-27950000D01*
G01*
X059901964Y-27957686D01*
G01*
X059826927Y-27980448D01*
G01*
X059757772Y-28017412D01*
G01*
X059697157Y-28067157D01*
G01*
X059647412Y-28127772D01*
G01*
X059610448Y-28196927D01*
G01*
X059587686Y-28271964D01*
G01*
X059580000Y-28350000D01*
G01*
X059587686Y-28428036D01*
G01*
X059610448Y-28503073D01*
G01*
X059647412Y-28572228D01*
G01*
X059697157Y-28632843D01*
G01*
X059757772Y-28682588D01*
G01*
X059826927Y-28719552D01*
G01*
X059837442Y-28722742D01*
G01*
X059849000Y-28734300D01*
G01*
X059849000Y-30358526D01*
G01*
X059841412Y-30367772D01*
G01*
X059804448Y-30436927D01*
G01*
X059781686Y-30511964D01*
G01*
X059774000Y-30590000D01*
G01*
X059781686Y-30668036D01*
G01*
X059804448Y-30743073D01*
G01*
X059841412Y-30812228D01*
G01*
X059891157Y-30872843D01*
G01*
X059951772Y-30922588D01*
G01*
X060020927Y-30959552D01*
G01*
X060095964Y-30982314D01*
G01*
X060174000Y-30990000D01*
G37*
D47*
G36*
X036342000Y-29130000D02*
G01*
X036420036Y-29122314D01*
G01*
X036495073Y-29099552D01*
G01*
X036564228Y-29062588D01*
G01*
X036624843Y-29012843D01*
G01*
X036657709Y-28972796D01*
G01*
X036690415Y-28945954D01*
G01*
X036717369Y-28919000D01*
G01*
X037677526Y-28919000D01*
G01*
X037686772Y-28926588D01*
G01*
X037755927Y-28963552D01*
G01*
X037830964Y-28986314D01*
G01*
X037909000Y-28994000D01*
G01*
X037987036Y-28986314D01*
G01*
X038062073Y-28963552D01*
G01*
X038131228Y-28926588D01*
G01*
X038191843Y-28876843D01*
G01*
X038241588Y-28816228D01*
G01*
X038278552Y-28747073D01*
G01*
X038301314Y-28672036D01*
G01*
X038309000Y-28594000D01*
G01*
X038301314Y-28515964D01*
G01*
X038278552Y-28440927D01*
G01*
X038241588Y-28371772D01*
G01*
X038191843Y-28311157D01*
G01*
X038131228Y-28261412D01*
G01*
X038062073Y-28224448D01*
G01*
X037987036Y-28201686D01*
G01*
X037909000Y-28194000D01*
G01*
X037830964Y-28201686D01*
G01*
X037755927Y-28224448D01*
G01*
X037686772Y-28261412D01*
G01*
X037677526Y-28269000D01*
G01*
X036582750Y-28269000D01*
G01*
X036519346Y-28275245D01*
G01*
X036458378Y-28293739D01*
G01*
X036402190Y-28323772D01*
G01*
X036388965Y-28334626D01*
G01*
X036342000Y-28330000D01*
G01*
X036263964Y-28337686D01*
G01*
X036188927Y-28360448D01*
G01*
X036119772Y-28397412D01*
G01*
X036059157Y-28447157D01*
G01*
X036009412Y-28507772D01*
G01*
X035972448Y-28576927D01*
G01*
X035949686Y-28651964D01*
G01*
X035942000Y-28730000D01*
G01*
X035949686Y-28808036D01*
G01*
X035972448Y-28883073D01*
G01*
X036009412Y-28952228D01*
G01*
X036059157Y-29012843D01*
G01*
X036119772Y-29062588D01*
G01*
X036188927Y-29099552D01*
G01*
X036263964Y-29122314D01*
G01*
X036342000Y-29130000D01*
G37*
D47*
G36*
X041670000Y-31250000D02*
G01*
X044170000Y-31250000D01*
G01*
X044170000Y-28750000D01*
G01*
X041670000Y-28750000D01*
G01*
X041670000Y-31250000D01*
G37*
D47*
G36*
X051830000Y-31250000D02*
G01*
X054330000Y-31250000D01*
G01*
X054330000Y-28750000D01*
G01*
X051830000Y-28750000D01*
G01*
X051830000Y-31250000D01*
G37*
D47*
G36*
X071830000Y-31250000D02*
G01*
X074330000Y-31250000D01*
G01*
X074330000Y-28750000D01*
G01*
X071830000Y-28750000D01*
G01*
X071830000Y-31250000D01*
G37*
D47*
G36*
X-22585000Y-34579000D02*
G01*
X-22506964Y-34571314D01*
G01*
X-22431927Y-34548552D01*
G01*
X-22362772Y-34511588D01*
G01*
X-22302157Y-34461843D01*
G01*
X-22252412Y-34401228D01*
G01*
X-22215448Y-34332073D01*
G01*
X-22192686Y-34257036D01*
G01*
X-22185000Y-34179000D01*
G01*
X-22192686Y-34100964D01*
G01*
X-22215448Y-34025927D01*
G01*
X-22252412Y-33956772D01*
G01*
X-22302157Y-33896157D01*
G01*
X-22362772Y-33846412D01*
G01*
X-22431927Y-33809448D01*
G01*
X-22467322Y-33798711D01*
G01*
X-25765843Y-30500190D01*
G01*
X-25815092Y-30459772D01*
G01*
X-25871281Y-30429739D01*
G01*
X-25932248Y-30411245D01*
G01*
X-25995653Y-30405000D01*
G01*
X-29060000Y-30405000D01*
G01*
X-29060000Y-29630000D01*
G01*
X-31260000Y-29630000D01*
G01*
X-31260000Y-31830000D01*
G01*
X-29060000Y-31830000D01*
G01*
X-29060000Y-31055000D01*
G01*
X-26130272Y-31055000D01*
G01*
X-22982676Y-34202597D01*
G01*
X-22977314Y-34257036D01*
G01*
X-22954552Y-34332073D01*
G01*
X-22917588Y-34401228D01*
G01*
X-22867843Y-34461843D01*
G01*
X-22807228Y-34511588D01*
G01*
X-22738073Y-34548552D01*
G01*
X-22663036Y-34571314D01*
G01*
X-22585000Y-34579000D01*
G37*
D47*
G36*
X-10940000Y-31830000D02*
G01*
X-08740000Y-31830000D01*
G01*
X-08740000Y-29630000D01*
G01*
X-10940000Y-29630000D01*
G01*
X-10940000Y-31830000D01*
G37*
D47*
G36*
X-31260000Y-39450000D02*
G01*
X-29060000Y-39450000D01*
G01*
X-29060000Y-37709620D01*
G01*
X-25931844Y-34581463D01*
G01*
X-25891426Y-34532214D01*
G01*
X-25861393Y-34476026D01*
G01*
X-25842898Y-34415058D01*
G01*
X-25836653Y-34351653D01*
G01*
X-25836653Y-32489799D01*
G01*
X-25821412Y-32471228D01*
G01*
X-25784448Y-32402073D01*
G01*
X-25761686Y-32327036D01*
G01*
X-25754000Y-32249000D01*
G01*
X-25761686Y-32170964D01*
G01*
X-25784448Y-32095927D01*
G01*
X-25821412Y-32026772D01*
G01*
X-25871157Y-31966157D01*
G01*
X-25931772Y-31916412D01*
G01*
X-26000927Y-31879448D01*
G01*
X-26075964Y-31856686D01*
G01*
X-26154000Y-31849000D01*
G01*
X-26232036Y-31856686D01*
G01*
X-26307073Y-31879448D01*
G01*
X-26376228Y-31916412D01*
G01*
X-26436843Y-31966157D01*
G01*
X-26486588Y-32026772D01*
G01*
X-26523552Y-32095927D01*
G01*
X-26546314Y-32170964D01*
G01*
X-26554000Y-32249000D01*
G01*
X-26546314Y-32327036D01*
G01*
X-26523552Y-32402073D01*
G01*
X-26486653Y-32471106D01*
G01*
X-26486653Y-34217034D01*
G01*
X-29060000Y-36790380D01*
G01*
X-29060000Y-34710000D01*
G01*
X-31260000Y-34710000D01*
G01*
X-31260000Y-36910000D01*
G01*
X-29179620Y-36910000D01*
G01*
X-29519620Y-37250000D01*
G01*
X-31260000Y-37250000D01*
G01*
X-31260000Y-39450000D01*
G37*
D47*
G36*
X-31260000Y-34370000D02*
G01*
X-29060000Y-34370000D01*
G01*
X-29060000Y-32170000D01*
G01*
X-31260000Y-32170000D01*
G01*
X-31260000Y-34370000D01*
G37*
D47*
G36*
X-10940000Y-34370000D02*
G01*
X-08740000Y-34370000D01*
G01*
X-08740000Y-32170000D01*
G01*
X-10940000Y-32170000D01*
G01*
X-10940000Y-34370000D01*
G37*
D47*
G36*
X-10940000Y-39450000D02*
G01*
X-08740000Y-39450000D01*
G01*
X-08740000Y-37263582D01*
G01*
X000835380Y-37263582D01*
G01*
X000862893Y-37297107D01*
G01*
X001014430Y-37421470D01*
G01*
X001187317Y-37513880D01*
G01*
X001374910Y-37570785D01*
G01*
X001570000Y-37590000D01*
G01*
X001765090Y-37570785D01*
G01*
X001952683Y-37513880D01*
G01*
X002125570Y-37421470D01*
G01*
X002277107Y-37297107D01*
G01*
X002401470Y-37145570D01*
G01*
X002493880Y-36972683D01*
G01*
X002550785Y-36785090D01*
G01*
X002570000Y-36590000D01*
G01*
X002550785Y-36394910D01*
G01*
X002493880Y-36207317D01*
G01*
X002401470Y-36034430D01*
G01*
X002277107Y-35882893D01*
G01*
X002125570Y-35758530D01*
G01*
X001952683Y-35666120D01*
G01*
X001765090Y-35609215D01*
G01*
X001570000Y-35590000D01*
G01*
X001374910Y-35609215D01*
G01*
X001187317Y-35666120D01*
G01*
X001014430Y-35758530D01*
G01*
X000862893Y-35882893D01*
G01*
X000738530Y-36034430D01*
G01*
X000646120Y-36207317D01*
G01*
X000589215Y-36394910D01*
G01*
X000570000Y-36590000D01*
G01*
X000572323Y-36613582D01*
G01*
X-05055171Y-36613582D01*
G01*
X-05048138Y-36607810D01*
G01*
X-05047547Y-36607219D01*
G01*
X-04999000Y-36612000D01*
G01*
X-04920964Y-36604314D01*
G01*
X-04845927Y-36581552D01*
G01*
X-04776772Y-36544588D01*
G01*
X-04716157Y-36494843D01*
G01*
X-04666412Y-36434228D01*
G01*
X-04629448Y-36365073D01*
G01*
X-04606686Y-36290036D01*
G01*
X-04599000Y-36212000D01*
G01*
X-04606686Y-36133964D01*
G01*
X-04629448Y-36058927D01*
G01*
X-04666412Y-35989772D01*
G01*
X-04716157Y-35929157D01*
G01*
X-04776772Y-35879412D01*
G01*
X-04845927Y-35842448D01*
G01*
X-04920964Y-35819686D01*
G01*
X-04999000Y-35812000D01*
G01*
X-05077036Y-35819686D01*
G01*
X-05152073Y-35842448D01*
G01*
X-05221228Y-35879412D01*
G01*
X-05281843Y-35929157D01*
G01*
X-05312211Y-35966160D01*
G01*
X-05322277Y-35971541D01*
G01*
X-05371526Y-36011959D01*
G01*
X-05412567Y-36053000D01*
G01*
X-06351526Y-36053000D01*
G01*
X-06360772Y-36045412D01*
G01*
X-06429927Y-36008448D01*
G01*
X-06504964Y-35985686D01*
G01*
X-06583000Y-35978000D01*
G01*
X-06661036Y-35985686D01*
G01*
X-06736073Y-36008448D01*
G01*
X-06805228Y-36045412D01*
G01*
X-06865843Y-36095157D01*
G01*
X-06915588Y-36155772D01*
G01*
X-06952552Y-36224927D01*
G01*
X-06975314Y-36299964D01*
G01*
X-06983000Y-36378000D01*
G01*
X-06975314Y-36456036D01*
G01*
X-06952552Y-36531073D01*
G01*
X-06915588Y-36600228D01*
G01*
X-06904629Y-36613582D01*
G01*
X-08740000Y-36613582D01*
G01*
X-08740000Y-34710000D01*
G01*
X-10940000Y-34710000D01*
G01*
X-10940000Y-36613582D01*
G01*
X-17384799Y-36613582D01*
G01*
X-21253514Y-32744866D01*
G01*
X-21254686Y-32732964D01*
G01*
X-21277448Y-32657927D01*
G01*
X-21314412Y-32588772D01*
G01*
X-21364157Y-32528157D01*
G01*
X-21424772Y-32478412D01*
G01*
X-21493927Y-32441448D01*
G01*
X-21568964Y-32418686D01*
G01*
X-21647000Y-32411000D01*
G01*
X-21725036Y-32418686D01*
G01*
X-21800073Y-32441448D01*
G01*
X-21869228Y-32478412D01*
G01*
X-21929843Y-32528157D01*
G01*
X-21979588Y-32588772D01*
G01*
X-22016552Y-32657927D01*
G01*
X-22039314Y-32732964D01*
G01*
X-22047000Y-32811000D01*
G01*
X-22039314Y-32889036D01*
G01*
X-22016552Y-32964073D01*
G01*
X-21979588Y-33033228D01*
G01*
X-21929843Y-33093843D01*
G01*
X-21869228Y-33143588D01*
G01*
X-21800073Y-33180552D01*
G01*
X-21725036Y-33203314D01*
G01*
X-21713134Y-33204486D01*
G01*
X-17749228Y-37168391D01*
G01*
X-17699979Y-37208809D01*
G01*
X-17643791Y-37238842D01*
G01*
X-17582823Y-37257337D01*
G01*
X-17519418Y-37263582D01*
G01*
X-10940000Y-37263582D01*
G01*
X-10940000Y-39450000D01*
G37*
D47*
G36*
X001570000Y-35050000D02*
G01*
X001765090Y-35030785D01*
G01*
X001952683Y-34973880D01*
G01*
X002125570Y-34881470D01*
G01*
X002277107Y-34757107D01*
G01*
X002401470Y-34605570D01*
G01*
X002493880Y-34432683D01*
G01*
X002550785Y-34245090D01*
G01*
X002570000Y-34050000D01*
G01*
X002550785Y-33854910D01*
G01*
X002493880Y-33667317D01*
G01*
X002401470Y-33494430D01*
G01*
X002277107Y-33342893D01*
G01*
X002125570Y-33218530D01*
G01*
X001952683Y-33126120D01*
G01*
X001765090Y-33069215D01*
G01*
X001570000Y-33050000D01*
G01*
X001374910Y-33069215D01*
G01*
X001187317Y-33126120D01*
G01*
X001014430Y-33218530D01*
G01*
X000862893Y-33342893D01*
G01*
X000738530Y-33494430D01*
G01*
X000646120Y-33667317D01*
G01*
X000589215Y-33854910D01*
G01*
X000570000Y-34050000D01*
G01*
X000589215Y-34245090D01*
G01*
X000646120Y-34432683D01*
G01*
X000738530Y-34605570D01*
G01*
X000862893Y-34757107D01*
G01*
X001014430Y-34881470D01*
G01*
X001187317Y-34973880D01*
G01*
X001374910Y-35030785D01*
G01*
X001570000Y-35050000D01*
G37*
D47*
G36*
X024430000Y-35050000D02*
G01*
X024625090Y-35030785D01*
G01*
X024812683Y-34973880D01*
G01*
X024985570Y-34881470D01*
G01*
X025137107Y-34757107D01*
G01*
X025261470Y-34605570D01*
G01*
X025353880Y-34432683D01*
G01*
X025410785Y-34245090D01*
G01*
X025430000Y-34050000D01*
G01*
X025410785Y-33854910D01*
G01*
X025353880Y-33667317D01*
G01*
X025261470Y-33494430D01*
G01*
X025137107Y-33342893D01*
G01*
X024985570Y-33218530D01*
G01*
X024812683Y-33126120D01*
G01*
X024625090Y-33069215D01*
G01*
X024430000Y-33050000D01*
G01*
X024234910Y-33069215D01*
G01*
X024047317Y-33126120D01*
G01*
X023874430Y-33218530D01*
G01*
X023722893Y-33342893D01*
G01*
X023598530Y-33494430D01*
G01*
X023506120Y-33667317D01*
G01*
X023449215Y-33854910D01*
G01*
X023430000Y-34050000D01*
G01*
X023449215Y-34245090D01*
G01*
X023506120Y-34432683D01*
G01*
X023598530Y-34605570D01*
G01*
X023722893Y-34757107D01*
G01*
X023874430Y-34881470D01*
G01*
X024047317Y-34973880D01*
G01*
X024234910Y-35030785D01*
G01*
X024430000Y-35050000D01*
G37*
D47*
G36*
X041905000Y-48585000D02*
G01*
X042090336Y-48566746D01*
G01*
X042268549Y-48512686D01*
G01*
X042432792Y-48424896D01*
G01*
X042576751Y-48306751D01*
G01*
X042694896Y-48162792D01*
G01*
X042782686Y-47998549D01*
G01*
X042836746Y-47820336D01*
G01*
X042855000Y-47635000D01*
G01*
X042836746Y-47449664D01*
G01*
X042782686Y-47271451D01*
G01*
X042694896Y-47107208D01*
G01*
X042576751Y-46963249D01*
G01*
X042432792Y-46845104D01*
G01*
X042268549Y-46757314D01*
G01*
X042090336Y-46703254D01*
G01*
X041905000Y-46685000D01*
G01*
X041719664Y-46703254D01*
G01*
X041541451Y-46757314D01*
G01*
X041479656Y-46790344D01*
G01*
X041512686Y-46728549D01*
G01*
X041566746Y-46550336D01*
G01*
X041585000Y-46365000D01*
G01*
X041566746Y-46179664D01*
G01*
X041512686Y-46001451D01*
G01*
X041424896Y-45837208D01*
G01*
X041306751Y-45693249D01*
G01*
X041162792Y-45575104D01*
G01*
X040998549Y-45487314D01*
G01*
X040820336Y-45433254D01*
G01*
X040635000Y-45415000D01*
G01*
X040449664Y-45433254D01*
G01*
X040271451Y-45487314D01*
G01*
X040107208Y-45575104D01*
G01*
X039963249Y-45693249D01*
G01*
X039845104Y-45837208D01*
G01*
X039757314Y-46001451D01*
G01*
X039703254Y-46179664D01*
G01*
X039685000Y-46365000D01*
G01*
X039703254Y-46550336D01*
G01*
X039757314Y-46728549D01*
G01*
X039790344Y-46790344D01*
G01*
X039728549Y-46757314D01*
G01*
X039550336Y-46703254D01*
G01*
X039365000Y-46685000D01*
G01*
X039179664Y-46703254D01*
G01*
X039001451Y-46757314D01*
G01*
X038939656Y-46790344D01*
G01*
X038972686Y-46728549D01*
G01*
X039026746Y-46550336D01*
G01*
X039045000Y-46365000D01*
G01*
X039026746Y-46179664D01*
G01*
X038972686Y-46001451D01*
G01*
X038953696Y-45965924D01*
G01*
X040163945Y-44755674D01*
G01*
X043543491Y-44755674D01*
G01*
X043606895Y-44749430D01*
G01*
X043667863Y-44730935D01*
G01*
X043724051Y-44700902D01*
G01*
X043773301Y-44660484D01*
G01*
X053896360Y-34537425D01*
G01*
X056809749Y-34537425D01*
G01*
X056852771Y-34537425D01*
G01*
X056891964Y-34549314D01*
G01*
X056970000Y-34557000D01*
G01*
X057048036Y-34549314D01*
G01*
X057123073Y-34526552D01*
G01*
X057192228Y-34489588D01*
G01*
X057252843Y-34439843D01*
G01*
X057302588Y-34379228D01*
G01*
X057339552Y-34310073D01*
G01*
X057362314Y-34235036D01*
G01*
X057370000Y-34157000D01*
G01*
X057362314Y-34078964D01*
G01*
X057339552Y-34003927D01*
G01*
X057302588Y-33934772D01*
G01*
X057252843Y-33874157D01*
G01*
X057192228Y-33824412D01*
G01*
X057123073Y-33787448D01*
G01*
X057048036Y-33764686D01*
G01*
X056970000Y-33757000D01*
G01*
X056891964Y-33764686D01*
G01*
X056816927Y-33787448D01*
G01*
X056747772Y-33824412D01*
G01*
X056687157Y-33874157D01*
G01*
X056676268Y-33887425D01*
G01*
X053761740Y-33887425D01*
G01*
X053698336Y-33893670D01*
G01*
X053637368Y-33912165D01*
G01*
X053581180Y-33942198D01*
G01*
X053531930Y-33982616D01*
G01*
X043408872Y-44105674D01*
G01*
X042343946Y-44105674D01*
G01*
X042721133Y-43728486D01*
G01*
X042733036Y-43727314D01*
G01*
X042808073Y-43704552D01*
G01*
X042877228Y-43667588D01*
G01*
X042937843Y-43617843D01*
G01*
X042987588Y-43557228D01*
G01*
X043024552Y-43488073D01*
G01*
X043047314Y-43413036D01*
G01*
X043055000Y-43335000D01*
G01*
X043047314Y-43256964D01*
G01*
X043024552Y-43181927D01*
G01*
X042987588Y-43112772D01*
G01*
X042937843Y-43052157D01*
G01*
X042877228Y-43002412D01*
G01*
X042808073Y-42965448D01*
G01*
X042733036Y-42942686D01*
G01*
X042655000Y-42935000D01*
G01*
X042576964Y-42942686D01*
G01*
X042501927Y-42965448D01*
G01*
X042432772Y-43002412D01*
G01*
X042372157Y-43052157D01*
G01*
X042322412Y-43112772D01*
G01*
X042285448Y-43181927D01*
G01*
X042262686Y-43256964D01*
G01*
X042261514Y-43268867D01*
G01*
X041786380Y-43744000D01*
G01*
X041074474Y-43744000D01*
G01*
X041065228Y-43736412D01*
G01*
X040996073Y-43699448D01*
G01*
X040921036Y-43676686D01*
G01*
X040843000Y-43669000D01*
G01*
X040764964Y-43676686D01*
G01*
X040689927Y-43699448D01*
G01*
X040620772Y-43736412D01*
G01*
X040560157Y-43786157D01*
G01*
X040510412Y-43846772D01*
G01*
X040473448Y-43915927D01*
G01*
X040450686Y-43990964D01*
G01*
X040443000Y-44069000D01*
G01*
X040446612Y-44105674D01*
G01*
X040029326Y-44105674D01*
G01*
X039965921Y-44111919D01*
G01*
X039904954Y-44130414D01*
G01*
X039848765Y-44160447D01*
G01*
X039799516Y-44200865D01*
G01*
X038494076Y-45506304D01*
G01*
X038458549Y-45487314D01*
G01*
X038280336Y-45433254D01*
G01*
X038095000Y-45415000D01*
G01*
X037909664Y-45433254D01*
G01*
X037731451Y-45487314D01*
G01*
X037567208Y-45575104D01*
G01*
X037423249Y-45693249D01*
G01*
X037305104Y-45837208D01*
G01*
X037217314Y-46001451D01*
G01*
X037163254Y-46179664D01*
G01*
X037145000Y-46365000D01*
G01*
X037163254Y-46550336D01*
G01*
X037217314Y-46728549D01*
G01*
X037305104Y-46892792D01*
G01*
X037423249Y-47036751D01*
G01*
X037567208Y-47154896D01*
G01*
X037731451Y-47242686D01*
G01*
X037909664Y-47296746D01*
G01*
X038095000Y-47315000D01*
G01*
X038280336Y-47296746D01*
G01*
X038458549Y-47242686D01*
G01*
X038520344Y-47209656D01*
G01*
X038487314Y-47271451D01*
G01*
X038433254Y-47449664D01*
G01*
X038415000Y-47635000D01*
G01*
X038433254Y-47820336D01*
G01*
X038487314Y-47998549D01*
G01*
X038575104Y-48162792D01*
G01*
X038693249Y-48306751D01*
G01*
X038837208Y-48424896D01*
G01*
X039001451Y-48512686D01*
G01*
X039179664Y-48566746D01*
G01*
X039365000Y-48585000D01*
G01*
X039550336Y-48566746D01*
G01*
X039728549Y-48512686D01*
G01*
X039892792Y-48424896D01*
G01*
X040036751Y-48306751D01*
G01*
X040154896Y-48162792D01*
G01*
X040242686Y-47998549D01*
G01*
X040296746Y-47820336D01*
G01*
X040315000Y-47635000D01*
G01*
X040296746Y-47449664D01*
G01*
X040242686Y-47271451D01*
G01*
X040209656Y-47209656D01*
G01*
X040271451Y-47242686D01*
G01*
X040449664Y-47296746D01*
G01*
X040635000Y-47315000D01*
G01*
X040820336Y-47296746D01*
G01*
X040998549Y-47242686D01*
G01*
X041060344Y-47209656D01*
G01*
X041027314Y-47271451D01*
G01*
X040973254Y-47449664D01*
G01*
X040955000Y-47635000D01*
G01*
X040973254Y-47820336D01*
G01*
X041027314Y-47998549D01*
G01*
X041115104Y-48162792D01*
G01*
X041233249Y-48306751D01*
G01*
X041377208Y-48424896D01*
G01*
X041541451Y-48512686D01*
G01*
X041719664Y-48566746D01*
G01*
X041905000Y-48585000D01*
G37*
D47*
G36*
X024430000Y-37590000D02*
G01*
X024625090Y-37570785D01*
G01*
X024812683Y-37513880D01*
G01*
X024985570Y-37421470D01*
G01*
X025137107Y-37297107D01*
G01*
X025261470Y-37145570D01*
G01*
X025353880Y-36972683D01*
G01*
X025410785Y-36785090D01*
G01*
X025430000Y-36590000D01*
G01*
X025410785Y-36394910D01*
G01*
X025353880Y-36207317D01*
G01*
X025261470Y-36034430D01*
G01*
X025137107Y-35882893D01*
G01*
X024985570Y-35758530D01*
G01*
X024812683Y-35666120D01*
G01*
X024625090Y-35609215D01*
G01*
X024430000Y-35590000D01*
G01*
X024234910Y-35609215D01*
G01*
X024047317Y-35666120D01*
G01*
X023874430Y-35758530D01*
G01*
X023722893Y-35882893D01*
G01*
X023598530Y-36034430D01*
G01*
X023506120Y-36207317D01*
G01*
X023449215Y-36394910D01*
G01*
X023430000Y-36590000D01*
G01*
X023449215Y-36785090D01*
G01*
X023506120Y-36972683D01*
G01*
X023598530Y-37145570D01*
G01*
X023722893Y-37297107D01*
G01*
X023874430Y-37421470D01*
G01*
X024047317Y-37513880D01*
G01*
X024234910Y-37570785D01*
G01*
X024430000Y-37590000D01*
G37*
D47*
G36*
X061905000Y-48585000D02*
G01*
X062090336Y-48566746D01*
G01*
X062268549Y-48512686D01*
G01*
X062432792Y-48424896D01*
G01*
X062576751Y-48306751D01*
G01*
X062694896Y-48162792D01*
G01*
X062782686Y-47998549D01*
G01*
X062836746Y-47820336D01*
G01*
X062855000Y-47635000D01*
G01*
X062836746Y-47449664D01*
G01*
X062782686Y-47271451D01*
G01*
X062694896Y-47107208D01*
G01*
X062576751Y-46963249D01*
G01*
X062432792Y-46845104D01*
G01*
X062268549Y-46757314D01*
G01*
X062090336Y-46703254D01*
G01*
X061905000Y-46685000D01*
G01*
X061719664Y-46703254D01*
G01*
X061541451Y-46757314D01*
G01*
X061479656Y-46790344D01*
G01*
X061512686Y-46728549D01*
G01*
X061566746Y-46550336D01*
G01*
X061585000Y-46365000D01*
G01*
X061566746Y-46179664D01*
G01*
X061512686Y-46001451D01*
G01*
X061424896Y-45837208D01*
G01*
X061306751Y-45693249D01*
G01*
X061162792Y-45575104D01*
G01*
X060998549Y-45487314D01*
G01*
X060820336Y-45433254D01*
G01*
X060635000Y-45415000D01*
G01*
X060449664Y-45433254D01*
G01*
X060271451Y-45487314D01*
G01*
X060107208Y-45575104D01*
G01*
X059963249Y-45693249D01*
G01*
X059845104Y-45837208D01*
G01*
X059757314Y-46001451D01*
G01*
X059703254Y-46179664D01*
G01*
X059685000Y-46365000D01*
G01*
X059703254Y-46550336D01*
G01*
X059757314Y-46728549D01*
G01*
X059790344Y-46790344D01*
G01*
X059728549Y-46757314D01*
G01*
X059550336Y-46703254D01*
G01*
X059365000Y-46685000D01*
G01*
X059179664Y-46703254D01*
G01*
X059001451Y-46757314D01*
G01*
X058939656Y-46790344D01*
G01*
X058972686Y-46728549D01*
G01*
X059026746Y-46550336D01*
G01*
X059045000Y-46365000D01*
G01*
X059026746Y-46179664D01*
G01*
X058972686Y-46001451D01*
G01*
X058953696Y-45965924D01*
G01*
X060049431Y-44870188D01*
G01*
X063590904Y-44870188D01*
G01*
X063654309Y-44863943D01*
G01*
X063715277Y-44845449D01*
G01*
X063771465Y-44815416D01*
G01*
X063820714Y-44774998D01*
G01*
X069665211Y-38930501D01*
G01*
X069705629Y-38881251D01*
G01*
X069735662Y-38825063D01*
G01*
X069754157Y-38764095D01*
G01*
X069760402Y-38700691D01*
G01*
X069760402Y-36491077D01*
G01*
X069772588Y-36476228D01*
G01*
X069809552Y-36407073D01*
G01*
X069832314Y-36332036D01*
G01*
X069840000Y-36254000D01*
G01*
X069832314Y-36175964D01*
G01*
X069809552Y-36100927D01*
G01*
X069772588Y-36031772D01*
G01*
X069722843Y-35971157D01*
G01*
X069662228Y-35921412D01*
G01*
X069593073Y-35884448D01*
G01*
X069518036Y-35861686D01*
G01*
X069440000Y-35854000D01*
G01*
X069361964Y-35861686D01*
G01*
X069286927Y-35884448D01*
G01*
X069217772Y-35921412D01*
G01*
X069157157Y-35971157D01*
G01*
X069107412Y-36031772D01*
G01*
X069070448Y-36100927D01*
G01*
X069047686Y-36175964D01*
G01*
X069040000Y-36254000D01*
G01*
X069047686Y-36332036D01*
G01*
X069070448Y-36407073D01*
G01*
X069107412Y-36476228D01*
G01*
X069110402Y-36479871D01*
G01*
X069110402Y-38566071D01*
G01*
X063456286Y-44220188D01*
G01*
X061899504Y-44220188D01*
G01*
X061901000Y-44205000D01*
G01*
X061896483Y-44159137D01*
G01*
X063084133Y-42971486D01*
G01*
X063096036Y-42970314D01*
G01*
X063171073Y-42947552D01*
G01*
X063240228Y-42910588D01*
G01*
X063300843Y-42860843D01*
G01*
X063350588Y-42800228D01*
G01*
X063387552Y-42731073D01*
G01*
X063410314Y-42656036D01*
G01*
X063418000Y-42578000D01*
G01*
X063410314Y-42499964D01*
G01*
X063387552Y-42424927D01*
G01*
X063350588Y-42355772D01*
G01*
X063300843Y-42295157D01*
G01*
X063240228Y-42245412D01*
G01*
X063171073Y-42208448D01*
G01*
X063096036Y-42185686D01*
G01*
X063018000Y-42178000D01*
G01*
X062939964Y-42185686D01*
G01*
X062864927Y-42208448D01*
G01*
X062795772Y-42245412D01*
G01*
X062735157Y-42295157D01*
G01*
X062685412Y-42355772D01*
G01*
X062648448Y-42424927D01*
G01*
X062625686Y-42499964D01*
G01*
X062624514Y-42511867D01*
G01*
X061271190Y-43865190D01*
G01*
X061237397Y-43906367D01*
G01*
X061218157Y-43922157D01*
G01*
X061168412Y-43982772D01*
G01*
X061131448Y-44051927D01*
G01*
X061108686Y-44126964D01*
G01*
X061101000Y-44205000D01*
G01*
X061102496Y-44220188D01*
G01*
X059914812Y-44220188D01*
G01*
X059851407Y-44226433D01*
G01*
X059790440Y-44244927D01*
G01*
X059734251Y-44274961D01*
G01*
X059685002Y-44315379D01*
G01*
X058494076Y-45506304D01*
G01*
X058458549Y-45487314D01*
G01*
X058280336Y-45433254D01*
G01*
X058095000Y-45415000D01*
G01*
X057909664Y-45433254D01*
G01*
X057731451Y-45487314D01*
G01*
X057567208Y-45575104D01*
G01*
X057423249Y-45693249D01*
G01*
X057305104Y-45837208D01*
G01*
X057217314Y-46001451D01*
G01*
X057163254Y-46179664D01*
G01*
X057145000Y-46365000D01*
G01*
X057163254Y-46550336D01*
G01*
X057217314Y-46728549D01*
G01*
X057305104Y-46892792D01*
G01*
X057423249Y-47036751D01*
G01*
X057567208Y-47154896D01*
G01*
X057731451Y-47242686D01*
G01*
X057909664Y-47296746D01*
G01*
X058095000Y-47315000D01*
G01*
X058280336Y-47296746D01*
G01*
X058458549Y-47242686D01*
G01*
X058520344Y-47209656D01*
G01*
X058487314Y-47271451D01*
G01*
X058433254Y-47449664D01*
G01*
X058415000Y-47635000D01*
G01*
X058433254Y-47820336D01*
G01*
X058487314Y-47998549D01*
G01*
X058575104Y-48162792D01*
G01*
X058693249Y-48306751D01*
G01*
X058837208Y-48424896D01*
G01*
X059001451Y-48512686D01*
G01*
X059179664Y-48566746D01*
G01*
X059365000Y-48585000D01*
G01*
X059550336Y-48566746D01*
G01*
X059728549Y-48512686D01*
G01*
X059892792Y-48424896D01*
G01*
X060036751Y-48306751D01*
G01*
X060154896Y-48162792D01*
G01*
X060242686Y-47998549D01*
G01*
X060296746Y-47820336D01*
G01*
X060315000Y-47635000D01*
G01*
X060296746Y-47449664D01*
G01*
X060242686Y-47271451D01*
G01*
X060209656Y-47209656D01*
G01*
X060271451Y-47242686D01*
G01*
X060449664Y-47296746D01*
G01*
X060635000Y-47315000D01*
G01*
X060820336Y-47296746D01*
G01*
X060998549Y-47242686D01*
G01*
X061060344Y-47209656D01*
G01*
X061027314Y-47271451D01*
G01*
X060973254Y-47449664D01*
G01*
X060955000Y-47635000D01*
G01*
X060973254Y-47820336D01*
G01*
X061027314Y-47998549D01*
G01*
X061115104Y-48162792D01*
G01*
X061233249Y-48306751D01*
G01*
X061377208Y-48424896D01*
G01*
X061541451Y-48512686D01*
G01*
X061719664Y-48566746D01*
G01*
X061905000Y-48585000D01*
G37*
D47*
G36*
X034920000Y-41255000D02*
G01*
X035285794Y-41218972D01*
G01*
X035637531Y-41112274D01*
G01*
X035961694Y-40939006D01*
G01*
X036245825Y-40705825D01*
G01*
X036479006Y-40421694D01*
G01*
X036652274Y-40097531D01*
G01*
X036758972Y-39745794D01*
G01*
X036795000Y-39380000D01*
G01*
X036758972Y-39014206D01*
G01*
X036652274Y-38662469D01*
G01*
X036479006Y-38338306D01*
G01*
X036245825Y-38054175D01*
G01*
X035961694Y-37820994D01*
G01*
X035637531Y-37647726D01*
G01*
X035285794Y-37541028D01*
G01*
X034920000Y-37505000D01*
G01*
X034554206Y-37541028D01*
G01*
X034202469Y-37647726D01*
G01*
X033878306Y-37820994D01*
G01*
X033594175Y-38054175D01*
G01*
X033360994Y-38338306D01*
G01*
X033187726Y-38662469D01*
G01*
X033081028Y-39014206D01*
G01*
X033045000Y-39380000D01*
G01*
X033081028Y-39745794D01*
G01*
X033187726Y-40097531D01*
G01*
X033360994Y-40421694D01*
G01*
X033594175Y-40705825D01*
G01*
X033878306Y-40939006D01*
G01*
X034202469Y-41112274D01*
G01*
X034554206Y-41218972D01*
G01*
X034920000Y-41255000D01*
G37*
D47*
G36*
X045080000Y-41255000D02*
G01*
X045445794Y-41218972D01*
G01*
X045797531Y-41112274D01*
G01*
X046121694Y-40939006D01*
G01*
X046405825Y-40705825D01*
G01*
X046639006Y-40421694D01*
G01*
X046812274Y-40097531D01*
G01*
X046918972Y-39745794D01*
G01*
X046955000Y-39380000D01*
G01*
X046918972Y-39014206D01*
G01*
X046812274Y-38662469D01*
G01*
X046639006Y-38338306D01*
G01*
X046405825Y-38054175D01*
G01*
X046121694Y-37820994D01*
G01*
X045797531Y-37647726D01*
G01*
X045445794Y-37541028D01*
G01*
X045080000Y-37505000D01*
G01*
X044714206Y-37541028D01*
G01*
X044362469Y-37647726D01*
G01*
X044038306Y-37820994D01*
G01*
X043754175Y-38054175D01*
G01*
X043520994Y-38338306D01*
G01*
X043347726Y-38662469D01*
G01*
X043241028Y-39014206D01*
G01*
X043205000Y-39380000D01*
G01*
X043241028Y-39745794D01*
G01*
X043347726Y-40097531D01*
G01*
X043520994Y-40421694D01*
G01*
X043754175Y-40705825D01*
G01*
X044038306Y-40939006D01*
G01*
X044362469Y-41112274D01*
G01*
X044714206Y-41218972D01*
G01*
X045080000Y-41255000D01*
G37*
D47*
G36*
X054920000Y-41255000D02*
G01*
X055285794Y-41218972D01*
G01*
X055637531Y-41112274D01*
G01*
X055961694Y-40939006D01*
G01*
X056245825Y-40705825D01*
G01*
X056479006Y-40421694D01*
G01*
X056652274Y-40097531D01*
G01*
X056758972Y-39745794D01*
G01*
X056795000Y-39380000D01*
G01*
X056758972Y-39014206D01*
G01*
X056652274Y-38662469D01*
G01*
X056479006Y-38338306D01*
G01*
X056245825Y-38054175D01*
G01*
X055961694Y-37820994D01*
G01*
X055637531Y-37647726D01*
G01*
X055285794Y-37541028D01*
G01*
X054920000Y-37505000D01*
G01*
X054554206Y-37541028D01*
G01*
X054202469Y-37647726D01*
G01*
X053878306Y-37820994D01*
G01*
X053594175Y-38054175D01*
G01*
X053360994Y-38338306D01*
G01*
X053187726Y-38662469D01*
G01*
X053081028Y-39014206D01*
G01*
X053045000Y-39380000D01*
G01*
X053081028Y-39745794D01*
G01*
X053187726Y-40097531D01*
G01*
X053360994Y-40421694D01*
G01*
X053594175Y-40705825D01*
G01*
X053878306Y-40939006D01*
G01*
X054202469Y-41112274D01*
G01*
X054554206Y-41218972D01*
G01*
X054920000Y-41255000D01*
G37*
D47*
G36*
X065080000Y-41255000D02*
G01*
X065445794Y-41218972D01*
G01*
X065797531Y-41112274D01*
G01*
X066121694Y-40939006D01*
G01*
X066405825Y-40705825D01*
G01*
X066639006Y-40421694D01*
G01*
X066812274Y-40097531D01*
G01*
X066918972Y-39745794D01*
G01*
X066955000Y-39380000D01*
G01*
X066918972Y-39014206D01*
G01*
X066812274Y-38662469D01*
G01*
X066639006Y-38338306D01*
G01*
X066405825Y-38054175D01*
G01*
X066121694Y-37820994D01*
G01*
X065797531Y-37647726D01*
G01*
X065445794Y-37541028D01*
G01*
X065080000Y-37505000D01*
G01*
X064714206Y-37541028D01*
G01*
X064362469Y-37647726D01*
G01*
X064038306Y-37820994D01*
G01*
X063754175Y-38054175D01*
G01*
X063520994Y-38338306D01*
G01*
X063347726Y-38662469D01*
G01*
X063241028Y-39014206D01*
G01*
X063205000Y-39380000D01*
G01*
X063241028Y-39745794D01*
G01*
X063347726Y-40097531D01*
G01*
X063520994Y-40421694D01*
G01*
X063754175Y-40705825D01*
G01*
X064038306Y-40939006D01*
G01*
X064362469Y-41112274D01*
G01*
X064714206Y-41218972D01*
G01*
X065080000Y-41255000D01*
G37*
D47*
G36*
X001570000Y-40130000D02*
G01*
X001765090Y-40110785D01*
G01*
X001952683Y-40053880D01*
G01*
X002125570Y-39961470D01*
G01*
X002277107Y-39837107D01*
G01*
X002401470Y-39685570D01*
G01*
X002493880Y-39512683D01*
G01*
X002550785Y-39325090D01*
G01*
X002570000Y-39130000D01*
G01*
X002550785Y-38934910D01*
G01*
X002493880Y-38747317D01*
G01*
X002401470Y-38574430D01*
G01*
X002277107Y-38422893D01*
G01*
X002125570Y-38298530D01*
G01*
X001952683Y-38206120D01*
G01*
X001765090Y-38149215D01*
G01*
X001570000Y-38130000D01*
G01*
X001374910Y-38149215D01*
G01*
X001187317Y-38206120D01*
G01*
X001014430Y-38298530D01*
G01*
X000862893Y-38422893D01*
G01*
X000738530Y-38574430D01*
G01*
X000646120Y-38747317D01*
G01*
X000589215Y-38934910D01*
G01*
X000570000Y-39130000D01*
G01*
X000589215Y-39325090D01*
G01*
X000646120Y-39512683D01*
G01*
X000738530Y-39685570D01*
G01*
X000862893Y-39837107D01*
G01*
X001014430Y-39961470D01*
G01*
X001187317Y-40053880D01*
G01*
X001374910Y-40110785D01*
G01*
X001570000Y-40130000D01*
G37*
D47*
G36*
X000570000Y-42670000D02*
G01*
X002570000Y-42670000D01*
G01*
X002570000Y-40670000D01*
G01*
X000570000Y-40670000D01*
G01*
X000570000Y-42670000D01*
G37*
D47*
G36*
X-75000000Y-46850000D02*
G01*
X-74639083Y-46814453D01*
G01*
X-74292036Y-46709177D01*
G01*
X-73972195Y-46538219D01*
G01*
X-73691852Y-46308148D01*
G01*
X-73461781Y-46027805D01*
G01*
X-73290823Y-45707964D01*
G01*
X-73185547Y-45360917D01*
G01*
X-73150000Y-45000000D01*
G01*
X-73185547Y-44639083D01*
G01*
X-73290823Y-44292036D01*
G01*
X-73461781Y-43972195D01*
G01*
X-73691852Y-43691852D01*
G01*
X-73972195Y-43461781D01*
G01*
X-74292036Y-43290823D01*
G01*
X-74639083Y-43185547D01*
G01*
X-75000000Y-43150000D01*
G01*
X-75360917Y-43185547D01*
G01*
X-75707964Y-43290823D01*
G01*
X-76027805Y-43461781D01*
G01*
X-76308148Y-43691852D01*
G01*
X-76538219Y-43972195D01*
G01*
X-76709177Y-44292036D01*
G01*
X-76814453Y-44639083D01*
G01*
X-76850000Y-45000000D01*
G01*
X-76814453Y-45360917D01*
G01*
X-76709177Y-45707964D01*
G01*
X-76538219Y-46027805D01*
G01*
X-76308148Y-46308148D01*
G01*
X-76027805Y-46538219D01*
G01*
X-75707964Y-46709177D01*
G01*
X-75360917Y-46814453D01*
G01*
X-75000000Y-46850000D01*
G37*
D47*
G36*
X075000000Y-46850000D02*
G01*
X075360917Y-46814453D01*
G01*
X075707964Y-46709177D01*
G01*
X076027805Y-46538219D01*
G01*
X076308148Y-46308148D01*
G01*
X076538219Y-46027805D01*
G01*
X076709177Y-45707964D01*
G01*
X076814453Y-45360917D01*
G01*
X076850000Y-45000000D01*
G01*
X076814453Y-44639083D01*
G01*
X076709177Y-44292036D01*
G01*
X076538219Y-43972195D01*
G01*
X076308148Y-43691852D01*
G01*
X076027805Y-43461781D01*
G01*
X075707964Y-43290823D01*
G01*
X075360917Y-43185547D01*
G01*
X075000000Y-43150000D01*
G01*
X074639083Y-43185547D01*
G01*
X074292036Y-43290823D01*
G01*
X073972195Y-43461781D01*
G01*
X073691852Y-43691852D01*
G01*
X073461781Y-43972195D01*
G01*
X073290823Y-44292036D01*
G01*
X073185547Y-44639083D01*
G01*
X073150000Y-45000000D01*
G01*
X073185547Y-45360917D01*
G01*
X073290823Y-45707964D01*
G01*
X073461781Y-46027805D01*
G01*
X073691852Y-46308148D01*
G01*
X073972195Y-46538219D01*
G01*
X074292036Y-46709177D01*
G01*
X074639083Y-46814453D01*
G01*
X075000000Y-46850000D01*
G37*
%LPD*%
D47*
G36*
X045075514Y-19679867D02*
G01*
X045076686Y-19667964D01*
G01*
X045099448Y-19592927D01*
G01*
X045136288Y-19524004D01*
G01*
X045112782Y-19511439D01*
G01*
X045081451Y-19511439D01*
G01*
X044508181Y-19511439D01*
G01*
X043709620Y-20310000D01*
G01*
X044445380Y-20310000D01*
G01*
X045075514Y-19679867D01*
G37*
D47*
G36*
X004212927Y-08881448D02*
G01*
X004287964Y-08858686D01*
G01*
X004299866Y-08857514D01*
G01*
X005583336Y-07574045D01*
G01*
X005583336Y-05216376D01*
G01*
X005577000Y-05217000D01*
G01*
X005498964Y-05209314D01*
G01*
X005423927Y-05186552D01*
G01*
X005354772Y-05149588D01*
G01*
X005294157Y-05099843D01*
G01*
X005244412Y-05039228D01*
G01*
X005207448Y-04970073D01*
G01*
X005184686Y-04895036D01*
G01*
X005183514Y-04883133D01*
G01*
X004200955Y-03900575D01*
G01*
X004200955Y-08887847D01*
G01*
X004212927Y-08881448D01*
G37*
D47*
G36*
X009986342Y014387020D02*
G01*
X009963683Y014389251D01*
G01*
X009963683Y003210937D01*
G01*
X009976134Y003198486D01*
G01*
X009986342Y003197481D01*
G01*
X009986342Y014387020D01*
G37*
D47*
G36*
X010386071Y014955582D02*
G01*
X010369304Y014969342D01*
G01*
X010379937Y014949448D01*
G01*
X010386071Y014955582D01*
G37*
D47*
G36*
X004436652Y-11092325D02*
G01*
X003646145Y-10301818D01*
G01*
X003605727Y-10252569D01*
G01*
X003575694Y-10196381D01*
G01*
X003557200Y-10135413D01*
G01*
X003550955Y-10072009D01*
G01*
X003550955Y034232946D01*
G01*
X-02090535Y028591457D01*
G01*
X-02090535Y013602365D01*
G01*
X-02090535Y-16584500D01*
G01*
X-02055000Y-16581000D01*
G01*
X-01976964Y-16588686D01*
G01*
X-01901927Y-16611448D01*
G01*
X-01832772Y-16648412D01*
G01*
X-01772157Y-16698157D01*
G01*
X-01722412Y-16758772D01*
G01*
X-01685448Y-16827927D01*
G01*
X-01663181Y-16901334D01*
G01*
X-01649596Y-16912482D01*
G01*
X000663936Y-19226014D01*
G01*
X000646120Y-19192683D01*
G01*
X000589215Y-19005090D01*
G01*
X000570000Y-18810000D01*
G01*
X000589215Y-18614910D01*
G01*
X000646120Y-18427317D01*
G01*
X000738530Y-18254430D01*
G01*
X000862893Y-18102893D01*
G01*
X001014430Y-17978530D01*
G01*
X001187317Y-17886120D01*
G01*
X001374910Y-17829215D01*
G01*
X001570000Y-17810000D01*
G01*
X001765090Y-17829215D01*
G01*
X001952683Y-17886120D01*
G01*
X002125570Y-17978530D01*
G01*
X002277107Y-18102893D01*
G01*
X002401470Y-18254430D01*
G01*
X002493880Y-18427317D01*
G01*
X002550785Y-18614910D01*
G01*
X002570000Y-18810000D01*
G01*
X002550785Y-19005090D01*
G01*
X002493880Y-19192683D01*
G01*
X002401470Y-19365570D01*
G01*
X002288118Y-19503690D01*
G01*
X002660690Y-19503690D01*
G01*
X002724094Y-19509935D01*
G01*
X002785062Y-19528429D01*
G01*
X002841250Y-19558462D01*
G01*
X002890500Y-19598880D01*
G01*
X004436652Y-21145032D01*
G01*
X004436652Y-11092325D01*
G37*
%LPC*%
D47*
G36*
X001570000Y008130000D02*
G01*
X001765090Y008149215D01*
G01*
X001952683Y008206120D01*
G01*
X002125570Y008298530D01*
G01*
X002277107Y008422893D01*
G01*
X002401470Y008574430D01*
G01*
X002493880Y008747317D01*
G01*
X002550785Y008934910D01*
G01*
X002570000Y009130000D01*
G01*
X002550785Y009325090D01*
G01*
X002493880Y009512683D01*
G01*
X002401470Y009685570D01*
G01*
X002277107Y009837107D01*
G01*
X002125570Y009961470D01*
G01*
X001952683Y010053880D01*
G01*
X001765090Y010110785D01*
G01*
X001570000Y010130000D01*
G01*
X001374910Y010110785D01*
G01*
X001187317Y010053880D01*
G01*
X001014430Y009961470D01*
G01*
X000862893Y009837107D01*
G01*
X000738530Y009685570D01*
G01*
X000646120Y009512683D01*
G01*
X000589215Y009325090D01*
G01*
X000570000Y009130000D01*
G01*
X000589215Y008934910D01*
G01*
X000646120Y008747317D01*
G01*
X000738530Y008574430D01*
G01*
X000862893Y008422893D01*
G01*
X001014430Y008298530D01*
G01*
X001187317Y008206120D01*
G01*
X001374910Y008149215D01*
G01*
X001570000Y008130000D01*
G37*
D47*
G36*
X001570000Y005590000D02*
G01*
X001765090Y005609215D01*
G01*
X001952683Y005666120D01*
G01*
X002125570Y005758530D01*
G01*
X002277107Y005882893D01*
G01*
X002401470Y006034430D01*
G01*
X002493880Y006207317D01*
G01*
X002550785Y006394910D01*
G01*
X002570000Y006590000D01*
G01*
X002550785Y006785090D01*
G01*
X002493880Y006972683D01*
G01*
X002401470Y007145570D01*
G01*
X002277107Y007297107D01*
G01*
X002125570Y007421470D01*
G01*
X001952683Y007513880D01*
G01*
X001765090Y007570785D01*
G01*
X001570000Y007590000D01*
G01*
X001374910Y007570785D01*
G01*
X001187317Y007513880D01*
G01*
X001014430Y007421470D01*
G01*
X000862893Y007297107D01*
G01*
X000738530Y007145570D01*
G01*
X000646120Y006972683D01*
G01*
X000589215Y006785090D01*
G01*
X000570000Y006590000D01*
G01*
X000589215Y006394910D01*
G01*
X000646120Y006207317D01*
G01*
X000738530Y006034430D01*
G01*
X000862893Y005882893D01*
G01*
X001014430Y005758530D01*
G01*
X001187317Y005666120D01*
G01*
X001374910Y005609215D01*
G01*
X001570000Y005590000D01*
G37*
D47*
G36*
X001570000Y003050000D02*
G01*
X001765090Y003069215D01*
G01*
X001952683Y003126120D01*
G01*
X002125570Y003218530D01*
G01*
X002277107Y003342893D01*
G01*
X002401470Y003494430D01*
G01*
X002493880Y003667317D01*
G01*
X002550785Y003854910D01*
G01*
X002570000Y004050000D01*
G01*
X002550785Y004245090D01*
G01*
X002493880Y004432683D01*
G01*
X002401470Y004605570D01*
G01*
X002277107Y004757107D01*
G01*
X002125570Y004881470D01*
G01*
X001952683Y004973880D01*
G01*
X001765090Y005030785D01*
G01*
X001570000Y005050000D01*
G01*
X001374910Y005030785D01*
G01*
X001187317Y004973880D01*
G01*
X001014430Y004881470D01*
G01*
X000862893Y004757107D01*
G01*
X000738530Y004605570D01*
G01*
X000646120Y004432683D01*
G01*
X000589215Y004245090D01*
G01*
X000570000Y004050000D01*
G01*
X000589215Y003854910D01*
G01*
X000646120Y003667317D01*
G01*
X000738530Y003494430D01*
G01*
X000862893Y003342893D01*
G01*
X001014430Y003218530D01*
G01*
X001187317Y003126120D01*
G01*
X001374910Y003069215D01*
G01*
X001570000Y003050000D01*
G37*
D47*
G36*
X001570000Y000510000D02*
G01*
X001765090Y000529215D01*
G01*
X001952683Y000586120D01*
G01*
X002125570Y000678530D01*
G01*
X002277107Y000802893D01*
G01*
X002401470Y000954430D01*
G01*
X002493880Y001127317D01*
G01*
X002550785Y001314910D01*
G01*
X002570000Y001510000D01*
G01*
X002550785Y001705090D01*
G01*
X002493880Y001892683D01*
G01*
X002401470Y002065570D01*
G01*
X002277107Y002217107D01*
G01*
X002125570Y002341470D01*
G01*
X001952683Y002433880D01*
G01*
X001765090Y002490785D01*
G01*
X001570000Y002510000D01*
G01*
X001374910Y002490785D01*
G01*
X001187317Y002433880D01*
G01*
X001014430Y002341470D01*
G01*
X000862893Y002217107D01*
G01*
X000738530Y002065570D01*
G01*
X000646120Y001892683D01*
G01*
X000589215Y001705090D01*
G01*
X000570000Y001510000D01*
G01*
X000589215Y001314910D01*
G01*
X000646120Y001127317D01*
G01*
X000738530Y000954430D01*
G01*
X000862893Y000802893D01*
G01*
X001014430Y000678530D01*
G01*
X001187317Y000586120D01*
G01*
X001374910Y000529215D01*
G01*
X001570000Y000510000D01*
G37*
D47*
G36*
X001570000Y-02030000D02*
G01*
X001765090Y-02010785D01*
G01*
X001952683Y-01953880D01*
G01*
X002125570Y-01861470D01*
G01*
X002277107Y-01737107D01*
G01*
X002401470Y-01585570D01*
G01*
X002493880Y-01412683D01*
G01*
X002550785Y-01225090D01*
G01*
X002570000Y-01030000D01*
G01*
X002550785Y-00834910D01*
G01*
X002493880Y-00647317D01*
G01*
X002401470Y-00474430D01*
G01*
X002277107Y-00322893D01*
G01*
X002125570Y-00198530D01*
G01*
X001952683Y-00106120D01*
G01*
X001765090Y-00049215D01*
G01*
X001570000Y-00030000D01*
G01*
X001374910Y-00049215D01*
G01*
X001187317Y-00106120D01*
G01*
X001014430Y-00198530D01*
G01*
X000862893Y-00322893D01*
G01*
X000738530Y-00474430D01*
G01*
X000646120Y-00647317D01*
G01*
X000589215Y-00834910D01*
G01*
X000570000Y-01030000D01*
G01*
X000589215Y-01225090D01*
G01*
X000646120Y-01412683D01*
G01*
X000738530Y-01585570D01*
G01*
X000862893Y-01737107D01*
G01*
X001014430Y-01861470D01*
G01*
X001187317Y-01953880D01*
G01*
X001374910Y-02010785D01*
G01*
X001570000Y-02030000D01*
G37*
D47*
G36*
X001570000Y-04570000D02*
G01*
X001765090Y-04550785D01*
G01*
X001952683Y-04493880D01*
G01*
X002125570Y-04401470D01*
G01*
X002277107Y-04277107D01*
G01*
X002401470Y-04125570D01*
G01*
X002493880Y-03952683D01*
G01*
X002550785Y-03765090D01*
G01*
X002570000Y-03570000D01*
G01*
X002550785Y-03374910D01*
G01*
X002493880Y-03187317D01*
G01*
X002401470Y-03014430D01*
G01*
X002277107Y-02862893D01*
G01*
X002125570Y-02738530D01*
G01*
X001952683Y-02646120D01*
G01*
X001765090Y-02589215D01*
G01*
X001570000Y-02570000D01*
G01*
X001374910Y-02589215D01*
G01*
X001187317Y-02646120D01*
G01*
X001014430Y-02738530D01*
G01*
X000862893Y-02862893D01*
G01*
X000738530Y-03014430D01*
G01*
X000646120Y-03187317D01*
G01*
X000589215Y-03374910D01*
G01*
X000570000Y-03570000D01*
G01*
X000589215Y-03765090D01*
G01*
X000646120Y-03952683D01*
G01*
X000738530Y-04125570D01*
G01*
X000862893Y-04277107D01*
G01*
X001014430Y-04401470D01*
G01*
X001187317Y-04493880D01*
G01*
X001374910Y-04550785D01*
G01*
X001570000Y-04570000D01*
G37*
D47*
G36*
X001570000Y-07110000D02*
G01*
X001765090Y-07090785D01*
G01*
X001952683Y-07033880D01*
G01*
X002125570Y-06941470D01*
G01*
X002277107Y-06817107D01*
G01*
X002401470Y-06665570D01*
G01*
X002493880Y-06492683D01*
G01*
X002550785Y-06305090D01*
G01*
X002570000Y-06110000D01*
G01*
X002550785Y-05914910D01*
G01*
X002493880Y-05727317D01*
G01*
X002401470Y-05554430D01*
G01*
X002277107Y-05402893D01*
G01*
X002125570Y-05278530D01*
G01*
X001952683Y-05186120D01*
G01*
X001765090Y-05129215D01*
G01*
X001570000Y-05110000D01*
G01*
X001374910Y-05129215D01*
G01*
X001187317Y-05186120D01*
G01*
X001014430Y-05278530D01*
G01*
X000862893Y-05402893D01*
G01*
X000738530Y-05554430D01*
G01*
X000646120Y-05727317D01*
G01*
X000589215Y-05914910D01*
G01*
X000570000Y-06110000D01*
G01*
X000589215Y-06305090D01*
G01*
X000646120Y-06492683D01*
G01*
X000738530Y-06665570D01*
G01*
X000862893Y-06817107D01*
G01*
X001014430Y-06941470D01*
G01*
X001187317Y-07033880D01*
G01*
X001374910Y-07090785D01*
G01*
X001570000Y-07110000D01*
G37*
D47*
G36*
X001570000Y-09650000D02*
G01*
X001765090Y-09630785D01*
G01*
X001952683Y-09573880D01*
G01*
X002125570Y-09481470D01*
G01*
X002277107Y-09357107D01*
G01*
X002401470Y-09205570D01*
G01*
X002493880Y-09032683D01*
G01*
X002550785Y-08845090D01*
G01*
X002570000Y-08650000D01*
G01*
X002550785Y-08454910D01*
G01*
X002493880Y-08267317D01*
G01*
X002401470Y-08094430D01*
G01*
X002277107Y-07942893D01*
G01*
X002125570Y-07818530D01*
G01*
X001952683Y-07726120D01*
G01*
X001765090Y-07669215D01*
G01*
X001570000Y-07650000D01*
G01*
X001374910Y-07669215D01*
G01*
X001187317Y-07726120D01*
G01*
X001014430Y-07818530D01*
G01*
X000862893Y-07942893D01*
G01*
X000738530Y-08094430D01*
G01*
X000646120Y-08267317D01*
G01*
X000589215Y-08454910D01*
G01*
X000570000Y-08650000D01*
G01*
X000589215Y-08845090D01*
G01*
X000646120Y-09032683D01*
G01*
X000738530Y-09205570D01*
G01*
X000862893Y-09357107D01*
G01*
X001014430Y-09481470D01*
G01*
X001187317Y-09573880D01*
G01*
X001374910Y-09630785D01*
G01*
X001570000Y-09650000D01*
G37*
D47*
G36*
X001570000Y-12190000D02*
G01*
X001765090Y-12170785D01*
G01*
X001952683Y-12113880D01*
G01*
X002125570Y-12021470D01*
G01*
X002277107Y-11897107D01*
G01*
X002401470Y-11745570D01*
G01*
X002493880Y-11572683D01*
G01*
X002550785Y-11385090D01*
G01*
X002570000Y-11190000D01*
G01*
X002550785Y-10994910D01*
G01*
X002493880Y-10807317D01*
G01*
X002401470Y-10634430D01*
G01*
X002277107Y-10482893D01*
G01*
X002125570Y-10358530D01*
G01*
X001952683Y-10266120D01*
G01*
X001765090Y-10209215D01*
G01*
X001570000Y-10190000D01*
G01*
X001374910Y-10209215D01*
G01*
X001187317Y-10266120D01*
G01*
X001014430Y-10358530D01*
G01*
X000862893Y-10482893D01*
G01*
X000738530Y-10634430D01*
G01*
X000646120Y-10807317D01*
G01*
X000589215Y-10994910D01*
G01*
X000570000Y-11190000D01*
G01*
X000589215Y-11385090D01*
G01*
X000646120Y-11572683D01*
G01*
X000738530Y-11745570D01*
G01*
X000862893Y-11897107D01*
G01*
X001014430Y-12021470D01*
G01*
X001187317Y-12113880D01*
G01*
X001374910Y-12170785D01*
G01*
X001570000Y-12190000D01*
G37*
D47*
G36*
X001570000Y-14730000D02*
G01*
X001765090Y-14710785D01*
G01*
X001952683Y-14653880D01*
G01*
X002125570Y-14561470D01*
G01*
X002277107Y-14437107D01*
G01*
X002401470Y-14285570D01*
G01*
X002493880Y-14112683D01*
G01*
X002550785Y-13925090D01*
G01*
X002570000Y-13730000D01*
G01*
X002550785Y-13534910D01*
G01*
X002493880Y-13347317D01*
G01*
X002401470Y-13174430D01*
G01*
X002277107Y-13022893D01*
G01*
X002125570Y-12898530D01*
G01*
X001952683Y-12806120D01*
G01*
X001765090Y-12749215D01*
G01*
X001570000Y-12730000D01*
G01*
X001374910Y-12749215D01*
G01*
X001187317Y-12806120D01*
G01*
X001014430Y-12898530D01*
G01*
X000862893Y-13022893D01*
G01*
X000738530Y-13174430D01*
G01*
X000646120Y-13347317D01*
G01*
X000589215Y-13534910D01*
G01*
X000570000Y-13730000D01*
G01*
X000589215Y-13925090D01*
G01*
X000646120Y-14112683D01*
G01*
X000738530Y-14285570D01*
G01*
X000862893Y-14437107D01*
G01*
X001014430Y-14561470D01*
G01*
X001187317Y-14653880D01*
G01*
X001374910Y-14710785D01*
G01*
X001570000Y-14730000D01*
G37*
D47*
G36*
X001570000Y-17270000D02*
G01*
X001765090Y-17250785D01*
G01*
X001952683Y-17193880D01*
G01*
X002125570Y-17101470D01*
G01*
X002277107Y-16977107D01*
G01*
X002401470Y-16825570D01*
G01*
X002493880Y-16652683D01*
G01*
X002550785Y-16465090D01*
G01*
X002570000Y-16270000D01*
G01*
X002550785Y-16074910D01*
G01*
X002493880Y-15887317D01*
G01*
X002401470Y-15714430D01*
G01*
X002277107Y-15562893D01*
G01*
X002125570Y-15438530D01*
G01*
X001952683Y-15346120D01*
G01*
X001765090Y-15289215D01*
G01*
X001570000Y-15270000D01*
G01*
X001374910Y-15289215D01*
G01*
X001187317Y-15346120D01*
G01*
X001014430Y-15438530D01*
G01*
X000862893Y-15562893D01*
G01*
X000738530Y-15714430D01*
G01*
X000646120Y-15887317D01*
G01*
X000589215Y-16074910D01*
G01*
X000570000Y-16270000D01*
G01*
X000589215Y-16465090D01*
G01*
X000646120Y-16652683D01*
G01*
X000738530Y-16825570D01*
G01*
X000862893Y-16977107D01*
G01*
X001014430Y-17101470D01*
G01*
X001187317Y-17193880D01*
G01*
X001374910Y-17250785D01*
G01*
X001570000Y-17270000D01*
G37*
%LPD*%
D47*
G36*
X009986342Y-08523774D02*
G01*
X009986342Y002412519D01*
G01*
X009910000Y002405000D01*
G01*
X009831964Y002412686D01*
G01*
X009756927Y002435448D01*
G01*
X009687772Y002472412D01*
G01*
X009627157Y002522157D01*
G01*
X009577412Y002582772D01*
G01*
X009540448Y002651927D01*
G01*
X009517686Y002726964D01*
G01*
X009516514Y002738866D01*
G01*
X009408873Y002846507D01*
G01*
X009368456Y002895757D01*
G01*
X009338422Y002951945D01*
G01*
X009319928Y003012913D01*
G01*
X009313683Y003076317D01*
G01*
X009313683Y027934635D01*
G01*
X009319928Y027998039D01*
G01*
X009338422Y028059007D01*
G01*
X009368456Y028115195D01*
G01*
X009408873Y028164445D01*
G01*
X010865000Y029620572D01*
G01*
X010865000Y039580000D01*
G01*
X010214865Y039580000D01*
G01*
X007751033Y037116168D01*
G01*
X007751033Y005490972D01*
G01*
X007751033Y-10406449D01*
G01*
X007807073Y-10423448D01*
G01*
X007876228Y-10460412D01*
G01*
X007936843Y-10510157D01*
G01*
X007965292Y-10544823D01*
G01*
X009986342Y-08523774D01*
G37*
D24*
X001570000Y-41670000D03*
D25*
X001570000Y-39130000D03*
D25*
X001570000Y-36590000D03*
D25*
X001570000Y-34050000D03*
D25*
X001570000Y-31510000D03*
D25*
X001570000Y-28970000D03*
D25*
X001570000Y-26430000D03*
D25*
X001570000Y-23890000D03*
D25*
X001570000Y-21350000D03*
D25*
X001570000Y-18810000D03*
D25*
X001570000Y-16270000D03*
D25*
X001570000Y-13730000D03*
D25*
X001570000Y-11190000D03*
D25*
X001570000Y-08650000D03*
D25*
X001570000Y-06110000D03*
D25*
X001570000Y-03570000D03*
D25*
X001570000Y-01030000D03*
D25*
X001570000Y001510000D03*
D25*
X001570000Y004050000D03*
D25*
X001570000Y006590000D03*
D25*
X001570000Y009130000D03*
D25*
X001570000Y011670000D03*
D24*
X024430000Y-41670000D03*
D25*
X024430000Y-39130000D03*
D25*
X024430000Y-36590000D03*
D25*
X024430000Y-34050000D03*
D25*
X024430000Y-31510000D03*
D25*
X024430000Y-28970000D03*
D25*
X024430000Y-26430000D03*
D25*
X024430000Y-23890000D03*
D25*
X024430000Y-21350000D03*
D25*
X024430000Y-18810000D03*
D25*
X024430000Y-16270000D03*
D25*
X024430000Y-13730000D03*
D25*
X024430000Y-11190000D03*
D25*
X024430000Y-08650000D03*
D25*
X024430000Y-06110000D03*
D25*
X024430000Y-03570000D03*
D25*
X024430000Y-01030000D03*
D25*
X024430000Y001510000D03*
D25*
X024430000Y004050000D03*
D25*
X024430000Y006590000D03*
D25*
X024430000Y009130000D03*
D25*
X024430000Y011670000D03*
D24*
X-70540000Y-15000000D03*
D25*
X-68000000Y-15000000D03*
D25*
X-65460000Y-15000000D03*
D24*
X-70540000Y000000000D03*
D25*
X-68000000Y000000000D03*
D25*
X-65460000Y000000000D03*
D24*
X-76500000Y015000000D03*
D30*
X-64540000Y025292500D03*
D30*
X-59460000Y025292500D03*
D30*
X-44160000Y040350000D03*
D30*
X-41620000Y040350000D03*
D30*
X-44160000Y037810000D03*
D30*
X-41620000Y037810000D03*
D30*
X-44160000Y035270000D03*
D30*
X-41620000Y035270000D03*
D30*
X-44160000Y032730000D03*
D30*
X-41620000Y032730000D03*
D35*
X-09840000Y-25650000D03*
D35*
X-09840000Y-28190000D03*
D35*
X-09840000Y-30730000D03*
D35*
X-09840000Y-33270000D03*
D35*
X-09840000Y-35810000D03*
D35*
X-09840000Y-38350000D03*
D35*
X-30160000Y-25650000D03*
D35*
X-30160000Y-28190000D03*
D35*
X-30160000Y-30730000D03*
D35*
X-30160000Y-33270000D03*
D35*
X-30160000Y-35810000D03*
D35*
X-30160000Y-38350000D03*
D38*
X069540000Y046000000D03*
D38*
X067000000Y046000000D03*
D38*
X064460000Y046000000D03*
D30*
X006110000Y040730000D03*
D30*
X006110000Y043270000D03*
D30*
X008650000Y040730000D03*
D30*
X008650000Y043270000D03*
D30*
X011190000Y040730000D03*
D30*
X011190000Y043270000D03*
D30*
X013730000Y040730000D03*
D30*
X013730000Y043270000D03*
D30*
X016270000Y040730000D03*
D30*
X016270000Y043270000D03*
D30*
X018810000Y040730000D03*
D30*
X018810000Y043270000D03*
D30*
X021350000Y040730000D03*
D30*
X021350000Y043270000D03*
D30*
X023890000Y040730000D03*
D30*
X023890000Y043270000D03*
D40*
X038000000Y036060000D03*
D40*
X038000000Y040020000D03*
D40*
X038000000Y043980000D03*
D40*
X038000000Y047940000D03*
D42*
X065500000Y-06000000D03*
D42*
X070500000Y-06000000D03*
D44*
X041905000Y-47635000D03*
D44*
X040635000Y-46365000D03*
D44*
X039365000Y-47635000D03*
D44*
X038095000Y-46365000D03*
D30*
X044190000Y-21460000D03*
D30*
X044190000Y-24000000D03*
D30*
X044190000Y-26540000D03*
D30*
X051810000Y-26540000D03*
D30*
X051810000Y-24000000D03*
D30*
X051810000Y-21460000D03*
D42*
X042920000Y-30000000D03*
D42*
X053080000Y-30000000D03*
D44*
X061905000Y-47635000D03*
D44*
X060635000Y-46365000D03*
D44*
X059365000Y-47635000D03*
D44*
X058095000Y-46365000D03*
D30*
X064190000Y-21460000D03*
D30*
X064190000Y-24000000D03*
D30*
X064190000Y-26540000D03*
D30*
X071810000Y-26540000D03*
D30*
X071810000Y-24000000D03*
D30*
X071810000Y-21460000D03*
D42*
X062920000Y-30000000D03*
D42*
X073080000Y-30000000D03*
D10*
X024430000Y-01030000D02*
X023370432Y-02089568D01*
D10*
X023370432Y-02089568D02*
X023370432Y-05809568D01*
D10*
X023370432Y-05809568D02*
X018880000Y-10300000D01*
D10*
X018880000Y-10300000D02*
X018880000Y-10300000D01*
D10*
X005577000Y-04817000D02*
X005577000Y-04817000D01*
D10*
X005577000Y-04817000D02*
X005544870Y-04784870D01*
D10*
X005544870Y-04784870D02*
X004208000Y-03448000D01*
D10*
X004208000Y-03448000D02*
X004208000Y-00848000D01*
D10*
X004208000Y-00848000D02*
X004208000Y-00848000D01*
D10*
X-26154000Y-32249000D02*
X-26154000Y-32249000D01*
D10*
X-26154000Y-32249000D02*
X-26161653Y-32256653D01*
D10*
X-26161653Y-32256653D02*
X-26161653Y-34351653D01*
D10*
X-26161653Y-34351653D02*
X-30160000Y-38350000D01*
D10*
X024430000Y001510000D02*
X018783000Y-04137000D01*
D10*
X018783000Y-04137000D02*
X018783000Y-09033000D01*
D10*
X018783000Y-09033000D02*
X018783000Y-09033000D01*
D10*
X-03031000Y-22352000D02*
X-03031000Y-22352000D01*
D10*
X-03031000Y-22352000D02*
X-03119827Y-22440827D01*
D10*
X-03119827Y-22440827D02*
X-03119827Y-22486457D01*
D10*
X-03119827Y-22486457D02*
X-03372000Y-22738629D01*
D10*
X-03372000Y-22738629D02*
X-03372000Y-23381000D01*
D10*
X-03372000Y-23381000D02*
X-03372000Y-23381000D01*
D10*
X001570000Y-36590000D02*
X001221418Y-36938582D01*
D10*
X001221418Y-36938582D02*
X001215188Y-36938582D01*
D10*
X001215188Y-36938582D02*
X-17519418Y-36938582D01*
D10*
X-17519418Y-36938582D02*
X-21647000Y-32811000D01*
D10*
X-21647000Y-32811000D02*
X-21647000Y-32811000D01*
D10*
X045296000Y-19158000D02*
X045296000Y-19158000D01*
D10*
X045296000Y-19158000D02*
X045267561Y-19186439D01*
D10*
X045267561Y-19186439D02*
X045081451Y-19186439D01*
D10*
X045081451Y-19186439D02*
X044373561Y-19186439D01*
D10*
X044373561Y-19186439D02*
X024430000Y-39130000D01*
D10*
X028410000Y-03032000D02*
X028410000Y-03032000D01*
D10*
X028410000Y-03032000D02*
X028331196Y-03110804D01*
D10*
X028331196Y-03110804D02*
X028239656Y-03110804D01*
D10*
X028239656Y-03110804D02*
X027780460Y-03570000D01*
D10*
X027780460Y-03570000D02*
X024430000Y-03570000D01*
D10*
X026554000Y016370000D02*
X026554000Y016370000D01*
D10*
X026554000Y016370000D02*
X029563172Y013360828D01*
D10*
X029563172Y013360828D02*
X029563172Y-19882464D01*
D10*
X029563172Y-19882464D02*
X029563172Y-26563220D01*
D10*
X029563172Y-26563220D02*
X025980000Y-30146393D01*
D10*
X025980000Y-30146393D02*
X025980000Y-30240000D01*
D10*
X025980000Y-30240000D02*
X025980000Y-30240000D01*
D10*
X021350000Y043270000D02*
X022444150Y042175850D01*
D10*
X022444150Y042175850D02*
X022444150Y039452555D01*
D10*
X022444150Y039452555D02*
X021810000Y038818405D01*
D10*
X021810000Y038818405D02*
X021810000Y002215667D01*
D10*
X021810000Y002215667D02*
X021810000Y002182000D01*
D10*
X021810000Y002182000D02*
X021810000Y002182000D01*
D10*
X022221000Y-12217000D02*
X022221000Y-12217000D01*
D10*
X022221000Y-12217000D02*
X022221000Y-21681000D01*
D10*
X022221000Y-21681000D02*
X024430000Y-23890000D01*
D10*
X027106000Y-14434000D02*
X027106000Y-14434000D01*
D10*
X027106000Y-14434000D02*
X027106000Y-16645404D01*
D10*
X027106000Y-16645404D02*
X027081687Y-16669717D01*
D10*
X027081687Y-16669717D02*
X027081687Y-16737687D01*
D10*
X027081687Y-16737687D02*
X027109000Y-16765000D01*
D10*
X027109000Y-16765000D02*
X027109000Y-16765000D01*
D10*
X021100000Y026214000D02*
X021100000Y026214000D01*
D10*
X021100000Y026214000D02*
X018388041Y023502041D01*
D10*
X018388041Y023502041D02*
X018388041Y-22909672D01*
D10*
X018388041Y-22909672D02*
X018388041Y-22928041D01*
D10*
X018388041Y-22928041D02*
X024430000Y-28970000D01*
D10*
X010384000Y020417000D02*
X010384000Y020417000D01*
D10*
X010384000Y020417000D02*
X010353955Y020386955D01*
D10*
X010353955Y020386955D02*
X010017000Y020050000D01*
D10*
X010017000Y020050000D02*
X009966053Y015661667D01*
D10*
X009966053Y015661667D02*
X010017000Y014784000D01*
D10*
X010017000Y014784000D02*
X010017000Y014784000D01*
D10*
X005657000Y-02199000D02*
X005657000Y-02199000D01*
D10*
X005657000Y-02199000D02*
X005668228Y-02210228D01*
D10*
X005668228Y-02210228D02*
X005668228Y-02242674D01*
D10*
X005668228Y-02242674D02*
X005908336Y-02482782D01*
D10*
X005908336Y-02482782D02*
X005908336Y-02891491D01*
D10*
X005908336Y-02891491D02*
X005908336Y-07708664D01*
D10*
X005908336Y-07708664D02*
X004366000Y-09251000D01*
D10*
X004366000Y-09251000D02*
X004366000Y-09251000D01*
D10*
X010971000Y000846000D02*
X010971000Y000846000D01*
D10*
X010971000Y000846000D02*
X010937324Y000812324D01*
D10*
X010937324Y000812324D02*
X010937324Y000739987D01*
D10*
X010937324Y000739987D02*
X010776000Y000578663D01*
D10*
X010776000Y000578663D02*
X010776000Y-06192000D01*
D10*
X010776000Y-06192000D02*
X010776000Y-06192000D01*
D10*
X011959000Y028447000D02*
X011959000Y028447000D01*
D10*
X011959000Y028447000D02*
X011957234Y028445234D01*
D10*
X011957234Y028445234D02*
X011957234Y028406466D01*
D10*
X011957234Y028406466D02*
X011314625Y027763857D01*
D10*
X011314625Y027763857D02*
X011314625Y015424517D01*
D10*
X011314625Y015424517D02*
X010311342Y014421234D01*
D10*
X010311342Y014421234D02*
X010311342Y-08658392D01*
D10*
X010311342Y-08658392D02*
X005417000Y-13552735D01*
D10*
X005417000Y-13552735D02*
X005417000Y-18630000D01*
D10*
X005417000Y-18630000D02*
X005417000Y-18630000D01*
D10*
X011190000Y043270000D02*
X010066349Y042146349D01*
D10*
X010066349Y042146349D02*
X010066349Y039891104D01*
D10*
X010066349Y039891104D02*
X007426033Y037250788D01*
D10*
X007426033Y037250788D02*
X007426033Y005490972D01*
D10*
X007426033Y005490972D02*
X007426033Y-10565033D01*
D10*
X007426033Y-10565033D02*
X007654000Y-10793000D01*
D10*
X007654000Y-10793000D02*
X007654000Y-10793000D01*
D10*
X010438000Y-12364000D02*
X010438000Y-12364000D01*
D10*
X010438000Y-12364000D02*
X010476568Y-12402568D01*
D10*
X010476568Y-12402568D02*
X010476568Y-12485414D01*
D10*
X010476568Y-12485414D02*
X010476568Y-20531432D01*
D10*
X010476568Y-20531432D02*
X009626000Y-21382000D01*
D10*
X009626000Y-21382000D02*
X009626000Y-21382000D01*
D10*
X011190000Y040730000D02*
X011190000Y029485952D01*
D10*
X011190000Y029485952D02*
X009638683Y027934635D01*
D10*
X009638683Y027934635D02*
X009638683Y003076317D01*
D10*
X009638683Y003076317D02*
X009910000Y002805000D01*
D10*
X009910000Y002805000D02*
X009910000Y002805000D01*
D10*
X011599000Y002434000D02*
X011599000Y002434000D01*
D10*
X011599000Y002434000D02*
X011600000Y002433000D01*
D10*
X011600000Y002433000D02*
X011600000Y-10993000D01*
D10*
X011600000Y-10993000D02*
X011600000Y-10993000D01*
D10*
X009384000Y-14212000D02*
X009384000Y-14212000D01*
D10*
X009384000Y-14212000D02*
X009259143Y-14336857D01*
D10*
X009259143Y-14336857D02*
X009259143Y-14350277D01*
D10*
X009259143Y-14350277D02*
X008597000Y-15012420D01*
D10*
X008597000Y-15012420D02*
X008597000Y-23325000D01*
D10*
X008597000Y-23325000D02*
X008597000Y-23325000D01*
D10*
X005423000Y036588000D02*
X005423000Y036588000D01*
D10*
X005423000Y036588000D02*
X005274340Y036439340D01*
D10*
X005274340Y036439340D02*
X005274340Y036415951D01*
D10*
X005274340Y036415951D02*
X-02415535Y028726076D01*
D10*
X-02415535Y028726076D02*
X-02415535Y013602365D01*
D10*
X-02415535Y013602365D02*
X-02415535Y-24984465D01*
D10*
X-02415535Y-24984465D02*
X001570000Y-28970000D01*
D10*
X006110000Y043270000D02*
X-09406000Y027754000D01*
D10*
X-09406000Y027754000D02*
X-09406000Y-16170000D01*
D10*
X-09406000Y-16170000D02*
X-09406000Y-16170000D01*
D10*
X-08594000Y-17422000D02*
X-08594000Y-17422000D01*
D10*
X-08594000Y-17422000D02*
X-08566578Y-17449422D01*
D10*
X-08566578Y-17449422D02*
X-08566578Y-17458985D01*
D10*
X-08566578Y-17458985D02*
X-08566578Y-21373422D01*
D10*
X-08566578Y-21373422D02*
X001570000Y-31510000D01*
D10*
X006110000Y040730000D02*
X006110000Y036653094D01*
D10*
X006110000Y036653094D02*
X003875955Y034419050D01*
D10*
X003875955Y034419050D02*
X003875955Y-10072009D01*
D10*
X003875955Y-10072009D02*
X004761652Y-10957706D01*
D10*
X004761652Y-10957706D02*
X004761652Y-30622348D01*
D10*
X004761652Y-30622348D02*
X002772000Y-32612000D01*
D10*
X002772000Y-32612000D02*
X002772000Y-32612000D01*
D10*
X037634000Y002545000D02*
X037634000Y002545000D01*
D10*
X037634000Y002545000D02*
X037461287Y002372287D01*
D10*
X037461287Y002372287D02*
X037459798Y002372287D01*
D10*
X037459798Y002372287D02*
X035761000Y000673489D01*
D10*
X035761000Y000673489D02*
X035761000Y-01173000D01*
D10*
X035761000Y-01173000D02*
X035761000Y-01173000D01*
D10*
X-04999000Y-36212000D02*
X-04999000Y-36212000D01*
D10*
X-04999000Y-36212000D02*
X-05028769Y-36241769D01*
D10*
X-05028769Y-36241769D02*
X-05141717Y-36241769D01*
D10*
X-05141717Y-36241769D02*
X-05277948Y-36378000D01*
D10*
X-05277948Y-36378000D02*
X-06583000Y-36378000D01*
D10*
X-06583000Y-36378000D02*
X-06583000Y-36378000D01*
D10*
X-22585000Y-34179000D02*
X-22585000Y-34179000D01*
D10*
X-22585000Y-34179000D02*
X-22614926Y-34149074D01*
D10*
X-22614926Y-34149074D02*
X-22614926Y-34110727D01*
D10*
X-22614926Y-34110727D02*
X-25995653Y-30730000D01*
D10*
X-25995653Y-30730000D02*
X-30160000Y-30730000D01*
D10*
X056477000Y042843000D02*
X056477000Y042843000D01*
D10*
X056477000Y042843000D02*
X056051364Y042417364D01*
D10*
X056051364Y042417364D02*
X056051364Y003521103D01*
D10*
X056051364Y003521103D02*
X056051364Y003448636D01*
D10*
X056051364Y003448636D02*
X065500000Y-06000000D01*
D10*
X065500000Y-06000000D02*
X057067027Y-14432973D01*
D10*
X057067027Y-14432973D02*
X057019962Y-14432973D01*
D10*
X057019962Y-14432973D02*
X042401020Y-14432973D01*
D10*
X042401020Y-14432973D02*
X026223834Y-30610158D01*
D10*
X026223834Y-30610158D02*
X025550158Y-30610158D01*
D10*
X025550158Y-30610158D02*
X025497063Y-30557063D01*
D10*
X025497063Y-30557063D02*
X018106937Y-30557063D01*
D10*
X018106937Y-30557063D02*
X015567000Y-33097000D01*
D10*
X015567000Y-33097000D02*
X015567000Y-33097000D01*
D10*
X-48405000Y017001000D02*
X-48405000Y017001000D01*
D10*
X-48405000Y017001000D02*
X-14593000Y-16811000D01*
D10*
X-14593000Y-16811000D02*
X-03199000Y-16811000D01*
D10*
X-03199000Y-16811000D02*
X-03199000Y-16811000D01*
D10*
X-02055000Y-16981000D02*
X-02055000Y-16981000D01*
D10*
X-02055000Y-16981000D02*
X-01893709Y-17142291D01*
D10*
X-01893709Y-17142291D02*
X-01879406Y-17142291D01*
D10*
X-01879406Y-17142291D02*
X000650399Y-19672097D01*
D10*
X000650399Y-19672097D02*
X000650399Y-19828690D01*
D10*
X000650399Y-19828690D02*
X002660690Y-19828690D01*
D10*
X002660690Y-19828690D02*
X004419000Y-21587000D01*
D10*
X004419000Y-21587000D02*
X004419000Y-21587000D01*
D10*
X009124000Y-21377000D02*
X009124000Y-21377000D01*
D10*
X009124000Y-21377000D02*
X009239023Y-21492023D01*
D10*
X009239023Y-21492023D02*
X009239023Y-21542503D01*
D10*
X009239023Y-21542503D02*
X014025000Y-26328481D01*
D10*
X014025000Y-26328481D02*
X014025000Y-31309000D01*
D10*
X014025000Y-31309000D02*
X014025000Y-31309000D01*
D10*
X-47400000Y011000000D02*
X-47400000Y011000000D01*
D10*
X-47400000Y011000000D02*
X-47432367Y010967633D01*
D10*
X-47432367Y010967633D02*
X-47432367Y010895056D01*
D10*
X-47432367Y010895056D02*
X-58327423Y000000000D01*
D10*
X-58327423Y000000000D02*
X-65460000Y000000000D01*
D10*
X-61621000Y-10823000D02*
X-61621000Y-10823000D01*
D10*
X-61621000Y-10823000D02*
X-61633432Y-10835432D01*
D10*
X-61633432Y-10835432D02*
X-65460000Y-14662000D01*
D10*
X-65460000Y-14662000D02*
X-65460000Y-15000000D01*
D11*
X038000000Y036060000D02*
X037362000Y035422000D01*
D11*
X037362000Y035422000D02*
X036724000Y034784000D01*
D11*
X036724000Y034784000D02*
X036086000Y034146000D01*
D11*
X036086000Y034146000D02*
X035448000Y033508000D01*
D11*
X035448000Y033508000D02*
X034810000Y032870000D01*
D11*
X034810000Y032870000D02*
X034172000Y032232000D01*
D11*
X034172000Y032232000D02*
X033191333Y032232000D01*
D11*
X033191333Y032232000D02*
X032210667Y032232000D01*
D11*
X032210667Y032232000D02*
X031230000Y032232000D01*
D11*
X031230000Y032232000D02*
X030249333Y032232000D01*
D11*
X030249333Y032232000D02*
X029268667Y032232000D01*
D11*
X029268667Y032232000D02*
X028288000Y032232000D01*
D11*
X028288000Y032232000D02*
X027307333Y032232000D01*
D11*
X027307333Y032232000D02*
X026326667Y032232000D01*
D11*
X026326667Y032232000D02*
X025346000Y032232000D01*
D11*
X025346000Y032232000D02*
X024365333Y032232000D01*
D11*
X024365333Y032232000D02*
X023384667Y032232000D01*
D12*
X023384667Y032232000D02*
X022404000Y032232000D01*
D12*
X022404000Y032232000D02*
X022404000Y032232000D01*
D13*
X010855000Y016412000D02*
X010855000Y016412000D01*
D13*
X010855000Y016412000D02*
X010803163Y016360163D01*
D13*
X010803163Y016360163D02*
X010803163Y016213334D01*
D13*
X010803163Y016213334D02*
X010666000Y016076172D01*
D14*
X010666000Y016076172D02*
X010666000Y015273000D01*
D14*
X010666000Y015273000D02*
X010666000Y015273000D01*
D15*
X006805000Y015633000D02*
X006805000Y015633000D01*
D15*
X006805000Y015633000D02*
X006788413Y015616413D01*
D15*
X006788413Y015616413D02*
X006785206Y015616413D01*
D16*
X006785206Y015616413D02*
X006365500Y015196707D01*
D16*
X006365500Y015196707D02*
X005945793Y014777000D01*
D11*
X005945793Y014777000D02*
X005884000Y014777000D01*
D11*
X005884000Y014777000D02*
X005884000Y014777000D01*
D11*
X-14942000Y037500000D02*
X-14942000Y037500000D01*
D11*
X-14942000Y037500000D02*
X-11905272Y037500000D01*
D11*
X-11905272Y037500000D02*
X-11301688Y036896416D01*
D11*
X-11301688Y036896416D02*
X-11296416Y036896416D01*
D11*
X-11296416Y036896416D02*
X-11200000Y036800000D01*
D11*
X-11200000Y036800000D02*
X-11200000Y036800000D01*
D11*
X058952000Y-14647000D02*
X058952000Y-14647000D01*
D11*
X058952000Y-14647000D02*
X058968376Y-14663376D01*
D11*
X058968376Y-14663376D02*
X058968376Y-15486376D01*
D11*
X058968376Y-15486376D02*
X058968376Y-16309376D01*
D11*
X058968376Y-16309376D02*
X058968376Y-17132376D01*
D11*
X058968376Y-17132376D02*
X058968376Y-17955376D01*
D11*
X058968376Y-17955376D02*
X058968376Y-18778376D01*
D11*
X058968376Y-18778376D02*
X058614823Y-19131929D01*
D11*
X058614823Y-19131929D02*
X063836447Y-24353553D01*
D11*
X063836447Y-24353553D02*
X064190000Y-24000000D01*
D11*
X-09840000Y-25650000D02*
X-30160000Y-25650000D01*
D11*
X001570000Y011670000D02*
X002053128Y011186872D01*
D11*
X002053128Y011186872D02*
X002536256Y010703744D01*
D11*
X002536256Y010703744D02*
X003019384Y010220616D01*
D11*
X003019384Y010220616D02*
X003019384Y009620588D01*
D11*
X003019384Y009620588D02*
X003019384Y009020561D01*
D11*
X003019384Y009020561D02*
X003019384Y009003616D01*
D11*
X003019384Y009003616D02*
X003021000Y009002000D01*
D11*
X003021000Y009002000D02*
X003021000Y009002000D01*
D11*
X005197000Y005368000D02*
X005197000Y005368000D01*
D11*
X005197000Y005368000D02*
X005197000Y004511059D01*
D11*
X005197000Y004511059D02*
X005197000Y003654118D01*
D11*
X005197000Y003654118D02*
X005197000Y002797177D01*
D11*
X005197000Y002797177D02*
X005499137Y002495040D01*
D11*
X005499137Y002495040D02*
X005499137Y002487863D01*
D11*
X005499137Y002487863D02*
X005574000Y002413000D01*
D11*
X005574000Y002413000D02*
X005574000Y002413000D01*
D17*
X007809000Y002887000D02*
X007809000Y002887000D01*
D17*
X007809000Y002887000D02*
X008726000Y002887000D01*
D17*
X008726000Y002887000D02*
X008956536Y003117536D01*
D16*
X008956536Y003117536D02*
X008997000Y003158000D01*
D16*
X008997000Y003158000D02*
X008997000Y003158000D01*
D11*
X011643000Y003987000D02*
X011643000Y003987000D01*
D11*
X011643000Y003987000D02*
X011643000Y004923212D01*
D11*
X011643000Y004923212D02*
X011643000Y005859424D01*
D11*
X011643000Y005859424D02*
X011643000Y006795636D01*
D11*
X011643000Y006795636D02*
X012304451Y007457087D01*
D11*
X012304451Y007457087D02*
X012304451Y007542451D01*
D11*
X012304451Y007542451D02*
X012384000Y007622000D01*
D11*
X012384000Y007622000D02*
X012384000Y007622000D01*
D11*
X044190000Y-24000000D02*
X044013223Y-23823223D01*
D11*
X044013223Y-23823223D02*
X037652023Y-30184423D01*
D11*
X037652023Y-30184423D02*
X031467600Y-36368847D01*
D11*
X031467600Y-36368847D02*
X031467600Y-36722400D01*
D11*
X031467600Y-36722400D02*
X030760800Y-37429200D01*
D11*
X030760800Y-37429200D02*
X030054000Y-38136000D01*
D11*
X030054000Y-38136000D02*
X029347200Y-38842800D01*
D11*
X029347200Y-38842800D02*
X028640400Y-39549600D01*
D11*
X028640400Y-39549600D02*
X027933600Y-40256400D01*
D11*
X027933600Y-40256400D02*
X027226800Y-40963200D01*
D11*
X027226800Y-40963200D02*
X026520000Y-41670000D01*
D11*
X026520000Y-41670000D02*
X025823333Y-41670000D01*
D11*
X025823333Y-41670000D02*
X025126667Y-41670000D01*
D11*
X025126667Y-41670000D02*
X024430000Y-41670000D01*
D11*
X040000000Y-08800000D02*
X040000000Y-08800000D01*
D11*
X040000000Y-08800000D02*
X039922617Y-08722617D01*
D11*
X039922617Y-08722617D02*
X039922617Y-08640748D01*
D11*
X039922617Y-08640748D02*
X039673000Y-08391131D01*
D11*
X039673000Y-08391131D02*
X039673000Y-07408609D01*
D11*
X039673000Y-07408609D02*
X039673000Y-06426087D01*
D11*
X039673000Y-06426087D02*
X039673000Y-05443565D01*
D11*
X039673000Y-05443565D02*
X039673000Y-04461044D01*
D11*
X039673000Y-04461044D02*
X039673000Y-03478522D01*
D11*
X039673000Y-03478522D02*
X039673000Y-02496000D01*
D11*
X039673000Y-02496000D02*
X039673000Y-02496000D01*
D18*
X029224000Y006690000D02*
X029224000Y006690000D01*
D18*
X029224000Y006690000D02*
X029188946Y006725054D01*
D18*
X029188946Y006725054D02*
X029183588Y006725054D01*
D19*
X029183588Y006725054D02*
X028582351Y007326290D01*
D17*
X028582351Y007326290D02*
X027981115Y007927527D01*
D11*
X027981115Y007927527D02*
X027379878Y008528763D01*
D11*
X027379878Y008528763D02*
X026778642Y009130000D01*
D11*
X026778642Y009130000D02*
X025995761Y009130000D01*
D11*
X025995761Y009130000D02*
X025212881Y009130000D01*
D11*
X025212881Y009130000D02*
X024430000Y009130000D01*
D11*
X024430000Y-41670000D02*
X023488657Y-41670000D01*
D11*
X023488657Y-41670000D02*
X022547314Y-41670000D01*
D11*
X022547314Y-41670000D02*
X021605971Y-41670000D01*
D11*
X021605971Y-41670000D02*
X020664628Y-41670000D01*
D11*
X020664628Y-41670000D02*
X019723285Y-41670000D01*
D11*
X019723285Y-41670000D02*
X018781942Y-41670000D01*
D11*
X018781942Y-41670000D02*
X017840599Y-41670000D01*
D11*
X017840599Y-41670000D02*
X016899256Y-41670000D01*
D11*
X016899256Y-41670000D02*
X015957913Y-41670000D01*
D11*
X015957913Y-41670000D02*
X015016570Y-41670000D01*
D11*
X015016570Y-41670000D02*
X014075227Y-41670000D01*
D11*
X014075227Y-41670000D02*
X013133884Y-41670000D01*
D11*
X013133884Y-41670000D02*
X012192541Y-41670000D01*
D11*
X012192541Y-41670000D02*
X011251198Y-41670000D01*
D11*
X011251198Y-41670000D02*
X010588971Y-41007773D01*
D11*
X010588971Y-41007773D02*
X009926744Y-40345546D01*
D11*
X009926744Y-40345546D02*
X009264517Y-39683319D01*
D11*
X009264517Y-39683319D02*
X008602290Y-39021092D01*
D11*
X008602290Y-39021092D02*
X007940063Y-38358864D01*
D11*
X007940063Y-38358864D02*
X007277835Y-37696637D01*
D11*
X007277835Y-37696637D02*
X006615608Y-37034410D01*
D11*
X006615608Y-37034410D02*
X005953381Y-36372183D01*
D11*
X005953381Y-36372183D02*
X005291154Y-35709956D01*
D11*
X005291154Y-35709956D02*
X004628927Y-35047729D01*
D11*
X004628927Y-35047729D02*
X003966700Y-34385502D01*
D11*
X003966700Y-34385502D02*
X003233350Y-34849001D01*
D20*
X003233350Y-34849001D02*
X002500000Y-35312500D01*
D21*
X002500000Y-35312500D02*
X001562500Y-35312500D01*
D21*
X001562500Y-35312500D02*
X000625000Y-35312500D01*
D22*
X000625000Y-35312500D02*
X000312500Y-35000000D01*
D22*
X000312500Y-35000000D02*
X000137682Y-34353682D01*
D15*
X000137682Y-34353682D02*
X-00037136Y-33707365D01*
D11*
X-00037136Y-33707365D02*
X-00211954Y-33061047D01*
D11*
X-00211954Y-33061047D02*
X-05083001Y-28190000D01*
D11*
X-05083001Y-28190000D02*
X-05664817Y-28190000D01*
D11*
X-05664817Y-28190000D02*
X-09840000Y-28190000D01*
D10*
X069440000Y-36254000D02*
X069440000Y-36254000D01*
D10*
X069440000Y-36254000D02*
X069435402Y-36258598D01*
D10*
X069435402Y-36258598D02*
X069435402Y-36467212D01*
D10*
X069435402Y-36467212D02*
X069435402Y-38700691D01*
D10*
X069435402Y-38700691D02*
X063590904Y-44545188D01*
D10*
X063590904Y-44545188D02*
X059914812Y-44545188D01*
D10*
X059914812Y-44545188D02*
X058095000Y-46365000D01*
D10*
X063018000Y-42578000D02*
X063018000Y-42578000D01*
D10*
X063018000Y-42578000D02*
X063012392Y-42583608D01*
D10*
X063012392Y-42583608D02*
X061501000Y-44095000D01*
D10*
X061501000Y-44095000D02*
X061501000Y-44205000D01*
D10*
X061501000Y-44205000D02*
X061501000Y-44205000D01*
D10*
X059980000Y-28350000D02*
X059980000Y-28350000D01*
D10*
X059980000Y-28350000D02*
X059991112Y-28361112D01*
D10*
X059991112Y-28361112D02*
X059991112Y-28416792D01*
D10*
X059991112Y-28416792D02*
X060174000Y-28599680D01*
D10*
X060174000Y-28599680D02*
X060174000Y-30590000D01*
D10*
X060174000Y-30590000D02*
X060174000Y-30590000D01*
D10*
X062920000Y-30000000D02*
X065810000Y-30000000D01*
D10*
X065810000Y-30000000D02*
X071810000Y-24000000D01*
D10*
X056970000Y-34157000D02*
X056970000Y-34157000D01*
D10*
X056970000Y-34157000D02*
X056914575Y-34212425D01*
D10*
X056914575Y-34212425D02*
X056809749Y-34212425D01*
D10*
X056809749Y-34212425D02*
X053761740Y-34212425D01*
D10*
X053761740Y-34212425D02*
X043543491Y-44430674D01*
D10*
X043543491Y-44430674D02*
X040029326Y-44430674D01*
D10*
X040029326Y-44430674D02*
X038095000Y-46365000D01*
D10*
X042655000Y-43335000D02*
X042655000Y-43335000D01*
D10*
X042655000Y-43335000D02*
X042571483Y-43418517D01*
D10*
X042571483Y-43418517D02*
X041921000Y-44069000D01*
D10*
X041921000Y-44069000D02*
X040843000Y-44069000D01*
D10*
X040843000Y-44069000D02*
X040843000Y-44069000D01*
D10*
X037909000Y-28594000D02*
X037909000Y-28594000D01*
D10*
X037909000Y-28594000D02*
X036582750Y-28594000D01*
D10*
X036582750Y-28594000D02*
X036460605Y-28716145D01*
D10*
X036460605Y-28716145D02*
X036355855Y-28716145D01*
D10*
X036355855Y-28716145D02*
X036342000Y-28730000D01*
D10*
X036342000Y-28730000D02*
X036342000Y-28730000D01*
D10*
X045469000Y-19746000D02*
X045469000Y-19746000D01*
D10*
X045469000Y-19746000D02*
X045460919Y-19754081D01*
D10*
X045460919Y-19754081D02*
X044190000Y-21025000D01*
D10*
X044190000Y-21025000D02*
X044190000Y-21460000D01*
D10*
X046076414Y-11279037D02*
X046076414Y-11279037D01*
D10*
X046076414Y-11279037D02*
X046093656Y-11296278D01*
D10*
X046093656Y-11296278D02*
X046200000Y-11402623D01*
D10*
X046200000Y-11402623D02*
X046200000Y-14000000D01*
D10*
X046200000Y-14000000D02*
X046200000Y-14000000D01*
D10*
X056506000Y041845000D02*
X056506000Y041845000D01*
D10*
X056506000Y041845000D02*
X056452045Y041791045D01*
D10*
X056452045Y041791045D02*
X056452045Y041627497D01*
D10*
X056452045Y041627497D02*
X056400000Y041575452D01*
D10*
X056400000Y041575452D02*
X056400000Y040400000D01*
D10*
X056400000Y040400000D02*
X056400000Y040400000D01*
D11*
X-64540000Y025292500D02*
X-57103000Y032730000D01*
D11*
X-57103000Y032730000D02*
X-44160000Y032730000D01*
D46*
X018880000Y-10300000D03*
D46*
X005577000Y-04817000D03*
D46*
X004208000Y-00848000D03*
D46*
X-26154000Y-32249000D03*
D46*
X018783000Y-09033000D03*
D46*
X-03031000Y-22352000D03*
D46*
X-03372000Y-23381000D03*
D46*
X-21647000Y-32811000D03*
D46*
X045296000Y-19158000D03*
D46*
X028410000Y-03032000D03*
D46*
X026554000Y016370000D03*
D46*
X025980000Y-30240000D03*
D46*
X021810000Y002182000D03*
D46*
X022221000Y-12217000D03*
D46*
X027106000Y-14434000D03*
D46*
X027109000Y-16765000D03*
D46*
X021100000Y026214000D03*
D46*
X010384000Y020417000D03*
D46*
X010017000Y014784000D03*
D46*
X005657000Y-02199000D03*
D46*
X004366000Y-09251000D03*
D46*
X010971000Y000846000D03*
D46*
X010776000Y-06192000D03*
D46*
X011959000Y028447000D03*
D46*
X005417000Y-18630000D03*
D46*
X007654000Y-10793000D03*
D46*
X010438000Y-12364000D03*
D46*
X009626000Y-21382000D03*
D46*
X009910000Y002805000D03*
D46*
X011599000Y002434000D03*
D46*
X011600000Y-10993000D03*
D46*
X009384000Y-14212000D03*
D46*
X008597000Y-23325000D03*
D46*
X005423000Y036588000D03*
D46*
X-09406000Y-16170000D03*
D46*
X-08594000Y-17422000D03*
D46*
X002772000Y-32612000D03*
D46*
X037634000Y002545000D03*
D46*
X035761000Y-01173000D03*
D46*
X-04999000Y-36212000D03*
D46*
X-06583000Y-36378000D03*
D46*
X-22585000Y-34179000D03*
D46*
X056477000Y042843000D03*
D46*
X015567000Y-33097000D03*
D46*
X-48405000Y017001000D03*
D46*
X-03199000Y-16811000D03*
D46*
X-02055000Y-16981000D03*
D46*
X004419000Y-21587000D03*
D46*
X009124000Y-21377000D03*
D46*
X014025000Y-31309000D03*
D46*
X-47400000Y011000000D03*
D46*
X-61621000Y-10823000D03*
D46*
X022404000Y032232000D03*
D46*
X010855000Y016412000D03*
D46*
X010666000Y015273000D03*
D46*
X006805000Y015633000D03*
D46*
X005884000Y014777000D03*
D46*
X-14942000Y037500000D03*
D46*
X-11200000Y036800000D03*
D46*
X058952000Y-14647000D03*
D46*
X003021000Y009002000D03*
D46*
X005197000Y005368000D03*
D46*
X005574000Y002413000D03*
D46*
X007809000Y002887000D03*
D46*
X008997000Y003158000D03*
D46*
X011643000Y003987000D03*
D46*
X012384000Y007622000D03*
D46*
X040000000Y-08800000D03*
D46*
X039673000Y-02496000D03*
D46*
X029224000Y006690000D03*
D46*
X069440000Y-36254000D03*
D46*
X063018000Y-42578000D03*
D46*
X061501000Y-44205000D03*
D46*
X059980000Y-28350000D03*
D46*
X060174000Y-30590000D03*
D46*
X056970000Y-34157000D03*
D46*
X042655000Y-43335000D03*
D46*
X040843000Y-44069000D03*
D46*
X037909000Y-28594000D03*
D46*
X036342000Y-28730000D03*
D46*
X045469000Y-19746000D03*
D46*
X046076414Y-11279037D03*
D46*
X046200000Y-14000000D03*
D46*
X056506000Y041845000D03*
D46*
X056400000Y040400000D03*
%LPC*%
D23*
X-75000000Y-45000000D03*
%LPD*%
%LPC*%
D23*
X075000000Y-45000000D03*
%LPD*%
%LPC*%
D23*
X-75000000Y045000000D03*
%LPD*%
%LPC*%
D23*
X075000000Y045000000D03*
%LPD*%
%LPC*%
D29*
X-69747000Y043707500D03*
%LPD*%
%LPC*%
D29*
X-54507000Y043707500D03*
%LPD*%
%LPC*%
D32*
X-44541000Y044541000D03*
%LPD*%
%LPC*%
D32*
X-44541000Y023459000D03*
%LPD*%
%LPC*%
D32*
X-23459000Y044541000D03*
%LPD*%
%LPC*%
D45*
X045080000Y-39380000D03*
%LPD*%
%LPC*%
D45*
X034920000Y-39380000D03*
%LPD*%
%LPC*%
D45*
X065080000Y-39380000D03*
%LPD*%
%LPC*%
D45*
X054920000Y-39380000D03*
%LPD*%
M02*