%TF.GenerationSoftware,tscircuit,circuit-json-to-gerber,0.0.93*%
%TF.CreationDate,2026-08-26T23:11:26.585Z*%
%TF.SameCoordinates,Original*%
%TF.FileFunction,Copper,L2,Bot*%
%TF.FilePolarity,Positive*%
%FSLAX46Y46*%
%MOMM*%
G04 Gerber Fmt 4.6, Leading zero omitted, Abs format (unit mm)*
G04 Created by tscircuit (builder) date 2026-08-26T23:11:26.585Z*
G01*
%LPD*%
G75*
G04 APERTURE MACROS START*
%AMHORZPILL*
0 Horizontal pill (stadium) shape macro*
0 Parameters:*
0 $1 = Total width*
0 $2 = Total height*
0 $3 = Circle diameter (equal to height)*
0 $4 = Circle center offset
0 21 = Center Line(Exposure, Width, Height, Center X, Center Y, Rotation)*
0 1 = Circle(Exposure, Diameter, Center X, Center Y, Rotation)*
21,1,$1-$3,$2,0.0,0.0,0.0*
1,1,$3,0.0-$4,0.0*
1,1,$3,$4,0.0*%
%AMVERTPILL*
0 Vertical pill (stadium) shape macro*
0 Parameters:*
0 $1 = Total width*
0 $2 = Total height*
0 $3 = Circle diameter (equal to width)*
0 $4 = Circle center offset
0 21 = Center Line(Exposure, Width, Height, Center X, Center Y, Rotation)*
21,1,$1,$2-$3,0.0,0.0,0.0*
1,1,$3,0.0,0.0-$4*
1,1,$3,0.0,$4*%
%AMROUNDRECT*
0 Rectangle with rounded corners*
0 $1 Corner radius*
0 $2 $3 $4 $5 $6 $7 $8 $9 X,Y Position of each corner*
0 Polygon box body*
4,1,4,$2,$3,$4,$5,$6,$7,$8,$9,$2,$3,0*
0 Circles for rounded corners*
1,1,$1+$1,$2,$3*
1,1,$1+$1,$4,$5*
1,1,$1+$1,$6,$7*
1,1,$1+$1,$8,$9*
0 Rectangles between the rounded corners*
20,1,$1+$1,$2,$3,$4,$5,0*
20,1,$1+$1,$4,$5,$6,$7,0*
20,1,$1+$1,$6,$7,$8,$9,0*
20,1,$1+$1,$8,$9,$2,$3,0*%
G04 APERTURE MACROS END*
G04 aperture START LIST*
%ADD10C,0.150000*%
%ADD11C,1.000000*%
%ADD12C,0.750000*%
%ADD13C,3.200000*%
%ADD14R,1.500000X1.500000*%
%ADD15C,1.500000*%
%ADD16C,0.063000*%
%ADD17C,0.200000*%
%ADD18C,0.108000*%
%ADD19C,2.500000*%
%ADD20R,3.000000X3.000000*%
%ADD21C,0.081000*%
%ADD22R,1.800000X1.800000*%
%ADD23C,2.180000*%
%ADD24C,0.090000*%
%ADD25C,0.100000*%
%ADD26R,1.700000X1.700000*%
%ADD27C,0.120000*%
%ADD28C,0.036000*%
%ADD29R,2.000000X2.000000*%
%ADD30R,2.200000X2.200000*%
%ADD31C,0.150000*%
%ADD32C,0.045000*%
%ADD33C,0.300000*%
%ADD34C,0.001000*%
%TD*%
G04 aperture END LIST*
D34*
G36*
X079500000Y049500000D02*
G01*
X-79500000Y049500000D01*
G01*
X-79500000Y-49500000D01*
G01*
X079500000Y-49500000D01*
G01*
X079500000Y049500000D01*
G37*
%LPC*%
D34*
G36*
X-69747000Y044366500D02*
G01*
X-69454365Y044395322D01*
G01*
X-69172975Y044480681D01*
G01*
X-68913645Y044619296D01*
G01*
X-68686340Y044805840D01*
G01*
X-68499796Y045033145D01*
G01*
X-68361181Y045292475D01*
G01*
X-68275822Y045573865D01*
G01*
X-68247000Y045866500D01*
G01*
X-68275822Y046159135D01*
G01*
X-68361181Y046440525D01*
G01*
X-68499796Y046699855D01*
G01*
X-68686340Y046927160D01*
G01*
X-68913645Y047113704D01*
G01*
X-69172975Y047252319D01*
G01*
X-69454365Y047337678D01*
G01*
X-69747000Y047366500D01*
G01*
X-70039635Y047337678D01*
G01*
X-70321025Y047252319D01*
G01*
X-70580355Y047113704D01*
G01*
X-70807660Y046927160D01*
G01*
X-70994204Y046699855D01*
G01*
X-71132819Y046440525D01*
G01*
X-71218178Y046159135D01*
G01*
X-71247000Y045866500D01*
G01*
X-71218178Y045573865D01*
G01*
X-71132819Y045292475D01*
G01*
X-70994204Y045033145D01*
G01*
X-70807660Y044805840D01*
G01*
X-70580355Y044619296D01*
G01*
X-70321025Y044480681D01*
G01*
X-70039635Y044395322D01*
G01*
X-69747000Y044366500D01*
G37*
D34*
G36*
X-54507000Y044366500D02*
G01*
X-54214365Y044395322D01*
G01*
X-53932975Y044480681D01*
G01*
X-53673645Y044619296D01*
G01*
X-53446340Y044805840D01*
G01*
X-53259796Y045033145D01*
G01*
X-53121181Y045292475D01*
G01*
X-53035822Y045573865D01*
G01*
X-53007000Y045866500D01*
G01*
X-53035822Y046159135D01*
G01*
X-53121181Y046440525D01*
G01*
X-53259796Y046699855D01*
G01*
X-53446340Y046927160D01*
G01*
X-53673645Y047113704D01*
G01*
X-53932975Y047252319D01*
G01*
X-54214365Y047337678D01*
G01*
X-54507000Y047366500D01*
G01*
X-54799635Y047337678D01*
G01*
X-55081025Y047252319D01*
G01*
X-55340355Y047113704D01*
G01*
X-55567660Y046927160D01*
G01*
X-55754204Y046699855D01*
G01*
X-55892819Y046440525D01*
G01*
X-55978178Y046159135D01*
G01*
X-56007000Y045866500D01*
G01*
X-55978178Y045573865D01*
G01*
X-55892819Y045292475D01*
G01*
X-55754204Y045033145D01*
G01*
X-55567660Y044805840D01*
G01*
X-55340355Y044619296D01*
G01*
X-55081025Y044480681D01*
G01*
X-54799635Y044395322D01*
G01*
X-54507000Y044366500D01*
G37*
D34*
G36*
X-75000000Y043150000D02*
G01*
X-74639083Y043185547D01*
G01*
X-74292036Y043290823D01*
G01*
X-73972195Y043461781D01*
G01*
X-73691852Y043691852D01*
G01*
X-73461781Y043972195D01*
G01*
X-73290823Y044292036D01*
G01*
X-73185547Y044639083D01*
G01*
X-73150000Y045000000D01*
G01*
X-73185547Y045360917D01*
G01*
X-73290823Y045707964D01*
G01*
X-73461781Y046027805D01*
G01*
X-73691852Y046308148D01*
G01*
X-73972195Y046538219D01*
G01*
X-74292036Y046709177D01*
G01*
X-74639083Y046814453D01*
G01*
X-75000000Y046850000D01*
G01*
X-75360917Y046814453D01*
G01*
X-75707964Y046709177D01*
G01*
X-76027805Y046538219D01*
G01*
X-76308148Y046308148D01*
G01*
X-76538219Y046027805D01*
G01*
X-76709177Y045707964D01*
G01*
X-76814453Y045360917D01*
G01*
X-76850000Y045000000D01*
G01*
X-76814453Y044639083D01*
G01*
X-76709177Y044292036D01*
G01*
X-76538219Y043972195D01*
G01*
X-76308148Y043691852D01*
G01*
X-76027805Y043461781D01*
G01*
X-75707964Y043290823D01*
G01*
X-75360917Y043185547D01*
G01*
X-75000000Y043150000D01*
G37*
D34*
G36*
X075000000Y043150000D02*
G01*
X075360917Y043185547D01*
G01*
X075707964Y043290823D01*
G01*
X076027805Y043461781D01*
G01*
X076308148Y043691852D01*
G01*
X076538219Y043972195D01*
G01*
X076709177Y044292036D01*
G01*
X076814453Y044639083D01*
G01*
X076850000Y045000000D01*
G01*
X076814453Y045360917D01*
G01*
X076709177Y045707964D01*
G01*
X076538219Y046027805D01*
G01*
X076308148Y046308148D01*
G01*
X076027805Y046538219D01*
G01*
X075707964Y046709177D01*
G01*
X075360917Y046814453D01*
G01*
X075000000Y046850000D01*
G01*
X074639083Y046814453D01*
G01*
X074292036Y046709177D01*
G01*
X073972195Y046538219D01*
G01*
X073691852Y046308148D01*
G01*
X073461781Y046027805D01*
G01*
X073290823Y045707964D01*
G01*
X073185547Y045360917D01*
G01*
X073150000Y045000000D01*
G01*
X073185547Y044639083D01*
G01*
X073290823Y044292036D01*
G01*
X073461781Y043972195D01*
G01*
X073691852Y043691852D01*
G01*
X073972195Y043461781D01*
G01*
X074292036Y043290823D01*
G01*
X074639083Y043185547D01*
G01*
X075000000Y043150000D01*
G37*
D34*
G36*
X-23400000Y043260000D02*
G01*
X-23138579Y043285748D01*
G01*
X-22887204Y043362001D01*
G01*
X-22655536Y043485831D01*
G01*
X-22452477Y043652477D01*
G01*
X-22285831Y043855536D01*
G01*
X-22162001Y044087204D01*
G01*
X-22085748Y044338579D01*
G01*
X-22060000Y044600000D01*
G01*
X-22085748Y044861421D01*
G01*
X-22162001Y045112796D01*
G01*
X-22285831Y045344464D01*
G01*
X-22452477Y045547523D01*
G01*
X-22655536Y045714169D01*
G01*
X-22887204Y045837999D01*
G01*
X-23138579Y045914252D01*
G01*
X-23400000Y045940000D01*
G01*
X-23661421Y045914252D01*
G01*
X-23912796Y045837999D01*
G01*
X-24144464Y045714169D01*
G01*
X-24347523Y045547523D01*
G01*
X-24514169Y045344464D01*
G01*
X-24637999Y045112796D01*
G01*
X-24714252Y044861421D01*
G01*
X-24740000Y044600000D01*
G01*
X-24714252Y044338579D01*
G01*
X-24637999Y044087204D01*
G01*
X-24514169Y043855536D01*
G01*
X-24347523Y043652477D01*
G01*
X-24144464Y043485831D01*
G01*
X-23912796Y043362001D01*
G01*
X-23661421Y043285748D01*
G01*
X-23400000Y043260000D01*
G37*
D34*
G36*
X-45310000Y039200000D02*
G01*
X-43010000Y039200000D01*
G01*
X-43010000Y041500000D01*
G01*
X-45310000Y041500000D01*
G01*
X-45310000Y039200000D01*
G37*
D34*
G36*
X-42770000Y039200000D02*
G01*
X-40470000Y039200000D01*
G01*
X-40470000Y041500000D01*
G01*
X-42770000Y041500000D01*
G01*
X-42770000Y039200000D01*
G37*
D34*
G36*
X063110000Y034650000D02*
G01*
X065810000Y034650000D01*
G01*
X065810000Y037350000D01*
G01*
X063110000Y037350000D01*
G01*
X063110000Y034650000D01*
G37*
D34*
G36*
X068190000Y034650000D02*
G01*
X070890000Y034650000D01*
G01*
X070890000Y037350000D01*
G01*
X068190000Y037350000D01*
G01*
X068190000Y034650000D01*
G37*
D34*
G36*
X-61210000Y015750000D02*
G01*
X-57710000Y015750000D01*
G01*
X-57710000Y018189340D01*
G01*
X-55719670Y020179670D01*
G01*
X-55626398Y020293322D01*
G01*
X-55557090Y020422987D01*
G01*
X-55514411Y020563682D01*
G01*
X-55500000Y020710000D01*
G01*
X-55500000Y022145146D01*
G01*
X-55440660Y022072840D01*
G01*
X-55213355Y021886296D01*
G01*
X-54954025Y021747681D01*
G01*
X-54672635Y021662322D01*
G01*
X-54380000Y021633500D01*
G01*
X-54087365Y021662322D01*
G01*
X-53805975Y021747681D01*
G01*
X-53546645Y021886296D01*
G01*
X-53319340Y022072840D01*
G01*
X-53132796Y022300145D01*
G01*
X-52994181Y022559475D01*
G01*
X-52908822Y022840865D01*
G01*
X-52880000Y023133500D01*
G01*
X-52908822Y023426135D01*
G01*
X-52994181Y023707525D01*
G01*
X-53132796Y023966855D01*
G01*
X-53319340Y024194160D01*
G01*
X-53546645Y024380704D01*
G01*
X-53805975Y024519319D01*
G01*
X-54087365Y024604678D01*
G01*
X-54380000Y024633500D01*
G01*
X-54672635Y024604678D01*
G01*
X-54954025Y024519319D01*
G01*
X-55213355Y024380704D01*
G01*
X-55440660Y024194160D01*
G01*
X-55500000Y024121854D01*
G01*
X-55500000Y024689340D01*
G01*
X-49868973Y030320367D01*
G01*
X-49230847Y030320367D01*
G01*
X-49084529Y030334778D01*
G01*
X-48943835Y030377457D01*
G01*
X-48814169Y030446765D01*
G01*
X-48700517Y030540037D01*
G01*
X-48000578Y031239976D01*
G01*
X-47300639Y031939914D01*
G01*
X-46600700Y032639853D01*
G01*
X-45900762Y033339792D01*
G01*
X-45200823Y034039731D01*
G01*
X-45120554Y034120000D01*
G01*
X-43010000Y034120000D01*
G01*
X-43010000Y036420000D01*
G01*
X-45310000Y036420000D01*
G01*
X-45310000Y035965405D01*
G01*
X-45318226Y035962910D01*
G01*
X-45447892Y035893602D01*
G01*
X-45561544Y035800330D01*
G01*
X-46261483Y035100391D01*
G01*
X-46961422Y034400452D01*
G01*
X-47661361Y033700513D01*
G01*
X-48361299Y033000575D01*
G01*
X-49061238Y032300636D01*
G01*
X-49541507Y031820367D01*
G01*
X-50179633Y031820367D01*
G01*
X-50325951Y031805956D01*
G01*
X-50466646Y031763276D01*
G01*
X-50596311Y031693969D01*
G01*
X-50709963Y031600697D01*
G01*
X-56780330Y025530330D01*
G01*
X-56873602Y025416678D01*
G01*
X-56942910Y025287013D01*
G01*
X-56985589Y025146318D01*
G01*
X-57000000Y025000000D01*
G01*
X-57000000Y021020660D01*
G01*
X-58770660Y019250000D01*
G01*
X-61210000Y019250000D01*
G01*
X-61210000Y015750000D01*
G37*
D34*
G36*
X-42770000Y034120000D02*
G01*
X-40470000Y034120000D01*
G01*
X-40470000Y036420000D01*
G01*
X-42770000Y036420000D01*
G01*
X-42770000Y034120000D01*
G37*
D34*
G36*
X-45310000Y031580000D02*
G01*
X-43010000Y031580000D01*
G01*
X-43010000Y033880000D01*
G01*
X-45310000Y033880000D01*
G01*
X-45310000Y031580000D01*
G37*
D34*
G36*
X-42770000Y031580000D02*
G01*
X-40470000Y031580000D01*
G01*
X-40470000Y033880000D01*
G01*
X-42770000Y033880000D01*
G01*
X-42770000Y031580000D01*
G37*
D34*
G36*
X-45310000Y029040000D02*
G01*
X-43010000Y029040000D01*
G01*
X-43010000Y031340000D01*
G01*
X-45310000Y031340000D01*
G01*
X-45310000Y029040000D01*
G37*
D34*
G36*
X-42770000Y029040000D02*
G01*
X-40470000Y029040000D01*
G01*
X-40470000Y031340000D01*
G01*
X-42770000Y031340000D01*
G01*
X-42770000Y029040000D01*
G37*
D34*
G36*
X-45310000Y026500000D02*
G01*
X-43010000Y026500000D01*
G01*
X-43010000Y028800000D01*
G01*
X-45310000Y028800000D01*
G01*
X-45310000Y026500000D01*
G37*
D34*
G36*
X-42770000Y026500000D02*
G01*
X-40470000Y026500000D01*
G01*
X-40470000Y028800000D01*
G01*
X-42770000Y028800000D01*
G01*
X-42770000Y026500000D01*
G37*
D34*
G36*
X067020000Y025750000D02*
G01*
X069520000Y025750000D01*
G01*
X069520000Y028250000D01*
G01*
X067020000Y028250000D01*
G01*
X067020000Y025750000D01*
G37*
D34*
G36*
X063460000Y007000000D02*
G01*
X065460000Y007000000D01*
G01*
X065460000Y009000000D01*
G01*
X064520660Y009000000D01*
G01*
X064290889Y009229771D01*
G01*
X063591448Y009929212D01*
G01*
X062892007Y010628653D01*
G01*
X062192567Y011328094D01*
G01*
X061493126Y012027534D01*
G01*
X060793685Y012726975D01*
G01*
X060094244Y013426416D01*
G01*
X059394803Y014125857D01*
G01*
X058695362Y014825298D01*
G01*
X057995921Y015524739D01*
G01*
X057882269Y015618011D01*
G01*
X057752604Y015687318D01*
G01*
X057611909Y015729998D01*
G01*
X057465591Y015744409D01*
G01*
X056487204Y015744409D01*
G01*
X055508817Y015744409D01*
G01*
X054530430Y015744409D01*
G01*
X053552043Y015744409D01*
G01*
X052573656Y015744409D01*
G01*
X051595269Y015744409D01*
G01*
X050616882Y015744409D01*
G01*
X049638494Y015744409D01*
G01*
X048660107Y015744409D01*
G01*
X047681720Y015744409D01*
G01*
X046703333Y015744409D01*
G01*
X045724946Y015744409D01*
G01*
X045597299Y015744409D01*
G01*
X045744083Y016905972D01*
G01*
X045740780Y016906389D01*
G01*
X045750000Y017000000D01*
G01*
X045735589Y017146318D01*
G01*
X045692910Y017287013D01*
G01*
X045623602Y017416678D01*
G01*
X045530330Y017530330D01*
G01*
X045416678Y017623602D01*
G01*
X045376344Y017645161D01*
G01*
X045377903Y017647834D01*
G01*
X044627903Y018085334D01*
G01*
X044626344Y018082661D01*
G01*
X044537013Y018130410D01*
G01*
X044396318Y018173089D01*
G01*
X044372981Y018175387D01*
G01*
X044373299Y018177295D01*
G01*
X043623299Y018302295D01*
G01*
X042873299Y018427295D01*
G01*
X042123299Y018552295D01*
G01*
X042122981Y018550387D01*
G01*
X042000000Y018562500D01*
G01*
X041853682Y018548089D01*
G01*
X041712987Y018505410D01*
G01*
X041690708Y018493502D01*
G01*
X041691470Y018494430D01*
G01*
X041783880Y018667317D01*
G01*
X041840785Y018854910D01*
G01*
X041860000Y019050000D01*
G01*
X041840785Y019245090D01*
G01*
X041783880Y019432683D01*
G01*
X041691470Y019605570D01*
G01*
X041567107Y019757107D01*
G01*
X041415570Y019881470D01*
G01*
X041242683Y019973880D01*
G01*
X041055090Y020030785D01*
G01*
X040860000Y020050000D01*
G01*
X040664910Y020030785D01*
G01*
X040477317Y019973880D01*
G01*
X040304430Y019881470D01*
G01*
X040152893Y019757107D01*
G01*
X040028530Y019605570D01*
G01*
X039936120Y019432683D01*
G01*
X039879215Y019245090D01*
G01*
X039860000Y019050000D01*
G01*
X039879215Y018854910D01*
G01*
X039936120Y018667317D01*
G01*
X040028530Y018494430D01*
G01*
X040075251Y018437500D01*
G01*
X039750000Y018437500D01*
G01*
X039628069Y018425491D01*
G01*
X039510823Y018389925D01*
G01*
X039402769Y018332169D01*
G01*
X039379590Y018313146D01*
G01*
X039378267Y018314934D01*
G01*
X038945392Y017994664D01*
G01*
X038841897Y017984471D01*
G01*
X038701202Y017941791D01*
G01*
X038571537Y017872484D01*
G01*
X038543722Y017849657D01*
G01*
X038542135Y017851802D01*
G01*
X037780350Y017288184D01*
G01*
X037018565Y016724566D01*
G01*
X036256780Y016160947D01*
G01*
X035693788Y015744409D01*
G01*
X034962688Y015744409D01*
G01*
X033984301Y015744409D01*
G01*
X033005914Y015744409D01*
G01*
X032027527Y015744409D01*
G01*
X031049140Y015744409D01*
G01*
X030070752Y015744409D01*
G01*
X029092365Y015744409D01*
G01*
X028113978Y015744409D01*
G01*
X027446251Y015744409D01*
G01*
X026963184Y016227477D01*
G01*
X026260446Y016930214D01*
G01*
X025557708Y017632952D01*
G01*
X024854970Y018335690D01*
G01*
X024152232Y019038428D01*
G01*
X023669164Y019521497D01*
G01*
X023669164Y024130000D01*
G01*
X023654753Y024276318D01*
G01*
X023612074Y024417013D01*
G01*
X023542767Y024546678D01*
G01*
X023449495Y024660330D01*
G01*
X023335842Y024753602D01*
G01*
X023206177Y024822910D01*
G01*
X023065482Y024865589D01*
G01*
X022919164Y024880000D01*
G01*
X018654842Y024880000D01*
G01*
X018555570Y024961470D01*
G01*
X018382683Y025053880D01*
G01*
X018195090Y025110785D01*
G01*
X018000000Y025130000D01*
G01*
X017804910Y025110785D01*
G01*
X017617317Y025053880D01*
G01*
X017444430Y024961470D01*
G01*
X017292893Y024837107D01*
G01*
X017168530Y024685570D01*
G01*
X017076120Y024512683D01*
G01*
X017019215Y024325090D01*
G01*
X017000000Y024130000D01*
G01*
X017019215Y023934910D01*
G01*
X017076120Y023747317D01*
G01*
X017168530Y023574430D01*
G01*
X017292893Y023422893D01*
G01*
X017444430Y023298530D01*
G01*
X017617317Y023206120D01*
G01*
X017804910Y023149215D01*
G01*
X018000000Y023130000D01*
G01*
X018195090Y023149215D01*
G01*
X018382683Y023206120D01*
G01*
X018555570Y023298530D01*
G01*
X018654842Y023380000D01*
G01*
X022169164Y023380000D01*
G01*
X022169164Y019210836D01*
G01*
X022183576Y019064518D01*
G01*
X022226255Y018923823D01*
G01*
X022295562Y018794158D01*
G01*
X022388834Y018680505D01*
G01*
X023091572Y017977768D01*
G01*
X023794310Y017275030D01*
G01*
X024497048Y016572292D01*
G01*
X025199786Y015869554D01*
G01*
X025902523Y015166816D01*
G01*
X026605261Y014464079D01*
G01*
X026718914Y014370807D01*
G01*
X026848579Y014301499D01*
G01*
X026989273Y014258820D01*
G01*
X027135591Y014244409D01*
G01*
X028113978Y014244409D01*
G01*
X029092365Y014244409D01*
G01*
X030070752Y014244409D01*
G01*
X031049140Y014244409D01*
G01*
X032027527Y014244409D01*
G01*
X033005914Y014244409D01*
G01*
X033984301Y014244409D01*
G01*
X034962688Y014244409D01*
G01*
X035941075Y014244409D01*
G01*
X036087393Y014258820D01*
G01*
X036228088Y014301499D01*
G01*
X036357753Y014370807D01*
G01*
X036385568Y014393634D01*
G01*
X036387155Y014391489D01*
G01*
X037148940Y014955107D01*
G01*
X037910725Y015518725D01*
G01*
X038672510Y016082343D01*
G01*
X039434295Y016645961D01*
G01*
X039432707Y016648107D01*
G01*
X039518545Y016718552D01*
G01*
X039611817Y016832204D01*
G01*
X039681125Y016961869D01*
G01*
X039689811Y016990502D01*
G01*
X039956073Y017187500D01*
G01*
X040128595Y017187500D01*
G01*
X040028530Y017065570D01*
G01*
X039936120Y016892683D01*
G01*
X039879215Y016705090D01*
G01*
X039860000Y016510000D01*
G01*
X039879215Y016314910D01*
G01*
X039936120Y016127317D01*
G01*
X040028530Y015954430D01*
G01*
X040152893Y015802893D01*
G01*
X040304430Y015678530D01*
G01*
X040477317Y015586120D01*
G01*
X040664910Y015529215D01*
G01*
X040860000Y015510000D01*
G01*
X041055090Y015529215D01*
G01*
X041242683Y015586120D01*
G01*
X041415570Y015678530D01*
G01*
X041567107Y015802893D01*
G01*
X041691470Y015954430D01*
G01*
X041783880Y016127317D01*
G01*
X041801378Y016185000D01*
G01*
X043657258Y016185000D01*
G01*
X043720662Y016191245D01*
G01*
X043781630Y016209739D01*
G01*
X043837818Y016239772D01*
G01*
X043852081Y016251477D01*
G01*
X043928000Y016244000D01*
G01*
X044006036Y016251686D01*
G01*
X044081073Y016274448D01*
G01*
X044150228Y016311412D01*
G01*
X044157806Y016317631D01*
G01*
X044002476Y015088436D01*
G01*
X044005779Y015088019D01*
G01*
X043996559Y014994409D01*
G01*
X044010970Y014848091D01*
G01*
X044053649Y014707396D01*
G01*
X044122957Y014577731D01*
G01*
X044216229Y014464079D01*
G01*
X044329881Y014370807D01*
G01*
X044459546Y014301499D01*
G01*
X044600241Y014258820D01*
G01*
X044746559Y014244409D01*
G01*
X045724946Y014244409D01*
G01*
X046703333Y014244409D01*
G01*
X047681720Y014244409D01*
G01*
X048646235Y014244409D01*
G01*
X048626927Y014238552D01*
G01*
X048557772Y014201588D01*
G01*
X048497157Y014151843D01*
G01*
X048447412Y014091228D01*
G01*
X048410448Y014022073D01*
G01*
X048387686Y013947036D01*
G01*
X048380000Y013869000D01*
G01*
X048387686Y013790964D01*
G01*
X048410448Y013715927D01*
G01*
X048447412Y013646772D01*
G01*
X048497157Y013586157D01*
G01*
X048557772Y013536412D01*
G01*
X048626927Y013499448D01*
G01*
X048701964Y013476686D01*
G01*
X048780000Y013469000D01*
G01*
X048858036Y013476686D01*
G01*
X048933073Y013499448D01*
G01*
X049002228Y013536412D01*
G01*
X049011474Y013544000D01*
G01*
X049427380Y013544000D01*
G01*
X053029514Y009941867D01*
G01*
X053030686Y009929964D01*
G01*
X053053448Y009854927D01*
G01*
X053090412Y009785772D01*
G01*
X053140157Y009725157D01*
G01*
X053200772Y009675412D01*
G01*
X053269927Y009638448D01*
G01*
X053344964Y009615686D01*
G01*
X053423000Y009608000D01*
G01*
X053501036Y009615686D01*
G01*
X053576073Y009638448D01*
G01*
X053645228Y009675412D01*
G01*
X053705843Y009725157D01*
G01*
X053755588Y009785772D01*
G01*
X053792552Y009854927D01*
G01*
X053815314Y009929964D01*
G01*
X053823000Y010008000D01*
G01*
X053815314Y010086036D01*
G01*
X053792552Y010161073D01*
G01*
X053755588Y010230228D01*
G01*
X053705843Y010290843D01*
G01*
X053645228Y010340588D01*
G01*
X053576073Y010377552D01*
G01*
X053501036Y010400314D01*
G01*
X053489133Y010401486D01*
G01*
X049791810Y014098810D01*
G01*
X049742560Y014139228D01*
G01*
X049686372Y014169261D01*
G01*
X049625404Y014187755D01*
G01*
X049562000Y014194000D01*
G01*
X049011474Y014194000D01*
G01*
X049002228Y014201588D01*
G01*
X048933073Y014238552D01*
G01*
X048913765Y014244409D01*
G01*
X049638494Y014244409D01*
G01*
X050616882Y014244409D01*
G01*
X051595269Y014244409D01*
G01*
X052573656Y014244409D01*
G01*
X053552043Y014244409D01*
G01*
X054530430Y014244409D01*
G01*
X055508817Y014244409D01*
G01*
X056487204Y014244409D01*
G01*
X057154931Y014244409D01*
G01*
X057634702Y013764638D01*
G01*
X058334143Y013065197D01*
G01*
X059033584Y012365756D01*
G01*
X059733025Y011666315D01*
G01*
X060432466Y010966874D01*
G01*
X061131906Y010267433D01*
G01*
X061831347Y009567993D01*
G01*
X062530788Y008868552D01*
G01*
X063230229Y008169111D01*
G01*
X063460000Y007939340D01*
G01*
X063460000Y007000000D01*
G37*
D34*
G36*
X-44500000Y022160000D02*
G01*
X-44238579Y022185748D01*
G01*
X-43987204Y022262001D01*
G01*
X-43755536Y022385831D01*
G01*
X-43552477Y022552477D01*
G01*
X-43385831Y022755536D01*
G01*
X-43262001Y022987204D01*
G01*
X-43185748Y023238579D01*
G01*
X-43160000Y023500000D01*
G01*
X-43185748Y023761421D01*
G01*
X-43262001Y024012796D01*
G01*
X-43385831Y024244464D01*
G01*
X-43552477Y024447523D01*
G01*
X-43755536Y024614169D01*
G01*
X-43987204Y024737999D01*
G01*
X-44238579Y024814252D01*
G01*
X-44500000Y024840000D01*
G01*
X-44761421Y024814252D01*
G01*
X-45012796Y024737999D01*
G01*
X-45244464Y024614169D01*
G01*
X-45447523Y024447523D01*
G01*
X-45614169Y024244464D01*
G01*
X-45737999Y024012796D01*
G01*
X-45814252Y023761421D01*
G01*
X-45840000Y023500000D01*
G01*
X-45814252Y023238579D01*
G01*
X-45737999Y022987204D01*
G01*
X-45614169Y022755536D01*
G01*
X-45447523Y022552477D01*
G01*
X-45244464Y022385831D01*
G01*
X-45012796Y022262001D01*
G01*
X-44761421Y022185748D01*
G01*
X-44500000Y022160000D01*
G37*
D34*
G36*
X-23400000Y022160000D02*
G01*
X-23138579Y022185748D01*
G01*
X-22887204Y022262001D01*
G01*
X-22655536Y022385831D01*
G01*
X-22452477Y022552477D01*
G01*
X-22285831Y022755536D01*
G01*
X-22162001Y022987204D01*
G01*
X-22085748Y023238579D01*
G01*
X-22060000Y023500000D01*
G01*
X-22085748Y023761421D01*
G01*
X-22162001Y024012796D01*
G01*
X-22285831Y024244464D01*
G01*
X-22452477Y024447523D01*
G01*
X-22655536Y024614169D01*
G01*
X-22887204Y024737999D01*
G01*
X-23138579Y024814252D01*
G01*
X-23400000Y024840000D01*
G01*
X-23661421Y024814252D01*
G01*
X-23912796Y024737999D01*
G01*
X-24144464Y024614169D01*
G01*
X-24347523Y024447523D01*
G01*
X-24514169Y024244464D01*
G01*
X-24637999Y024012796D01*
G01*
X-24714252Y023761421D01*
G01*
X-24740000Y023500000D01*
G01*
X-24714252Y023238579D01*
G01*
X-24637999Y022987204D01*
G01*
X-24514169Y022755536D01*
G01*
X-24347523Y022552477D01*
G01*
X-24144464Y022385831D01*
G01*
X-23912796Y022262001D01*
G01*
X-23661421Y022185748D01*
G01*
X-23400000Y022160000D01*
G37*
D34*
G36*
X-69620000Y021633500D02*
G01*
X-69327365Y021662322D01*
G01*
X-69045975Y021747681D01*
G01*
X-68786645Y021886296D01*
G01*
X-68559340Y022072840D01*
G01*
X-68372796Y022300145D01*
G01*
X-68234181Y022559475D01*
G01*
X-68148822Y022840865D01*
G01*
X-68120000Y023133500D01*
G01*
X-68148822Y023426135D01*
G01*
X-68234181Y023707525D01*
G01*
X-68372796Y023966855D01*
G01*
X-68559340Y024194160D01*
G01*
X-68786645Y024380704D01*
G01*
X-69045975Y024519319D01*
G01*
X-69327365Y024604678D01*
G01*
X-69620000Y024633500D01*
G01*
X-69912635Y024604678D01*
G01*
X-70194025Y024519319D01*
G01*
X-70453355Y024380704D01*
G01*
X-70680660Y024194160D01*
G01*
X-70867204Y023966855D01*
G01*
X-71005819Y023707525D01*
G01*
X-71091178Y023426135D01*
G01*
X-71120000Y023133500D01*
G01*
X-71091178Y022840865D01*
G01*
X-71005819Y022559475D01*
G01*
X-70867204Y022300145D01*
G01*
X-70680660Y022072840D01*
G01*
X-70453355Y021886296D01*
G01*
X-70194025Y021747681D01*
G01*
X-69912635Y021662322D01*
G01*
X-69620000Y021633500D01*
G37*
D34*
G36*
X005171000Y006230000D02*
G01*
X005249036Y006237686D01*
G01*
X005324073Y006260448D01*
G01*
X005393228Y006297412D01*
G01*
X005453843Y006347157D01*
G01*
X005503588Y006407772D01*
G01*
X005540552Y006476927D01*
G01*
X005563314Y006551964D01*
G01*
X005564486Y006563866D01*
G01*
X017145054Y018144435D01*
G01*
X017185472Y018193684D01*
G01*
X017215505Y018249872D01*
G01*
X017234000Y018310840D01*
G01*
X017240245Y018374245D01*
G01*
X017240245Y018407045D01*
G01*
X017292893Y018342893D01*
G01*
X017444430Y018218530D01*
G01*
X017617317Y018126120D01*
G01*
X017804910Y018069215D01*
G01*
X018000000Y018050000D01*
G01*
X018195090Y018069215D01*
G01*
X018382683Y018126120D01*
G01*
X018555570Y018218530D01*
G01*
X018707107Y018342893D01*
G01*
X018831470Y018494430D01*
G01*
X018923880Y018667317D01*
G01*
X018980785Y018854910D01*
G01*
X019000000Y019050000D01*
G01*
X018980785Y019245090D01*
G01*
X018923880Y019432683D01*
G01*
X018831470Y019605570D01*
G01*
X018707107Y019757107D01*
G01*
X018555570Y019881470D01*
G01*
X018382683Y019973880D01*
G01*
X018195090Y020030785D01*
G01*
X018000000Y020050000D01*
G01*
X017804910Y020030785D01*
G01*
X017617317Y019973880D01*
G01*
X017444430Y019881470D01*
G01*
X017292893Y019757107D01*
G01*
X017240245Y019692955D01*
G01*
X017240245Y020370626D01*
G01*
X017564155Y020694536D01*
G01*
X017617317Y020666120D01*
G01*
X017804910Y020609215D01*
G01*
X018000000Y020590000D01*
G01*
X018195090Y020609215D01*
G01*
X018382683Y020666120D01*
G01*
X018555570Y020758530D01*
G01*
X018707107Y020882893D01*
G01*
X018831470Y021034430D01*
G01*
X018923880Y021207317D01*
G01*
X018980785Y021394910D01*
G01*
X019000000Y021590000D01*
G01*
X018980785Y021785090D01*
G01*
X018923880Y021972683D01*
G01*
X018831470Y022145570D01*
G01*
X018707107Y022297107D01*
G01*
X018555570Y022421470D01*
G01*
X018382683Y022513880D01*
G01*
X018195090Y022570785D01*
G01*
X018000000Y022590000D01*
G01*
X017804910Y022570785D01*
G01*
X017617317Y022513880D01*
G01*
X017444430Y022421470D01*
G01*
X017292893Y022297107D01*
G01*
X017168530Y022145570D01*
G01*
X017076120Y021972683D01*
G01*
X017019215Y021785090D01*
G01*
X017000000Y021590000D01*
G01*
X017019215Y021394910D01*
G01*
X017076120Y021207317D01*
G01*
X017104536Y021154155D01*
G01*
X016685435Y020735054D01*
G01*
X016645017Y020685805D01*
G01*
X016614984Y020629617D01*
G01*
X016596489Y020568649D01*
G01*
X016590245Y020505245D01*
G01*
X016590245Y018508864D01*
G01*
X005104866Y007023486D01*
G01*
X005092964Y007022314D01*
G01*
X005017927Y006999552D01*
G01*
X004948772Y006962588D01*
G01*
X004888157Y006912843D01*
G01*
X004838412Y006852228D01*
G01*
X004801448Y006783073D01*
G01*
X004778686Y006708036D01*
G01*
X004771000Y006630000D01*
G01*
X004778686Y006551964D01*
G01*
X004801448Y006476927D01*
G01*
X004838412Y006407772D01*
G01*
X004888157Y006347157D01*
G01*
X004948772Y006297412D01*
G01*
X005017927Y006260448D01*
G01*
X005092964Y006237686D01*
G01*
X005171000Y006230000D01*
G37*
D34*
G36*
X040860000Y020590000D02*
G01*
X041055090Y020609215D01*
G01*
X041242683Y020666120D01*
G01*
X041415570Y020758530D01*
G01*
X041567107Y020882893D01*
G01*
X041691470Y021034430D01*
G01*
X041783880Y021207317D01*
G01*
X041840785Y021394910D01*
G01*
X041860000Y021590000D01*
G01*
X041840785Y021785090D01*
G01*
X041783880Y021972683D01*
G01*
X041691470Y022145570D01*
G01*
X041567107Y022297107D01*
G01*
X041415570Y022421470D01*
G01*
X041242683Y022513880D01*
G01*
X041055090Y022570785D01*
G01*
X040860000Y022590000D01*
G01*
X040664910Y022570785D01*
G01*
X040477317Y022513880D01*
G01*
X040304430Y022421470D01*
G01*
X040152893Y022297107D01*
G01*
X040028530Y022145570D01*
G01*
X039936120Y021972683D01*
G01*
X039879215Y021785090D01*
G01*
X039860000Y021590000D01*
G01*
X039879215Y021394910D01*
G01*
X039936120Y021207317D01*
G01*
X040028530Y021034430D01*
G01*
X040152893Y020882893D01*
G01*
X040304430Y020758530D01*
G01*
X040477317Y020666120D01*
G01*
X040664910Y020609215D01*
G01*
X040860000Y020590000D01*
G37*
D34*
G36*
X067020000Y018750000D02*
G01*
X069520000Y018750000D01*
G01*
X069520000Y021250000D01*
G01*
X067020000Y021250000D01*
G01*
X067020000Y018750000D01*
G37*
D34*
G36*
X-66290000Y015750000D02*
G01*
X-62790000Y015750000D01*
G01*
X-62790000Y019250000D01*
G01*
X-66290000Y019250000D01*
G01*
X-66290000Y015750000D01*
G37*
D34*
G36*
X-15801000Y-12605000D02*
G01*
X-15722964Y-12597314D01*
G01*
X-15647927Y-12574552D01*
G01*
X-15578772Y-12537588D01*
G01*
X-15518157Y-12487843D01*
G01*
X-15468412Y-12427228D01*
G01*
X-15431448Y-12358073D01*
G01*
X-15408686Y-12283036D01*
G01*
X-15407514Y-12271134D01*
G01*
X-10555866Y-07419486D01*
G01*
X-10557000Y-07431000D01*
G01*
X-10549314Y-07509036D01*
G01*
X-10526552Y-07584073D01*
G01*
X-10489588Y-07653228D01*
G01*
X-10439843Y-07713843D01*
G01*
X-10379228Y-07763588D01*
G01*
X-10310073Y-07800552D01*
G01*
X-10235036Y-07823314D01*
G01*
X-10223133Y-07824486D01*
G01*
X-09175810Y-08871810D01*
G01*
X-09126560Y-08912228D01*
G01*
X-09070372Y-08942261D01*
G01*
X-09009404Y-08960755D01*
G01*
X-08946000Y-08967000D01*
G01*
X-01649474Y-08967000D01*
G01*
X-01640228Y-08974588D01*
G01*
X-01571073Y-09011552D01*
G01*
X-01496036Y-09034314D01*
G01*
X-01418000Y-09042000D01*
G01*
X-01339964Y-09034314D01*
G01*
X-01264927Y-09011552D01*
G01*
X-01195772Y-08974588D01*
G01*
X-01135157Y-08924843D01*
G01*
X-01085412Y-08864228D01*
G01*
X-01057887Y-08812732D01*
G01*
X-00601486Y-09269134D01*
G01*
X-00600314Y-09281036D01*
G01*
X-00577552Y-09356073D01*
G01*
X-00540588Y-09425228D01*
G01*
X-00490843Y-09485843D01*
G01*
X-00430228Y-09535588D01*
G01*
X-00361073Y-09572552D01*
G01*
X-00286036Y-09595314D01*
G01*
X-00208000Y-09603000D01*
G01*
X-00129964Y-09595314D01*
G01*
X-00054927Y-09572552D01*
G01*
X000014228Y-09535588D01*
G01*
X000074843Y-09485843D01*
G01*
X000124588Y-09425228D01*
G01*
X000161552Y-09356073D01*
G01*
X000184314Y-09281036D01*
G01*
X000192000Y-09203000D01*
G01*
X000184314Y-09124964D01*
G01*
X000161552Y-09049927D01*
G01*
X000124588Y-08980772D01*
G01*
X000074843Y-08920157D01*
G01*
X000014228Y-08870412D01*
G01*
X-00054927Y-08833448D01*
G01*
X-00129964Y-08810686D01*
G01*
X-00141866Y-08809514D01*
G01*
X-01015016Y-07936365D01*
G01*
X-01064265Y-07895947D01*
G01*
X-01120454Y-07865913D01*
G01*
X-01181421Y-07847419D01*
G01*
X-01244826Y-07841174D01*
G01*
X-02002410Y-07841174D01*
G01*
X-02044927Y-07818448D01*
G01*
X-02119964Y-07795686D01*
G01*
X-02198000Y-07788000D01*
G01*
X-02276036Y-07795686D01*
G01*
X-02351073Y-07818448D01*
G01*
X-02420228Y-07855412D01*
G01*
X-02480843Y-07905157D01*
G01*
X-02530588Y-07965772D01*
G01*
X-02567552Y-08034927D01*
G01*
X-02590314Y-08109964D01*
G01*
X-02598000Y-08188000D01*
G01*
X-02590314Y-08266036D01*
G01*
X-02574854Y-08317000D01*
G01*
X-08811380Y-08317000D01*
G01*
X-09763514Y-07364867D01*
G01*
X-09764686Y-07352964D01*
G01*
X-09787448Y-07277927D01*
G01*
X-09824412Y-07208772D01*
G01*
X-09874157Y-07148157D01*
G01*
X-09934772Y-07098412D01*
G01*
X-10003927Y-07061448D01*
G01*
X-10078964Y-07038686D01*
G01*
X-10157000Y-07031000D01*
G01*
X-10168514Y-07032134D01*
G01*
X-07533659Y-04397279D01*
G01*
X-07493241Y-04348029D01*
G01*
X-07463208Y-04291841D01*
G01*
X-07444714Y-04230873D01*
G01*
X-07438469Y-04167469D01*
G01*
X-07438469Y-04161671D01*
G01*
X-07391157Y-04122843D01*
G01*
X-07341412Y-04062228D01*
G01*
X-07304448Y-03993073D01*
G01*
X-07281686Y-03918036D01*
G01*
X-07274000Y-03840000D01*
G01*
X-07281686Y-03761964D01*
G01*
X-07296657Y-03712612D01*
G01*
X-07070653Y-03712612D01*
G01*
X-07007248Y-03706367D01*
G01*
X-06946281Y-03687873D01*
G01*
X-06890092Y-03657839D01*
G01*
X-06840843Y-03617421D01*
G01*
X-02278421Y000945000D01*
G01*
X017058622Y000945000D01*
G01*
X017076120Y000887317D01*
G01*
X017168530Y000714430D01*
G01*
X017292893Y000562893D01*
G01*
X017444430Y000438530D01*
G01*
X017617317Y000346120D01*
G01*
X017804910Y000289215D01*
G01*
X018000000Y000270000D01*
G01*
X018195090Y000289215D01*
G01*
X018382683Y000346120D01*
G01*
X018555570Y000438530D01*
G01*
X018707107Y000562893D01*
G01*
X018831470Y000714430D01*
G01*
X018923880Y000887317D01*
G01*
X018980785Y001074910D01*
G01*
X019000000Y001270000D01*
G01*
X018980785Y001465090D01*
G01*
X018923880Y001652683D01*
G01*
X018831470Y001825570D01*
G01*
X018707107Y001977107D01*
G01*
X018555570Y002101470D01*
G01*
X018382683Y002193880D01*
G01*
X018195090Y002250785D01*
G01*
X018000000Y002270000D01*
G01*
X017804910Y002250785D01*
G01*
X017617317Y002193880D01*
G01*
X017444430Y002101470D01*
G01*
X017292893Y001977107D01*
G01*
X017168530Y001825570D01*
G01*
X017076120Y001652683D01*
G01*
X017058622Y001595000D01*
G01*
X-02139380Y001595000D01*
G01*
X006426227Y010160608D01*
G01*
X008004369Y010160608D01*
G01*
X008067774Y010166852D01*
G01*
X008128742Y010185347D01*
G01*
X008184930Y010215380D01*
G01*
X008234179Y010255798D01*
G01*
X008274597Y010305047D01*
G01*
X008304630Y010361236D01*
G01*
X008323125Y010422203D01*
G01*
X008329369Y010485608D01*
G01*
X008329369Y011233557D01*
G01*
X014044455Y016948643D01*
G01*
X014054864Y016954207D01*
G01*
X014080036Y016956686D01*
G01*
X014155073Y016979448D01*
G01*
X014224228Y017016412D01*
G01*
X014284843Y017066157D01*
G01*
X014334588Y017126772D01*
G01*
X014371552Y017195927D01*
G01*
X014394314Y017270964D01*
G01*
X014402000Y017349000D01*
G01*
X014394314Y017427036D01*
G01*
X014371552Y017502073D01*
G01*
X014334588Y017571228D01*
G01*
X014284843Y017631843D01*
G01*
X014224228Y017681588D01*
G01*
X014155073Y017718552D01*
G01*
X014080036Y017741314D01*
G01*
X014002000Y017749000D01*
G01*
X013923964Y017741314D01*
G01*
X013848927Y017718552D01*
G01*
X013779772Y017681588D01*
G01*
X013719157Y017631843D01*
G01*
X013669412Y017571228D01*
G01*
X013632448Y017502073D01*
G01*
X013612332Y017435758D01*
G01*
X007774560Y011597987D01*
G01*
X007734142Y011548737D01*
G01*
X007704109Y011492549D01*
G01*
X007685614Y011431581D01*
G01*
X007679369Y011368177D01*
G01*
X007679369Y011288843D01*
G01*
X007658036Y011295314D01*
G01*
X007580000Y011303000D01*
G01*
X007501964Y011295314D01*
G01*
X007426927Y011272552D01*
G01*
X007357772Y011235588D01*
G01*
X007348526Y011228000D01*
G01*
X-15385608Y011228000D01*
G01*
X-15449012Y011221755D01*
G01*
X-15509980Y011203261D01*
G01*
X-15566168Y011173228D01*
G01*
X-15615417Y011132810D01*
G01*
X-17293820Y009454407D01*
G01*
X-17317157Y009482843D01*
G01*
X-17377772Y009532588D01*
G01*
X-17446927Y009569552D01*
G01*
X-17521964Y009592314D01*
G01*
X-17600000Y009600000D01*
G01*
X-17678036Y009592314D01*
G01*
X-17719522Y009579730D01*
G01*
X-25389416Y017249624D01*
G01*
X-25388000Y017264000D01*
G01*
X-25395686Y017342036D01*
G01*
X-25418448Y017417073D01*
G01*
X-25455412Y017486228D01*
G01*
X-25505157Y017546843D01*
G01*
X-25565772Y017596588D01*
G01*
X-25634927Y017633552D01*
G01*
X-25709964Y017656314D01*
G01*
X-25788000Y017664000D01*
G01*
X-25866036Y017656314D01*
G01*
X-25941073Y017633552D01*
G01*
X-26010228Y017596588D01*
G01*
X-26070843Y017546843D01*
G01*
X-26120588Y017486228D01*
G01*
X-26157552Y017417073D01*
G01*
X-26180314Y017342036D01*
G01*
X-26188000Y017264000D01*
G01*
X-26180314Y017185964D01*
G01*
X-26157552Y017110927D01*
G01*
X-26120588Y017041772D01*
G01*
X-26070843Y016981157D01*
G01*
X-26010228Y016931412D01*
G01*
X-25967727Y016908695D01*
G01*
X-18029222Y008970190D01*
G01*
X-17979972Y008929772D01*
G01*
X-17923784Y008899739D01*
G01*
X-17866013Y008882214D01*
G01*
X-24382100Y002366127D01*
G01*
X-34264268Y002366127D01*
G01*
X-34327673Y002359883D01*
G01*
X-34388641Y002341388D01*
G01*
X-34444829Y002311355D01*
G01*
X-34494078Y002270937D01*
G01*
X-34707745Y002057271D01*
G01*
X-34730964Y002064314D01*
G01*
X-34809000Y002072000D01*
G01*
X-34887036Y002064314D01*
G01*
X-34962073Y002041552D01*
G01*
X-35031228Y002004588D01*
G01*
X-35091843Y001954843D01*
G01*
X-35141588Y001894228D01*
G01*
X-35178552Y001825073D01*
G01*
X-35201314Y001750036D01*
G01*
X-35209000Y001672000D01*
G01*
X-35201314Y001593964D01*
G01*
X-35178552Y001518927D01*
G01*
X-35141588Y001449772D01*
G01*
X-35091843Y001389157D01*
G01*
X-35031228Y001339412D01*
G01*
X-34962073Y001302448D01*
G01*
X-34887036Y001279686D01*
G01*
X-34809000Y001272000D01*
G01*
X-34730964Y001279686D01*
G01*
X-34655927Y001302448D01*
G01*
X-34586772Y001339412D01*
G01*
X-34530483Y001385607D01*
G01*
X-34479774Y001400989D01*
G01*
X-34423586Y001431022D01*
G01*
X-34374336Y001471440D01*
G01*
X-34129650Y001716127D01*
G01*
X-24247480Y001716127D01*
G01*
X-24184076Y001722372D01*
G01*
X-24123108Y001740867D01*
G01*
X-24066920Y001770900D01*
G01*
X-24017671Y001811318D01*
G01*
X-15250988Y010578000D01*
G01*
X005924381Y010578000D01*
G01*
X-07232134Y-02578514D01*
G01*
X-07244036Y-02579686D01*
G01*
X-07319073Y-02602448D01*
G01*
X-07388228Y-02639412D01*
G01*
X-07448843Y-02689157D01*
G01*
X-07498588Y-02749772D01*
G01*
X-07535552Y-02818927D01*
G01*
X-07558314Y-02893964D01*
G01*
X-07566000Y-02972000D01*
G01*
X-07558314Y-03050036D01*
G01*
X-07554499Y-03062612D01*
G01*
X-31773335Y-03062612D01*
G01*
X-32126473Y-02709473D01*
G01*
X-32175723Y-02669056D01*
G01*
X-32186434Y-02663331D01*
G01*
X-32188772Y-02661412D01*
G01*
X-32257927Y-02624448D01*
G01*
X-32332964Y-02601686D01*
G01*
X-32411000Y-02594000D01*
G01*
X-32489036Y-02601686D01*
G01*
X-32564073Y-02624448D01*
G01*
X-32633228Y-02661412D01*
G01*
X-32693843Y-02711157D01*
G01*
X-32743588Y-02771772D01*
G01*
X-32780552Y-02840927D01*
G01*
X-32803314Y-02915964D01*
G01*
X-32811000Y-02994000D01*
G01*
X-32803314Y-03072036D01*
G01*
X-32780552Y-03147073D01*
G01*
X-32743588Y-03216228D01*
G01*
X-32693843Y-03276843D01*
G01*
X-32633228Y-03326588D01*
G01*
X-32564073Y-03363552D01*
G01*
X-32489036Y-03386314D01*
G01*
X-32411000Y-03394000D01*
G01*
X-32365652Y-03389534D01*
G01*
X-32137764Y-03617421D01*
G01*
X-32088515Y-03657839D01*
G01*
X-32032327Y-03687873D01*
G01*
X-31971359Y-03706367D01*
G01*
X-31907955Y-03712612D01*
G01*
X-08051343Y-03712612D01*
G01*
X-08066314Y-03761964D01*
G01*
X-08073847Y-03838450D01*
G01*
X-08082224Y-03866065D01*
G01*
X-08088469Y-03929469D01*
G01*
X-08088469Y-04032849D01*
G01*
X-09125406Y-05069786D01*
G01*
X-09143157Y-05048157D01*
G01*
X-09203772Y-04998412D01*
G01*
X-09272927Y-04961448D01*
G01*
X-09347964Y-04938686D01*
G01*
X-09426000Y-04931000D01*
G01*
X-09504036Y-04938686D01*
G01*
X-09579073Y-04961448D01*
G01*
X-09648228Y-04998412D01*
G01*
X-09657474Y-05006000D01*
G01*
X-09748163Y-05006000D01*
G01*
X-09811567Y-05012245D01*
G01*
X-09872535Y-05030739D01*
G01*
X-09928723Y-05060772D01*
G01*
X-09977973Y-05101190D01*
G01*
X-10186519Y-05309737D01*
G01*
X-10194000Y-05309000D01*
G01*
X-10272036Y-05316686D01*
G01*
X-10347073Y-05339448D01*
G01*
X-10416228Y-05376412D01*
G01*
X-10476843Y-05426157D01*
G01*
X-10526588Y-05486772D01*
G01*
X-10563552Y-05555927D01*
G01*
X-10586314Y-05630964D01*
G01*
X-10594000Y-05709000D01*
G01*
X-10586314Y-05787036D01*
G01*
X-10563552Y-05862073D01*
G01*
X-10526588Y-05931228D01*
G01*
X-10476843Y-05991843D01*
G01*
X-10416228Y-06041588D01*
G01*
X-10347073Y-06078552D01*
G01*
X-10272036Y-06101314D01*
G01*
X-10194000Y-06109000D01*
G01*
X-10161410Y-06105790D01*
G01*
X-15867134Y-11811514D01*
G01*
X-15879036Y-11812686D01*
G01*
X-15954073Y-11835448D01*
G01*
X-16023228Y-11872412D01*
G01*
X-16083843Y-11922157D01*
G01*
X-16133588Y-11982772D01*
G01*
X-16170552Y-12051927D01*
G01*
X-16193314Y-12126964D01*
G01*
X-16201000Y-12205000D01*
G01*
X-16193314Y-12283036D01*
G01*
X-16170552Y-12358073D01*
G01*
X-16133588Y-12427228D01*
G01*
X-16083843Y-12487843D01*
G01*
X-16023228Y-12537588D01*
G01*
X-15954073Y-12574552D01*
G01*
X-15879036Y-12597314D01*
G01*
X-15801000Y-12605000D01*
G37*
D34*
G36*
X018000000Y015510000D02*
G01*
X018195090Y015529215D01*
G01*
X018382683Y015586120D01*
G01*
X018555570Y015678530D01*
G01*
X018707107Y015802893D01*
G01*
X018831470Y015954430D01*
G01*
X018923880Y016127317D01*
G01*
X018980785Y016314910D01*
G01*
X019000000Y016510000D01*
G01*
X018980785Y016705090D01*
G01*
X018923880Y016892683D01*
G01*
X018831470Y017065570D01*
G01*
X018707107Y017217107D01*
G01*
X018555570Y017341470D01*
G01*
X018382683Y017433880D01*
G01*
X018195090Y017490785D01*
G01*
X018000000Y017510000D01*
G01*
X017804910Y017490785D01*
G01*
X017617317Y017433880D01*
G01*
X017444430Y017341470D01*
G01*
X017292893Y017217107D01*
G01*
X017168530Y017065570D01*
G01*
X017076120Y016892683D01*
G01*
X017019215Y016705090D01*
G01*
X017000000Y016510000D01*
G01*
X017019215Y016314910D01*
G01*
X017076120Y016127317D01*
G01*
X017168530Y015954430D01*
G01*
X017292893Y015802893D01*
G01*
X017444430Y015678530D01*
G01*
X017617317Y015586120D01*
G01*
X017804910Y015529215D01*
G01*
X018000000Y015510000D01*
G37*
D34*
G36*
X-77500000Y014000000D02*
G01*
X-75500000Y014000000D01*
G01*
X-75500000Y016000000D01*
G01*
X-77500000Y016000000D01*
G01*
X-77500000Y014000000D01*
G37*
D34*
G36*
X018000000Y012970000D02*
G01*
X018195090Y012989215D01*
G01*
X018382683Y013046120D01*
G01*
X018555570Y013138530D01*
G01*
X018707107Y013262893D01*
G01*
X018831470Y013414430D01*
G01*
X018923880Y013587317D01*
G01*
X018980785Y013774910D01*
G01*
X019000000Y013970000D01*
G01*
X018980785Y014165090D01*
G01*
X018923880Y014352683D01*
G01*
X018831470Y014525570D01*
G01*
X018707107Y014677107D01*
G01*
X018555570Y014801470D01*
G01*
X018382683Y014893880D01*
G01*
X018195090Y014950785D01*
G01*
X018000000Y014970000D01*
G01*
X017804910Y014950785D01*
G01*
X017617317Y014893880D01*
G01*
X017444430Y014801470D01*
G01*
X017292893Y014677107D01*
G01*
X017168530Y014525570D01*
G01*
X017076120Y014352683D01*
G01*
X017019215Y014165090D01*
G01*
X017000000Y013970000D01*
G01*
X017019215Y013774910D01*
G01*
X017076120Y013587317D01*
G01*
X017168530Y013414430D01*
G01*
X017292893Y013262893D01*
G01*
X017444430Y013138530D01*
G01*
X017617317Y013046120D01*
G01*
X017804910Y012989215D01*
G01*
X018000000Y012970000D01*
G37*
D34*
G36*
X040860000Y012970000D02*
G01*
X041055090Y012989215D01*
G01*
X041242683Y013046120D01*
G01*
X041415570Y013138530D01*
G01*
X041567107Y013262893D01*
G01*
X041691470Y013414430D01*
G01*
X041783880Y013587317D01*
G01*
X041840785Y013774910D01*
G01*
X041860000Y013970000D01*
G01*
X041840785Y014165090D01*
G01*
X041783880Y014352683D01*
G01*
X041691470Y014525570D01*
G01*
X041567107Y014677107D01*
G01*
X041415570Y014801470D01*
G01*
X041242683Y014893880D01*
G01*
X041055090Y014950785D01*
G01*
X040860000Y014970000D01*
G01*
X040664910Y014950785D01*
G01*
X040477317Y014893880D01*
G01*
X040304430Y014801470D01*
G01*
X040152893Y014677107D01*
G01*
X040028530Y014525570D01*
G01*
X039936120Y014352683D01*
G01*
X039879215Y014165090D01*
G01*
X039860000Y013970000D01*
G01*
X039879215Y013774910D01*
G01*
X039936120Y013587317D01*
G01*
X040028530Y013414430D01*
G01*
X040152893Y013262893D01*
G01*
X040304430Y013138530D01*
G01*
X040477317Y013046120D01*
G01*
X040664910Y012989215D01*
G01*
X040860000Y012970000D01*
G37*
D34*
G36*
X018000000Y010430000D02*
G01*
X018195090Y010449215D01*
G01*
X018382683Y010506120D01*
G01*
X018555570Y010598530D01*
G01*
X018707107Y010722893D01*
G01*
X018831470Y010874430D01*
G01*
X018923880Y011047317D01*
G01*
X018980785Y011234910D01*
G01*
X019000000Y011430000D01*
G01*
X018980785Y011625090D01*
G01*
X018923880Y011812683D01*
G01*
X018831470Y011985570D01*
G01*
X018707107Y012137107D01*
G01*
X018555570Y012261470D01*
G01*
X018382683Y012353880D01*
G01*
X018195090Y012410785D01*
G01*
X018000000Y012430000D01*
G01*
X017804910Y012410785D01*
G01*
X017617317Y012353880D01*
G01*
X017444430Y012261470D01*
G01*
X017292893Y012137107D01*
G01*
X017168530Y011985570D01*
G01*
X017076120Y011812683D01*
G01*
X017019215Y011625090D01*
G01*
X017000000Y011430000D01*
G01*
X017019215Y011234910D01*
G01*
X017076120Y011047317D01*
G01*
X017168530Y010874430D01*
G01*
X017292893Y010722893D01*
G01*
X017444430Y010598530D01*
G01*
X017617317Y010506120D01*
G01*
X017804910Y010449215D01*
G01*
X018000000Y010430000D01*
G37*
D34*
G36*
X040860000Y010430000D02*
G01*
X041055090Y010449215D01*
G01*
X041242683Y010506120D01*
G01*
X041415570Y010598530D01*
G01*
X041567107Y010722893D01*
G01*
X041691470Y010874430D01*
G01*
X041783880Y011047317D01*
G01*
X041840785Y011234910D01*
G01*
X041860000Y011430000D01*
G01*
X041840785Y011625090D01*
G01*
X041783880Y011812683D01*
G01*
X041691470Y011985570D01*
G01*
X041567107Y012137107D01*
G01*
X041415570Y012261470D01*
G01*
X041242683Y012353880D01*
G01*
X041055090Y012410785D01*
G01*
X040860000Y012430000D01*
G01*
X040664910Y012410785D01*
G01*
X040477317Y012353880D01*
G01*
X040304430Y012261470D01*
G01*
X040152893Y012137107D01*
G01*
X040028530Y011985570D01*
G01*
X039936120Y011812683D01*
G01*
X039879215Y011625090D01*
G01*
X039860000Y011430000D01*
G01*
X039879215Y011234910D01*
G01*
X039936120Y011047317D01*
G01*
X040028530Y010874430D01*
G01*
X040152893Y010722893D01*
G01*
X040304430Y010598530D01*
G01*
X040477317Y010506120D01*
G01*
X040664910Y010449215D01*
G01*
X040860000Y010430000D01*
G37*
D34*
G36*
X018000000Y007890000D02*
G01*
X018195090Y007909215D01*
G01*
X018382683Y007966120D01*
G01*
X018555570Y008058530D01*
G01*
X018707107Y008182893D01*
G01*
X018831470Y008334430D01*
G01*
X018923880Y008507317D01*
G01*
X018980785Y008694910D01*
G01*
X019000000Y008890000D01*
G01*
X018980785Y009085090D01*
G01*
X018923880Y009272683D01*
G01*
X018831470Y009445570D01*
G01*
X018707107Y009597107D01*
G01*
X018555570Y009721470D01*
G01*
X018382683Y009813880D01*
G01*
X018195090Y009870785D01*
G01*
X018000000Y009890000D01*
G01*
X017804910Y009870785D01*
G01*
X017617317Y009813880D01*
G01*
X017444430Y009721470D01*
G01*
X017292893Y009597107D01*
G01*
X017168530Y009445570D01*
G01*
X017076120Y009272683D01*
G01*
X017019215Y009085090D01*
G01*
X017000000Y008890000D01*
G01*
X017019215Y008694910D01*
G01*
X017076120Y008507317D01*
G01*
X017168530Y008334430D01*
G01*
X017292893Y008182893D01*
G01*
X017444430Y008058530D01*
G01*
X017617317Y007966120D01*
G01*
X017804910Y007909215D01*
G01*
X018000000Y007890000D01*
G37*
D34*
G36*
X040860000Y007890000D02*
G01*
X041055090Y007909215D01*
G01*
X041242683Y007966120D01*
G01*
X041415570Y008058530D01*
G01*
X041567107Y008182893D01*
G01*
X041691470Y008334430D01*
G01*
X041783880Y008507317D01*
G01*
X041840785Y008694910D01*
G01*
X041860000Y008890000D01*
G01*
X041840785Y009085090D01*
G01*
X041783880Y009272683D01*
G01*
X041691470Y009445570D01*
G01*
X041567107Y009597107D01*
G01*
X041415570Y009721470D01*
G01*
X041242683Y009813880D01*
G01*
X041055090Y009870785D01*
G01*
X040860000Y009890000D01*
G01*
X040664910Y009870785D01*
G01*
X040477317Y009813880D01*
G01*
X040304430Y009721470D01*
G01*
X040152893Y009597107D01*
G01*
X040028530Y009445570D01*
G01*
X039936120Y009272683D01*
G01*
X039879215Y009085090D01*
G01*
X039860000Y008890000D01*
G01*
X039879215Y008694910D01*
G01*
X039936120Y008507317D01*
G01*
X040028530Y008334430D01*
G01*
X040152893Y008182893D01*
G01*
X040304430Y008058530D01*
G01*
X040477317Y007966120D01*
G01*
X040664910Y007909215D01*
G01*
X040860000Y007890000D01*
G37*
D34*
G36*
X063842000Y006051000D02*
G01*
X063920036Y006058686D01*
G01*
X063995073Y006081448D01*
G01*
X064064228Y006118412D01*
G01*
X064084575Y006135110D01*
G01*
X064137941Y006135110D01*
G01*
X065460110Y006135110D01*
G01*
X065523514Y006141354D01*
G01*
X065584482Y006159849D01*
G01*
X065640670Y006189882D01*
G01*
X065689919Y006230300D01*
G01*
X066564155Y007104536D01*
G01*
X066617317Y007076120D01*
G01*
X066804910Y007019215D01*
G01*
X067000000Y007000000D01*
G01*
X067195090Y007019215D01*
G01*
X067382683Y007076120D01*
G01*
X067555570Y007168530D01*
G01*
X067707107Y007292893D01*
G01*
X067831470Y007444430D01*
G01*
X067923880Y007617317D01*
G01*
X067980785Y007804910D01*
G01*
X068000000Y008000000D01*
G01*
X067980785Y008195090D01*
G01*
X067923880Y008382683D01*
G01*
X067831470Y008555570D01*
G01*
X067707107Y008707107D01*
G01*
X067555570Y008831470D01*
G01*
X067382683Y008923880D01*
G01*
X067195090Y008980785D01*
G01*
X067000000Y009000000D01*
G01*
X066804910Y008980785D01*
G01*
X066617317Y008923880D01*
G01*
X066444430Y008831470D01*
G01*
X066292893Y008707107D01*
G01*
X066168530Y008555570D01*
G01*
X066076120Y008382683D01*
G01*
X066019215Y008195090D01*
G01*
X066000000Y008000000D01*
G01*
X066019215Y007804910D01*
G01*
X066076120Y007617317D01*
G01*
X066104536Y007564155D01*
G01*
X065325491Y006785110D01*
G01*
X064137941Y006785110D01*
G01*
X064061381Y006785110D01*
G01*
X063995073Y006820552D01*
G01*
X063920036Y006843314D01*
G01*
X063842000Y006851000D01*
G01*
X063763964Y006843314D01*
G01*
X063688927Y006820552D01*
G01*
X063619772Y006783588D01*
G01*
X063559157Y006733843D01*
G01*
X063509412Y006673228D01*
G01*
X063472448Y006604073D01*
G01*
X063449686Y006529036D01*
G01*
X063442000Y006451000D01*
G01*
X063449686Y006372964D01*
G01*
X063472448Y006297927D01*
G01*
X063509412Y006228772D01*
G01*
X063559157Y006168157D01*
G01*
X063619772Y006118412D01*
G01*
X063688927Y006081448D01*
G01*
X063763964Y006058686D01*
G01*
X063842000Y006051000D01*
G37*
D34*
G36*
X-31604000Y003664000D02*
G01*
X-31525964Y003671686D01*
G01*
X-31450927Y003694448D01*
G01*
X-31381772Y003731412D01*
G01*
X-31321157Y003781157D01*
G01*
X-31271412Y003841772D01*
G01*
X-31234448Y003910927D01*
G01*
X-31211686Y003985964D01*
G01*
X-31204000Y004064000D01*
G01*
X-31211686Y004142036D01*
G01*
X-31234448Y004217073D01*
G01*
X-31271412Y004286228D01*
G01*
X-31279000Y004295474D01*
G01*
X-31279000Y007234710D01*
G01*
X-31239002Y007274708D01*
G01*
X-31173927Y007294448D01*
G01*
X-31104772Y007331412D01*
G01*
X-31044157Y007381157D01*
G01*
X-30994412Y007441772D01*
G01*
X-30957448Y007510927D01*
G01*
X-30934686Y007585964D01*
G01*
X-30927000Y007664000D01*
G01*
X-30934686Y007742036D01*
G01*
X-30957448Y007817073D01*
G01*
X-30994412Y007886228D01*
G01*
X-31044157Y007946843D01*
G01*
X-31104772Y007996588D01*
G01*
X-31173927Y008033552D01*
G01*
X-31248964Y008056314D01*
G01*
X-31327000Y008064000D01*
G01*
X-31405036Y008056314D01*
G01*
X-31480073Y008033552D01*
G01*
X-31549228Y007996588D01*
G01*
X-31609843Y007946843D01*
G01*
X-31659588Y007886228D01*
G01*
X-31696552Y007817073D01*
G01*
X-31719314Y007742036D01*
G01*
X-31722417Y007710533D01*
G01*
X-31833810Y007599140D01*
G01*
X-31874228Y007549890D01*
G01*
X-31904261Y007493702D01*
G01*
X-31922755Y007432734D01*
G01*
X-31929000Y007369330D01*
G01*
X-31929000Y004295474D01*
G01*
X-31936588Y004286228D01*
G01*
X-31973552Y004217073D01*
G01*
X-31996314Y004142036D01*
G01*
X-32004000Y004064000D01*
G01*
X-31996314Y003985964D01*
G01*
X-31973552Y003910927D01*
G01*
X-31936588Y003841772D01*
G01*
X-31886843Y003781157D01*
G01*
X-31826228Y003731412D01*
G01*
X-31757073Y003694448D01*
G01*
X-31682036Y003671686D01*
G01*
X-31604000Y003664000D01*
G37*
D34*
G36*
X018000000Y005350000D02*
G01*
X018195090Y005369215D01*
G01*
X018382683Y005426120D01*
G01*
X018555570Y005518530D01*
G01*
X018707107Y005642893D01*
G01*
X018831470Y005794430D01*
G01*
X018923880Y005967317D01*
G01*
X018980785Y006154910D01*
G01*
X019000000Y006350000D01*
G01*
X018980785Y006545090D01*
G01*
X018923880Y006732683D01*
G01*
X018831470Y006905570D01*
G01*
X018707107Y007057107D01*
G01*
X018555570Y007181470D01*
G01*
X018382683Y007273880D01*
G01*
X018195090Y007330785D01*
G01*
X018000000Y007350000D01*
G01*
X017804910Y007330785D01*
G01*
X017617317Y007273880D01*
G01*
X017444430Y007181470D01*
G01*
X017292893Y007057107D01*
G01*
X017168530Y006905570D01*
G01*
X017076120Y006732683D01*
G01*
X017019215Y006545090D01*
G01*
X017000000Y006350000D01*
G01*
X017019215Y006154910D01*
G01*
X017076120Y005967317D01*
G01*
X017168530Y005794430D01*
G01*
X017292893Y005642893D01*
G01*
X017444430Y005518530D01*
G01*
X017617317Y005426120D01*
G01*
X017804910Y005369215D01*
G01*
X018000000Y005350000D01*
G37*
D34*
G36*
X040860000Y005350000D02*
G01*
X041055090Y005369215D01*
G01*
X041242683Y005426120D01*
G01*
X041415570Y005518530D01*
G01*
X041567107Y005642893D01*
G01*
X041691470Y005794430D01*
G01*
X041783880Y005967317D01*
G01*
X041840785Y006154910D01*
G01*
X041860000Y006350000D01*
G01*
X041840785Y006545090D01*
G01*
X041783880Y006732683D01*
G01*
X041691470Y006905570D01*
G01*
X041567107Y007057107D01*
G01*
X041415570Y007181470D01*
G01*
X041242683Y007273880D01*
G01*
X041055090Y007330785D01*
G01*
X040860000Y007350000D01*
G01*
X040664910Y007330785D01*
G01*
X040477317Y007273880D01*
G01*
X040304430Y007181470D01*
G01*
X040152893Y007057107D01*
G01*
X040028530Y006905570D01*
G01*
X039936120Y006732683D01*
G01*
X039879215Y006545090D01*
G01*
X039860000Y006350000D01*
G01*
X039879215Y006154910D01*
G01*
X039936120Y005967317D01*
G01*
X040028530Y005794430D01*
G01*
X040152893Y005642893D01*
G01*
X040304430Y005518530D01*
G01*
X040477317Y005426120D01*
G01*
X040664910Y005369215D01*
G01*
X040860000Y005350000D01*
G37*
D34*
G36*
X-07586000Y-00129000D02*
G01*
X-07507964Y-00121314D01*
G01*
X-07432927Y-00098552D01*
G01*
X-07363772Y-00061588D01*
G01*
X-07303157Y-00011843D01*
G01*
X-07253412Y000048772D01*
G01*
X-07216448Y000117927D01*
G01*
X-07193686Y000192964D01*
G01*
X-07186000Y000271000D01*
G01*
X-07193686Y000349036D01*
G01*
X-07216448Y000424073D01*
G01*
X-07253412Y000493228D01*
G01*
X-07303157Y000553843D01*
G01*
X-07363772Y000603588D01*
G01*
X-07432927Y000640552D01*
G01*
X-07507964Y000663314D01*
G01*
X-07586000Y000671000D01*
G01*
X-07664036Y000663314D01*
G01*
X-07739073Y000640552D01*
G01*
X-07808228Y000603588D01*
G01*
X-07817474Y000596000D01*
G01*
X-08074145Y000596000D01*
G01*
X-13027075Y005548930D01*
G01*
X-13025000Y005570000D01*
G01*
X-13032686Y005648036D01*
G01*
X-13055448Y005723073D01*
G01*
X-13092412Y005792228D01*
G01*
X-13142157Y005852843D01*
G01*
X-13202772Y005902588D01*
G01*
X-13271927Y005939552D01*
G01*
X-13346964Y005962314D01*
G01*
X-13425000Y005970000D01*
G01*
X-13503036Y005962314D01*
G01*
X-13578073Y005939552D01*
G01*
X-13647228Y005902588D01*
G01*
X-13707843Y005852843D01*
G01*
X-13757588Y005792228D01*
G01*
X-13794552Y005723073D01*
G01*
X-13817314Y005648036D01*
G01*
X-13825000Y005570000D01*
G01*
X-13817314Y005491964D01*
G01*
X-13794552Y005416927D01*
G01*
X-13757588Y005347772D01*
G01*
X-13707843Y005287157D01*
G01*
X-13647228Y005237412D01*
G01*
X-13620523Y005223138D01*
G01*
X-08438575Y000041190D01*
G01*
X-08389325Y000000772D01*
G01*
X-08333137Y-00029261D01*
G01*
X-08272169Y-00047755D01*
G01*
X-08208765Y-00054000D01*
G01*
X-07817474Y-00054000D01*
G01*
X-07808228Y-00061588D01*
G01*
X-07739073Y-00098552D01*
G01*
X-07664036Y-00121314D01*
G01*
X-07586000Y-00129000D01*
G37*
D34*
G36*
X018000000Y002810000D02*
G01*
X018195090Y002829215D01*
G01*
X018382683Y002886120D01*
G01*
X018555570Y002978530D01*
G01*
X018707107Y003102893D01*
G01*
X018831470Y003254430D01*
G01*
X018923880Y003427317D01*
G01*
X018980785Y003614910D01*
G01*
X019000000Y003810000D01*
G01*
X018980785Y004005090D01*
G01*
X018923880Y004192683D01*
G01*
X018831470Y004365570D01*
G01*
X018707107Y004517107D01*
G01*
X018555570Y004641470D01*
G01*
X018382683Y004733880D01*
G01*
X018195090Y004790785D01*
G01*
X018000000Y004810000D01*
G01*
X017804910Y004790785D01*
G01*
X017617317Y004733880D01*
G01*
X017444430Y004641470D01*
G01*
X017292893Y004517107D01*
G01*
X017168530Y004365570D01*
G01*
X017076120Y004192683D01*
G01*
X017019215Y004005090D01*
G01*
X017000000Y003810000D01*
G01*
X017019215Y003614910D01*
G01*
X017076120Y003427317D01*
G01*
X017168530Y003254430D01*
G01*
X017292893Y003102893D01*
G01*
X017444430Y002978530D01*
G01*
X017617317Y002886120D01*
G01*
X017804910Y002829215D01*
G01*
X018000000Y002810000D01*
G37*
D34*
G36*
X040860000Y002810000D02*
G01*
X041055090Y002829215D01*
G01*
X041242683Y002886120D01*
G01*
X041415570Y002978530D01*
G01*
X041567107Y003102893D01*
G01*
X041691470Y003254430D01*
G01*
X041783880Y003427317D01*
G01*
X041840785Y003614910D01*
G01*
X041860000Y003810000D01*
G01*
X041840785Y004005090D01*
G01*
X041783880Y004192683D01*
G01*
X041691470Y004365570D01*
G01*
X041567107Y004517107D01*
G01*
X041415570Y004641470D01*
G01*
X041242683Y004733880D01*
G01*
X041055090Y004790785D01*
G01*
X040860000Y004810000D01*
G01*
X040664910Y004790785D01*
G01*
X040477317Y004733880D01*
G01*
X040304430Y004641470D01*
G01*
X040152893Y004517107D01*
G01*
X040028530Y004365570D01*
G01*
X039936120Y004192683D01*
G01*
X039879215Y004005090D01*
G01*
X039860000Y003810000D01*
G01*
X039879215Y003614910D01*
G01*
X039936120Y003427317D01*
G01*
X040028530Y003254430D01*
G01*
X040152893Y003102893D01*
G01*
X040304430Y002978530D01*
G01*
X040477317Y002886120D01*
G01*
X040664910Y002829215D01*
G01*
X040860000Y002810000D01*
G37*
D34*
G36*
X-68000000Y-01000000D02*
G01*
X-67804910Y-00980785D01*
G01*
X-67617317Y-00923880D01*
G01*
X-67444430Y-00831470D01*
G01*
X-67292893Y-00707107D01*
G01*
X-67168530Y-00555570D01*
G01*
X-67076120Y-00382683D01*
G01*
X-67019215Y-00195090D01*
G01*
X-67000000Y000000000D01*
G01*
X-67019215Y000195090D01*
G01*
X-67076120Y000382683D01*
G01*
X-67104535Y000435845D01*
G01*
X-63736006Y003804374D01*
G01*
X-60137711Y003804374D01*
G01*
X-60129228Y003797412D01*
G01*
X-60060073Y003760448D01*
G01*
X-59985036Y003737686D01*
G01*
X-59907000Y003730000D01*
G01*
X-59828964Y003737686D01*
G01*
X-59753927Y003760448D01*
G01*
X-59684772Y003797412D01*
G01*
X-59624157Y003847157D01*
G01*
X-59574412Y003907772D01*
G01*
X-59537448Y003976927D01*
G01*
X-59514686Y004051964D01*
G01*
X-59507000Y004130000D01*
G01*
X-59514686Y004208036D01*
G01*
X-59537448Y004283073D01*
G01*
X-59574412Y004352228D01*
G01*
X-59624157Y004412843D01*
G01*
X-59684772Y004462588D01*
G01*
X-59753927Y004499552D01*
G01*
X-59828964Y004522314D01*
G01*
X-59907000Y004530000D01*
G01*
X-59985036Y004522314D01*
G01*
X-60060073Y004499552D01*
G01*
X-60129228Y004462588D01*
G01*
X-60139237Y004454374D01*
G01*
X-63870626Y004454374D01*
G01*
X-63934030Y004448129D01*
G01*
X-63994998Y004429635D01*
G01*
X-64051186Y004399602D01*
G01*
X-64100436Y004359184D01*
G01*
X-67564155Y000895465D01*
G01*
X-67617317Y000923880D01*
G01*
X-67804910Y000980785D01*
G01*
X-68000000Y001000000D01*
G01*
X-68195090Y000980785D01*
G01*
X-68382683Y000923880D01*
G01*
X-68555570Y000831470D01*
G01*
X-68707107Y000707107D01*
G01*
X-68831470Y000555570D01*
G01*
X-68923880Y000382683D01*
G01*
X-68980785Y000195090D01*
G01*
X-69000000Y000000000D01*
G01*
X-68980785Y-00195090D01*
G01*
X-68923880Y-00382683D01*
G01*
X-68831470Y-00555570D01*
G01*
X-68707107Y-00707107D01*
G01*
X-68555570Y-00831470D01*
G01*
X-68382683Y-00923880D01*
G01*
X-68195090Y-00980785D01*
G01*
X-68000000Y-01000000D01*
G37*
D34*
G36*
X040860000Y000270000D02*
G01*
X041055090Y000289215D01*
G01*
X041242683Y000346120D01*
G01*
X041415570Y000438530D01*
G01*
X041567107Y000562893D01*
G01*
X041691470Y000714430D01*
G01*
X041783880Y000887317D01*
G01*
X041840785Y001074910D01*
G01*
X041860000Y001270000D01*
G01*
X041840785Y001465090D01*
G01*
X041783880Y001652683D01*
G01*
X041691470Y001825570D01*
G01*
X041567107Y001977107D01*
G01*
X041415570Y002101470D01*
G01*
X041242683Y002193880D01*
G01*
X041055090Y002250785D01*
G01*
X040860000Y002270000D01*
G01*
X040664910Y002250785D01*
G01*
X040477317Y002193880D01*
G01*
X040304430Y002101470D01*
G01*
X040152893Y001977107D01*
G01*
X040028530Y001825570D01*
G01*
X039936120Y001652683D01*
G01*
X039879215Y001465090D01*
G01*
X039860000Y001270000D01*
G01*
X039879215Y001074910D01*
G01*
X039936120Y000887317D01*
G01*
X040028530Y000714430D01*
G01*
X040152893Y000562893D01*
G01*
X040304430Y000438530D01*
G01*
X040477317Y000346120D01*
G01*
X040664910Y000289215D01*
G01*
X040860000Y000270000D01*
G37*
D34*
G36*
X-71540000Y-01000000D02*
G01*
X-69540000Y-01000000D01*
G01*
X-69540000Y001000000D01*
G01*
X-71540000Y001000000D01*
G01*
X-71540000Y-01000000D01*
G37*
D34*
G36*
X-65460000Y-01000000D02*
G01*
X-65264910Y-00980785D01*
G01*
X-65077317Y-00923880D01*
G01*
X-64904430Y-00831470D01*
G01*
X-64752893Y-00707107D01*
G01*
X-64628530Y-00555570D01*
G01*
X-64536120Y-00382683D01*
G01*
X-64479215Y-00195090D01*
G01*
X-64460000Y000000000D01*
G01*
X-64479215Y000195090D01*
G01*
X-64536120Y000382683D01*
G01*
X-64628530Y000555570D01*
G01*
X-64752893Y000707107D01*
G01*
X-64904430Y000831470D01*
G01*
X-65077317Y000923880D01*
G01*
X-65264910Y000980785D01*
G01*
X-65460000Y001000000D01*
G01*
X-65655090Y000980785D01*
G01*
X-65842683Y000923880D01*
G01*
X-66015570Y000831470D01*
G01*
X-66167107Y000707107D01*
G01*
X-66291470Y000555570D01*
G01*
X-66383880Y000382683D01*
G01*
X-66440785Y000195090D01*
G01*
X-66460000Y000000000D01*
G01*
X-66440785Y-00195090D01*
G01*
X-66383880Y-00382683D01*
G01*
X-66291470Y-00555570D01*
G01*
X-66167107Y-00707107D01*
G01*
X-66015570Y-00831470D01*
G01*
X-65842683Y-00923880D01*
G01*
X-65655090Y-00980785D01*
G01*
X-65460000Y-01000000D01*
G37*
D34*
G36*
X044046000Y-01252000D02*
G01*
X044124036Y-01244314D01*
G01*
X044199073Y-01221552D01*
G01*
X044268228Y-01184588D01*
G01*
X044277474Y-01177000D01*
G01*
X044283295Y-01177000D01*
G01*
X044346699Y-01170755D01*
G01*
X044407667Y-01152261D01*
G01*
X044463855Y-01122228D01*
G01*
X044513105Y-01081810D01*
G01*
X045690385Y000095470D01*
G01*
X045723036Y000098686D01*
G01*
X045798073Y000121448D01*
G01*
X045867228Y000158412D01*
G01*
X045927843Y000208157D01*
G01*
X045977588Y000268772D01*
G01*
X046014552Y000337927D01*
G01*
X046037314Y000412964D01*
G01*
X046045000Y000491000D01*
G01*
X046037314Y000569036D01*
G01*
X046014552Y000644073D01*
G01*
X045977588Y000713228D01*
G01*
X045927843Y000773843D01*
G01*
X045867228Y000823588D01*
G01*
X045798073Y000860552D01*
G01*
X045723036Y000883314D01*
G01*
X045645000Y000891000D01*
G01*
X045566964Y000883314D01*
G01*
X045491927Y000860552D01*
G01*
X045422772Y000823588D01*
G01*
X045362157Y000773843D01*
G01*
X045312412Y000713228D01*
G01*
X045275448Y000644073D01*
G01*
X045256159Y000580484D01*
G01*
X044194588Y-00481087D01*
G01*
X044124036Y-00459686D01*
G01*
X044046000Y-00452000D01*
G01*
X043967964Y-00459686D01*
G01*
X043892927Y-00482448D01*
G01*
X043823772Y-00519412D01*
G01*
X043763157Y-00569157D01*
G01*
X043713412Y-00629772D01*
G01*
X043676448Y-00698927D01*
G01*
X043653686Y-00773964D01*
G01*
X043646000Y-00852000D01*
G01*
X043653686Y-00930036D01*
G01*
X043676448Y-01005073D01*
G01*
X043713412Y-01074228D01*
G01*
X043763157Y-01134843D01*
G01*
X043823772Y-01184588D01*
G01*
X043892927Y-01221552D01*
G01*
X043967964Y-01244314D01*
G01*
X044046000Y-01252000D01*
G37*
D34*
G36*
X018000000Y-02270000D02*
G01*
X018195090Y-02250785D01*
G01*
X018382683Y-02193880D01*
G01*
X018555570Y-02101470D01*
G01*
X018707107Y-01977107D01*
G01*
X018831470Y-01825570D01*
G01*
X018923880Y-01652683D01*
G01*
X018980785Y-01465090D01*
G01*
X019000000Y-01270000D01*
G01*
X018980785Y-01074910D01*
G01*
X018923880Y-00887317D01*
G01*
X018831470Y-00714430D01*
G01*
X018707107Y-00562893D01*
G01*
X018555570Y-00438530D01*
G01*
X018382683Y-00346120D01*
G01*
X018195090Y-00289215D01*
G01*
X018000000Y-00270000D01*
G01*
X017804910Y-00289215D01*
G01*
X017617317Y-00346120D01*
G01*
X017444430Y-00438530D01*
G01*
X017292893Y-00562893D01*
G01*
X017168530Y-00714430D01*
G01*
X017076120Y-00887317D01*
G01*
X017019215Y-01074910D01*
G01*
X017000000Y-01270000D01*
G01*
X017019215Y-01465090D01*
G01*
X017076120Y-01652683D01*
G01*
X017168530Y-01825570D01*
G01*
X017292893Y-01977107D01*
G01*
X017444430Y-02101470D01*
G01*
X017617317Y-02193880D01*
G01*
X017804910Y-02250785D01*
G01*
X018000000Y-02270000D01*
G37*
D34*
G36*
X040860000Y-02270000D02*
G01*
X041055090Y-02250785D01*
G01*
X041242683Y-02193880D01*
G01*
X041415570Y-02101470D01*
G01*
X041567107Y-01977107D01*
G01*
X041691470Y-01825570D01*
G01*
X041783880Y-01652683D01*
G01*
X041840785Y-01465090D01*
G01*
X041860000Y-01270000D01*
G01*
X041840785Y-01074910D01*
G01*
X041783880Y-00887317D01*
G01*
X041691470Y-00714430D01*
G01*
X041567107Y-00562893D01*
G01*
X041415570Y-00438530D01*
G01*
X041242683Y-00346120D01*
G01*
X041055090Y-00289215D01*
G01*
X040860000Y-00270000D01*
G01*
X040664910Y-00289215D01*
G01*
X040477317Y-00346120D01*
G01*
X040304430Y-00438530D01*
G01*
X040152893Y-00562893D01*
G01*
X040028530Y-00714430D01*
G01*
X039936120Y-00887317D01*
G01*
X039879215Y-01074910D01*
G01*
X039860000Y-01270000D01*
G01*
X039879215Y-01465090D01*
G01*
X039936120Y-01652683D01*
G01*
X040028530Y-01825570D01*
G01*
X040152893Y-01977107D01*
G01*
X040304430Y-02101470D01*
G01*
X040477317Y-02193880D01*
G01*
X040664910Y-02250785D01*
G01*
X040860000Y-02270000D01*
G37*
D34*
G36*
X004256000Y-10162000D02*
G01*
X004334036Y-10154314D01*
G01*
X004409073Y-10131552D01*
G01*
X004478228Y-10094588D01*
G01*
X004538843Y-10044843D01*
G01*
X004588588Y-09984228D01*
G01*
X004625552Y-09915073D01*
G01*
X004648314Y-09840036D01*
G01*
X004656000Y-09762000D01*
G01*
X004648314Y-09683964D01*
G01*
X004625552Y-09608927D01*
G01*
X004588588Y-09539772D01*
G01*
X004581000Y-09530526D01*
G01*
X004581000Y-07148751D01*
G01*
X008531482Y-03198269D01*
G01*
X008603073Y-03176552D01*
G01*
X008672228Y-03139588D01*
G01*
X008732843Y-03089843D01*
G01*
X008782588Y-03029228D01*
G01*
X008819552Y-02960073D01*
G01*
X008842314Y-02885036D01*
G01*
X008850000Y-02807000D01*
G01*
X008842314Y-02728964D01*
G01*
X008819552Y-02653927D01*
G01*
X008782588Y-02584772D01*
G01*
X008732843Y-02524157D01*
G01*
X008672228Y-02474412D01*
G01*
X008603073Y-02437448D01*
G01*
X008528036Y-02414686D01*
G01*
X008450000Y-02407000D01*
G01*
X008371964Y-02414686D01*
G01*
X008296927Y-02437448D01*
G01*
X008227772Y-02474412D01*
G01*
X008167157Y-02524157D01*
G01*
X008117412Y-02584772D01*
G01*
X008080448Y-02653927D01*
G01*
X008057686Y-02728964D01*
G01*
X008055643Y-02749702D01*
G01*
X008051676Y-02754536D01*
G01*
X008046738Y-02763774D01*
G01*
X004026190Y-06784322D01*
G01*
X003985772Y-06833571D01*
G01*
X003955739Y-06889759D01*
G01*
X003937245Y-06950727D01*
G01*
X003931000Y-07014131D01*
G01*
X003931000Y-09530526D01*
G01*
X003923412Y-09539772D01*
G01*
X003886448Y-09608927D01*
G01*
X003863686Y-09683964D01*
G01*
X003856000Y-09762000D01*
G01*
X003863686Y-09840036D01*
G01*
X003886448Y-09915073D01*
G01*
X003923412Y-09984228D01*
G01*
X003973157Y-10044843D01*
G01*
X004033772Y-10094588D01*
G01*
X004102927Y-10131552D01*
G01*
X004177964Y-10154314D01*
G01*
X004256000Y-10162000D01*
G37*
D34*
G36*
X-10940000Y-26750000D02*
G01*
X-08740000Y-26750000D01*
G01*
X-08740000Y-25975000D01*
G01*
X-01409359Y-25975000D01*
G01*
X-01345954Y-25968755D01*
G01*
X-01284986Y-25950261D01*
G01*
X-01228798Y-25920228D01*
G01*
X-01179549Y-25879810D01*
G01*
X007177846Y-17522415D01*
G01*
X007218264Y-17473166D01*
G01*
X007248297Y-17416977D01*
G01*
X007266791Y-17356010D01*
G01*
X007273036Y-17292605D01*
G01*
X007273036Y-17260325D01*
G01*
X007305964Y-17270314D01*
G01*
X007317867Y-17271486D01*
G01*
X007723997Y-17677617D01*
G01*
X007773247Y-17718035D01*
G01*
X007829435Y-17748068D01*
G01*
X007890403Y-17766562D01*
G01*
X007953807Y-17772807D01*
G01*
X008023948Y-17772807D01*
G01*
X039123187Y-17772807D01*
G01*
X039964535Y-18614155D01*
G01*
X039936120Y-18667317D01*
G01*
X039879215Y-18854910D01*
G01*
X039860000Y-19050000D01*
G01*
X039879215Y-19245090D01*
G01*
X039936120Y-19432683D01*
G01*
X040028530Y-19605570D01*
G01*
X040152893Y-19757107D01*
G01*
X040304430Y-19881470D01*
G01*
X040477317Y-19973880D01*
G01*
X040664910Y-20030785D01*
G01*
X040860000Y-20050000D01*
G01*
X041055090Y-20030785D01*
G01*
X041242683Y-19973880D01*
G01*
X041415570Y-19881470D01*
G01*
X041567107Y-19757107D01*
G01*
X041691470Y-19605570D01*
G01*
X041783880Y-19432683D01*
G01*
X041840785Y-19245090D01*
G01*
X041860000Y-19050000D01*
G01*
X041840785Y-18854910D01*
G01*
X041783880Y-18667317D01*
G01*
X041691470Y-18494430D01*
G01*
X041567107Y-18342893D01*
G01*
X041415570Y-18218530D01*
G01*
X041242683Y-18126120D01*
G01*
X041055090Y-18069215D01*
G01*
X040860000Y-18050000D01*
G01*
X040664910Y-18069215D01*
G01*
X040477317Y-18126120D01*
G01*
X040424155Y-18154535D01*
G01*
X039487617Y-17217997D01*
G01*
X039438367Y-17177579D01*
G01*
X039382179Y-17147546D01*
G01*
X039321211Y-17129052D01*
G01*
X039257807Y-17122807D01*
G01*
X018784497Y-17122807D01*
G01*
X018831470Y-17065570D01*
G01*
X018923880Y-16892683D01*
G01*
X018980785Y-16705090D01*
G01*
X019000000Y-16510000D01*
G01*
X018980785Y-16314910D01*
G01*
X018923880Y-16127317D01*
G01*
X018831470Y-15954430D01*
G01*
X018707107Y-15802893D01*
G01*
X018555570Y-15678530D01*
G01*
X018382683Y-15586120D01*
G01*
X018195090Y-15529215D01*
G01*
X018000000Y-15510000D01*
G01*
X017804910Y-15529215D01*
G01*
X017617317Y-15586120D01*
G01*
X017444430Y-15678530D01*
G01*
X017292893Y-15802893D01*
G01*
X017168530Y-15954430D01*
G01*
X017076120Y-16127317D01*
G01*
X017058622Y-16185000D01*
G01*
X013553620Y-16185000D01*
G01*
X011025486Y-13656867D01*
G01*
X011024314Y-13644964D01*
G01*
X011001552Y-13569927D01*
G01*
X010964588Y-13500772D01*
G01*
X010914843Y-13440157D01*
G01*
X010854228Y-13390412D01*
G01*
X010785073Y-13353448D01*
G01*
X010710036Y-13330686D01*
G01*
X010632000Y-13323000D01*
G01*
X010553964Y-13330686D01*
G01*
X010478927Y-13353448D01*
G01*
X010409772Y-13390412D01*
G01*
X010349157Y-13440157D01*
G01*
X010299412Y-13500772D01*
G01*
X010262448Y-13569927D01*
G01*
X010239686Y-13644964D01*
G01*
X010232000Y-13723000D01*
G01*
X010239686Y-13801036D01*
G01*
X010245795Y-13821175D01*
G01*
X010136486Y-13711866D01*
G01*
X010135314Y-13699964D01*
G01*
X010112552Y-13624927D01*
G01*
X010075588Y-13555772D01*
G01*
X010025843Y-13495157D01*
G01*
X009998555Y-13472762D01*
G01*
X014168063Y-09303254D01*
G01*
X017092461Y-09303254D01*
G01*
X017168530Y-09445570D01*
G01*
X017292893Y-09597107D01*
G01*
X017444430Y-09721470D01*
G01*
X017617317Y-09813880D01*
G01*
X017804910Y-09870785D01*
G01*
X018000000Y-09890000D01*
G01*
X018195090Y-09870785D01*
G01*
X018382683Y-09813880D01*
G01*
X018555570Y-09721470D01*
G01*
X018707107Y-09597107D01*
G01*
X018831470Y-09445570D01*
G01*
X018923880Y-09272683D01*
G01*
X018980785Y-09085090D01*
G01*
X019000000Y-08890000D01*
G01*
X018980785Y-08694910D01*
G01*
X018923880Y-08507317D01*
G01*
X018831470Y-08334430D01*
G01*
X018707107Y-08182893D01*
G01*
X018555570Y-08058530D01*
G01*
X018382683Y-07966120D01*
G01*
X018195090Y-07909215D01*
G01*
X018000000Y-07890000D01*
G01*
X017804910Y-07909215D01*
G01*
X017617317Y-07966120D01*
G01*
X017444430Y-08058530D01*
G01*
X017292893Y-08182893D01*
G01*
X017168530Y-08334430D01*
G01*
X017076120Y-08507317D01*
G01*
X017031851Y-08653254D01*
G01*
X014033443Y-08653254D01*
G01*
X013970038Y-08659499D01*
G01*
X013909071Y-08677993D01*
G01*
X013852882Y-08708027D01*
G01*
X013803633Y-08748445D01*
G01*
X012082965Y-10469113D01*
G01*
X012060843Y-10442157D01*
G01*
X012000228Y-10392412D01*
G01*
X011931073Y-10355448D01*
G01*
X011918106Y-10351514D01*
G01*
X017564155Y-04705465D01*
G01*
X017617317Y-04733880D01*
G01*
X017804910Y-04790785D01*
G01*
X018000000Y-04810000D01*
G01*
X018195090Y-04790785D01*
G01*
X018382683Y-04733880D01*
G01*
X018555570Y-04641470D01*
G01*
X018707107Y-04517107D01*
G01*
X018831470Y-04365570D01*
G01*
X018923880Y-04192683D01*
G01*
X018980785Y-04005090D01*
G01*
X019000000Y-03810000D01*
G01*
X018980785Y-03614910D01*
G01*
X018923880Y-03427317D01*
G01*
X018831470Y-03254430D01*
G01*
X018707107Y-03102893D01*
G01*
X018555570Y-02978530D01*
G01*
X018382683Y-02886120D01*
G01*
X018195090Y-02829215D01*
G01*
X018000000Y-02810000D01*
G01*
X017804910Y-02829215D01*
G01*
X017617317Y-02886120D01*
G01*
X017444430Y-02978530D01*
G01*
X017292893Y-03102893D01*
G01*
X017168530Y-03254430D01*
G01*
X017076120Y-03427317D01*
G01*
X017019215Y-03614910D01*
G01*
X017000000Y-03810000D01*
G01*
X017019215Y-04005090D01*
G01*
X017076120Y-04192683D01*
G01*
X017104535Y-04245845D01*
G01*
X008495380Y-12855000D01*
G01*
X-00080526Y-12855000D01*
G01*
X-00089772Y-12847412D01*
G01*
X-00158927Y-12810448D01*
G01*
X-00233964Y-12787686D01*
G01*
X-00312000Y-12780000D01*
G01*
X-00390036Y-12787686D01*
G01*
X-00465073Y-12810448D01*
G01*
X-00534228Y-12847412D01*
G01*
X-00594843Y-12897157D01*
G01*
X-00644588Y-12957772D01*
G01*
X-00681552Y-13026927D01*
G01*
X-00704314Y-13101964D01*
G01*
X-00712000Y-13180000D01*
G01*
X-00709351Y-13206895D01*
G01*
X-07536193Y-13206895D01*
G01*
X-10184175Y-10558913D01*
G01*
X-10189686Y-10502964D01*
G01*
X-10212448Y-10427927D01*
G01*
X-10249412Y-10358772D01*
G01*
X-10299157Y-10298157D01*
G01*
X-10359772Y-10248412D01*
G01*
X-10428927Y-10211448D01*
G01*
X-10503964Y-10188686D01*
G01*
X-10582000Y-10181000D01*
G01*
X-10660036Y-10188686D01*
G01*
X-10735073Y-10211448D01*
G01*
X-10804228Y-10248412D01*
G01*
X-10864843Y-10298157D01*
G01*
X-10914588Y-10358772D01*
G01*
X-10951552Y-10427927D01*
G01*
X-10974314Y-10502964D01*
G01*
X-10982000Y-10581000D01*
G01*
X-10974314Y-10659036D01*
G01*
X-10951552Y-10734073D01*
G01*
X-10914588Y-10803228D01*
G01*
X-10864843Y-10863843D01*
G01*
X-10804228Y-10913588D01*
G01*
X-10735073Y-10950552D01*
G01*
X-10701630Y-10960697D01*
G01*
X-08100215Y-13562111D01*
G01*
X-23569243Y-13562111D01*
G01*
X-24591959Y-12539395D01*
G01*
X-24605448Y-12494927D01*
G01*
X-24642412Y-12425772D01*
G01*
X-24692157Y-12365157D01*
G01*
X-24752772Y-12315412D01*
G01*
X-24821927Y-12278448D01*
G01*
X-24896964Y-12255686D01*
G01*
X-24975000Y-12248000D01*
G01*
X-25053036Y-12255686D01*
G01*
X-25128073Y-12278448D01*
G01*
X-25197228Y-12315412D01*
G01*
X-25257843Y-12365157D01*
G01*
X-25307588Y-12425772D01*
G01*
X-25344552Y-12494927D01*
G01*
X-25367314Y-12569964D01*
G01*
X-25375000Y-12648000D01*
G01*
X-25367314Y-12726036D01*
G01*
X-25344552Y-12801073D01*
G01*
X-25307588Y-12870228D01*
G01*
X-25257843Y-12930843D01*
G01*
X-25197228Y-12980588D01*
G01*
X-25128073Y-13017552D01*
G01*
X-25053036Y-13040314D01*
G01*
X-25005607Y-13044985D01*
G01*
X-23933671Y-14116921D01*
G01*
X-23884422Y-14157339D01*
G01*
X-23828234Y-14187372D01*
G01*
X-23767266Y-14205866D01*
G01*
X-23703862Y-14212111D01*
G01*
X003467492Y-14212111D01*
G01*
X006171514Y-16916134D01*
G01*
X006172686Y-16928036D01*
G01*
X006195448Y-17003073D01*
G01*
X006232412Y-17072228D01*
G01*
X006282157Y-17132843D01*
G01*
X006342772Y-17182588D01*
G01*
X006411927Y-17219552D01*
G01*
X006486964Y-17242314D01*
G01*
X006534069Y-17246953D01*
G01*
X002901220Y-20879802D01*
G01*
X002890843Y-20867157D01*
G01*
X002830228Y-20817412D01*
G01*
X002785000Y-20793237D01*
G01*
X002785000Y-16605474D01*
G01*
X002792588Y-16596228D01*
G01*
X002829552Y-16527073D01*
G01*
X002852314Y-16452036D01*
G01*
X002860000Y-16374000D01*
G01*
X002852314Y-16295964D01*
G01*
X002829552Y-16220927D01*
G01*
X002792588Y-16151772D01*
G01*
X002742843Y-16091157D01*
G01*
X002682228Y-16041412D01*
G01*
X002613073Y-16004448D01*
G01*
X002538036Y-15981686D01*
G01*
X002460000Y-15974000D01*
G01*
X002381964Y-15981686D01*
G01*
X002306927Y-16004448D01*
G01*
X002237772Y-16041412D01*
G01*
X002177157Y-16091157D01*
G01*
X002127412Y-16151772D01*
G01*
X002090448Y-16220927D01*
G01*
X002067686Y-16295964D01*
G01*
X002060000Y-16374000D01*
G01*
X002067686Y-16452036D01*
G01*
X002090448Y-16527073D01*
G01*
X002127412Y-16596228D01*
G01*
X002135000Y-16605474D01*
G01*
X002135000Y-20946277D01*
G01*
X002141245Y-21009681D01*
G01*
X002159739Y-21070649D01*
G01*
X002189772Y-21126837D01*
G01*
X002208084Y-21149150D01*
G01*
X002208000Y-21150000D01*
G01*
X002215686Y-21228036D01*
G01*
X002238448Y-21303073D01*
G01*
X002275412Y-21372228D01*
G01*
X002325157Y-21432843D01*
G01*
X002337802Y-21443220D01*
G01*
X-01543978Y-25325000D01*
G01*
X-08740000Y-25325000D01*
G01*
X-08740000Y-24550000D01*
G01*
X-10940000Y-24550000D01*
G01*
X-10940000Y-26750000D01*
G37*
D34*
G36*
X040860000Y-04810000D02*
G01*
X041055090Y-04790785D01*
G01*
X041242683Y-04733880D01*
G01*
X041415570Y-04641470D01*
G01*
X041567107Y-04517107D01*
G01*
X041691470Y-04365570D01*
G01*
X041783880Y-04192683D01*
G01*
X041840785Y-04005090D01*
G01*
X041860000Y-03810000D01*
G01*
X041840785Y-03614910D01*
G01*
X041783880Y-03427317D01*
G01*
X041691470Y-03254430D01*
G01*
X041567107Y-03102893D01*
G01*
X041415570Y-02978530D01*
G01*
X041242683Y-02886120D01*
G01*
X041055090Y-02829215D01*
G01*
X040860000Y-02810000D01*
G01*
X040664910Y-02829215D01*
G01*
X040477317Y-02886120D01*
G01*
X040304430Y-02978530D01*
G01*
X040152893Y-03102893D01*
G01*
X040028530Y-03254430D01*
G01*
X039936120Y-03427317D01*
G01*
X039879215Y-03614910D01*
G01*
X039860000Y-03810000D01*
G01*
X039879215Y-04005090D01*
G01*
X039936120Y-04192683D01*
G01*
X040028530Y-04365570D01*
G01*
X040152893Y-04517107D01*
G01*
X040304430Y-04641470D01*
G01*
X040477317Y-04733880D01*
G01*
X040664910Y-04790785D01*
G01*
X040860000Y-04810000D01*
G37*
D34*
G36*
X018000000Y-07350000D02*
G01*
X018195090Y-07330785D01*
G01*
X018382683Y-07273880D01*
G01*
X018555570Y-07181470D01*
G01*
X018707107Y-07057107D01*
G01*
X018831470Y-06905570D01*
G01*
X018923880Y-06732683D01*
G01*
X018980785Y-06545090D01*
G01*
X019000000Y-06350000D01*
G01*
X018980785Y-06154910D01*
G01*
X018923880Y-05967317D01*
G01*
X018831470Y-05794430D01*
G01*
X018707107Y-05642893D01*
G01*
X018555570Y-05518530D01*
G01*
X018382683Y-05426120D01*
G01*
X018195090Y-05369215D01*
G01*
X018000000Y-05350000D01*
G01*
X017804910Y-05369215D01*
G01*
X017617317Y-05426120D01*
G01*
X017444430Y-05518530D01*
G01*
X017292893Y-05642893D01*
G01*
X017168530Y-05794430D01*
G01*
X017076120Y-05967317D01*
G01*
X017019215Y-06154910D01*
G01*
X017000000Y-06350000D01*
G01*
X017019215Y-06545090D01*
G01*
X017076120Y-06732683D01*
G01*
X017168530Y-06905570D01*
G01*
X017292893Y-07057107D01*
G01*
X017444430Y-07181470D01*
G01*
X017617317Y-07273880D01*
G01*
X017804910Y-07330785D01*
G01*
X018000000Y-07350000D01*
G37*
D34*
G36*
X044389000Y-09206000D02*
G01*
X044467036Y-09198314D01*
G01*
X044542073Y-09175552D01*
G01*
X044611228Y-09138588D01*
G01*
X044671843Y-09088843D01*
G01*
X044721588Y-09028228D01*
G01*
X044758552Y-08959073D01*
G01*
X044781314Y-08884036D01*
G01*
X044789000Y-08806000D01*
G01*
X044781314Y-08727964D01*
G01*
X044758552Y-08652927D01*
G01*
X044721588Y-08583772D01*
G01*
X044671843Y-08523157D01*
G01*
X044611228Y-08473412D01*
G01*
X044542073Y-08436448D01*
G01*
X044467036Y-08413686D01*
G01*
X044449291Y-08411938D01*
G01*
X044429410Y-08395622D01*
G01*
X044407081Y-08383687D01*
G01*
X042143584Y-06120190D01*
G01*
X042094335Y-06079772D01*
G01*
X042038147Y-06049739D01*
G01*
X041977179Y-06031245D01*
G01*
X041913774Y-06025000D01*
G01*
X041801378Y-06025000D01*
G01*
X041783880Y-05967317D01*
G01*
X041691470Y-05794430D01*
G01*
X041567107Y-05642893D01*
G01*
X041415570Y-05518530D01*
G01*
X041242683Y-05426120D01*
G01*
X041055090Y-05369215D01*
G01*
X040860000Y-05350000D01*
G01*
X040664910Y-05369215D01*
G01*
X040477317Y-05426120D01*
G01*
X040304430Y-05518530D01*
G01*
X040152893Y-05642893D01*
G01*
X040028530Y-05794430D01*
G01*
X039936120Y-05967317D01*
G01*
X039879215Y-06154910D01*
G01*
X039860000Y-06350000D01*
G01*
X039879215Y-06545090D01*
G01*
X039936120Y-06732683D01*
G01*
X040028530Y-06905570D01*
G01*
X040152893Y-07057107D01*
G01*
X040304430Y-07181470D01*
G01*
X040477317Y-07273880D01*
G01*
X040664910Y-07330785D01*
G01*
X040860000Y-07350000D01*
G01*
X041055090Y-07330785D01*
G01*
X041242683Y-07273880D01*
G01*
X041415570Y-07181470D01*
G01*
X041567107Y-07057107D01*
G01*
X041691470Y-06905570D01*
G01*
X041783880Y-06732683D01*
G01*
X041796206Y-06692051D01*
G01*
X043999814Y-08895659D01*
G01*
X044000344Y-08896094D01*
G01*
X044019448Y-08959073D01*
G01*
X044056412Y-09028228D01*
G01*
X044106157Y-09088843D01*
G01*
X044166772Y-09138588D01*
G01*
X044235927Y-09175552D01*
G01*
X044310964Y-09198314D01*
G01*
X044389000Y-09206000D01*
G37*
D34*
G36*
X024000000Y-14000000D02*
G01*
X024078036Y-13992314D01*
G01*
X024153073Y-13969552D01*
G01*
X024222228Y-13932588D01*
G01*
X024282843Y-13882843D01*
G01*
X024332588Y-13822228D01*
G01*
X024369552Y-13753073D01*
G01*
X024392314Y-13678036D01*
G01*
X024400000Y-13600000D01*
G01*
X024392314Y-13521964D01*
G01*
X024369552Y-13446927D01*
G01*
X024332588Y-13377772D01*
G01*
X024325000Y-13368526D01*
G01*
X024325000Y-07431474D01*
G01*
X024332588Y-07422228D01*
G01*
X024369552Y-07353073D01*
G01*
X024392314Y-07278036D01*
G01*
X024400000Y-07200000D01*
G01*
X024392314Y-07121964D01*
G01*
X024369552Y-07046927D01*
G01*
X024332588Y-06977772D01*
G01*
X024282843Y-06917157D01*
G01*
X024222228Y-06867412D01*
G01*
X024153073Y-06830448D01*
G01*
X024078036Y-06807686D01*
G01*
X024000000Y-06800000D01*
G01*
X023921964Y-06807686D01*
G01*
X023846927Y-06830448D01*
G01*
X023777772Y-06867412D01*
G01*
X023717157Y-06917157D01*
G01*
X023667412Y-06977772D01*
G01*
X023630448Y-07046927D01*
G01*
X023607686Y-07121964D01*
G01*
X023600000Y-07200000D01*
G01*
X023607686Y-07278036D01*
G01*
X023630448Y-07353073D01*
G01*
X023667412Y-07422228D01*
G01*
X023675000Y-07431474D01*
G01*
X023675000Y-13368526D01*
G01*
X023667412Y-13377772D01*
G01*
X023630448Y-13446927D01*
G01*
X023607686Y-13521964D01*
G01*
X023600000Y-13600000D01*
G01*
X023607686Y-13678036D01*
G01*
X023630448Y-13753073D01*
G01*
X023667412Y-13822228D01*
G01*
X023717157Y-13882843D01*
G01*
X023777772Y-13932588D01*
G01*
X023846927Y-13969552D01*
G01*
X023921964Y-13992314D01*
G01*
X024000000Y-14000000D01*
G37*
D34*
G36*
X-65460000Y-16000000D02*
G01*
X-65264910Y-15980785D01*
G01*
X-65077317Y-15923880D01*
G01*
X-64904430Y-15831470D01*
G01*
X-64752893Y-15707107D01*
G01*
X-64628530Y-15555570D01*
G01*
X-64536120Y-15382683D01*
G01*
X-64518622Y-15325000D01*
G01*
X-58441458Y-15325000D01*
G01*
X-58378054Y-15318755D01*
G01*
X-58317086Y-15300261D01*
G01*
X-58260898Y-15270228D01*
G01*
X-58211648Y-15229810D01*
G01*
X-51594776Y-08612937D01*
G01*
X-51526772Y-08576588D01*
G01*
X-51466157Y-08526843D01*
G01*
X-51416412Y-08466228D01*
G01*
X-51379448Y-08397073D01*
G01*
X-51356686Y-08322036D01*
G01*
X-51349000Y-08244000D01*
G01*
X-51356686Y-08165964D01*
G01*
X-51379448Y-08090927D01*
G01*
X-51416412Y-08021772D01*
G01*
X-51466157Y-07961157D01*
G01*
X-51526772Y-07911412D01*
G01*
X-51595927Y-07874448D01*
G01*
X-51670964Y-07851686D01*
G01*
X-51749000Y-07844000D01*
G01*
X-51827036Y-07851686D01*
G01*
X-51902073Y-07874448D01*
G01*
X-51971228Y-07911412D01*
G01*
X-52031843Y-07961157D01*
G01*
X-52081588Y-08021772D01*
G01*
X-52118552Y-08090927D01*
G01*
X-52141314Y-08165964D01*
G01*
X-52149000Y-08244000D01*
G01*
X-52148648Y-08247571D01*
G01*
X-58576078Y-14675000D01*
G01*
X-64518622Y-14675000D01*
G01*
X-64536120Y-14617317D01*
G01*
X-64628530Y-14444430D01*
G01*
X-64752893Y-14292893D01*
G01*
X-64904430Y-14168530D01*
G01*
X-65077317Y-14076120D01*
G01*
X-65264910Y-14019215D01*
G01*
X-65460000Y-14000000D01*
G01*
X-65655090Y-14019215D01*
G01*
X-65842683Y-14076120D01*
G01*
X-66015570Y-14168530D01*
G01*
X-66167107Y-14292893D01*
G01*
X-66291470Y-14444430D01*
G01*
X-66383880Y-14617317D01*
G01*
X-66440785Y-14804910D01*
G01*
X-66460000Y-15000000D01*
G01*
X-66440785Y-15195090D01*
G01*
X-66383880Y-15382683D01*
G01*
X-66291470Y-15555570D01*
G01*
X-66167107Y-15707107D01*
G01*
X-66015570Y-15831470D01*
G01*
X-65842683Y-15923880D01*
G01*
X-65655090Y-15980785D01*
G01*
X-65460000Y-16000000D01*
G37*
D34*
G36*
X040860000Y-09890000D02*
G01*
X041055090Y-09870785D01*
G01*
X041242683Y-09813880D01*
G01*
X041415570Y-09721470D01*
G01*
X041567107Y-09597107D01*
G01*
X041691470Y-09445570D01*
G01*
X041783880Y-09272683D01*
G01*
X041840785Y-09085090D01*
G01*
X041860000Y-08890000D01*
G01*
X041840785Y-08694910D01*
G01*
X041783880Y-08507317D01*
G01*
X041691470Y-08334430D01*
G01*
X041567107Y-08182893D01*
G01*
X041415570Y-08058530D01*
G01*
X041242683Y-07966120D01*
G01*
X041055090Y-07909215D01*
G01*
X040860000Y-07890000D01*
G01*
X040664910Y-07909215D01*
G01*
X040477317Y-07966120D01*
G01*
X040304430Y-08058530D01*
G01*
X040152893Y-08182893D01*
G01*
X040028530Y-08334430D01*
G01*
X039936120Y-08507317D01*
G01*
X039879215Y-08694910D01*
G01*
X039860000Y-08890000D01*
G01*
X039879215Y-09085090D01*
G01*
X039936120Y-09272683D01*
G01*
X040028530Y-09445570D01*
G01*
X040152893Y-09597107D01*
G01*
X040304430Y-09721470D01*
G01*
X040477317Y-09813880D01*
G01*
X040664910Y-09870785D01*
G01*
X040860000Y-09890000D01*
G37*
D34*
G36*
X068270000Y-13000000D02*
G01*
X068465090Y-12980785D01*
G01*
X068652683Y-12923880D01*
G01*
X068825570Y-12831470D01*
G01*
X068977107Y-12707107D01*
G01*
X069101470Y-12555570D01*
G01*
X069193880Y-12382683D01*
G01*
X069250785Y-12195090D01*
G01*
X069270000Y-12000000D01*
G01*
X069250785Y-11804910D01*
G01*
X069193880Y-11617317D01*
G01*
X069101470Y-11444430D01*
G01*
X068977107Y-11292893D01*
G01*
X068825570Y-11168530D01*
G01*
X068652683Y-11076120D01*
G01*
X068465090Y-11019215D01*
G01*
X068270000Y-11000000D01*
G01*
X068074910Y-11019215D01*
G01*
X067887317Y-11076120D01*
G01*
X067834155Y-11104535D01*
G01*
X066933142Y-10203522D01*
G01*
X066883892Y-10163104D01*
G01*
X066827704Y-10133071D01*
G01*
X066766736Y-10114577D01*
G01*
X066703332Y-10108332D01*
G01*
X063833316Y-10108332D01*
G01*
X063821228Y-10098412D01*
G01*
X063752073Y-10061448D01*
G01*
X063677036Y-10038686D01*
G01*
X063599000Y-10031000D01*
G01*
X063520964Y-10038686D01*
G01*
X063445927Y-10061448D01*
G01*
X063376772Y-10098412D01*
G01*
X063316157Y-10148157D01*
G01*
X063266412Y-10208772D01*
G01*
X063229448Y-10277927D01*
G01*
X063206686Y-10352964D01*
G01*
X063199000Y-10431000D01*
G01*
X063206686Y-10509036D01*
G01*
X063229448Y-10584073D01*
G01*
X063266412Y-10653228D01*
G01*
X063316157Y-10713843D01*
G01*
X063376772Y-10763588D01*
G01*
X063445927Y-10800552D01*
G01*
X063520964Y-10823314D01*
G01*
X063599000Y-10831000D01*
G01*
X063677036Y-10823314D01*
G01*
X063752073Y-10800552D01*
G01*
X063821228Y-10763588D01*
G01*
X063827633Y-10758332D01*
G01*
X066568712Y-10758332D01*
G01*
X067374535Y-11564155D01*
G01*
X067346120Y-11617317D01*
G01*
X067289215Y-11804910D01*
G01*
X067270000Y-12000000D01*
G01*
X067289215Y-12195090D01*
G01*
X067346120Y-12382683D01*
G01*
X067438530Y-12555570D01*
G01*
X067562893Y-12707107D01*
G01*
X067714430Y-12831470D01*
G01*
X067887317Y-12923880D01*
G01*
X068074910Y-12980785D01*
G01*
X068270000Y-13000000D01*
G37*
D34*
G36*
X018000000Y-12430000D02*
G01*
X018195090Y-12410785D01*
G01*
X018382683Y-12353880D01*
G01*
X018555570Y-12261470D01*
G01*
X018707107Y-12137107D01*
G01*
X018831470Y-11985570D01*
G01*
X018923880Y-11812683D01*
G01*
X018980785Y-11625090D01*
G01*
X019000000Y-11430000D01*
G01*
X018980785Y-11234910D01*
G01*
X018923880Y-11047317D01*
G01*
X018831470Y-10874430D01*
G01*
X018707107Y-10722893D01*
G01*
X018555570Y-10598530D01*
G01*
X018382683Y-10506120D01*
G01*
X018195090Y-10449215D01*
G01*
X018000000Y-10430000D01*
G01*
X017804910Y-10449215D01*
G01*
X017617317Y-10506120D01*
G01*
X017444430Y-10598530D01*
G01*
X017292893Y-10722893D01*
G01*
X017168530Y-10874430D01*
G01*
X017076120Y-11047317D01*
G01*
X017019215Y-11234910D01*
G01*
X017000000Y-11430000D01*
G01*
X017019215Y-11625090D01*
G01*
X017076120Y-11812683D01*
G01*
X017168530Y-11985570D01*
G01*
X017292893Y-12137107D01*
G01*
X017444430Y-12261470D01*
G01*
X017617317Y-12353880D01*
G01*
X017804910Y-12410785D01*
G01*
X018000000Y-12430000D01*
G37*
D34*
G36*
X040860000Y-12430000D02*
G01*
X041055090Y-12410785D01*
G01*
X041242683Y-12353880D01*
G01*
X041415570Y-12261470D01*
G01*
X041567107Y-12137107D01*
G01*
X041691470Y-11985570D01*
G01*
X041783880Y-11812683D01*
G01*
X041840785Y-11625090D01*
G01*
X041860000Y-11430000D01*
G01*
X041840785Y-11234910D01*
G01*
X041783880Y-11047317D01*
G01*
X041691470Y-10874430D01*
G01*
X041567107Y-10722893D01*
G01*
X041415570Y-10598530D01*
G01*
X041242683Y-10506120D01*
G01*
X041055090Y-10449215D01*
G01*
X040860000Y-10430000D01*
G01*
X040664910Y-10449215D01*
G01*
X040477317Y-10506120D01*
G01*
X040304430Y-10598530D01*
G01*
X040152893Y-10722893D01*
G01*
X040028530Y-10874430D01*
G01*
X039936120Y-11047317D01*
G01*
X039879215Y-11234910D01*
G01*
X039860000Y-11430000D01*
G01*
X039879215Y-11625090D01*
G01*
X039936120Y-11812683D01*
G01*
X040028530Y-11985570D01*
G01*
X040152893Y-12137107D01*
G01*
X040304430Y-12261470D01*
G01*
X040477317Y-12353880D01*
G01*
X040664910Y-12410785D01*
G01*
X040860000Y-12430000D01*
G37*
D34*
G36*
X064730000Y-13000000D02*
G01*
X066730000Y-13000000D01*
G01*
X066730000Y-11000000D01*
G01*
X064730000Y-11000000D01*
G01*
X064730000Y-13000000D01*
G37*
D34*
G36*
X018000000Y-14970000D02*
G01*
X018195090Y-14950785D01*
G01*
X018382683Y-14893880D01*
G01*
X018555570Y-14801470D01*
G01*
X018707107Y-14677107D01*
G01*
X018831470Y-14525570D01*
G01*
X018923880Y-14352683D01*
G01*
X018980785Y-14165090D01*
G01*
X019000000Y-13970000D01*
G01*
X018980785Y-13774910D01*
G01*
X018923880Y-13587317D01*
G01*
X018831470Y-13414430D01*
G01*
X018707107Y-13262893D01*
G01*
X018555570Y-13138530D01*
G01*
X018382683Y-13046120D01*
G01*
X018195090Y-12989215D01*
G01*
X018000000Y-12970000D01*
G01*
X017804910Y-12989215D01*
G01*
X017617317Y-13046120D01*
G01*
X017444430Y-13138530D01*
G01*
X017292893Y-13262893D01*
G01*
X017168530Y-13414430D01*
G01*
X017076120Y-13587317D01*
G01*
X017019215Y-13774910D01*
G01*
X017000000Y-13970000D01*
G01*
X017019215Y-14165090D01*
G01*
X017076120Y-14352683D01*
G01*
X017168530Y-14525570D01*
G01*
X017292893Y-14677107D01*
G01*
X017444430Y-14801470D01*
G01*
X017617317Y-14893880D01*
G01*
X017804910Y-14950785D01*
G01*
X018000000Y-14970000D01*
G37*
D34*
G36*
X040860000Y-14970000D02*
G01*
X041055090Y-14950785D01*
G01*
X041242683Y-14893880D01*
G01*
X041415570Y-14801470D01*
G01*
X041567107Y-14677107D01*
G01*
X041691470Y-14525570D01*
G01*
X041783880Y-14352683D01*
G01*
X041840785Y-14165090D01*
G01*
X041860000Y-13970000D01*
G01*
X041840785Y-13774910D01*
G01*
X041783880Y-13587317D01*
G01*
X041691470Y-13414430D01*
G01*
X041567107Y-13262893D01*
G01*
X041415570Y-13138530D01*
G01*
X041242683Y-13046120D01*
G01*
X041055090Y-12989215D01*
G01*
X040860000Y-12970000D01*
G01*
X040664910Y-12989215D01*
G01*
X040477317Y-13046120D01*
G01*
X040304430Y-13138530D01*
G01*
X040152893Y-13262893D01*
G01*
X040028530Y-13414430D01*
G01*
X039936120Y-13587317D01*
G01*
X039879215Y-13774910D01*
G01*
X039860000Y-13970000D01*
G01*
X039879215Y-14165090D01*
G01*
X039936120Y-14352683D01*
G01*
X040028530Y-14525570D01*
G01*
X040152893Y-14677107D01*
G01*
X040304430Y-14801470D01*
G01*
X040477317Y-14893880D01*
G01*
X040664910Y-14950785D01*
G01*
X040860000Y-14970000D01*
G37*
D34*
G36*
X-71540000Y-16000000D02*
G01*
X-69540000Y-16000000D01*
G01*
X-69540000Y-14000000D01*
G01*
X-71540000Y-14000000D01*
G01*
X-71540000Y-16000000D01*
G37*
D34*
G36*
X-68000000Y-16000000D02*
G01*
X-67804910Y-15980785D01*
G01*
X-67617317Y-15923880D01*
G01*
X-67444430Y-15831470D01*
G01*
X-67292893Y-15707107D01*
G01*
X-67168530Y-15555570D01*
G01*
X-67076120Y-15382683D01*
G01*
X-67019215Y-15195090D01*
G01*
X-67000000Y-15000000D01*
G01*
X-67019215Y-14804910D01*
G01*
X-67076120Y-14617317D01*
G01*
X-67168530Y-14444430D01*
G01*
X-67292893Y-14292893D01*
G01*
X-67444430Y-14168530D01*
G01*
X-67617317Y-14076120D01*
G01*
X-67804910Y-14019215D01*
G01*
X-68000000Y-14000000D01*
G01*
X-68195090Y-14019215D01*
G01*
X-68382683Y-14076120D01*
G01*
X-68555570Y-14168530D01*
G01*
X-68707107Y-14292893D01*
G01*
X-68831470Y-14444430D01*
G01*
X-68923880Y-14617317D01*
G01*
X-68980785Y-14804910D01*
G01*
X-69000000Y-15000000D01*
G01*
X-68980785Y-15195090D01*
G01*
X-68923880Y-15382683D01*
G01*
X-68831470Y-15555570D01*
G01*
X-68707107Y-15707107D01*
G01*
X-68555570Y-15831470D01*
G01*
X-68382683Y-15923880D01*
G01*
X-68195090Y-15980785D01*
G01*
X-68000000Y-16000000D01*
G37*
D34*
G36*
X-31260000Y-26750000D02*
G01*
X-29060000Y-26750000D01*
G01*
X-29060000Y-25009620D01*
G01*
X-22810035Y-18759654D01*
G01*
X-10148946Y-18759654D01*
G01*
X-10112654Y-18759654D01*
G01*
X-10049250Y-18753410D01*
G01*
X-09988282Y-18734915D01*
G01*
X-09932094Y-18704882D01*
G01*
X-09882845Y-18664464D01*
G01*
X-06873866Y-15655486D01*
G01*
X-06861964Y-15654314D01*
G01*
X-06786927Y-15631552D01*
G01*
X-06717772Y-15594588D01*
G01*
X-06657157Y-15544843D01*
G01*
X-06607412Y-15484228D01*
G01*
X-06570448Y-15415073D01*
G01*
X-06547686Y-15340036D01*
G01*
X-06540000Y-15262000D01*
G01*
X-06547686Y-15183964D01*
G01*
X-06570448Y-15108927D01*
G01*
X-06607412Y-15039772D01*
G01*
X-06657157Y-14979157D01*
G01*
X-06717772Y-14929412D01*
G01*
X-06786927Y-14892448D01*
G01*
X-06861964Y-14869686D01*
G01*
X-06940000Y-14862000D01*
G01*
X-07018036Y-14869686D01*
G01*
X-07093073Y-14892448D01*
G01*
X-07162228Y-14929412D01*
G01*
X-07222843Y-14979157D01*
G01*
X-07272588Y-15039772D01*
G01*
X-07309552Y-15108927D01*
G01*
X-07332314Y-15183964D01*
G01*
X-07333486Y-15195866D01*
G01*
X-10247273Y-18109654D01*
G01*
X-15603434Y-18109654D01*
G01*
X-15588686Y-18061036D01*
G01*
X-15581000Y-17983000D01*
G01*
X-15588686Y-17904964D01*
G01*
X-15611448Y-17829927D01*
G01*
X-15648412Y-17760772D01*
G01*
X-15656000Y-17751526D01*
G01*
X-15656000Y-16509564D01*
G01*
X-15608819Y-16462383D01*
G01*
X-15597964Y-16461314D01*
G01*
X-15522927Y-16438552D01*
G01*
X-15453772Y-16401588D01*
G01*
X-15393157Y-16351843D01*
G01*
X-15343412Y-16291228D01*
G01*
X-15306448Y-16222073D01*
G01*
X-15283686Y-16147036D01*
G01*
X-15276000Y-16069000D01*
G01*
X-15283686Y-15990964D01*
G01*
X-15306448Y-15915927D01*
G01*
X-15343412Y-15846772D01*
G01*
X-15393157Y-15786157D01*
G01*
X-15453772Y-15736412D01*
G01*
X-15522927Y-15699448D01*
G01*
X-15597964Y-15676686D01*
G01*
X-15676000Y-15669000D01*
G01*
X-15754036Y-15676686D01*
G01*
X-15829073Y-15699448D01*
G01*
X-15898228Y-15736412D01*
G01*
X-15958843Y-15786157D01*
G01*
X-16008588Y-15846772D01*
G01*
X-16045552Y-15915927D01*
G01*
X-16068314Y-15990964D01*
G01*
X-16069589Y-16003913D01*
G01*
X-16210810Y-16145134D01*
G01*
X-16251228Y-16194384D01*
G01*
X-16281261Y-16250572D01*
G01*
X-16299755Y-16311540D01*
G01*
X-16306000Y-16374944D01*
G01*
X-16306000Y-17751526D01*
G01*
X-16313588Y-17760772D01*
G01*
X-16350552Y-17829927D01*
G01*
X-16373314Y-17904964D01*
G01*
X-16381000Y-17983000D01*
G01*
X-16373314Y-18061036D01*
G01*
X-16358566Y-18109654D01*
G01*
X-20502541Y-18109654D01*
G01*
X-20449157Y-18065843D01*
G01*
X-20399412Y-18005228D01*
G01*
X-20362448Y-17936073D01*
G01*
X-20339686Y-17861036D01*
G01*
X-20332000Y-17783000D01*
G01*
X-20339686Y-17704964D01*
G01*
X-20362448Y-17629927D01*
G01*
X-20399412Y-17560772D01*
G01*
X-20407000Y-17551526D01*
G01*
X-20407000Y-16780749D01*
G01*
X-19955723Y-16329472D01*
G01*
X-19943964Y-16328314D01*
G01*
X-19868927Y-16305552D01*
G01*
X-19799772Y-16268588D01*
G01*
X-19739157Y-16218843D01*
G01*
X-19689412Y-16158228D01*
G01*
X-19652448Y-16089073D01*
G01*
X-19629686Y-16014036D01*
G01*
X-19622000Y-15936000D01*
G01*
X-19629686Y-15857964D01*
G01*
X-19652448Y-15782927D01*
G01*
X-19689412Y-15713772D01*
G01*
X-19739157Y-15653157D01*
G01*
X-19799772Y-15603412D01*
G01*
X-19868927Y-15566448D01*
G01*
X-19943964Y-15543686D01*
G01*
X-20022000Y-15536000D01*
G01*
X-20100036Y-15543686D01*
G01*
X-20175073Y-15566448D01*
G01*
X-20244228Y-15603412D01*
G01*
X-20304843Y-15653157D01*
G01*
X-20354588Y-15713772D01*
G01*
X-20391552Y-15782927D01*
G01*
X-20414314Y-15857964D01*
G01*
X-20415501Y-15870011D01*
G01*
X-20961810Y-16416320D01*
G01*
X-21002228Y-16465569D01*
G01*
X-21032261Y-16521758D01*
G01*
X-21050755Y-16582725D01*
G01*
X-21057000Y-16646130D01*
G01*
X-21057000Y-17551526D01*
G01*
X-21064588Y-17560772D01*
G01*
X-21101552Y-17629927D01*
G01*
X-21124314Y-17704964D01*
G01*
X-21132000Y-17783000D01*
G01*
X-21124314Y-17861036D01*
G01*
X-21101552Y-17936073D01*
G01*
X-21064588Y-18005228D01*
G01*
X-21014843Y-18065843D01*
G01*
X-20961459Y-18109654D01*
G01*
X-22944654Y-18109654D01*
G01*
X-23008059Y-18115899D01*
G01*
X-23069026Y-18134394D01*
G01*
X-23125215Y-18164427D01*
G01*
X-23174464Y-18204845D01*
G01*
X-29519620Y-24550000D01*
G01*
X-31260000Y-24550000D01*
G01*
X-31260000Y-26750000D01*
G37*
D34*
G36*
X-12698000Y-17980000D02*
G01*
X-12619964Y-17972314D01*
G01*
X-12544927Y-17949552D01*
G01*
X-12475772Y-17912588D01*
G01*
X-12415157Y-17862843D01*
G01*
X-12365412Y-17802228D01*
G01*
X-12328448Y-17733073D01*
G01*
X-12305686Y-17658036D01*
G01*
X-12298000Y-17580000D01*
G01*
X-12305686Y-17501964D01*
G01*
X-12328448Y-17426927D01*
G01*
X-12365412Y-17357772D01*
G01*
X-12373000Y-17348526D01*
G01*
X-12373000Y-15771459D01*
G01*
X-12346067Y-15744525D01*
G01*
X-12276927Y-15723552D01*
G01*
X-12207772Y-15686588D01*
G01*
X-12147157Y-15636843D01*
G01*
X-12097412Y-15576228D01*
G01*
X-12060448Y-15507073D01*
G01*
X-12037686Y-15432036D01*
G01*
X-12030000Y-15354000D01*
G01*
X-12037686Y-15275964D01*
G01*
X-12060448Y-15200927D01*
G01*
X-12097412Y-15131772D01*
G01*
X-12147157Y-15071157D01*
G01*
X-12207772Y-15021412D01*
G01*
X-12276927Y-14984448D01*
G01*
X-12351964Y-14961686D01*
G01*
X-12430000Y-14954000D01*
G01*
X-12508036Y-14961686D01*
G01*
X-12583073Y-14984448D01*
G01*
X-12652228Y-15021412D01*
G01*
X-12712843Y-15071157D01*
G01*
X-12762588Y-15131772D01*
G01*
X-12799552Y-15200927D01*
G01*
X-12822314Y-15275964D01*
G01*
X-12825108Y-15304327D01*
G01*
X-12927810Y-15407029D01*
G01*
X-12968228Y-15456279D01*
G01*
X-12998261Y-15512467D01*
G01*
X-13016755Y-15573435D01*
G01*
X-13023000Y-15636839D01*
G01*
X-13023000Y-17348526D01*
G01*
X-13030588Y-17357772D01*
G01*
X-13067552Y-17426927D01*
G01*
X-13090314Y-17501964D01*
G01*
X-13098000Y-17580000D01*
G01*
X-13090314Y-17658036D01*
G01*
X-13067552Y-17733073D01*
G01*
X-13030588Y-17802228D01*
G01*
X-12980843Y-17862843D01*
G01*
X-12920228Y-17912588D01*
G01*
X-12851073Y-17949552D01*
G01*
X-12776036Y-17972314D01*
G01*
X-12698000Y-17980000D01*
G37*
D34*
G36*
X040860000Y-17510000D02*
G01*
X041055090Y-17490785D01*
G01*
X041242683Y-17433880D01*
G01*
X041415570Y-17341470D01*
G01*
X041567107Y-17217107D01*
G01*
X041691470Y-17065570D01*
G01*
X041783880Y-16892683D01*
G01*
X041840785Y-16705090D01*
G01*
X041860000Y-16510000D01*
G01*
X041840785Y-16314910D01*
G01*
X041783880Y-16127317D01*
G01*
X041691470Y-15954430D01*
G01*
X041567107Y-15802893D01*
G01*
X041415570Y-15678530D01*
G01*
X041242683Y-15586120D01*
G01*
X041055090Y-15529215D01*
G01*
X040860000Y-15510000D01*
G01*
X040664910Y-15529215D01*
G01*
X040477317Y-15586120D01*
G01*
X040304430Y-15678530D01*
G01*
X040152893Y-15802893D01*
G01*
X040028530Y-15954430D01*
G01*
X039936120Y-16127317D01*
G01*
X039879215Y-16314910D01*
G01*
X039860000Y-16510000D01*
G01*
X039879215Y-16705090D01*
G01*
X039936120Y-16892683D01*
G01*
X040028530Y-17065570D01*
G01*
X040152893Y-17217107D01*
G01*
X040304430Y-17341470D01*
G01*
X040477317Y-17433880D01*
G01*
X040664910Y-17490785D01*
G01*
X040860000Y-17510000D01*
G37*
D34*
G36*
X-04019000Y-18203000D02*
G01*
X-03940964Y-18195314D01*
G01*
X-03865927Y-18172552D01*
G01*
X-03796772Y-18135588D01*
G01*
X-03736157Y-18085843D01*
G01*
X-03686412Y-18025228D01*
G01*
X-03649448Y-17956073D01*
G01*
X-03626686Y-17881036D01*
G01*
X-03619000Y-17803000D01*
G01*
X-03626686Y-17724964D01*
G01*
X-03649448Y-17649927D01*
G01*
X-03686412Y-17580772D01*
G01*
X-03736157Y-17520157D01*
G01*
X-03762858Y-17498244D01*
G01*
X-03792230Y-17443295D01*
G01*
X-03832648Y-17394046D01*
G01*
X-03877000Y-17349694D01*
G01*
X-03877000Y-16914474D01*
G01*
X-03869412Y-16905228D01*
G01*
X-03832448Y-16836073D01*
G01*
X-03809686Y-16761036D01*
G01*
X-03802000Y-16683000D01*
G01*
X-03809686Y-16604964D01*
G01*
X-03832448Y-16529927D01*
G01*
X-03869412Y-16460772D01*
G01*
X-03919157Y-16400157D01*
G01*
X-03979772Y-16350412D01*
G01*
X-04048927Y-16313448D01*
G01*
X-04123964Y-16290686D01*
G01*
X-04202000Y-16283000D01*
G01*
X-04280036Y-16290686D01*
G01*
X-04355073Y-16313448D01*
G01*
X-04424228Y-16350412D01*
G01*
X-04484843Y-16400157D01*
G01*
X-04534588Y-16460772D01*
G01*
X-04571552Y-16529927D01*
G01*
X-04594314Y-16604964D01*
G01*
X-04602000Y-16683000D01*
G01*
X-04594314Y-16761036D01*
G01*
X-04571552Y-16836073D01*
G01*
X-04534588Y-16905228D01*
G01*
X-04527000Y-16914474D01*
G01*
X-04527000Y-17484313D01*
G01*
X-04520755Y-17547717D01*
G01*
X-04502261Y-17608685D01*
G01*
X-04472228Y-17664873D01*
G01*
X-04431810Y-17714122D01*
G01*
X-04412180Y-17733752D01*
G01*
X-04419000Y-17803000D01*
G01*
X-04411314Y-17881036D01*
G01*
X-04388552Y-17956073D01*
G01*
X-04351588Y-18025228D01*
G01*
X-04301843Y-18085843D01*
G01*
X-04241228Y-18135588D01*
G01*
X-04172073Y-18172552D01*
G01*
X-04097036Y-18195314D01*
G01*
X-04019000Y-18203000D01*
G37*
D34*
G36*
X018000000Y-20050000D02*
G01*
X018195090Y-20030785D01*
G01*
X018382683Y-19973880D01*
G01*
X018555570Y-19881470D01*
G01*
X018707107Y-19757107D01*
G01*
X018831470Y-19605570D01*
G01*
X018923880Y-19432683D01*
G01*
X018980785Y-19245090D01*
G01*
X019000000Y-19050000D01*
G01*
X018980785Y-18854910D01*
G01*
X018923880Y-18667317D01*
G01*
X018831470Y-18494430D01*
G01*
X018707107Y-18342893D01*
G01*
X018555570Y-18218530D01*
G01*
X018382683Y-18126120D01*
G01*
X018195090Y-18069215D01*
G01*
X018000000Y-18050000D01*
G01*
X017804910Y-18069215D01*
G01*
X017617317Y-18126120D01*
G01*
X017444430Y-18218530D01*
G01*
X017292893Y-18342893D01*
G01*
X017168530Y-18494430D01*
G01*
X017076120Y-18667317D01*
G01*
X017019215Y-18854910D01*
G01*
X017000000Y-19050000D01*
G01*
X017019215Y-19245090D01*
G01*
X017076120Y-19432683D01*
G01*
X017168530Y-19605570D01*
G01*
X017292893Y-19757107D01*
G01*
X017444430Y-19881470D01*
G01*
X017617317Y-19973880D01*
G01*
X017804910Y-20030785D01*
G01*
X018000000Y-20050000D01*
G37*
D34*
G36*
X-10940000Y-29290000D02*
G01*
X-08740000Y-29290000D01*
G01*
X-08740000Y-28515000D01*
G01*
X011400000Y-28515000D01*
G01*
X011463404Y-28508755D01*
G01*
X011524372Y-28490261D01*
G01*
X011580560Y-28460228D01*
G01*
X011629810Y-28419810D01*
G01*
X017564155Y-22485465D01*
G01*
X017617317Y-22513880D01*
G01*
X017804910Y-22570785D01*
G01*
X018000000Y-22590000D01*
G01*
X018195090Y-22570785D01*
G01*
X018382683Y-22513880D01*
G01*
X018555570Y-22421470D01*
G01*
X018707107Y-22297107D01*
G01*
X018831470Y-22145570D01*
G01*
X018923880Y-21972683D01*
G01*
X018980785Y-21785090D01*
G01*
X019000000Y-21590000D01*
G01*
X018980785Y-21394910D01*
G01*
X018923880Y-21207317D01*
G01*
X018831470Y-21034430D01*
G01*
X018707107Y-20882893D01*
G01*
X018555570Y-20758530D01*
G01*
X018382683Y-20666120D01*
G01*
X018195090Y-20609215D01*
G01*
X018000000Y-20590000D01*
G01*
X017804910Y-20609215D01*
G01*
X017617317Y-20666120D01*
G01*
X017444430Y-20758530D01*
G01*
X017292893Y-20882893D01*
G01*
X017168530Y-21034430D01*
G01*
X017076120Y-21207317D01*
G01*
X017019215Y-21394910D01*
G01*
X017000000Y-21590000D01*
G01*
X017019215Y-21785090D01*
G01*
X017076120Y-21972683D01*
G01*
X017104535Y-22025845D01*
G01*
X011265380Y-27865000D01*
G01*
X-08740000Y-27865000D01*
G01*
X-08740000Y-27090000D01*
G01*
X-10940000Y-27090000D01*
G01*
X-10940000Y-29290000D01*
G37*
D34*
G36*
X040860000Y-22590000D02*
G01*
X041055090Y-22570785D01*
G01*
X041242683Y-22513880D01*
G01*
X041415570Y-22421470D01*
G01*
X041567107Y-22297107D01*
G01*
X041691470Y-22145570D01*
G01*
X041783880Y-21972683D01*
G01*
X041840785Y-21785090D01*
G01*
X041860000Y-21590000D01*
G01*
X041840785Y-21394910D01*
G01*
X041783880Y-21207317D01*
G01*
X041691470Y-21034430D01*
G01*
X041567107Y-20882893D01*
G01*
X041415570Y-20758530D01*
G01*
X041242683Y-20666120D01*
G01*
X041055090Y-20609215D01*
G01*
X040860000Y-20590000D01*
G01*
X040664910Y-20609215D01*
G01*
X040477317Y-20666120D01*
G01*
X040304430Y-20758530D01*
G01*
X040152893Y-20882893D01*
G01*
X040028530Y-21034430D01*
G01*
X039936120Y-21207317D01*
G01*
X039879215Y-21394910D01*
G01*
X039860000Y-21590000D01*
G01*
X039879215Y-21785090D01*
G01*
X039936120Y-21972683D01*
G01*
X040028530Y-22145570D01*
G01*
X040152893Y-22297107D01*
G01*
X040304430Y-22421470D01*
G01*
X040477317Y-22513880D01*
G01*
X040664910Y-22570785D01*
G01*
X040860000Y-22590000D01*
G37*
D34*
G36*
X-31260000Y-34370000D02*
G01*
X-29060000Y-34370000D01*
G01*
X-29060000Y-33595000D01*
G01*
X-28807319Y-33595000D01*
G01*
X-28743914Y-33588755D01*
G01*
X-28682947Y-33570261D01*
G01*
X-28626759Y-33540228D01*
G01*
X-28577509Y-33499810D01*
G01*
X-18964306Y-23886607D01*
G01*
X-18963060Y-23885088D01*
G01*
X-18894772Y-23848588D01*
G01*
X-18834157Y-23798843D01*
G01*
X-18784412Y-23738228D01*
G01*
X-18747448Y-23669073D01*
G01*
X-18724686Y-23594036D01*
G01*
X-18717000Y-23516000D01*
G01*
X-18724686Y-23437964D01*
G01*
X-18747448Y-23362927D01*
G01*
X-18784412Y-23293772D01*
G01*
X-18834157Y-23233157D01*
G01*
X-18894772Y-23183412D01*
G01*
X-18963927Y-23146448D01*
G01*
X-19038964Y-23123686D01*
G01*
X-19117000Y-23116000D01*
G01*
X-19195036Y-23123686D01*
G01*
X-19270073Y-23146448D01*
G01*
X-19339228Y-23183412D01*
G01*
X-19399843Y-23233157D01*
G01*
X-19449588Y-23293772D01*
G01*
X-19486552Y-23362927D01*
G01*
X-19509314Y-23437964D01*
G01*
X-19517000Y-23516000D01*
G01*
X-19516636Y-23519697D01*
G01*
X-28941939Y-32945000D01*
G01*
X-29060000Y-32945000D01*
G01*
X-29060000Y-32170000D01*
G01*
X-31260000Y-32170000D01*
G01*
X-31260000Y-34370000D01*
G37*
D34*
G36*
X018000000Y-25130000D02*
G01*
X018195090Y-25110785D01*
G01*
X018382683Y-25053880D01*
G01*
X018555570Y-24961470D01*
G01*
X018707107Y-24837107D01*
G01*
X018831470Y-24685570D01*
G01*
X018923880Y-24512683D01*
G01*
X018980785Y-24325090D01*
G01*
X019000000Y-24130000D01*
G01*
X018980785Y-23934910D01*
G01*
X018923880Y-23747317D01*
G01*
X018831470Y-23574430D01*
G01*
X018707107Y-23422893D01*
G01*
X018555570Y-23298530D01*
G01*
X018382683Y-23206120D01*
G01*
X018195090Y-23149215D01*
G01*
X018000000Y-23130000D01*
G01*
X017804910Y-23149215D01*
G01*
X017617317Y-23206120D01*
G01*
X017444430Y-23298530D01*
G01*
X017292893Y-23422893D01*
G01*
X017168530Y-23574430D01*
G01*
X017076120Y-23747317D01*
G01*
X017019215Y-23934910D01*
G01*
X017000000Y-24130000D01*
G01*
X017019215Y-24325090D01*
G01*
X017076120Y-24512683D01*
G01*
X017168530Y-24685570D01*
G01*
X017292893Y-24837107D01*
G01*
X017444430Y-24961470D01*
G01*
X017617317Y-25053880D01*
G01*
X017804910Y-25110785D01*
G01*
X018000000Y-25130000D01*
G37*
D34*
G36*
X040860000Y-25130000D02*
G01*
X041055090Y-25110785D01*
G01*
X041242683Y-25053880D01*
G01*
X041415570Y-24961470D01*
G01*
X041567107Y-24837107D01*
G01*
X041691470Y-24685570D01*
G01*
X041783880Y-24512683D01*
G01*
X041840785Y-24325090D01*
G01*
X041860000Y-24130000D01*
G01*
X041840785Y-23934910D01*
G01*
X041783880Y-23747317D01*
G01*
X041691470Y-23574430D01*
G01*
X041567107Y-23422893D01*
G01*
X041415570Y-23298530D01*
G01*
X041242683Y-23206120D01*
G01*
X041055090Y-23149215D01*
G01*
X040860000Y-23130000D01*
G01*
X040664910Y-23149215D01*
G01*
X040477317Y-23206120D01*
G01*
X040304430Y-23298530D01*
G01*
X040152893Y-23422893D01*
G01*
X040028530Y-23574430D01*
G01*
X039936120Y-23747317D01*
G01*
X039879215Y-23934910D01*
G01*
X039860000Y-24130000D01*
G01*
X039879215Y-24325090D01*
G01*
X039936120Y-24512683D01*
G01*
X040028530Y-24685570D01*
G01*
X040152893Y-24837107D01*
G01*
X040304430Y-24961470D01*
G01*
X040477317Y-25053880D01*
G01*
X040664910Y-25110785D01*
G01*
X040860000Y-25130000D01*
G37*
D34*
G36*
X-31260000Y-29290000D02*
G01*
X-29060000Y-29290000D01*
G01*
X-29060000Y-28515000D01*
G01*
X-28324789Y-28515000D01*
G01*
X-28261385Y-28508755D01*
G01*
X-28200417Y-28490261D01*
G01*
X-28144229Y-28460228D01*
G01*
X-28094980Y-28419810D01*
G01*
X-26004642Y-26329472D01*
G01*
X-25931964Y-26322314D01*
G01*
X-25856927Y-26299552D01*
G01*
X-25787772Y-26262588D01*
G01*
X-25727157Y-26212843D01*
G01*
X-25677412Y-26152228D01*
G01*
X-25640448Y-26083073D01*
G01*
X-25617686Y-26008036D01*
G01*
X-25610000Y-25930000D01*
G01*
X-25617686Y-25851964D01*
G01*
X-25640448Y-25776927D01*
G01*
X-25677412Y-25707772D01*
G01*
X-25727157Y-25647157D01*
G01*
X-25787772Y-25597412D01*
G01*
X-25856927Y-25560448D01*
G01*
X-25931964Y-25537686D01*
G01*
X-26010000Y-25530000D01*
G01*
X-26088036Y-25537686D01*
G01*
X-26163073Y-25560448D01*
G01*
X-26232228Y-25597412D01*
G01*
X-26292843Y-25647157D01*
G01*
X-26342588Y-25707772D01*
G01*
X-26379552Y-25776927D01*
G01*
X-26383129Y-25788720D01*
G01*
X-28459409Y-27865000D01*
G01*
X-29060000Y-27865000D01*
G01*
X-29060000Y-27090000D01*
G01*
X-31260000Y-27090000D01*
G01*
X-31260000Y-29290000D01*
G37*
D34*
G36*
X017000000Y-27670000D02*
G01*
X019000000Y-27670000D01*
G01*
X019000000Y-25670000D01*
G01*
X017000000Y-25670000D01*
G01*
X017000000Y-27670000D01*
G37*
D34*
G36*
X-31260000Y-31830000D02*
G01*
X-29060000Y-31830000D01*
G01*
X-29060000Y-29630000D01*
G01*
X-31260000Y-29630000D01*
G01*
X-31260000Y-31830000D01*
G37*
D34*
G36*
X-10940000Y-31830000D02*
G01*
X-08740000Y-31830000D01*
G01*
X-08740000Y-29630000D01*
G01*
X-10940000Y-29630000D01*
G01*
X-10940000Y-31830000D01*
G37*
D34*
G36*
X-10940000Y-34370000D02*
G01*
X-08740000Y-34370000D01*
G01*
X-08740000Y-32170000D01*
G01*
X-10940000Y-32170000D01*
G01*
X-10940000Y-34370000D01*
G37*
D34*
G36*
X-10940000Y-36910000D02*
G01*
X-08740000Y-36910000D01*
G01*
X-08740000Y-34710000D01*
G01*
X-10940000Y-34710000D01*
G01*
X-10940000Y-36910000D01*
G37*
D34*
G36*
X-75000000Y-46850000D02*
G01*
X-74639083Y-46814453D01*
G01*
X-74292036Y-46709177D01*
G01*
X-73972195Y-46538219D01*
G01*
X-73691852Y-46308148D01*
G01*
X-73461781Y-46027805D01*
G01*
X-73290823Y-45707964D01*
G01*
X-73185547Y-45360917D01*
G01*
X-73150000Y-45000000D01*
G01*
X-73185547Y-44639083D01*
G01*
X-73290823Y-44292036D01*
G01*
X-73461781Y-43972195D01*
G01*
X-73691852Y-43691852D01*
G01*
X-73972195Y-43461781D01*
G01*
X-74292036Y-43290823D01*
G01*
X-74639083Y-43185547D01*
G01*
X-75000000Y-43150000D01*
G01*
X-75360917Y-43185547D01*
G01*
X-75707964Y-43290823D01*
G01*
X-76027805Y-43461781D01*
G01*
X-76308148Y-43691852D01*
G01*
X-76538219Y-43972195D01*
G01*
X-76709177Y-44292036D01*
G01*
X-76814453Y-44639083D01*
G01*
X-76850000Y-45000000D01*
G01*
X-76814453Y-45360917D01*
G01*
X-76709177Y-45707964D01*
G01*
X-76538219Y-46027805D01*
G01*
X-76308148Y-46308148D01*
G01*
X-76027805Y-46538219D01*
G01*
X-75707964Y-46709177D01*
G01*
X-75360917Y-46814453D01*
G01*
X-75000000Y-46850000D01*
G37*
D34*
G36*
X075000000Y-46850000D02*
G01*
X075360917Y-46814453D01*
G01*
X075707964Y-46709177D01*
G01*
X076027805Y-46538219D01*
G01*
X076308148Y-46308148D01*
G01*
X076538219Y-46027805D01*
G01*
X076709177Y-45707964D01*
G01*
X076814453Y-45360917D01*
G01*
X076850000Y-45000000D01*
G01*
X076814453Y-44639083D01*
G01*
X076709177Y-44292036D01*
G01*
X076538219Y-43972195D01*
G01*
X076308148Y-43691852D01*
G01*
X076027805Y-43461781D01*
G01*
X075707964Y-43290823D01*
G01*
X075360917Y-43185547D01*
G01*
X075000000Y-43150000D01*
G01*
X074639083Y-43185547D01*
G01*
X074292036Y-43290823D01*
G01*
X073972195Y-43461781D01*
G01*
X073691852Y-43691852D01*
G01*
X073461781Y-43972195D01*
G01*
X073290823Y-44292036D01*
G01*
X073185547Y-44639083D01*
G01*
X073150000Y-45000000D01*
G01*
X073185547Y-45360917D01*
G01*
X073290823Y-45707964D01*
G01*
X073461781Y-46027805D01*
G01*
X073691852Y-46308148D01*
G01*
X073972195Y-46538219D01*
G01*
X074292036Y-46709177D01*
G01*
X074639083Y-46814453D01*
G01*
X075000000Y-46850000D01*
G37*
%LPD*%
D34*
G36*
X017168530Y-17065570D02*
G01*
X017076120Y-16892683D01*
G01*
X017058622Y-16835000D01*
G01*
X013419000Y-16835000D01*
G01*
X013355596Y-16828755D01*
G01*
X013294628Y-16810261D01*
G01*
X013238440Y-16780228D01*
G01*
X013189190Y-16739810D01*
G01*
X010565867Y-14116486D01*
G01*
X010553964Y-14115314D01*
G01*
X010533825Y-14109205D01*
G01*
X010613810Y-14189190D01*
G01*
X010654228Y-14238440D01*
G01*
X010684261Y-14294628D01*
G01*
X010702755Y-14355596D01*
G01*
X010709000Y-14419000D01*
G01*
X010709000Y-14517526D01*
G01*
X010716588Y-14526772D01*
G01*
X010753552Y-14595927D01*
G01*
X010776314Y-14670964D01*
G01*
X010784000Y-14749000D01*
G01*
X010776314Y-14827036D01*
G01*
X010753552Y-14902073D01*
G01*
X010716588Y-14971228D01*
G01*
X010666843Y-15031843D01*
G01*
X010606228Y-15081588D01*
G01*
X010537073Y-15118552D01*
G01*
X010462036Y-15141314D01*
G01*
X010384000Y-15149000D01*
G01*
X010305964Y-15141314D01*
G01*
X010230927Y-15118552D01*
G01*
X010161772Y-15081588D01*
G01*
X010101157Y-15031843D01*
G01*
X010051412Y-14971228D01*
G01*
X010014448Y-14902073D01*
G01*
X009991686Y-14827036D01*
G01*
X009984000Y-14749000D01*
G01*
X009991686Y-14670964D01*
G01*
X010014448Y-14595927D01*
G01*
X010044703Y-14539323D01*
G01*
X009676866Y-14171486D01*
G01*
X009664964Y-14170314D01*
G01*
X009589927Y-14147552D01*
G01*
X009520772Y-14110588D01*
G01*
X009460157Y-14060843D01*
G01*
X009437762Y-14033555D01*
G01*
X007273036Y-16198281D01*
G01*
X007273036Y-16495675D01*
G01*
X007305964Y-16485686D01*
G01*
X007384000Y-16478000D01*
G01*
X007462036Y-16485686D01*
G01*
X007537073Y-16508448D01*
G01*
X007606228Y-16545412D01*
G01*
X007666843Y-16595157D01*
G01*
X007716588Y-16655772D01*
G01*
X007753552Y-16724927D01*
G01*
X007776314Y-16799964D01*
G01*
X007777486Y-16811867D01*
G01*
X008088427Y-17122807D01*
G01*
X017215503Y-17122807D01*
G01*
X017168530Y-17065570D01*
G37*
D34*
G36*
X006623036Y-16063661D02*
G01*
X006629281Y-16000257D01*
G01*
X006647775Y-15939289D01*
G01*
X006677809Y-15883101D01*
G01*
X006718226Y-15833851D01*
G01*
X008695182Y-13856895D01*
G01*
X004031514Y-13856895D01*
G01*
X006623036Y-16448416D01*
G01*
X006623036Y-16063661D01*
G37*
D34*
G36*
X042626701Y016947705D02*
G01*
X041876701Y017072705D01*
G01*
X041877019Y017074613D01*
G01*
X041853682Y017076911D01*
G01*
X041712987Y017119590D01*
G01*
X041595677Y017182294D01*
G01*
X041691470Y017065570D01*
G01*
X041783880Y016892683D01*
G01*
X041801378Y016835000D01*
G01*
X043302931Y016835000D01*
G01*
X042626701Y016947705D01*
G37*
D14*
X018000000Y-26670000D03*
D15*
X018000000Y-24130000D03*
D15*
X018000000Y-21590000D03*
D15*
X018000000Y-19050000D03*
D15*
X018000000Y-16510000D03*
D15*
X018000000Y-13970000D03*
D15*
X018000000Y-11430000D03*
D15*
X018000000Y-08890000D03*
D15*
X018000000Y-06350000D03*
D15*
X018000000Y-03810000D03*
D15*
X018000000Y-01270000D03*
D15*
X018000000Y001270000D03*
D15*
X018000000Y003810000D03*
D15*
X018000000Y006350000D03*
D15*
X018000000Y008890000D03*
D15*
X018000000Y011430000D03*
D15*
X018000000Y013970000D03*
D15*
X018000000Y016510000D03*
D15*
X018000000Y019050000D03*
D15*
X018000000Y021590000D03*
D15*
X018000000Y024130000D03*
D15*
X018000000Y026670000D03*
D14*
X040860000Y-26670000D03*
D15*
X040860000Y-24130000D03*
D15*
X040860000Y-21590000D03*
D15*
X040860000Y-19050000D03*
D15*
X040860000Y-16510000D03*
D15*
X040860000Y-13970000D03*
D15*
X040860000Y-11430000D03*
D15*
X040860000Y-08890000D03*
D15*
X040860000Y-06350000D03*
D15*
X040860000Y-03810000D03*
D15*
X040860000Y-01270000D03*
D15*
X040860000Y001270000D03*
D15*
X040860000Y003810000D03*
D15*
X040860000Y006350000D03*
D15*
X040860000Y008890000D03*
D15*
X040860000Y011430000D03*
D15*
X040860000Y013970000D03*
D15*
X040860000Y016510000D03*
D15*
X040860000Y019050000D03*
D15*
X040860000Y021590000D03*
D15*
X040860000Y024130000D03*
D15*
X040860000Y026670000D03*
D14*
X-70540000Y-15000000D03*
D15*
X-68000000Y-15000000D03*
D15*
X-65460000Y-15000000D03*
D14*
X-70540000Y000000000D03*
D15*
X-68000000Y000000000D03*
D15*
X-65460000Y000000000D03*
D14*
X-76500000Y015000000D03*
D20*
X-64540000Y017500000D03*
D20*
X-59460000Y017500000D03*
D22*
X-44160000Y040350000D03*
D22*
X-41620000Y040350000D03*
D22*
X-44160000Y037810000D03*
D22*
X-41620000Y037810000D03*
D22*
X-44160000Y035270000D03*
D22*
X-41620000Y035270000D03*
D22*
X-44160000Y032730000D03*
D22*
X-41620000Y032730000D03*
D22*
X-44160000Y030190000D03*
D22*
X-41620000Y030190000D03*
D22*
X-44160000Y027650000D03*
D22*
X-41620000Y027650000D03*
D26*
X-30160000Y-38350000D03*
D26*
X-30160000Y-35810000D03*
D26*
X-30160000Y-33270000D03*
D26*
X-30160000Y-30730000D03*
D26*
X-30160000Y-28190000D03*
D26*
X-30160000Y-25650000D03*
D26*
X-09840000Y-38350000D03*
D26*
X-09840000Y-35810000D03*
D26*
X-09840000Y-33270000D03*
D26*
X-09840000Y-30730000D03*
D26*
X-09840000Y-28190000D03*
D26*
X-09840000Y-25650000D03*
D29*
X065730000Y027000000D03*
D29*
X068270000Y027000000D03*
D29*
X065730000Y020000000D03*
D29*
X068270000Y020000000D03*
D30*
X069540000Y036000000D03*
D30*
X067000000Y036000000D03*
D30*
X064460000Y036000000D03*
D14*
X064460000Y008000000D03*
D15*
X067000000Y008000000D03*
D15*
X069540000Y008000000D03*
D14*
X065730000Y-12000000D03*
D15*
X068270000Y-12000000D03*
D10*
X018000000Y-03810000D02*
X008630000Y-13180000D01*
D10*
X008630000Y-13180000D02*
X-00312000Y-13180000D01*
D10*
X-00312000Y-13180000D02*
X-00312000Y-13180000D01*
D10*
X-06940000Y-15262000D02*
X-06940000Y-15262000D01*
D10*
X-06940000Y-15262000D02*
X-06957140Y-15279140D01*
D10*
X-06957140Y-15279140D02*
X-10112654Y-18434654D01*
D10*
X-10112654Y-18434654D02*
X-10148946Y-18434654D01*
D10*
X-10148946Y-18434654D02*
X-22944654Y-18434654D01*
D10*
X-22944654Y-18434654D02*
X-30160000Y-25650000D01*
D10*
X-30160000Y-28190000D02*
X-28324789Y-28190000D01*
D10*
X-28324789Y-28190000D02*
X-26087073Y-25952284D01*
D10*
X-26087073Y-25952284D02*
X-26032284Y-25952284D01*
D10*
X-26032284Y-25952284D02*
X-26010000Y-25930000D01*
D10*
X-26010000Y-25930000D02*
X-26010000Y-25930000D01*
D10*
X-12698000Y-17580000D02*
X-12698000Y-17580000D01*
D10*
X-12698000Y-17580000D02*
X-12698000Y-15636839D01*
D10*
X-12698000Y-15636839D02*
X-12482379Y-15421219D01*
D10*
X-12482379Y-15421219D02*
X-12482379Y-15406379D01*
D10*
X-12482379Y-15406379D02*
X-12430000Y-15354000D01*
D10*
X-12430000Y-15354000D02*
X-12430000Y-15354000D01*
D10*
X018000000Y-08890000D02*
X017911746Y-08978254D01*
D10*
X017911746Y-08978254D02*
X014033443Y-08978254D01*
D10*
X014033443Y-08978254D02*
X006948036Y-16063661D01*
D10*
X006948036Y-16063661D02*
X006948036Y-17292605D01*
D10*
X006948036Y-17292605D02*
X-01409359Y-25650000D01*
D10*
X-01409359Y-25650000D02*
X-09840000Y-25650000D01*
D10*
X018000000Y021590000D02*
X016915245Y020505245D01*
D10*
X016915245Y020505245D02*
X016915245Y018374245D01*
D10*
X016915245Y018374245D02*
X005171000Y006630000D01*
D10*
X005171000Y006630000D02*
X005171000Y006630000D01*
D10*
X-15676000Y-16069000D02*
X-15676000Y-16069000D01*
D10*
X-15676000Y-16069000D02*
X-15705269Y-16098269D01*
D10*
X-15705269Y-16098269D02*
X-15705269Y-16099213D01*
D10*
X-15705269Y-16099213D02*
X-15981000Y-16374944D01*
D10*
X-15981000Y-16374944D02*
X-15981000Y-17983000D01*
D10*
X-15981000Y-17983000D02*
X-15981000Y-17983000D01*
D10*
X-19117000Y-23516000D02*
X-19117000Y-23516000D01*
D10*
X-19117000Y-23516000D02*
X-19194116Y-23593116D01*
D10*
X-19194116Y-23593116D02*
X-19194116Y-23656797D01*
D10*
X-19194116Y-23656797D02*
X-28807319Y-33270000D01*
D10*
X-28807319Y-33270000D02*
X-30160000Y-33270000D01*
D10*
X014002000Y017349000D02*
X014002000Y017349000D01*
D10*
X014002000Y017349000D02*
X013881030Y017228030D01*
D10*
X013881030Y017228030D02*
X013864222Y017228030D01*
D10*
X013864222Y017228030D02*
X008004369Y011368177D01*
D10*
X008004369Y011368177D02*
X008004369Y010485608D01*
D10*
X008004369Y010485608D02*
X006291608Y010485608D01*
D10*
X006291608Y010485608D02*
X-07166000Y-02972000D01*
D10*
X-07166000Y-02972000D02*
X-07166000Y-02972000D01*
D10*
X-07674000Y-03840000D02*
X-07674000Y-03840000D01*
D10*
X-07674000Y-03840000D02*
X-07763469Y-03929469D01*
D10*
X-07763469Y-03929469D02*
X-07763469Y-04037195D01*
D10*
X-07763469Y-04037195D02*
X-07763469Y-04167469D01*
D10*
X-07763469Y-04167469D02*
X-15801000Y-12205000D01*
D10*
X-15801000Y-12205000D02*
X-15801000Y-12205000D01*
D10*
X-20022000Y-15936000D02*
X-20022000Y-15936000D01*
D10*
X-20022000Y-15936000D02*
X-20122656Y-16036656D01*
D10*
X-20122656Y-16036656D02*
X-20122656Y-16036785D01*
D10*
X-20122656Y-16036785D02*
X-20732000Y-16646130D01*
D10*
X-20732000Y-16646130D02*
X-20732000Y-17783000D01*
D10*
X-20732000Y-17783000D02*
X-20732000Y-17783000D01*
D10*
X018000000Y-21590000D02*
X011400000Y-28190000D01*
D10*
X011400000Y-28190000D02*
X-09840000Y-28190000D01*
D10*
X044389000Y-08806000D02*
X044389000Y-08806000D01*
D10*
X044389000Y-08806000D02*
X044248849Y-08665849D01*
D10*
X044248849Y-08665849D02*
X044229624Y-08665849D01*
D10*
X044229624Y-08665849D02*
X041913774Y-06350000D01*
D10*
X041913774Y-06350000D02*
X040860000Y-06350000D01*
D10*
X053423000Y010008000D02*
X053423000Y010008000D01*
D10*
X053423000Y010008000D02*
X053402462Y010028538D01*
D10*
X053402462Y010028538D02*
X049562000Y013869000D01*
D10*
X049562000Y013869000D02*
X048780000Y013869000D01*
D10*
X048780000Y013869000D02*
X048780000Y013869000D01*
D10*
X043928000Y016644000D02*
X043928000Y016644000D01*
D10*
X043928000Y016644000D02*
X043918716Y016653284D01*
D10*
X043918716Y016653284D02*
X043800542Y016653284D01*
D10*
X043800542Y016653284D02*
X043657258Y016510000D01*
D10*
X043657258Y016510000D02*
X040860000Y016510000D01*
D10*
X-04202000Y-16683000D02*
X-04202000Y-16683000D01*
D10*
X-04202000Y-16683000D02*
X-04202000Y-17484313D01*
D10*
X-04202000Y-17484313D02*
X-04062457Y-17623856D01*
D10*
X-04062457Y-17623856D02*
X-04062457Y-17759543D01*
D10*
X-04062457Y-17759543D02*
X-04019000Y-17803000D01*
D10*
X-04019000Y-17803000D02*
X-04019000Y-17803000D01*
D10*
X002608000Y-21150000D02*
X002608000Y-21150000D01*
D10*
X002608000Y-21150000D02*
X002584306Y-21126306D01*
D10*
X002584306Y-21126306D02*
X002584306Y-21070583D01*
D10*
X002584306Y-21070583D02*
X002460000Y-20946277D01*
D10*
X002460000Y-20946277D02*
X002460000Y-16374000D01*
D10*
X002460000Y-16374000D02*
X002460000Y-16374000D01*
D10*
X024000000Y-07200000D02*
X024000000Y-07200000D01*
D10*
X024000000Y-07200000D02*
X024000000Y-07351143D01*
D10*
X024000000Y-07351143D02*
X024000000Y-13600000D01*
D10*
X024000000Y-13600000D02*
X024000000Y-13600000D01*
D10*
X-25788000Y017264000D02*
X-25788000Y017264000D01*
D10*
X-25788000Y017264000D02*
X-25764408Y017240408D01*
D10*
X-25764408Y017240408D02*
X-25764408Y017164996D01*
D10*
X-25764408Y017164996D02*
X-17799412Y009200000D01*
D10*
X-17799412Y009200000D02*
X-17600000Y009200000D01*
D10*
X-17600000Y009200000D02*
X-17600000Y009200000D01*
D10*
X-13425000Y005570000D02*
X-13425000Y005570000D01*
D10*
X-13425000Y005570000D02*
X-13393593Y005538593D01*
D10*
X-13393593Y005538593D02*
X-13393593Y005455828D01*
D10*
X-13393593Y005455828D02*
X-08208765Y000271000D01*
D10*
X-08208765Y000271000D02*
X-07586000Y000271000D01*
D10*
X-07586000Y000271000D02*
X-07586000Y000271000D01*
D10*
X008450000Y-02807000D02*
X008450000Y-02807000D01*
D10*
X008450000Y-02807000D02*
X008321903Y-02935097D01*
D10*
X008321903Y-02935097D02*
X008321903Y-02948228D01*
D10*
X008321903Y-02948228D02*
X004256000Y-07014131D01*
D10*
X004256000Y-07014131D02*
X004256000Y-09762000D01*
D10*
X004256000Y-09762000D02*
X004256000Y-09762000D01*
D10*
X010632000Y-13723000D02*
X010632000Y-13723000D01*
D10*
X010632000Y-13723000D02*
X010678756Y-13769756D01*
D10*
X010678756Y-13769756D02*
X013419000Y-16510000D01*
D10*
X013419000Y-16510000D02*
X018000000Y-16510000D01*
D10*
X-31327000Y007664000D02*
X-31327000Y007664000D01*
D10*
X-31327000Y007664000D02*
X-31318165Y007655165D01*
D10*
X-31318165Y007655165D02*
X-31604000Y007369330D01*
D10*
X-31604000Y007369330D02*
X-31604000Y004064000D01*
D10*
X-31604000Y004064000D02*
X-31604000Y004064000D01*
D10*
X-10194000Y-05709000D02*
X-10194000Y-05709000D01*
D10*
X-10194000Y-05709000D02*
X-10115112Y-05630112D01*
D10*
X-10115112Y-05630112D02*
X-10047275Y-05630112D01*
D10*
X-10047275Y-05630112D02*
X-09748163Y-05331000D01*
D10*
X-09748163Y-05331000D02*
X-09426000Y-05331000D01*
D10*
X-09426000Y-05331000D02*
X-09426000Y-05331000D01*
D10*
X-02198000Y-08188000D02*
X-02198000Y-08188000D01*
D10*
X-02198000Y-08188000D02*
X-02176174Y-08166174D01*
D10*
X-02176174Y-08166174D02*
X-02025474Y-08166174D01*
D10*
X-02025474Y-08166174D02*
X-01244826Y-08166174D01*
D10*
X-01244826Y-08166174D02*
X-00208000Y-09203000D01*
D10*
X-00208000Y-09203000D02*
X-00208000Y-09203000D01*
D10*
X009743000Y-13778000D02*
X009743000Y-13778000D01*
D10*
X009743000Y-13778000D02*
X009756853Y-13791853D01*
D10*
X009756853Y-13791853D02*
X010384000Y-14419000D01*
D10*
X010384000Y-14419000D02*
X010384000Y-14749000D01*
D10*
X010384000Y-14749000D02*
X010384000Y-14749000D01*
D10*
X-59907000Y004130000D02*
X-59907000Y004130000D01*
D10*
X-59907000Y004130000D02*
X-59907626Y004129374D01*
D10*
X-59907626Y004129374D02*
X-59960543Y004129374D01*
D10*
X-59960543Y004129374D02*
X-63870626Y004129374D01*
D10*
X-63870626Y004129374D02*
X-68000000Y000000000D01*
D10*
X-34809000Y001672000D02*
X-34809000Y001672000D01*
D10*
X-34809000Y001672000D02*
X-34779750Y001701250D01*
D10*
X-34779750Y001701250D02*
X-34604146Y001701250D01*
D10*
X-34604146Y001701250D02*
X-34264268Y002041127D01*
D10*
X-34264268Y002041127D02*
X-24247480Y002041127D01*
D10*
X-24247480Y002041127D02*
X-15385608Y010903000D01*
D10*
X-15385608Y010903000D02*
X007580000Y010903000D01*
D10*
X007580000Y010903000D02*
X007580000Y010903000D01*
D10*
X-10157000Y-07431000D02*
X-10157000Y-07431000D01*
D10*
X-10157000Y-07431000D02*
X-10137634Y-07450366D01*
D10*
X-10137634Y-07450366D02*
X-08946000Y-08642000D01*
D10*
X-08946000Y-08642000D02*
X-01418000Y-08642000D01*
D10*
X-01418000Y-08642000D02*
X-01418000Y-08642000D01*
D10*
X-51749000Y-08244000D02*
X-51749000Y-08244000D01*
D10*
X-51749000Y-08244000D02*
X-51766809Y-08261809D01*
D10*
X-51766809Y-08261809D02*
X-51766809Y-08325351D01*
D10*
X-51766809Y-08325351D02*
X-58441458Y-15000000D01*
D10*
X-58441458Y-15000000D02*
X-65460000Y-15000000D01*
D10*
X-32411000Y-02994000D02*
X-32411000Y-02994000D01*
D10*
X-32411000Y-02994000D02*
X-32356283Y-02939283D01*
D10*
X-32356283Y-02939283D02*
X-31907955Y-03387612D01*
D10*
X-31907955Y-03387612D02*
X-07070653Y-03387612D01*
D10*
X-07070653Y-03387612D02*
X-02413041Y001270000D01*
D10*
X-02413041Y001270000D02*
X018000000Y001270000D01*
D10*
X-24975000Y-12648000D02*
X-24975000Y-12648000D01*
D10*
X-24975000Y-12648000D02*
X-24972817Y-12650183D01*
D10*
X-24972817Y-12650183D02*
X-24940790Y-12650183D01*
D10*
X-24940790Y-12650183D02*
X-23703862Y-13887111D01*
D10*
X-23703862Y-13887111D02*
X003602111Y-13887111D01*
D10*
X003602111Y-13887111D02*
X006565000Y-16850000D01*
D10*
X006565000Y-16850000D02*
X006565000Y-16850000D01*
D10*
X007384000Y-16878000D02*
X007384000Y-16878000D01*
D10*
X007384000Y-16878000D02*
X007473254Y-16967254D01*
D10*
X007473254Y-16967254D02*
X007953807Y-17447807D01*
D10*
X007953807Y-17447807D02*
X008023948Y-17447807D01*
D10*
X008023948Y-17447807D02*
X039257807Y-17447807D01*
D10*
X039257807Y-17447807D02*
X040860000Y-19050000D01*
D10*
X-10582000Y-10581000D02*
X-10582000Y-10581000D01*
D10*
X-10582000Y-10581000D02*
X-10519339Y-10643661D01*
D10*
X-10519339Y-10643661D02*
X-10519339Y-10683368D01*
D10*
X-10519339Y-10683368D02*
X-07743506Y-13459201D01*
D10*
X-07743506Y-13459201D02*
X-07743506Y-13531895D01*
D10*
X-07743506Y-13531895D02*
X008971105Y-13531895D01*
D10*
X008971105Y-13531895D02*
X011778000Y-10725000D01*
D10*
X011778000Y-10725000D02*
X011778000Y-10725000D01*
D11*
X064460000Y008000000D02*
X063760559Y008699441D01*
D11*
X063760559Y008699441D02*
X063061118Y009398882D01*
D11*
X063061118Y009398882D02*
X062361677Y010098323D01*
D11*
X062361677Y010098323D02*
X061662236Y010797764D01*
D11*
X061662236Y010797764D02*
X060962796Y011497204D01*
D11*
X060962796Y011497204D02*
X060263355Y012196645D01*
D11*
X060263355Y012196645D02*
X059563914Y012896086D01*
D11*
X059563914Y012896086D02*
X058864473Y013595527D01*
D11*
X058864473Y013595527D02*
X058165032Y014294968D01*
D11*
X058165032Y014294968D02*
X057465591Y014994409D01*
D11*
X057465591Y014994409D02*
X056487204Y014994409D01*
D11*
X056487204Y014994409D02*
X055508817Y014994409D01*
D11*
X055508817Y014994409D02*
X054530430Y014994409D01*
D11*
X054530430Y014994409D02*
X053552043Y014994409D01*
D11*
X053552043Y014994409D02*
X052573656Y014994409D01*
D11*
X052573656Y014994409D02*
X051595269Y014994409D01*
D11*
X051595269Y014994409D02*
X050616882Y014994409D01*
D11*
X050616882Y014994409D02*
X049638494Y014994409D01*
D11*
X049638494Y014994409D02*
X048660107Y014994409D01*
D11*
X048660107Y014994409D02*
X047681720Y014994409D01*
D11*
X047681720Y014994409D02*
X046703333Y014994409D01*
D11*
X046703333Y014994409D02*
X045724946Y014994409D01*
D11*
X045724946Y014994409D02*
X044746559Y014994409D01*
D11*
X044746559Y014994409D02*
X045000000Y017000000D01*
D11*
X045000000Y017000000D02*
X044250000Y017437500D01*
D11*
X044250000Y017437500D02*
X043500000Y017562500D01*
D11*
X043500000Y017562500D02*
X042750000Y017687500D01*
D11*
X042750000Y017687500D02*
X042000000Y017812500D01*
D12*
X042000000Y017812500D02*
X041250000Y017812500D01*
D12*
X041250000Y017812500D02*
X040500000Y017812500D01*
D12*
X040500000Y017812500D02*
X039750000Y017812500D01*
D12*
X039750000Y017812500D02*
X038988215Y017248882D01*
D11*
X038988215Y017248882D02*
X038226430Y016685264D01*
D11*
X038226430Y016685264D02*
X037464645Y016121645D01*
D11*
X037464645Y016121645D02*
X036702860Y015558027D01*
D11*
X036702860Y015558027D02*
X035941075Y014994409D01*
D11*
X035941075Y014994409D02*
X034962688Y014994409D01*
D11*
X034962688Y014994409D02*
X033984301Y014994409D01*
D11*
X033984301Y014994409D02*
X033005914Y014994409D01*
D11*
X033005914Y014994409D02*
X032027527Y014994409D01*
D11*
X032027527Y014994409D02*
X031049140Y014994409D01*
D11*
X031049140Y014994409D02*
X030070752Y014994409D01*
D11*
X030070752Y014994409D02*
X029092365Y014994409D01*
D11*
X029092365Y014994409D02*
X028113978Y014994409D01*
D11*
X028113978Y014994409D02*
X027135591Y014994409D01*
D11*
X027135591Y014994409D02*
X026432853Y015697147D01*
D11*
X026432853Y015697147D02*
X025730116Y016399884D01*
D11*
X025730116Y016399884D02*
X025027378Y017102622D01*
D11*
X025027378Y017102622D02*
X024324640Y017805360D01*
D11*
X024324640Y017805360D02*
X023621902Y018508098D01*
D11*
X023621902Y018508098D02*
X022919164Y019210836D01*
D11*
X022919164Y019210836D02*
X022919164Y024130000D01*
D11*
X022919164Y024130000D02*
X018000000Y024130000D01*
D11*
X040860000Y024130000D02*
X040860000Y026670000D01*
D11*
X065730000Y027000000D02*
X065730000Y020000000D01*
D11*
X053142000Y029446000D02*
X053142000Y029446000D01*
D11*
X053142000Y029446000D02*
X053077370Y029381370D01*
D11*
X053077370Y029381370D02*
X052986816Y029381370D01*
D11*
X052986816Y029381370D02*
X052308974Y028703527D01*
D11*
X052308974Y028703527D02*
X051631131Y028025685D01*
D11*
X051631131Y028025685D02*
X050953289Y027347842D01*
D11*
X050953289Y027347842D02*
X050275446Y026670000D01*
D11*
X050275446Y026670000D02*
X049333902Y026670000D01*
D11*
X049333902Y026670000D02*
X048392357Y026670000D01*
D11*
X048392357Y026670000D02*
X047450812Y026670000D01*
D11*
X047450812Y026670000D02*
X046509268Y026670000D01*
D11*
X046509268Y026670000D02*
X045567723Y026670000D01*
D11*
X045567723Y026670000D02*
X044626179Y026670000D01*
D11*
X044626179Y026670000D02*
X043684634Y026670000D01*
D11*
X043684634Y026670000D02*
X042743089Y026670000D01*
D11*
X042743089Y026670000D02*
X041801545Y026670000D01*
D11*
X041801545Y026670000D02*
X040860000Y026670000D01*
D11*
X-41620000Y037810000D02*
X-40637063Y037810000D01*
D11*
X-40637063Y037810000D02*
X-39654127Y037810000D01*
D11*
X-39654127Y037810000D02*
X-38671190Y037810000D01*
D11*
X-38671190Y037810000D02*
X-37688254Y037810000D01*
D11*
X-37688254Y037810000D02*
X-36705317Y037810000D01*
D11*
X-36705317Y037810000D02*
X-35722380Y037810000D01*
D11*
X-35722380Y037810000D02*
X-34739444Y037810000D01*
D11*
X-34739444Y037810000D02*
X-33756507Y037810000D01*
D11*
X-33756507Y037810000D02*
X-32773571Y037810000D01*
D11*
X-32773571Y037810000D02*
X-31790634Y037810000D01*
D11*
X-31790634Y037810000D02*
X-30807698Y037810000D01*
D11*
X-30807698Y037810000D02*
X-29824761Y037810000D01*
D11*
X-29824761Y037810000D02*
X-28841824Y037810000D01*
D11*
X-28841824Y037810000D02*
X-27858888Y037810000D01*
D11*
X-27858888Y037810000D02*
X-26875951Y037810000D01*
D11*
X-26875951Y037810000D02*
X-25893015Y037810000D01*
D11*
X-25893015Y037810000D02*
X-24910078Y037810000D01*
D11*
X-24910078Y037810000D02*
X-23927141Y037810000D01*
D11*
X-23927141Y037810000D02*
X-22944205Y037810000D01*
D11*
X-22944205Y037810000D02*
X-21961268Y037810000D01*
D11*
X-21961268Y037810000D02*
X-20978332Y037810000D01*
D11*
X-20978332Y037810000D02*
X-19995395Y037810000D01*
D11*
X-19995395Y037810000D02*
X-19012459Y037810000D01*
D11*
X-19012459Y037810000D02*
X-18029522Y037810000D01*
D11*
X-18029522Y037810000D02*
X-17046585Y037810000D01*
D11*
X-17046585Y037810000D02*
X-16966086Y037890499D01*
D11*
X-16966086Y037890499D02*
X-16924501Y037890499D01*
D11*
X-16924501Y037890499D02*
X-16870000Y037945000D01*
D11*
X-16870000Y037945000D02*
X-16870000Y037945000D01*
D11*
X069540000Y008000000D02*
X069540000Y007332000D01*
D11*
X069540000Y007332000D02*
X069540000Y006664000D01*
D11*
X069540000Y006664000D02*
X068861334Y005985334D01*
D11*
X068861334Y005985334D02*
X068182669Y005306669D01*
D11*
X068182669Y005306669D02*
X067504003Y004628003D01*
D11*
X067504003Y004628003D02*
X066825338Y003949338D01*
D11*
X066825338Y003949338D02*
X066146672Y003270672D01*
D11*
X066146672Y003270672D02*
X065468007Y002592007D01*
D11*
X065468007Y002592007D02*
X064789341Y001913341D01*
D11*
X064789341Y001913341D02*
X064110676Y001234676D01*
D11*
X064110676Y001234676D02*
X063432010Y000556010D01*
D11*
X063432010Y000556010D02*
X063344000Y000468000D01*
D11*
X063344000Y000468000D02*
X063344000Y000468000D01*
D10*
X044046000Y-00852000D02*
X044046000Y-00852000D01*
D10*
X044046000Y-00852000D02*
X044283295Y-00852000D01*
D10*
X044283295Y-00852000D02*
X045528673Y000393378D01*
D10*
X045528673Y000393378D02*
X045547378Y000393378D01*
D10*
X045547378Y000393378D02*
X045645000Y000491000D01*
D10*
X045645000Y000491000D02*
X045645000Y000491000D01*
D10*
X068270000Y-12000000D02*
X066703332Y-10433332D01*
D10*
X066703332Y-10433332D02*
X063669035Y-10433332D01*
D10*
X063669035Y-10433332D02*
X063601332Y-10433332D01*
D10*
X063601332Y-10433332D02*
X063599000Y-10431000D01*
D10*
X063599000Y-10431000D02*
X063599000Y-10431000D01*
D10*
X063842000Y006451000D02*
X063842000Y006451000D01*
D10*
X063842000Y006451000D02*
X063991110Y006460110D01*
D10*
X063991110Y006460110D02*
X064137941Y006460110D01*
D10*
X064137941Y006460110D02*
X065460110Y006460110D01*
D10*
X065460110Y006460110D02*
X067000000Y008000000D01*
D11*
X-59460000Y017500000D02*
X-56250000Y020710000D01*
D11*
X-56250000Y020710000D02*
X-56250000Y025000000D01*
D11*
X-56250000Y025000000D02*
X-50179633Y031070367D01*
D11*
X-50179633Y031070367D02*
X-49230847Y031070367D01*
D11*
X-49230847Y031070367D02*
X-48530908Y031770306D01*
D11*
X-48530908Y031770306D02*
X-47830969Y032470244D01*
D11*
X-47830969Y032470244D02*
X-47131030Y033170183D01*
D11*
X-47131030Y033170183D02*
X-46431092Y033870122D01*
D11*
X-46431092Y033870122D02*
X-45731153Y034570061D01*
D11*
X-45731153Y034570061D02*
X-45031214Y035270000D01*
D11*
X-45031214Y035270000D02*
X-44160000Y035270000D01*
D33*
X-00312000Y-13180000D03*
D33*
X-06940000Y-15262000D03*
D33*
X-26010000Y-25930000D03*
D33*
X-12698000Y-17580000D03*
D33*
X-12430000Y-15354000D03*
D33*
X005171000Y006630000D03*
D33*
X-15676000Y-16069000D03*
D33*
X-15981000Y-17983000D03*
D33*
X-19117000Y-23516000D03*
D33*
X014002000Y017349000D03*
D33*
X-07166000Y-02972000D03*
D33*
X-07674000Y-03840000D03*
D33*
X-15801000Y-12205000D03*
D33*
X-20022000Y-15936000D03*
D33*
X-20732000Y-17783000D03*
D33*
X044389000Y-08806000D03*
D33*
X053423000Y010008000D03*
D33*
X048780000Y013869000D03*
D33*
X043928000Y016644000D03*
D33*
X-04202000Y-16683000D03*
D33*
X-04019000Y-17803000D03*
D33*
X002608000Y-21150000D03*
D33*
X002460000Y-16374000D03*
D33*
X024000000Y-07200000D03*
D33*
X024000000Y-13600000D03*
D33*
X-25788000Y017264000D03*
D33*
X-17600000Y009200000D03*
D33*
X-13425000Y005570000D03*
D33*
X-07586000Y000271000D03*
D33*
X008450000Y-02807000D03*
D33*
X004256000Y-09762000D03*
D33*
X010632000Y-13723000D03*
D33*
X-31327000Y007664000D03*
D33*
X-31604000Y004064000D03*
D33*
X-10194000Y-05709000D03*
D33*
X-09426000Y-05331000D03*
D33*
X-02198000Y-08188000D03*
D33*
X-00208000Y-09203000D03*
D33*
X009743000Y-13778000D03*
D33*
X010384000Y-14749000D03*
D33*
X-59907000Y004130000D03*
D33*
X-34809000Y001672000D03*
D33*
X007580000Y010903000D03*
D33*
X-10157000Y-07431000D03*
D33*
X-01418000Y-08642000D03*
D33*
X-51749000Y-08244000D03*
D33*
X-32411000Y-02994000D03*
D33*
X-24975000Y-12648000D03*
D33*
X006565000Y-16850000D03*
D33*
X007384000Y-16878000D03*
D33*
X-10582000Y-10581000D03*
D33*
X011778000Y-10725000D03*
D33*
X053142000Y029446000D03*
D33*
X-16870000Y037945000D03*
D33*
X063344000Y000468000D03*
D33*
X044046000Y-00852000D03*
D33*
X045645000Y000491000D03*
D33*
X063599000Y-10431000D03*
D33*
X063842000Y006451000D03*
%LPC*%
D13*
X-75000000Y-45000000D03*
%LPD*%
%LPC*%
D13*
X075000000Y-45000000D03*
%LPD*%
%LPC*%
D13*
X-75000000Y045000000D03*
%LPD*%
%LPC*%
D13*
X075000000Y045000000D03*
%LPD*%
%LPC*%
D19*
X-69620000Y023133500D03*
%LPD*%
%LPC*%
D19*
X-54380000Y023133500D03*
%LPD*%
%LPC*%
D19*
X-69747000Y045866500D03*
%LPD*%
%LPC*%
D19*
X-54507000Y045866500D03*
%LPD*%
%LPC*%
D23*
X-44500000Y023500000D03*
%LPD*%
%LPC*%
D23*
X-23400000Y023500000D03*
%LPD*%
%LPC*%
D23*
X-23400000Y044600000D03*
%LPD*%
M02*