%TF.GenerationSoftware,tscircuit,circuit-json-to-gerber,0.0.93*%
%TF.CreationDate,2026-08-26T23:47:51.671Z*%
%TF.SameCoordinates,Original*%
%TF.FileFunction,Copper,L2,Bot*%
%TF.FilePolarity,Positive*%
%FSLAX46Y46*%
%MOMM*%
G04 Gerber Fmt 4.6, Leading zero omitted, Abs format (unit mm)*
G04 Created by tscircuit (builder) date 2026-08-26T23:47:51.671Z*
G01*
%LPD*%
G75*
G04 APERTURE MACROS START*
%AMHORZPILL*
0 Horizontal pill (stadium) shape macro*
0 Parameters:*
0 $1 = Total width*
0 $2 = Total height*
0 $3 = Circle diameter (equal to height)*
0 $4 = Circle center offset
0 21 = Center Line(Exposure, Width, Height, Center X, Center Y, Rotation)*
0 1 = Circle(Exposure, Diameter, Center X, Center Y, Rotation)*
21,1,$1-$3,$2,0.0,0.0,0.0*
1,1,$3,0.0-$4,0.0*
1,1,$3,$4,0.0*%
%AMVERTPILL*
0 Vertical pill (stadium) shape macro*
0 Parameters:*
0 $1 = Total width*
0 $2 = Total height*
0 $3 = Circle diameter (equal to width)*
0 $4 = Circle center offset
0 21 = Center Line(Exposure, Width, Height, Center X, Center Y, Rotation)*
21,1,$1,$2-$3,0.0,0.0,0.0*
1,1,$3,0.0,0.0-$4*
1,1,$3,0.0,$4*%
%AMROUNDRECT*
0 Rectangle with rounded corners*
0 $1 Corner radius*
0 $2 $3 $4 $5 $6 $7 $8 $9 X,Y Position of each corner*
0 Polygon box body*
4,1,4,$2,$3,$4,$5,$6,$7,$8,$9,$2,$3,0*
0 Circles for rounded corners*
1,1,$1+$1,$2,$3*
1,1,$1+$1,$4,$5*
1,1,$1+$1,$6,$7*
1,1,$1+$1,$8,$9*
0 Rectangles between the rounded corners*
20,1,$1+$1,$2,$3,$4,$5,0*
20,1,$1+$1,$4,$5,$6,$7,0*
20,1,$1+$1,$6,$7,$8,$9,0*
20,1,$1+$1,$8,$9,$2,$3,0*%
G04 APERTURE MACROS END*
G04 aperture START LIST*
%ADD10C,0.150000*%
%ADD11C,1.000000*%
%ADD12C,3.200000*%
%ADD13R,1.500000X1.500000*%
%ADD14C,1.500000*%
%ADD15C,0.063000*%
%ADD16C,0.200000*%
%ADD17C,0.108000*%
%ADD18C,2.500000*%
%ADD19R,3.000000X3.000000*%
%ADD20C,0.081000*%
%ADD21R,1.800000X1.800000*%
%ADD22C,2.180000*%
%ADD23C,0.090000*%
%ADD24C,0.100000*%
%ADD25R,1.700000X1.700000*%
%ADD26C,0.120000*%
%ADD27C,0.036000*%
%ADD28R,2.000000X2.000000*%
%ADD29R,2.200000X2.200000*%
%ADD30C,0.150000*%
%ADD31C,0.045000*%
%ADD32C,0.048375*%
%ADD33C,0.300000*%
%ADD34C,0.001000*%
%TD*%
G04 aperture END LIST*
D34*
G36*
X079500000Y049500000D02*
G01*
X-79500000Y049500000D01*
G01*
X-79500000Y-49500000D01*
G01*
X079500000Y-49500000D01*
G01*
X079500000Y049500000D01*
G37*
%LPC*%
D34*
G36*
X-69747000Y044366500D02*
G01*
X-69454365Y044395322D01*
G01*
X-69172975Y044480681D01*
G01*
X-68913645Y044619296D01*
G01*
X-68686340Y044805840D01*
G01*
X-68499796Y045033145D01*
G01*
X-68361181Y045292475D01*
G01*
X-68275822Y045573865D01*
G01*
X-68247000Y045866500D01*
G01*
X-68275822Y046159135D01*
G01*
X-68361181Y046440525D01*
G01*
X-68499796Y046699855D01*
G01*
X-68686340Y046927160D01*
G01*
X-68913645Y047113704D01*
G01*
X-69172975Y047252319D01*
G01*
X-69454365Y047337678D01*
G01*
X-69747000Y047366500D01*
G01*
X-70039635Y047337678D01*
G01*
X-70321025Y047252319D01*
G01*
X-70580355Y047113704D01*
G01*
X-70807660Y046927160D01*
G01*
X-70994204Y046699855D01*
G01*
X-71132819Y046440525D01*
G01*
X-71218178Y046159135D01*
G01*
X-71247000Y045866500D01*
G01*
X-71218178Y045573865D01*
G01*
X-71132819Y045292475D01*
G01*
X-70994204Y045033145D01*
G01*
X-70807660Y044805840D01*
G01*
X-70580355Y044619296D01*
G01*
X-70321025Y044480681D01*
G01*
X-70039635Y044395322D01*
G01*
X-69747000Y044366500D01*
G37*
D34*
G36*
X-54507000Y044366500D02*
G01*
X-54214365Y044395322D01*
G01*
X-53932975Y044480681D01*
G01*
X-53673645Y044619296D01*
G01*
X-53446340Y044805840D01*
G01*
X-53259796Y045033145D01*
G01*
X-53121181Y045292475D01*
G01*
X-53035822Y045573865D01*
G01*
X-53007000Y045866500D01*
G01*
X-53035822Y046159135D01*
G01*
X-53121181Y046440525D01*
G01*
X-53259796Y046699855D01*
G01*
X-53446340Y046927160D01*
G01*
X-53673645Y047113704D01*
G01*
X-53932975Y047252319D01*
G01*
X-54214365Y047337678D01*
G01*
X-54507000Y047366500D01*
G01*
X-54799635Y047337678D01*
G01*
X-55081025Y047252319D01*
G01*
X-55340355Y047113704D01*
G01*
X-55567660Y046927160D01*
G01*
X-55754204Y046699855D01*
G01*
X-55892819Y046440525D01*
G01*
X-55978178Y046159135D01*
G01*
X-56007000Y045866500D01*
G01*
X-55978178Y045573865D01*
G01*
X-55892819Y045292475D01*
G01*
X-55754204Y045033145D01*
G01*
X-55567660Y044805840D01*
G01*
X-55340355Y044619296D01*
G01*
X-55081025Y044480681D01*
G01*
X-54799635Y044395322D01*
G01*
X-54507000Y044366500D01*
G37*
D34*
G36*
X-75000000Y043150000D02*
G01*
X-74639083Y043185547D01*
G01*
X-74292036Y043290823D01*
G01*
X-73972195Y043461781D01*
G01*
X-73691852Y043691852D01*
G01*
X-73461781Y043972195D01*
G01*
X-73290823Y044292036D01*
G01*
X-73185547Y044639083D01*
G01*
X-73150000Y045000000D01*
G01*
X-73185547Y045360917D01*
G01*
X-73290823Y045707964D01*
G01*
X-73461781Y046027805D01*
G01*
X-73691852Y046308148D01*
G01*
X-73972195Y046538219D01*
G01*
X-74292036Y046709177D01*
G01*
X-74639083Y046814453D01*
G01*
X-75000000Y046850000D01*
G01*
X-75360917Y046814453D01*
G01*
X-75707964Y046709177D01*
G01*
X-76027805Y046538219D01*
G01*
X-76308148Y046308148D01*
G01*
X-76538219Y046027805D01*
G01*
X-76709177Y045707964D01*
G01*
X-76814453Y045360917D01*
G01*
X-76850000Y045000000D01*
G01*
X-76814453Y044639083D01*
G01*
X-76709177Y044292036D01*
G01*
X-76538219Y043972195D01*
G01*
X-76308148Y043691852D01*
G01*
X-76027805Y043461781D01*
G01*
X-75707964Y043290823D01*
G01*
X-75360917Y043185547D01*
G01*
X-75000000Y043150000D01*
G37*
D34*
G36*
X075000000Y043150000D02*
G01*
X075360917Y043185547D01*
G01*
X075707964Y043290823D01*
G01*
X076027805Y043461781D01*
G01*
X076308148Y043691852D01*
G01*
X076538219Y043972195D01*
G01*
X076709177Y044292036D01*
G01*
X076814453Y044639083D01*
G01*
X076850000Y045000000D01*
G01*
X076814453Y045360917D01*
G01*
X076709177Y045707964D01*
G01*
X076538219Y046027805D01*
G01*
X076308148Y046308148D01*
G01*
X076027805Y046538219D01*
G01*
X075707964Y046709177D01*
G01*
X075360917Y046814453D01*
G01*
X075000000Y046850000D01*
G01*
X074639083Y046814453D01*
G01*
X074292036Y046709177D01*
G01*
X073972195Y046538219D01*
G01*
X073691852Y046308148D01*
G01*
X073461781Y046027805D01*
G01*
X073290823Y045707964D01*
G01*
X073185547Y045360917D01*
G01*
X073150000Y045000000D01*
G01*
X073185547Y044639083D01*
G01*
X073290823Y044292036D01*
G01*
X073461781Y043972195D01*
G01*
X073691852Y043691852D01*
G01*
X073972195Y043461781D01*
G01*
X074292036Y043290823D01*
G01*
X074639083Y043185547D01*
G01*
X075000000Y043150000D01*
G37*
D34*
G36*
X-23400000Y043260000D02*
G01*
X-23138579Y043285748D01*
G01*
X-22887204Y043362001D01*
G01*
X-22655536Y043485831D01*
G01*
X-22452477Y043652477D01*
G01*
X-22285831Y043855536D01*
G01*
X-22162001Y044087204D01*
G01*
X-22085748Y044338579D01*
G01*
X-22060000Y044600000D01*
G01*
X-22085748Y044861421D01*
G01*
X-22162001Y045112796D01*
G01*
X-22285831Y045344464D01*
G01*
X-22452477Y045547523D01*
G01*
X-22655536Y045714169D01*
G01*
X-22887204Y045837999D01*
G01*
X-23138579Y045914252D01*
G01*
X-23400000Y045940000D01*
G01*
X-23661421Y045914252D01*
G01*
X-23912796Y045837999D01*
G01*
X-24144464Y045714169D01*
G01*
X-24347523Y045547523D01*
G01*
X-24514169Y045344464D01*
G01*
X-24637999Y045112796D01*
G01*
X-24714252Y044861421D01*
G01*
X-24740000Y044600000D01*
G01*
X-24714252Y044338579D01*
G01*
X-24637999Y044087204D01*
G01*
X-24514169Y043855536D01*
G01*
X-24347523Y043652477D01*
G01*
X-24144464Y043485831D01*
G01*
X-23912796Y043362001D01*
G01*
X-23661421Y043285748D01*
G01*
X-23400000Y043260000D01*
G37*
D34*
G36*
X-45310000Y039200000D02*
G01*
X-43010000Y039200000D01*
G01*
X-43010000Y041500000D01*
G01*
X-45310000Y041500000D01*
G01*
X-45310000Y039200000D01*
G37*
D34*
G36*
X-42770000Y039200000D02*
G01*
X-40470000Y039200000D01*
G01*
X-40470000Y041500000D01*
G01*
X-42770000Y041500000D01*
G01*
X-42770000Y039200000D01*
G37*
D34*
G36*
X063110000Y034650000D02*
G01*
X065810000Y034650000D01*
G01*
X065810000Y037350000D01*
G01*
X063110000Y037350000D01*
G01*
X063110000Y034650000D01*
G37*
D34*
G36*
X068190000Y034650000D02*
G01*
X070890000Y034650000D01*
G01*
X070890000Y037350000D01*
G01*
X068190000Y037350000D01*
G01*
X068190000Y034650000D01*
G37*
D34*
G36*
X-61210000Y015750000D02*
G01*
X-57710000Y015750000D01*
G01*
X-57710000Y018189340D01*
G01*
X-55719670Y020179670D01*
G01*
X-55626398Y020293322D01*
G01*
X-55557090Y020422987D01*
G01*
X-55514411Y020563682D01*
G01*
X-55500000Y020710000D01*
G01*
X-55500000Y022145146D01*
G01*
X-55440660Y022072840D01*
G01*
X-55213355Y021886296D01*
G01*
X-54954025Y021747681D01*
G01*
X-54672635Y021662322D01*
G01*
X-54380000Y021633500D01*
G01*
X-54087365Y021662322D01*
G01*
X-53805975Y021747681D01*
G01*
X-53546645Y021886296D01*
G01*
X-53319340Y022072840D01*
G01*
X-53132796Y022300145D01*
G01*
X-52994181Y022559475D01*
G01*
X-52908822Y022840865D01*
G01*
X-52880000Y023133500D01*
G01*
X-52908822Y023426135D01*
G01*
X-52994181Y023707525D01*
G01*
X-53132796Y023966855D01*
G01*
X-53319340Y024194160D01*
G01*
X-53546645Y024380704D01*
G01*
X-53805975Y024519319D01*
G01*
X-54087365Y024604678D01*
G01*
X-54380000Y024633500D01*
G01*
X-54672635Y024604678D01*
G01*
X-54954025Y024519319D01*
G01*
X-55213355Y024380704D01*
G01*
X-55440660Y024194160D01*
G01*
X-55500000Y024121854D01*
G01*
X-55500000Y024689340D01*
G01*
X-49868973Y030320367D01*
G01*
X-49230847Y030320367D01*
G01*
X-49084529Y030334778D01*
G01*
X-48943835Y030377457D01*
G01*
X-48814169Y030446765D01*
G01*
X-48700517Y030540037D01*
G01*
X-48000578Y031239976D01*
G01*
X-47300639Y031939914D01*
G01*
X-46600700Y032639853D01*
G01*
X-45900762Y033339792D01*
G01*
X-45200823Y034039731D01*
G01*
X-45120554Y034120000D01*
G01*
X-43010000Y034120000D01*
G01*
X-43010000Y036420000D01*
G01*
X-45310000Y036420000D01*
G01*
X-45310000Y035965405D01*
G01*
X-45318226Y035962910D01*
G01*
X-45447892Y035893602D01*
G01*
X-45561544Y035800330D01*
G01*
X-46261483Y035100391D01*
G01*
X-46961422Y034400452D01*
G01*
X-47661361Y033700513D01*
G01*
X-48361299Y033000575D01*
G01*
X-49061238Y032300636D01*
G01*
X-49541507Y031820367D01*
G01*
X-50179633Y031820367D01*
G01*
X-50325951Y031805956D01*
G01*
X-50466646Y031763276D01*
G01*
X-50596311Y031693969D01*
G01*
X-50709963Y031600697D01*
G01*
X-56780330Y025530330D01*
G01*
X-56873602Y025416678D01*
G01*
X-56942910Y025287013D01*
G01*
X-56985589Y025146318D01*
G01*
X-57000000Y025000000D01*
G01*
X-57000000Y021020660D01*
G01*
X-58770660Y019250000D01*
G01*
X-61210000Y019250000D01*
G01*
X-61210000Y015750000D01*
G37*
D34*
G36*
X-42770000Y034120000D02*
G01*
X-40470000Y034120000D01*
G01*
X-40470000Y036420000D01*
G01*
X-42770000Y036420000D01*
G01*
X-42770000Y034120000D01*
G37*
D34*
G36*
X057800000Y032400000D02*
G01*
X057878036Y032407686D01*
G01*
X057953073Y032430448D01*
G01*
X058022228Y032467412D01*
G01*
X058082843Y032517157D01*
G01*
X058132588Y032577772D01*
G01*
X058169552Y032646927D01*
G01*
X058192314Y032721964D01*
G01*
X058200000Y032800000D01*
G01*
X058192314Y032878036D01*
G01*
X058169552Y032953073D01*
G01*
X058132588Y033022228D01*
G01*
X058082843Y033082843D01*
G01*
X058039786Y033118178D01*
G01*
X058032492Y033131825D01*
G01*
X057992075Y033181074D01*
G01*
X057945000Y033228149D01*
G01*
X057945000Y034909526D01*
G01*
X057952588Y034918772D01*
G01*
X057989552Y034987927D01*
G01*
X058012314Y035062964D01*
G01*
X058020000Y035141000D01*
G01*
X058012314Y035219036D01*
G01*
X057989552Y035294073D01*
G01*
X057952588Y035363228D01*
G01*
X057902843Y035423843D01*
G01*
X057842228Y035473588D01*
G01*
X057773073Y035510552D01*
G01*
X057698036Y035533314D01*
G01*
X057620000Y035541000D01*
G01*
X057541964Y035533314D01*
G01*
X057466927Y035510552D01*
G01*
X057397772Y035473588D01*
G01*
X057337157Y035423843D01*
G01*
X057287412Y035363228D01*
G01*
X057250448Y035294073D01*
G01*
X057227686Y035219036D01*
G01*
X057220000Y035141000D01*
G01*
X057227686Y035062964D01*
G01*
X057250448Y034987927D01*
G01*
X057287412Y034918772D01*
G01*
X057295000Y034909526D01*
G01*
X057295000Y033093529D01*
G01*
X057301245Y033030125D01*
G01*
X057319739Y032969157D01*
G01*
X057349772Y032912969D01*
G01*
X057390190Y032863720D01*
G01*
X057404834Y032849076D01*
G01*
X057400000Y032800000D01*
G01*
X057407686Y032721964D01*
G01*
X057430448Y032646927D01*
G01*
X057467412Y032577772D01*
G01*
X057517157Y032517157D01*
G01*
X057577772Y032467412D01*
G01*
X057646927Y032430448D01*
G01*
X057721964Y032407686D01*
G01*
X057800000Y032400000D01*
G37*
D34*
G36*
X-45310000Y031580000D02*
G01*
X-43010000Y031580000D01*
G01*
X-43010000Y033880000D01*
G01*
X-45310000Y033880000D01*
G01*
X-45310000Y031580000D01*
G37*
D34*
G36*
X-42770000Y031580000D02*
G01*
X-40470000Y031580000D01*
G01*
X-40470000Y033880000D01*
G01*
X-42770000Y033880000D01*
G01*
X-42770000Y031580000D01*
G37*
D34*
G36*
X-45310000Y029040000D02*
G01*
X-43010000Y029040000D01*
G01*
X-43010000Y031340000D01*
G01*
X-45310000Y031340000D01*
G01*
X-45310000Y029040000D01*
G37*
D34*
G36*
X-42770000Y029040000D02*
G01*
X-40470000Y029040000D01*
G01*
X-40470000Y031340000D01*
G01*
X-42770000Y031340000D01*
G01*
X-42770000Y029040000D01*
G37*
D34*
G36*
X067020000Y025750000D02*
G01*
X069520000Y025750000D01*
G01*
X069520000Y028250000D01*
G01*
X067479619Y028250000D01*
G01*
X066705846Y029023773D01*
G01*
X066656597Y029064191D01*
G01*
X066600409Y029094224D01*
G01*
X066539441Y029112719D01*
G01*
X066503129Y029116295D01*
G01*
X066503257Y029117821D01*
G01*
X065028500Y029241774D01*
G01*
X064994400Y029269759D01*
G01*
X064925245Y029306723D01*
G01*
X064850208Y029329486D01*
G01*
X064772171Y029337171D01*
G01*
X064694135Y029329486D01*
G01*
X064619098Y029306723D01*
G01*
X064549943Y029269759D01*
G01*
X064489329Y029220014D01*
G01*
X064439584Y029159400D01*
G01*
X064402620Y029090245D01*
G01*
X064379857Y029015208D01*
G01*
X064372171Y028937171D01*
G01*
X064379857Y028859135D01*
G01*
X064402620Y028784098D01*
G01*
X064439584Y028714943D01*
G01*
X064489329Y028654329D01*
G01*
X064549943Y028604584D01*
G01*
X064619098Y028567620D01*
G01*
X064694135Y028544857D01*
G01*
X064772171Y028537171D01*
G01*
X064850208Y028544857D01*
G01*
X064925245Y028567620D01*
G01*
X064974617Y028594010D01*
G01*
X066330316Y028480065D01*
G01*
X067020000Y027790381D01*
G01*
X067020000Y025750000D01*
G37*
D34*
G36*
X-45310000Y026500000D02*
G01*
X-43010000Y026500000D01*
G01*
X-43010000Y028800000D01*
G01*
X-45310000Y028800000D01*
G01*
X-45310000Y026500000D01*
G37*
D34*
G36*
X-42770000Y026500000D02*
G01*
X-40470000Y026500000D01*
G01*
X-40470000Y028800000D01*
G01*
X-42770000Y028800000D01*
G01*
X-42770000Y026500000D01*
G37*
D34*
G36*
X018000000Y-02270000D02*
G01*
X018195090Y-02250785D01*
G01*
X018382683Y-02193880D01*
G01*
X018555570Y-02101470D01*
G01*
X018707107Y-01977107D01*
G01*
X018831470Y-01825570D01*
G01*
X018923880Y-01652683D01*
G01*
X018980785Y-01465090D01*
G01*
X019000000Y-01270000D01*
G01*
X018980785Y-01074910D01*
G01*
X018923880Y-00887317D01*
G01*
X018895465Y-00834155D01*
G01*
X040124357Y020394738D01*
G01*
X040164775Y020443987D01*
G01*
X040194808Y020500175D01*
G01*
X040213303Y020561143D01*
G01*
X040219547Y020624547D01*
G01*
X040219547Y020828192D01*
G01*
X040304430Y020758530D01*
G01*
X040477317Y020666120D01*
G01*
X040664910Y020609215D01*
G01*
X040860000Y020590000D01*
G01*
X041055090Y020609215D01*
G01*
X041242683Y020666120D01*
G01*
X041415570Y020758530D01*
G01*
X041567107Y020882893D01*
G01*
X041691470Y021034430D01*
G01*
X041783880Y021207317D01*
G01*
X041840785Y021394910D01*
G01*
X041860000Y021590000D01*
G01*
X041840785Y021785090D01*
G01*
X041783880Y021972683D01*
G01*
X041691470Y022145570D01*
G01*
X041567107Y022297107D01*
G01*
X041415570Y022421470D01*
G01*
X041242683Y022513880D01*
G01*
X041055090Y022570785D01*
G01*
X040860000Y022590000D01*
G01*
X040664910Y022570785D01*
G01*
X040477317Y022513880D01*
G01*
X040304430Y022421470D01*
G01*
X040219547Y022351808D01*
G01*
X040219547Y024835885D01*
G01*
X042025388Y024835885D01*
G01*
X042088793Y024842130D01*
G01*
X042149760Y024860624D01*
G01*
X042205949Y024890657D01*
G01*
X042255198Y024931075D01*
G01*
X043414818Y026090695D01*
G01*
X043435036Y026092686D01*
G01*
X043510073Y026115448D01*
G01*
X043579228Y026152412D01*
G01*
X043639843Y026202157D01*
G01*
X043689588Y026262772D01*
G01*
X043726552Y026331927D01*
G01*
X043749314Y026406964D01*
G01*
X043757000Y026485000D01*
G01*
X043749314Y026563036D01*
G01*
X043726552Y026638073D01*
G01*
X043689588Y026707228D01*
G01*
X043639843Y026767843D01*
G01*
X043579228Y026817588D01*
G01*
X043510073Y026854552D01*
G01*
X043435036Y026877314D01*
G01*
X043357000Y026885000D01*
G01*
X043278964Y026877314D01*
G01*
X043203927Y026854552D01*
G01*
X043134772Y026817588D01*
G01*
X043074157Y026767843D01*
G01*
X043024412Y026707228D01*
G01*
X042987448Y026638073D01*
G01*
X042964686Y026563036D01*
G01*
X042964333Y026559449D01*
G01*
X041890768Y025485885D01*
G01*
X039894547Y025485885D01*
G01*
X039831143Y025479640D01*
G01*
X039770175Y025461146D01*
G01*
X039713987Y025431113D01*
G01*
X039664738Y025390695D01*
G01*
X039624320Y025341445D01*
G01*
X039594287Y025285257D01*
G01*
X039575792Y025224289D01*
G01*
X039569547Y025160885D01*
G01*
X039569547Y020759166D01*
G01*
X018435845Y-00374535D01*
G01*
X018382683Y-00346120D01*
G01*
X018195090Y-00289215D01*
G01*
X018000000Y-00270000D01*
G01*
X017804910Y-00289215D01*
G01*
X017617317Y-00346120D01*
G01*
X017444430Y-00438530D01*
G01*
X017292893Y-00562893D01*
G01*
X017168530Y-00714430D01*
G01*
X017076120Y-00887317D01*
G01*
X017019215Y-01074910D01*
G01*
X017000000Y-01270000D01*
G01*
X017019215Y-01465090D01*
G01*
X017076120Y-01652683D01*
G01*
X017168530Y-01825570D01*
G01*
X017292893Y-01977107D01*
G01*
X017444430Y-02101470D01*
G01*
X017617317Y-02193880D01*
G01*
X017804910Y-02250785D01*
G01*
X018000000Y-02270000D01*
G37*
D34*
G36*
X018000000Y023130000D02*
G01*
X018195090Y023149215D01*
G01*
X018382683Y023206120D01*
G01*
X018555570Y023298530D01*
G01*
X018707107Y023422893D01*
G01*
X018831470Y023574430D01*
G01*
X018923880Y023747317D01*
G01*
X018980785Y023934910D01*
G01*
X019000000Y024130000D01*
G01*
X018980785Y024325090D01*
G01*
X018923880Y024512683D01*
G01*
X018831470Y024685570D01*
G01*
X018707107Y024837107D01*
G01*
X018555570Y024961470D01*
G01*
X018382683Y025053880D01*
G01*
X018195090Y025110785D01*
G01*
X018000000Y025130000D01*
G01*
X017804910Y025110785D01*
G01*
X017617317Y025053880D01*
G01*
X017444430Y024961470D01*
G01*
X017292893Y024837107D01*
G01*
X017168530Y024685570D01*
G01*
X017076120Y024512683D01*
G01*
X017019215Y024325090D01*
G01*
X017000000Y024130000D01*
G01*
X017019215Y023934910D01*
G01*
X017076120Y023747317D01*
G01*
X017168530Y023574430D01*
G01*
X017292893Y023422893D01*
G01*
X017444430Y023298530D01*
G01*
X017617317Y023206120D01*
G01*
X017804910Y023149215D01*
G01*
X018000000Y023130000D01*
G37*
D34*
G36*
X-44500000Y022160000D02*
G01*
X-44238579Y022185748D01*
G01*
X-43987204Y022262001D01*
G01*
X-43755536Y022385831D01*
G01*
X-43552477Y022552477D01*
G01*
X-43385831Y022755536D01*
G01*
X-43262001Y022987204D01*
G01*
X-43185748Y023238579D01*
G01*
X-43160000Y023500000D01*
G01*
X-43185748Y023761421D01*
G01*
X-43262001Y024012796D01*
G01*
X-43385831Y024244464D01*
G01*
X-43552477Y024447523D01*
G01*
X-43755536Y024614169D01*
G01*
X-43987204Y024737999D01*
G01*
X-44238579Y024814252D01*
G01*
X-44500000Y024840000D01*
G01*
X-44761421Y024814252D01*
G01*
X-45012796Y024737999D01*
G01*
X-45244464Y024614169D01*
G01*
X-45447523Y024447523D01*
G01*
X-45614169Y024244464D01*
G01*
X-45737999Y024012796D01*
G01*
X-45814252Y023761421D01*
G01*
X-45840000Y023500000D01*
G01*
X-45814252Y023238579D01*
G01*
X-45737999Y022987204D01*
G01*
X-45614169Y022755536D01*
G01*
X-45447523Y022552477D01*
G01*
X-45244464Y022385831D01*
G01*
X-45012796Y022262001D01*
G01*
X-44761421Y022185748D01*
G01*
X-44500000Y022160000D01*
G37*
D34*
G36*
X-23400000Y022160000D02*
G01*
X-23138579Y022185748D01*
G01*
X-22887204Y022262001D01*
G01*
X-22655536Y022385831D01*
G01*
X-22452477Y022552477D01*
G01*
X-22285831Y022755536D01*
G01*
X-22162001Y022987204D01*
G01*
X-22085748Y023238579D01*
G01*
X-22060000Y023500000D01*
G01*
X-22085748Y023761421D01*
G01*
X-22162001Y024012796D01*
G01*
X-22285831Y024244464D01*
G01*
X-22452477Y024447523D01*
G01*
X-22655536Y024614169D01*
G01*
X-22887204Y024737999D01*
G01*
X-23138579Y024814252D01*
G01*
X-23400000Y024840000D01*
G01*
X-23661421Y024814252D01*
G01*
X-23912796Y024737999D01*
G01*
X-24144464Y024614169D01*
G01*
X-24347523Y024447523D01*
G01*
X-24514169Y024244464D01*
G01*
X-24637999Y024012796D01*
G01*
X-24714252Y023761421D01*
G01*
X-24740000Y023500000D01*
G01*
X-24714252Y023238579D01*
G01*
X-24637999Y022987204D01*
G01*
X-24514169Y022755536D01*
G01*
X-24347523Y022552477D01*
G01*
X-24144464Y022385831D01*
G01*
X-23912796Y022262001D01*
G01*
X-23661421Y022185748D01*
G01*
X-23400000Y022160000D01*
G37*
D34*
G36*
X-69620000Y021633500D02*
G01*
X-69327365Y021662322D01*
G01*
X-69045975Y021747681D01*
G01*
X-68786645Y021886296D01*
G01*
X-68559340Y022072840D01*
G01*
X-68372796Y022300145D01*
G01*
X-68234181Y022559475D01*
G01*
X-68148822Y022840865D01*
G01*
X-68120000Y023133500D01*
G01*
X-68148822Y023426135D01*
G01*
X-68234181Y023707525D01*
G01*
X-68372796Y023966855D01*
G01*
X-68559340Y024194160D01*
G01*
X-68786645Y024380704D01*
G01*
X-69045975Y024519319D01*
G01*
X-69327365Y024604678D01*
G01*
X-69620000Y024633500D01*
G01*
X-69912635Y024604678D01*
G01*
X-70194025Y024519319D01*
G01*
X-70453355Y024380704D01*
G01*
X-70680660Y024194160D01*
G01*
X-70867204Y023966855D01*
G01*
X-71005819Y023707525D01*
G01*
X-71091178Y023426135D01*
G01*
X-71120000Y023133500D01*
G01*
X-71091178Y022840865D01*
G01*
X-71005819Y022559475D01*
G01*
X-70867204Y022300145D01*
G01*
X-70680660Y022072840D01*
G01*
X-70453355Y021886296D01*
G01*
X-70194025Y021747681D01*
G01*
X-69912635Y021662322D01*
G01*
X-69620000Y021633500D01*
G37*
D34*
G36*
X-31260000Y-34370000D02*
G01*
X-29060000Y-34370000D01*
G01*
X-29060000Y-32629620D01*
G01*
X-12328128Y-15897748D01*
G01*
X-12287711Y-15848498D01*
G01*
X-12257677Y-15792310D01*
G01*
X-12239183Y-15731343D01*
G01*
X-12232938Y-15667938D01*
G01*
X-12232938Y-13367908D01*
G01*
X-12232000Y-13368000D01*
G01*
X-12153964Y-13360314D01*
G01*
X-12078927Y-13337552D01*
G01*
X-12009772Y-13300588D01*
G01*
X-11949157Y-13250843D01*
G01*
X-11899412Y-13190228D01*
G01*
X-11862448Y-13121073D01*
G01*
X-11839686Y-13046036D01*
G01*
X-11838514Y-13034133D01*
G01*
X-11634923Y-12830542D01*
G01*
X-08416322Y-12830542D01*
G01*
X-08431314Y-12879964D01*
G01*
X-08436536Y-12932988D01*
G01*
X-08439662Y-12943291D01*
G01*
X-12704810Y-17208439D01*
G01*
X-12745228Y-17257689D01*
G01*
X-12775261Y-17313877D01*
G01*
X-12793755Y-17374845D01*
G01*
X-12800000Y-17438249D01*
G01*
X-12800000Y-17567526D01*
G01*
X-12807588Y-17576772D01*
G01*
X-12844552Y-17645927D01*
G01*
X-12867314Y-17720964D01*
G01*
X-12875000Y-17799000D01*
G01*
X-12867314Y-17877036D01*
G01*
X-12844552Y-17952073D01*
G01*
X-12807588Y-18021228D01*
G01*
X-12757843Y-18081843D01*
G01*
X-12697228Y-18131588D01*
G01*
X-12628073Y-18168552D01*
G01*
X-12553036Y-18191314D01*
G01*
X-12475000Y-18199000D01*
G01*
X-12396964Y-18191314D01*
G01*
X-12321927Y-18168552D01*
G01*
X-12252772Y-18131588D01*
G01*
X-12192157Y-18081843D01*
G01*
X-12142412Y-18021228D01*
G01*
X-12105448Y-17952073D01*
G01*
X-12082686Y-17877036D01*
G01*
X-12075000Y-17799000D01*
G01*
X-12082686Y-17720964D01*
G01*
X-12105448Y-17645927D01*
G01*
X-12142412Y-17576772D01*
G01*
X-12147592Y-17570461D01*
G01*
X-07912850Y-13335719D01*
G01*
X-07885927Y-13327552D01*
G01*
X-07816772Y-13290588D01*
G01*
X-07756157Y-13240843D01*
G01*
X-07706412Y-13180228D01*
G01*
X-07669448Y-13111073D01*
G01*
X-07646686Y-13036036D01*
G01*
X-07639000Y-12958000D01*
G01*
X-07646686Y-12879964D01*
G01*
X-07661678Y-12830542D01*
G01*
X010026458Y-12830542D01*
G01*
X010089863Y-12824297D01*
G01*
X010150831Y-12805802D01*
G01*
X010207019Y-12775769D01*
G01*
X010256268Y-12735351D01*
G01*
X011670134Y-11321486D01*
G01*
X011682036Y-11320314D01*
G01*
X011757073Y-11297552D01*
G01*
X011826228Y-11260588D01*
G01*
X011886843Y-11210843D01*
G01*
X011936588Y-11150228D01*
G01*
X011973552Y-11081073D01*
G01*
X011996314Y-11006036D01*
G01*
X012004000Y-10928000D01*
G01*
X011996314Y-10849964D01*
G01*
X011973552Y-10774927D01*
G01*
X011936588Y-10705772D01*
G01*
X011886843Y-10645157D01*
G01*
X011826228Y-10595412D01*
G01*
X011757073Y-10558448D01*
G01*
X011682036Y-10535686D01*
G01*
X011604000Y-10528000D01*
G01*
X011525964Y-10535686D01*
G01*
X011450927Y-10558448D01*
G01*
X011381772Y-10595412D01*
G01*
X011321157Y-10645157D01*
G01*
X011271412Y-10705772D01*
G01*
X011234448Y-10774927D01*
G01*
X011211686Y-10849964D01*
G01*
X011210514Y-10861866D01*
G01*
X009891839Y-12180542D01*
G01*
X-11740436Y-12180542D01*
G01*
X-11769542Y-12180542D01*
G01*
X-11832946Y-12186786D01*
G01*
X-11893914Y-12205281D01*
G01*
X-11950102Y-12235314D01*
G01*
X-11999351Y-12275732D01*
G01*
X-12232938Y-12509318D01*
G01*
X-12232938Y-12136112D01*
G01*
X-10610112Y-12136112D01*
G01*
X-10546708Y-12129867D01*
G01*
X-10485740Y-12111373D01*
G01*
X-10429552Y-12081340D01*
G01*
X-10380302Y-12040922D01*
G01*
X-04464867Y-06125486D01*
G01*
X-04452964Y-06124314D01*
G01*
X-04377927Y-06101552D01*
G01*
X-04308772Y-06064588D01*
G01*
X-04248157Y-06014843D01*
G01*
X-04198412Y-05954228D01*
G01*
X-04161448Y-05885073D01*
G01*
X-04138686Y-05810036D01*
G01*
X-04131000Y-05732000D01*
G01*
X-04138686Y-05653964D01*
G01*
X-04161448Y-05578927D01*
G01*
X-04198412Y-05509772D01*
G01*
X-04248157Y-05449157D01*
G01*
X-04308772Y-05399412D01*
G01*
X-04377927Y-05362448D01*
G01*
X-04452964Y-05339686D01*
G01*
X-04531000Y-05332000D01*
G01*
X-04609036Y-05339686D01*
G01*
X-04684073Y-05362448D01*
G01*
X-04753228Y-05399412D01*
G01*
X-04813843Y-05449157D01*
G01*
X-04863588Y-05509772D01*
G01*
X-04900552Y-05578927D01*
G01*
X-04923314Y-05653964D01*
G01*
X-04924486Y-05665867D01*
G01*
X-10744732Y-11486112D01*
G01*
X-12557938Y-11486112D01*
G01*
X-12621343Y-11492357D01*
G01*
X-12682310Y-11510851D01*
G01*
X-12738498Y-11540885D01*
G01*
X-12787748Y-11581302D01*
G01*
X-12828166Y-11630552D01*
G01*
X-12858199Y-11686740D01*
G01*
X-12876693Y-11747708D01*
G01*
X-12882938Y-11811112D01*
G01*
X-12882938Y-15533318D01*
G01*
X-29060000Y-31710380D01*
G01*
X-29060000Y-30089620D01*
G01*
X-13120393Y-14150013D01*
G01*
X-13079975Y-14100763D01*
G01*
X-13049942Y-14044575D01*
G01*
X-13031448Y-13983607D01*
G01*
X-13025203Y-13920203D01*
G01*
X-13025203Y-07942950D01*
G01*
X-13025203Y-05840423D01*
G01*
X-06517201Y000667579D01*
G01*
X-06505964Y000668686D01*
G01*
X-06430927Y000691448D01*
G01*
X-06361772Y000728412D01*
G01*
X-06301157Y000778157D01*
G01*
X-06278078Y000806279D01*
G01*
X004094000Y-09565800D01*
G01*
X004094000Y-09796526D01*
G01*
X004086412Y-09805772D01*
G01*
X004049448Y-09874927D01*
G01*
X004026686Y-09949964D01*
G01*
X004019000Y-10028000D01*
G01*
X004026686Y-10106036D01*
G01*
X004049448Y-10181073D01*
G01*
X004086412Y-10250228D01*
G01*
X004136157Y-10310843D01*
G01*
X004196772Y-10360588D01*
G01*
X004265927Y-10397552D01*
G01*
X004334958Y-10418492D01*
G01*
X004290412Y-10472772D01*
G01*
X004253448Y-10541927D01*
G01*
X004230686Y-10616964D01*
G01*
X004223000Y-10695000D01*
G01*
X004230686Y-10773036D01*
G01*
X004253448Y-10848073D01*
G01*
X004290412Y-10917228D01*
G01*
X004340157Y-10977843D01*
G01*
X004400772Y-11027588D01*
G01*
X004469927Y-11064552D01*
G01*
X004544964Y-11087314D01*
G01*
X004623000Y-11095000D01*
G01*
X004701036Y-11087314D01*
G01*
X004776073Y-11064552D01*
G01*
X004845228Y-11027588D01*
G01*
X004905843Y-10977843D01*
G01*
X004955588Y-10917228D01*
G01*
X004992552Y-10848073D01*
G01*
X005015314Y-10773036D01*
G01*
X005016486Y-10761133D01*
G01*
X005208097Y-10569522D01*
G01*
X005248515Y-10520273D01*
G01*
X005278549Y-10464084D01*
G01*
X005297043Y-10403117D01*
G01*
X005303288Y-10339712D01*
G01*
X005303288Y-09487182D01*
G01*
X005324588Y-09461228D01*
G01*
X005361552Y-09392073D01*
G01*
X005384314Y-09317036D01*
G01*
X005392000Y-09239000D01*
G01*
X005384314Y-09160964D01*
G01*
X005361552Y-09085927D01*
G01*
X005324588Y-09016772D01*
G01*
X005274843Y-08956157D01*
G01*
X005214228Y-08906412D01*
G01*
X005145073Y-08869448D01*
G01*
X005070036Y-08846686D01*
G01*
X004992000Y-08839000D01*
G01*
X004913964Y-08846686D01*
G01*
X004838927Y-08869448D01*
G01*
X004769772Y-08906412D01*
G01*
X004709157Y-08956157D01*
G01*
X004659412Y-09016772D01*
G01*
X004622448Y-09085927D01*
G01*
X004601715Y-09154275D01*
G01*
X-01645774Y-02906787D01*
G01*
X-01644036Y-02907314D01*
G01*
X-01566000Y-02915000D01*
G01*
X-01487964Y-02907314D01*
G01*
X-01412927Y-02884552D01*
G01*
X-01343772Y-02847588D01*
G01*
X-01283157Y-02797843D01*
G01*
X-01233412Y-02737228D01*
G01*
X-01196448Y-02668073D01*
G01*
X-01173686Y-02593036D01*
G01*
X-01172514Y-02581134D01*
G01*
X017194083Y015785464D01*
G01*
X017234501Y015834713D01*
G01*
X017247232Y015858531D01*
G01*
X017292893Y015802893D01*
G01*
X017444430Y015678530D01*
G01*
X017617317Y015586120D01*
G01*
X017804910Y015529215D01*
G01*
X018000000Y015510000D01*
G01*
X018195090Y015529215D01*
G01*
X018382683Y015586120D01*
G01*
X018555570Y015678530D01*
G01*
X018707107Y015802893D01*
G01*
X018831470Y015954430D01*
G01*
X018923880Y016127317D01*
G01*
X018980785Y016314910D01*
G01*
X019000000Y016510000D01*
G01*
X018980785Y016705090D01*
G01*
X018923880Y016892683D01*
G01*
X018831470Y017065570D01*
G01*
X018707107Y017217107D01*
G01*
X018555570Y017341470D01*
G01*
X018382683Y017433880D01*
G01*
X018195090Y017490785D01*
G01*
X018000000Y017510000D01*
G01*
X017804910Y017490785D01*
G01*
X017617317Y017433880D01*
G01*
X017444430Y017341470D01*
G01*
X017292893Y017217107D01*
G01*
X017289273Y017212696D01*
G01*
X017289273Y018347304D01*
G01*
X017292893Y018342893D01*
G01*
X017444430Y018218530D01*
G01*
X017617317Y018126120D01*
G01*
X017804910Y018069215D01*
G01*
X018000000Y018050000D01*
G01*
X018195090Y018069215D01*
G01*
X018382683Y018126120D01*
G01*
X018555570Y018218530D01*
G01*
X018707107Y018342893D01*
G01*
X018831470Y018494430D01*
G01*
X018923880Y018667317D01*
G01*
X018980785Y018854910D01*
G01*
X019000000Y019050000D01*
G01*
X018980785Y019245090D01*
G01*
X018923880Y019432683D01*
G01*
X018831470Y019605570D01*
G01*
X018707107Y019757107D01*
G01*
X018555570Y019881470D01*
G01*
X018382683Y019973880D01*
G01*
X018195090Y020030785D01*
G01*
X018000000Y020050000D01*
G01*
X017804910Y020030785D01*
G01*
X017617317Y019973880D01*
G01*
X017444430Y019881470D01*
G01*
X017292893Y019757107D01*
G01*
X017289273Y019752696D01*
G01*
X017289273Y020419654D01*
G01*
X017564155Y020694536D01*
G01*
X017617317Y020666120D01*
G01*
X017804910Y020609215D01*
G01*
X018000000Y020590000D01*
G01*
X018195090Y020609215D01*
G01*
X018382683Y020666120D01*
G01*
X018555570Y020758530D01*
G01*
X018707107Y020882893D01*
G01*
X018831470Y021034430D01*
G01*
X018923880Y021207317D01*
G01*
X018980785Y021394910D01*
G01*
X019000000Y021590000D01*
G01*
X018980785Y021785090D01*
G01*
X018923880Y021972683D01*
G01*
X018831470Y022145570D01*
G01*
X018707107Y022297107D01*
G01*
X018555570Y022421470D01*
G01*
X018382683Y022513880D01*
G01*
X018195090Y022570785D01*
G01*
X018000000Y022590000D01*
G01*
X017804910Y022570785D01*
G01*
X017617317Y022513880D01*
G01*
X017444430Y022421470D01*
G01*
X017292893Y022297107D01*
G01*
X017168530Y022145570D01*
G01*
X017076120Y021972683D01*
G01*
X017019215Y021785090D01*
G01*
X017000000Y021590000D01*
G01*
X017019215Y021394910D01*
G01*
X017076120Y021207317D01*
G01*
X017104536Y021154155D01*
G01*
X016734464Y020784083D01*
G01*
X016694046Y020734834D01*
G01*
X016664012Y020678645D01*
G01*
X016645518Y020617678D01*
G01*
X016639273Y020554273D01*
G01*
X016639273Y016149892D01*
G01*
X-01632134Y-02121514D01*
G01*
X-01644036Y-02122686D01*
G01*
X-01719073Y-02145448D01*
G01*
X-01788228Y-02182412D01*
G01*
X-01848843Y-02232157D01*
G01*
X-01898588Y-02292772D01*
G01*
X-01935552Y-02361927D01*
G01*
X-01958314Y-02436964D01*
G01*
X-01966000Y-02515000D01*
G01*
X-01958314Y-02593036D01*
G01*
X-01957787Y-02594774D01*
G01*
X-06241406Y001688845D01*
G01*
X-06290655Y001729263D01*
G01*
X-06346843Y001759296D01*
G01*
X-06407811Y001777791D01*
G01*
X-06471215Y001784036D01*
G01*
X-15320419Y001784036D01*
G01*
X-15681060Y002144676D01*
G01*
X-15681686Y002151036D01*
G01*
X-15704448Y002226073D01*
G01*
X-15741412Y002295228D01*
G01*
X-15791157Y002355843D01*
G01*
X-15851772Y002405588D01*
G01*
X-15920927Y002442552D01*
G01*
X-15995964Y002465314D01*
G01*
X-16074000Y002473000D01*
G01*
X-16152036Y002465314D01*
G01*
X-16227073Y002442552D01*
G01*
X-16296228Y002405588D01*
G01*
X-16356843Y002355843D01*
G01*
X-16406588Y002295228D01*
G01*
X-16443552Y002226073D01*
G01*
X-16466314Y002151036D01*
G01*
X-16474000Y002073000D01*
G01*
X-16466314Y001994964D01*
G01*
X-16443552Y001919927D01*
G01*
X-16406588Y001850772D01*
G01*
X-16356843Y001790157D01*
G01*
X-16296228Y001740412D01*
G01*
X-16227073Y001703448D01*
G01*
X-16152036Y001680686D01*
G01*
X-16134590Y001678968D01*
G01*
X-15684848Y001229226D01*
G01*
X-15635598Y001188808D01*
G01*
X-15579410Y001158775D01*
G01*
X-15518442Y001140280D01*
G01*
X-15455038Y001134036D01*
G01*
X-06976806Y001134036D01*
G01*
X-06977552Y001126467D01*
G01*
X-13580013Y-05475994D01*
G01*
X-13620430Y-05525243D01*
G01*
X-13650464Y-05581431D01*
G01*
X-13668958Y-05642399D01*
G01*
X-13675203Y-05705804D01*
G01*
X-13675203Y-07942950D01*
G01*
X-13675203Y-13785583D01*
G01*
X-29060000Y-29170380D01*
G01*
X-29060000Y-27549620D01*
G01*
X-25535873Y-24025493D01*
G01*
X-25495455Y-23976243D01*
G01*
X-25465422Y-23920055D01*
G01*
X-25446928Y-23859087D01*
G01*
X-25440683Y-23795683D01*
G01*
X-25440683Y-20495147D01*
G01*
X-25419412Y-20469228D01*
G01*
X-25382448Y-20400073D01*
G01*
X-25359686Y-20325036D01*
G01*
X-25352000Y-20247000D01*
G01*
X-25359686Y-20168964D01*
G01*
X-25382448Y-20093927D01*
G01*
X-25419412Y-20024772D01*
G01*
X-25469157Y-19964157D01*
G01*
X-25529772Y-19914412D01*
G01*
X-25598927Y-19877448D01*
G01*
X-25673964Y-19854686D01*
G01*
X-25752000Y-19847000D01*
G01*
X-25830036Y-19854686D01*
G01*
X-25905073Y-19877448D01*
G01*
X-25974228Y-19914412D01*
G01*
X-26034843Y-19964157D01*
G01*
X-26084588Y-20024772D01*
G01*
X-26121552Y-20093927D01*
G01*
X-26144314Y-20168964D01*
G01*
X-26152000Y-20247000D01*
G01*
X-26144314Y-20325036D01*
G01*
X-26121552Y-20400073D01*
G01*
X-26090683Y-20457825D01*
G01*
X-26090683Y-23661063D01*
G01*
X-29060000Y-26630380D01*
G01*
X-29060000Y-24550000D01*
G01*
X-31260000Y-24550000D01*
G01*
X-31260000Y-26750000D01*
G01*
X-29179620Y-26750000D01*
G01*
X-29519620Y-27090000D01*
G01*
X-31260000Y-27090000D01*
G01*
X-31260000Y-29290000D01*
G01*
X-29179620Y-29290000D01*
G01*
X-29519620Y-29630000D01*
G01*
X-31260000Y-29630000D01*
G01*
X-31260000Y-31830000D01*
G01*
X-29179620Y-31830000D01*
G01*
X-29519620Y-32170000D01*
G01*
X-31260000Y-32170000D01*
G01*
X-31260000Y-34370000D01*
G37*
D34*
G36*
X067020000Y018750000D02*
G01*
X069520000Y018750000D01*
G01*
X069520000Y021250000D01*
G01*
X067020000Y021250000D01*
G01*
X067020000Y018750000D01*
G37*
D34*
G36*
X040860000Y018050000D02*
G01*
X041055090Y018069215D01*
G01*
X041242683Y018126120D01*
G01*
X041415570Y018218530D01*
G01*
X041567107Y018342893D01*
G01*
X041691470Y018494430D01*
G01*
X041783880Y018667317D01*
G01*
X041840785Y018854910D01*
G01*
X041860000Y019050000D01*
G01*
X041840785Y019245090D01*
G01*
X041783880Y019432683D01*
G01*
X041691470Y019605570D01*
G01*
X041567107Y019757107D01*
G01*
X041415570Y019881470D01*
G01*
X041242683Y019973880D01*
G01*
X041055090Y020030785D01*
G01*
X040860000Y020050000D01*
G01*
X040664910Y020030785D01*
G01*
X040477317Y019973880D01*
G01*
X040304430Y019881470D01*
G01*
X040152893Y019757107D01*
G01*
X040028530Y019605570D01*
G01*
X039936120Y019432683D01*
G01*
X039879215Y019245090D01*
G01*
X039860000Y019050000D01*
G01*
X039879215Y018854910D01*
G01*
X039936120Y018667317D01*
G01*
X040028530Y018494430D01*
G01*
X040152893Y018342893D01*
G01*
X040304430Y018218530D01*
G01*
X040477317Y018126120D01*
G01*
X040664910Y018069215D01*
G01*
X040860000Y018050000D01*
G37*
D34*
G36*
X-66290000Y015750000D02*
G01*
X-62790000Y015750000D01*
G01*
X-62790000Y019250000D01*
G01*
X-66290000Y019250000D01*
G01*
X-66290000Y015750000D01*
G37*
D34*
G36*
X-30780147Y-01830853D02*
G01*
X-24479517Y-01830853D01*
G01*
X-24416113Y-01824609D01*
G01*
X-24355145Y-01806114D01*
G01*
X-24298957Y-01776081D01*
G01*
X-24249707Y-01735663D01*
G01*
X-12087044Y010427000D01*
G01*
X007210526Y010427000D01*
G01*
X007219772Y010419412D01*
G01*
X007288927Y010382448D01*
G01*
X007363964Y010359686D01*
G01*
X007442000Y010352000D01*
G01*
X007489238Y010356653D01*
G01*
X007489238Y009964857D01*
G01*
X004363866Y006839486D01*
G01*
X004351964Y006838314D01*
G01*
X004276927Y006815552D01*
G01*
X004207772Y006778588D01*
G01*
X004147157Y006728843D01*
G01*
X004097412Y006668228D01*
G01*
X004060448Y006599073D01*
G01*
X004037686Y006524036D01*
G01*
X004030000Y006446000D01*
G01*
X004037686Y006367964D01*
G01*
X004060448Y006292927D01*
G01*
X004097412Y006223772D01*
G01*
X004147157Y006163157D01*
G01*
X004207772Y006113412D01*
G01*
X004276927Y006076448D01*
G01*
X004351964Y006053686D01*
G01*
X004430000Y006046000D01*
G01*
X004508036Y006053686D01*
G01*
X004583073Y006076448D01*
G01*
X004652228Y006113412D01*
G01*
X004712843Y006163157D01*
G01*
X004762588Y006223772D01*
G01*
X004799552Y006292927D01*
G01*
X004822314Y006367964D01*
G01*
X004823486Y006379866D01*
G01*
X008044048Y009600429D01*
G01*
X008084466Y009649678D01*
G01*
X008114499Y009705866D01*
G01*
X008132994Y009766834D01*
G01*
X008139238Y009830238D01*
G01*
X008139238Y017238151D01*
G01*
X008139238Y017254762D01*
G01*
X008132994Y017318166D01*
G01*
X008114499Y017379134D01*
G01*
X008084466Y017435322D01*
G01*
X008078304Y017442830D01*
G01*
X008076314Y017463036D01*
G01*
X008053552Y017538073D01*
G01*
X008016588Y017607228D01*
G01*
X007966843Y017667843D01*
G01*
X007906228Y017717588D01*
G01*
X007837073Y017754552D01*
G01*
X007762036Y017777314D01*
G01*
X007684000Y017785000D01*
G01*
X007605964Y017777314D01*
G01*
X007530927Y017754552D01*
G01*
X007461772Y017717588D01*
G01*
X007401157Y017667843D01*
G01*
X007351412Y017607228D01*
G01*
X007314448Y017538073D01*
G01*
X007291686Y017463036D01*
G01*
X007284000Y017385000D01*
G01*
X007291686Y017306964D01*
G01*
X007314448Y017231927D01*
G01*
X007351412Y017162772D01*
G01*
X007401157Y017102157D01*
G01*
X007461772Y017052412D01*
G01*
X007489238Y017037731D01*
G01*
X007489238Y011147347D01*
G01*
X007442000Y011152000D01*
G01*
X007363964Y011144314D01*
G01*
X007288927Y011121552D01*
G01*
X007219772Y011084588D01*
G01*
X007210526Y011077000D01*
G01*
X-12221664Y011077000D01*
G01*
X-12285068Y011070755D01*
G01*
X-12346036Y011052261D01*
G01*
X-12402224Y011022228D01*
G01*
X-12451473Y010981810D01*
G01*
X-19002000Y004431283D01*
G01*
X-19002000Y010790765D01*
G01*
X-19008245Y010854170D01*
G01*
X-19026739Y010915137D01*
G01*
X-19056772Y010971326D01*
G01*
X-19097190Y011020575D01*
G01*
X-25391505Y017314889D01*
G01*
X-25393686Y017337036D01*
G01*
X-25416448Y017412073D01*
G01*
X-25453412Y017481228D01*
G01*
X-25503157Y017541843D01*
G01*
X-25563772Y017591588D01*
G01*
X-25632927Y017628552D01*
G01*
X-25707964Y017651314D01*
G01*
X-25786000Y017659000D01*
G01*
X-25864036Y017651314D01*
G01*
X-25939073Y017628552D01*
G01*
X-26008228Y017591588D01*
G01*
X-26068843Y017541843D01*
G01*
X-26118588Y017481228D01*
G01*
X-26155552Y017412073D01*
G01*
X-26178314Y017337036D01*
G01*
X-26186000Y017259000D01*
G01*
X-26178314Y017180964D01*
G01*
X-26155552Y017105927D01*
G01*
X-26118588Y017036772D01*
G01*
X-26068843Y016976157D01*
G01*
X-26008228Y016926412D01*
G01*
X-25939073Y016889448D01*
G01*
X-25864036Y016866686D01*
G01*
X-25862377Y016866523D01*
G01*
X-19652000Y010656146D01*
G01*
X-19652000Y004384474D01*
G01*
X-19659588Y004375228D01*
G01*
X-19696552Y004306073D01*
G01*
X-19719314Y004231036D01*
G01*
X-19727000Y004153000D01*
G01*
X-19719314Y004074964D01*
G01*
X-19696552Y003999927D01*
G01*
X-19659588Y003930772D01*
G01*
X-19609843Y003870157D01*
G01*
X-19584184Y003849099D01*
G01*
X-20434270Y002999013D01*
G01*
X-20443157Y003009843D01*
G01*
X-20503772Y003059588D01*
G01*
X-20572927Y003096552D01*
G01*
X-20647964Y003119314D01*
G01*
X-20726000Y003127000D01*
G01*
X-20804036Y003119314D01*
G01*
X-20879073Y003096552D01*
G01*
X-20948228Y003059588D01*
G01*
X-20957474Y003052000D01*
G01*
X-25723277Y003052000D01*
G01*
X-34581743Y011910466D01*
G01*
X-34582686Y011920036D01*
G01*
X-34605448Y011995073D01*
G01*
X-34642412Y012064228D01*
G01*
X-34692157Y012124843D01*
G01*
X-34752772Y012174588D01*
G01*
X-34821927Y012211552D01*
G01*
X-34896964Y012234314D01*
G01*
X-34975000Y012242000D01*
G01*
X-35053036Y012234314D01*
G01*
X-35128073Y012211552D01*
G01*
X-35197228Y012174588D01*
G01*
X-35257843Y012124843D01*
G01*
X-35307588Y012064228D01*
G01*
X-35344552Y011995073D01*
G01*
X-35367314Y011920036D01*
G01*
X-35375000Y011842000D01*
G01*
X-35367314Y011763964D01*
G01*
X-35344552Y011688927D01*
G01*
X-35307588Y011619772D01*
G01*
X-35257843Y011559157D01*
G01*
X-35197228Y011509412D01*
G01*
X-35128073Y011472448D01*
G01*
X-35053036Y011449686D01*
G01*
X-35038801Y011448284D01*
G01*
X-26087707Y002497190D01*
G01*
X-26038457Y002456772D01*
G01*
X-25982269Y002426739D01*
G01*
X-25921301Y002408245D01*
G01*
X-25857897Y002402000D01*
G01*
X-21031283Y002402000D01*
G01*
X-24614136Y-01180853D01*
G01*
X-30645528Y-01180853D01*
G01*
X-32028514Y000202133D01*
G01*
X-32029686Y000214036D01*
G01*
X-32052448Y000289073D01*
G01*
X-32089412Y000358228D01*
G01*
X-32139157Y000418843D01*
G01*
X-32199772Y000468588D01*
G01*
X-32268927Y000505552D01*
G01*
X-32343964Y000528314D01*
G01*
X-32422000Y000536000D01*
G01*
X-32500036Y000528314D01*
G01*
X-32575073Y000505552D01*
G01*
X-32644228Y000468588D01*
G01*
X-32704843Y000418843D01*
G01*
X-32754588Y000358228D01*
G01*
X-32791552Y000289073D01*
G01*
X-32814314Y000214036D01*
G01*
X-32822000Y000136000D01*
G01*
X-32814314Y000057964D01*
G01*
X-32791552Y-00017073D01*
G01*
X-32754588Y-00086228D01*
G01*
X-32704843Y-00146843D01*
G01*
X-32644228Y-00196588D01*
G01*
X-32575073Y-00233552D01*
G01*
X-32500036Y-00256314D01*
G01*
X-32488133Y-00257486D01*
G01*
X-31009956Y-01735663D01*
G01*
X-30960707Y-01776081D01*
G01*
X-30904519Y-01806114D01*
G01*
X-30843551Y-01824609D01*
G01*
X-30780147Y-01830853D01*
G37*
D34*
G36*
X040860000Y015510000D02*
G01*
X041055090Y015529215D01*
G01*
X041242683Y015586120D01*
G01*
X041415570Y015678530D01*
G01*
X041567107Y015802893D01*
G01*
X041691470Y015954430D01*
G01*
X041783880Y016127317D01*
G01*
X041840785Y016314910D01*
G01*
X041860000Y016510000D01*
G01*
X041840785Y016705090D01*
G01*
X041783880Y016892683D01*
G01*
X041691470Y017065570D01*
G01*
X041567107Y017217107D01*
G01*
X041415570Y017341470D01*
G01*
X041242683Y017433880D01*
G01*
X041055090Y017490785D01*
G01*
X040860000Y017510000D01*
G01*
X040664910Y017490785D01*
G01*
X040477317Y017433880D01*
G01*
X040304430Y017341470D01*
G01*
X040152893Y017217107D01*
G01*
X040028530Y017065570D01*
G01*
X039936120Y016892683D01*
G01*
X039879215Y016705090D01*
G01*
X039860000Y016510000D01*
G01*
X039879215Y016314910D01*
G01*
X039936120Y016127317D01*
G01*
X040028530Y015954430D01*
G01*
X040152893Y015802893D01*
G01*
X040304430Y015678530D01*
G01*
X040477317Y015586120D01*
G01*
X040664910Y015529215D01*
G01*
X040860000Y015510000D01*
G37*
D34*
G36*
X040860000Y-12430000D02*
G01*
X041055090Y-12410785D01*
G01*
X041242683Y-12353880D01*
G01*
X041415570Y-12261470D01*
G01*
X041567107Y-12137107D01*
G01*
X041691470Y-11985570D01*
G01*
X041783880Y-11812683D01*
G01*
X041840785Y-11625090D01*
G01*
X041860000Y-11430000D01*
G01*
X041840785Y-11234910D01*
G01*
X041783880Y-11047317D01*
G01*
X041755465Y-10994155D01*
G01*
X044717000Y-08032619D01*
G01*
X044717000Y-08574614D01*
G01*
X044723245Y-08638019D01*
G01*
X044741739Y-08698986D01*
G01*
X044771772Y-08755175D01*
G01*
X044781904Y-08767520D01*
G01*
X044779000Y-08797000D01*
G01*
X044786686Y-08875036D01*
G01*
X044809448Y-08950073D01*
G01*
X044846412Y-09019228D01*
G01*
X044896157Y-09079843D01*
G01*
X044956772Y-09129588D01*
G01*
X045025927Y-09166552D01*
G01*
X045100964Y-09189314D01*
G01*
X045179000Y-09197000D01*
G01*
X045257036Y-09189314D01*
G01*
X045332073Y-09166552D01*
G01*
X045401228Y-09129588D01*
G01*
X045461843Y-09079843D01*
G01*
X045511588Y-09019228D01*
G01*
X045548552Y-08950073D01*
G01*
X045571314Y-08875036D01*
G01*
X045579000Y-08797000D01*
G01*
X045571314Y-08718964D01*
G01*
X045548552Y-08643927D01*
G01*
X045511588Y-08574772D01*
G01*
X045461843Y-08514157D01*
G01*
X045401228Y-08464412D01*
G01*
X045377039Y-08451483D01*
G01*
X045370409Y-08443404D01*
G01*
X045367000Y-08439995D01*
G01*
X045367000Y-06696474D01*
G01*
X045374588Y-06687228D01*
G01*
X045411552Y-06618073D01*
G01*
X045434314Y-06543036D01*
G01*
X045442000Y-06465000D01*
G01*
X045434314Y-06386964D01*
G01*
X045411552Y-06311927D01*
G01*
X045374588Y-06242772D01*
G01*
X045324843Y-06182157D01*
G01*
X045264228Y-06132412D01*
G01*
X045195073Y-06095448D01*
G01*
X045120036Y-06072686D01*
G01*
X045042000Y-06065000D01*
G01*
X045028585Y-06066321D01*
G01*
X045028585Y007878712D01*
G01*
X050985262Y013835389D01*
G01*
X050969245Y013782585D01*
G01*
X050963000Y013719181D01*
G01*
X050963000Y005888474D01*
G01*
X050955412Y005879228D01*
G01*
X050918448Y005810073D01*
G01*
X050895686Y005735036D01*
G01*
X050888000Y005657000D01*
G01*
X050895686Y005578964D01*
G01*
X050918448Y005503927D01*
G01*
X050955412Y005434772D01*
G01*
X051005157Y005374157D01*
G01*
X051065772Y005324412D01*
G01*
X051134927Y005287448D01*
G01*
X051209964Y005264686D01*
G01*
X051288000Y005257000D01*
G01*
X051366036Y005264686D01*
G01*
X051441073Y005287448D01*
G01*
X051510228Y005324412D01*
G01*
X051570843Y005374157D01*
G01*
X051620588Y005434772D01*
G01*
X051657552Y005503927D01*
G01*
X051680314Y005578964D01*
G01*
X051688000Y005657000D01*
G01*
X051680314Y005735036D01*
G01*
X051657552Y005810073D01*
G01*
X051620588Y005879228D01*
G01*
X051613000Y005888474D01*
G01*
X051613000Y013584561D01*
G01*
X051990260Y013961821D01*
G01*
X052045073Y013978448D01*
G01*
X052114228Y014015412D01*
G01*
X052174843Y014065157D01*
G01*
X052224588Y014125772D01*
G01*
X052261552Y014194927D01*
G01*
X052284314Y014269964D01*
G01*
X052292000Y014348000D01*
G01*
X052284314Y014426036D01*
G01*
X052261552Y014501073D01*
G01*
X052224588Y014570228D01*
G01*
X052174843Y014630843D01*
G01*
X052114228Y014680588D01*
G01*
X052045073Y014717552D01*
G01*
X051970036Y014740314D01*
G01*
X051897347Y014747473D01*
G01*
X053656490Y016506616D01*
G01*
X053656966Y016506663D01*
G01*
X053684000Y016504000D01*
G01*
X053762036Y016511686D01*
G01*
X053837073Y016534448D01*
G01*
X053906228Y016571412D01*
G01*
X053966843Y016621157D01*
G01*
X054016588Y016681772D01*
G01*
X054053552Y016750927D01*
G01*
X054076314Y016825964D01*
G01*
X054084000Y016904000D01*
G01*
X054076314Y016982036D01*
G01*
X054053552Y017057073D01*
G01*
X054016588Y017126228D01*
G01*
X053966843Y017186843D01*
G01*
X053906228Y017236588D01*
G01*
X053837073Y017273552D01*
G01*
X053762036Y017296314D01*
G01*
X053684000Y017304000D01*
G01*
X053605964Y017296314D01*
G01*
X053530927Y017273552D01*
G01*
X053461772Y017236588D01*
G01*
X053401157Y017186843D01*
G01*
X053351412Y017126228D01*
G01*
X053335251Y017095992D01*
G01*
X053287157Y017056523D01*
G01*
X044473775Y008243141D01*
G01*
X044433357Y008193891D01*
G01*
X044403324Y008137703D01*
G01*
X044384830Y008076735D01*
G01*
X044378585Y008013331D01*
G01*
X044378585Y007977636D01*
G01*
X044378585Y-07451796D01*
G01*
X041295845Y-10534535D01*
G01*
X041242683Y-10506120D01*
G01*
X041055090Y-10449215D01*
G01*
X040860000Y-10430000D01*
G01*
X040664910Y-10449215D01*
G01*
X040477317Y-10506120D01*
G01*
X040304430Y-10598530D01*
G01*
X040152893Y-10722893D01*
G01*
X040028530Y-10874430D01*
G01*
X039936120Y-11047317D01*
G01*
X039879215Y-11234910D01*
G01*
X039860000Y-11430000D01*
G01*
X039879215Y-11625090D01*
G01*
X039936120Y-11812683D01*
G01*
X040028530Y-11985570D01*
G01*
X040152893Y-12137107D01*
G01*
X040304430Y-12261470D01*
G01*
X040477317Y-12353880D01*
G01*
X040664910Y-12410785D01*
G01*
X040860000Y-12430000D01*
G37*
D34*
G36*
X058000000Y009200000D02*
G01*
X058078036Y009207686D01*
G01*
X058153073Y009230448D01*
G01*
X058222228Y009267412D01*
G01*
X058282843Y009317157D01*
G01*
X058332588Y009377772D01*
G01*
X058369552Y009446927D01*
G01*
X058392314Y009521964D01*
G01*
X058400000Y009600000D01*
G01*
X058392314Y009678036D01*
G01*
X058369552Y009753073D01*
G01*
X058332588Y009822228D01*
G01*
X058325000Y009831474D01*
G01*
X058325000Y016568526D01*
G01*
X058332588Y016577772D01*
G01*
X058369552Y016646927D01*
G01*
X058392314Y016721964D01*
G01*
X058400000Y016800000D01*
G01*
X058392314Y016878036D01*
G01*
X058369552Y016953073D01*
G01*
X058332588Y017022228D01*
G01*
X058282843Y017082843D01*
G01*
X058222228Y017132588D01*
G01*
X058153073Y017169552D01*
G01*
X058078036Y017192314D01*
G01*
X058000000Y017200000D01*
G01*
X057921964Y017192314D01*
G01*
X057846927Y017169552D01*
G01*
X057777772Y017132588D01*
G01*
X057717157Y017082843D01*
G01*
X057667412Y017022228D01*
G01*
X057630448Y016953073D01*
G01*
X057607686Y016878036D01*
G01*
X057600000Y016800000D01*
G01*
X057607686Y016721964D01*
G01*
X057630448Y016646927D01*
G01*
X057667412Y016577772D01*
G01*
X057675000Y016568526D01*
G01*
X057675000Y009831474D01*
G01*
X057667412Y009822228D01*
G01*
X057630448Y009753073D01*
G01*
X057607686Y009678036D01*
G01*
X057600000Y009600000D01*
G01*
X057607686Y009521964D01*
G01*
X057630448Y009446927D01*
G01*
X057667412Y009377772D01*
G01*
X057717157Y009317157D01*
G01*
X057777772Y009267412D01*
G01*
X057846927Y009230448D01*
G01*
X057921964Y009207686D01*
G01*
X058000000Y009200000D01*
G37*
D34*
G36*
X-77500000Y014000000D02*
G01*
X-75500000Y014000000D01*
G01*
X-75500000Y016000000D01*
G01*
X-77500000Y016000000D01*
G01*
X-77500000Y014000000D01*
G37*
D34*
G36*
X018000000Y012970000D02*
G01*
X018195090Y012989215D01*
G01*
X018382683Y013046120D01*
G01*
X018555570Y013138530D01*
G01*
X018707107Y013262893D01*
G01*
X018831470Y013414430D01*
G01*
X018923880Y013587317D01*
G01*
X018980785Y013774910D01*
G01*
X019000000Y013970000D01*
G01*
X018980785Y014165090D01*
G01*
X018923880Y014352683D01*
G01*
X018831470Y014525570D01*
G01*
X018707107Y014677107D01*
G01*
X018555570Y014801470D01*
G01*
X018382683Y014893880D01*
G01*
X018195090Y014950785D01*
G01*
X018000000Y014970000D01*
G01*
X017804910Y014950785D01*
G01*
X017617317Y014893880D01*
G01*
X017444430Y014801470D01*
G01*
X017292893Y014677107D01*
G01*
X017168530Y014525570D01*
G01*
X017076120Y014352683D01*
G01*
X017019215Y014165090D01*
G01*
X017000000Y013970000D01*
G01*
X017019215Y013774910D01*
G01*
X017076120Y013587317D01*
G01*
X017168530Y013414430D01*
G01*
X017292893Y013262893D01*
G01*
X017444430Y013138530D01*
G01*
X017617317Y013046120D01*
G01*
X017804910Y012989215D01*
G01*
X018000000Y012970000D01*
G37*
D34*
G36*
X040860000Y012970000D02*
G01*
X041055090Y012989215D01*
G01*
X041242683Y013046120D01*
G01*
X041415570Y013138530D01*
G01*
X041567107Y013262893D01*
G01*
X041691470Y013414430D01*
G01*
X041783880Y013587317D01*
G01*
X041840785Y013774910D01*
G01*
X041860000Y013970000D01*
G01*
X041840785Y014165090D01*
G01*
X041783880Y014352683D01*
G01*
X041691470Y014525570D01*
G01*
X041567107Y014677107D01*
G01*
X041415570Y014801470D01*
G01*
X041242683Y014893880D01*
G01*
X041055090Y014950785D01*
G01*
X040860000Y014970000D01*
G01*
X040664910Y014950785D01*
G01*
X040477317Y014893880D01*
G01*
X040304430Y014801470D01*
G01*
X040152893Y014677107D01*
G01*
X040028530Y014525570D01*
G01*
X039936120Y014352683D01*
G01*
X039879215Y014165090D01*
G01*
X039860000Y013970000D01*
G01*
X039879215Y013774910D01*
G01*
X039936120Y013587317D01*
G01*
X040028530Y013414430D01*
G01*
X040152893Y013262893D01*
G01*
X040304430Y013138530D01*
G01*
X040477317Y013046120D01*
G01*
X040664910Y012989215D01*
G01*
X040860000Y012970000D01*
G37*
D34*
G36*
X018000000Y010430000D02*
G01*
X018195090Y010449215D01*
G01*
X018382683Y010506120D01*
G01*
X018555570Y010598530D01*
G01*
X018707107Y010722893D01*
G01*
X018831470Y010874430D01*
G01*
X018923880Y011047317D01*
G01*
X018980785Y011234910D01*
G01*
X019000000Y011430000D01*
G01*
X018980785Y011625090D01*
G01*
X018923880Y011812683D01*
G01*
X018831470Y011985570D01*
G01*
X018707107Y012137107D01*
G01*
X018555570Y012261470D01*
G01*
X018382683Y012353880D01*
G01*
X018195090Y012410785D01*
G01*
X018000000Y012430000D01*
G01*
X017804910Y012410785D01*
G01*
X017617317Y012353880D01*
G01*
X017444430Y012261470D01*
G01*
X017292893Y012137107D01*
G01*
X017168530Y011985570D01*
G01*
X017076120Y011812683D01*
G01*
X017019215Y011625090D01*
G01*
X017000000Y011430000D01*
G01*
X017019215Y011234910D01*
G01*
X017076120Y011047317D01*
G01*
X017168530Y010874430D01*
G01*
X017292893Y010722893D01*
G01*
X017444430Y010598530D01*
G01*
X017617317Y010506120D01*
G01*
X017804910Y010449215D01*
G01*
X018000000Y010430000D01*
G37*
D34*
G36*
X040860000Y010430000D02*
G01*
X041055090Y010449215D01*
G01*
X041242683Y010506120D01*
G01*
X041415570Y010598530D01*
G01*
X041567107Y010722893D01*
G01*
X041691470Y010874430D01*
G01*
X041783880Y011047317D01*
G01*
X041840785Y011234910D01*
G01*
X041860000Y011430000D01*
G01*
X041840785Y011625090D01*
G01*
X041783880Y011812683D01*
G01*
X041691470Y011985570D01*
G01*
X041567107Y012137107D01*
G01*
X041415570Y012261470D01*
G01*
X041242683Y012353880D01*
G01*
X041055090Y012410785D01*
G01*
X040860000Y012430000D01*
G01*
X040664910Y012410785D01*
G01*
X040477317Y012353880D01*
G01*
X040304430Y012261470D01*
G01*
X040152893Y012137107D01*
G01*
X040028530Y011985570D01*
G01*
X039936120Y011812683D01*
G01*
X039879215Y011625090D01*
G01*
X039860000Y011430000D01*
G01*
X039879215Y011234910D01*
G01*
X039936120Y011047317D01*
G01*
X040028530Y010874430D01*
G01*
X040152893Y010722893D01*
G01*
X040304430Y010598530D01*
G01*
X040477317Y010506120D01*
G01*
X040664910Y010449215D01*
G01*
X040860000Y010430000D01*
G37*
D34*
G36*
X018000000Y007890000D02*
G01*
X018195090Y007909215D01*
G01*
X018382683Y007966120D01*
G01*
X018555570Y008058530D01*
G01*
X018707107Y008182893D01*
G01*
X018831470Y008334430D01*
G01*
X018923880Y008507317D01*
G01*
X018980785Y008694910D01*
G01*
X019000000Y008890000D01*
G01*
X018980785Y009085090D01*
G01*
X018923880Y009272683D01*
G01*
X018831470Y009445570D01*
G01*
X018707107Y009597107D01*
G01*
X018555570Y009721470D01*
G01*
X018382683Y009813880D01*
G01*
X018195090Y009870785D01*
G01*
X018000000Y009890000D01*
G01*
X017804910Y009870785D01*
G01*
X017617317Y009813880D01*
G01*
X017444430Y009721470D01*
G01*
X017292893Y009597107D01*
G01*
X017168530Y009445570D01*
G01*
X017076120Y009272683D01*
G01*
X017019215Y009085090D01*
G01*
X017000000Y008890000D01*
G01*
X017019215Y008694910D01*
G01*
X017076120Y008507317D01*
G01*
X017168530Y008334430D01*
G01*
X017292893Y008182893D01*
G01*
X017444430Y008058530D01*
G01*
X017617317Y007966120D01*
G01*
X017804910Y007909215D01*
G01*
X018000000Y007890000D01*
G37*
D34*
G36*
X040860000Y007890000D02*
G01*
X041055090Y007909215D01*
G01*
X041242683Y007966120D01*
G01*
X041415570Y008058530D01*
G01*
X041567107Y008182893D01*
G01*
X041691470Y008334430D01*
G01*
X041783880Y008507317D01*
G01*
X041840785Y008694910D01*
G01*
X041860000Y008890000D01*
G01*
X041840785Y009085090D01*
G01*
X041783880Y009272683D01*
G01*
X041691470Y009445570D01*
G01*
X041567107Y009597107D01*
G01*
X041415570Y009721470D01*
G01*
X041242683Y009813880D01*
G01*
X041055090Y009870785D01*
G01*
X040860000Y009890000D01*
G01*
X040664910Y009870785D01*
G01*
X040477317Y009813880D01*
G01*
X040304430Y009721470D01*
G01*
X040152893Y009597107D01*
G01*
X040028530Y009445570D01*
G01*
X039936120Y009272683D01*
G01*
X039879215Y009085090D01*
G01*
X039860000Y008890000D01*
G01*
X039879215Y008694910D01*
G01*
X039936120Y008507317D01*
G01*
X040028530Y008334430D01*
G01*
X040152893Y008182893D01*
G01*
X040304430Y008058530D01*
G01*
X040477317Y007966120D01*
G01*
X040664910Y007909215D01*
G01*
X040860000Y007890000D01*
G37*
D34*
G36*
X063460000Y007000000D02*
G01*
X065460000Y007000000D01*
G01*
X065460000Y009000000D01*
G01*
X063460000Y009000000D01*
G01*
X063460000Y007000000D01*
G37*
D34*
G36*
X062231000Y005772000D02*
G01*
X062309036Y005779686D01*
G01*
X062384073Y005802448D01*
G01*
X062453228Y005839412D01*
G01*
X062491444Y005870775D01*
G01*
X065195775Y005870775D01*
G01*
X065259179Y005877020D01*
G01*
X065320147Y005895514D01*
G01*
X065376335Y005925547D01*
G01*
X065425585Y005965965D01*
G01*
X066564155Y007104535D01*
G01*
X066617317Y007076120D01*
G01*
X066804910Y007019215D01*
G01*
X067000000Y007000000D01*
G01*
X067195090Y007019215D01*
G01*
X067382683Y007076120D01*
G01*
X067555570Y007168530D01*
G01*
X067707107Y007292893D01*
G01*
X067831470Y007444430D01*
G01*
X067923880Y007617317D01*
G01*
X067980785Y007804910D01*
G01*
X068000000Y008000000D01*
G01*
X067980785Y008195090D01*
G01*
X067923880Y008382683D01*
G01*
X067831470Y008555570D01*
G01*
X067707107Y008707107D01*
G01*
X067555570Y008831470D01*
G01*
X067382683Y008923880D01*
G01*
X067195090Y008980785D01*
G01*
X067000000Y009000000D01*
G01*
X066804910Y008980785D01*
G01*
X066617317Y008923880D01*
G01*
X066444430Y008831470D01*
G01*
X066292893Y008707107D01*
G01*
X066168530Y008555570D01*
G01*
X066076120Y008382683D01*
G01*
X066019215Y008195090D01*
G01*
X066000000Y008000000D01*
G01*
X066019215Y007804910D01*
G01*
X066076120Y007617317D01*
G01*
X066104535Y007564155D01*
G01*
X065061155Y006520775D01*
G01*
X062422944Y006520775D01*
G01*
X062384073Y006541552D01*
G01*
X062309036Y006564314D01*
G01*
X062231000Y006572000D01*
G01*
X062152964Y006564314D01*
G01*
X062077927Y006541552D01*
G01*
X062008772Y006504588D01*
G01*
X061948157Y006454843D01*
G01*
X061898412Y006394228D01*
G01*
X061861448Y006325073D01*
G01*
X061838686Y006250036D01*
G01*
X061831000Y006172000D01*
G01*
X061838686Y006093964D01*
G01*
X061861448Y006018927D01*
G01*
X061898412Y005949772D01*
G01*
X061948157Y005889157D01*
G01*
X062008772Y005839412D01*
G01*
X062077927Y005802448D01*
G01*
X062152964Y005779686D01*
G01*
X062231000Y005772000D01*
G37*
D34*
G36*
X018000000Y005350000D02*
G01*
X018195090Y005369215D01*
G01*
X018382683Y005426120D01*
G01*
X018555570Y005518530D01*
G01*
X018707107Y005642893D01*
G01*
X018831470Y005794430D01*
G01*
X018923880Y005967317D01*
G01*
X018980785Y006154910D01*
G01*
X019000000Y006350000D01*
G01*
X018980785Y006545090D01*
G01*
X018923880Y006732683D01*
G01*
X018831470Y006905570D01*
G01*
X018707107Y007057107D01*
G01*
X018555570Y007181470D01*
G01*
X018382683Y007273880D01*
G01*
X018195090Y007330785D01*
G01*
X018000000Y007350000D01*
G01*
X017804910Y007330785D01*
G01*
X017617317Y007273880D01*
G01*
X017444430Y007181470D01*
G01*
X017292893Y007057107D01*
G01*
X017168530Y006905570D01*
G01*
X017076120Y006732683D01*
G01*
X017019215Y006545090D01*
G01*
X017000000Y006350000D01*
G01*
X017019215Y006154910D01*
G01*
X017076120Y005967317D01*
G01*
X017168530Y005794430D01*
G01*
X017292893Y005642893D01*
G01*
X017444430Y005518530D01*
G01*
X017617317Y005426120D01*
G01*
X017804910Y005369215D01*
G01*
X018000000Y005350000D01*
G37*
D34*
G36*
X040860000Y005350000D02*
G01*
X041055090Y005369215D01*
G01*
X041242683Y005426120D01*
G01*
X041415570Y005518530D01*
G01*
X041567107Y005642893D01*
G01*
X041691470Y005794430D01*
G01*
X041783880Y005967317D01*
G01*
X041840785Y006154910D01*
G01*
X041860000Y006350000D01*
G01*
X041840785Y006545090D01*
G01*
X041783880Y006732683D01*
G01*
X041691470Y006905570D01*
G01*
X041567107Y007057107D01*
G01*
X041415570Y007181470D01*
G01*
X041242683Y007273880D01*
G01*
X041055090Y007330785D01*
G01*
X040860000Y007350000D01*
G01*
X040664910Y007330785D01*
G01*
X040477317Y007273880D01*
G01*
X040304430Y007181470D01*
G01*
X040152893Y007057107D01*
G01*
X040028530Y006905570D01*
G01*
X039936120Y006732683D01*
G01*
X039879215Y006545090D01*
G01*
X039860000Y006350000D01*
G01*
X039879215Y006154910D01*
G01*
X039936120Y005967317D01*
G01*
X040028530Y005794430D01*
G01*
X040152893Y005642893D01*
G01*
X040304430Y005518530D01*
G01*
X040477317Y005426120D01*
G01*
X040664910Y005369215D01*
G01*
X040860000Y005350000D01*
G37*
D34*
G36*
X018000000Y002810000D02*
G01*
X018195090Y002829215D01*
G01*
X018382683Y002886120D01*
G01*
X018555570Y002978530D01*
G01*
X018707107Y003102893D01*
G01*
X018831470Y003254430D01*
G01*
X018923880Y003427317D01*
G01*
X018980785Y003614910D01*
G01*
X019000000Y003810000D01*
G01*
X018980785Y004005090D01*
G01*
X018923880Y004192683D01*
G01*
X018831470Y004365570D01*
G01*
X018707107Y004517107D01*
G01*
X018555570Y004641470D01*
G01*
X018382683Y004733880D01*
G01*
X018195090Y004790785D01*
G01*
X018000000Y004810000D01*
G01*
X017804910Y004790785D01*
G01*
X017617317Y004733880D01*
G01*
X017444430Y004641470D01*
G01*
X017292893Y004517107D01*
G01*
X017168530Y004365570D01*
G01*
X017076120Y004192683D01*
G01*
X017019215Y004005090D01*
G01*
X017000000Y003810000D01*
G01*
X017019215Y003614910D01*
G01*
X017076120Y003427317D01*
G01*
X017168530Y003254430D01*
G01*
X017292893Y003102893D01*
G01*
X017444430Y002978530D01*
G01*
X017617317Y002886120D01*
G01*
X017804910Y002829215D01*
G01*
X018000000Y002810000D01*
G37*
D34*
G36*
X040860000Y002810000D02*
G01*
X041055090Y002829215D01*
G01*
X041242683Y002886120D01*
G01*
X041415570Y002978530D01*
G01*
X041567107Y003102893D01*
G01*
X041691470Y003254430D01*
G01*
X041783880Y003427317D01*
G01*
X041840785Y003614910D01*
G01*
X041860000Y003810000D01*
G01*
X041840785Y004005090D01*
G01*
X041783880Y004192683D01*
G01*
X041691470Y004365570D01*
G01*
X041567107Y004517107D01*
G01*
X041415570Y004641470D01*
G01*
X041242683Y004733880D01*
G01*
X041055090Y004790785D01*
G01*
X040860000Y004810000D01*
G01*
X040664910Y004790785D01*
G01*
X040477317Y004733880D01*
G01*
X040304430Y004641470D01*
G01*
X040152893Y004517107D01*
G01*
X040028530Y004365570D01*
G01*
X039936120Y004192683D01*
G01*
X039879215Y004005090D01*
G01*
X039860000Y003810000D01*
G01*
X039879215Y003614910D01*
G01*
X039936120Y003427317D01*
G01*
X040028530Y003254430D01*
G01*
X040152893Y003102893D01*
G01*
X040304430Y002978530D01*
G01*
X040477317Y002886120D01*
G01*
X040664910Y002829215D01*
G01*
X040860000Y002810000D01*
G37*
D34*
G36*
X-68000000Y-01000000D02*
G01*
X-67804910Y-00980785D01*
G01*
X-67617317Y-00923880D01*
G01*
X-67444430Y-00831470D01*
G01*
X-67292893Y-00707107D01*
G01*
X-67168530Y-00555570D01*
G01*
X-67076120Y-00382683D01*
G01*
X-67019215Y-00195090D01*
G01*
X-67000000Y000000000D01*
G01*
X-67019215Y000195090D01*
G01*
X-67076120Y000382683D01*
G01*
X-67104535Y000435845D01*
G01*
X-63736006Y003804374D01*
G01*
X-60137711Y003804374D01*
G01*
X-60129228Y003797412D01*
G01*
X-60060073Y003760448D01*
G01*
X-59985036Y003737686D01*
G01*
X-59907000Y003730000D01*
G01*
X-59828964Y003737686D01*
G01*
X-59753927Y003760448D01*
G01*
X-59684772Y003797412D01*
G01*
X-59624157Y003847157D01*
G01*
X-59574412Y003907772D01*
G01*
X-59537448Y003976927D01*
G01*
X-59514686Y004051964D01*
G01*
X-59507000Y004130000D01*
G01*
X-59514686Y004208036D01*
G01*
X-59537448Y004283073D01*
G01*
X-59574412Y004352228D01*
G01*
X-59624157Y004412843D01*
G01*
X-59684772Y004462588D01*
G01*
X-59753927Y004499552D01*
G01*
X-59828964Y004522314D01*
G01*
X-59907000Y004530000D01*
G01*
X-59985036Y004522314D01*
G01*
X-60060073Y004499552D01*
G01*
X-60129228Y004462588D01*
G01*
X-60139237Y004454374D01*
G01*
X-63870626Y004454374D01*
G01*
X-63934030Y004448129D01*
G01*
X-63994998Y004429635D01*
G01*
X-64051186Y004399602D01*
G01*
X-64100436Y004359184D01*
G01*
X-67564155Y000895465D01*
G01*
X-67617317Y000923880D01*
G01*
X-67804910Y000980785D01*
G01*
X-68000000Y001000000D01*
G01*
X-68195090Y000980785D01*
G01*
X-68382683Y000923880D01*
G01*
X-68555570Y000831470D01*
G01*
X-68707107Y000707107D01*
G01*
X-68831470Y000555570D01*
G01*
X-68923880Y000382683D01*
G01*
X-68980785Y000195090D01*
G01*
X-69000000Y000000000D01*
G01*
X-68980785Y-00195090D01*
G01*
X-68923880Y-00382683D01*
G01*
X-68831470Y-00555570D01*
G01*
X-68707107Y-00707107D01*
G01*
X-68555570Y-00831470D01*
G01*
X-68382683Y-00923880D01*
G01*
X-68195090Y-00980785D01*
G01*
X-68000000Y-01000000D01*
G37*
D34*
G36*
X018000000Y000270000D02*
G01*
X018195090Y000289215D01*
G01*
X018382683Y000346120D01*
G01*
X018555570Y000438530D01*
G01*
X018707107Y000562893D01*
G01*
X018831470Y000714430D01*
G01*
X018923880Y000887317D01*
G01*
X018980785Y001074910D01*
G01*
X019000000Y001270000D01*
G01*
X018980785Y001465090D01*
G01*
X018923880Y001652683D01*
G01*
X018831470Y001825570D01*
G01*
X018707107Y001977107D01*
G01*
X018555570Y002101470D01*
G01*
X018382683Y002193880D01*
G01*
X018195090Y002250785D01*
G01*
X018000000Y002270000D01*
G01*
X017804910Y002250785D01*
G01*
X017617317Y002193880D01*
G01*
X017444430Y002101470D01*
G01*
X017292893Y001977107D01*
G01*
X017168530Y001825570D01*
G01*
X017076120Y001652683D01*
G01*
X017019215Y001465090D01*
G01*
X017000000Y001270000D01*
G01*
X017019215Y001074910D01*
G01*
X017076120Y000887317D01*
G01*
X017168530Y000714430D01*
G01*
X017292893Y000562893D01*
G01*
X017444430Y000438530D01*
G01*
X017617317Y000346120D01*
G01*
X017804910Y000289215D01*
G01*
X018000000Y000270000D01*
G37*
D34*
G36*
X040860000Y000270000D02*
G01*
X041055090Y000289215D01*
G01*
X041242683Y000346120D01*
G01*
X041415570Y000438530D01*
G01*
X041567107Y000562893D01*
G01*
X041691470Y000714430D01*
G01*
X041783880Y000887317D01*
G01*
X041840785Y001074910D01*
G01*
X041860000Y001270000D01*
G01*
X041840785Y001465090D01*
G01*
X041783880Y001652683D01*
G01*
X041691470Y001825570D01*
G01*
X041567107Y001977107D01*
G01*
X041415570Y002101470D01*
G01*
X041242683Y002193880D01*
G01*
X041055090Y002250785D01*
G01*
X040860000Y002270000D01*
G01*
X040664910Y002250785D01*
G01*
X040477317Y002193880D01*
G01*
X040304430Y002101470D01*
G01*
X040152893Y001977107D01*
G01*
X040028530Y001825570D01*
G01*
X039936120Y001652683D01*
G01*
X039879215Y001465090D01*
G01*
X039860000Y001270000D01*
G01*
X039879215Y001074910D01*
G01*
X039936120Y000887317D01*
G01*
X040028530Y000714430D01*
G01*
X040152893Y000562893D01*
G01*
X040304430Y000438530D01*
G01*
X040477317Y000346120D01*
G01*
X040664910Y000289215D01*
G01*
X040860000Y000270000D01*
G37*
D34*
G36*
X-71540000Y-01000000D02*
G01*
X-69540000Y-01000000D01*
G01*
X-69540000Y001000000D01*
G01*
X-71540000Y001000000D01*
G01*
X-71540000Y-01000000D01*
G37*
D34*
G36*
X-65460000Y-01000000D02*
G01*
X-65264910Y-00980785D01*
G01*
X-65077317Y-00923880D01*
G01*
X-64904430Y-00831470D01*
G01*
X-64752893Y-00707107D01*
G01*
X-64628530Y-00555570D01*
G01*
X-64536120Y-00382683D01*
G01*
X-64479215Y-00195090D01*
G01*
X-64460000Y000000000D01*
G01*
X-64479215Y000195090D01*
G01*
X-64536120Y000382683D01*
G01*
X-64628530Y000555570D01*
G01*
X-64752893Y000707107D01*
G01*
X-64904430Y000831470D01*
G01*
X-65077317Y000923880D01*
G01*
X-65264910Y000980785D01*
G01*
X-65460000Y001000000D01*
G01*
X-65655090Y000980785D01*
G01*
X-65842683Y000923880D01*
G01*
X-66015570Y000831470D01*
G01*
X-66167107Y000707107D01*
G01*
X-66291470Y000555570D01*
G01*
X-66383880Y000382683D01*
G01*
X-66440785Y000195090D01*
G01*
X-66460000Y000000000D01*
G01*
X-66440785Y-00195090D01*
G01*
X-66383880Y-00382683D01*
G01*
X-66291470Y-00555570D01*
G01*
X-66167107Y-00707107D01*
G01*
X-66015570Y-00831470D01*
G01*
X-65842683Y-00923880D01*
G01*
X-65655090Y-00980785D01*
G01*
X-65460000Y-01000000D01*
G37*
D34*
G36*
X-05741000Y-02145000D02*
G01*
X-05662964Y-02137314D01*
G01*
X-05587927Y-02114552D01*
G01*
X-05518772Y-02077588D01*
G01*
X-05458157Y-02027843D01*
G01*
X-05408412Y-01967228D01*
G01*
X-05371448Y-01898073D01*
G01*
X-05348686Y-01823036D01*
G01*
X-05341000Y-01745000D01*
G01*
X-05348686Y-01666964D01*
G01*
X-05371448Y-01591927D01*
G01*
X-05408412Y-01522772D01*
G01*
X-05416000Y-01513526D01*
G01*
X-05416000Y-01150000D01*
G01*
X-05422245Y-01086596D01*
G01*
X-05440739Y-01025628D01*
G01*
X-05470772Y-00969440D01*
G01*
X-05511190Y-00920190D01*
G01*
X-05835514Y-00595867D01*
G01*
X-05836686Y-00583964D01*
G01*
X-05859448Y-00508927D01*
G01*
X-05896412Y-00439772D01*
G01*
X-05946157Y-00379157D01*
G01*
X-06006772Y-00329412D01*
G01*
X-06075927Y-00292448D01*
G01*
X-06150964Y-00269686D01*
G01*
X-06229000Y-00262000D01*
G01*
X-06307036Y-00269686D01*
G01*
X-06382073Y-00292448D01*
G01*
X-06451228Y-00329412D01*
G01*
X-06511843Y-00379157D01*
G01*
X-06561588Y-00439772D01*
G01*
X-06598552Y-00508927D01*
G01*
X-06621314Y-00583964D01*
G01*
X-06629000Y-00662000D01*
G01*
X-06621314Y-00740036D01*
G01*
X-06598552Y-00815073D01*
G01*
X-06561588Y-00884228D01*
G01*
X-06511843Y-00944843D01*
G01*
X-06451228Y-00994588D01*
G01*
X-06382073Y-01031552D01*
G01*
X-06307036Y-01054314D01*
G01*
X-06295133Y-01055486D01*
G01*
X-06066000Y-01284620D01*
G01*
X-06066000Y-01513526D01*
G01*
X-06073588Y-01522772D01*
G01*
X-06110552Y-01591927D01*
G01*
X-06133314Y-01666964D01*
G01*
X-06141000Y-01745000D01*
G01*
X-06133314Y-01823036D01*
G01*
X-06110552Y-01898073D01*
G01*
X-06073588Y-01967228D01*
G01*
X-06023843Y-02027843D01*
G01*
X-05963228Y-02077588D01*
G01*
X-05894073Y-02114552D01*
G01*
X-05819036Y-02137314D01*
G01*
X-05741000Y-02145000D01*
G37*
D34*
G36*
X040860000Y-02270000D02*
G01*
X041055090Y-02250785D01*
G01*
X041242683Y-02193880D01*
G01*
X041415570Y-02101470D01*
G01*
X041567107Y-01977107D01*
G01*
X041691470Y-01825570D01*
G01*
X041783880Y-01652683D01*
G01*
X041840785Y-01465090D01*
G01*
X041860000Y-01270000D01*
G01*
X041840785Y-01074910D01*
G01*
X041783880Y-00887317D01*
G01*
X041691470Y-00714430D01*
G01*
X041567107Y-00562893D01*
G01*
X041415570Y-00438530D01*
G01*
X041242683Y-00346120D01*
G01*
X041055090Y-00289215D01*
G01*
X040860000Y-00270000D01*
G01*
X040664910Y-00289215D01*
G01*
X040477317Y-00346120D01*
G01*
X040304430Y-00438530D01*
G01*
X040152893Y-00562893D01*
G01*
X040028530Y-00714430D01*
G01*
X039936120Y-00887317D01*
G01*
X039879215Y-01074910D01*
G01*
X039860000Y-01270000D01*
G01*
X039879215Y-01465090D01*
G01*
X039936120Y-01652683D01*
G01*
X040028530Y-01825570D01*
G01*
X040152893Y-01977107D01*
G01*
X040304430Y-02101470D01*
G01*
X040477317Y-02193880D01*
G01*
X040664910Y-02250785D01*
G01*
X040860000Y-02270000D01*
G37*
D34*
G36*
X018000000Y-04810000D02*
G01*
X018195090Y-04790785D01*
G01*
X018382683Y-04733880D01*
G01*
X018555570Y-04641470D01*
G01*
X018707107Y-04517107D01*
G01*
X018831470Y-04365570D01*
G01*
X018923880Y-04192683D01*
G01*
X018980785Y-04005090D01*
G01*
X019000000Y-03810000D01*
G01*
X018980785Y-03614910D01*
G01*
X018923880Y-03427317D01*
G01*
X018831470Y-03254430D01*
G01*
X018707107Y-03102893D01*
G01*
X018555570Y-02978530D01*
G01*
X018382683Y-02886120D01*
G01*
X018195090Y-02829215D01*
G01*
X018000000Y-02810000D01*
G01*
X017804910Y-02829215D01*
G01*
X017617317Y-02886120D01*
G01*
X017444430Y-02978530D01*
G01*
X017292893Y-03102893D01*
G01*
X017168530Y-03254430D01*
G01*
X017076120Y-03427317D01*
G01*
X017019215Y-03614910D01*
G01*
X017000000Y-03810000D01*
G01*
X017019215Y-04005090D01*
G01*
X017076120Y-04192683D01*
G01*
X017168530Y-04365570D01*
G01*
X017292893Y-04517107D01*
G01*
X017444430Y-04641470D01*
G01*
X017617317Y-04733880D01*
G01*
X017804910Y-04790785D01*
G01*
X018000000Y-04810000D01*
G37*
D34*
G36*
X040860000Y-04810000D02*
G01*
X041055090Y-04790785D01*
G01*
X041242683Y-04733880D01*
G01*
X041415570Y-04641470D01*
G01*
X041567107Y-04517107D01*
G01*
X041691470Y-04365570D01*
G01*
X041783880Y-04192683D01*
G01*
X041840785Y-04005090D01*
G01*
X041860000Y-03810000D01*
G01*
X041840785Y-03614910D01*
G01*
X041783880Y-03427317D01*
G01*
X041691470Y-03254430D01*
G01*
X041567107Y-03102893D01*
G01*
X041415570Y-02978530D01*
G01*
X041242683Y-02886120D01*
G01*
X041055090Y-02829215D01*
G01*
X040860000Y-02810000D01*
G01*
X040664910Y-02829215D01*
G01*
X040477317Y-02886120D01*
G01*
X040304430Y-02978530D01*
G01*
X040152893Y-03102893D01*
G01*
X040028530Y-03254430D01*
G01*
X039936120Y-03427317D01*
G01*
X039879215Y-03614910D01*
G01*
X039860000Y-03810000D01*
G01*
X039879215Y-04005090D01*
G01*
X039936120Y-04192683D01*
G01*
X040028530Y-04365570D01*
G01*
X040152893Y-04517107D01*
G01*
X040304430Y-04641470D01*
G01*
X040477317Y-04733880D01*
G01*
X040664910Y-04790785D01*
G01*
X040860000Y-04810000D01*
G37*
D34*
G36*
X007815000Y-08030000D02*
G01*
X007893036Y-08022314D01*
G01*
X007968073Y-07999552D01*
G01*
X008037228Y-07962588D01*
G01*
X008097843Y-07912843D01*
G01*
X008147588Y-07852228D01*
G01*
X008171307Y-07807853D01*
G01*
X008172357Y-07807292D01*
G01*
X008221606Y-07766874D01*
G01*
X009313480Y-06675000D01*
G01*
X017058622Y-06675000D01*
G01*
X017076120Y-06732683D01*
G01*
X017168530Y-06905570D01*
G01*
X017292893Y-07057107D01*
G01*
X017444430Y-07181470D01*
G01*
X017617317Y-07273880D01*
G01*
X017804910Y-07330785D01*
G01*
X018000000Y-07350000D01*
G01*
X018195090Y-07330785D01*
G01*
X018382683Y-07273880D01*
G01*
X018555570Y-07181470D01*
G01*
X018707107Y-07057107D01*
G01*
X018831470Y-06905570D01*
G01*
X018923880Y-06732683D01*
G01*
X018980785Y-06545090D01*
G01*
X019000000Y-06350000D01*
G01*
X018980785Y-06154910D01*
G01*
X018923880Y-05967317D01*
G01*
X018831470Y-05794430D01*
G01*
X018707107Y-05642893D01*
G01*
X018555570Y-05518530D01*
G01*
X018382683Y-05426120D01*
G01*
X018195090Y-05369215D01*
G01*
X018000000Y-05350000D01*
G01*
X017804910Y-05369215D01*
G01*
X017617317Y-05426120D01*
G01*
X017444430Y-05518530D01*
G01*
X017292893Y-05642893D01*
G01*
X017168530Y-05794430D01*
G01*
X017076120Y-05967317D01*
G01*
X017058622Y-06025000D01*
G01*
X009178860Y-06025000D01*
G01*
X009115456Y-06031245D01*
G01*
X009054488Y-06049739D01*
G01*
X008998300Y-06079772D01*
G01*
X008949050Y-06120190D01*
G01*
X007851630Y-07217610D01*
G01*
X007844532Y-07218309D01*
G01*
X007801659Y-07231314D01*
G01*
X007736964Y-07237686D01*
G01*
X007661927Y-07260448D01*
G01*
X007592772Y-07297412D01*
G01*
X007532157Y-07347157D01*
G01*
X007482412Y-07407772D01*
G01*
X007445448Y-07476927D01*
G01*
X007422686Y-07551964D01*
G01*
X007415000Y-07630000D01*
G01*
X007422686Y-07708036D01*
G01*
X007445448Y-07783073D01*
G01*
X007482412Y-07852228D01*
G01*
X007532157Y-07912843D01*
G01*
X007592772Y-07962588D01*
G01*
X007661927Y-07999552D01*
G01*
X007736964Y-08022314D01*
G01*
X007815000Y-08030000D01*
G37*
D34*
G36*
X040860000Y-07350000D02*
G01*
X041055090Y-07330785D01*
G01*
X041242683Y-07273880D01*
G01*
X041415570Y-07181470D01*
G01*
X041567107Y-07057107D01*
G01*
X041691470Y-06905570D01*
G01*
X041783880Y-06732683D01*
G01*
X041840785Y-06545090D01*
G01*
X041860000Y-06350000D01*
G01*
X041840785Y-06154910D01*
G01*
X041783880Y-05967317D01*
G01*
X041691470Y-05794430D01*
G01*
X041567107Y-05642893D01*
G01*
X041415570Y-05518530D01*
G01*
X041242683Y-05426120D01*
G01*
X041055090Y-05369215D01*
G01*
X040860000Y-05350000D01*
G01*
X040664910Y-05369215D01*
G01*
X040477317Y-05426120D01*
G01*
X040304430Y-05518530D01*
G01*
X040152893Y-05642893D01*
G01*
X040028530Y-05794430D01*
G01*
X039936120Y-05967317D01*
G01*
X039879215Y-06154910D01*
G01*
X039860000Y-06350000D01*
G01*
X039879215Y-06545090D01*
G01*
X039936120Y-06732683D01*
G01*
X040028530Y-06905570D01*
G01*
X040152893Y-07057107D01*
G01*
X040304430Y-07181470D01*
G01*
X040477317Y-07273880D01*
G01*
X040664910Y-07330785D01*
G01*
X040860000Y-07350000D01*
G37*
D34*
G36*
X-65460000Y-16000000D02*
G01*
X-65264910Y-15980785D01*
G01*
X-65077317Y-15923880D01*
G01*
X-64904430Y-15831470D01*
G01*
X-64752893Y-15707107D01*
G01*
X-64628530Y-15555570D01*
G01*
X-64536120Y-15382683D01*
G01*
X-64518622Y-15325000D01*
G01*
X-58441458Y-15325000D01*
G01*
X-58378054Y-15318755D01*
G01*
X-58317086Y-15300261D01*
G01*
X-58260898Y-15270228D01*
G01*
X-58211648Y-15229810D01*
G01*
X-51594776Y-08612937D01*
G01*
X-51526772Y-08576588D01*
G01*
X-51466157Y-08526843D01*
G01*
X-51416412Y-08466228D01*
G01*
X-51379448Y-08397073D01*
G01*
X-51356686Y-08322036D01*
G01*
X-51349000Y-08244000D01*
G01*
X-51356686Y-08165964D01*
G01*
X-51379448Y-08090927D01*
G01*
X-51416412Y-08021772D01*
G01*
X-51466157Y-07961157D01*
G01*
X-51526772Y-07911412D01*
G01*
X-51595927Y-07874448D01*
G01*
X-51670964Y-07851686D01*
G01*
X-51749000Y-07844000D01*
G01*
X-51827036Y-07851686D01*
G01*
X-51902073Y-07874448D01*
G01*
X-51971228Y-07911412D01*
G01*
X-52031843Y-07961157D01*
G01*
X-52081588Y-08021772D01*
G01*
X-52118552Y-08090927D01*
G01*
X-52141314Y-08165964D01*
G01*
X-52149000Y-08244000D01*
G01*
X-52148648Y-08247571D01*
G01*
X-58576078Y-14675000D01*
G01*
X-64518622Y-14675000D01*
G01*
X-64536120Y-14617317D01*
G01*
X-64628530Y-14444430D01*
G01*
X-64752893Y-14292893D01*
G01*
X-64904430Y-14168530D01*
G01*
X-65077317Y-14076120D01*
G01*
X-65264910Y-14019215D01*
G01*
X-65460000Y-14000000D01*
G01*
X-65655090Y-14019215D01*
G01*
X-65842683Y-14076120D01*
G01*
X-66015570Y-14168530D01*
G01*
X-66167107Y-14292893D01*
G01*
X-66291470Y-14444430D01*
G01*
X-66383880Y-14617317D01*
G01*
X-66440785Y-14804910D01*
G01*
X-66460000Y-15000000D01*
G01*
X-66440785Y-15195090D01*
G01*
X-66383880Y-15382683D01*
G01*
X-66291470Y-15555570D01*
G01*
X-66167107Y-15707107D01*
G01*
X-66015570Y-15831470D01*
G01*
X-65842683Y-15923880D01*
G01*
X-65655090Y-15980785D01*
G01*
X-65460000Y-16000000D01*
G37*
D34*
G36*
X-10940000Y-26750000D02*
G01*
X-08740000Y-26750000D01*
G01*
X-08740000Y-25975000D01*
G01*
X-01104615Y-25975000D01*
G01*
X-01041211Y-25968755D01*
G01*
X-00980243Y-25950261D01*
G01*
X-00924055Y-25920228D01*
G01*
X-00874806Y-25879810D01*
G01*
X011283651Y-13721353D01*
G01*
X011288157Y-13726843D01*
G01*
X011348772Y-13776588D01*
G01*
X011417927Y-13813552D01*
G01*
X011460101Y-13826345D01*
G01*
X016913566Y-19279810D01*
G01*
X016962816Y-19320228D01*
G01*
X017019004Y-19350261D01*
G01*
X017054372Y-19360990D01*
G01*
X017076120Y-19432683D01*
G01*
X017168530Y-19605570D01*
G01*
X017292893Y-19757107D01*
G01*
X017444430Y-19881470D01*
G01*
X017617317Y-19973880D01*
G01*
X017804910Y-20030785D01*
G01*
X018000000Y-20050000D01*
G01*
X018195090Y-20030785D01*
G01*
X018382683Y-19973880D01*
G01*
X018555570Y-19881470D01*
G01*
X018707107Y-19757107D01*
G01*
X018831470Y-19605570D01*
G01*
X018923880Y-19432683D01*
G01*
X018980785Y-19245090D01*
G01*
X019000000Y-19050000D01*
G01*
X018980785Y-18854910D01*
G01*
X018923880Y-18667317D01*
G01*
X018831470Y-18494430D01*
G01*
X018707107Y-18342893D01*
G01*
X018555570Y-18218530D01*
G01*
X018382683Y-18126120D01*
G01*
X018195090Y-18069215D01*
G01*
X018000000Y-18050000D01*
G01*
X017804910Y-18069215D01*
G01*
X017617317Y-18126120D01*
G01*
X017444430Y-18218530D01*
G01*
X017292893Y-18342893D01*
G01*
X017168530Y-18494430D01*
G01*
X017126346Y-18573350D01*
G01*
X011968160Y-13415164D01*
G01*
X011963314Y-13365964D01*
G01*
X011940552Y-13290927D01*
G01*
X011903588Y-13221772D01*
G01*
X011853843Y-13161157D01*
G01*
X011848353Y-13156651D01*
G01*
X014066287Y-10938717D01*
G01*
X016276283Y-10938717D01*
G01*
X016339687Y-10932472D01*
G01*
X016400655Y-10913978D01*
G01*
X016456843Y-10883945D01*
G01*
X016506093Y-10843527D01*
G01*
X017564155Y-09785465D01*
G01*
X017617317Y-09813880D01*
G01*
X017804910Y-09870785D01*
G01*
X018000000Y-09890000D01*
G01*
X018195090Y-09870785D01*
G01*
X018382683Y-09813880D01*
G01*
X018555570Y-09721470D01*
G01*
X018707107Y-09597107D01*
G01*
X018831470Y-09445570D01*
G01*
X018923880Y-09272683D01*
G01*
X018980785Y-09085090D01*
G01*
X019000000Y-08890000D01*
G01*
X018980785Y-08694910D01*
G01*
X018923880Y-08507317D01*
G01*
X018831470Y-08334430D01*
G01*
X018707107Y-08182893D01*
G01*
X018555570Y-08058530D01*
G01*
X018382683Y-07966120D01*
G01*
X018195090Y-07909215D01*
G01*
X018000000Y-07890000D01*
G01*
X017804910Y-07909215D01*
G01*
X017617317Y-07966120D01*
G01*
X017444430Y-08058530D01*
G01*
X017292893Y-08182893D01*
G01*
X017168530Y-08334430D01*
G01*
X017076120Y-08507317D01*
G01*
X017019215Y-08694910D01*
G01*
X017000000Y-08890000D01*
G01*
X017019215Y-09085090D01*
G01*
X017076120Y-09272683D01*
G01*
X017104535Y-09325845D01*
G01*
X016141663Y-10288717D01*
G01*
X013931668Y-10288717D01*
G01*
X013868263Y-10294962D01*
G01*
X013807296Y-10313456D01*
G01*
X013751107Y-10343489D01*
G01*
X013701858Y-10383907D01*
G01*
X-01239235Y-25325000D01*
G01*
X-08740000Y-25325000D01*
G01*
X-08740000Y-24550000D01*
G01*
X-10940000Y-24550000D01*
G01*
X-10940000Y-26750000D01*
G37*
D34*
G36*
X040860000Y-09890000D02*
G01*
X041055090Y-09870785D01*
G01*
X041242683Y-09813880D01*
G01*
X041415570Y-09721470D01*
G01*
X041567107Y-09597107D01*
G01*
X041691470Y-09445570D01*
G01*
X041783880Y-09272683D01*
G01*
X041840785Y-09085090D01*
G01*
X041860000Y-08890000D01*
G01*
X041840785Y-08694910D01*
G01*
X041783880Y-08507317D01*
G01*
X041691470Y-08334430D01*
G01*
X041567107Y-08182893D01*
G01*
X041415570Y-08058530D01*
G01*
X041242683Y-07966120D01*
G01*
X041055090Y-07909215D01*
G01*
X040860000Y-07890000D01*
G01*
X040664910Y-07909215D01*
G01*
X040477317Y-07966120D01*
G01*
X040304430Y-08058530D01*
G01*
X040152893Y-08182893D01*
G01*
X040028530Y-08334430D01*
G01*
X039936120Y-08507317D01*
G01*
X039879215Y-08694910D01*
G01*
X039860000Y-08890000D01*
G01*
X039879215Y-09085090D01*
G01*
X039936120Y-09272683D01*
G01*
X040028530Y-09445570D01*
G01*
X040152893Y-09597107D01*
G01*
X040304430Y-09721470D01*
G01*
X040477317Y-09813880D01*
G01*
X040664910Y-09870785D01*
G01*
X040860000Y-09890000D01*
G37*
D34*
G36*
X008390000Y-10430000D02*
G01*
X008468036Y-10422314D01*
G01*
X008543073Y-10399552D01*
G01*
X008612228Y-10362588D01*
G01*
X008672843Y-10312843D01*
G01*
X008722588Y-10252228D01*
G01*
X008759552Y-10183073D01*
G01*
X008782314Y-10108036D01*
G01*
X008790000Y-10030000D01*
G01*
X008782314Y-09951964D01*
G01*
X008759552Y-09876927D01*
G01*
X008722588Y-09807772D01*
G01*
X008715000Y-09798526D01*
G01*
X008715000Y-08588523D01*
G01*
X008735552Y-08550073D01*
G01*
X008758314Y-08475036D01*
G01*
X008766000Y-08397000D01*
G01*
X008758314Y-08318964D01*
G01*
X008735552Y-08243927D01*
G01*
X008698588Y-08174772D01*
G01*
X008648843Y-08114157D01*
G01*
X008588228Y-08064412D01*
G01*
X008519073Y-08027448D01*
G01*
X008444036Y-08004686D01*
G01*
X008366000Y-07997000D01*
G01*
X008287964Y-08004686D01*
G01*
X008212927Y-08027448D01*
G01*
X008143772Y-08064412D01*
G01*
X008083157Y-08114157D01*
G01*
X008033412Y-08174772D01*
G01*
X007996448Y-08243927D01*
G01*
X007973686Y-08318964D01*
G01*
X007966000Y-08397000D01*
G01*
X007973686Y-08475036D01*
G01*
X007996448Y-08550073D01*
G01*
X008033412Y-08619228D01*
G01*
X008050865Y-08640495D01*
G01*
X008059513Y-08669004D01*
G01*
X008065000Y-08679269D01*
G01*
X008065000Y-09798526D01*
G01*
X008057412Y-09807772D01*
G01*
X008020448Y-09876927D01*
G01*
X007997686Y-09951964D01*
G01*
X007990000Y-10030000D01*
G01*
X007997686Y-10108036D01*
G01*
X008020448Y-10183073D01*
G01*
X008057412Y-10252228D01*
G01*
X008107157Y-10312843D01*
G01*
X008167772Y-10362588D01*
G01*
X008236927Y-10399552D01*
G01*
X008311964Y-10422314D01*
G01*
X008390000Y-10430000D01*
G37*
D34*
G36*
X-03537000Y-11163000D02*
G01*
X-03458964Y-11155314D01*
G01*
X-03383927Y-11132552D01*
G01*
X-03314772Y-11095588D01*
G01*
X-03254157Y-11045843D01*
G01*
X-03204412Y-10985228D01*
G01*
X-03167448Y-10916073D01*
G01*
X-03144686Y-10841036D01*
G01*
X-03137000Y-10763000D01*
G01*
X-03144686Y-10684964D01*
G01*
X-03167448Y-10609927D01*
G01*
X-03204412Y-10540772D01*
G01*
X-03254157Y-10480157D01*
G01*
X-03314772Y-10430412D01*
G01*
X-03383927Y-10393448D01*
G01*
X-03458964Y-10370686D01*
G01*
X-03537000Y-10363000D01*
G01*
X-03615036Y-10370686D01*
G01*
X-03690073Y-10393448D01*
G01*
X-03759228Y-10430412D01*
G01*
X-03768474Y-10438000D01*
G01*
X-04192380Y-10438000D01*
G01*
X-04818514Y-09811866D01*
G01*
X-04819686Y-09799964D01*
G01*
X-04842448Y-09724927D01*
G01*
X-04879412Y-09655772D01*
G01*
X-04929157Y-09595157D01*
G01*
X-04989772Y-09545412D01*
G01*
X-05058927Y-09508448D01*
G01*
X-05133964Y-09485686D01*
G01*
X-05212000Y-09478000D01*
G01*
X-05290036Y-09485686D01*
G01*
X-05365073Y-09508448D01*
G01*
X-05434228Y-09545412D01*
G01*
X-05494843Y-09595157D01*
G01*
X-05544588Y-09655772D01*
G01*
X-05581552Y-09724927D01*
G01*
X-05604314Y-09799964D01*
G01*
X-05612000Y-09878000D01*
G01*
X-05604314Y-09956036D01*
G01*
X-05581552Y-10031073D01*
G01*
X-05544588Y-10100228D01*
G01*
X-05494843Y-10160843D01*
G01*
X-05434228Y-10210588D01*
G01*
X-05365073Y-10247552D01*
G01*
X-05290036Y-10270314D01*
G01*
X-05278134Y-10271486D01*
G01*
X-04556810Y-10992810D01*
G01*
X-04507560Y-11033228D01*
G01*
X-04451372Y-11063261D01*
G01*
X-04390404Y-11081755D01*
G01*
X-04327000Y-11088000D01*
G01*
X-03768474Y-11088000D01*
G01*
X-03759228Y-11095588D01*
G01*
X-03690073Y-11132552D01*
G01*
X-03615036Y-11155314D01*
G01*
X-03537000Y-11163000D01*
G37*
D34*
G36*
X018000000Y-12430000D02*
G01*
X018195090Y-12410785D01*
G01*
X018382683Y-12353880D01*
G01*
X018555570Y-12261470D01*
G01*
X018707107Y-12137107D01*
G01*
X018831470Y-11985570D01*
G01*
X018923880Y-11812683D01*
G01*
X018980785Y-11625090D01*
G01*
X019000000Y-11430000D01*
G01*
X018980785Y-11234910D01*
G01*
X018923880Y-11047317D01*
G01*
X018831470Y-10874430D01*
G01*
X018707107Y-10722893D01*
G01*
X018555570Y-10598530D01*
G01*
X018382683Y-10506120D01*
G01*
X018195090Y-10449215D01*
G01*
X018000000Y-10430000D01*
G01*
X017804910Y-10449215D01*
G01*
X017617317Y-10506120D01*
G01*
X017444430Y-10598530D01*
G01*
X017292893Y-10722893D01*
G01*
X017168530Y-10874430D01*
G01*
X017076120Y-11047317D01*
G01*
X017019215Y-11234910D01*
G01*
X017000000Y-11430000D01*
G01*
X017019215Y-11625090D01*
G01*
X017076120Y-11812683D01*
G01*
X017168530Y-11985570D01*
G01*
X017292893Y-12137107D01*
G01*
X017444430Y-12261470D01*
G01*
X017617317Y-12353880D01*
G01*
X017804910Y-12410785D01*
G01*
X018000000Y-12430000D01*
G37*
D34*
G36*
X063250000Y-13250000D02*
G01*
X065750000Y-13250000D01*
G01*
X065750000Y-10750000D01*
G01*
X063250000Y-10750000D01*
G01*
X063250000Y-13250000D01*
G37*
D34*
G36*
X060075000Y-14200000D02*
G01*
X060153036Y-14192314D01*
G01*
X060228073Y-14169552D01*
G01*
X060297228Y-14132588D01*
G01*
X060306474Y-14125000D01*
G01*
X067700000Y-14125000D01*
G01*
X067763404Y-14118755D01*
G01*
X067824372Y-14100261D01*
G01*
X067880560Y-14070228D01*
G01*
X067929810Y-14029810D01*
G01*
X068709620Y-13250000D01*
G01*
X070750000Y-13250000D01*
G01*
X070750000Y-10750000D01*
G01*
X068250000Y-10750000D01*
G01*
X068250000Y-12790380D01*
G01*
X067565380Y-13475000D01*
G01*
X060306474Y-13475000D01*
G01*
X060297228Y-13467412D01*
G01*
X060228073Y-13430448D01*
G01*
X060153036Y-13407686D01*
G01*
X060075000Y-13400000D01*
G01*
X059996964Y-13407686D01*
G01*
X059921927Y-13430448D01*
G01*
X059852772Y-13467412D01*
G01*
X059792157Y-13517157D01*
G01*
X059742412Y-13577772D01*
G01*
X059705448Y-13646927D01*
G01*
X059682686Y-13721964D01*
G01*
X059675000Y-13800000D01*
G01*
X059682686Y-13878036D01*
G01*
X059705448Y-13953073D01*
G01*
X059742412Y-14022228D01*
G01*
X059792157Y-14082843D01*
G01*
X059852772Y-14132588D01*
G01*
X059921927Y-14169552D01*
G01*
X059996964Y-14192314D01*
G01*
X060075000Y-14200000D01*
G37*
D34*
G36*
X018000000Y-17510000D02*
G01*
X018195090Y-17490785D01*
G01*
X018382683Y-17433880D01*
G01*
X018555570Y-17341470D01*
G01*
X018707107Y-17217107D01*
G01*
X018831470Y-17065570D01*
G01*
X018923880Y-16892683D01*
G01*
X018980785Y-16705090D01*
G01*
X019000000Y-16510000D01*
G01*
X018980785Y-16314910D01*
G01*
X018923880Y-16127317D01*
G01*
X018831470Y-15954430D01*
G01*
X018707107Y-15802893D01*
G01*
X018555570Y-15678530D01*
G01*
X018382683Y-15586120D01*
G01*
X018195090Y-15529215D01*
G01*
X018000000Y-15510000D01*
G01*
X017804910Y-15529215D01*
G01*
X017617317Y-15586120D01*
G01*
X017564155Y-15614535D01*
G01*
X016129858Y-14180238D01*
G01*
X016129858Y-12715773D01*
G01*
X016133588Y-12711228D01*
G01*
X016170552Y-12642073D01*
G01*
X016193314Y-12567036D01*
G01*
X016201000Y-12489000D01*
G01*
X016193314Y-12410964D01*
G01*
X016170552Y-12335927D01*
G01*
X016133588Y-12266772D01*
G01*
X016083843Y-12206157D01*
G01*
X016023228Y-12156412D01*
G01*
X015954073Y-12119448D01*
G01*
X015879036Y-12096686D01*
G01*
X015801000Y-12089000D01*
G01*
X015722964Y-12096686D01*
G01*
X015647927Y-12119448D01*
G01*
X015578772Y-12156412D01*
G01*
X015518157Y-12206157D01*
G01*
X015468412Y-12266772D01*
G01*
X015431448Y-12335927D01*
G01*
X015408686Y-12410964D01*
G01*
X015401000Y-12489000D01*
G01*
X015408686Y-12567036D01*
G01*
X015431448Y-12642073D01*
G01*
X015468412Y-12711228D01*
G01*
X015479858Y-12725175D01*
G01*
X015479858Y-14314858D01*
G01*
X015486103Y-14378262D01*
G01*
X015504597Y-14439230D01*
G01*
X015534630Y-14495418D01*
G01*
X015575048Y-14544668D01*
G01*
X017104535Y-16074155D01*
G01*
X017076120Y-16127317D01*
G01*
X017019215Y-16314910D01*
G01*
X017000000Y-16510000D01*
G01*
X017019215Y-16705090D01*
G01*
X017076120Y-16892683D01*
G01*
X017168530Y-17065570D01*
G01*
X017292893Y-17217107D01*
G01*
X017444430Y-17341470D01*
G01*
X017617317Y-17433880D01*
G01*
X017804910Y-17490785D01*
G01*
X018000000Y-17510000D01*
G37*
D34*
G36*
X018000000Y-14970000D02*
G01*
X018195090Y-14950785D01*
G01*
X018382683Y-14893880D01*
G01*
X018555570Y-14801470D01*
G01*
X018707107Y-14677107D01*
G01*
X018831470Y-14525570D01*
G01*
X018923880Y-14352683D01*
G01*
X018980785Y-14165090D01*
G01*
X019000000Y-13970000D01*
G01*
X018980785Y-13774910D01*
G01*
X018923880Y-13587317D01*
G01*
X018831470Y-13414430D01*
G01*
X018707107Y-13262893D01*
G01*
X018555570Y-13138530D01*
G01*
X018382683Y-13046120D01*
G01*
X018195090Y-12989215D01*
G01*
X018000000Y-12970000D01*
G01*
X017804910Y-12989215D01*
G01*
X017617317Y-13046120D01*
G01*
X017444430Y-13138530D01*
G01*
X017292893Y-13262893D01*
G01*
X017168530Y-13414430D01*
G01*
X017076120Y-13587317D01*
G01*
X017019215Y-13774910D01*
G01*
X017000000Y-13970000D01*
G01*
X017019215Y-14165090D01*
G01*
X017076120Y-14352683D01*
G01*
X017168530Y-14525570D01*
G01*
X017292893Y-14677107D01*
G01*
X017444430Y-14801470D01*
G01*
X017617317Y-14893880D01*
G01*
X017804910Y-14950785D01*
G01*
X018000000Y-14970000D01*
G37*
D34*
G36*
X040860000Y-14970000D02*
G01*
X041055090Y-14950785D01*
G01*
X041242683Y-14893880D01*
G01*
X041415570Y-14801470D01*
G01*
X041567107Y-14677107D01*
G01*
X041691470Y-14525570D01*
G01*
X041783880Y-14352683D01*
G01*
X041840785Y-14165090D01*
G01*
X041860000Y-13970000D01*
G01*
X041840785Y-13774910D01*
G01*
X041783880Y-13587317D01*
G01*
X041691470Y-13414430D01*
G01*
X041567107Y-13262893D01*
G01*
X041415570Y-13138530D01*
G01*
X041242683Y-13046120D01*
G01*
X041055090Y-12989215D01*
G01*
X040860000Y-12970000D01*
G01*
X040664910Y-12989215D01*
G01*
X040477317Y-13046120D01*
G01*
X040304430Y-13138530D01*
G01*
X040152893Y-13262893D01*
G01*
X040028530Y-13414430D01*
G01*
X039936120Y-13587317D01*
G01*
X039879215Y-13774910D01*
G01*
X039860000Y-13970000D01*
G01*
X039879215Y-14165090D01*
G01*
X039936120Y-14352683D01*
G01*
X040028530Y-14525570D01*
G01*
X040152893Y-14677107D01*
G01*
X040304430Y-14801470D01*
G01*
X040477317Y-14893880D01*
G01*
X040664910Y-14950785D01*
G01*
X040860000Y-14970000D01*
G37*
D34*
G36*
X-71540000Y-16000000D02*
G01*
X-69540000Y-16000000D01*
G01*
X-69540000Y-14000000D01*
G01*
X-71540000Y-14000000D01*
G01*
X-71540000Y-16000000D01*
G37*
D34*
G36*
X-68000000Y-16000000D02*
G01*
X-67804910Y-15980785D01*
G01*
X-67617317Y-15923880D01*
G01*
X-67444430Y-15831470D01*
G01*
X-67292893Y-15707107D01*
G01*
X-67168530Y-15555570D01*
G01*
X-67076120Y-15382683D01*
G01*
X-67019215Y-15195090D01*
G01*
X-67000000Y-15000000D01*
G01*
X-67019215Y-14804910D01*
G01*
X-67076120Y-14617317D01*
G01*
X-67168530Y-14444430D01*
G01*
X-67292893Y-14292893D01*
G01*
X-67444430Y-14168530D01*
G01*
X-67617317Y-14076120D01*
G01*
X-67804910Y-14019215D01*
G01*
X-68000000Y-14000000D01*
G01*
X-68195090Y-14019215D01*
G01*
X-68382683Y-14076120D01*
G01*
X-68555570Y-14168530D01*
G01*
X-68707107Y-14292893D01*
G01*
X-68831470Y-14444430D01*
G01*
X-68923880Y-14617317D01*
G01*
X-68980785Y-14804910D01*
G01*
X-69000000Y-15000000D01*
G01*
X-68980785Y-15195090D01*
G01*
X-68923880Y-15382683D01*
G01*
X-68831470Y-15555570D01*
G01*
X-68707107Y-15707107D01*
G01*
X-68555570Y-15831470D01*
G01*
X-68382683Y-15923880D01*
G01*
X-68195090Y-15980785D01*
G01*
X-68000000Y-16000000D01*
G37*
D34*
G36*
X-02179000Y-18765000D02*
G01*
X-02100964Y-18757314D01*
G01*
X-02025927Y-18734552D01*
G01*
X-01956772Y-18697588D01*
G01*
X-01896157Y-18647843D01*
G01*
X-01846412Y-18587228D01*
G01*
X-01809448Y-18518073D01*
G01*
X-01786686Y-18443036D01*
G01*
X-01779000Y-18365000D01*
G01*
X-01786686Y-18286964D01*
G01*
X-01809448Y-18211927D01*
G01*
X-01846412Y-18142772D01*
G01*
X-01896157Y-18082157D01*
G01*
X-01956772Y-18032412D01*
G01*
X-02025927Y-17995448D01*
G01*
X-02061530Y-17984648D01*
G01*
X-05047552Y-14998627D01*
G01*
X-05049686Y-14976964D01*
G01*
X-05061434Y-14938237D01*
G01*
X-04133220Y-14938237D01*
G01*
X-04069815Y-14931992D01*
G01*
X-04008847Y-14913497D01*
G01*
X-03971777Y-14893683D01*
G01*
X-03896964Y-14886314D01*
G01*
X-03821927Y-14863552D01*
G01*
X-03752772Y-14826588D01*
G01*
X-03692157Y-14776843D01*
G01*
X-03642412Y-14716228D01*
G01*
X-03605448Y-14647073D01*
G01*
X-03582686Y-14572036D01*
G01*
X-03575000Y-14494000D01*
G01*
X-03582686Y-14415964D01*
G01*
X-03605448Y-14340927D01*
G01*
X-03642412Y-14271772D01*
G01*
X-03692157Y-14211157D01*
G01*
X-03752772Y-14161412D01*
G01*
X-03821927Y-14124448D01*
G01*
X-03896964Y-14101686D01*
G01*
X-03975000Y-14094000D01*
G01*
X-04053036Y-14101686D01*
G01*
X-04128073Y-14124448D01*
G01*
X-04197228Y-14161412D01*
G01*
X-04257843Y-14211157D01*
G01*
X-04307588Y-14271772D01*
G01*
X-04316389Y-14288237D01*
G01*
X-05514680Y-14288237D01*
G01*
X-05578084Y-14294481D01*
G01*
X-05639052Y-14312976D01*
G01*
X-05695240Y-14343009D01*
G01*
X-05744489Y-14383427D01*
G01*
X-06069810Y-14708747D01*
G01*
X-06110228Y-14757997D01*
G01*
X-06140261Y-14814185D01*
G01*
X-06158755Y-14875153D01*
G01*
X-06165000Y-14938557D01*
G01*
X-06165000Y-15224526D01*
G01*
X-06172588Y-15233772D01*
G01*
X-06209552Y-15302927D01*
G01*
X-06232314Y-15377964D01*
G01*
X-06240000Y-15456000D01*
G01*
X-06232314Y-15534036D01*
G01*
X-06209552Y-15609073D01*
G01*
X-06172588Y-15678228D01*
G01*
X-06122843Y-15738843D01*
G01*
X-06062228Y-15788588D01*
G01*
X-05993073Y-15825552D01*
G01*
X-05918036Y-15848314D01*
G01*
X-05840000Y-15856000D01*
G01*
X-05761964Y-15848314D01*
G01*
X-05686927Y-15825552D01*
G01*
X-05617772Y-15788588D01*
G01*
X-05557157Y-15738843D01*
G01*
X-05507412Y-15678228D01*
G01*
X-05470448Y-15609073D01*
G01*
X-05447686Y-15534036D01*
G01*
X-05446224Y-15519193D01*
G01*
X-02576660Y-18388758D01*
G01*
X-02571314Y-18443036D01*
G01*
X-02548552Y-18518073D01*
G01*
X-02511588Y-18587228D01*
G01*
X-02461843Y-18647843D01*
G01*
X-02401228Y-18697588D01*
G01*
X-02332073Y-18734552D01*
G01*
X-02257036Y-18757314D01*
G01*
X-02179000Y-18765000D01*
G37*
D34*
G36*
X003447000Y-18152000D02*
G01*
X003525036Y-18144314D01*
G01*
X003600073Y-18121552D01*
G01*
X003669228Y-18084588D01*
G01*
X003729843Y-18034843D01*
G01*
X003779588Y-17974228D01*
G01*
X003816552Y-17905073D01*
G01*
X003839314Y-17830036D01*
G01*
X003847000Y-17752000D01*
G01*
X003839314Y-17673964D01*
G01*
X003816552Y-17598927D01*
G01*
X003779588Y-17529772D01*
G01*
X003729843Y-17469157D01*
G01*
X003669228Y-17419412D01*
G01*
X003600073Y-17382448D01*
G01*
X003542461Y-17364972D01*
G01*
X003273000Y-17095511D01*
G01*
X003273000Y-15272474D01*
G01*
X003280588Y-15263228D01*
G01*
X003317552Y-15194073D01*
G01*
X003340314Y-15119036D01*
G01*
X003348000Y-15041000D01*
G01*
X003340314Y-14962964D01*
G01*
X003317552Y-14887927D01*
G01*
X003280588Y-14818772D01*
G01*
X003230843Y-14758157D01*
G01*
X003170228Y-14708412D01*
G01*
X003101073Y-14671448D01*
G01*
X003026036Y-14648686D01*
G01*
X002948000Y-14641000D01*
G01*
X002869964Y-14648686D01*
G01*
X002794927Y-14671448D01*
G01*
X002725772Y-14708412D01*
G01*
X002665157Y-14758157D01*
G01*
X002615412Y-14818772D01*
G01*
X002578448Y-14887927D01*
G01*
X002555686Y-14962964D01*
G01*
X002548000Y-15041000D01*
G01*
X002555686Y-15119036D01*
G01*
X002578448Y-15194073D01*
G01*
X002615412Y-15263228D01*
G01*
X002623000Y-15272474D01*
G01*
X002623000Y-17230130D01*
G01*
X002629245Y-17293535D01*
G01*
X002647739Y-17354502D01*
G01*
X002677772Y-17410691D01*
G01*
X002718190Y-17459940D01*
G01*
X003051015Y-17792765D01*
G01*
X003054686Y-17830036D01*
G01*
X003077448Y-17905073D01*
G01*
X003114412Y-17974228D01*
G01*
X003164157Y-18034843D01*
G01*
X003224772Y-18084588D01*
G01*
X003293927Y-18121552D01*
G01*
X003368964Y-18144314D01*
G01*
X003447000Y-18152000D01*
G37*
D34*
G36*
X-03967000Y-17998000D02*
G01*
X-03888964Y-17990314D01*
G01*
X-03813927Y-17967552D01*
G01*
X-03744772Y-17930588D01*
G01*
X-03684157Y-17880843D01*
G01*
X-03634412Y-17820228D01*
G01*
X-03597448Y-17751073D01*
G01*
X-03574686Y-17676036D01*
G01*
X-03567000Y-17598000D01*
G01*
X-03574686Y-17519964D01*
G01*
X-03597448Y-17444927D01*
G01*
X-03634412Y-17375772D01*
G01*
X-03684157Y-17315157D01*
G01*
X-03744772Y-17265412D01*
G01*
X-03813927Y-17228448D01*
G01*
X-03888964Y-17205686D01*
G01*
X-03967000Y-17198000D01*
G01*
X-04045036Y-17205686D01*
G01*
X-04120073Y-17228448D01*
G01*
X-04189228Y-17265412D01*
G01*
X-04198474Y-17273000D01*
G01*
X-05387214Y-17273000D01*
G01*
X-07196772Y-15463443D01*
G01*
X-07222286Y-15442504D01*
G01*
X-07239448Y-15385927D01*
G01*
X-07276412Y-15316772D01*
G01*
X-07326157Y-15256157D01*
G01*
X-07386772Y-15206412D01*
G01*
X-07455927Y-15169448D01*
G01*
X-07530964Y-15146686D01*
G01*
X-07609000Y-15139000D01*
G01*
X-07687036Y-15146686D01*
G01*
X-07762073Y-15169448D01*
G01*
X-07831228Y-15206412D01*
G01*
X-07891843Y-15256157D01*
G01*
X-07941588Y-15316772D01*
G01*
X-07978552Y-15385927D01*
G01*
X-08001314Y-15460964D01*
G01*
X-08009000Y-15539000D01*
G01*
X-08001314Y-15617036D01*
G01*
X-07978552Y-15692073D01*
G01*
X-07941588Y-15761228D01*
G01*
X-07891843Y-15821843D01*
G01*
X-07831228Y-15871588D01*
G01*
X-07762073Y-15908552D01*
G01*
X-07687036Y-15931314D01*
G01*
X-07672793Y-15932717D01*
G01*
X-07635308Y-15963480D01*
G01*
X-07593771Y-15985682D01*
G01*
X-05751643Y-17827810D01*
G01*
X-05702394Y-17868228D01*
G01*
X-05646206Y-17898261D01*
G01*
X-05585238Y-17916755D01*
G01*
X-05521834Y-17923000D01*
G01*
X-04198474Y-17923000D01*
G01*
X-04189228Y-17930588D01*
G01*
X-04120073Y-17967552D01*
G01*
X-04045036Y-17990314D01*
G01*
X-03967000Y-17998000D01*
G37*
D34*
G36*
X040860000Y-17510000D02*
G01*
X041055090Y-17490785D01*
G01*
X041242683Y-17433880D01*
G01*
X041415570Y-17341470D01*
G01*
X041567107Y-17217107D01*
G01*
X041691470Y-17065570D01*
G01*
X041783880Y-16892683D01*
G01*
X041840785Y-16705090D01*
G01*
X041860000Y-16510000D01*
G01*
X041840785Y-16314910D01*
G01*
X041783880Y-16127317D01*
G01*
X041691470Y-15954430D01*
G01*
X041567107Y-15802893D01*
G01*
X041415570Y-15678530D01*
G01*
X041242683Y-15586120D01*
G01*
X041055090Y-15529215D01*
G01*
X040860000Y-15510000D01*
G01*
X040664910Y-15529215D01*
G01*
X040477317Y-15586120D01*
G01*
X040304430Y-15678530D01*
G01*
X040152893Y-15802893D01*
G01*
X040028530Y-15954430D01*
G01*
X039936120Y-16127317D01*
G01*
X039879215Y-16314910D01*
G01*
X039860000Y-16510000D01*
G01*
X039879215Y-16705090D01*
G01*
X039936120Y-16892683D01*
G01*
X040028530Y-17065570D01*
G01*
X040152893Y-17217107D01*
G01*
X040304430Y-17341470D01*
G01*
X040477317Y-17433880D01*
G01*
X040664910Y-17490785D01*
G01*
X040860000Y-17510000D01*
G37*
D34*
G36*
X018000000Y-25130000D02*
G01*
X018195090Y-25110785D01*
G01*
X018382683Y-25053880D01*
G01*
X018555570Y-24961470D01*
G01*
X018707107Y-24837107D01*
G01*
X018831470Y-24685570D01*
G01*
X018923880Y-24512683D01*
G01*
X018980785Y-24325090D01*
G01*
X019000000Y-24130000D01*
G01*
X018980785Y-23934910D01*
G01*
X018923880Y-23747317D01*
G01*
X018831470Y-23574430D01*
G01*
X018707107Y-23422893D01*
G01*
X018555570Y-23298530D01*
G01*
X018382683Y-23206120D01*
G01*
X018195090Y-23149215D01*
G01*
X018000000Y-23130000D01*
G01*
X017804910Y-23149215D01*
G01*
X017617317Y-23206120D01*
G01*
X017564155Y-23234535D01*
G01*
X012338810Y-18009190D01*
G01*
X012289560Y-17968772D01*
G01*
X012233372Y-17938739D01*
G01*
X012172404Y-17920245D01*
G01*
X012109000Y-17914000D01*
G01*
X007975474Y-17914000D01*
G01*
X007966228Y-17906412D01*
G01*
X007897073Y-17869448D01*
G01*
X007822036Y-17846686D01*
G01*
X007744000Y-17839000D01*
G01*
X007665964Y-17846686D01*
G01*
X007590927Y-17869448D01*
G01*
X007521772Y-17906412D01*
G01*
X007461157Y-17956157D01*
G01*
X007411412Y-18016772D01*
G01*
X007374448Y-18085927D01*
G01*
X007351686Y-18160964D01*
G01*
X007344000Y-18239000D01*
G01*
X007351686Y-18317036D01*
G01*
X007374448Y-18392073D01*
G01*
X007411412Y-18461228D01*
G01*
X007461157Y-18521843D01*
G01*
X007521772Y-18571588D01*
G01*
X007590927Y-18608552D01*
G01*
X007665964Y-18631314D01*
G01*
X007744000Y-18639000D01*
G01*
X007822036Y-18631314D01*
G01*
X007897073Y-18608552D01*
G01*
X007966228Y-18571588D01*
G01*
X007975474Y-18564000D01*
G01*
X011974380Y-18564000D01*
G01*
X017104535Y-23694155D01*
G01*
X017076120Y-23747317D01*
G01*
X017019215Y-23934910D01*
G01*
X017000000Y-24130000D01*
G01*
X017019215Y-24325090D01*
G01*
X017076120Y-24512683D01*
G01*
X017168530Y-24685570D01*
G01*
X017292893Y-24837107D01*
G01*
X017444430Y-24961470D01*
G01*
X017617317Y-25053880D01*
G01*
X017804910Y-25110785D01*
G01*
X018000000Y-25130000D01*
G37*
D34*
G36*
X040860000Y-20050000D02*
G01*
X041055090Y-20030785D01*
G01*
X041242683Y-19973880D01*
G01*
X041415570Y-19881470D01*
G01*
X041567107Y-19757107D01*
G01*
X041691470Y-19605570D01*
G01*
X041783880Y-19432683D01*
G01*
X041840785Y-19245090D01*
G01*
X041860000Y-19050000D01*
G01*
X041840785Y-18854910D01*
G01*
X041783880Y-18667317D01*
G01*
X041691470Y-18494430D01*
G01*
X041567107Y-18342893D01*
G01*
X041415570Y-18218530D01*
G01*
X041242683Y-18126120D01*
G01*
X041055090Y-18069215D01*
G01*
X040860000Y-18050000D01*
G01*
X040664910Y-18069215D01*
G01*
X040477317Y-18126120D01*
G01*
X040304430Y-18218530D01*
G01*
X040152893Y-18342893D01*
G01*
X040028530Y-18494430D01*
G01*
X039936120Y-18667317D01*
G01*
X039879215Y-18854910D01*
G01*
X039860000Y-19050000D01*
G01*
X039879215Y-19245090D01*
G01*
X039936120Y-19432683D01*
G01*
X040028530Y-19605570D01*
G01*
X040152893Y-19757107D01*
G01*
X040304430Y-19881470D01*
G01*
X040477317Y-19973880D01*
G01*
X040664910Y-20030785D01*
G01*
X040860000Y-20050000D01*
G37*
D34*
G36*
X018000000Y-22590000D02*
G01*
X018195090Y-22570785D01*
G01*
X018382683Y-22513880D01*
G01*
X018555570Y-22421470D01*
G01*
X018707107Y-22297107D01*
G01*
X018831470Y-22145570D01*
G01*
X018923880Y-21972683D01*
G01*
X018980785Y-21785090D01*
G01*
X019000000Y-21590000D01*
G01*
X018980785Y-21394910D01*
G01*
X018923880Y-21207317D01*
G01*
X018831470Y-21034430D01*
G01*
X018707107Y-20882893D01*
G01*
X018555570Y-20758530D01*
G01*
X018382683Y-20666120D01*
G01*
X018195090Y-20609215D01*
G01*
X018000000Y-20590000D01*
G01*
X017804910Y-20609215D01*
G01*
X017617317Y-20666120D01*
G01*
X017444430Y-20758530D01*
G01*
X017292893Y-20882893D01*
G01*
X017168530Y-21034430D01*
G01*
X017076120Y-21207317D01*
G01*
X017019215Y-21394910D01*
G01*
X017000000Y-21590000D01*
G01*
X017019215Y-21785090D01*
G01*
X017076120Y-21972683D01*
G01*
X017168530Y-22145570D01*
G01*
X017292893Y-22297107D01*
G01*
X017444430Y-22421470D01*
G01*
X017617317Y-22513880D01*
G01*
X017804910Y-22570785D01*
G01*
X018000000Y-22590000D01*
G37*
D34*
G36*
X040860000Y-22590000D02*
G01*
X041055090Y-22570785D01*
G01*
X041242683Y-22513880D01*
G01*
X041415570Y-22421470D01*
G01*
X041567107Y-22297107D01*
G01*
X041691470Y-22145570D01*
G01*
X041783880Y-21972683D01*
G01*
X041840785Y-21785090D01*
G01*
X041860000Y-21590000D01*
G01*
X041840785Y-21394910D01*
G01*
X041783880Y-21207317D01*
G01*
X041691470Y-21034430D01*
G01*
X041567107Y-20882893D01*
G01*
X041415570Y-20758530D01*
G01*
X041242683Y-20666120D01*
G01*
X041055090Y-20609215D01*
G01*
X040860000Y-20590000D01*
G01*
X040664910Y-20609215D01*
G01*
X040477317Y-20666120D01*
G01*
X040304430Y-20758530D01*
G01*
X040152893Y-20882893D01*
G01*
X040028530Y-21034430D01*
G01*
X039936120Y-21207317D01*
G01*
X039879215Y-21394910D01*
G01*
X039860000Y-21590000D01*
G01*
X039879215Y-21785090D01*
G01*
X039936120Y-21972683D01*
G01*
X040028530Y-22145570D01*
G01*
X040152893Y-22297107D01*
G01*
X040304430Y-22421470D01*
G01*
X040477317Y-22513880D01*
G01*
X040664910Y-22570785D01*
G01*
X040860000Y-22590000D01*
G37*
D34*
G36*
X040860000Y-25130000D02*
G01*
X041055090Y-25110785D01*
G01*
X041242683Y-25053880D01*
G01*
X041415570Y-24961470D01*
G01*
X041567107Y-24837107D01*
G01*
X041691470Y-24685570D01*
G01*
X041783880Y-24512683D01*
G01*
X041840785Y-24325090D01*
G01*
X041860000Y-24130000D01*
G01*
X041840785Y-23934910D01*
G01*
X041783880Y-23747317D01*
G01*
X041691470Y-23574430D01*
G01*
X041567107Y-23422893D01*
G01*
X041415570Y-23298530D01*
G01*
X041242683Y-23206120D01*
G01*
X041055090Y-23149215D01*
G01*
X040860000Y-23130000D01*
G01*
X040664910Y-23149215D01*
G01*
X040477317Y-23206120D01*
G01*
X040304430Y-23298530D01*
G01*
X040152893Y-23422893D01*
G01*
X040028530Y-23574430D01*
G01*
X039936120Y-23747317D01*
G01*
X039879215Y-23934910D01*
G01*
X039860000Y-24130000D01*
G01*
X039879215Y-24325090D01*
G01*
X039936120Y-24512683D01*
G01*
X040028530Y-24685570D01*
G01*
X040152893Y-24837107D01*
G01*
X040304430Y-24961470D01*
G01*
X040477317Y-25053880D01*
G01*
X040664910Y-25110785D01*
G01*
X040860000Y-25130000D01*
G37*
D34*
G36*
X019520000Y-45670000D02*
G01*
X022020000Y-45670000D01*
G01*
X022020000Y-43629620D01*
G01*
X022290000Y-43359620D01*
G01*
X022290000Y-45670000D01*
G01*
X024790000Y-45670000D01*
G01*
X024790000Y-43170000D01*
G01*
X023296973Y-43170000D01*
G01*
X023316454Y-43159587D01*
G01*
X023365703Y-43119169D01*
G01*
X025978433Y-40506439D01*
G01*
X026018851Y-40457190D01*
G01*
X026048884Y-40401001D01*
G01*
X026067378Y-40340034D01*
G01*
X026073623Y-40276629D01*
G01*
X026073623Y-37275234D01*
G01*
X026096964Y-37282314D01*
G01*
X026175000Y-37290000D01*
G01*
X026253036Y-37282314D01*
G01*
X026328073Y-37259552D01*
G01*
X026397228Y-37222588D01*
G01*
X026457843Y-37172843D01*
G01*
X026507588Y-37112228D01*
G01*
X026544552Y-37043073D01*
G01*
X026567314Y-36968036D01*
G01*
X026568486Y-36956134D01*
G01*
X032766536Y-30758083D01*
G01*
X032806954Y-30708834D01*
G01*
X032836987Y-30652646D01*
G01*
X032855482Y-30591678D01*
G01*
X032861726Y-30528274D01*
G01*
X032861726Y-28262346D01*
G01*
X033734514Y-29135134D01*
G01*
X033735686Y-29147036D01*
G01*
X033758448Y-29222073D01*
G01*
X033795412Y-29291228D01*
G01*
X033845157Y-29351843D01*
G01*
X033905772Y-29401588D01*
G01*
X033974927Y-29438552D01*
G01*
X034049964Y-29461314D01*
G01*
X034128000Y-29469000D01*
G01*
X034206036Y-29461314D01*
G01*
X034281073Y-29438552D01*
G01*
X034350228Y-29401588D01*
G01*
X034410843Y-29351843D01*
G01*
X034460588Y-29291228D01*
G01*
X034468694Y-29276063D01*
G01*
X034491448Y-29351073D01*
G01*
X034528412Y-29420228D01*
G01*
X034578157Y-29480843D01*
G01*
X034638772Y-29530588D01*
G01*
X034707927Y-29567552D01*
G01*
X034782964Y-29590314D01*
G01*
X034794867Y-29591486D01*
G01*
X035030837Y-29827457D01*
G01*
X035028448Y-29831927D01*
G01*
X035005686Y-29906964D01*
G01*
X034998000Y-29985000D01*
G01*
X035005686Y-30063036D01*
G01*
X035028448Y-30138073D01*
G01*
X035065412Y-30207228D01*
G01*
X035115157Y-30267843D01*
G01*
X035175772Y-30317588D01*
G01*
X035244927Y-30354552D01*
G01*
X035319964Y-30377314D01*
G01*
X035398000Y-30385000D01*
G01*
X035476036Y-30377314D01*
G01*
X035551073Y-30354552D01*
G01*
X035620228Y-30317588D01*
G01*
X035680843Y-30267843D01*
G01*
X035730588Y-30207228D01*
G01*
X035767552Y-30138073D01*
G01*
X035790314Y-30063036D01*
G01*
X035798000Y-29985000D01*
G01*
X035790314Y-29906964D01*
G01*
X035767552Y-29831927D01*
G01*
X035730588Y-29762772D01*
G01*
X035723000Y-29753526D01*
G01*
X035723000Y-29735000D01*
G01*
X035722626Y-29731206D01*
G01*
X048344411Y-42352991D01*
G01*
X048344411Y-42804133D01*
G01*
X048350656Y-42867538D01*
G01*
X048369151Y-42928505D01*
G01*
X048399184Y-42984694D01*
G01*
X048439602Y-43033943D01*
G01*
X048488851Y-43074361D01*
G01*
X048545039Y-43104394D01*
G01*
X048606007Y-43122888D01*
G01*
X048669411Y-43129133D01*
G01*
X052249514Y-43129133D01*
G01*
X052290381Y-43170000D01*
G01*
X049980000Y-43170000D01*
G01*
X049980000Y-45670000D01*
G01*
X052480000Y-45670000D01*
G01*
X052480000Y-43359619D01*
G01*
X052750000Y-43629619D01*
G01*
X052750000Y-45670000D01*
G01*
X055250000Y-45670000D01*
G01*
X055250000Y-43170000D01*
G01*
X053209619Y-43170000D01*
G01*
X052613943Y-42574324D01*
G01*
X052564694Y-42533906D01*
G01*
X052508505Y-42503872D01*
G01*
X052447538Y-42485378D01*
G01*
X052384133Y-42479133D01*
G01*
X048994411Y-42479133D01*
G01*
X048994411Y-42218372D01*
G01*
X048988167Y-42154968D01*
G01*
X048969672Y-42094000D01*
G01*
X048939639Y-42037812D01*
G01*
X048899221Y-41988562D01*
G01*
X036020247Y-29109588D01*
G01*
X036018314Y-29089964D01*
G01*
X035995552Y-29014927D01*
G01*
X035958588Y-28945772D01*
G01*
X035908843Y-28885157D01*
G01*
X035848228Y-28835412D01*
G01*
X035779073Y-28798448D01*
G01*
X035704036Y-28775686D01*
G01*
X035626000Y-28768000D01*
G01*
X035547964Y-28775686D01*
G01*
X035472927Y-28798448D01*
G01*
X035403772Y-28835412D01*
G01*
X035343157Y-28885157D01*
G01*
X035293412Y-28945772D01*
G01*
X035256448Y-29014927D01*
G01*
X035238950Y-29072611D01*
G01*
X035230552Y-29044927D01*
G01*
X035193588Y-28975772D01*
G01*
X035143843Y-28915157D01*
G01*
X035083228Y-28865412D01*
G01*
X035014073Y-28828448D01*
G01*
X034939036Y-28805686D01*
G01*
X034861000Y-28798000D01*
G01*
X034782964Y-28805686D01*
G01*
X034707927Y-28828448D01*
G01*
X034638772Y-28865412D01*
G01*
X034578157Y-28915157D01*
G01*
X034528412Y-28975772D01*
G01*
X034520306Y-28990937D01*
G01*
X034497552Y-28915927D01*
G01*
X034460588Y-28846772D01*
G01*
X034410843Y-28786157D01*
G01*
X034350228Y-28736412D01*
G01*
X034281073Y-28699448D01*
G01*
X034206036Y-28676686D01*
G01*
X034194134Y-28675514D01*
G01*
X033282000Y-27763380D01*
G01*
X033282000Y-25006474D01*
G01*
X033289588Y-24997228D01*
G01*
X033326552Y-24928073D01*
G01*
X033349314Y-24853036D01*
G01*
X033354060Y-24804845D01*
G01*
X033446196Y-24896981D01*
G01*
X033457448Y-24934073D01*
G01*
X033494412Y-25003228D01*
G01*
X033544157Y-25063843D01*
G01*
X033604772Y-25113588D01*
G01*
X033673927Y-25150552D01*
G01*
X033748964Y-25173314D01*
G01*
X033827000Y-25181000D01*
G01*
X033905036Y-25173314D01*
G01*
X033980073Y-25150552D01*
G01*
X034049228Y-25113588D01*
G01*
X034109843Y-25063843D01*
G01*
X034159588Y-25003228D01*
G01*
X034196552Y-24934073D01*
G01*
X034219314Y-24859036D01*
G01*
X034227000Y-24781000D01*
G01*
X034219314Y-24702964D01*
G01*
X034196552Y-24627927D01*
G01*
X034159588Y-24558772D01*
G01*
X034109843Y-24498157D01*
G01*
X034049228Y-24448412D01*
G01*
X033980073Y-24411448D01*
G01*
X033905036Y-24388686D01*
G01*
X033851907Y-24383453D01*
G01*
X033644631Y-24176177D01*
G01*
X033595382Y-24135759D01*
G01*
X033539194Y-24105726D01*
G01*
X033478226Y-24087231D01*
G01*
X033414822Y-24080987D01*
G01*
X032841991Y-24080987D01*
G01*
X032778586Y-24087231D01*
G01*
X032717618Y-24105726D01*
G01*
X032661430Y-24135759D01*
G01*
X032612181Y-24176177D01*
G01*
X032306917Y-24481441D01*
G01*
X032266499Y-24530691D01*
G01*
X032236466Y-24586879D01*
G01*
X032217971Y-24647846D01*
G01*
X032211726Y-24711251D01*
G01*
X032211726Y-24777002D01*
G01*
X032211726Y-30393655D01*
G01*
X026108866Y-36496514D01*
G01*
X026096964Y-36497686D01*
G01*
X026073623Y-36504766D01*
G01*
X026073623Y-35534000D01*
G01*
X026073623Y-31878429D01*
G01*
X031723680Y-26228372D01*
G01*
X031775036Y-26223314D01*
G01*
X031850073Y-26200552D01*
G01*
X031919228Y-26163588D01*
G01*
X031979843Y-26113843D01*
G01*
X032029588Y-26053228D01*
G01*
X032066552Y-25984073D01*
G01*
X032089314Y-25909036D01*
G01*
X032097000Y-25831000D01*
G01*
X032089314Y-25752964D01*
G01*
X032066552Y-25677927D01*
G01*
X032029588Y-25608772D01*
G01*
X031979843Y-25548157D01*
G01*
X031919228Y-25498412D01*
G01*
X031850073Y-25461448D01*
G01*
X031775036Y-25438686D01*
G01*
X031697000Y-25431000D01*
G01*
X031618964Y-25438686D01*
G01*
X031543927Y-25461448D01*
G01*
X031474772Y-25498412D01*
G01*
X031414157Y-25548157D01*
G01*
X031364412Y-25608772D01*
G01*
X031327448Y-25677927D01*
G01*
X031315501Y-25717312D01*
G01*
X025518814Y-31513999D01*
G01*
X025478396Y-31563249D01*
G01*
X025448362Y-31619437D01*
G01*
X025429868Y-31680405D01*
G01*
X025423623Y-31743809D01*
G01*
X025423623Y-35534000D01*
G01*
X025423623Y-40142010D01*
G01*
X023405000Y-42160633D01*
G01*
X023405000Y-40330000D01*
G01*
X020905000Y-40330000D01*
G01*
X020905000Y-42830000D01*
G01*
X021900380Y-42830000D01*
G01*
X021560380Y-43170000D01*
G01*
X019520000Y-43170000D01*
G01*
X019520000Y-45670000D01*
G37*
D34*
G36*
X017000000Y-27670000D02*
G01*
X019000000Y-27670000D01*
G01*
X019000000Y-25670000D01*
G01*
X017000000Y-25670000D01*
G01*
X017000000Y-27670000D01*
G37*
D34*
G36*
X-10940000Y-29290000D02*
G01*
X-08740000Y-29290000D01*
G01*
X-08740000Y-27090000D01*
G01*
X-10940000Y-27090000D01*
G01*
X-10940000Y-29290000D01*
G37*
D34*
G36*
X-10940000Y-34370000D02*
G01*
X-08740000Y-34370000D01*
G01*
X-08740000Y-32629620D01*
G01*
X-06970190Y-30859810D01*
G01*
X-06929772Y-30810560D01*
G01*
X-06899739Y-30754372D01*
G01*
X-06881245Y-30693404D01*
G01*
X-06875000Y-30630000D01*
G01*
X-06875000Y-29031474D01*
G01*
X-06867412Y-29022228D01*
G01*
X-06830448Y-28953073D01*
G01*
X-06807686Y-28878036D01*
G01*
X-06800000Y-28800000D01*
G01*
X-06807686Y-28721964D01*
G01*
X-06830448Y-28646927D01*
G01*
X-06867412Y-28577772D01*
G01*
X-06917157Y-28517157D01*
G01*
X-06977772Y-28467412D01*
G01*
X-07046927Y-28430448D01*
G01*
X-07121964Y-28407686D01*
G01*
X-07200000Y-28400000D01*
G01*
X-07278036Y-28407686D01*
G01*
X-07353073Y-28430448D01*
G01*
X-07422228Y-28467412D01*
G01*
X-07482843Y-28517157D01*
G01*
X-07532588Y-28577772D01*
G01*
X-07569552Y-28646927D01*
G01*
X-07592314Y-28721964D01*
G01*
X-07600000Y-28800000D01*
G01*
X-07592314Y-28878036D01*
G01*
X-07569552Y-28953073D01*
G01*
X-07532588Y-29022228D01*
G01*
X-07525000Y-29031474D01*
G01*
X-07525000Y-30495380D01*
G01*
X-08740000Y-31710380D01*
G01*
X-08740000Y-29630000D01*
G01*
X-10940000Y-29630000D01*
G01*
X-10940000Y-31830000D01*
G01*
X-08859620Y-31830000D01*
G01*
X-09199620Y-32170000D01*
G01*
X-10940000Y-32170000D01*
G01*
X-10940000Y-34370000D01*
G37*
D34*
G36*
X-10940000Y-36910000D02*
G01*
X-08740000Y-36910000D01*
G01*
X-08740000Y-34710000D01*
G01*
X-10940000Y-34710000D01*
G01*
X-10940000Y-36910000D01*
G37*
D34*
G36*
X018135000Y-42830000D02*
G01*
X020635000Y-42830000D01*
G01*
X020635000Y-40330000D01*
G01*
X018135000Y-40330000D01*
G01*
X018135000Y-42830000D01*
G37*
D34*
G36*
X054135000Y-42830000D02*
G01*
X056635000Y-42830000D01*
G01*
X056635000Y-40330000D01*
G01*
X054135000Y-40330000D01*
G01*
X054135000Y-42830000D01*
G37*
D34*
G36*
X056905000Y-42830000D02*
G01*
X059405000Y-42830000D01*
G01*
X059405000Y-40330000D01*
G01*
X056905000Y-40330000D01*
G01*
X056905000Y-42830000D01*
G37*
D34*
G36*
X005505000Y-44850000D02*
G01*
X005865917Y-44814453D01*
G01*
X006212964Y-44709177D01*
G01*
X006532805Y-44538219D01*
G01*
X006813148Y-44308148D01*
G01*
X007043219Y-44027805D01*
G01*
X007214177Y-43707964D01*
G01*
X007319453Y-43360917D01*
G01*
X007355000Y-43000000D01*
G01*
X007319453Y-42639083D01*
G01*
X007214177Y-42292036D01*
G01*
X007043219Y-41972195D01*
G01*
X006813148Y-41691852D01*
G01*
X006532805Y-41461781D01*
G01*
X006212964Y-41290823D01*
G01*
X005865917Y-41185547D01*
G01*
X005505000Y-41150000D01*
G01*
X005144083Y-41185547D01*
G01*
X004797036Y-41290823D01*
G01*
X004477195Y-41461781D01*
G01*
X004196852Y-41691852D01*
G01*
X003966781Y-41972195D01*
G01*
X003795823Y-42292036D01*
G01*
X003690547Y-42639083D01*
G01*
X003655000Y-43000000D01*
G01*
X003690547Y-43360917D01*
G01*
X003795823Y-43707964D01*
G01*
X003966781Y-44027805D01*
G01*
X004196852Y-44308148D01*
G01*
X004477195Y-44538219D01*
G01*
X004797036Y-44709177D01*
G01*
X005144083Y-44814453D01*
G01*
X005505000Y-44850000D01*
G37*
D34*
G36*
X030495000Y-44850000D02*
G01*
X030855917Y-44814453D01*
G01*
X031202964Y-44709177D01*
G01*
X031522805Y-44538219D01*
G01*
X031803148Y-44308148D01*
G01*
X032033219Y-44027805D01*
G01*
X032204177Y-43707964D01*
G01*
X032309453Y-43360917D01*
G01*
X032345000Y-43000000D01*
G01*
X032309453Y-42639083D01*
G01*
X032204177Y-42292036D01*
G01*
X032033219Y-41972195D01*
G01*
X031803148Y-41691852D01*
G01*
X031522805Y-41461781D01*
G01*
X031202964Y-41290823D01*
G01*
X030855917Y-41185547D01*
G01*
X030495000Y-41150000D01*
G01*
X030134083Y-41185547D01*
G01*
X029787036Y-41290823D01*
G01*
X029467195Y-41461781D01*
G01*
X029186852Y-41691852D01*
G01*
X028956781Y-41972195D01*
G01*
X028785823Y-42292036D01*
G01*
X028680547Y-42639083D01*
G01*
X028645000Y-43000000D01*
G01*
X028680547Y-43360917D01*
G01*
X028785823Y-43707964D01*
G01*
X028956781Y-44027805D01*
G01*
X029186852Y-44308148D01*
G01*
X029467195Y-44538219D01*
G01*
X029787036Y-44709177D01*
G01*
X030134083Y-44814453D01*
G01*
X030495000Y-44850000D01*
G37*
D34*
G36*
X041505000Y-44850000D02*
G01*
X041865917Y-44814453D01*
G01*
X042212964Y-44709177D01*
G01*
X042532805Y-44538219D01*
G01*
X042813148Y-44308148D01*
G01*
X043043219Y-44027805D01*
G01*
X043214177Y-43707964D01*
G01*
X043319453Y-43360917D01*
G01*
X043355000Y-43000000D01*
G01*
X043319453Y-42639083D01*
G01*
X043214177Y-42292036D01*
G01*
X043043219Y-41972195D01*
G01*
X042813148Y-41691852D01*
G01*
X042532805Y-41461781D01*
G01*
X042212964Y-41290823D01*
G01*
X041865917Y-41185547D01*
G01*
X041505000Y-41150000D01*
G01*
X041144083Y-41185547D01*
G01*
X040797036Y-41290823D01*
G01*
X040477195Y-41461781D01*
G01*
X040196852Y-41691852D01*
G01*
X039966781Y-41972195D01*
G01*
X039795823Y-42292036D01*
G01*
X039690547Y-42639083D01*
G01*
X039655000Y-43000000D01*
G01*
X039690547Y-43360917D01*
G01*
X039795823Y-43707964D01*
G01*
X039966781Y-44027805D01*
G01*
X040196852Y-44308148D01*
G01*
X040477195Y-44538219D01*
G01*
X040797036Y-44709177D01*
G01*
X041144083Y-44814453D01*
G01*
X041505000Y-44850000D01*
G37*
D34*
G36*
X066495000Y-44850000D02*
G01*
X066855917Y-44814453D01*
G01*
X067202964Y-44709177D01*
G01*
X067522805Y-44538219D01*
G01*
X067803148Y-44308148D01*
G01*
X068033219Y-44027805D01*
G01*
X068204177Y-43707964D01*
G01*
X068309453Y-43360917D01*
G01*
X068345000Y-43000000D01*
G01*
X068309453Y-42639083D01*
G01*
X068204177Y-42292036D01*
G01*
X068033219Y-41972195D01*
G01*
X067803148Y-41691852D01*
G01*
X067522805Y-41461781D01*
G01*
X067202964Y-41290823D01*
G01*
X066855917Y-41185547D01*
G01*
X066495000Y-41150000D01*
G01*
X066134083Y-41185547D01*
G01*
X065787036Y-41290823D01*
G01*
X065467195Y-41461781D01*
G01*
X065186852Y-41691852D01*
G01*
X064956781Y-41972195D01*
G01*
X064785823Y-42292036D01*
G01*
X064680547Y-42639083D01*
G01*
X064645000Y-43000000D01*
G01*
X064680547Y-43360917D01*
G01*
X064785823Y-43707964D01*
G01*
X064956781Y-44027805D01*
G01*
X065186852Y-44308148D01*
G01*
X065467195Y-44538219D01*
G01*
X065787036Y-44709177D01*
G01*
X066134083Y-44814453D01*
G01*
X066495000Y-44850000D01*
G37*
D34*
G36*
X-75000000Y-46850000D02*
G01*
X-74639083Y-46814453D01*
G01*
X-74292036Y-46709177D01*
G01*
X-73972195Y-46538219D01*
G01*
X-73691852Y-46308148D01*
G01*
X-73461781Y-46027805D01*
G01*
X-73290823Y-45707964D01*
G01*
X-73185547Y-45360917D01*
G01*
X-73150000Y-45000000D01*
G01*
X-73185547Y-44639083D01*
G01*
X-73290823Y-44292036D01*
G01*
X-73461781Y-43972195D01*
G01*
X-73691852Y-43691852D01*
G01*
X-73972195Y-43461781D01*
G01*
X-74292036Y-43290823D01*
G01*
X-74639083Y-43185547D01*
G01*
X-75000000Y-43150000D01*
G01*
X-75360917Y-43185547D01*
G01*
X-75707964Y-43290823D01*
G01*
X-76027805Y-43461781D01*
G01*
X-76308148Y-43691852D01*
G01*
X-76538219Y-43972195D01*
G01*
X-76709177Y-44292036D01*
G01*
X-76814453Y-44639083D01*
G01*
X-76850000Y-45000000D01*
G01*
X-76814453Y-45360917D01*
G01*
X-76709177Y-45707964D01*
G01*
X-76538219Y-46027805D01*
G01*
X-76308148Y-46308148D01*
G01*
X-76027805Y-46538219D01*
G01*
X-75707964Y-46709177D01*
G01*
X-75360917Y-46814453D01*
G01*
X-75000000Y-46850000D01*
G37*
D34*
G36*
X075000000Y-46850000D02*
G01*
X075360917Y-46814453D01*
G01*
X075707964Y-46709177D01*
G01*
X076027805Y-46538219D01*
G01*
X076308148Y-46308148D01*
G01*
X076538219Y-46027805D01*
G01*
X076709177Y-45707964D01*
G01*
X076814453Y-45360917D01*
G01*
X076850000Y-45000000D01*
G01*
X076814453Y-44639083D01*
G01*
X076709177Y-44292036D01*
G01*
X076538219Y-43972195D01*
G01*
X076308148Y-43691852D01*
G01*
X076027805Y-43461781D01*
G01*
X075707964Y-43290823D01*
G01*
X075360917Y-43185547D01*
G01*
X075000000Y-43150000D01*
G01*
X074639083Y-43185547D01*
G01*
X074292036Y-43290823D01*
G01*
X073972195Y-43461781D01*
G01*
X073691852Y-43691852D01*
G01*
X073461781Y-43972195D01*
G01*
X073290823Y-44292036D01*
G01*
X073185547Y-44639083D01*
G01*
X073150000Y-45000000D01*
G01*
X073185547Y-45360917D01*
G01*
X073290823Y-45707964D01*
G01*
X073461781Y-46027805D01*
G01*
X073691852Y-46308148D01*
G01*
X073972195Y-46538219D01*
G01*
X074292036Y-46709177D01*
G01*
X074639083Y-46814453D01*
G01*
X075000000Y-46850000D01*
G37*
D34*
G36*
X011210000Y-45670000D02*
G01*
X013710000Y-45670000D01*
G01*
X013710000Y-43170000D01*
G01*
X011210000Y-43170000D01*
G01*
X011210000Y-45670000D01*
G37*
D34*
G36*
X013980000Y-45670000D02*
G01*
X016480000Y-45670000D01*
G01*
X016480000Y-43170000D01*
G01*
X013980000Y-43170000D01*
G01*
X013980000Y-45670000D01*
G37*
D34*
G36*
X016750000Y-45670000D02*
G01*
X019250000Y-45670000D01*
G01*
X019250000Y-43170000D01*
G01*
X016750000Y-43170000D01*
G01*
X016750000Y-45670000D01*
G37*
D34*
G36*
X047210000Y-45670000D02*
G01*
X049710000Y-45670000D01*
G01*
X049710000Y-43170000D01*
G01*
X047210000Y-43170000D01*
G01*
X047210000Y-45670000D01*
G37*
D34*
G36*
X055520000Y-45670000D02*
G01*
X058020000Y-45670000D01*
G01*
X058020000Y-43170000D01*
G01*
X055520000Y-43170000D01*
G01*
X055520000Y-45670000D01*
G37*
D34*
G36*
X058290000Y-45670000D02*
G01*
X060790000Y-45670000D01*
G01*
X060790000Y-43170000D01*
G01*
X058290000Y-43170000D01*
G01*
X058290000Y-45670000D01*
G37*
%LPD*%
D13*
X018000000Y-26670000D03*
D14*
X018000000Y-24130000D03*
D14*
X018000000Y-21590000D03*
D14*
X018000000Y-19050000D03*
D14*
X018000000Y-16510000D03*
D14*
X018000000Y-13970000D03*
D14*
X018000000Y-11430000D03*
D14*
X018000000Y-08890000D03*
D14*
X018000000Y-06350000D03*
D14*
X018000000Y-03810000D03*
D14*
X018000000Y-01270000D03*
D14*
X018000000Y001270000D03*
D14*
X018000000Y003810000D03*
D14*
X018000000Y006350000D03*
D14*
X018000000Y008890000D03*
D14*
X018000000Y011430000D03*
D14*
X018000000Y013970000D03*
D14*
X018000000Y016510000D03*
D14*
X018000000Y019050000D03*
D14*
X018000000Y021590000D03*
D14*
X018000000Y024130000D03*
D14*
X018000000Y026670000D03*
D13*
X040860000Y-26670000D03*
D14*
X040860000Y-24130000D03*
D14*
X040860000Y-21590000D03*
D14*
X040860000Y-19050000D03*
D14*
X040860000Y-16510000D03*
D14*
X040860000Y-13970000D03*
D14*
X040860000Y-11430000D03*
D14*
X040860000Y-08890000D03*
D14*
X040860000Y-06350000D03*
D14*
X040860000Y-03810000D03*
D14*
X040860000Y-01270000D03*
D14*
X040860000Y001270000D03*
D14*
X040860000Y003810000D03*
D14*
X040860000Y006350000D03*
D14*
X040860000Y008890000D03*
D14*
X040860000Y011430000D03*
D14*
X040860000Y013970000D03*
D14*
X040860000Y016510000D03*
D14*
X040860000Y019050000D03*
D14*
X040860000Y021590000D03*
D14*
X040860000Y024130000D03*
D14*
X040860000Y026670000D03*
D13*
X-70540000Y-15000000D03*
D14*
X-68000000Y-15000000D03*
D14*
X-65460000Y-15000000D03*
D13*
X-70540000Y000000000D03*
D14*
X-68000000Y000000000D03*
D14*
X-65460000Y000000000D03*
D13*
X-76500000Y015000000D03*
D19*
X-64540000Y017500000D03*
D19*
X-59460000Y017500000D03*
D21*
X-44160000Y040350000D03*
D21*
X-41620000Y040350000D03*
D21*
X-44160000Y037810000D03*
D21*
X-41620000Y037810000D03*
D21*
X-44160000Y035270000D03*
D21*
X-41620000Y035270000D03*
D21*
X-44160000Y032730000D03*
D21*
X-41620000Y032730000D03*
D21*
X-44160000Y030190000D03*
D21*
X-41620000Y030190000D03*
D21*
X-44160000Y027650000D03*
D21*
X-41620000Y027650000D03*
D25*
X-30160000Y-38350000D03*
D25*
X-30160000Y-35810000D03*
D25*
X-30160000Y-33270000D03*
D25*
X-30160000Y-30730000D03*
D25*
X-30160000Y-28190000D03*
D25*
X-30160000Y-25650000D03*
D25*
X-09840000Y-38350000D03*
D25*
X-09840000Y-35810000D03*
D25*
X-09840000Y-33270000D03*
D25*
X-09840000Y-30730000D03*
D25*
X-09840000Y-28190000D03*
D25*
X-09840000Y-25650000D03*
D28*
X065730000Y027000000D03*
D28*
X068270000Y027000000D03*
D28*
X065730000Y020000000D03*
D28*
X068270000Y020000000D03*
D29*
X069540000Y036000000D03*
D29*
X067000000Y036000000D03*
D29*
X064460000Y036000000D03*
D13*
X064460000Y008000000D03*
D14*
X067000000Y008000000D03*
D14*
X069540000Y008000000D03*
D28*
X064500000Y-12000000D03*
D28*
X069500000Y-12000000D03*
D28*
X012460000Y-44420000D03*
D28*
X015230000Y-44420000D03*
D28*
X018000000Y-44420000D03*
D28*
X020770000Y-44420000D03*
D28*
X023540000Y-44420000D03*
D28*
X013845000Y-41580000D03*
D28*
X016615000Y-41580000D03*
D28*
X019385000Y-41580000D03*
D28*
X022155000Y-41580000D03*
D28*
X048460000Y-44420000D03*
D28*
X051230000Y-44420000D03*
D28*
X054000000Y-44420000D03*
D28*
X056770000Y-44420000D03*
D28*
X059540000Y-44420000D03*
D28*
X049845000Y-41580000D03*
D28*
X052615000Y-41580000D03*
D28*
X055385000Y-41580000D03*
D28*
X058155000Y-41580000D03*
D10*
X004992000Y-09239000D02*
X004992000Y-09239000D01*
D10*
X004992000Y-09239000D02*
X004978288Y-09252712D01*
D10*
X004978288Y-09252712D02*
X004978288Y-09345983D01*
D10*
X004978288Y-09345983D02*
X004978288Y-10339712D01*
D10*
X004978288Y-10339712D02*
X004623000Y-10695000D01*
D10*
X004623000Y-10695000D02*
X004623000Y-10695000D01*
D10*
X-03975000Y-14494000D02*
X-03975000Y-14494000D01*
D10*
X-03975000Y-14494000D02*
X-04011859Y-14530859D01*
D10*
X-04011859Y-14530859D02*
X-04050842Y-14530859D01*
D10*
X-04050842Y-14530859D02*
X-04133220Y-14613237D01*
D10*
X-04133220Y-14613237D02*
X-05514680Y-14613237D01*
D10*
X-05514680Y-14613237D02*
X-05840000Y-14938557D01*
D10*
X-05840000Y-14938557D02*
X-05840000Y-15456000D01*
D10*
X-05840000Y-15456000D02*
X-05840000Y-15456000D01*
D10*
X018000000Y-06350000D02*
X009178860Y-06350000D01*
D10*
X009178860Y-06350000D02*
X007991796Y-07537064D01*
D10*
X007991796Y-07537064D02*
X007907936Y-07537064D01*
D10*
X007907936Y-07537064D02*
X007815000Y-07630000D01*
D10*
X007815000Y-07630000D02*
X007815000Y-07630000D01*
D10*
X-30160000Y-28190000D02*
X-25765683Y-23795683D01*
D10*
X-25765683Y-23795683D02*
X-25765683Y-20260683D01*
D10*
X-25765683Y-20260683D02*
X-25752000Y-20247000D01*
D10*
X-25752000Y-20247000D02*
X-25752000Y-20247000D01*
D10*
X-12475000Y-17799000D02*
X-12475000Y-17799000D01*
D10*
X-12475000Y-17799000D02*
X-12475000Y-17438249D01*
D10*
X-12475000Y-17438249D02*
X-08135368Y-13098617D01*
D10*
X-08135368Y-13098617D02*
X-08135368Y-13054368D01*
D10*
X-08135368Y-13054368D02*
X-08039000Y-12958000D01*
D10*
X-08039000Y-12958000D02*
X-08039000Y-12958000D01*
D10*
X018000000Y-08890000D02*
X016276283Y-10613717D01*
D10*
X016276283Y-10613717D02*
X013931668Y-10613717D01*
D10*
X013931668Y-10613717D02*
X-01104615Y-25650000D01*
D10*
X-01104615Y-25650000D02*
X-09840000Y-25650000D01*
D10*
X018000000Y021590000D02*
X016964273Y020554273D01*
D10*
X016964273Y020554273D02*
X016964273Y016015273D01*
D10*
X016964273Y016015273D02*
X-01566000Y-02515000D01*
D10*
X-01566000Y-02515000D02*
X-01566000Y-02515000D01*
D10*
X-04531000Y-05732000D02*
X-04531000Y-05732000D01*
D10*
X-04531000Y-05732000D02*
X-04573300Y-05774300D01*
D10*
X-04573300Y-05774300D02*
X-10610112Y-11811112D01*
D10*
X-10610112Y-11811112D02*
X-12557938Y-11811112D01*
D10*
X-12557938Y-11811112D02*
X-12557938Y-15667938D01*
D10*
X-12557938Y-15667938D02*
X-30160000Y-33270000D01*
D10*
X007684000Y017385000D02*
X007684000Y017385000D01*
D10*
X007684000Y017385000D02*
X007814238Y017254762D01*
D10*
X007814238Y017254762D02*
X007814238Y017238151D01*
D10*
X007814238Y017238151D02*
X007814238Y009830238D01*
D10*
X007814238Y009830238D02*
X004430000Y006446000D01*
D10*
X004430000Y006446000D02*
X004430000Y006446000D01*
D10*
X-06584000Y001061000D02*
X-06584000Y001061000D01*
D10*
X-06584000Y001061000D02*
X-06624231Y001020769D01*
D10*
X-06624231Y001020769D02*
X-06624231Y001020168D01*
D10*
X-06624231Y001020168D02*
X-13350203Y-05705804D01*
D10*
X-13350203Y-05705804D02*
X-13350203Y-07942950D01*
D10*
X-13350203Y-07942950D02*
X-13350203Y-13920203D01*
D10*
X-13350203Y-13920203D02*
X-30160000Y-30730000D01*
D10*
X032957000Y-24775000D02*
X032957000Y-24775000D01*
D10*
X032957000Y-24775000D02*
X032957000Y-27898000D01*
D10*
X032957000Y-27898000D02*
X034070889Y-29011889D01*
D10*
X034070889Y-29011889D02*
X034128000Y-29069000D01*
D10*
X034128000Y-29069000D02*
X034128000Y-29069000D01*
D10*
X045179000Y-08797000D02*
X045179000Y-08797000D01*
D10*
X045179000Y-08797000D02*
X045140599Y-08758599D01*
D10*
X045140599Y-08758599D02*
X045140599Y-08673213D01*
D10*
X045140599Y-08673213D02*
X045042000Y-08574614D01*
D10*
X045042000Y-08574614D02*
X045042000Y-06465000D01*
D10*
X045042000Y-06465000D02*
X045042000Y-06465000D01*
D10*
X-07200000Y-28800000D02*
X-07200000Y-28800000D01*
D10*
X-07200000Y-28800000D02*
X-07200000Y-30630000D01*
D10*
X-07200000Y-30630000D02*
X-09840000Y-33270000D01*
D10*
X018000000Y-24130000D02*
X012109000Y-18239000D01*
D10*
X012109000Y-18239000D02*
X007744000Y-18239000D01*
D10*
X007744000Y-18239000D02*
X007744000Y-18239000D01*
D10*
X003447000Y-17752000D02*
X003447000Y-17752000D01*
D10*
X003447000Y-17752000D02*
X003343135Y-17648135D01*
D10*
X003343135Y-17648135D02*
X003343135Y-17625265D01*
D10*
X003343135Y-17625265D02*
X002948000Y-17230130D01*
D10*
X002948000Y-17230130D02*
X002948000Y-15041000D01*
D10*
X002948000Y-15041000D02*
X002948000Y-15041000D01*
D10*
X057620000Y035141000D02*
X057620000Y035141000D01*
D10*
X057620000Y035141000D02*
X057620000Y033093529D01*
D10*
X057620000Y033093529D02*
X057762265Y032951264D01*
D10*
X057762265Y032951264D02*
X057762265Y032837735D01*
D10*
X057762265Y032837735D02*
X057800000Y032800000D01*
D10*
X057800000Y032800000D02*
X057800000Y032800000D01*
D10*
X058000000Y016800000D02*
X058000000Y016800000D01*
D10*
X058000000Y016800000D02*
X058000000Y009801658D01*
D10*
X058000000Y009801658D02*
X058000000Y009600000D01*
D10*
X058000000Y009600000D02*
X058000000Y009600000D01*
D10*
X-25786000Y017259000D02*
X-25786000Y017259000D01*
D10*
X-25786000Y017259000D02*
X-25765733Y017238733D01*
D10*
X-25765733Y017238733D02*
X-25765733Y017229499D01*
D10*
X-25765733Y017229499D02*
X-19327000Y010790765D01*
D10*
X-19327000Y010790765D02*
X-19327000Y004153000D01*
D10*
X-19327000Y004153000D02*
X-19327000Y004153000D01*
D10*
X-06229000Y-00662000D02*
X-06229000Y-00662000D01*
D10*
X-06229000Y-00662000D02*
X-06198126Y-00692874D01*
D10*
X-06198126Y-00692874D02*
X-05741000Y-01150000D01*
D10*
X-05741000Y-01150000D02*
X-05741000Y-01745000D01*
D10*
X-05741000Y-01745000D02*
X-05741000Y-01745000D01*
D10*
X008366000Y-08397000D02*
X008366000Y-08397000D01*
D10*
X008366000Y-08397000D02*
X008359774Y-08403226D01*
D10*
X008359774Y-08403226D02*
X008359774Y-08544632D01*
D10*
X008359774Y-08544632D02*
X008390000Y-08574858D01*
D10*
X008390000Y-08574858D02*
X008390000Y-10030000D01*
D10*
X008390000Y-10030000D02*
X008390000Y-10030000D01*
D10*
X015801000Y-12489000D02*
X015801000Y-12489000D01*
D10*
X015801000Y-12489000D02*
X015804858Y-12492858D01*
D10*
X015804858Y-12492858D02*
X015804858Y-12669348D01*
D10*
X015804858Y-12669348D02*
X015804858Y-14314858D01*
D10*
X015804858Y-14314858D02*
X018000000Y-16510000D01*
D10*
X-34975000Y011842000D02*
X-34975000Y011842000D01*
D10*
X-34975000Y011842000D02*
X-34955943Y011822943D01*
D10*
X-34955943Y011822943D02*
X-34953840Y011822943D01*
D10*
X-34953840Y011822943D02*
X-25857897Y002727000D01*
D10*
X-25857897Y002727000D02*
X-20726000Y002727000D01*
D10*
X-20726000Y002727000D02*
X-20726000Y002727000D01*
D10*
X-16074000Y002073000D02*
X-16074000Y002073000D01*
D10*
X-16074000Y002073000D02*
X-16000119Y001999119D01*
D10*
X-16000119Y001999119D02*
X-15995121Y001999119D01*
D10*
X-15995121Y001999119D02*
X-15455038Y001459036D01*
D10*
X-15455038Y001459036D02*
X-06471215Y001459036D01*
D10*
X-06471215Y001459036D02*
X004419000Y-09431180D01*
D10*
X004419000Y-09431180D02*
X004419000Y-10028000D01*
D10*
X004419000Y-10028000D02*
X004419000Y-10028000D01*
D10*
X011571000Y-13444000D02*
X011571000Y-13444000D01*
D10*
X011571000Y-13444000D02*
X011605445Y-13478445D01*
D10*
X011605445Y-13478445D02*
X011605445Y-13512069D01*
D10*
X011605445Y-13512069D02*
X017143376Y-19050000D01*
D10*
X017143376Y-19050000D02*
X018000000Y-19050000D01*
D10*
X-59907000Y004130000D02*
X-59907000Y004130000D01*
D10*
X-59907000Y004130000D02*
X-59907626Y004129374D01*
D10*
X-59907626Y004129374D02*
X-59960543Y004129374D01*
D10*
X-59960543Y004129374D02*
X-63870626Y004129374D01*
D10*
X-63870626Y004129374D02*
X-68000000Y000000000D01*
D10*
X-32422000Y000136000D02*
X-32422000Y000136000D01*
D10*
X-32422000Y000136000D02*
X-32333432Y000047432D01*
D10*
X-32333432Y000047432D02*
X-30780147Y-01505853D01*
D10*
X-30780147Y-01505853D02*
X-24479517Y-01505853D01*
D10*
X-24479517Y-01505853D02*
X-12221664Y010752000D01*
D10*
X-12221664Y010752000D02*
X007442000Y010752000D01*
D10*
X007442000Y010752000D02*
X007442000Y010752000D01*
D10*
X-05212000Y-09878000D02*
X-05212000Y-09878000D01*
D10*
X-05212000Y-09878000D02*
X-05179433Y-09910567D01*
D10*
X-05179433Y-09910567D02*
X-04327000Y-10763000D01*
D10*
X-04327000Y-10763000D02*
X-03537000Y-10763000D01*
D10*
X-03537000Y-10763000D02*
X-03537000Y-10763000D01*
D10*
X-51749000Y-08244000D02*
X-51749000Y-08244000D01*
D10*
X-51749000Y-08244000D02*
X-51766809Y-08261809D01*
D10*
X-51766809Y-08261809D02*
X-51766809Y-08325351D01*
D10*
X-51766809Y-08325351D02*
X-58441458Y-15000000D01*
D10*
X-58441458Y-15000000D02*
X-65460000Y-15000000D01*
D10*
X-05442000Y-15055000D02*
X-05442000Y-15055000D01*
D10*
X-05442000Y-15055000D02*
X-05332920Y-15164080D01*
D10*
X-05332920Y-15164080D02*
X-05332920Y-15172879D01*
D10*
X-05332920Y-15172879D02*
X-02179000Y-18326798D01*
D10*
X-02179000Y-18326798D02*
X-02179000Y-18365000D01*
D10*
X-02179000Y-18365000D02*
X-02179000Y-18365000D01*
D10*
X-12232000Y-12968000D02*
X-12232000Y-12968000D01*
D10*
X-12232000Y-12968000D02*
X-11769542Y-12505542D01*
D10*
X-11769542Y-12505542D02*
X-11740436Y-12505542D01*
D10*
X-11740436Y-12505542D02*
X010026458Y-12505542D01*
D10*
X010026458Y-12505542D02*
X011604000Y-10928000D01*
D10*
X011604000Y-10928000D02*
X011604000Y-10928000D01*
D10*
X-07609000Y-15539000D02*
X-07609000Y-15539000D01*
D10*
X-07609000Y-15539000D02*
X-07454748Y-15693252D01*
D10*
X-07454748Y-15693252D02*
X-07426581Y-15693252D01*
D10*
X-07426581Y-15693252D02*
X-05521834Y-17598000D01*
D10*
X-05521834Y-17598000D02*
X-03967000Y-17598000D01*
D10*
X-03967000Y-17598000D02*
X-03967000Y-17598000D01*
D11*
X065730000Y027000000D02*
X065730000Y020000000D01*
D11*
X065730000Y027000000D02*
X064153000Y027000000D01*
D11*
X064153000Y027000000D02*
X060954000Y030199000D01*
D11*
X060954000Y030199000D02*
X060954000Y030199000D01*
D11*
X046655000Y-16239000D02*
X046655000Y-16239000D01*
D11*
X046655000Y-16239000D02*
X046637496Y-16256504D01*
D11*
X046637496Y-16256504D02*
X046637496Y-17183704D01*
D11*
X046637496Y-17183704D02*
X046637496Y-18110904D01*
D11*
X046637496Y-18110904D02*
X046637496Y-19038104D01*
D11*
X046637496Y-19038104D02*
X046637496Y-19965304D01*
D11*
X046637496Y-19965304D02*
X046637496Y-20892504D01*
D11*
X046637496Y-20892504D02*
X045995552Y-21534448D01*
D11*
X045995552Y-21534448D02*
X045353608Y-22176392D01*
D11*
X045353608Y-22176392D02*
X045353608Y-26670000D01*
D11*
X045353608Y-26670000D02*
X040860000Y-26670000D01*
D11*
X049845000Y-41580000D02*
X040860000Y-32595000D01*
D11*
X040860000Y-32595000D02*
X040860000Y-26670000D01*
D11*
X058400000Y031200000D02*
X058400000Y031200000D01*
D11*
X058400000Y031200000D02*
X058347889Y031147889D01*
D11*
X058347889Y031147889D02*
X058265308Y031147889D01*
D11*
X058265308Y031147889D02*
X057571324Y030453905D01*
D11*
X057571324Y030453905D02*
X056877340Y029759921D01*
D11*
X056877340Y029759921D02*
X056183355Y029065937D01*
D11*
X056183355Y029065937D02*
X055489371Y028371953D01*
D11*
X055489371Y028371953D02*
X054795387Y027677968D01*
D11*
X054795387Y027677968D02*
X054101403Y026983984D01*
D11*
X054101403Y026983984D02*
X053407419Y026290000D01*
D11*
X053407419Y026290000D02*
X052448705Y026290000D01*
D11*
X052448705Y026290000D02*
X051489992Y026290000D01*
D11*
X051489992Y026290000D02*
X050531279Y026290000D01*
D11*
X050531279Y026290000D02*
X049572566Y026290000D01*
D11*
X049572566Y026290000D02*
X048613853Y026290000D01*
D11*
X048613853Y026290000D02*
X047655140Y026290000D01*
D11*
X047655140Y026290000D02*
X046696426Y026290000D01*
D11*
X046696426Y026290000D02*
X045737713Y026290000D01*
D11*
X045737713Y026290000D02*
X044779000Y026290000D01*
D11*
X044779000Y026290000D02*
X044779000Y026290000D01*
D11*
X-41620000Y037810000D02*
X-40637063Y037810000D01*
D11*
X-40637063Y037810000D02*
X-39654127Y037810000D01*
D11*
X-39654127Y037810000D02*
X-38671190Y037810000D01*
D11*
X-38671190Y037810000D02*
X-37688254Y037810000D01*
D11*
X-37688254Y037810000D02*
X-36705317Y037810000D01*
D11*
X-36705317Y037810000D02*
X-35722380Y037810000D01*
D11*
X-35722380Y037810000D02*
X-34739444Y037810000D01*
D11*
X-34739444Y037810000D02*
X-33756507Y037810000D01*
D11*
X-33756507Y037810000D02*
X-32773571Y037810000D01*
D11*
X-32773571Y037810000D02*
X-31790634Y037810000D01*
D11*
X-31790634Y037810000D02*
X-30807698Y037810000D01*
D11*
X-30807698Y037810000D02*
X-29824761Y037810000D01*
D11*
X-29824761Y037810000D02*
X-28841824Y037810000D01*
D11*
X-28841824Y037810000D02*
X-27858888Y037810000D01*
D11*
X-27858888Y037810000D02*
X-26875951Y037810000D01*
D11*
X-26875951Y037810000D02*
X-25893015Y037810000D01*
D11*
X-25893015Y037810000D02*
X-24910078Y037810000D01*
D11*
X-24910078Y037810000D02*
X-23927141Y037810000D01*
D11*
X-23927141Y037810000D02*
X-22944205Y037810000D01*
D11*
X-22944205Y037810000D02*
X-21961268Y037810000D01*
D11*
X-21961268Y037810000D02*
X-20978332Y037810000D01*
D11*
X-20978332Y037810000D02*
X-19995395Y037810000D01*
D11*
X-19995395Y037810000D02*
X-19012459Y037810000D01*
D11*
X-19012459Y037810000D02*
X-18029522Y037810000D01*
D11*
X-18029522Y037810000D02*
X-17046585Y037810000D01*
D11*
X-17046585Y037810000D02*
X-16966086Y037890499D01*
D11*
X-16966086Y037890499D02*
X-16924501Y037890499D01*
D11*
X-16924501Y037890499D02*
X-16870000Y037945000D01*
D11*
X-16870000Y037945000D02*
X-16870000Y037945000D01*
D11*
X069540000Y008000000D02*
X069540000Y007005315D01*
D11*
X069540000Y007005315D02*
X069540000Y006010631D01*
D11*
X069540000Y006010631D02*
X069540000Y005015946D01*
D11*
X069540000Y005015946D02*
X069540000Y004021261D01*
D11*
X069540000Y004021261D02*
X069540000Y003026576D01*
D11*
X069540000Y003026576D02*
X069540000Y002031892D01*
D11*
X069540000Y002031892D02*
X069540000Y001037207D01*
D11*
X069540000Y001037207D02*
X069540000Y000042522D01*
D11*
X069540000Y000042522D02*
X069540000Y-00952163D01*
D11*
X069540000Y-00952163D02*
X068864884Y-01627279D01*
D11*
X068864884Y-01627279D02*
X068189768Y-02302395D01*
D11*
X068189768Y-02302395D02*
X067514651Y-02977511D01*
D11*
X067514651Y-02977511D02*
X066839535Y-03652628D01*
D11*
X066839535Y-03652628D02*
X066164419Y-04327744D01*
D11*
X066164419Y-04327744D02*
X065489303Y-05002860D01*
D11*
X065489303Y-05002860D02*
X064814186Y-05677976D01*
D11*
X064814186Y-05677976D02*
X064139070Y-06353093D01*
D11*
X064139070Y-06353093D02*
X063463954Y-07028209D01*
D11*
X063463954Y-07028209D02*
X062788838Y-07703325D01*
D11*
X062788838Y-07703325D02*
X062788838Y-07715162D01*
D11*
X062788838Y-07715162D02*
X062781000Y-07723000D01*
D11*
X062781000Y-07723000D02*
X062781000Y-07723000D01*
D10*
X040860000Y-11430000D02*
X044703585Y-07586415D01*
D10*
X044703585Y-07586415D02*
X044703585Y007977636D01*
D10*
X044703585Y007977636D02*
X044703585Y008013331D01*
D10*
X044703585Y008013331D02*
X053516967Y016826713D01*
D10*
X053516967Y016826713D02*
X053606713Y016826713D01*
D10*
X053606713Y016826713D02*
X053684000Y016904000D01*
D10*
X053684000Y016904000D02*
X053684000Y016904000D01*
D10*
X051288000Y005657000D02*
X051288000Y005657000D01*
D10*
X051288000Y005657000D02*
X051288000Y013719181D01*
D10*
X051288000Y013719181D02*
X051773407Y014204588D01*
D10*
X051773407Y014204588D02*
X051773407Y014229407D01*
D10*
X051773407Y014229407D02*
X051892000Y014348000D01*
D10*
X051892000Y014348000D02*
X051892000Y014348000D01*
D10*
X034861000Y-29198000D02*
X034861000Y-29198000D01*
D10*
X034861000Y-29198000D02*
X034870563Y-29207563D01*
D10*
X034870563Y-29207563D02*
X035398000Y-29735000D01*
D10*
X035398000Y-29735000D02*
X035398000Y-29985000D01*
D10*
X035398000Y-29985000D02*
X035398000Y-29985000D01*
D10*
X035626000Y-29168000D02*
X035626000Y-29168000D01*
D10*
X035626000Y-29168000D02*
X035688567Y-29230567D01*
D10*
X035688567Y-29230567D02*
X035688567Y-29237528D01*
D10*
X035688567Y-29237528D02*
X048669411Y-42218372D01*
D10*
X048669411Y-42218372D02*
X048669411Y-42804133D01*
D10*
X048669411Y-42804133D02*
X052384133Y-42804133D01*
D10*
X052384133Y-42804133D02*
X054000000Y-44420000D01*
D10*
X031697000Y-25831000D02*
X031697000Y-25831000D01*
D10*
X031697000Y-25831000D02*
X031633027Y-25894973D01*
D10*
X031633027Y-25894973D02*
X031597459Y-25894973D01*
D10*
X031597459Y-25894973D02*
X025748623Y-31743809D01*
D10*
X025748623Y-31743809D02*
X025748623Y-35534000D01*
D10*
X025748623Y-35534000D02*
X025748623Y-40276629D01*
D10*
X025748623Y-40276629D02*
X023135893Y-42889359D01*
D10*
X023135893Y-42889359D02*
X022300641Y-42889359D01*
D10*
X022300641Y-42889359D02*
X020770000Y-44420000D01*
D10*
X033827000Y-24781000D02*
X033827000Y-24781000D01*
D10*
X033827000Y-24781000D02*
X033751411Y-24705411D01*
D10*
X033751411Y-24705411D02*
X033714246Y-24705411D01*
D10*
X033714246Y-24705411D02*
X033414822Y-24405987D01*
D10*
X033414822Y-24405987D02*
X032841991Y-24405987D01*
D10*
X032841991Y-24405987D02*
X032536726Y-24711251D01*
D10*
X032536726Y-24711251D02*
X032536726Y-24777002D01*
D10*
X032536726Y-24777002D02*
X032536726Y-30528274D01*
D10*
X032536726Y-30528274D02*
X026175000Y-36890000D01*
D10*
X026175000Y-36890000D02*
X026175000Y-36890000D01*
D10*
X069500000Y-12000000D02*
X067700000Y-13800000D01*
D10*
X067700000Y-13800000D02*
X060245726Y-13800000D01*
D10*
X060245726Y-13800000D02*
X060075000Y-13800000D01*
D10*
X060075000Y-13800000D02*
X060075000Y-13800000D01*
D10*
X062231000Y006172000D02*
X062231000Y006172000D01*
D10*
X062231000Y006172000D02*
X062254775Y006195775D01*
D10*
X062254775Y006195775D02*
X065195775Y006195775D01*
D10*
X065195775Y006195775D02*
X067000000Y008000000D01*
D10*
X043357000Y026485000D02*
X043357000Y026485000D01*
D10*
X043357000Y026485000D02*
X043286498Y026414498D01*
D10*
X043286498Y026414498D02*
X043279001Y026414498D01*
D10*
X043279001Y026414498D02*
X042025388Y025160885D01*
D10*
X042025388Y025160885D02*
X039894547Y025160885D01*
D10*
X039894547Y025160885D02*
X039894547Y020624547D01*
D10*
X039894547Y020624547D02*
X018000000Y-01270000D01*
D10*
X064772171Y028937171D02*
X064772171Y028937171D01*
D10*
X064772171Y028937171D02*
X066476037Y028793963D01*
D10*
X066476037Y028793963D02*
X068270000Y027000000D01*
D11*
X-59460000Y017500000D02*
X-56250000Y020710000D01*
D11*
X-56250000Y020710000D02*
X-56250000Y025000000D01*
D11*
X-56250000Y025000000D02*
X-50179633Y031070367D01*
D11*
X-50179633Y031070367D02*
X-49230847Y031070367D01*
D11*
X-49230847Y031070367D02*
X-48530908Y031770306D01*
D11*
X-48530908Y031770306D02*
X-47830969Y032470244D01*
D11*
X-47830969Y032470244D02*
X-47131030Y033170183D01*
D11*
X-47131030Y033170183D02*
X-46431092Y033870122D01*
D11*
X-46431092Y033870122D02*
X-45731153Y034570061D01*
D11*
X-45731153Y034570061D02*
X-45031214Y035270000D01*
D11*
X-45031214Y035270000D02*
X-44160000Y035270000D01*
D33*
X004992000Y-09239000D03*
D33*
X004623000Y-10695000D03*
D33*
X-03975000Y-14494000D03*
D33*
X-05840000Y-15456000D03*
D33*
X007815000Y-07630000D03*
D33*
X-25752000Y-20247000D03*
D33*
X-12475000Y-17799000D03*
D33*
X-08039000Y-12958000D03*
D33*
X-01566000Y-02515000D03*
D33*
X-04531000Y-05732000D03*
D33*
X007684000Y017385000D03*
D33*
X004430000Y006446000D03*
D33*
X-06584000Y001061000D03*
D33*
X032957000Y-24775000D03*
D33*
X034128000Y-29069000D03*
D33*
X045179000Y-08797000D03*
D33*
X045042000Y-06465000D03*
D33*
X-07200000Y-28800000D03*
D33*
X007744000Y-18239000D03*
D33*
X003447000Y-17752000D03*
D33*
X002948000Y-15041000D03*
D33*
X057620000Y035141000D03*
D33*
X057800000Y032800000D03*
D33*
X058000000Y016800000D03*
D33*
X058000000Y009600000D03*
D33*
X-25786000Y017259000D03*
D33*
X-19327000Y004153000D03*
D33*
X-06229000Y-00662000D03*
D33*
X-05741000Y-01745000D03*
D33*
X008366000Y-08397000D03*
D33*
X008390000Y-10030000D03*
D33*
X015801000Y-12489000D03*
D33*
X-34975000Y011842000D03*
D33*
X-20726000Y002727000D03*
D33*
X-16074000Y002073000D03*
D33*
X004419000Y-10028000D03*
D33*
X011571000Y-13444000D03*
D33*
X-59907000Y004130000D03*
D33*
X-32422000Y000136000D03*
D33*
X007442000Y010752000D03*
D33*
X-05212000Y-09878000D03*
D33*
X-03537000Y-10763000D03*
D33*
X-51749000Y-08244000D03*
D33*
X-05442000Y-15055000D03*
D33*
X-02179000Y-18365000D03*
D33*
X-12232000Y-12968000D03*
D33*
X011604000Y-10928000D03*
D33*
X-07609000Y-15539000D03*
D33*
X-03967000Y-17598000D03*
D33*
X060954000Y030199000D03*
D33*
X046655000Y-16239000D03*
D33*
X058400000Y031200000D03*
D33*
X044779000Y026290000D03*
D33*
X-16870000Y037945000D03*
D33*
X062781000Y-07723000D03*
D33*
X053684000Y016904000D03*
D33*
X051288000Y005657000D03*
D33*
X051892000Y014348000D03*
D33*
X034861000Y-29198000D03*
D33*
X035398000Y-29985000D03*
D33*
X035626000Y-29168000D03*
D33*
X031697000Y-25831000D03*
D33*
X033827000Y-24781000D03*
D33*
X026175000Y-36890000D03*
D33*
X060075000Y-13800000D03*
D33*
X062231000Y006172000D03*
D33*
X043357000Y026485000D03*
D33*
X064772171Y028937171D03*
%LPC*%
D12*
X-75000000Y-45000000D03*
%LPD*%
%LPC*%
D12*
X075000000Y-45000000D03*
%LPD*%
%LPC*%
D12*
X-75000000Y045000000D03*
%LPD*%
%LPC*%
D12*
X075000000Y045000000D03*
%LPD*%
%LPC*%
D18*
X-69620000Y023133500D03*
%LPD*%
%LPC*%
D18*
X-54380000Y023133500D03*
%LPD*%
%LPC*%
D18*
X-69747000Y045866500D03*
%LPD*%
%LPC*%
D18*
X-54507000Y045866500D03*
%LPD*%
%LPC*%
D22*
X-44500000Y023500000D03*
%LPD*%
%LPC*%
D22*
X-23400000Y023500000D03*
%LPD*%
%LPC*%
D22*
X-23400000Y044600000D03*
%LPD*%
%LPC*%
D12*
X005505000Y-43000000D03*
%LPD*%
%LPC*%
D12*
X030495000Y-43000000D03*
%LPD*%
%LPC*%
D12*
X041505000Y-43000000D03*
%LPD*%
%LPC*%
D12*
X066495000Y-43000000D03*
%LPD*%
M02*