%TF.GenerationSoftware,tscircuit,circuit-json-to-gerber,0.0.93*%
%TF.CreationDate,2026-08-27T05:33:12.691Z*%
%TF.SameCoordinates,Original*%
%TF.FileFunction,Copper,L2,Bot*%
%TF.FilePolarity,Positive*%
%FSLAX46Y46*%
%MOMM*%
G04 Gerber Fmt 4.6, Leading zero omitted, Abs format (unit mm)*
G04 Created by tscircuit (builder) date 2026-08-27T05:33:12.691Z*
G01*
%LPD*%
G75*
G04 APERTURE MACROS START*
%AMHORZPILL*
0 Horizontal pill (stadium) shape macro*
0 Parameters:*
0 $1 = Total width*
0 $2 = Total height*
0 $3 = Circle diameter (equal to height)*
0 $4 = Circle center offset
0 21 = Center Line(Exposure, Width, Height, Center X, Center Y, Rotation)*
0 1 = Circle(Exposure, Diameter, Center X, Center Y, Rotation)*
21,1,$1-$3,$2,0.0,0.0,0.0*
1,1,$3,0.0-$4,0.0*
1,1,$3,$4,0.0*%
%AMVERTPILL*
0 Vertical pill (stadium) shape macro*
0 Parameters:*
0 $1 = Total width*
0 $2 = Total height*
0 $3 = Circle diameter (equal to width)*
0 $4 = Circle center offset
0 21 = Center Line(Exposure, Width, Height, Center X, Center Y, Rotation)*
21,1,$1,$2-$3,0.0,0.0,0.0*
1,1,$3,0.0,0.0-$4*
1,1,$3,0.0,$4*%
%AMROUNDRECT*
0 Rectangle with rounded corners*
0 $1 Corner radius*
0 $2 $3 $4 $5 $6 $7 $8 $9 X,Y Position of each corner*
0 Polygon box body*
4,1,4,$2,$3,$4,$5,$6,$7,$8,$9,$2,$3,0*
0 Circles for rounded corners*
1,1,$1+$1,$2,$3*
1,1,$1+$1,$4,$5*
1,1,$1+$1,$6,$7*
1,1,$1+$1,$8,$9*
0 Rectangles between the rounded corners*
20,1,$1+$1,$2,$3,$4,$5,0*
20,1,$1+$1,$4,$5,$6,$7,0*
20,1,$1+$1,$6,$7,$8,$9,0*
20,1,$1+$1,$8,$9,$2,$3,0*%
G04 APERTURE MACROS END*
G04 aperture START LIST*
%ADD10C,0.150000*%
%ADD11C,1.000000*%
%ADD12C,0.400000*%
%ADD13C,0.375000*%
%ADD14C,0.325000*%
%ADD15C,0.875000*%
%ADD16C,0.925000*%
%ADD17C,3.200000*%
%ADD18R,1.500000X1.500000*%
%ADD19C,1.500000*%
%ADD20C,0.063000*%
%ADD21C,0.200000*%
%ADD22C,0.108000*%
%ADD23C,2.500000*%
%ADD24R,1.800000X1.800000*%
%ADD25C,0.081000*%
%ADD26C,2.180000*%
%ADD27C,0.090000*%
%ADD28C,0.100000*%
%ADD29R,1.700000X1.700000*%
%ADD30C,0.120000*%
%ADD31C,0.036000*%
%ADD32R,2.000000X2.000000*%
%ADD33C,0.045000*%
%ADD34R,2.200000X2.200000*%
%ADD35C,0.150000*%
%ADD36C,1.400000*%
%ADD37C,3.250000*%
%ADD38C,0.300000*%
%ADD39C,0.001000*%
%TD*%
G04 aperture END LIST*
D39*
G36*
X079500000Y049500000D02*
G01*
X-79500000Y049500000D01*
G01*
X-79500000Y-49500000D01*
G01*
X079500000Y-49500000D01*
G01*
X079500000Y049500000D01*
G37*
%LPC*%
D39*
G36*
X-75000000Y043150000D02*
G01*
X-74639083Y043185547D01*
G01*
X-74292036Y043290823D01*
G01*
X-73972195Y043461781D01*
G01*
X-73691852Y043691852D01*
G01*
X-73461781Y043972195D01*
G01*
X-73290823Y044292036D01*
G01*
X-73185547Y044639083D01*
G01*
X-73150000Y045000000D01*
G01*
X-73185547Y045360917D01*
G01*
X-73290823Y045707964D01*
G01*
X-73461781Y046027805D01*
G01*
X-73691852Y046308148D01*
G01*
X-73972195Y046538219D01*
G01*
X-74292036Y046709177D01*
G01*
X-74639083Y046814453D01*
G01*
X-75000000Y046850000D01*
G01*
X-75360917Y046814453D01*
G01*
X-75707964Y046709177D01*
G01*
X-76027805Y046538219D01*
G01*
X-76308148Y046308148D01*
G01*
X-76538219Y046027805D01*
G01*
X-76709177Y045707964D01*
G01*
X-76814453Y045360917D01*
G01*
X-76850000Y045000000D01*
G01*
X-76814453Y044639083D01*
G01*
X-76709177Y044292036D01*
G01*
X-76538219Y043972195D01*
G01*
X-76308148Y043691852D01*
G01*
X-76027805Y043461781D01*
G01*
X-75707964Y043290823D01*
G01*
X-75360917Y043185547D01*
G01*
X-75000000Y043150000D01*
G37*
D39*
G36*
X075000000Y043150000D02*
G01*
X075360917Y043185547D01*
G01*
X075707964Y043290823D01*
G01*
X076027805Y043461781D01*
G01*
X076308148Y043691852D01*
G01*
X076538219Y043972195D01*
G01*
X076709177Y044292036D01*
G01*
X076814453Y044639083D01*
G01*
X076850000Y045000000D01*
G01*
X076814453Y045360917D01*
G01*
X076709177Y045707964D01*
G01*
X076538219Y046027805D01*
G01*
X076308148Y046308148D01*
G01*
X076027805Y046538219D01*
G01*
X075707964Y046709177D01*
G01*
X075360917Y046814453D01*
G01*
X075000000Y046850000D01*
G01*
X074639083Y046814453D01*
G01*
X074292036Y046709177D01*
G01*
X073972195Y046538219D01*
G01*
X073691852Y046308148D01*
G01*
X073461781Y046027805D01*
G01*
X073290823Y045707964D01*
G01*
X073185547Y045360917D01*
G01*
X073150000Y045000000D01*
G01*
X073185547Y044639083D01*
G01*
X073290823Y044292036D01*
G01*
X073461781Y043972195D01*
G01*
X073691852Y043691852D01*
G01*
X073972195Y043461781D01*
G01*
X074292036Y043290823D01*
G01*
X074639083Y043185547D01*
G01*
X075000000Y043150000D01*
G37*
D39*
G36*
X-23400000Y043260000D02*
G01*
X-23138579Y043285748D01*
G01*
X-22887204Y043362001D01*
G01*
X-22655536Y043485831D01*
G01*
X-22452477Y043652477D01*
G01*
X-22285831Y043855536D01*
G01*
X-22162001Y044087204D01*
G01*
X-22085748Y044338579D01*
G01*
X-22060000Y044600000D01*
G01*
X-22085748Y044861421D01*
G01*
X-22162001Y045112796D01*
G01*
X-22285831Y045344464D01*
G01*
X-22452477Y045547523D01*
G01*
X-22655536Y045714169D01*
G01*
X-22887204Y045837999D01*
G01*
X-23138579Y045914252D01*
G01*
X-23400000Y045940000D01*
G01*
X-23661421Y045914252D01*
G01*
X-23912796Y045837999D01*
G01*
X-24144464Y045714169D01*
G01*
X-24347523Y045547523D01*
G01*
X-24514169Y045344464D01*
G01*
X-24637999Y045112796D01*
G01*
X-24714252Y044861421D01*
G01*
X-24740000Y044600000D01*
G01*
X-24714252Y044338579D01*
G01*
X-24637999Y044087204D01*
G01*
X-24514169Y043855536D01*
G01*
X-24347523Y043652477D01*
G01*
X-24144464Y043485831D01*
G01*
X-23912796Y043362001D01*
G01*
X-23661421Y043285748D01*
G01*
X-23400000Y043260000D01*
G37*
D39*
G36*
X-69747000Y042207500D02*
G01*
X-69454365Y042236322D01*
G01*
X-69172975Y042321681D01*
G01*
X-68913645Y042460296D01*
G01*
X-68686340Y042646840D01*
G01*
X-68499796Y042874145D01*
G01*
X-68361181Y043133475D01*
G01*
X-68275822Y043414865D01*
G01*
X-68247000Y043707500D01*
G01*
X-68275822Y044000135D01*
G01*
X-68361181Y044281525D01*
G01*
X-68499796Y044540855D01*
G01*
X-68686340Y044768160D01*
G01*
X-68913645Y044954704D01*
G01*
X-69172975Y045093319D01*
G01*
X-69454365Y045178678D01*
G01*
X-69747000Y045207500D01*
G01*
X-70039635Y045178678D01*
G01*
X-70321025Y045093319D01*
G01*
X-70580355Y044954704D01*
G01*
X-70807660Y044768160D01*
G01*
X-70994204Y044540855D01*
G01*
X-71132819Y044281525D01*
G01*
X-71218178Y044000135D01*
G01*
X-71247000Y043707500D01*
G01*
X-71218178Y043414865D01*
G01*
X-71132819Y043133475D01*
G01*
X-70994204Y042874145D01*
G01*
X-70807660Y042646840D01*
G01*
X-70580355Y042460296D01*
G01*
X-70321025Y042321681D01*
G01*
X-70039635Y042236322D01*
G01*
X-69747000Y042207500D01*
G37*
D39*
G36*
X-54507000Y042207500D02*
G01*
X-54214365Y042236322D01*
G01*
X-53932975Y042321681D01*
G01*
X-53673645Y042460296D01*
G01*
X-53446340Y042646840D01*
G01*
X-53259796Y042874145D01*
G01*
X-53121181Y043133475D01*
G01*
X-53035822Y043414865D01*
G01*
X-53007000Y043707500D01*
G01*
X-53035822Y044000135D01*
G01*
X-53121181Y044281525D01*
G01*
X-53259796Y044540855D01*
G01*
X-53446340Y044768160D01*
G01*
X-53673645Y044954704D01*
G01*
X-53932975Y045093319D01*
G01*
X-54214365Y045178678D01*
G01*
X-54507000Y045207500D01*
G01*
X-54799635Y045178678D01*
G01*
X-55081025Y045093319D01*
G01*
X-55340355Y044954704D01*
G01*
X-55567660Y044768160D01*
G01*
X-55754204Y044540855D01*
G01*
X-55892819Y044281525D01*
G01*
X-55978178Y044000135D01*
G01*
X-56007000Y043707500D01*
G01*
X-55978178Y043414865D01*
G01*
X-55892819Y043133475D01*
G01*
X-55754204Y042874145D01*
G01*
X-55567660Y042646840D01*
G01*
X-55340355Y042460296D01*
G01*
X-55081025Y042321681D01*
G01*
X-54799635Y042236322D01*
G01*
X-54507000Y042207500D01*
G37*
D39*
G36*
X-45310000Y039200000D02*
G01*
X-43010000Y039200000D01*
G01*
X-43010000Y041500000D01*
G01*
X-45310000Y041500000D01*
G01*
X-45310000Y039200000D01*
G37*
D39*
G36*
X-42770000Y039200000D02*
G01*
X-40470000Y039200000D01*
G01*
X-40470000Y041500000D01*
G01*
X-42770000Y041500000D01*
G01*
X-42770000Y039200000D01*
G37*
D39*
G36*
X063110000Y034650000D02*
G01*
X065810000Y034650000D01*
G01*
X065810000Y037350000D01*
G01*
X063110000Y037350000D01*
G01*
X063110000Y034650000D01*
G37*
D39*
G36*
X060417000Y027384000D02*
G01*
X060495036Y027391686D01*
G01*
X060570073Y027414448D01*
G01*
X060639228Y027451412D01*
G01*
X060648474Y027459000D01*
G01*
X061324000Y027459000D01*
G01*
X061387404Y027465245D01*
G01*
X061448372Y027483739D01*
G01*
X061504560Y027513772D01*
G01*
X061553810Y027554190D01*
G01*
X068649620Y034650000D01*
G01*
X070890000Y034650000D01*
G01*
X070890000Y037350000D01*
G01*
X068190000Y037350000D01*
G01*
X068190000Y035109620D01*
G01*
X061189380Y028109000D01*
G01*
X060648474Y028109000D01*
G01*
X060639228Y028116588D01*
G01*
X060570073Y028153552D01*
G01*
X060495036Y028176314D01*
G01*
X060417000Y028184000D01*
G01*
X060338964Y028176314D01*
G01*
X060263927Y028153552D01*
G01*
X060194772Y028116588D01*
G01*
X060134157Y028066843D01*
G01*
X060084412Y028006228D01*
G01*
X060047448Y027937073D01*
G01*
X060024686Y027862036D01*
G01*
X060017000Y027784000D01*
G01*
X060024686Y027705964D01*
G01*
X060047448Y027630927D01*
G01*
X060084412Y027561772D01*
G01*
X060134157Y027501157D01*
G01*
X060194772Y027451412D01*
G01*
X060263927Y027414448D01*
G01*
X060338964Y027391686D01*
G01*
X060417000Y027384000D01*
G37*
D39*
G36*
X-45310000Y034120000D02*
G01*
X-43010000Y034120000D01*
G01*
X-43010000Y036420000D01*
G01*
X-45310000Y036420000D01*
G01*
X-45310000Y034120000D01*
G37*
D39*
G36*
X-42770000Y034120000D02*
G01*
X-40470000Y034120000D01*
G01*
X-40470000Y036420000D01*
G01*
X-42770000Y036420000D01*
G01*
X-42770000Y034120000D01*
G37*
D39*
G36*
X056525000Y031850000D02*
G01*
X056603036Y031857686D01*
G01*
X056678073Y031880448D01*
G01*
X056747228Y031917412D01*
G01*
X056767239Y031933835D01*
G01*
X056819670Y031949739D01*
G01*
X056875858Y031979772D01*
G01*
X056925108Y032020190D01*
G01*
X059040700Y034135783D01*
G01*
X059074226Y034145953D01*
G01*
X059143381Y034182917D01*
G01*
X059203995Y034232662D01*
G01*
X059253740Y034293276D01*
G01*
X059290704Y034362431D01*
G01*
X059313467Y034437468D01*
G01*
X059321153Y034515504D01*
G01*
X059313467Y034593541D01*
G01*
X059290704Y034668578D01*
G01*
X059253740Y034737732D01*
G01*
X059203995Y034798347D01*
G01*
X059143381Y034848092D01*
G01*
X059074226Y034885056D01*
G01*
X058999189Y034907818D01*
G01*
X058921153Y034915504D01*
G01*
X058843116Y034907818D01*
G01*
X058768079Y034885056D01*
G01*
X058698925Y034848092D01*
G01*
X058638310Y034798347D01*
G01*
X058588565Y034737732D01*
G01*
X058551601Y034668578D01*
G01*
X058528839Y034593541D01*
G01*
X058523335Y034537656D01*
G01*
X056622184Y032636506D01*
G01*
X056603036Y032642314D01*
G01*
X056525000Y032650000D01*
G01*
X056446964Y032642314D01*
G01*
X056371927Y032619552D01*
G01*
X056302772Y032582588D01*
G01*
X056242157Y032532843D01*
G01*
X056192412Y032472228D01*
G01*
X056155448Y032403073D01*
G01*
X056132686Y032328036D01*
G01*
X056125000Y032250000D01*
G01*
X056132686Y032171964D01*
G01*
X056155448Y032096927D01*
G01*
X056192412Y032027772D01*
G01*
X056242157Y031967157D01*
G01*
X056302772Y031917412D01*
G01*
X056371927Y031880448D01*
G01*
X056446964Y031857686D01*
G01*
X056525000Y031850000D01*
G37*
D39*
G36*
X-65690000Y024142500D02*
G01*
X-63390000Y024142500D01*
G01*
X-63390000Y025381882D01*
G01*
X-56792325Y031980000D01*
G01*
X-45310000Y031980000D01*
G01*
X-45310000Y031580000D01*
G01*
X-43010000Y031580000D01*
G01*
X-43010000Y033880000D01*
G01*
X-45310000Y033880000D01*
G01*
X-45310000Y033480000D01*
G01*
X-57103000Y033480000D01*
G01*
X-57249318Y033465589D01*
G01*
X-57390013Y033422910D01*
G01*
X-57519678Y033353602D01*
G01*
X-57633330Y033260330D01*
G01*
X-57633346Y033260310D01*
G01*
X-57633348Y033260312D01*
G01*
X-64450702Y026442500D01*
G01*
X-65690000Y026442500D01*
G01*
X-65690000Y024142500D01*
G37*
D39*
G36*
X-42770000Y031580000D02*
G01*
X-40470000Y031580000D01*
G01*
X-40470000Y033880000D01*
G01*
X-42770000Y033880000D01*
G01*
X-42770000Y031580000D01*
G37*
D39*
G36*
X069020000Y028750000D02*
G01*
X071520000Y028750000D01*
G01*
X071520000Y031250000D01*
G01*
X069479619Y031250000D01*
G01*
X068990535Y031739084D01*
G01*
X068941286Y031779502D01*
G01*
X068885097Y031809536D01*
G01*
X068824130Y031828030D01*
G01*
X068760725Y031834275D01*
G01*
X067639224Y031834275D01*
G01*
X067585228Y031878588D01*
G01*
X067516073Y031915552D01*
G01*
X067441036Y031938314D01*
G01*
X067363000Y031946000D01*
G01*
X067284964Y031938314D01*
G01*
X067209927Y031915552D01*
G01*
X067140772Y031878588D01*
G01*
X067080157Y031828843D01*
G01*
X067030412Y031768228D01*
G01*
X066993448Y031699073D01*
G01*
X066970686Y031624036D01*
G01*
X066963000Y031546000D01*
G01*
X066970686Y031467964D01*
G01*
X066993448Y031392927D01*
G01*
X067030412Y031323772D01*
G01*
X067080157Y031263157D01*
G01*
X067140772Y031213412D01*
G01*
X067209927Y031176448D01*
G01*
X067284964Y031153686D01*
G01*
X067363000Y031146000D01*
G01*
X067441036Y031153686D01*
G01*
X067516073Y031176448D01*
G01*
X067530716Y031184275D01*
G01*
X068626106Y031184275D01*
G01*
X069020000Y030790381D01*
G01*
X069020000Y028750000D01*
G37*
D39*
G36*
X018000000Y-02270000D02*
G01*
X018195090Y-02250785D01*
G01*
X018382683Y-02193880D01*
G01*
X018555570Y-02101470D01*
G01*
X018707107Y-01977107D01*
G01*
X018831470Y-01825570D01*
G01*
X018923880Y-01652683D01*
G01*
X018980785Y-01465090D01*
G01*
X019000000Y-01270000D01*
G01*
X018980785Y-01074910D01*
G01*
X018923880Y-00887317D01*
G01*
X018895465Y-00834155D01*
G01*
X040027263Y020297644D01*
G01*
X050431471Y020297644D01*
G01*
X050494875Y020303888D01*
G01*
X050555843Y020322383D01*
G01*
X050612031Y020352416D01*
G01*
X050661281Y020392834D01*
G01*
X050701699Y020442083D01*
G01*
X050731732Y020498271D01*
G01*
X050738463Y020520461D01*
G01*
X057243762Y027025760D01*
G01*
X057302073Y027043448D01*
G01*
X057331575Y027059217D01*
G01*
X057710921Y024590973D01*
G01*
X057711996Y024591138D01*
G01*
X057713394Y024576939D01*
G01*
X057731889Y024515971D01*
G01*
X057742967Y024495245D01*
G01*
X057741665Y024494592D01*
G01*
X057821305Y024335868D01*
G01*
X057806448Y024308073D01*
G01*
X057783686Y024233036D01*
G01*
X057776000Y024155000D01*
G01*
X057783686Y024076964D01*
G01*
X057806448Y024001927D01*
G01*
X057843412Y023932772D01*
G01*
X057893157Y023872157D01*
G01*
X057953772Y023822412D01*
G01*
X058022927Y023785448D01*
G01*
X058097964Y023762686D01*
G01*
X058176000Y023755000D01*
G01*
X058254036Y023762686D01*
G01*
X058329073Y023785448D01*
G01*
X058398228Y023822412D01*
G01*
X058458843Y023872157D01*
G01*
X058508588Y023932772D01*
G01*
X058545552Y024001927D01*
G01*
X058568314Y024076964D01*
G01*
X058576000Y024155000D01*
G01*
X058568314Y024233036D01*
G01*
X058545552Y024308073D01*
G01*
X058508588Y024377228D01*
G01*
X058494551Y024394332D01*
G01*
X058491717Y024423106D01*
G01*
X058473223Y024484074D01*
G01*
X058462145Y024504800D01*
G01*
X058463447Y024505453D01*
G01*
X058345599Y024740327D01*
G01*
X057751185Y028607919D01*
G01*
X057764552Y028632927D01*
G01*
X057787314Y028707964D01*
G01*
X057795000Y028786000D01*
G01*
X057787314Y028864036D01*
G01*
X057764552Y028939073D01*
G01*
X057727588Y029008228D01*
G01*
X057677843Y029068843D01*
G01*
X057617228Y029118588D01*
G01*
X057548073Y029155552D01*
G01*
X057473036Y029178314D01*
G01*
X057395000Y029186000D01*
G01*
X057316964Y029178314D01*
G01*
X057241927Y029155552D01*
G01*
X057172772Y029118588D01*
G01*
X057112157Y029068843D01*
G01*
X057062412Y029008228D01*
G01*
X057025448Y028939073D01*
G01*
X057002686Y028864036D01*
G01*
X056995000Y028786000D01*
G01*
X057002686Y028707964D01*
G01*
X057025448Y028632927D01*
G01*
X057062412Y028563772D01*
G01*
X057109078Y028506909D01*
G01*
X057216751Y027806327D01*
G01*
X057149000Y027813000D01*
G01*
X057070964Y027805314D01*
G01*
X056995927Y027782552D01*
G01*
X056926772Y027745588D01*
G01*
X056866157Y027695843D01*
G01*
X056816412Y027635228D01*
G01*
X056779448Y027566073D01*
G01*
X056756686Y027491036D01*
G01*
X056753068Y027454305D01*
G01*
X050246407Y020947644D01*
G01*
X041620247Y020947644D01*
G01*
X041691470Y021034430D01*
G01*
X041783880Y021207317D01*
G01*
X041840785Y021394910D01*
G01*
X041860000Y021590000D01*
G01*
X041840785Y021785090D01*
G01*
X041783880Y021972683D01*
G01*
X041691470Y022145570D01*
G01*
X041567107Y022297107D01*
G01*
X041415570Y022421470D01*
G01*
X041242683Y022513880D01*
G01*
X041055090Y022570785D01*
G01*
X040860000Y022590000D01*
G01*
X040664910Y022570785D01*
G01*
X040477317Y022513880D01*
G01*
X040304430Y022421470D01*
G01*
X040152893Y022297107D01*
G01*
X040028530Y022145570D01*
G01*
X039936120Y021972683D01*
G01*
X039879215Y021785090D01*
G01*
X039860000Y021590000D01*
G01*
X039879215Y021394910D01*
G01*
X039936120Y021207317D01*
G01*
X040028530Y021034430D01*
G01*
X040099753Y020947644D01*
G01*
X039892644Y020947644D01*
G01*
X039829239Y020941399D01*
G01*
X039768271Y020922904D01*
G01*
X039712083Y020892871D01*
G01*
X039662834Y020852453D01*
G01*
X018435845Y-00374535D01*
G01*
X018382683Y-00346120D01*
G01*
X018195090Y-00289215D01*
G01*
X018000000Y-00270000D01*
G01*
X017804910Y-00289215D01*
G01*
X017617317Y-00346120D01*
G01*
X017444430Y-00438530D01*
G01*
X017292893Y-00562893D01*
G01*
X017168530Y-00714430D01*
G01*
X017076120Y-00887317D01*
G01*
X017019215Y-01074910D01*
G01*
X017000000Y-01270000D01*
G01*
X017019215Y-01465090D01*
G01*
X017076120Y-01652683D01*
G01*
X017168530Y-01825570D01*
G01*
X017292893Y-01977107D01*
G01*
X017444430Y-02101470D01*
G01*
X017617317Y-02193880D01*
G01*
X017804910Y-02250785D01*
G01*
X018000000Y-02270000D01*
G37*
D39*
G36*
X040860000Y-14970000D02*
G01*
X041055090Y-14950785D01*
G01*
X041242683Y-14893880D01*
G01*
X041415570Y-14801470D01*
G01*
X041567107Y-14677107D01*
G01*
X041691470Y-14525570D01*
G01*
X041783880Y-14352683D01*
G01*
X041840785Y-14165090D01*
G01*
X041860000Y-13970000D01*
G01*
X041840785Y-13774910D01*
G01*
X041783880Y-13587317D01*
G01*
X041755464Y-13534155D01*
G01*
X043111275Y-12178344D01*
G01*
X043151693Y-12129095D01*
G01*
X043181726Y-12072907D01*
G01*
X043200221Y-12011939D01*
G01*
X043206465Y-11948535D01*
G01*
X043206465Y-09145371D01*
G01*
X043223000Y-09147000D01*
G01*
X043301036Y-09139314D01*
G01*
X043376073Y-09116552D01*
G01*
X043445228Y-09079588D01*
G01*
X043505843Y-09029843D01*
G01*
X043555588Y-08969228D01*
G01*
X043592552Y-08900073D01*
G01*
X043615314Y-08825036D01*
G01*
X043616486Y-08813134D01*
G01*
X051730895Y-00698724D01*
G01*
X051771313Y-00649475D01*
G01*
X051801347Y-00593286D01*
G01*
X051819841Y-00532319D01*
G01*
X051826086Y-00468914D01*
G01*
X051826086Y001000000D01*
G01*
X053460000Y001000000D01*
G01*
X053460000Y003000000D01*
G01*
X053210000Y003000000D01*
G01*
X053210000Y003506000D01*
G01*
X055175000Y003506000D01*
G01*
X055321318Y003520411D01*
G01*
X055462013Y003563090D01*
G01*
X055591678Y003632398D01*
G01*
X055705330Y003725670D01*
G01*
X055798602Y003839322D01*
G01*
X055867910Y003968987D01*
G01*
X055910589Y004109682D01*
G01*
X055925000Y004256000D01*
G01*
X055910589Y004402318D01*
G01*
X055867910Y004543013D01*
G01*
X055798602Y004672678D01*
G01*
X055705330Y004786330D01*
G01*
X055591678Y004879602D01*
G01*
X055462013Y004948910D01*
G01*
X055321318Y004991589D01*
G01*
X055175000Y005006000D01*
G01*
X052460000Y005006000D01*
G01*
X052313682Y004991589D01*
G01*
X052172987Y004948910D01*
G01*
X052043322Y004879602D01*
G01*
X051929670Y004786330D01*
G01*
X051836398Y004672678D01*
G01*
X051826086Y004653386D01*
G01*
X051826086Y006437666D01*
G01*
X056149779Y010761359D01*
G01*
X056159092Y010772707D01*
G01*
X056169036Y010773686D01*
G01*
X056244073Y010796448D01*
G01*
X056313228Y010833412D01*
G01*
X056373843Y010883157D01*
G01*
X056423588Y010943772D01*
G01*
X056460552Y011012927D01*
G01*
X056483314Y011087964D01*
G01*
X056491000Y011166000D01*
G01*
X056483314Y011244036D01*
G01*
X056460552Y011319073D01*
G01*
X056423588Y011388228D01*
G01*
X056373843Y011448843D01*
G01*
X056313228Y011498588D01*
G01*
X056244073Y011535552D01*
G01*
X056169036Y011558314D01*
G01*
X056091000Y011566000D01*
G01*
X056012964Y011558314D01*
G01*
X055937927Y011535552D01*
G01*
X055868772Y011498588D01*
G01*
X055808157Y011448843D01*
G01*
X055758412Y011388228D01*
G01*
X055721448Y011319073D01*
G01*
X055698686Y011244036D01*
G01*
X055697514Y011232133D01*
G01*
X055690160Y011224779D01*
G01*
X055672763Y011203581D01*
G01*
X051568377Y007099196D01*
G01*
X051568377Y007593837D01*
G01*
X059794207Y015819666D01*
G01*
X059834625Y015868916D01*
G01*
X059864658Y015925104D01*
G01*
X059883153Y015986072D01*
G01*
X059889397Y016049476D01*
G01*
X059889397Y028331321D01*
G01*
X059890588Y028332772D01*
G01*
X059927552Y028401927D01*
G01*
X059950314Y028476964D01*
G01*
X059958000Y028555000D01*
G01*
X059950314Y028633036D01*
G01*
X059927552Y028708073D01*
G01*
X059890588Y028777228D01*
G01*
X059840843Y028837843D01*
G01*
X059780228Y028887588D01*
G01*
X059711073Y028924552D01*
G01*
X059636036Y028947314D01*
G01*
X059558000Y028955000D01*
G01*
X059479964Y028947314D01*
G01*
X059404927Y028924552D01*
G01*
X059335772Y028887588D01*
G01*
X059275157Y028837843D01*
G01*
X059225412Y028777228D01*
G01*
X059188448Y028708073D01*
G01*
X059165686Y028633036D01*
G01*
X059158000Y028555000D01*
G01*
X059165686Y028476964D01*
G01*
X059188448Y028401927D01*
G01*
X059225412Y028332772D01*
G01*
X059239397Y028315731D01*
G01*
X059239397Y016184095D01*
G01*
X051013567Y007958265D01*
G01*
X050973149Y007909016D01*
G01*
X050943116Y007852827D01*
G01*
X050924622Y007791860D01*
G01*
X050918377Y007728455D01*
G01*
X050918377Y001189114D01*
G01*
X042905208Y-06824056D01*
G01*
X042905208Y-06331498D01*
G01*
X042927588Y-06304228D01*
G01*
X042964552Y-06235073D01*
G01*
X042987314Y-06160036D01*
G01*
X042995000Y-06082000D01*
G01*
X042987314Y-06003964D01*
G01*
X042964552Y-05928927D01*
G01*
X042927588Y-05859772D01*
G01*
X042877843Y-05799157D01*
G01*
X042817228Y-05749412D01*
G01*
X042748073Y-05712448D01*
G01*
X042673036Y-05689686D01*
G01*
X042595000Y-05682000D01*
G01*
X042516964Y-05689686D01*
G01*
X042441927Y-05712448D01*
G01*
X042372772Y-05749412D01*
G01*
X042312157Y-05799157D01*
G01*
X042262412Y-05859772D01*
G01*
X042225448Y-05928927D01*
G01*
X042202686Y-06003964D01*
G01*
X042195000Y-06082000D01*
G01*
X042202686Y-06160036D01*
G01*
X042225448Y-06235073D01*
G01*
X042255208Y-06290750D01*
G01*
X042255208Y-07035172D01*
G01*
X041295845Y-07994535D01*
G01*
X041242683Y-07966120D01*
G01*
X041055090Y-07909215D01*
G01*
X040860000Y-07890000D01*
G01*
X040664910Y-07909215D01*
G01*
X040477317Y-07966120D01*
G01*
X040304430Y-08058530D01*
G01*
X040152893Y-08182893D01*
G01*
X040028530Y-08334430D01*
G01*
X039936120Y-08507317D01*
G01*
X039879215Y-08694910D01*
G01*
X039860000Y-08890000D01*
G01*
X039879215Y-09085090D01*
G01*
X039936120Y-09272683D01*
G01*
X040028530Y-09445570D01*
G01*
X040152893Y-09597107D01*
G01*
X040304430Y-09721470D01*
G01*
X040477317Y-09813880D01*
G01*
X040664910Y-09870785D01*
G01*
X040860000Y-09890000D01*
G01*
X041055090Y-09870785D01*
G01*
X041242683Y-09813880D01*
G01*
X041415570Y-09721470D01*
G01*
X041567107Y-09597107D01*
G01*
X041691470Y-09445570D01*
G01*
X041783880Y-09272683D01*
G01*
X041840785Y-09085090D01*
G01*
X041860000Y-08890000D01*
G01*
X041840785Y-08694910D01*
G01*
X041783880Y-08507317D01*
G01*
X041755465Y-08454155D01*
G01*
X042556465Y-07653155D01*
G01*
X042556465Y-11813916D01*
G01*
X041295845Y-13074536D01*
G01*
X041242683Y-13046120D01*
G01*
X041055090Y-12989215D01*
G01*
X040860000Y-12970000D01*
G01*
X040664910Y-12989215D01*
G01*
X040477317Y-13046120D01*
G01*
X040304430Y-13138530D01*
G01*
X040152893Y-13262893D01*
G01*
X040028530Y-13414430D01*
G01*
X039936120Y-13587317D01*
G01*
X039879215Y-13774910D01*
G01*
X039860000Y-13970000D01*
G01*
X039879215Y-14165090D01*
G01*
X039936120Y-14352683D01*
G01*
X040028530Y-14525570D01*
G01*
X040152893Y-14677107D01*
G01*
X040304430Y-14801470D01*
G01*
X040477317Y-14893880D01*
G01*
X040664910Y-14950785D01*
G01*
X040860000Y-14970000D01*
G37*
D39*
G36*
X-60610000Y024142500D02*
G01*
X-58310000Y024142500D01*
G01*
X-58310000Y026442500D01*
G01*
X-60610000Y026442500D01*
G01*
X-60610000Y024142500D01*
G37*
D39*
G36*
X018000000Y023130000D02*
G01*
X018195090Y023149215D01*
G01*
X018382683Y023206120D01*
G01*
X018555570Y023298530D01*
G01*
X018707107Y023422893D01*
G01*
X018831470Y023574430D01*
G01*
X018923880Y023747317D01*
G01*
X018980785Y023934910D01*
G01*
X019000000Y024130000D01*
G01*
X018980785Y024325090D01*
G01*
X018923880Y024512683D01*
G01*
X018831470Y024685570D01*
G01*
X018707107Y024837107D01*
G01*
X018555570Y024961470D01*
G01*
X018382683Y025053880D01*
G01*
X018195090Y025110785D01*
G01*
X018000000Y025130000D01*
G01*
X017804910Y025110785D01*
G01*
X017617317Y025053880D01*
G01*
X017444430Y024961470D01*
G01*
X017292893Y024837107D01*
G01*
X017168530Y024685570D01*
G01*
X017076120Y024512683D01*
G01*
X017019215Y024325090D01*
G01*
X017000000Y024130000D01*
G01*
X017019215Y023934910D01*
G01*
X017076120Y023747317D01*
G01*
X017168530Y023574430D01*
G01*
X017292893Y023422893D01*
G01*
X017444430Y023298530D01*
G01*
X017617317Y023206120D01*
G01*
X017804910Y023149215D01*
G01*
X018000000Y023130000D01*
G37*
D39*
G36*
X-44500000Y022160000D02*
G01*
X-44238579Y022185748D01*
G01*
X-43987204Y022262001D01*
G01*
X-43755536Y022385831D01*
G01*
X-43552477Y022552477D01*
G01*
X-43385831Y022755536D01*
G01*
X-43262001Y022987204D01*
G01*
X-43185748Y023238579D01*
G01*
X-43160000Y023500000D01*
G01*
X-43185748Y023761421D01*
G01*
X-43262001Y024012796D01*
G01*
X-43385831Y024244464D01*
G01*
X-43552477Y024447523D01*
G01*
X-43755536Y024614169D01*
G01*
X-43987204Y024737999D01*
G01*
X-44238579Y024814252D01*
G01*
X-44500000Y024840000D01*
G01*
X-44761421Y024814252D01*
G01*
X-45012796Y024737999D01*
G01*
X-45244464Y024614169D01*
G01*
X-45447523Y024447523D01*
G01*
X-45614169Y024244464D01*
G01*
X-45737999Y024012796D01*
G01*
X-45814252Y023761421D01*
G01*
X-45840000Y023500000D01*
G01*
X-45814252Y023238579D01*
G01*
X-45737999Y022987204D01*
G01*
X-45614169Y022755536D01*
G01*
X-45447523Y022552477D01*
G01*
X-45244464Y022385831D01*
G01*
X-45012796Y022262001D01*
G01*
X-44761421Y022185748D01*
G01*
X-44500000Y022160000D01*
G37*
D39*
G36*
X-23400000Y022160000D02*
G01*
X-23138579Y022185748D01*
G01*
X-22887204Y022262001D01*
G01*
X-22655536Y022385831D01*
G01*
X-22452477Y022552477D01*
G01*
X-22285831Y022755536D01*
G01*
X-22162001Y022987204D01*
G01*
X-22085748Y023238579D01*
G01*
X-22060000Y023500000D01*
G01*
X-22085748Y023761421D01*
G01*
X-22162001Y024012796D01*
G01*
X-22285831Y024244464D01*
G01*
X-22452477Y024447523D01*
G01*
X-22655536Y024614169D01*
G01*
X-22887204Y024737999D01*
G01*
X-23138579Y024814252D01*
G01*
X-23400000Y024840000D01*
G01*
X-23661421Y024814252D01*
G01*
X-23912796Y024737999D01*
G01*
X-24144464Y024614169D01*
G01*
X-24347523Y024447523D01*
G01*
X-24514169Y024244464D01*
G01*
X-24637999Y024012796D01*
G01*
X-24714252Y023761421D01*
G01*
X-24740000Y023500000D01*
G01*
X-24714252Y023238579D01*
G01*
X-24637999Y022987204D01*
G01*
X-24514169Y022755536D01*
G01*
X-24347523Y022552477D01*
G01*
X-24144464Y022385831D01*
G01*
X-23912796Y022262001D01*
G01*
X-23661421Y022185748D01*
G01*
X-23400000Y022160000D01*
G37*
D39*
G36*
X066480000Y020750000D02*
G01*
X068980000Y020750000D01*
G01*
X068980000Y023250000D01*
G01*
X066480000Y023250000D01*
G01*
X066480000Y020750000D01*
G37*
D39*
G36*
X069020000Y020750000D02*
G01*
X071520000Y020750000D01*
G01*
X071520000Y023250000D01*
G01*
X069020000Y023250000D01*
G01*
X069020000Y020750000D01*
G37*
D39*
G36*
X011087000Y005737000D02*
G01*
X011165036Y005744686D01*
G01*
X011240073Y005767448D01*
G01*
X011309228Y005804412D01*
G01*
X011369843Y005854157D01*
G01*
X011419588Y005914772D01*
G01*
X011456552Y005983927D01*
G01*
X011479314Y006058964D01*
G01*
X011480486Y006070866D01*
G01*
X017017522Y011607903D01*
G01*
X017000000Y011430000D01*
G01*
X017019215Y011234910D01*
G01*
X017076120Y011047317D01*
G01*
X017168530Y010874430D01*
G01*
X017292893Y010722893D01*
G01*
X017444430Y010598530D01*
G01*
X017617317Y010506120D01*
G01*
X017804910Y010449215D01*
G01*
X018000000Y010430000D01*
G01*
X018195090Y010449215D01*
G01*
X018382683Y010506120D01*
G01*
X018555570Y010598530D01*
G01*
X018707107Y010722893D01*
G01*
X018831470Y010874430D01*
G01*
X018923880Y011047317D01*
G01*
X018980785Y011234910D01*
G01*
X019000000Y011430000D01*
G01*
X018980785Y011625090D01*
G01*
X018923880Y011812683D01*
G01*
X018831470Y011985570D01*
G01*
X018707107Y012137107D01*
G01*
X018555570Y012261470D01*
G01*
X018382683Y012353880D01*
G01*
X018195090Y012410785D01*
G01*
X018000000Y012430000D01*
G01*
X017804910Y012410785D01*
G01*
X017617317Y012353880D01*
G01*
X017444430Y012261470D01*
G01*
X017307389Y012149004D01*
G01*
X017307389Y013250996D01*
G01*
X017444430Y013138530D01*
G01*
X017617317Y013046120D01*
G01*
X017804910Y012989215D01*
G01*
X018000000Y012970000D01*
G01*
X018195090Y012989215D01*
G01*
X018382683Y013046120D01*
G01*
X018555570Y013138530D01*
G01*
X018707107Y013262893D01*
G01*
X018831470Y013414430D01*
G01*
X018923880Y013587317D01*
G01*
X018980785Y013774910D01*
G01*
X019000000Y013970000D01*
G01*
X018980785Y014165090D01*
G01*
X018923880Y014352683D01*
G01*
X018831470Y014525570D01*
G01*
X018707107Y014677107D01*
G01*
X018555570Y014801470D01*
G01*
X018382683Y014893880D01*
G01*
X018195090Y014950785D01*
G01*
X018000000Y014970000D01*
G01*
X017804910Y014950785D01*
G01*
X017617317Y014893880D01*
G01*
X017444430Y014801470D01*
G01*
X017307389Y014689004D01*
G01*
X017307389Y015790996D01*
G01*
X017444430Y015678530D01*
G01*
X017617317Y015586120D01*
G01*
X017804910Y015529215D01*
G01*
X018000000Y015510000D01*
G01*
X018195090Y015529215D01*
G01*
X018382683Y015586120D01*
G01*
X018555570Y015678530D01*
G01*
X018707107Y015802893D01*
G01*
X018831470Y015954430D01*
G01*
X018923880Y016127317D01*
G01*
X018980785Y016314910D01*
G01*
X019000000Y016510000D01*
G01*
X018980785Y016705090D01*
G01*
X018923880Y016892683D01*
G01*
X018831470Y017065570D01*
G01*
X018707107Y017217107D01*
G01*
X018555570Y017341470D01*
G01*
X018382683Y017433880D01*
G01*
X018195090Y017490785D01*
G01*
X018000000Y017510000D01*
G01*
X017804910Y017490785D01*
G01*
X017617317Y017433880D01*
G01*
X017444430Y017341470D01*
G01*
X017307389Y017229004D01*
G01*
X017307389Y018330996D01*
G01*
X017444430Y018218530D01*
G01*
X017617317Y018126120D01*
G01*
X017804910Y018069215D01*
G01*
X018000000Y018050000D01*
G01*
X018195090Y018069215D01*
G01*
X018382683Y018126120D01*
G01*
X018555570Y018218530D01*
G01*
X018707107Y018342893D01*
G01*
X018831470Y018494430D01*
G01*
X018923880Y018667317D01*
G01*
X018980785Y018854910D01*
G01*
X019000000Y019050000D01*
G01*
X018980785Y019245090D01*
G01*
X018923880Y019432683D01*
G01*
X018831470Y019605570D01*
G01*
X018707107Y019757107D01*
G01*
X018555570Y019881470D01*
G01*
X018382683Y019973880D01*
G01*
X018195090Y020030785D01*
G01*
X018000000Y020050000D01*
G01*
X017804910Y020030785D01*
G01*
X017617317Y019973880D01*
G01*
X017444430Y019881470D01*
G01*
X017292893Y019757107D01*
G01*
X017168530Y019605570D01*
G01*
X017076120Y019432683D01*
G01*
X017019215Y019245090D01*
G01*
X017000000Y019050000D01*
G01*
X017003540Y019014054D01*
G01*
X016982389Y019014054D01*
G01*
X016918984Y019007809D01*
G01*
X016858017Y018989315D01*
G01*
X016801828Y018959282D01*
G01*
X016752579Y018918864D01*
G01*
X016712161Y018869614D01*
G01*
X016682128Y018813426D01*
G01*
X016663634Y018752458D01*
G01*
X016657389Y018689054D01*
G01*
X016657389Y012167008D01*
G01*
X011243813Y006753433D01*
G01*
X011237552Y006774073D01*
G01*
X011200588Y006843228D01*
G01*
X011193000Y006852474D01*
G01*
X011193000Y014323380D01*
G01*
X017564155Y020694535D01*
G01*
X017617317Y020666120D01*
G01*
X017804910Y020609215D01*
G01*
X018000000Y020590000D01*
G01*
X018195090Y020609215D01*
G01*
X018382683Y020666120D01*
G01*
X018555570Y020758530D01*
G01*
X018707107Y020882893D01*
G01*
X018831470Y021034430D01*
G01*
X018923880Y021207317D01*
G01*
X018980785Y021394910D01*
G01*
X019000000Y021590000D01*
G01*
X018980785Y021785090D01*
G01*
X018923880Y021972683D01*
G01*
X018831470Y022145570D01*
G01*
X018707107Y022297107D01*
G01*
X018555570Y022421470D01*
G01*
X018382683Y022513880D01*
G01*
X018195090Y022570785D01*
G01*
X018000000Y022590000D01*
G01*
X017804910Y022570785D01*
G01*
X017617317Y022513880D01*
G01*
X017444430Y022421470D01*
G01*
X017292893Y022297107D01*
G01*
X017168530Y022145570D01*
G01*
X017076120Y021972683D01*
G01*
X017019215Y021785090D01*
G01*
X017000000Y021590000D01*
G01*
X017019215Y021394910D01*
G01*
X017076120Y021207317D01*
G01*
X017104535Y021154155D01*
G01*
X010638190Y014687810D01*
G01*
X010597772Y014638560D01*
G01*
X010567739Y014582372D01*
G01*
X010549245Y014521404D01*
G01*
X010543000Y014458000D01*
G01*
X010543000Y006852474D01*
G01*
X010535412Y006843228D01*
G01*
X010498448Y006774073D01*
G01*
X010475686Y006699036D01*
G01*
X010468000Y006621000D01*
G01*
X010475686Y006542964D01*
G01*
X010498448Y006467927D01*
G01*
X010535412Y006398772D01*
G01*
X010585157Y006338157D01*
G01*
X010645772Y006288412D01*
G01*
X010707014Y006255677D01*
G01*
X010694686Y006215036D01*
G01*
X010687000Y006137000D01*
G01*
X010694686Y006058964D01*
G01*
X010717448Y005983927D01*
G01*
X010754412Y005914772D01*
G01*
X010804157Y005854157D01*
G01*
X010864772Y005804412D01*
G01*
X010933927Y005767448D01*
G01*
X011008964Y005744686D01*
G01*
X011087000Y005737000D01*
G37*
D39*
G36*
X040860000Y018050000D02*
G01*
X041055090Y018069215D01*
G01*
X041242683Y018126120D01*
G01*
X041415570Y018218530D01*
G01*
X041567107Y018342893D01*
G01*
X041691470Y018494430D01*
G01*
X041783880Y018667317D01*
G01*
X041840785Y018854910D01*
G01*
X041860000Y019050000D01*
G01*
X041840785Y019245090D01*
G01*
X041783880Y019432683D01*
G01*
X041691470Y019605570D01*
G01*
X041567107Y019757107D01*
G01*
X041415570Y019881470D01*
G01*
X041242683Y019973880D01*
G01*
X041055090Y020030785D01*
G01*
X040860000Y020050000D01*
G01*
X040664910Y020030785D01*
G01*
X040477317Y019973880D01*
G01*
X040304430Y019881470D01*
G01*
X040152893Y019757107D01*
G01*
X040028530Y019605570D01*
G01*
X039936120Y019432683D01*
G01*
X039879215Y019245090D01*
G01*
X039860000Y019050000D01*
G01*
X039879215Y018854910D01*
G01*
X039936120Y018667317D01*
G01*
X040028530Y018494430D01*
G01*
X040152893Y018342893D01*
G01*
X040304430Y018218530D01*
G01*
X040477317Y018126120D01*
G01*
X040664910Y018069215D01*
G01*
X040860000Y018050000D01*
G37*
D39*
G36*
X-17600000Y008800000D02*
G01*
X-17521964Y008807686D01*
G01*
X-17446927Y008830448D01*
G01*
X-17377772Y008867412D01*
G01*
X-17317157Y008917157D01*
G01*
X-17267412Y008977772D01*
G01*
X-17230448Y009046927D01*
G01*
X-17207686Y009121964D01*
G01*
X-17200000Y009200000D01*
G01*
X-17207686Y009278036D01*
G01*
X-17230448Y009353073D01*
G01*
X-17267412Y009422228D01*
G01*
X-17317157Y009482843D01*
G01*
X-17377772Y009532588D01*
G01*
X-17446927Y009569552D01*
G01*
X-17521964Y009592314D01*
G01*
X-17600000Y009600000D01*
G01*
X-17678036Y009592314D01*
G01*
X-17737913Y009574151D01*
G01*
X-25389296Y017225534D01*
G01*
X-25386000Y017259000D01*
G01*
X-25393686Y017337036D01*
G01*
X-25416448Y017412073D01*
G01*
X-25453412Y017481228D01*
G01*
X-25503157Y017541843D01*
G01*
X-25563772Y017591588D01*
G01*
X-25632927Y017628552D01*
G01*
X-25707964Y017651314D01*
G01*
X-25786000Y017659000D01*
G01*
X-25864036Y017651314D01*
G01*
X-25939073Y017628552D01*
G01*
X-26008228Y017591588D01*
G01*
X-26068843Y017541843D01*
G01*
X-26118588Y017481228D01*
G01*
X-26155552Y017412073D01*
G01*
X-26178314Y017337036D01*
G01*
X-26186000Y017259000D01*
G01*
X-26178314Y017180964D01*
G01*
X-26155552Y017105927D01*
G01*
X-26118588Y017036772D01*
G01*
X-26068843Y016976157D01*
G01*
X-26008228Y016926412D01*
G01*
X-26000478Y016922269D01*
G01*
X-25978542Y016895541D01*
G01*
X-18053191Y008970190D01*
G01*
X-18003942Y008929772D01*
G01*
X-17947753Y008899739D01*
G01*
X-17886786Y008881245D01*
G01*
X-17832578Y008875906D01*
G01*
X-17822228Y008867412D01*
G01*
X-17753073Y008830448D01*
G01*
X-17678036Y008807686D01*
G01*
X-17600000Y008800000D01*
G37*
D39*
G36*
X040860000Y015510000D02*
G01*
X041055090Y015529215D01*
G01*
X041242683Y015586120D01*
G01*
X041415570Y015678530D01*
G01*
X041567107Y015802893D01*
G01*
X041691470Y015954430D01*
G01*
X041783880Y016127317D01*
G01*
X041840785Y016314910D01*
G01*
X041860000Y016510000D01*
G01*
X041840785Y016705090D01*
G01*
X041783880Y016892683D01*
G01*
X041691470Y017065570D01*
G01*
X041567107Y017217107D01*
G01*
X041415570Y017341470D01*
G01*
X041242683Y017433880D01*
G01*
X041055090Y017490785D01*
G01*
X040860000Y017510000D01*
G01*
X040664910Y017490785D01*
G01*
X040477317Y017433880D01*
G01*
X040304430Y017341470D01*
G01*
X040152893Y017217107D01*
G01*
X040028530Y017065570D01*
G01*
X039936120Y016892683D01*
G01*
X039879215Y016705090D01*
G01*
X039860000Y016510000D01*
G01*
X039879215Y016314910D01*
G01*
X039936120Y016127317D01*
G01*
X040028530Y015954430D01*
G01*
X040152893Y015802893D01*
G01*
X040304430Y015678530D01*
G01*
X040477317Y015586120D01*
G01*
X040664910Y015529215D01*
G01*
X040860000Y015510000D01*
G37*
D39*
G36*
X069020000Y012750000D02*
G01*
X071520000Y012750000D01*
G01*
X071520000Y015250000D01*
G01*
X069479620Y015250000D01*
G01*
X067853419Y016876200D01*
G01*
X067804170Y016916618D01*
G01*
X067747981Y016946652D01*
G01*
X067687014Y016965146D01*
G01*
X067623609Y016971391D01*
G01*
X063616270Y016971391D01*
G01*
X063535391Y016971391D01*
G01*
X063518017Y016969680D01*
G01*
X063464000Y016975000D01*
G01*
X063385964Y016967314D01*
G01*
X063310927Y016944552D01*
G01*
X063241772Y016907588D01*
G01*
X063181157Y016857843D01*
G01*
X063131412Y016797228D01*
G01*
X063094448Y016728073D01*
G01*
X063071686Y016653036D01*
G01*
X063064000Y016575000D01*
G01*
X063071686Y016496964D01*
G01*
X063094448Y016421927D01*
G01*
X063131412Y016352772D01*
G01*
X063181157Y016292157D01*
G01*
X063241772Y016242412D01*
G01*
X063310927Y016205448D01*
G01*
X063385964Y016182686D01*
G01*
X063464000Y016175000D01*
G01*
X063542036Y016182686D01*
G01*
X063617073Y016205448D01*
G01*
X063686228Y016242412D01*
G01*
X063746843Y016292157D01*
G01*
X063770835Y016321391D01*
G01*
X067488990Y016321391D01*
G01*
X069020000Y014790380D01*
G01*
X069020000Y012750000D01*
G37*
D39*
G36*
X-77500000Y014000000D02*
G01*
X-75500000Y014000000D01*
G01*
X-75500000Y016000000D01*
G01*
X-77500000Y016000000D01*
G01*
X-77500000Y014000000D01*
G37*
D39*
G36*
X042344000Y008800000D02*
G01*
X042422036Y008807686D01*
G01*
X042497073Y008830448D01*
G01*
X042566228Y008867412D01*
G01*
X042626843Y008917157D01*
G01*
X042676588Y008977772D01*
G01*
X042713552Y009046927D01*
G01*
X042736314Y009121964D01*
G01*
X042744000Y009200000D01*
G01*
X042736314Y009278036D01*
G01*
X042713552Y009353073D01*
G01*
X042676588Y009422228D01*
G01*
X042669000Y009431474D01*
G01*
X042669000Y014679156D01*
G01*
X042755474Y014765631D01*
G01*
X042756036Y014765686D01*
G01*
X042831073Y014788448D01*
G01*
X042900228Y014825412D01*
G01*
X042960843Y014875157D01*
G01*
X043010588Y014935772D01*
G01*
X043047552Y015004927D01*
G01*
X043070314Y015079964D01*
G01*
X043078000Y015158000D01*
G01*
X043070314Y015236036D01*
G01*
X043047552Y015311073D01*
G01*
X043010588Y015380228D01*
G01*
X042960843Y015440843D01*
G01*
X042900228Y015490588D01*
G01*
X042831073Y015527552D01*
G01*
X042756036Y015550314D01*
G01*
X042678000Y015558000D01*
G01*
X042599964Y015550314D01*
G01*
X042524927Y015527552D01*
G01*
X042455772Y015490588D01*
G01*
X042395157Y015440843D01*
G01*
X042345412Y015380228D01*
G01*
X042308448Y015311073D01*
G01*
X042285686Y015236036D01*
G01*
X042283397Y015212792D01*
G01*
X042114190Y015043586D01*
G01*
X042073772Y014994336D01*
G01*
X042043739Y014938148D01*
G01*
X042025245Y014877180D01*
G01*
X042019000Y014813776D01*
G01*
X042019000Y009431474D01*
G01*
X042011412Y009422228D01*
G01*
X041974448Y009353073D01*
G01*
X041951686Y009278036D01*
G01*
X041944000Y009200000D01*
G01*
X041951686Y009121964D01*
G01*
X041974448Y009046927D01*
G01*
X042011412Y008977772D01*
G01*
X042061157Y008917157D01*
G01*
X042121772Y008867412D01*
G01*
X042190927Y008830448D01*
G01*
X042265964Y008807686D01*
G01*
X042344000Y008800000D01*
G37*
D39*
G36*
X040860000Y012970000D02*
G01*
X041055090Y012989215D01*
G01*
X041242683Y013046120D01*
G01*
X041415570Y013138530D01*
G01*
X041567107Y013262893D01*
G01*
X041691470Y013414430D01*
G01*
X041783880Y013587317D01*
G01*
X041840785Y013774910D01*
G01*
X041860000Y013970000D01*
G01*
X041840785Y014165090D01*
G01*
X041783880Y014352683D01*
G01*
X041691470Y014525570D01*
G01*
X041567107Y014677107D01*
G01*
X041415570Y014801470D01*
G01*
X041242683Y014893880D01*
G01*
X041055090Y014950785D01*
G01*
X040860000Y014970000D01*
G01*
X040664910Y014950785D01*
G01*
X040477317Y014893880D01*
G01*
X040304430Y014801470D01*
G01*
X040152893Y014677107D01*
G01*
X040028530Y014525570D01*
G01*
X039936120Y014352683D01*
G01*
X039879215Y014165090D01*
G01*
X039860000Y013970000D01*
G01*
X039879215Y013774910D01*
G01*
X039936120Y013587317D01*
G01*
X040028530Y013414430D01*
G01*
X040152893Y013262893D01*
G01*
X040304430Y013138530D01*
G01*
X040477317Y013046120D01*
G01*
X040664910Y012989215D01*
G01*
X040860000Y012970000D01*
G37*
D39*
G36*
X040860000Y010430000D02*
G01*
X041055090Y010449215D01*
G01*
X041242683Y010506120D01*
G01*
X041415570Y010598530D01*
G01*
X041567107Y010722893D01*
G01*
X041691470Y010874430D01*
G01*
X041783880Y011047317D01*
G01*
X041840785Y011234910D01*
G01*
X041860000Y011430000D01*
G01*
X041840785Y011625090D01*
G01*
X041783880Y011812683D01*
G01*
X041691470Y011985570D01*
G01*
X041567107Y012137107D01*
G01*
X041415570Y012261470D01*
G01*
X041242683Y012353880D01*
G01*
X041055090Y012410785D01*
G01*
X040860000Y012430000D01*
G01*
X040664910Y012410785D01*
G01*
X040477317Y012353880D01*
G01*
X040304430Y012261470D01*
G01*
X040152893Y012137107D01*
G01*
X040028530Y011985570D01*
G01*
X039936120Y011812683D01*
G01*
X039879215Y011625090D01*
G01*
X039860000Y011430000D01*
G01*
X039879215Y011234910D01*
G01*
X039936120Y011047317D01*
G01*
X040028530Y010874430D01*
G01*
X040152893Y010722893D01*
G01*
X040304430Y010598530D01*
G01*
X040477317Y010506120D01*
G01*
X040664910Y010449215D01*
G01*
X040860000Y010430000D01*
G37*
D39*
G36*
X018000000Y-25130000D02*
G01*
X018195090Y-25110785D01*
G01*
X018382683Y-25053880D01*
G01*
X018555570Y-24961470D01*
G01*
X018707107Y-24837107D01*
G01*
X018831470Y-24685570D01*
G01*
X018923880Y-24512683D01*
G01*
X018980785Y-24325090D01*
G01*
X019000000Y-24130000D01*
G01*
X018980785Y-23934910D01*
G01*
X018923880Y-23747317D01*
G01*
X018895465Y-23694155D01*
G01*
X024767067Y-17822552D01*
G01*
X054002448Y-17822552D01*
G01*
X054065853Y-17816307D01*
G01*
X054126820Y-17797813D01*
G01*
X054183009Y-17767779D01*
G01*
X054232258Y-17727361D01*
G01*
X064709620Y-07250000D01*
G01*
X066750000Y-07250000D01*
G01*
X066750000Y-04750000D01*
G01*
X064250000Y-04750000D01*
G01*
X064250000Y-06790380D01*
G01*
X053867829Y-17172552D01*
G01*
X041603672Y-17172552D01*
G01*
X041691470Y-17065570D01*
G01*
X041783880Y-16892683D01*
G01*
X041840785Y-16705090D01*
G01*
X041860000Y-16510000D01*
G01*
X041840785Y-16314910D01*
G01*
X041783880Y-16127317D01*
G01*
X041691470Y-15954430D01*
G01*
X041567107Y-15802893D01*
G01*
X041415570Y-15678530D01*
G01*
X041242683Y-15586120D01*
G01*
X041055090Y-15529215D01*
G01*
X040860000Y-15510000D01*
G01*
X040664910Y-15529215D01*
G01*
X040477317Y-15586120D01*
G01*
X040424155Y-15614535D01*
G01*
X036950440Y-12140820D01*
G01*
X036901190Y-12100402D01*
G01*
X036845002Y-12070369D01*
G01*
X036784034Y-12051875D01*
G01*
X036720630Y-12045630D01*
G01*
X018782180Y-12045630D01*
G01*
X018831470Y-11985570D01*
G01*
X018923880Y-11812683D01*
G01*
X018980785Y-11625090D01*
G01*
X019000000Y-11430000D01*
G01*
X018980785Y-11234910D01*
G01*
X018923880Y-11047317D01*
G01*
X018831470Y-10874430D01*
G01*
X018707107Y-10722893D01*
G01*
X018555570Y-10598530D01*
G01*
X018382683Y-10506120D01*
G01*
X018195090Y-10449215D01*
G01*
X018000000Y-10430000D01*
G01*
X017804910Y-10449215D01*
G01*
X017617317Y-10506120D01*
G01*
X017444430Y-10598530D01*
G01*
X017292893Y-10722893D01*
G01*
X017168530Y-10874430D01*
G01*
X017076120Y-11047317D01*
G01*
X017019215Y-11234910D01*
G01*
X017000000Y-11430000D01*
G01*
X017019215Y-11625090D01*
G01*
X017076120Y-11812683D01*
G01*
X017168530Y-11985570D01*
G01*
X017217820Y-12045630D01*
G01*
X013389250Y-12045630D01*
G01*
X012455486Y-11111867D01*
G01*
X012454314Y-11099964D01*
G01*
X012431552Y-11024927D01*
G01*
X012394588Y-10955772D01*
G01*
X012344843Y-10895157D01*
G01*
X012284228Y-10845412D01*
G01*
X012239030Y-10821253D01*
G01*
X016385283Y-06675000D01*
G01*
X017058622Y-06675000D01*
G01*
X017076120Y-06732683D01*
G01*
X017168530Y-06905570D01*
G01*
X017292893Y-07057107D01*
G01*
X017444430Y-07181470D01*
G01*
X017617317Y-07273880D01*
G01*
X017804910Y-07330785D01*
G01*
X018000000Y-07350000D01*
G01*
X018195090Y-07330785D01*
G01*
X018382683Y-07273880D01*
G01*
X018555570Y-07181470D01*
G01*
X018707107Y-07057107D01*
G01*
X018831470Y-06905570D01*
G01*
X018923880Y-06732683D01*
G01*
X018980785Y-06545090D01*
G01*
X019000000Y-06350000D01*
G01*
X018980785Y-06154910D01*
G01*
X018923880Y-05967317D01*
G01*
X018831470Y-05794430D01*
G01*
X018707107Y-05642893D01*
G01*
X018555570Y-05518530D01*
G01*
X018382683Y-05426120D01*
G01*
X018195090Y-05369215D01*
G01*
X018000000Y-05350000D01*
G01*
X017804910Y-05369215D01*
G01*
X017617317Y-05426120D01*
G01*
X017444430Y-05518530D01*
G01*
X017292893Y-05642893D01*
G01*
X017168530Y-05794430D01*
G01*
X017076120Y-05967317D01*
G01*
X017058622Y-06025000D01*
G01*
X016250664Y-06025000D01*
G01*
X016187259Y-06031245D01*
G01*
X016126292Y-06049739D01*
G01*
X016070103Y-06079772D01*
G01*
X016020854Y-06120190D01*
G01*
X011543984Y-10597060D01*
G01*
X009625907Y-10597060D01*
G01*
X009618314Y-10519964D01*
G01*
X009595552Y-10444927D01*
G01*
X009558588Y-10375772D01*
G01*
X009508843Y-10315157D01*
G01*
X009448228Y-10265412D01*
G01*
X009379073Y-10228448D01*
G01*
X009304036Y-10205686D01*
G01*
X009226000Y-10198000D01*
G01*
X009147964Y-10205686D01*
G01*
X009072927Y-10228448D01*
G01*
X009003772Y-10265412D01*
G01*
X008943157Y-10315157D01*
G01*
X008893412Y-10375772D01*
G01*
X008856448Y-10444927D01*
G01*
X008833686Y-10519964D01*
G01*
X008832514Y-10531866D01*
G01*
X006386499Y-12977882D01*
G01*
X-02057237Y-12977882D01*
G01*
X004343258Y-06577387D01*
G01*
X004383676Y-06528138D01*
G01*
X004385944Y-06523896D01*
G01*
X004405228Y-06513588D01*
G01*
X004465843Y-06463843D01*
G01*
X004515588Y-06403228D01*
G01*
X004524853Y-06385893D01*
G01*
X007304000Y-09165040D01*
G01*
X007304000Y-10684526D01*
G01*
X007296412Y-10693772D01*
G01*
X007259448Y-10762927D01*
G01*
X007236686Y-10837964D01*
G01*
X007229000Y-10916000D01*
G01*
X007236686Y-10994036D01*
G01*
X007259448Y-11069073D01*
G01*
X007296412Y-11138228D01*
G01*
X007346157Y-11198843D01*
G01*
X007406772Y-11248588D01*
G01*
X007475927Y-11285552D01*
G01*
X007550964Y-11308314D01*
G01*
X007629000Y-11316000D01*
G01*
X007707036Y-11308314D01*
G01*
X007782073Y-11285552D01*
G01*
X007851228Y-11248588D01*
G01*
X007911843Y-11198843D01*
G01*
X007961588Y-11138228D01*
G01*
X007998552Y-11069073D01*
G01*
X008021314Y-10994036D01*
G01*
X008029000Y-10916000D01*
G01*
X008021314Y-10837964D01*
G01*
X007998552Y-10762927D01*
G01*
X007961588Y-10693772D01*
G01*
X007954000Y-10684526D01*
G01*
X007954000Y-09030420D01*
G01*
X007947755Y-08967016D01*
G01*
X007929261Y-08906048D01*
G01*
X007899228Y-08849860D01*
G01*
X007858810Y-08800611D01*
G01*
X-00351643Y-00590158D01*
G01*
X-00400893Y-00549740D01*
G01*
X-00457081Y-00519707D01*
G01*
X-00518049Y-00501212D01*
G01*
X-00581453Y-00494967D01*
G01*
X-22159430Y-00494967D01*
G01*
X-34586280Y011931883D01*
G01*
X-34605448Y011995073D01*
G01*
X-34642412Y012064228D01*
G01*
X-34692157Y012124843D01*
G01*
X-34752772Y012174588D01*
G01*
X-34821927Y012211552D01*
G01*
X-34896964Y012234314D01*
G01*
X-34975000Y012242000D01*
G01*
X-35053036Y012234314D01*
G01*
X-35128073Y012211552D01*
G01*
X-35197228Y012174588D01*
G01*
X-35257843Y012124843D01*
G01*
X-35307588Y012064228D01*
G01*
X-35344552Y011995073D01*
G01*
X-35367314Y011920036D01*
G01*
X-35375000Y011842000D01*
G01*
X-35367314Y011763964D01*
G01*
X-35344552Y011688927D01*
G01*
X-35307588Y011619772D01*
G01*
X-35257843Y011559157D01*
G01*
X-35197228Y011509412D01*
G01*
X-35128073Y011472448D01*
G01*
X-35053036Y011449686D01*
G01*
X-35020076Y011446440D01*
G01*
X-22523859Y-01049777D01*
G01*
X-22474609Y-01090195D01*
G01*
X-22418421Y-01120228D01*
G01*
X-22357454Y-01138723D01*
G01*
X-22294049Y-01144967D01*
G01*
X-00716073Y-01144967D01*
G01*
X003978107Y-05839147D01*
G01*
X003960772Y-05848412D01*
G01*
X003900157Y-05898157D01*
G01*
X003850412Y-05958772D01*
G01*
X003813448Y-06027927D01*
G01*
X003790686Y-06102964D01*
G01*
X003783000Y-06181000D01*
G01*
X003786354Y-06215052D01*
G01*
X-02626594Y-12628000D01*
G01*
X-04416526Y-12628000D01*
G01*
X-04425772Y-12620412D01*
G01*
X-04494927Y-12583448D01*
G01*
X-04569964Y-12560686D01*
G01*
X-04648000Y-12553000D01*
G01*
X-04726036Y-12560686D01*
G01*
X-04801073Y-12583448D01*
G01*
X-04870228Y-12620412D01*
G01*
X-04930843Y-12670157D01*
G01*
X-04980588Y-12730772D01*
G01*
X-05017552Y-12799927D01*
G01*
X-05040314Y-12874964D01*
G01*
X-05048000Y-12953000D01*
G01*
X-05045549Y-12977882D01*
G01*
X-28399708Y-12977882D01*
G01*
X-28444499Y-12977882D01*
G01*
X-35227514Y-06194866D01*
G01*
X-35228686Y-06182964D01*
G01*
X-35251448Y-06107927D01*
G01*
X-35288412Y-06038772D01*
G01*
X-35338157Y-05978157D01*
G01*
X-35398772Y-05928412D01*
G01*
X-35467927Y-05891448D01*
G01*
X-35542964Y-05868686D01*
G01*
X-35621000Y-05861000D01*
G01*
X-35699036Y-05868686D01*
G01*
X-35774073Y-05891448D01*
G01*
X-35843228Y-05928412D01*
G01*
X-35903843Y-05978157D01*
G01*
X-35953588Y-06038772D01*
G01*
X-35990552Y-06107927D01*
G01*
X-36013314Y-06182964D01*
G01*
X-36021000Y-06261000D01*
G01*
X-36013314Y-06339036D01*
G01*
X-35990552Y-06414073D01*
G01*
X-35953588Y-06483228D01*
G01*
X-35903843Y-06543843D01*
G01*
X-35843228Y-06593588D01*
G01*
X-35774073Y-06630552D01*
G01*
X-35699036Y-06653314D01*
G01*
X-35687134Y-06654486D01*
G01*
X-29047800Y-13293819D01*
G01*
X-34130029Y-13293819D01*
G01*
X-35241825Y-12182023D01*
G01*
X-35259448Y-12123927D01*
G01*
X-35296412Y-12054772D01*
G01*
X-35346157Y-11994157D01*
G01*
X-35406772Y-11944412D01*
G01*
X-35475927Y-11907448D01*
G01*
X-35550964Y-11884686D01*
G01*
X-35629000Y-11877000D01*
G01*
X-35707036Y-11884686D01*
G01*
X-35782073Y-11907448D01*
G01*
X-35851228Y-11944412D01*
G01*
X-35911843Y-11994157D01*
G01*
X-35961588Y-12054772D01*
G01*
X-35998552Y-12123927D01*
G01*
X-36021314Y-12198964D01*
G01*
X-36029000Y-12277000D01*
G01*
X-36021314Y-12355036D01*
G01*
X-35998552Y-12430073D01*
G01*
X-35961588Y-12499228D01*
G01*
X-35911843Y-12559843D01*
G01*
X-35851228Y-12609588D01*
G01*
X-35782073Y-12646552D01*
G01*
X-35707036Y-12669314D01*
G01*
X-35670139Y-12672948D01*
G01*
X-34494458Y-13848628D01*
G01*
X-34445209Y-13889046D01*
G01*
X-34389021Y-13919079D01*
G01*
X-34328053Y-13937574D01*
G01*
X-34264649Y-13943819D01*
G01*
X-12269781Y-13943819D01*
G01*
X-04745819Y-21467781D01*
G01*
X-04696570Y-21508199D01*
G01*
X-04640382Y-21538232D01*
G01*
X-04579414Y-21556726D01*
G01*
X-04516010Y-21562971D01*
G01*
X-04452605Y-21556726D01*
G01*
X-04391637Y-21538232D01*
G01*
X-04335449Y-21508199D01*
G01*
X-04286200Y-21467781D01*
G01*
X-00923419Y-18105000D01*
G01*
X017686941Y-18105000D01*
G01*
X017617317Y-18126120D01*
G01*
X017444430Y-18218530D01*
G01*
X017292893Y-18342893D01*
G01*
X017168530Y-18494430D01*
G01*
X017076120Y-18667317D01*
G01*
X017019215Y-18854910D01*
G01*
X017000000Y-19050000D01*
G01*
X017019215Y-19245090D01*
G01*
X017076120Y-19432683D01*
G01*
X017168530Y-19605570D01*
G01*
X017292893Y-19757107D01*
G01*
X017444430Y-19881470D01*
G01*
X017617317Y-19973880D01*
G01*
X017804910Y-20030785D01*
G01*
X018000000Y-20050000D01*
G01*
X018195090Y-20030785D01*
G01*
X018382683Y-19973880D01*
G01*
X018555570Y-19881470D01*
G01*
X018707107Y-19757107D01*
G01*
X018831470Y-19605570D01*
G01*
X018923880Y-19432683D01*
G01*
X018980785Y-19245090D01*
G01*
X019000000Y-19050000D01*
G01*
X018980785Y-18854910D01*
G01*
X018923880Y-18667317D01*
G01*
X018831470Y-18494430D01*
G01*
X018707107Y-18342893D01*
G01*
X018555570Y-18218530D01*
G01*
X018382683Y-18126120D01*
G01*
X018313059Y-18105000D01*
G01*
X019318526Y-18105000D01*
G01*
X019327772Y-18112588D01*
G01*
X019396927Y-18149552D01*
G01*
X019471964Y-18172314D01*
G01*
X019550000Y-18180000D01*
G01*
X019628036Y-18172314D01*
G01*
X019703073Y-18149552D01*
G01*
X019772228Y-18112588D01*
G01*
X019832843Y-18062843D01*
G01*
X019882588Y-18002228D01*
G01*
X019919552Y-17933073D01*
G01*
X019942314Y-17858036D01*
G01*
X019950000Y-17780000D01*
G01*
X019942314Y-17701964D01*
G01*
X019919552Y-17626927D01*
G01*
X019882588Y-17557772D01*
G01*
X019832843Y-17497157D01*
G01*
X019772228Y-17447412D01*
G01*
X019703073Y-17410448D01*
G01*
X019628036Y-17387686D01*
G01*
X019550000Y-17380000D01*
G01*
X019471964Y-17387686D01*
G01*
X019396927Y-17410448D01*
G01*
X019327772Y-17447412D01*
G01*
X019318526Y-17455000D01*
G01*
X018313059Y-17455000D01*
G01*
X018382683Y-17433880D01*
G01*
X018555570Y-17341470D01*
G01*
X018707107Y-17217107D01*
G01*
X018831470Y-17065570D01*
G01*
X018923880Y-16892683D01*
G01*
X018980785Y-16705090D01*
G01*
X019000000Y-16510000D01*
G01*
X018980785Y-16314910D01*
G01*
X018923880Y-16127317D01*
G01*
X018831470Y-15954430D01*
G01*
X018707107Y-15802893D01*
G01*
X018555570Y-15678530D01*
G01*
X018382683Y-15586120D01*
G01*
X018195090Y-15529215D01*
G01*
X018000000Y-15510000D01*
G01*
X017804910Y-15529215D01*
G01*
X017617317Y-15586120D01*
G01*
X017444430Y-15678530D01*
G01*
X017292893Y-15802893D01*
G01*
X017168530Y-15954430D01*
G01*
X017076120Y-16127317D01*
G01*
X017019215Y-16314910D01*
G01*
X017000000Y-16510000D01*
G01*
X017019215Y-16705090D01*
G01*
X017076120Y-16892683D01*
G01*
X017168530Y-17065570D01*
G01*
X017292893Y-17217107D01*
G01*
X017444430Y-17341470D01*
G01*
X017617317Y-17433880D01*
G01*
X017686941Y-17455000D01*
G01*
X005870410Y-17455000D01*
G01*
X005900588Y-17418228D01*
G01*
X005937552Y-17349073D01*
G01*
X005959074Y-17278123D01*
G01*
X008285197Y-14952000D01*
G01*
X009725526Y-14952000D01*
G01*
X009734772Y-14959588D01*
G01*
X009803927Y-14996552D01*
G01*
X009878964Y-15019314D01*
G01*
X009957000Y-15027000D01*
G01*
X010035036Y-15019314D01*
G01*
X010110073Y-14996552D01*
G01*
X010179228Y-14959588D01*
G01*
X010188263Y-14952174D01*
G01*
X010184686Y-14963964D01*
G01*
X010177000Y-15042000D01*
G01*
X010184686Y-15120036D01*
G01*
X010207448Y-15195073D01*
G01*
X010244412Y-15264228D01*
G01*
X010294157Y-15324843D01*
G01*
X010354772Y-15374588D01*
G01*
X010423927Y-15411552D01*
G01*
X010498964Y-15434314D01*
G01*
X010577000Y-15442000D01*
G01*
X010655036Y-15434314D01*
G01*
X010730073Y-15411552D01*
G01*
X010799228Y-15374588D01*
G01*
X010859843Y-15324843D01*
G01*
X010909588Y-15264228D01*
G01*
X010946552Y-15195073D01*
G01*
X010969314Y-15120036D01*
G01*
X010977000Y-15042000D01*
G01*
X010969314Y-14963964D01*
G01*
X010946552Y-14888927D01*
G01*
X010909588Y-14819772D01*
G01*
X010902000Y-14810526D01*
G01*
X010902000Y-14601246D01*
G01*
X010895755Y-14537842D01*
G01*
X010877261Y-14476874D01*
G01*
X010847228Y-14420686D01*
G01*
X010806810Y-14371437D01*
G01*
X009974623Y-13539250D01*
G01*
X009973314Y-13525964D01*
G01*
X009950552Y-13450927D01*
G01*
X009947918Y-13446000D01*
G01*
X010961526Y-13446000D01*
G01*
X010970772Y-13453588D01*
G01*
X011039927Y-13490552D01*
G01*
X011114964Y-13513314D01*
G01*
X011193000Y-13521000D01*
G01*
X011271036Y-13513314D01*
G01*
X011346073Y-13490552D01*
G01*
X011415228Y-13453588D01*
G01*
X011475843Y-13403843D01*
G01*
X011501707Y-13372327D01*
G01*
X014008514Y-15879134D01*
G01*
X014009686Y-15891036D01*
G01*
X014032448Y-15966073D01*
G01*
X014069412Y-16035228D01*
G01*
X014119157Y-16095843D01*
G01*
X014179772Y-16145588D01*
G01*
X014248927Y-16182552D01*
G01*
X014323964Y-16205314D01*
G01*
X014402000Y-16213000D01*
G01*
X014480036Y-16205314D01*
G01*
X014555073Y-16182552D01*
G01*
X014624228Y-16145588D01*
G01*
X014684843Y-16095843D01*
G01*
X014734588Y-16035228D01*
G01*
X014771552Y-15966073D01*
G01*
X014794314Y-15891036D01*
G01*
X014802000Y-15813000D01*
G01*
X014794314Y-15734964D01*
G01*
X014771552Y-15659927D01*
G01*
X014734588Y-15590772D01*
G01*
X014684843Y-15530157D01*
G01*
X014624228Y-15480412D01*
G01*
X014555073Y-15443448D01*
G01*
X014480036Y-15420686D01*
G01*
X014468134Y-15419514D01*
G01*
X010321993Y-11273374D01*
G01*
X010289930Y-11247060D01*
G01*
X011668802Y-11247060D01*
G01*
X011669686Y-11256036D01*
G01*
X011692448Y-11331073D01*
G01*
X011729412Y-11400228D01*
G01*
X011779157Y-11460843D01*
G01*
X011839772Y-11510588D01*
G01*
X011908927Y-11547552D01*
G01*
X011983964Y-11570314D01*
G01*
X011995867Y-11571486D01*
G01*
X013024820Y-12600440D01*
G01*
X013074070Y-12640858D01*
G01*
X013130258Y-12670891D01*
G01*
X013191226Y-12689385D01*
G01*
X013254630Y-12695630D01*
G01*
X013324869Y-12695630D01*
G01*
X036586010Y-12695630D01*
G01*
X039964535Y-16074155D01*
G01*
X039936120Y-16127317D01*
G01*
X039879215Y-16314910D01*
G01*
X039860000Y-16510000D01*
G01*
X039879215Y-16705090D01*
G01*
X039936120Y-16892683D01*
G01*
X040028530Y-17065570D01*
G01*
X040116328Y-17172552D01*
G01*
X024632448Y-17172552D01*
G01*
X024569044Y-17178797D01*
G01*
X024508076Y-17197291D01*
G01*
X024451888Y-17227324D01*
G01*
X024402639Y-17267742D01*
G01*
X018435845Y-23234535D01*
G01*
X018382683Y-23206120D01*
G01*
X018195090Y-23149215D01*
G01*
X018000000Y-23130000D01*
G01*
X017804910Y-23149215D01*
G01*
X017617317Y-23206120D01*
G01*
X017444430Y-23298530D01*
G01*
X017292893Y-23422893D01*
G01*
X017168530Y-23574430D01*
G01*
X017076120Y-23747317D01*
G01*
X017019215Y-23934910D01*
G01*
X017000000Y-24130000D01*
G01*
X017019215Y-24325090D01*
G01*
X017076120Y-24512683D01*
G01*
X017168530Y-24685570D01*
G01*
X017292893Y-24837107D01*
G01*
X017444430Y-24961470D01*
G01*
X017617317Y-25053880D01*
G01*
X017804910Y-25110785D01*
G01*
X018000000Y-25130000D01*
G37*
D39*
G36*
X018000000Y007890000D02*
G01*
X018195090Y007909215D01*
G01*
X018382683Y007966120D01*
G01*
X018555570Y008058530D01*
G01*
X018707107Y008182893D01*
G01*
X018831470Y008334430D01*
G01*
X018923880Y008507317D01*
G01*
X018980785Y008694910D01*
G01*
X019000000Y008890000D01*
G01*
X018980785Y009085090D01*
G01*
X018923880Y009272683D01*
G01*
X018831470Y009445570D01*
G01*
X018707107Y009597107D01*
G01*
X018555570Y009721470D01*
G01*
X018382683Y009813880D01*
G01*
X018195090Y009870785D01*
G01*
X018000000Y009890000D01*
G01*
X017804910Y009870785D01*
G01*
X017617317Y009813880D01*
G01*
X017444430Y009721470D01*
G01*
X017292893Y009597107D01*
G01*
X017168530Y009445570D01*
G01*
X017076120Y009272683D01*
G01*
X017019215Y009085090D01*
G01*
X017000000Y008890000D01*
G01*
X017019215Y008694910D01*
G01*
X017076120Y008507317D01*
G01*
X017168530Y008334430D01*
G01*
X017292893Y008182893D01*
G01*
X017444430Y008058530D01*
G01*
X017617317Y007966120D01*
G01*
X017804910Y007909215D01*
G01*
X018000000Y007890000D01*
G37*
D39*
G36*
X045000000Y003537500D02*
G01*
X045139002Y003551190D01*
G01*
X045176285Y003562500D01*
G01*
X045250000Y003562500D01*
G01*
X045384125Y003575710D01*
G01*
X045513095Y003614833D01*
G01*
X045631955Y003678365D01*
G01*
X045736136Y003763864D01*
G01*
X045821635Y003868045D01*
G01*
X045885167Y003986905D01*
G01*
X045924290Y004115875D01*
G01*
X045929094Y004164646D01*
G01*
X045929094Y004164648D01*
G01*
X045937500Y004250000D01*
G01*
X045932985Y004295840D01*
G01*
X045964981Y004334827D01*
G01*
X046003100Y004406143D01*
G01*
X046026574Y004483525D01*
G01*
X046034500Y004564000D01*
G01*
X046026574Y004644475D01*
G01*
X046003100Y004721857D01*
G01*
X045964981Y004793173D01*
G01*
X045913682Y004855682D01*
G01*
X045851173Y004906981D01*
G01*
X045842795Y004911459D01*
G01*
X045846000Y004944000D01*
G01*
X045838314Y005022036D01*
G01*
X045815552Y005097073D01*
G01*
X045778588Y005166228D01*
G01*
X045728843Y005226843D01*
G01*
X045668228Y005276588D01*
G01*
X045599073Y005313552D01*
G01*
X045524036Y005336314D01*
G01*
X045446000Y005344000D01*
G01*
X045367964Y005336314D01*
G01*
X045346398Y005329772D01*
G01*
X045102812Y005573358D01*
G01*
X045090588Y005596228D01*
G01*
X045040843Y005656843D01*
G01*
X044980228Y005706588D01*
G01*
X044911073Y005743552D01*
G01*
X044836036Y005766314D01*
G01*
X044758000Y005774000D01*
G01*
X044679964Y005766314D01*
G01*
X044604927Y005743552D01*
G01*
X044535772Y005706588D01*
G01*
X044494983Y005673113D01*
G01*
X043298975Y007968557D01*
G01*
X043295809Y007966907D01*
G01*
X043257446Y008038678D01*
G01*
X043164174Y008152330D01*
G01*
X043050522Y008245602D01*
G01*
X042920857Y008314910D01*
G01*
X042780162Y008357589D01*
G01*
X042633844Y008372000D01*
G01*
X041998000Y008372000D01*
G01*
X041851682Y008357589D01*
G01*
X041710987Y008314910D01*
G01*
X041647680Y008281071D01*
G01*
X041691470Y008334430D01*
G01*
X041783880Y008507317D01*
G01*
X041840785Y008694910D01*
G01*
X041860000Y008890000D01*
G01*
X041840785Y009085090D01*
G01*
X041783880Y009272683D01*
G01*
X041691470Y009445570D01*
G01*
X041567107Y009597107D01*
G01*
X041415570Y009721470D01*
G01*
X041242683Y009813880D01*
G01*
X041055090Y009870785D01*
G01*
X040860000Y009890000D01*
G01*
X040664910Y009870785D01*
G01*
X040477317Y009813880D01*
G01*
X040304430Y009721470D01*
G01*
X040152893Y009597107D01*
G01*
X040028530Y009445570D01*
G01*
X039936120Y009272683D01*
G01*
X039879215Y009085090D01*
G01*
X039860000Y008890000D01*
G01*
X039879215Y008694910D01*
G01*
X039936120Y008507317D01*
G01*
X040028530Y008334430D01*
G01*
X040152893Y008182893D01*
G01*
X040304430Y008058530D01*
G01*
X040477317Y007966120D01*
G01*
X040664910Y007909215D01*
G01*
X040860000Y007890000D01*
G01*
X041055090Y007909215D01*
G01*
X041242683Y007966120D01*
G01*
X041372785Y008035661D01*
G01*
X041305090Y007909013D01*
G01*
X041262411Y007768318D01*
G01*
X041248000Y007622000D01*
G01*
X041262411Y007475682D01*
G01*
X041305090Y007334987D01*
G01*
X041374398Y007205322D01*
G01*
X041377096Y007202035D01*
G01*
X041242683Y007273880D01*
G01*
X041055090Y007330785D01*
G01*
X040860000Y007350000D01*
G01*
X040664910Y007330785D01*
G01*
X040477317Y007273880D01*
G01*
X040304430Y007181470D01*
G01*
X040152893Y007057107D01*
G01*
X040028530Y006905570D01*
G01*
X039936120Y006732683D01*
G01*
X039879215Y006545090D01*
G01*
X039860000Y006350000D01*
G01*
X039879215Y006154910D01*
G01*
X039936120Y005967317D01*
G01*
X040028530Y005794430D01*
G01*
X040152893Y005642893D01*
G01*
X040304430Y005518530D01*
G01*
X040477317Y005426120D01*
G01*
X040664910Y005369215D01*
G01*
X040860000Y005350000D01*
G01*
X041055090Y005369215D01*
G01*
X041242683Y005426120D01*
G01*
X041415570Y005518530D01*
G01*
X041567107Y005642893D01*
G01*
X041691470Y005794430D01*
G01*
X041783880Y005967317D01*
G01*
X041840785Y006154910D01*
G01*
X041860000Y006350000D01*
G01*
X041840785Y006545090D01*
G01*
X041783880Y006732683D01*
G01*
X041691470Y006905570D01*
G01*
X041641832Y006966055D01*
G01*
X041710987Y006929090D01*
G01*
X041851682Y006886411D01*
G01*
X041998000Y006872000D01*
G01*
X042178922Y006872000D01*
G01*
X043334870Y004653443D01*
G01*
X043338036Y004655092D01*
G01*
X043376398Y004583322D01*
G01*
X043469670Y004469670D01*
G01*
X043551738Y004402318D01*
G01*
X043550000Y004400000D01*
G01*
X044050000Y004025000D01*
G01*
X044051738Y004027318D01*
G01*
X044083322Y004001398D01*
G01*
X044212987Y003932090D01*
G01*
X044252267Y003920175D01*
G01*
X044572500Y003680000D01*
G01*
X044574151Y003682202D01*
G01*
X044604156Y003657578D01*
G01*
X044727338Y003591736D01*
G01*
X044860998Y003551190D01*
G01*
X045000000Y003537500D01*
G37*
D39*
G36*
X059600000Y006554180D02*
G01*
X059687791Y006562827D01*
G01*
X059772208Y006588434D01*
G01*
X059850007Y006630019D01*
G01*
X059918198Y006685982D01*
G01*
X059923198Y006690982D01*
G01*
X059979161Y006759173D01*
G01*
X060020746Y006836972D01*
G01*
X060046353Y006921389D01*
G01*
X060055000Y007009180D01*
G01*
X060055000Y008004590D01*
G01*
X060055000Y009000000D01*
G01*
X060046353Y009087791D01*
G01*
X060020746Y009172208D01*
G01*
X059979161Y009250007D01*
G01*
X059923198Y009318198D01*
G01*
X059855007Y009374161D01*
G01*
X059777208Y009415746D01*
G01*
X059692791Y009441353D01*
G01*
X059605000Y009450000D01*
G01*
X059517209Y009441353D01*
G01*
X059432792Y009415746D01*
G01*
X059354993Y009374161D01*
G01*
X059286802Y009318198D01*
G01*
X059230839Y009250007D01*
G01*
X059189254Y009172208D01*
G01*
X059163647Y009087791D01*
G01*
X059155000Y009000000D01*
G01*
X059155000Y008004590D01*
G01*
X059155000Y007054944D01*
G01*
X059150000Y007004180D01*
G01*
X059158647Y006916389D01*
G01*
X059184254Y006831972D01*
G01*
X059225839Y006754173D01*
G01*
X059281802Y006685982D01*
G01*
X059349993Y006630019D01*
G01*
X059427792Y006588434D01*
G01*
X059512209Y006562827D01*
G01*
X059600000Y006554180D01*
G37*
D39*
G36*
X018000000Y005350000D02*
G01*
X018195090Y005369215D01*
G01*
X018382683Y005426120D01*
G01*
X018555570Y005518530D01*
G01*
X018707107Y005642893D01*
G01*
X018831470Y005794430D01*
G01*
X018923880Y005967317D01*
G01*
X018980785Y006154910D01*
G01*
X019000000Y006350000D01*
G01*
X018980785Y006545090D01*
G01*
X018923880Y006732683D01*
G01*
X018831470Y006905570D01*
G01*
X018707107Y007057107D01*
G01*
X018555570Y007181470D01*
G01*
X018382683Y007273880D01*
G01*
X018195090Y007330785D01*
G01*
X018000000Y007350000D01*
G01*
X017804910Y007330785D01*
G01*
X017617317Y007273880D01*
G01*
X017444430Y007181470D01*
G01*
X017292893Y007057107D01*
G01*
X017168530Y006905570D01*
G01*
X017076120Y006732683D01*
G01*
X017019215Y006545090D01*
G01*
X017000000Y006350000D01*
G01*
X017019215Y006154910D01*
G01*
X017076120Y005967317D01*
G01*
X017168530Y005794430D01*
G01*
X017292893Y005642893D01*
G01*
X017444430Y005518530D01*
G01*
X017617317Y005426120D01*
G01*
X017804910Y005369215D01*
G01*
X018000000Y005350000D01*
G37*
D39*
G36*
X064510878Y004464830D02*
G01*
X064535115Y004464830D01*
G01*
X069059830Y004464830D01*
G01*
X069123234Y004471075D01*
G01*
X069184202Y004489569D01*
G01*
X069240390Y004519602D01*
G01*
X069289640Y004560020D01*
G01*
X069479620Y004750000D01*
G01*
X071520000Y004750000D01*
G01*
X071520000Y007250000D01*
G01*
X069020000Y007250000D01*
G01*
X069020000Y005209620D01*
G01*
X068980000Y005169620D01*
G01*
X068980000Y007250000D01*
G01*
X066480000Y007250000D01*
G01*
X066480000Y006325000D01*
G01*
X064186685Y006325000D01*
G01*
X064123281Y006318755D01*
G01*
X064120661Y006317960D01*
G01*
X064111370Y006325585D01*
G01*
X064042215Y006362549D01*
G01*
X063967178Y006385311D01*
G01*
X063889142Y006392997D01*
G01*
X063811105Y006385311D01*
G01*
X063736068Y006362549D01*
G01*
X063666913Y006325585D01*
G01*
X063606299Y006275840D01*
G01*
X063556554Y006215225D01*
G01*
X063535401Y006175652D01*
G01*
X063523926Y006176782D01*
G01*
X063445890Y006169096D01*
G01*
X063370852Y006146334D01*
G01*
X063301698Y006109370D01*
G01*
X063241083Y006059625D01*
G01*
X063191338Y005999010D01*
G01*
X063154374Y005929856D01*
G01*
X063131612Y005854818D01*
G01*
X063123926Y005776782D01*
G01*
X063131612Y005698746D01*
G01*
X063154374Y005623709D01*
G01*
X063191338Y005554554D01*
G01*
X063241083Y005493940D01*
G01*
X063301698Y005444194D01*
G01*
X063370852Y005407230D01*
G01*
X063445890Y005384468D01*
G01*
X063457793Y005383296D01*
G01*
X064281068Y004560020D01*
G01*
X064330318Y004519602D01*
G01*
X064386506Y004489569D01*
G01*
X064447474Y004471075D01*
G01*
X064510878Y004464830D01*
G37*
D39*
G36*
X010420000Y004475000D02*
G01*
X010498036Y004482686D01*
G01*
X010573073Y004505448D01*
G01*
X010642228Y004542412D01*
G01*
X010702843Y004592157D01*
G01*
X010752588Y004652772D01*
G01*
X010789552Y004721927D01*
G01*
X010812314Y004796964D01*
G01*
X010820000Y004875000D01*
G01*
X010812314Y004953036D01*
G01*
X010789552Y005028073D01*
G01*
X010752588Y005097228D01*
G01*
X010702843Y005157843D01*
G01*
X010642228Y005207588D01*
G01*
X010573073Y005244552D01*
G01*
X010498036Y005267314D01*
G01*
X010486134Y005268486D01*
G01*
X009124588Y006630031D01*
G01*
X009075339Y006670449D01*
G01*
X009019151Y006700482D01*
G01*
X008958183Y006718977D01*
G01*
X008894778Y006725222D01*
G01*
X-18968796Y006725222D01*
G01*
X-18977772Y006732588D01*
G01*
X-19046927Y006769552D01*
G01*
X-19121964Y006792314D01*
G01*
X-19200000Y006800000D01*
G01*
X-19278036Y006792314D01*
G01*
X-19353073Y006769552D01*
G01*
X-19422228Y006732588D01*
G01*
X-19482843Y006682843D01*
G01*
X-19532588Y006622228D01*
G01*
X-19569552Y006553073D01*
G01*
X-19592314Y006478036D01*
G01*
X-19600000Y006400000D01*
G01*
X-19592314Y006321964D01*
G01*
X-19569552Y006246927D01*
G01*
X-19532588Y006177772D01*
G01*
X-19482843Y006117157D01*
G01*
X-19422228Y006067412D01*
G01*
X-19353073Y006030448D01*
G01*
X-19278036Y006007686D01*
G01*
X-19200000Y006000000D01*
G01*
X-19121964Y006007686D01*
G01*
X-19046927Y006030448D01*
G01*
X-18977772Y006067412D01*
G01*
X-18968255Y006075222D01*
G01*
X008760159Y006075222D01*
G01*
X010026514Y004808866D01*
G01*
X010027686Y004796964D01*
G01*
X010050448Y004721927D01*
G01*
X010087412Y004652772D01*
G01*
X010137157Y004592157D01*
G01*
X010197772Y004542412D01*
G01*
X010266927Y004505448D01*
G01*
X010341964Y004482686D01*
G01*
X010420000Y004475000D01*
G37*
D39*
G36*
X-13105000Y003080000D02*
G01*
X-13026964Y003087686D01*
G01*
X-12951927Y003110448D01*
G01*
X-12882772Y003147412D01*
G01*
X-12822157Y003197157D01*
G01*
X-12772412Y003257772D01*
G01*
X-12735448Y003326927D01*
G01*
X-12712686Y003401964D01*
G01*
X-12705000Y003480000D01*
G01*
X-12712686Y003558036D01*
G01*
X-12735448Y003633073D01*
G01*
X-12772412Y003702228D01*
G01*
X-12780000Y003711474D01*
G01*
X-12780000Y004238380D01*
G01*
X-12786245Y004301785D01*
G01*
X-12804739Y004362753D01*
G01*
X-12834772Y004418941D01*
G01*
X-12875190Y004468190D01*
G01*
X-13847059Y005440059D01*
G01*
X-13851686Y005487036D01*
G01*
X-13874448Y005562073D01*
G01*
X-13911412Y005631228D01*
G01*
X-13961157Y005691843D01*
G01*
X-14021772Y005741588D01*
G01*
X-14090927Y005778552D01*
G01*
X-14165964Y005801314D01*
G01*
X-14244000Y005809000D01*
G01*
X-14322036Y005801314D01*
G01*
X-14397073Y005778552D01*
G01*
X-14466228Y005741588D01*
G01*
X-14526843Y005691843D01*
G01*
X-14576588Y005631228D01*
G01*
X-14613552Y005562073D01*
G01*
X-14636314Y005487036D01*
G01*
X-14644000Y005409000D01*
G01*
X-14636314Y005330964D01*
G01*
X-14613552Y005255927D01*
G01*
X-14576588Y005186772D01*
G01*
X-14526843Y005126157D01*
G01*
X-14466228Y005076412D01*
G01*
X-14397073Y005039448D01*
G01*
X-14352021Y005025782D01*
G01*
X-13430000Y004103761D01*
G01*
X-13430000Y003711474D01*
G01*
X-13437588Y003702228D01*
G01*
X-13474552Y003633073D01*
G01*
X-13497314Y003558036D01*
G01*
X-13505000Y003480000D01*
G01*
X-13497314Y003401964D01*
G01*
X-13474552Y003326927D01*
G01*
X-13437588Y003257772D01*
G01*
X-13387843Y003197157D01*
G01*
X-13327228Y003147412D01*
G01*
X-13258073Y003110448D01*
G01*
X-13183036Y003087686D01*
G01*
X-13105000Y003080000D01*
G37*
D39*
G36*
X013056000Y003169000D02*
G01*
X013134036Y003176686D01*
G01*
X013209073Y003199448D01*
G01*
X013278228Y003236412D01*
G01*
X013338843Y003286157D01*
G01*
X013388588Y003346772D01*
G01*
X013425552Y003415927D01*
G01*
X013448314Y003490964D01*
G01*
X013456000Y003569000D01*
G01*
X013448314Y003647036D01*
G01*
X013425552Y003722073D01*
G01*
X013388588Y003791228D01*
G01*
X013381000Y003800474D01*
G01*
X013381000Y003921380D01*
G01*
X013666134Y004206514D01*
G01*
X013678036Y004207686D01*
G01*
X013753073Y004230448D01*
G01*
X013822228Y004267412D01*
G01*
X013882843Y004317157D01*
G01*
X013932588Y004377772D01*
G01*
X013969552Y004446927D01*
G01*
X013992314Y004521964D01*
G01*
X014000000Y004600000D01*
G01*
X013992314Y004678036D01*
G01*
X013969552Y004753073D01*
G01*
X013932588Y004822228D01*
G01*
X013882843Y004882843D01*
G01*
X013822228Y004932588D01*
G01*
X013753073Y004969552D01*
G01*
X013678036Y004992314D01*
G01*
X013600000Y005000000D01*
G01*
X013521964Y004992314D01*
G01*
X013446927Y004969552D01*
G01*
X013377772Y004932588D01*
G01*
X013317157Y004882843D01*
G01*
X013267412Y004822228D01*
G01*
X013230448Y004753073D01*
G01*
X013207686Y004678036D01*
G01*
X013206514Y004666134D01*
G01*
X012826190Y004285810D01*
G01*
X012785772Y004236560D01*
G01*
X012755739Y004180372D01*
G01*
X012737245Y004119404D01*
G01*
X012731000Y004056000D01*
G01*
X012731000Y003800474D01*
G01*
X012723412Y003791228D01*
G01*
X012686448Y003722073D01*
G01*
X012663686Y003647036D01*
G01*
X012656000Y003569000D01*
G01*
X012663686Y003490964D01*
G01*
X012686448Y003415927D01*
G01*
X012723412Y003346772D01*
G01*
X012773157Y003286157D01*
G01*
X012833772Y003236412D01*
G01*
X012902927Y003199448D01*
G01*
X012977964Y003176686D01*
G01*
X013056000Y003169000D01*
G37*
D39*
G36*
X-68000000Y-01000000D02*
G01*
X-67804910Y-00980785D01*
G01*
X-67617317Y-00923880D01*
G01*
X-67444430Y-00831470D01*
G01*
X-67292893Y-00707107D01*
G01*
X-67168530Y-00555570D01*
G01*
X-67076120Y-00382683D01*
G01*
X-67019215Y-00195090D01*
G01*
X-67000000Y000000000D01*
G01*
X-67019215Y000195090D01*
G01*
X-67076120Y000382683D01*
G01*
X-67104535Y000435845D01*
G01*
X-63452630Y004087750D01*
G01*
X-47251227Y004087750D01*
G01*
X-47203000Y004083000D01*
G01*
X-47124964Y004090686D01*
G01*
X-47120851Y004091934D01*
G01*
X-47099923Y004093995D01*
G01*
X-47038955Y004112489D01*
G01*
X-46982767Y004142522D01*
G01*
X-46933517Y004182940D01*
G01*
X-46893099Y004232190D01*
G01*
X-46891662Y004234879D01*
G01*
X-46870412Y004260772D01*
G01*
X-46833448Y004329927D01*
G01*
X-46810686Y004404964D01*
G01*
X-46803000Y004483000D01*
G01*
X-46810686Y004561036D01*
G01*
X-46833448Y004636073D01*
G01*
X-46870412Y004705228D01*
G01*
X-46920157Y004765843D01*
G01*
X-46980772Y004815588D01*
G01*
X-47049927Y004852552D01*
G01*
X-47124964Y004875314D01*
G01*
X-47203000Y004883000D01*
G01*
X-47281036Y004875314D01*
G01*
X-47356073Y004852552D01*
G01*
X-47425228Y004815588D01*
G01*
X-47485843Y004765843D01*
G01*
X-47508898Y004737750D01*
G01*
X-63587250Y004737750D01*
G01*
X-63650654Y004731505D01*
G01*
X-63711622Y004713011D01*
G01*
X-63767810Y004682978D01*
G01*
X-63817060Y004642560D01*
G01*
X-67564155Y000895465D01*
G01*
X-67617317Y000923880D01*
G01*
X-67804910Y000980785D01*
G01*
X-68000000Y001000000D01*
G01*
X-68195090Y000980785D01*
G01*
X-68382683Y000923880D01*
G01*
X-68555570Y000831470D01*
G01*
X-68707107Y000707107D01*
G01*
X-68831470Y000555570D01*
G01*
X-68923880Y000382683D01*
G01*
X-68980785Y000195090D01*
G01*
X-69000000Y000000000D01*
G01*
X-68980785Y-00195090D01*
G01*
X-68923880Y-00382683D01*
G01*
X-68831470Y-00555570D01*
G01*
X-68707107Y-00707107D01*
G01*
X-68555570Y-00831470D01*
G01*
X-68382683Y-00923880D01*
G01*
X-68195090Y-00980785D01*
G01*
X-68000000Y-01000000D01*
G37*
D39*
G36*
X018000000Y002810000D02*
G01*
X018195090Y002829215D01*
G01*
X018382683Y002886120D01*
G01*
X018555570Y002978530D01*
G01*
X018707107Y003102893D01*
G01*
X018831470Y003254430D01*
G01*
X018923880Y003427317D01*
G01*
X018980785Y003614910D01*
G01*
X019000000Y003810000D01*
G01*
X018980785Y004005090D01*
G01*
X018923880Y004192683D01*
G01*
X018831470Y004365570D01*
G01*
X018707107Y004517107D01*
G01*
X018555570Y004641470D01*
G01*
X018382683Y004733880D01*
G01*
X018195090Y004790785D01*
G01*
X018000000Y004810000D01*
G01*
X017804910Y004790785D01*
G01*
X017617317Y004733880D01*
G01*
X017444430Y004641470D01*
G01*
X017292893Y004517107D01*
G01*
X017168530Y004365570D01*
G01*
X017076120Y004192683D01*
G01*
X017019215Y004005090D01*
G01*
X017000000Y003810000D01*
G01*
X017019215Y003614910D01*
G01*
X017076120Y003427317D01*
G01*
X017168530Y003254430D01*
G01*
X017292893Y003102893D01*
G01*
X017444430Y002978530D01*
G01*
X017617317Y002886120D01*
G01*
X017804910Y002829215D01*
G01*
X018000000Y002810000D01*
G37*
D39*
G36*
X040860000Y002810000D02*
G01*
X041055090Y002829215D01*
G01*
X041242683Y002886120D01*
G01*
X041415570Y002978530D01*
G01*
X041567107Y003102893D01*
G01*
X041691470Y003254430D01*
G01*
X041783880Y003427317D01*
G01*
X041840785Y003614910D01*
G01*
X041860000Y003810000D01*
G01*
X041840785Y004005090D01*
G01*
X041783880Y004192683D01*
G01*
X041691470Y004365570D01*
G01*
X041567107Y004517107D01*
G01*
X041415570Y004641470D01*
G01*
X041242683Y004733880D01*
G01*
X041055090Y004790785D01*
G01*
X040860000Y004810000D01*
G01*
X040664910Y004790785D01*
G01*
X040477317Y004733880D01*
G01*
X040304430Y004641470D01*
G01*
X040152893Y004517107D01*
G01*
X040028530Y004365570D01*
G01*
X039936120Y004192683D01*
G01*
X039879215Y004005090D01*
G01*
X039860000Y003810000D01*
G01*
X039879215Y003614910D01*
G01*
X039936120Y003427317D01*
G01*
X040028530Y003254430D01*
G01*
X040152893Y003102893D01*
G01*
X040304430Y002978530D01*
G01*
X040477317Y002886120D01*
G01*
X040664910Y002829215D01*
G01*
X040860000Y002810000D01*
G37*
D39*
G36*
X055000000Y001000000D02*
G01*
X055195090Y001019215D01*
G01*
X055382683Y001076120D01*
G01*
X055555570Y001168530D01*
G01*
X055707107Y001292893D01*
G01*
X055831470Y001444430D01*
G01*
X055923880Y001617317D01*
G01*
X055980785Y001804910D01*
G01*
X056000000Y002000000D01*
G01*
X055980785Y002195090D01*
G01*
X055923880Y002382683D01*
G01*
X055831470Y002555570D01*
G01*
X055707107Y002707107D01*
G01*
X055555570Y002831470D01*
G01*
X055382683Y002923880D01*
G01*
X055195090Y002980785D01*
G01*
X055000000Y003000000D01*
G01*
X054804910Y002980785D01*
G01*
X054617317Y002923880D01*
G01*
X054444430Y002831470D01*
G01*
X054292893Y002707107D01*
G01*
X054168530Y002555570D01*
G01*
X054076120Y002382683D01*
G01*
X054019215Y002195090D01*
G01*
X054000000Y002000000D01*
G01*
X054019215Y001804910D01*
G01*
X054076120Y001617317D01*
G01*
X054168530Y001444430D01*
G01*
X054292893Y001292893D01*
G01*
X054444430Y001168530D01*
G01*
X054617317Y001076120D01*
G01*
X054804910Y001019215D01*
G01*
X055000000Y001000000D01*
G37*
D39*
G36*
X018000000Y000270000D02*
G01*
X018195090Y000289215D01*
G01*
X018382683Y000346120D01*
G01*
X018555570Y000438530D01*
G01*
X018707107Y000562893D01*
G01*
X018831470Y000714430D01*
G01*
X018923880Y000887317D01*
G01*
X018980785Y001074910D01*
G01*
X019000000Y001270000D01*
G01*
X018980785Y001465090D01*
G01*
X018923880Y001652683D01*
G01*
X018831470Y001825570D01*
G01*
X018707107Y001977107D01*
G01*
X018555570Y002101470D01*
G01*
X018382683Y002193880D01*
G01*
X018195090Y002250785D01*
G01*
X018000000Y002270000D01*
G01*
X017804910Y002250785D01*
G01*
X017617317Y002193880D01*
G01*
X017444430Y002101470D01*
G01*
X017292893Y001977107D01*
G01*
X017168530Y001825570D01*
G01*
X017076120Y001652683D01*
G01*
X017019215Y001465090D01*
G01*
X017000000Y001270000D01*
G01*
X017019215Y001074910D01*
G01*
X017076120Y000887317D01*
G01*
X017168530Y000714430D01*
G01*
X017292893Y000562893D01*
G01*
X017444430Y000438530D01*
G01*
X017617317Y000346120D01*
G01*
X017804910Y000289215D01*
G01*
X018000000Y000270000D01*
G37*
D39*
G36*
X040860000Y000270000D02*
G01*
X041055090Y000289215D01*
G01*
X041242683Y000346120D01*
G01*
X041415570Y000438530D01*
G01*
X041567107Y000562893D01*
G01*
X041691470Y000714430D01*
G01*
X041783880Y000887317D01*
G01*
X041840785Y001074910D01*
G01*
X041860000Y001270000D01*
G01*
X041840785Y001465090D01*
G01*
X041783880Y001652683D01*
G01*
X041691470Y001825570D01*
G01*
X041567107Y001977107D01*
G01*
X041415570Y002101470D01*
G01*
X041242683Y002193880D01*
G01*
X041055090Y002250785D01*
G01*
X040860000Y002270000D01*
G01*
X040664910Y002250785D01*
G01*
X040477317Y002193880D01*
G01*
X040304430Y002101470D01*
G01*
X040152893Y001977107D01*
G01*
X040028530Y001825570D01*
G01*
X039936120Y001652683D01*
G01*
X039879215Y001465090D01*
G01*
X039860000Y001270000D01*
G01*
X039879215Y001074910D01*
G01*
X039936120Y000887317D01*
G01*
X040028530Y000714430D01*
G01*
X040152893Y000562893D01*
G01*
X040304430Y000438530D01*
G01*
X040477317Y000346120D01*
G01*
X040664910Y000289215D01*
G01*
X040860000Y000270000D01*
G37*
D39*
G36*
X-71540000Y-01000000D02*
G01*
X-69540000Y-01000000D01*
G01*
X-69540000Y001000000D01*
G01*
X-71540000Y001000000D01*
G01*
X-71540000Y-01000000D01*
G37*
D39*
G36*
X-65460000Y-01000000D02*
G01*
X-65264910Y-00980785D01*
G01*
X-65077317Y-00923880D01*
G01*
X-64904430Y-00831470D01*
G01*
X-64752893Y-00707107D01*
G01*
X-64628530Y-00555570D01*
G01*
X-64536120Y-00382683D01*
G01*
X-64479215Y-00195090D01*
G01*
X-64460000Y000000000D01*
G01*
X-64479215Y000195090D01*
G01*
X-64536120Y000382683D01*
G01*
X-64628530Y000555570D01*
G01*
X-64752893Y000707107D01*
G01*
X-64904430Y000831470D01*
G01*
X-65077317Y000923880D01*
G01*
X-65264910Y000980785D01*
G01*
X-65460000Y001000000D01*
G01*
X-65655090Y000980785D01*
G01*
X-65842683Y000923880D01*
G01*
X-66015570Y000831470D01*
G01*
X-66167107Y000707107D01*
G01*
X-66291470Y000555570D01*
G01*
X-66383880Y000382683D01*
G01*
X-66440785Y000195090D01*
G01*
X-66460000Y000000000D01*
G01*
X-66440785Y-00195090D01*
G01*
X-66383880Y-00382683D01*
G01*
X-66291470Y-00555570D01*
G01*
X-66167107Y-00707107D01*
G01*
X-66015570Y-00831470D01*
G01*
X-65842683Y-00923880D01*
G01*
X-65655090Y-00980785D01*
G01*
X-65460000Y-01000000D01*
G37*
D39*
G36*
X040860000Y-02270000D02*
G01*
X041055090Y-02250785D01*
G01*
X041242683Y-02193880D01*
G01*
X041415570Y-02101470D01*
G01*
X041567107Y-01977107D01*
G01*
X041691470Y-01825570D01*
G01*
X041783880Y-01652683D01*
G01*
X041840785Y-01465090D01*
G01*
X041860000Y-01270000D01*
G01*
X041840785Y-01074910D01*
G01*
X041783880Y-00887317D01*
G01*
X041691470Y-00714430D01*
G01*
X041567107Y-00562893D01*
G01*
X041415570Y-00438530D01*
G01*
X041242683Y-00346120D01*
G01*
X041055090Y-00289215D01*
G01*
X040860000Y-00270000D01*
G01*
X040664910Y-00289215D01*
G01*
X040477317Y-00346120D01*
G01*
X040304430Y-00438530D01*
G01*
X040152893Y-00562893D01*
G01*
X040028530Y-00714430D01*
G01*
X039936120Y-00887317D01*
G01*
X039879215Y-01074910D01*
G01*
X039860000Y-01270000D01*
G01*
X039879215Y-01465090D01*
G01*
X039936120Y-01652683D01*
G01*
X040028530Y-01825570D01*
G01*
X040152893Y-01977107D01*
G01*
X040304430Y-02101470D01*
G01*
X040477317Y-02193880D01*
G01*
X040664910Y-02250785D01*
G01*
X040860000Y-02270000D01*
G37*
D39*
G36*
X-01127000Y-04925000D02*
G01*
X-01048964Y-04917314D01*
G01*
X-00973927Y-04894552D01*
G01*
X-00904772Y-04857588D01*
G01*
X-00844157Y-04807843D01*
G01*
X-00794412Y-04747228D01*
G01*
X-00757448Y-04678073D01*
G01*
X-00734686Y-04603036D01*
G01*
X-00727000Y-04525000D01*
G01*
X-00734686Y-04446964D01*
G01*
X-00757448Y-04371927D01*
G01*
X-00794412Y-04302772D01*
G01*
X-00844157Y-04242157D01*
G01*
X-00904772Y-04192412D01*
G01*
X-00973927Y-04155448D01*
G01*
X-01048964Y-04132686D01*
G01*
X-01127000Y-04125000D01*
G01*
X-01205036Y-04132686D01*
G01*
X-01280073Y-04155448D01*
G01*
X-01349228Y-04192412D01*
G01*
X-01358474Y-04200000D01*
G01*
X-01684380Y-04200000D01*
G01*
X-04046514Y-01837867D01*
G01*
X-04047686Y-01825964D01*
G01*
X-04070448Y-01750927D01*
G01*
X-04107412Y-01681772D01*
G01*
X-04157157Y-01621157D01*
G01*
X-04217772Y-01571412D01*
G01*
X-04286927Y-01534448D01*
G01*
X-04361964Y-01511686D01*
G01*
X-04440000Y-01504000D01*
G01*
X-04518036Y-01511686D01*
G01*
X-04593073Y-01534448D01*
G01*
X-04662228Y-01571412D01*
G01*
X-04722843Y-01621157D01*
G01*
X-04772588Y-01681772D01*
G01*
X-04809552Y-01750927D01*
G01*
X-04832314Y-01825964D01*
G01*
X-04840000Y-01904000D01*
G01*
X-04832314Y-01982036D01*
G01*
X-04809552Y-02057073D01*
G01*
X-04772588Y-02126228D01*
G01*
X-04722843Y-02186843D01*
G01*
X-04662228Y-02236588D01*
G01*
X-04593073Y-02273552D01*
G01*
X-04518036Y-02296314D01*
G01*
X-04506133Y-02297486D01*
G01*
X-02048810Y-04754810D01*
G01*
X-01999560Y-04795228D01*
G01*
X-01943372Y-04825261D01*
G01*
X-01882404Y-04843755D01*
G01*
X-01819000Y-04850000D01*
G01*
X-01358474Y-04850000D01*
G01*
X-01349228Y-04857588D01*
G01*
X-01280073Y-04894552D01*
G01*
X-01205036Y-04917314D01*
G01*
X-01127000Y-04925000D01*
G37*
D39*
G36*
X018000000Y-04810000D02*
G01*
X018195090Y-04790785D01*
G01*
X018382683Y-04733880D01*
G01*
X018555570Y-04641470D01*
G01*
X018707107Y-04517107D01*
G01*
X018831470Y-04365570D01*
G01*
X018923880Y-04192683D01*
G01*
X018980785Y-04005090D01*
G01*
X019000000Y-03810000D01*
G01*
X018980785Y-03614910D01*
G01*
X018923880Y-03427317D01*
G01*
X018831470Y-03254430D01*
G01*
X018707107Y-03102893D01*
G01*
X018555570Y-02978530D01*
G01*
X018382683Y-02886120D01*
G01*
X018195090Y-02829215D01*
G01*
X018000000Y-02810000D01*
G01*
X017804910Y-02829215D01*
G01*
X017617317Y-02886120D01*
G01*
X017444430Y-02978530D01*
G01*
X017292893Y-03102893D01*
G01*
X017168530Y-03254430D01*
G01*
X017076120Y-03427317D01*
G01*
X017019215Y-03614910D01*
G01*
X017000000Y-03810000D01*
G01*
X017019215Y-04005090D01*
G01*
X017076120Y-04192683D01*
G01*
X017168530Y-04365570D01*
G01*
X017292893Y-04517107D01*
G01*
X017444430Y-04641470D01*
G01*
X017617317Y-04733880D01*
G01*
X017804910Y-04790785D01*
G01*
X018000000Y-04810000D01*
G37*
D39*
G36*
X040860000Y-04810000D02*
G01*
X041055090Y-04790785D01*
G01*
X041242683Y-04733880D01*
G01*
X041415570Y-04641470D01*
G01*
X041567107Y-04517107D01*
G01*
X041691470Y-04365570D01*
G01*
X041783880Y-04192683D01*
G01*
X041840785Y-04005090D01*
G01*
X041860000Y-03810000D01*
G01*
X041840785Y-03614910D01*
G01*
X041783880Y-03427317D01*
G01*
X041691470Y-03254430D01*
G01*
X041567107Y-03102893D01*
G01*
X041415570Y-02978530D01*
G01*
X041242683Y-02886120D01*
G01*
X041055090Y-02829215D01*
G01*
X040860000Y-02810000D01*
G01*
X040664910Y-02829215D01*
G01*
X040477317Y-02886120D01*
G01*
X040304430Y-02978530D01*
G01*
X040152893Y-03102893D01*
G01*
X040028530Y-03254430D01*
G01*
X039936120Y-03427317D01*
G01*
X039879215Y-03614910D01*
G01*
X039860000Y-03810000D01*
G01*
X039879215Y-04005090D01*
G01*
X039936120Y-04192683D01*
G01*
X040028530Y-04365570D01*
G01*
X040152893Y-04517107D01*
G01*
X040304430Y-04641470D01*
G01*
X040477317Y-04733880D01*
G01*
X040664910Y-04790785D01*
G01*
X040860000Y-04810000D01*
G37*
D39*
G36*
X-03435000Y-06605000D02*
G01*
X-03356964Y-06597314D01*
G01*
X-03281927Y-06574552D01*
G01*
X-03212772Y-06537588D01*
G01*
X-03152157Y-06487843D01*
G01*
X-03102412Y-06427228D01*
G01*
X-03065448Y-06358073D01*
G01*
X-03042686Y-06283036D01*
G01*
X-03035000Y-06205000D01*
G01*
X-03042686Y-06126964D01*
G01*
X-03065448Y-06051927D01*
G01*
X-03102412Y-05982772D01*
G01*
X-03152157Y-05922157D01*
G01*
X-03212772Y-05872412D01*
G01*
X-03281927Y-05835448D01*
G01*
X-03356964Y-05812686D01*
G01*
X-03435000Y-05805000D01*
G01*
X-03513036Y-05812686D01*
G01*
X-03588073Y-05835448D01*
G01*
X-03657228Y-05872412D01*
G01*
X-03666474Y-05880000D01*
G01*
X-04007380Y-05880000D01*
G01*
X-06445514Y-03441867D01*
G01*
X-06446686Y-03429964D01*
G01*
X-06469448Y-03354927D01*
G01*
X-06506412Y-03285772D01*
G01*
X-06556157Y-03225157D01*
G01*
X-06616772Y-03175412D01*
G01*
X-06685927Y-03138448D01*
G01*
X-06760964Y-03115686D01*
G01*
X-06839000Y-03108000D01*
G01*
X-06917036Y-03115686D01*
G01*
X-06992073Y-03138448D01*
G01*
X-07061228Y-03175412D01*
G01*
X-07121843Y-03225157D01*
G01*
X-07171588Y-03285772D01*
G01*
X-07208552Y-03354927D01*
G01*
X-07231314Y-03429964D01*
G01*
X-07239000Y-03508000D01*
G01*
X-07231314Y-03586036D01*
G01*
X-07208552Y-03661073D01*
G01*
X-07171588Y-03730228D01*
G01*
X-07121843Y-03790843D01*
G01*
X-07061228Y-03840588D01*
G01*
X-06992073Y-03877552D01*
G01*
X-06917036Y-03900314D01*
G01*
X-06905133Y-03901486D01*
G01*
X-04371810Y-06434810D01*
G01*
X-04322560Y-06475228D01*
G01*
X-04266372Y-06505261D01*
G01*
X-04205404Y-06523755D01*
G01*
X-04142000Y-06530000D01*
G01*
X-03666474Y-06530000D01*
G01*
X-03657228Y-06537588D01*
G01*
X-03588073Y-06574552D01*
G01*
X-03513036Y-06597314D01*
G01*
X-03435000Y-06605000D01*
G37*
D39*
G36*
X069250000Y-07250000D02*
G01*
X071750000Y-07250000D01*
G01*
X071750000Y-04750000D01*
G01*
X069250000Y-04750000D01*
G01*
X069250000Y-07250000D01*
G37*
D39*
G36*
X040860000Y-07350000D02*
G01*
X041055090Y-07330785D01*
G01*
X041242683Y-07273880D01*
G01*
X041415570Y-07181470D01*
G01*
X041567107Y-07057107D01*
G01*
X041691470Y-06905570D01*
G01*
X041783880Y-06732683D01*
G01*
X041840785Y-06545090D01*
G01*
X041860000Y-06350000D01*
G01*
X041840785Y-06154910D01*
G01*
X041783880Y-05967317D01*
G01*
X041691470Y-05794430D01*
G01*
X041567107Y-05642893D01*
G01*
X041415570Y-05518530D01*
G01*
X041242683Y-05426120D01*
G01*
X041055090Y-05369215D01*
G01*
X040860000Y-05350000D01*
G01*
X040664910Y-05369215D01*
G01*
X040477317Y-05426120D01*
G01*
X040304430Y-05518530D01*
G01*
X040152893Y-05642893D01*
G01*
X040028530Y-05794430D01*
G01*
X039936120Y-05967317D01*
G01*
X039879215Y-06154910D01*
G01*
X039860000Y-06350000D01*
G01*
X039879215Y-06545090D01*
G01*
X039936120Y-06732683D01*
G01*
X040028530Y-06905570D01*
G01*
X040152893Y-07057107D01*
G01*
X040304430Y-07181470D01*
G01*
X040477317Y-07273880D01*
G01*
X040664910Y-07330785D01*
G01*
X040860000Y-07350000D01*
G37*
D39*
G36*
X018000000Y-09890000D02*
G01*
X018195090Y-09870785D01*
G01*
X018382683Y-09813880D01*
G01*
X018555570Y-09721470D01*
G01*
X018707107Y-09597107D01*
G01*
X018831470Y-09445570D01*
G01*
X018923880Y-09272683D01*
G01*
X018980785Y-09085090D01*
G01*
X019000000Y-08890000D01*
G01*
X018980785Y-08694910D01*
G01*
X018923880Y-08507317D01*
G01*
X018831470Y-08334430D01*
G01*
X018707107Y-08182893D01*
G01*
X018555570Y-08058530D01*
G01*
X018382683Y-07966120D01*
G01*
X018195090Y-07909215D01*
G01*
X018000000Y-07890000D01*
G01*
X017804910Y-07909215D01*
G01*
X017617317Y-07966120D01*
G01*
X017444430Y-08058530D01*
G01*
X017292893Y-08182893D01*
G01*
X017168530Y-08334430D01*
G01*
X017076120Y-08507317D01*
G01*
X017019215Y-08694910D01*
G01*
X017000000Y-08890000D01*
G01*
X017019215Y-09085090D01*
G01*
X017076120Y-09272683D01*
G01*
X017168530Y-09445570D01*
G01*
X017292893Y-09597107D01*
G01*
X017444430Y-09721470D01*
G01*
X017617317Y-09813880D01*
G01*
X017804910Y-09870785D01*
G01*
X018000000Y-09890000D01*
G37*
D39*
G36*
X-65460000Y-16000000D02*
G01*
X-65264910Y-15980785D01*
G01*
X-65077317Y-15923880D01*
G01*
X-64904430Y-15831470D01*
G01*
X-64752893Y-15707107D01*
G01*
X-64628530Y-15555570D01*
G01*
X-64536120Y-15382683D01*
G01*
X-64518622Y-15325000D01*
G01*
X-63684475Y-15325000D01*
G01*
X-63621071Y-15318755D01*
G01*
X-63560103Y-15300261D01*
G01*
X-63503915Y-15270228D01*
G01*
X-63454665Y-15229810D01*
G01*
X-58173341Y-09948485D01*
G01*
X-58132923Y-09899236D01*
G01*
X-58129634Y-09893082D01*
G01*
X-58117157Y-09882843D01*
G01*
X-58067412Y-09822228D01*
G01*
X-58030448Y-09753073D01*
G01*
X-58007686Y-09678036D01*
G01*
X-58000000Y-09600000D01*
G01*
X-58007686Y-09521964D01*
G01*
X-58030448Y-09446927D01*
G01*
X-58067412Y-09377772D01*
G01*
X-58117157Y-09317157D01*
G01*
X-58177772Y-09267412D01*
G01*
X-58246927Y-09230448D01*
G01*
X-58321964Y-09207686D01*
G01*
X-58400000Y-09200000D01*
G01*
X-58478036Y-09207686D01*
G01*
X-58553073Y-09230448D01*
G01*
X-58622228Y-09267412D01*
G01*
X-58682843Y-09317157D01*
G01*
X-58732588Y-09377772D01*
G01*
X-58769552Y-09446927D01*
G01*
X-58792314Y-09521964D01*
G01*
X-58800000Y-09600000D01*
G01*
X-58794987Y-09650893D01*
G01*
X-63819095Y-14675000D01*
G01*
X-64518622Y-14675000D01*
G01*
X-64536120Y-14617317D01*
G01*
X-64628530Y-14444430D01*
G01*
X-64752893Y-14292893D01*
G01*
X-64904430Y-14168530D01*
G01*
X-65077317Y-14076120D01*
G01*
X-65264910Y-14019215D01*
G01*
X-65460000Y-14000000D01*
G01*
X-65655090Y-14019215D01*
G01*
X-65842683Y-14076120D01*
G01*
X-66015570Y-14168530D01*
G01*
X-66167107Y-14292893D01*
G01*
X-66291470Y-14444430D01*
G01*
X-66383880Y-14617317D01*
G01*
X-66440785Y-14804910D01*
G01*
X-66460000Y-15000000D01*
G01*
X-66440785Y-15195090D01*
G01*
X-66383880Y-15382683D01*
G01*
X-66291470Y-15555570D01*
G01*
X-66167107Y-15707107D01*
G01*
X-66015570Y-15831470D01*
G01*
X-65842683Y-15923880D01*
G01*
X-65655090Y-15980785D01*
G01*
X-65460000Y-16000000D01*
G37*
D39*
G36*
X-18242000Y-11394000D02*
G01*
X-18163964Y-11386314D01*
G01*
X-18088927Y-11363552D01*
G01*
X-18019772Y-11326588D01*
G01*
X-17959157Y-11276843D01*
G01*
X-17909412Y-11216228D01*
G01*
X-17872448Y-11147073D01*
G01*
X-17849686Y-11072036D01*
G01*
X-17842000Y-10994000D01*
G01*
X-17849686Y-10915964D01*
G01*
X-17872448Y-10840927D01*
G01*
X-17909412Y-10771772D01*
G01*
X-17917000Y-10762526D01*
G01*
X-17917000Y-10640842D01*
G01*
X-17857534Y-10581376D01*
G01*
X-17844927Y-10577552D01*
G01*
X-17775772Y-10540588D01*
G01*
X-17715157Y-10490843D01*
G01*
X-17665412Y-10430228D01*
G01*
X-17628448Y-10361073D01*
G01*
X-17605686Y-10286036D01*
G01*
X-17598000Y-10208000D01*
G01*
X-17605686Y-10129964D01*
G01*
X-17628448Y-10054927D01*
G01*
X-17665412Y-09985772D01*
G01*
X-17715157Y-09925157D01*
G01*
X-17775772Y-09875412D01*
G01*
X-17844927Y-09838448D01*
G01*
X-17919964Y-09815686D01*
G01*
X-17998000Y-09808000D01*
G01*
X-18076036Y-09815686D01*
G01*
X-18151073Y-09838448D01*
G01*
X-18220228Y-09875412D01*
G01*
X-18280843Y-09925157D01*
G01*
X-18330588Y-09985772D01*
G01*
X-18367552Y-10054927D01*
G01*
X-18390314Y-10129964D01*
G01*
X-18397410Y-10202014D01*
G01*
X-18471810Y-10276413D01*
G01*
X-18512228Y-10325663D01*
G01*
X-18542261Y-10381851D01*
G01*
X-18560755Y-10442819D01*
G01*
X-18567000Y-10506223D01*
G01*
X-18567000Y-10762526D01*
G01*
X-18574588Y-10771772D01*
G01*
X-18611552Y-10840927D01*
G01*
X-18634314Y-10915964D01*
G01*
X-18642000Y-10994000D01*
G01*
X-18634314Y-11072036D01*
G01*
X-18611552Y-11147073D01*
G01*
X-18574588Y-11216228D01*
G01*
X-18524843Y-11276843D01*
G01*
X-18464228Y-11326588D01*
G01*
X-18395073Y-11363552D01*
G01*
X-18320036Y-11386314D01*
G01*
X-18242000Y-11394000D01*
G37*
D39*
G36*
X040860000Y-12430000D02*
G01*
X041055090Y-12410785D01*
G01*
X041242683Y-12353880D01*
G01*
X041415570Y-12261470D01*
G01*
X041567107Y-12137107D01*
G01*
X041691470Y-11985570D01*
G01*
X041783880Y-11812683D01*
G01*
X041840785Y-11625090D01*
G01*
X041860000Y-11430000D01*
G01*
X041840785Y-11234910D01*
G01*
X041783880Y-11047317D01*
G01*
X041691470Y-10874430D01*
G01*
X041567107Y-10722893D01*
G01*
X041415570Y-10598530D01*
G01*
X041242683Y-10506120D01*
G01*
X041055090Y-10449215D01*
G01*
X040860000Y-10430000D01*
G01*
X040664910Y-10449215D01*
G01*
X040477317Y-10506120D01*
G01*
X040304430Y-10598530D01*
G01*
X040152893Y-10722893D01*
G01*
X040028530Y-10874430D01*
G01*
X039936120Y-11047317D01*
G01*
X039879215Y-11234910D01*
G01*
X039860000Y-11430000D01*
G01*
X039879215Y-11625090D01*
G01*
X039936120Y-11812683D01*
G01*
X040028530Y-11985570D01*
G01*
X040152893Y-12137107D01*
G01*
X040304430Y-12261470D01*
G01*
X040477317Y-12353880D01*
G01*
X040664910Y-12410785D01*
G01*
X040860000Y-12430000D01*
G37*
D39*
G36*
X-06231000Y-12539000D02*
G01*
X-06152964Y-12531314D01*
G01*
X-06077927Y-12508552D01*
G01*
X-06008772Y-12471588D01*
G01*
X-05948157Y-12421843D01*
G01*
X-05898412Y-12361228D01*
G01*
X-05861448Y-12292073D01*
G01*
X-05838686Y-12217036D01*
G01*
X-05831000Y-12139000D01*
G01*
X-05838686Y-12060964D01*
G01*
X-05861448Y-11985927D01*
G01*
X-05898412Y-11916772D01*
G01*
X-05906000Y-11907526D01*
G01*
X-05906000Y-11648993D01*
G01*
X-05614253Y-11357245D01*
G01*
X-05555927Y-11339552D01*
G01*
X-05486772Y-11302588D01*
G01*
X-05426157Y-11252843D01*
G01*
X-05376412Y-11192228D01*
G01*
X-05339448Y-11123073D01*
G01*
X-05316686Y-11048036D01*
G01*
X-05309000Y-10970000D01*
G01*
X-05316686Y-10891964D01*
G01*
X-05339448Y-10816927D01*
G01*
X-05376412Y-10747772D01*
G01*
X-05426157Y-10687157D01*
G01*
X-05486772Y-10637412D01*
G01*
X-05555927Y-10600448D01*
G01*
X-05630964Y-10577686D01*
G01*
X-05709000Y-10570000D01*
G01*
X-05787036Y-10577686D01*
G01*
X-05862073Y-10600448D01*
G01*
X-05931228Y-10637412D01*
G01*
X-05991843Y-10687157D01*
G01*
X-06041588Y-10747772D01*
G01*
X-06078552Y-10816927D01*
G01*
X-06101314Y-10891964D01*
G01*
X-06104931Y-10928685D01*
G01*
X-06460810Y-11284563D01*
G01*
X-06501228Y-11333813D01*
G01*
X-06531261Y-11390001D01*
G01*
X-06549755Y-11450969D01*
G01*
X-06556000Y-11514373D01*
G01*
X-06556000Y-11907526D01*
G01*
X-06563588Y-11916772D01*
G01*
X-06600552Y-11985927D01*
G01*
X-06623314Y-12060964D01*
G01*
X-06631000Y-12139000D01*
G01*
X-06623314Y-12217036D01*
G01*
X-06600552Y-12292073D01*
G01*
X-06563588Y-12361228D01*
G01*
X-06513843Y-12421843D01*
G01*
X-06453228Y-12471588D01*
G01*
X-06384073Y-12508552D01*
G01*
X-06309036Y-12531314D01*
G01*
X-06231000Y-12539000D01*
G37*
D39*
G36*
X018000000Y-14970000D02*
G01*
X018195090Y-14950785D01*
G01*
X018382683Y-14893880D01*
G01*
X018555570Y-14801470D01*
G01*
X018707107Y-14677107D01*
G01*
X018831470Y-14525570D01*
G01*
X018923880Y-14352683D01*
G01*
X018980785Y-14165090D01*
G01*
X019000000Y-13970000D01*
G01*
X018980785Y-13774910D01*
G01*
X018923880Y-13587317D01*
G01*
X018831470Y-13414430D01*
G01*
X018707107Y-13262893D01*
G01*
X018555570Y-13138530D01*
G01*
X018382683Y-13046120D01*
G01*
X018195090Y-12989215D01*
G01*
X018000000Y-12970000D01*
G01*
X017804910Y-12989215D01*
G01*
X017617317Y-13046120D01*
G01*
X017444430Y-13138530D01*
G01*
X017292893Y-13262893D01*
G01*
X017168530Y-13414430D01*
G01*
X017076120Y-13587317D01*
G01*
X017019215Y-13774910D01*
G01*
X017000000Y-13970000D01*
G01*
X017019215Y-14165090D01*
G01*
X017076120Y-14352683D01*
G01*
X017168530Y-14525570D01*
G01*
X017292893Y-14677107D01*
G01*
X017444430Y-14801470D01*
G01*
X017617317Y-14893880D01*
G01*
X017804910Y-14950785D01*
G01*
X018000000Y-14970000D01*
G37*
D39*
G36*
X-71540000Y-16000000D02*
G01*
X-69540000Y-16000000D01*
G01*
X-69540000Y-14000000D01*
G01*
X-71540000Y-14000000D01*
G01*
X-71540000Y-16000000D01*
G37*
D39*
G36*
X-68000000Y-16000000D02*
G01*
X-67804910Y-15980785D01*
G01*
X-67617317Y-15923880D01*
G01*
X-67444430Y-15831470D01*
G01*
X-67292893Y-15707107D01*
G01*
X-67168530Y-15555570D01*
G01*
X-67076120Y-15382683D01*
G01*
X-67019215Y-15195090D01*
G01*
X-67000000Y-15000000D01*
G01*
X-67019215Y-14804910D01*
G01*
X-67076120Y-14617317D01*
G01*
X-67168530Y-14444430D01*
G01*
X-67292893Y-14292893D01*
G01*
X-67444430Y-14168530D01*
G01*
X-67617317Y-14076120D01*
G01*
X-67804910Y-14019215D01*
G01*
X-68000000Y-14000000D01*
G01*
X-68195090Y-14019215D01*
G01*
X-68382683Y-14076120D01*
G01*
X-68555570Y-14168530D01*
G01*
X-68707107Y-14292893D01*
G01*
X-68831470Y-14444430D01*
G01*
X-68923880Y-14617317D01*
G01*
X-68980785Y-14804910D01*
G01*
X-69000000Y-15000000D01*
G01*
X-68980785Y-15195090D01*
G01*
X-68923880Y-15382683D01*
G01*
X-68831470Y-15555570D01*
G01*
X-68707107Y-15707107D01*
G01*
X-68555570Y-15831470D01*
G01*
X-68382683Y-15923880D01*
G01*
X-68195090Y-15980785D01*
G01*
X-68000000Y-16000000D01*
G37*
D39*
G36*
X-13609000Y-17082000D02*
G01*
X-13530964Y-17074314D01*
G01*
X-13455927Y-17051552D01*
G01*
X-13386772Y-17014588D01*
G01*
X-13326157Y-16964843D01*
G01*
X-13276412Y-16904228D01*
G01*
X-13239448Y-16835073D01*
G01*
X-13216686Y-16760036D01*
G01*
X-13209000Y-16682000D01*
G01*
X-13216686Y-16603964D01*
G01*
X-13239448Y-16528927D01*
G01*
X-13276412Y-16459772D01*
G01*
X-13326157Y-16399157D01*
G01*
X-13386772Y-16349412D01*
G01*
X-13455927Y-16312448D01*
G01*
X-13530964Y-16289686D01*
G01*
X-13609000Y-16282000D01*
G01*
X-13687036Y-16289686D01*
G01*
X-13762073Y-16312448D01*
G01*
X-13831228Y-16349412D01*
G01*
X-13840474Y-16357000D01*
G01*
X-13907185Y-16357000D01*
G01*
X-14210994Y-16053191D01*
G01*
X-14231210Y-16036600D01*
G01*
X-14234448Y-16025927D01*
G01*
X-14271412Y-15956772D01*
G01*
X-14321157Y-15896157D01*
G01*
X-14381772Y-15846412D01*
G01*
X-14450927Y-15809448D01*
G01*
X-14525964Y-15786686D01*
G01*
X-14604000Y-15779000D01*
G01*
X-14682036Y-15786686D01*
G01*
X-14757073Y-15809448D01*
G01*
X-14826228Y-15846412D01*
G01*
X-14886843Y-15896157D01*
G01*
X-14936588Y-15956772D01*
G01*
X-14973552Y-16025927D01*
G01*
X-14996314Y-16100964D01*
G01*
X-15004000Y-16179000D01*
G01*
X-14996314Y-16257036D01*
G01*
X-14973552Y-16332073D01*
G01*
X-14936588Y-16401228D01*
G01*
X-14886843Y-16461843D01*
G01*
X-14826228Y-16511588D01*
G01*
X-14757073Y-16548552D01*
G01*
X-14682036Y-16571314D01*
G01*
X-14638746Y-16575578D01*
G01*
X-14624372Y-16583261D01*
G01*
X-14589621Y-16593803D01*
G01*
X-14271614Y-16911810D01*
G01*
X-14222365Y-16952228D01*
G01*
X-14166176Y-16982261D01*
G01*
X-14105209Y-17000755D01*
G01*
X-14041804Y-17007000D01*
G01*
X-13840474Y-17007000D01*
G01*
X-13831228Y-17014588D01*
G01*
X-13762073Y-17051552D01*
G01*
X-13687036Y-17074314D01*
G01*
X-13609000Y-17082000D01*
G37*
D39*
G36*
X-31260000Y-26750000D02*
G01*
X-29060000Y-26750000D01*
G01*
X-29060000Y-25975000D01*
G01*
X-19868636Y-25975000D01*
G01*
X-19805231Y-25968755D01*
G01*
X-19744264Y-25950261D01*
G01*
X-19688075Y-25920228D01*
G01*
X-19638826Y-25879810D01*
G01*
X-10599910Y-16840894D01*
G01*
X-10555927Y-16827552D01*
G01*
X-10486772Y-16790588D01*
G01*
X-10426157Y-16740843D01*
G01*
X-10376412Y-16680228D01*
G01*
X-10339448Y-16611073D01*
G01*
X-10316686Y-16536036D01*
G01*
X-10309000Y-16458000D01*
G01*
X-10316686Y-16379964D01*
G01*
X-10339448Y-16304927D01*
G01*
X-10376412Y-16235772D01*
G01*
X-10426157Y-16175157D01*
G01*
X-10486772Y-16125412D01*
G01*
X-10555927Y-16088448D01*
G01*
X-10630964Y-16065686D01*
G01*
X-10709000Y-16058000D01*
G01*
X-10787036Y-16065686D01*
G01*
X-10862073Y-16088448D01*
G01*
X-10931228Y-16125412D01*
G01*
X-10991843Y-16175157D01*
G01*
X-11041588Y-16235772D01*
G01*
X-11078552Y-16304927D01*
G01*
X-11101314Y-16379964D01*
G01*
X-11106022Y-16427767D01*
G01*
X-20003255Y-25325000D01*
G01*
X-29060000Y-25325000D01*
G01*
X-29060000Y-24550000D01*
G01*
X-31260000Y-24550000D01*
G01*
X-31260000Y-26750000D01*
G37*
D39*
G36*
X-18958000Y-18195000D02*
G01*
X-18879964Y-18187314D01*
G01*
X-18804927Y-18164552D01*
G01*
X-18735772Y-18127588D01*
G01*
X-18675157Y-18077843D01*
G01*
X-18625412Y-18017228D01*
G01*
X-18588448Y-17948073D01*
G01*
X-18565686Y-17873036D01*
G01*
X-18558000Y-17795000D01*
G01*
X-18565686Y-17716964D01*
G01*
X-18588448Y-17641927D01*
G01*
X-18625412Y-17572772D01*
G01*
X-18633000Y-17563526D01*
G01*
X-18633000Y-16970389D01*
G01*
X-18601119Y-16938508D01*
G01*
X-18541927Y-16920552D01*
G01*
X-18472772Y-16883588D01*
G01*
X-18412157Y-16833843D01*
G01*
X-18362412Y-16773228D01*
G01*
X-18325448Y-16704073D01*
G01*
X-18302686Y-16629036D01*
G01*
X-18295000Y-16551000D01*
G01*
X-18302686Y-16472964D01*
G01*
X-18325448Y-16397927D01*
G01*
X-18362412Y-16328772D01*
G01*
X-18412157Y-16268157D01*
G01*
X-18472772Y-16218412D01*
G01*
X-18541927Y-16181448D01*
G01*
X-18616964Y-16158686D01*
G01*
X-18695000Y-16151000D01*
G01*
X-18773036Y-16158686D01*
G01*
X-18848073Y-16181448D01*
G01*
X-18917228Y-16218412D01*
G01*
X-18977843Y-16268157D01*
G01*
X-19027588Y-16328772D01*
G01*
X-19064552Y-16397927D01*
G01*
X-19087314Y-16472964D01*
G01*
X-19090865Y-16509014D01*
G01*
X-19187810Y-16605959D01*
G01*
X-19228228Y-16655209D01*
G01*
X-19258261Y-16711397D01*
G01*
X-19276755Y-16772365D01*
G01*
X-19283000Y-16835769D01*
G01*
X-19283000Y-17563526D01*
G01*
X-19290588Y-17572772D01*
G01*
X-19327552Y-17641927D01*
G01*
X-19350314Y-17716964D01*
G01*
X-19358000Y-17795000D01*
G01*
X-19350314Y-17873036D01*
G01*
X-19327552Y-17948073D01*
G01*
X-19290588Y-18017228D01*
G01*
X-19240843Y-18077843D01*
G01*
X-19180228Y-18127588D01*
G01*
X-19111073Y-18164552D01*
G01*
X-19036036Y-18187314D01*
G01*
X-18958000Y-18195000D01*
G37*
D39*
G36*
X040860000Y-20050000D02*
G01*
X041055090Y-20030785D01*
G01*
X041242683Y-19973880D01*
G01*
X041415570Y-19881470D01*
G01*
X041567107Y-19757107D01*
G01*
X041691470Y-19605570D01*
G01*
X041783880Y-19432683D01*
G01*
X041840785Y-19245090D01*
G01*
X041860000Y-19050000D01*
G01*
X041840785Y-18854910D01*
G01*
X041783880Y-18667317D01*
G01*
X041691470Y-18494430D01*
G01*
X041567107Y-18342893D01*
G01*
X041415570Y-18218530D01*
G01*
X041242683Y-18126120D01*
G01*
X041055090Y-18069215D01*
G01*
X040860000Y-18050000D01*
G01*
X040664910Y-18069215D01*
G01*
X040477317Y-18126120D01*
G01*
X040304430Y-18218530D01*
G01*
X040152893Y-18342893D01*
G01*
X040028530Y-18494430D01*
G01*
X039936120Y-18667317D01*
G01*
X039879215Y-18854910D01*
G01*
X039860000Y-19050000D01*
G01*
X039879215Y-19245090D01*
G01*
X039936120Y-19432683D01*
G01*
X040028530Y-19605570D01*
G01*
X040152893Y-19757107D01*
G01*
X040304430Y-19881470D01*
G01*
X040477317Y-19973880D01*
G01*
X040664910Y-20030785D01*
G01*
X040860000Y-20050000D01*
G37*
D39*
G36*
X059173000Y-19750000D02*
G01*
X059251036Y-19742314D01*
G01*
X059326073Y-19719552D01*
G01*
X059395228Y-19682588D01*
G01*
X059404474Y-19675000D01*
G01*
X060368026Y-19675000D01*
G01*
X060431431Y-19668755D01*
G01*
X060492399Y-19650261D01*
G01*
X060548587Y-19620228D01*
G01*
X060597836Y-19579810D01*
G01*
X060720544Y-19457102D01*
G01*
X060751063Y-19454096D01*
G01*
X060804520Y-19437880D01*
G01*
X060861036Y-19432314D01*
G01*
X060936073Y-19409552D01*
G01*
X061005228Y-19372588D01*
G01*
X061065843Y-19322843D01*
G01*
X061115588Y-19262228D01*
G01*
X061152552Y-19193073D01*
G01*
X061175314Y-19118036D01*
G01*
X061183000Y-19040000D01*
G01*
X061175314Y-18961964D01*
G01*
X061152552Y-18886927D01*
G01*
X061115588Y-18817772D01*
G01*
X061065843Y-18757157D01*
G01*
X061005228Y-18707412D01*
G01*
X060936073Y-18670448D01*
G01*
X060861036Y-18647686D01*
G01*
X060783000Y-18640000D01*
G01*
X060704964Y-18647686D01*
G01*
X060629927Y-18670448D01*
G01*
X060560772Y-18707412D01*
G01*
X060500157Y-18757157D01*
G01*
X060450412Y-18817772D01*
G01*
X060434300Y-18847916D01*
G01*
X060402125Y-18865114D01*
G01*
X060352876Y-18905532D01*
G01*
X060233407Y-19025000D01*
G01*
X059404474Y-19025000D01*
G01*
X059395228Y-19017412D01*
G01*
X059326073Y-18980448D01*
G01*
X059251036Y-18957686D01*
G01*
X059173000Y-18950000D01*
G01*
X059094964Y-18957686D01*
G01*
X059019927Y-18980448D01*
G01*
X058950772Y-19017412D01*
G01*
X058890157Y-19067157D01*
G01*
X058840412Y-19127772D01*
G01*
X058803448Y-19196927D01*
G01*
X058780686Y-19271964D01*
G01*
X058773000Y-19350000D01*
G01*
X058780686Y-19428036D01*
G01*
X058803448Y-19503073D01*
G01*
X058840412Y-19572228D01*
G01*
X058890157Y-19632843D01*
G01*
X058950772Y-19682588D01*
G01*
X059019927Y-19719552D01*
G01*
X059094964Y-19742314D01*
G01*
X059173000Y-19750000D01*
G37*
D39*
G36*
X040860000Y-25130000D02*
G01*
X041055090Y-25110785D01*
G01*
X041242683Y-25053880D01*
G01*
X041415570Y-24961470D01*
G01*
X041567107Y-24837107D01*
G01*
X041691470Y-24685570D01*
G01*
X041783880Y-24512683D01*
G01*
X041840785Y-24325090D01*
G01*
X041860000Y-24130000D01*
G01*
X041840785Y-23934910D01*
G01*
X041783880Y-23747317D01*
G01*
X041755464Y-23694155D01*
G01*
X043040000Y-22409619D01*
G01*
X043040000Y-22610000D01*
G01*
X045340000Y-22610000D01*
G01*
X045340000Y-20310000D01*
G01*
X044661134Y-20310000D01*
G01*
X045320082Y-19651052D01*
G01*
X045358036Y-19647314D01*
G01*
X045433073Y-19624552D01*
G01*
X045502228Y-19587588D01*
G01*
X045562843Y-19537843D01*
G01*
X045612588Y-19477228D01*
G01*
X045649552Y-19408073D01*
G01*
X045672314Y-19333036D01*
G01*
X045680000Y-19255000D01*
G01*
X045672314Y-19176964D01*
G01*
X045649552Y-19101927D01*
G01*
X045612588Y-19032772D01*
G01*
X045562843Y-18972157D01*
G01*
X045502228Y-18922412D01*
G01*
X045433073Y-18885448D01*
G01*
X045358036Y-18862686D01*
G01*
X045280000Y-18855000D01*
G01*
X045201964Y-18862686D01*
G01*
X045126927Y-18885448D01*
G01*
X045057772Y-18922412D01*
G01*
X044997157Y-18972157D01*
G01*
X044947412Y-19032772D01*
G01*
X044910448Y-19101927D01*
G01*
X044893240Y-19158655D01*
G01*
X044063666Y-19988230D01*
G01*
X043112300Y-19988230D01*
G01*
X043048896Y-19994475D01*
G01*
X042987928Y-20012970D01*
G01*
X042931740Y-20043003D01*
G01*
X042882491Y-20083421D01*
G01*
X042842073Y-20132670D01*
G01*
X042812039Y-20188858D01*
G01*
X042793545Y-20249826D01*
G01*
X042787300Y-20313230D01*
G01*
X042787300Y-21743081D01*
G01*
X041295845Y-23234536D01*
G01*
X041242683Y-23206120D01*
G01*
X041055090Y-23149215D01*
G01*
X040860000Y-23130000D01*
G01*
X040664910Y-23149215D01*
G01*
X040477317Y-23206120D01*
G01*
X040304430Y-23298530D01*
G01*
X040152893Y-23422893D01*
G01*
X040028530Y-23574430D01*
G01*
X039936120Y-23747317D01*
G01*
X039879215Y-23934910D01*
G01*
X039860000Y-24130000D01*
G01*
X039879215Y-24325090D01*
G01*
X039936120Y-24512683D01*
G01*
X040028530Y-24685570D01*
G01*
X040152893Y-24837107D01*
G01*
X040304430Y-24961470D01*
G01*
X040477317Y-25053880D01*
G01*
X040664910Y-25110785D01*
G01*
X040860000Y-25130000D01*
G37*
D39*
G36*
X-31260000Y-29290000D02*
G01*
X-29060000Y-29290000D01*
G01*
X-29060000Y-28515000D01*
G01*
X-15873000Y-28515000D01*
G01*
X-15809596Y-28508755D01*
G01*
X-15748628Y-28490261D01*
G01*
X-15692440Y-28460228D01*
G01*
X-15643190Y-28419810D01*
G01*
X-07507867Y-20284486D01*
G01*
X-07495964Y-20283314D01*
G01*
X-07420927Y-20260552D01*
G01*
X-07351772Y-20223588D01*
G01*
X-07291157Y-20173843D01*
G01*
X-07241412Y-20113228D01*
G01*
X-07204448Y-20044073D01*
G01*
X-07181686Y-19969036D01*
G01*
X-07174000Y-19891000D01*
G01*
X-07181686Y-19812964D01*
G01*
X-07204448Y-19737927D01*
G01*
X-07241412Y-19668772D01*
G01*
X-07291157Y-19608157D01*
G01*
X-07351772Y-19558412D01*
G01*
X-07420927Y-19521448D01*
G01*
X-07495964Y-19498686D01*
G01*
X-07574000Y-19491000D01*
G01*
X-07652036Y-19498686D01*
G01*
X-07727073Y-19521448D01*
G01*
X-07796228Y-19558412D01*
G01*
X-07856843Y-19608157D01*
G01*
X-07906588Y-19668772D01*
G01*
X-07943552Y-19737927D01*
G01*
X-07966314Y-19812964D01*
G01*
X-07967486Y-19824867D01*
G01*
X-16007620Y-27865000D01*
G01*
X-29060000Y-27865000D01*
G01*
X-29060000Y-27090000D01*
G01*
X-31260000Y-27090000D01*
G01*
X-31260000Y-29290000D01*
G37*
D39*
G36*
X050660000Y-22610000D02*
G01*
X052960000Y-22610000D01*
G01*
X052960000Y-20310000D01*
G01*
X050660000Y-20310000D01*
G01*
X050660000Y-22610000D01*
G37*
D39*
G36*
X063040000Y-22610000D02*
G01*
X065340000Y-22610000D01*
G01*
X065340000Y-20310000D01*
G01*
X063040000Y-20310000D01*
G01*
X063040000Y-22610000D01*
G37*
D39*
G36*
X070660000Y-22610000D02*
G01*
X072960000Y-22610000D01*
G01*
X072960000Y-20310000D01*
G01*
X070660000Y-20310000D01*
G01*
X070660000Y-22610000D01*
G37*
D39*
G36*
X018000000Y-22590000D02*
G01*
X018195090Y-22570785D01*
G01*
X018382683Y-22513880D01*
G01*
X018555570Y-22421470D01*
G01*
X018707107Y-22297107D01*
G01*
X018831470Y-22145570D01*
G01*
X018923880Y-21972683D01*
G01*
X018980785Y-21785090D01*
G01*
X019000000Y-21590000D01*
G01*
X018980785Y-21394910D01*
G01*
X018923880Y-21207317D01*
G01*
X018831470Y-21034430D01*
G01*
X018707107Y-20882893D01*
G01*
X018555570Y-20758530D01*
G01*
X018382683Y-20666120D01*
G01*
X018195090Y-20609215D01*
G01*
X018000000Y-20590000D01*
G01*
X017804910Y-20609215D01*
G01*
X017617317Y-20666120D01*
G01*
X017444430Y-20758530D01*
G01*
X017292893Y-20882893D01*
G01*
X017168530Y-21034430D01*
G01*
X017076120Y-21207317D01*
G01*
X017019215Y-21394910D01*
G01*
X017000000Y-21590000D01*
G01*
X017019215Y-21785090D01*
G01*
X017076120Y-21972683D01*
G01*
X017168530Y-22145570D01*
G01*
X017292893Y-22297107D01*
G01*
X017444430Y-22421470D01*
G01*
X017617317Y-22513880D01*
G01*
X017804910Y-22570785D01*
G01*
X018000000Y-22590000D01*
G37*
D39*
G36*
X040860000Y-22590000D02*
G01*
X041055090Y-22570785D01*
G01*
X041242683Y-22513880D01*
G01*
X041415570Y-22421470D01*
G01*
X041567107Y-22297107D01*
G01*
X041691470Y-22145570D01*
G01*
X041783880Y-21972683D01*
G01*
X041840785Y-21785090D01*
G01*
X041860000Y-21590000D01*
G01*
X041840785Y-21394910D01*
G01*
X041783880Y-21207317D01*
G01*
X041691470Y-21034430D01*
G01*
X041567107Y-20882893D01*
G01*
X041415570Y-20758530D01*
G01*
X041242683Y-20666120D01*
G01*
X041055090Y-20609215D01*
G01*
X040860000Y-20590000D01*
G01*
X040664910Y-20609215D01*
G01*
X040477317Y-20666120D01*
G01*
X040304430Y-20758530D01*
G01*
X040152893Y-20882893D01*
G01*
X040028530Y-21034430D01*
G01*
X039936120Y-21207317D01*
G01*
X039879215Y-21394910D01*
G01*
X039860000Y-21590000D01*
G01*
X039879215Y-21785090D01*
G01*
X039936120Y-21972683D01*
G01*
X040028530Y-22145570D01*
G01*
X040152893Y-22297107D01*
G01*
X040304430Y-22421470D01*
G01*
X040477317Y-22513880D01*
G01*
X040664910Y-22570785D01*
G01*
X040860000Y-22590000D01*
G37*
D39*
G36*
X050660000Y-25150000D02*
G01*
X052960000Y-25150000D01*
G01*
X052960000Y-22850000D01*
G01*
X050660000Y-22850000D01*
G01*
X050660000Y-25150000D01*
G37*
D39*
G36*
X061670000Y-31250000D02*
G01*
X064170000Y-31250000D01*
G01*
X064170000Y-30325000D01*
G01*
X065810000Y-30325000D01*
G01*
X065873404Y-30318755D01*
G01*
X065934372Y-30300261D01*
G01*
X065990560Y-30270228D01*
G01*
X066039810Y-30229810D01*
G01*
X070660000Y-25609620D01*
G01*
X070660000Y-27690000D01*
G01*
X072960000Y-27690000D01*
G01*
X072960000Y-25390000D01*
G01*
X070879620Y-25390000D01*
G01*
X071119620Y-25150000D01*
G01*
X072960000Y-25150000D01*
G01*
X072960000Y-22850000D01*
G01*
X070660000Y-22850000D01*
G01*
X070660000Y-24690380D01*
G01*
X065675380Y-29675000D01*
G01*
X064170000Y-29675000D01*
G01*
X064170000Y-28750000D01*
G01*
X061670000Y-28750000D01*
G01*
X061670000Y-29675000D01*
G01*
X061271741Y-29675000D01*
G01*
X059610152Y-28013411D01*
G01*
X059602060Y-27998272D01*
G01*
X059567629Y-27956319D01*
G01*
X059566314Y-27942964D01*
G01*
X059543552Y-27867927D01*
G01*
X059506588Y-27798772D01*
G01*
X059456843Y-27738157D01*
G01*
X059396228Y-27688412D01*
G01*
X059327073Y-27651448D01*
G01*
X059252036Y-27628686D01*
G01*
X059174000Y-27621000D01*
G01*
X059095964Y-27628686D01*
G01*
X059020927Y-27651448D01*
G01*
X058951772Y-27688412D01*
G01*
X058891157Y-27738157D01*
G01*
X058841412Y-27798772D01*
G01*
X058804448Y-27867927D01*
G01*
X058781686Y-27942964D01*
G01*
X058774000Y-28021000D01*
G01*
X058781686Y-28099036D01*
G01*
X058804448Y-28174073D01*
G01*
X058841412Y-28243228D01*
G01*
X058891157Y-28303843D01*
G01*
X058951772Y-28353588D01*
G01*
X059020927Y-28390552D01*
G01*
X059091786Y-28412046D01*
G01*
X059102023Y-28424521D01*
G01*
X060907312Y-30229810D01*
G01*
X060956561Y-30270228D01*
G01*
X061012749Y-30300261D01*
G01*
X061073717Y-30318755D01*
G01*
X061137122Y-30325000D01*
G01*
X061670000Y-30325000D01*
G01*
X061670000Y-31250000D01*
G37*
D39*
G36*
X-10940000Y-26750000D02*
G01*
X-08740000Y-26750000D01*
G01*
X-08740000Y-24550000D01*
G01*
X-10940000Y-24550000D01*
G01*
X-10940000Y-26750000D01*
G37*
D39*
G36*
X043040000Y-27690000D02*
G01*
X045340000Y-27690000D01*
G01*
X045340000Y-25390000D01*
G01*
X043040000Y-25390000D01*
G01*
X043040000Y-27690000D01*
G37*
D39*
G36*
X050660000Y-27690000D02*
G01*
X052960000Y-27690000D01*
G01*
X052960000Y-25390000D01*
G01*
X050660000Y-25390000D01*
G01*
X050660000Y-27690000D01*
G37*
D39*
G36*
X063040000Y-27690000D02*
G01*
X065340000Y-27690000D01*
G01*
X065340000Y-25390000D01*
G01*
X063040000Y-25390000D01*
G01*
X063040000Y-27690000D01*
G37*
D39*
G36*
X017000000Y-27670000D02*
G01*
X019000000Y-27670000D01*
G01*
X019000000Y-25670000D01*
G01*
X017000000Y-25670000D01*
G01*
X017000000Y-27670000D01*
G37*
D39*
G36*
X-10940000Y-29290000D02*
G01*
X-08740000Y-29290000D01*
G01*
X-08740000Y-27090000D01*
G01*
X-10940000Y-27090000D01*
G01*
X-10940000Y-29290000D01*
G37*
D39*
G36*
X041905000Y-41585000D02*
G01*
X042090336Y-41566746D01*
G01*
X042268549Y-41512686D01*
G01*
X042432792Y-41424896D01*
G01*
X042576751Y-41306751D01*
G01*
X042694896Y-41162792D01*
G01*
X042782686Y-40998549D01*
G01*
X042836746Y-40820336D01*
G01*
X042855000Y-40635000D01*
G01*
X042836746Y-40449664D01*
G01*
X042782686Y-40271451D01*
G01*
X042694896Y-40107208D01*
G01*
X042576751Y-39963249D01*
G01*
X042432792Y-39845104D01*
G01*
X042268549Y-39757314D01*
G01*
X042090336Y-39703254D01*
G01*
X041905000Y-39685000D01*
G01*
X041719664Y-39703254D01*
G01*
X041541451Y-39757314D01*
G01*
X041479656Y-39790344D01*
G01*
X041512686Y-39728549D01*
G01*
X041566746Y-39550336D01*
G01*
X041585000Y-39365000D01*
G01*
X041566746Y-39179664D01*
G01*
X041512686Y-39001451D01*
G01*
X041424896Y-38837208D01*
G01*
X041306751Y-38693249D01*
G01*
X041162792Y-38575104D01*
G01*
X040998549Y-38487314D01*
G01*
X040820336Y-38433254D01*
G01*
X040635000Y-38415000D01*
G01*
X040449664Y-38433254D01*
G01*
X040271451Y-38487314D01*
G01*
X040107208Y-38575104D01*
G01*
X039963249Y-38693249D01*
G01*
X039845104Y-38837208D01*
G01*
X039757314Y-39001451D01*
G01*
X039703254Y-39179664D01*
G01*
X039685000Y-39365000D01*
G01*
X039703254Y-39550336D01*
G01*
X039757314Y-39728549D01*
G01*
X039790344Y-39790344D01*
G01*
X039728549Y-39757314D01*
G01*
X039550336Y-39703254D01*
G01*
X039365000Y-39685000D01*
G01*
X039179664Y-39703254D01*
G01*
X039001451Y-39757314D01*
G01*
X038939656Y-39790344D01*
G01*
X038972686Y-39728549D01*
G01*
X039026746Y-39550336D01*
G01*
X039045000Y-39365000D01*
G01*
X039026746Y-39179664D01*
G01*
X038972686Y-39001451D01*
G01*
X038884896Y-38837208D01*
G01*
X038766751Y-38693249D01*
G01*
X038622792Y-38575104D01*
G01*
X038458549Y-38487314D01*
G01*
X038280336Y-38433254D01*
G01*
X038095000Y-38415000D01*
G01*
X037909664Y-38433254D01*
G01*
X037731451Y-38487314D01*
G01*
X037695923Y-38506304D01*
G01*
X037314487Y-38124868D01*
G01*
X037001686Y-29739142D01*
G01*
X037269115Y-28794109D01*
G01*
X037282843Y-28782843D01*
G01*
X037332588Y-28722228D01*
G01*
X037369552Y-28653073D01*
G01*
X037392314Y-28578036D01*
G01*
X037400000Y-28500000D01*
G01*
X037392314Y-28421964D01*
G01*
X037369552Y-28346927D01*
G01*
X037332588Y-28277772D01*
G01*
X037282843Y-28217157D01*
G01*
X037222228Y-28167412D01*
G01*
X037153073Y-28130448D01*
G01*
X037078036Y-28107686D01*
G01*
X037000000Y-28100000D01*
G01*
X036921964Y-28107686D01*
G01*
X036846927Y-28130448D01*
G01*
X036777772Y-28167412D01*
G01*
X036717157Y-28217157D01*
G01*
X036667412Y-28277772D01*
G01*
X036630448Y-28346927D01*
G01*
X036607686Y-28421964D01*
G01*
X036600000Y-28500000D01*
G01*
X036607686Y-28578036D01*
G01*
X036630448Y-28653073D01*
G01*
X036632445Y-28656808D01*
G01*
X036362280Y-29611505D01*
G01*
X036363731Y-29611916D01*
G01*
X036356245Y-29636596D01*
G01*
X036350000Y-29700000D01*
G01*
X036351190Y-29712079D01*
G01*
X036350226Y-29712115D01*
G01*
X036669693Y-38276582D01*
G01*
X036670657Y-38276546D01*
G01*
X036675712Y-38327872D01*
G01*
X036694207Y-38388840D01*
G01*
X036724240Y-38445028D01*
G01*
X036764658Y-38494277D01*
G01*
X037236304Y-38965923D01*
G01*
X037217314Y-39001451D01*
G01*
X037163254Y-39179664D01*
G01*
X037145000Y-39365000D01*
G01*
X037163254Y-39550336D01*
G01*
X037217314Y-39728549D01*
G01*
X037305104Y-39892792D01*
G01*
X037423249Y-40036751D01*
G01*
X037567208Y-40154896D01*
G01*
X037731451Y-40242686D01*
G01*
X037909664Y-40296746D01*
G01*
X038095000Y-40315000D01*
G01*
X038280336Y-40296746D01*
G01*
X038458549Y-40242686D01*
G01*
X038520344Y-40209656D01*
G01*
X038487314Y-40271451D01*
G01*
X038433254Y-40449664D01*
G01*
X038415000Y-40635000D01*
G01*
X038433254Y-40820336D01*
G01*
X038487314Y-40998549D01*
G01*
X038575104Y-41162792D01*
G01*
X038693249Y-41306751D01*
G01*
X038837208Y-41424896D01*
G01*
X039001451Y-41512686D01*
G01*
X039179664Y-41566746D01*
G01*
X039365000Y-41585000D01*
G01*
X039550336Y-41566746D01*
G01*
X039728549Y-41512686D01*
G01*
X039892792Y-41424896D01*
G01*
X040036751Y-41306751D01*
G01*
X040154896Y-41162792D01*
G01*
X040242686Y-40998549D01*
G01*
X040296746Y-40820336D01*
G01*
X040315000Y-40635000D01*
G01*
X040296746Y-40449664D01*
G01*
X040242686Y-40271451D01*
G01*
X040209656Y-40209656D01*
G01*
X040271451Y-40242686D01*
G01*
X040449664Y-40296746D01*
G01*
X040635000Y-40315000D01*
G01*
X040820336Y-40296746D01*
G01*
X040998549Y-40242686D01*
G01*
X041060344Y-40209656D01*
G01*
X041027314Y-40271451D01*
G01*
X040973254Y-40449664D01*
G01*
X040955000Y-40635000D01*
G01*
X040973254Y-40820336D01*
G01*
X041027314Y-40998549D01*
G01*
X041115104Y-41162792D01*
G01*
X041233249Y-41306751D01*
G01*
X041377208Y-41424896D01*
G01*
X041541451Y-41512686D01*
G01*
X041719664Y-41566746D01*
G01*
X041905000Y-41585000D01*
G37*
D39*
G36*
X041670000Y-31250000D02*
G01*
X044170000Y-31250000D01*
G01*
X044170000Y-28750000D01*
G01*
X041670000Y-28750000D01*
G01*
X041670000Y-31250000D01*
G37*
D39*
G36*
X051830000Y-31250000D02*
G01*
X054330000Y-31250000D01*
G01*
X054330000Y-28750000D01*
G01*
X051830000Y-28750000D01*
G01*
X051830000Y-31250000D01*
G37*
D39*
G36*
X071830000Y-31250000D02*
G01*
X074330000Y-31250000D01*
G01*
X074330000Y-28750000D01*
G01*
X071830000Y-28750000D01*
G01*
X071830000Y-31250000D01*
G37*
D39*
G36*
X-31260000Y-31830000D02*
G01*
X-29060000Y-31830000D01*
G01*
X-29060000Y-29630000D01*
G01*
X-31260000Y-29630000D01*
G01*
X-31260000Y-31830000D01*
G37*
D39*
G36*
X-10940000Y-31830000D02*
G01*
X-08740000Y-31830000D01*
G01*
X-08740000Y-29630000D01*
G01*
X-10940000Y-29630000D01*
G01*
X-10940000Y-31830000D01*
G37*
D39*
G36*
X-31260000Y-34370000D02*
G01*
X-29060000Y-34370000D01*
G01*
X-29060000Y-32170000D01*
G01*
X-31260000Y-32170000D01*
G01*
X-31260000Y-34370000D01*
G37*
D39*
G36*
X-10940000Y-34370000D02*
G01*
X-08740000Y-34370000D01*
G01*
X-08740000Y-32170000D01*
G01*
X-10940000Y-32170000D01*
G01*
X-10940000Y-34370000D01*
G37*
D39*
G36*
X-10940000Y-36910000D02*
G01*
X-08740000Y-36910000D01*
G01*
X-08740000Y-34710000D01*
G01*
X-10940000Y-34710000D01*
G01*
X-10940000Y-36910000D01*
G37*
D39*
G36*
X061905000Y-41585000D02*
G01*
X062090336Y-41566746D01*
G01*
X062268549Y-41512686D01*
G01*
X062432792Y-41424896D01*
G01*
X062576751Y-41306751D01*
G01*
X062694896Y-41162792D01*
G01*
X062782686Y-40998549D01*
G01*
X062836746Y-40820336D01*
G01*
X062855000Y-40635000D01*
G01*
X062836746Y-40449664D01*
G01*
X062782686Y-40271451D01*
G01*
X062694896Y-40107208D01*
G01*
X062576751Y-39963249D01*
G01*
X062432792Y-39845104D01*
G01*
X062268549Y-39757314D01*
G01*
X062090336Y-39703254D01*
G01*
X061905000Y-39685000D01*
G01*
X061719664Y-39703254D01*
G01*
X061541451Y-39757314D01*
G01*
X061479656Y-39790344D01*
G01*
X061512686Y-39728549D01*
G01*
X061566746Y-39550336D01*
G01*
X061585000Y-39365000D01*
G01*
X061566746Y-39179664D01*
G01*
X061512686Y-39001451D01*
G01*
X061424896Y-38837208D01*
G01*
X061306751Y-38693249D01*
G01*
X061162792Y-38575104D01*
G01*
X060998549Y-38487314D01*
G01*
X060820336Y-38433254D01*
G01*
X060635000Y-38415000D01*
G01*
X060449664Y-38433254D01*
G01*
X060271451Y-38487314D01*
G01*
X060107208Y-38575104D01*
G01*
X059963249Y-38693249D01*
G01*
X059845104Y-38837208D01*
G01*
X059757314Y-39001451D01*
G01*
X059703254Y-39179664D01*
G01*
X059685000Y-39365000D01*
G01*
X059703254Y-39550336D01*
G01*
X059757314Y-39728549D01*
G01*
X059790344Y-39790344D01*
G01*
X059728549Y-39757314D01*
G01*
X059550336Y-39703254D01*
G01*
X059365000Y-39685000D01*
G01*
X059179664Y-39703254D01*
G01*
X059001451Y-39757314D01*
G01*
X058939656Y-39790344D01*
G01*
X058972686Y-39728549D01*
G01*
X059026746Y-39550336D01*
G01*
X059045000Y-39365000D01*
G01*
X059026746Y-39179664D01*
G01*
X058972686Y-39001451D01*
G01*
X058884896Y-38837208D01*
G01*
X058766751Y-38693249D01*
G01*
X058622792Y-38575104D01*
G01*
X058458549Y-38487314D01*
G01*
X058280336Y-38433254D01*
G01*
X058095000Y-38415000D01*
G01*
X057909664Y-38433254D01*
G01*
X057731451Y-38487314D01*
G01*
X057567208Y-38575104D01*
G01*
X057423249Y-38693249D01*
G01*
X057305104Y-38837208D01*
G01*
X057217314Y-39001451D01*
G01*
X057163254Y-39179664D01*
G01*
X057145000Y-39365000D01*
G01*
X057163254Y-39550336D01*
G01*
X057217314Y-39728549D01*
G01*
X057305104Y-39892792D01*
G01*
X057423249Y-40036751D01*
G01*
X057567208Y-40154896D01*
G01*
X057731451Y-40242686D01*
G01*
X057909664Y-40296746D01*
G01*
X058095000Y-40315000D01*
G01*
X058280336Y-40296746D01*
G01*
X058458549Y-40242686D01*
G01*
X058520344Y-40209656D01*
G01*
X058487314Y-40271451D01*
G01*
X058433254Y-40449664D01*
G01*
X058415000Y-40635000D01*
G01*
X058433254Y-40820336D01*
G01*
X058487314Y-40998549D01*
G01*
X058575104Y-41162792D01*
G01*
X058693249Y-41306751D01*
G01*
X058837208Y-41424896D01*
G01*
X059001451Y-41512686D01*
G01*
X059179664Y-41566746D01*
G01*
X059365000Y-41585000D01*
G01*
X059550336Y-41566746D01*
G01*
X059728549Y-41512686D01*
G01*
X059892792Y-41424896D01*
G01*
X060036751Y-41306751D01*
G01*
X060154896Y-41162792D01*
G01*
X060242686Y-40998549D01*
G01*
X060296746Y-40820336D01*
G01*
X060315000Y-40635000D01*
G01*
X060296746Y-40449664D01*
G01*
X060242686Y-40271451D01*
G01*
X060209656Y-40209656D01*
G01*
X060271451Y-40242686D01*
G01*
X060449664Y-40296746D01*
G01*
X060635000Y-40315000D01*
G01*
X060820336Y-40296746D01*
G01*
X060998549Y-40242686D01*
G01*
X061060344Y-40209656D01*
G01*
X061027314Y-40271451D01*
G01*
X060973254Y-40449664D01*
G01*
X060955000Y-40635000D01*
G01*
X060973254Y-40820336D01*
G01*
X061027314Y-40998549D01*
G01*
X061115104Y-41162792D01*
G01*
X061233249Y-41306751D01*
G01*
X061377208Y-41424896D01*
G01*
X061541451Y-41512686D01*
G01*
X061719664Y-41566746D01*
G01*
X061905000Y-41585000D01*
G37*
D39*
G36*
X-75000000Y-46850000D02*
G01*
X-74639083Y-46814453D01*
G01*
X-74292036Y-46709177D01*
G01*
X-73972195Y-46538219D01*
G01*
X-73691852Y-46308148D01*
G01*
X-73461781Y-46027805D01*
G01*
X-73290823Y-45707964D01*
G01*
X-73185547Y-45360917D01*
G01*
X-73150000Y-45000000D01*
G01*
X-73185547Y-44639083D01*
G01*
X-73290823Y-44292036D01*
G01*
X-73461781Y-43972195D01*
G01*
X-73691852Y-43691852D01*
G01*
X-73972195Y-43461781D01*
G01*
X-74292036Y-43290823D01*
G01*
X-74639083Y-43185547D01*
G01*
X-75000000Y-43150000D01*
G01*
X-75360917Y-43185547D01*
G01*
X-75707964Y-43290823D01*
G01*
X-76027805Y-43461781D01*
G01*
X-76308148Y-43691852D01*
G01*
X-76538219Y-43972195D01*
G01*
X-76709177Y-44292036D01*
G01*
X-76814453Y-44639083D01*
G01*
X-76850000Y-45000000D01*
G01*
X-76814453Y-45360917D01*
G01*
X-76709177Y-45707964D01*
G01*
X-76538219Y-46027805D01*
G01*
X-76308148Y-46308148D01*
G01*
X-76027805Y-46538219D01*
G01*
X-75707964Y-46709177D01*
G01*
X-75360917Y-46814453D01*
G01*
X-75000000Y-46850000D01*
G37*
D39*
G36*
X075000000Y-46850000D02*
G01*
X075360917Y-46814453D01*
G01*
X075707964Y-46709177D01*
G01*
X076027805Y-46538219D01*
G01*
X076308148Y-46308148D01*
G01*
X076538219Y-46027805D01*
G01*
X076709177Y-45707964D01*
G01*
X076814453Y-45360917D01*
G01*
X076850000Y-45000000D01*
G01*
X076814453Y-44639083D01*
G01*
X076709177Y-44292036D01*
G01*
X076538219Y-43972195D01*
G01*
X076308148Y-43691852D01*
G01*
X076027805Y-43461781D01*
G01*
X075707964Y-43290823D01*
G01*
X075360917Y-43185547D01*
G01*
X075000000Y-43150000D01*
G01*
X074639083Y-43185547D01*
G01*
X074292036Y-43290823D01*
G01*
X073972195Y-43461781D01*
G01*
X073691852Y-43691852D01*
G01*
X073461781Y-43972195D01*
G01*
X073290823Y-44292036D01*
G01*
X073185547Y-44639083D01*
G01*
X073150000Y-45000000D01*
G01*
X073185547Y-45360917D01*
G01*
X073290823Y-45707964D01*
G01*
X073461781Y-46027805D01*
G01*
X073691852Y-46308148D01*
G01*
X073972195Y-46538219D01*
G01*
X074292036Y-46709177D01*
G01*
X074639083Y-46814453D01*
G01*
X075000000Y-46850000D01*
G37*
D39*
G36*
X034920000Y-49495000D02*
G01*
X035285794Y-49458972D01*
G01*
X035637531Y-49352274D01*
G01*
X035961694Y-49179006D01*
G01*
X036245825Y-48945825D01*
G01*
X036479006Y-48661694D01*
G01*
X036652274Y-48337531D01*
G01*
X036758972Y-47985794D01*
G01*
X036795000Y-47620000D01*
G01*
X036758972Y-47254206D01*
G01*
X036652274Y-46902469D01*
G01*
X036479006Y-46578306D01*
G01*
X036245825Y-46294175D01*
G01*
X035961694Y-46060994D01*
G01*
X035637531Y-45887726D01*
G01*
X035285794Y-45781028D01*
G01*
X034920000Y-45745000D01*
G01*
X034554206Y-45781028D01*
G01*
X034202469Y-45887726D01*
G01*
X033878306Y-46060994D01*
G01*
X033594175Y-46294175D01*
G01*
X033360994Y-46578306D01*
G01*
X033187726Y-46902469D01*
G01*
X033081028Y-47254206D01*
G01*
X033045000Y-47620000D01*
G01*
X033081028Y-47985794D01*
G01*
X033187726Y-48337531D01*
G01*
X033360994Y-48661694D01*
G01*
X033594175Y-48945825D01*
G01*
X033878306Y-49179006D01*
G01*
X034202469Y-49352274D01*
G01*
X034554206Y-49458972D01*
G01*
X034920000Y-49495000D01*
G37*
D39*
G36*
X045080000Y-49495000D02*
G01*
X045445794Y-49458972D01*
G01*
X045797531Y-49352274D01*
G01*
X046121694Y-49179006D01*
G01*
X046405825Y-48945825D01*
G01*
X046639006Y-48661694D01*
G01*
X046812274Y-48337531D01*
G01*
X046918972Y-47985794D01*
G01*
X046955000Y-47620000D01*
G01*
X046918972Y-47254206D01*
G01*
X046812274Y-46902469D01*
G01*
X046639006Y-46578306D01*
G01*
X046405825Y-46294175D01*
G01*
X046121694Y-46060994D01*
G01*
X045797531Y-45887726D01*
G01*
X045445794Y-45781028D01*
G01*
X045080000Y-45745000D01*
G01*
X044714206Y-45781028D01*
G01*
X044362469Y-45887726D01*
G01*
X044038306Y-46060994D01*
G01*
X043754175Y-46294175D01*
G01*
X043520994Y-46578306D01*
G01*
X043347726Y-46902469D01*
G01*
X043241028Y-47254206D01*
G01*
X043205000Y-47620000D01*
G01*
X043241028Y-47985794D01*
G01*
X043347726Y-48337531D01*
G01*
X043520994Y-48661694D01*
G01*
X043754175Y-48945825D01*
G01*
X044038306Y-49179006D01*
G01*
X044362469Y-49352274D01*
G01*
X044714206Y-49458972D01*
G01*
X045080000Y-49495000D01*
G37*
D39*
G36*
X054920000Y-49495000D02*
G01*
X055285794Y-49458972D01*
G01*
X055637531Y-49352274D01*
G01*
X055961694Y-49179006D01*
G01*
X056245825Y-48945825D01*
G01*
X056479006Y-48661694D01*
G01*
X056652274Y-48337531D01*
G01*
X056758972Y-47985794D01*
G01*
X056795000Y-47620000D01*
G01*
X056758972Y-47254206D01*
G01*
X056652274Y-46902469D01*
G01*
X056479006Y-46578306D01*
G01*
X056245825Y-46294175D01*
G01*
X055961694Y-46060994D01*
G01*
X055637531Y-45887726D01*
G01*
X055285794Y-45781028D01*
G01*
X054920000Y-45745000D01*
G01*
X054554206Y-45781028D01*
G01*
X054202469Y-45887726D01*
G01*
X053878306Y-46060994D01*
G01*
X053594175Y-46294175D01*
G01*
X053360994Y-46578306D01*
G01*
X053187726Y-46902469D01*
G01*
X053081028Y-47254206D01*
G01*
X053045000Y-47620000D01*
G01*
X053081028Y-47985794D01*
G01*
X053187726Y-48337531D01*
G01*
X053360994Y-48661694D01*
G01*
X053594175Y-48945825D01*
G01*
X053878306Y-49179006D01*
G01*
X054202469Y-49352274D01*
G01*
X054554206Y-49458972D01*
G01*
X054920000Y-49495000D01*
G37*
D39*
G36*
X065080000Y-49495000D02*
G01*
X065445794Y-49458972D01*
G01*
X065797531Y-49352274D01*
G01*
X066121694Y-49179006D01*
G01*
X066405825Y-48945825D01*
G01*
X066639006Y-48661694D01*
G01*
X066812274Y-48337531D01*
G01*
X066918972Y-47985794D01*
G01*
X066955000Y-47620000D01*
G01*
X066918972Y-47254206D01*
G01*
X066812274Y-46902469D01*
G01*
X066639006Y-46578306D01*
G01*
X066405825Y-46294175D01*
G01*
X066121694Y-46060994D01*
G01*
X065797531Y-45887726D01*
G01*
X065445794Y-45781028D01*
G01*
X065080000Y-45745000D01*
G01*
X064714206Y-45781028D01*
G01*
X064362469Y-45887726D01*
G01*
X064038306Y-46060994D01*
G01*
X063754175Y-46294175D01*
G01*
X063520994Y-46578306D01*
G01*
X063347726Y-46902469D01*
G01*
X063241028Y-47254206D01*
G01*
X063205000Y-47620000D01*
G01*
X063241028Y-47985794D01*
G01*
X063347726Y-48337531D01*
G01*
X063520994Y-48661694D01*
G01*
X063754175Y-48945825D01*
G01*
X064038306Y-49179006D01*
G01*
X064362469Y-49352274D01*
G01*
X064714206Y-49458972D01*
G01*
X065080000Y-49495000D01*
G37*
%LPD*%
D39*
G36*
X066480000Y005675000D02*
G01*
X064321305Y005675000D01*
G01*
X064289103Y005642798D01*
G01*
X064239853Y005602380D01*
G01*
X064186477Y005573850D01*
G01*
X064645498Y005114830D01*
G01*
X066480000Y005114830D01*
G01*
X066480000Y005675000D01*
G37*
D39*
G36*
X-03762072Y-20024414D02*
G01*
X-03827228Y-19989588D01*
G01*
X-03887843Y-19939843D01*
G01*
X-03937588Y-19879228D01*
G01*
X-03974552Y-19810073D01*
G01*
X-03997314Y-19735036D01*
G01*
X-04005000Y-19657000D01*
G01*
X-03997314Y-19578964D01*
G01*
X-03974552Y-19503927D01*
G01*
X-03937588Y-19434772D01*
G01*
X-03887843Y-19374157D01*
G01*
X-03827228Y-19324412D01*
G01*
X-03758073Y-19287448D01*
G01*
X-03683036Y-19264686D01*
G01*
X-03671134Y-19263514D01*
G01*
X001964498Y-13627882D01*
G01*
X-11666479Y-13627882D01*
G01*
X-04516009Y-20778351D01*
G01*
X-03762072Y-20024414D01*
G37*
D39*
G36*
X005235412Y-17418228D02*
G01*
X005198448Y-17349073D01*
G01*
X005175686Y-17274036D01*
G01*
X005168000Y-17196000D01*
G01*
X005175686Y-17117964D01*
G01*
X005198448Y-17042927D01*
G01*
X005235412Y-16973772D01*
G01*
X005285157Y-16913157D01*
G01*
X005345772Y-16863412D01*
G01*
X005414927Y-16826448D01*
G01*
X005489964Y-16803686D01*
G01*
X005509041Y-16801807D01*
G01*
X005522224Y-16790988D01*
G01*
X005532418Y-16785539D01*
G01*
X007920767Y-14397190D01*
G01*
X007970017Y-14356772D01*
G01*
X008026205Y-14326739D01*
G01*
X008087173Y-14308245D01*
G01*
X008150577Y-14302000D01*
G01*
X009725526Y-14302000D01*
G01*
X009734772Y-14294412D01*
G01*
X009784152Y-14268018D01*
G01*
X009513484Y-13997350D01*
G01*
X009502964Y-13996314D01*
G01*
X009427927Y-13973552D01*
G01*
X009358772Y-13936588D01*
G01*
X009298157Y-13886843D01*
G01*
X009248412Y-13826228D01*
G01*
X009211448Y-13757073D01*
G01*
X009188686Y-13682036D01*
G01*
X009181000Y-13604000D01*
G01*
X009188686Y-13525964D01*
G01*
X009211448Y-13450927D01*
G01*
X009214082Y-13446000D01*
G01*
X008337550Y-13446000D01*
G01*
X008274146Y-13439755D01*
G01*
X008213178Y-13421261D01*
G01*
X008156990Y-13391228D01*
G01*
X008107741Y-13350810D01*
G01*
X007966646Y-13209715D01*
G01*
X007921964Y-13205314D01*
G01*
X007846927Y-13182552D01*
G01*
X007777772Y-13145588D01*
G01*
X007717157Y-13095843D01*
G01*
X007667412Y-13035228D01*
G01*
X007650904Y-13004344D01*
G01*
X006852564Y-13802685D01*
G01*
X006803315Y-13843102D01*
G01*
X006747127Y-13873136D01*
G01*
X006686159Y-13891630D01*
G01*
X006622755Y-13897875D01*
G01*
X002613745Y-13897875D01*
G01*
X-00943380Y-17455000D01*
G01*
X005265590Y-17455000D01*
G01*
X005235412Y-17418228D01*
G37*
D39*
G36*
X009957564Y-11828183D02*
G01*
X009797631Y-11828183D01*
G01*
X009737073Y-11860552D01*
G01*
X009662036Y-11883314D01*
G01*
X009584000Y-11891000D01*
G01*
X009505964Y-11883314D01*
G01*
X009430927Y-11860552D01*
G01*
X009361772Y-11823588D01*
G01*
X009301157Y-11773843D01*
G01*
X009251412Y-11713228D01*
G01*
X009214448Y-11644073D01*
G01*
X009191686Y-11569036D01*
G01*
X009184000Y-11491000D01*
G01*
X009186158Y-11469090D01*
G01*
X008191344Y-12463904D01*
G01*
X008222228Y-12480412D01*
G01*
X008282843Y-12530157D01*
G01*
X008332588Y-12590772D01*
G01*
X008369552Y-12659927D01*
G01*
X008384120Y-12707950D01*
G01*
X008472170Y-12796000D01*
G01*
X010925381Y-12796000D01*
G01*
X009957564Y-11828183D01*
G37*
D39*
G36*
X051176086Y-00334295D02*
G01*
X051176086Y000527584D01*
G01*
X043206465Y-07442037D01*
G01*
X043206465Y-08303915D01*
G01*
X051176086Y-00334295D01*
G37*
D18*
X018000000Y-26670000D03*
D19*
X018000000Y-24130000D03*
D19*
X018000000Y-21590000D03*
D19*
X018000000Y-19050000D03*
D19*
X018000000Y-16510000D03*
D19*
X018000000Y-13970000D03*
D19*
X018000000Y-11430000D03*
D19*
X018000000Y-08890000D03*
D19*
X018000000Y-06350000D03*
D19*
X018000000Y-03810000D03*
D19*
X018000000Y-01270000D03*
D19*
X018000000Y001270000D03*
D19*
X018000000Y003810000D03*
D19*
X018000000Y006350000D03*
D19*
X018000000Y008890000D03*
D19*
X018000000Y011430000D03*
D19*
X018000000Y013970000D03*
D19*
X018000000Y016510000D03*
D19*
X018000000Y019050000D03*
D19*
X018000000Y021590000D03*
D19*
X018000000Y024130000D03*
D19*
X018000000Y026670000D03*
D18*
X040860000Y-26670000D03*
D19*
X040860000Y-24130000D03*
D19*
X040860000Y-21590000D03*
D19*
X040860000Y-19050000D03*
D19*
X040860000Y-16510000D03*
D19*
X040860000Y-13970000D03*
D19*
X040860000Y-11430000D03*
D19*
X040860000Y-08890000D03*
D19*
X040860000Y-06350000D03*
D19*
X040860000Y-03810000D03*
D19*
X040860000Y-01270000D03*
D19*
X040860000Y001270000D03*
D19*
X040860000Y003810000D03*
D19*
X040860000Y006350000D03*
D19*
X040860000Y008890000D03*
D19*
X040860000Y011430000D03*
D19*
X040860000Y013970000D03*
D19*
X040860000Y016510000D03*
D19*
X040860000Y019050000D03*
D19*
X040860000Y021590000D03*
D19*
X040860000Y024130000D03*
D19*
X040860000Y026670000D03*
D18*
X-70540000Y-15000000D03*
D19*
X-68000000Y-15000000D03*
D19*
X-65460000Y-15000000D03*
D18*
X-70540000Y000000000D03*
D19*
X-68000000Y000000000D03*
D19*
X-65460000Y000000000D03*
D18*
X-76500000Y015000000D03*
D24*
X-64540000Y025292500D03*
D24*
X-59460000Y025292500D03*
D24*
X-44160000Y040350000D03*
D24*
X-41620000Y040350000D03*
D24*
X-44160000Y037810000D03*
D24*
X-41620000Y037810000D03*
D24*
X-44160000Y035270000D03*
D24*
X-41620000Y035270000D03*
D24*
X-44160000Y032730000D03*
D24*
X-41620000Y032730000D03*
D29*
X-30160000Y-38350000D03*
D29*
X-30160000Y-35810000D03*
D29*
X-30160000Y-33270000D03*
D29*
X-30160000Y-30730000D03*
D29*
X-30160000Y-28190000D03*
D29*
X-30160000Y-25650000D03*
D29*
X-09840000Y-38350000D03*
D29*
X-09840000Y-35810000D03*
D29*
X-09840000Y-33270000D03*
D29*
X-09840000Y-30730000D03*
D29*
X-09840000Y-28190000D03*
D29*
X-09840000Y-25650000D03*
D32*
X067730000Y030000000D03*
D32*
X070270000Y030000000D03*
D32*
X067730000Y022000000D03*
D32*
X070270000Y022000000D03*
D32*
X067730000Y014000000D03*
D32*
X070270000Y014000000D03*
D32*
X067730000Y006000000D03*
D32*
X070270000Y006000000D03*
D34*
X069540000Y036000000D03*
D34*
X067000000Y036000000D03*
D34*
X064460000Y036000000D03*
D18*
X052460000Y002000000D03*
D19*
X055000000Y002000000D03*
D19*
X057540000Y002000000D03*
D32*
X065500000Y-06000000D03*
D32*
X070500000Y-06000000D03*
D36*
X038095000Y-39365000D03*
D36*
X039365000Y-40635000D03*
D36*
X040635000Y-39365000D03*
D36*
X041905000Y-40635000D03*
D24*
X044190000Y-21460000D03*
D24*
X044190000Y-24000000D03*
D24*
X044190000Y-26540000D03*
D24*
X051810000Y-26540000D03*
D24*
X051810000Y-24000000D03*
D24*
X051810000Y-21460000D03*
D32*
X042920000Y-30000000D03*
D32*
X053080000Y-30000000D03*
D36*
X058095000Y-39365000D03*
D36*
X059365000Y-40635000D03*
D36*
X060635000Y-39365000D03*
D36*
X061905000Y-40635000D03*
D24*
X064190000Y-21460000D03*
D24*
X064190000Y-24000000D03*
D24*
X064190000Y-26540000D03*
D24*
X071810000Y-26540000D03*
D24*
X071810000Y-24000000D03*
D24*
X071810000Y-21460000D03*
D32*
X062920000Y-30000000D03*
D32*
X073080000Y-30000000D03*
D10*
X004183000Y-06181000D02*
X004183000Y-06181000D01*
D10*
X004183000Y-06181000D02*
X004113448Y-06250552D01*
D10*
X004113448Y-06250552D02*
X004113448Y-06347578D01*
D10*
X004113448Y-06347578D02*
X-02491974Y-12953000D01*
D10*
X-02491974Y-12953000D02*
X-04648000Y-12953000D01*
D10*
X-04648000Y-12953000D02*
X-04648000Y-12953000D01*
D10*
X-10709000Y-16458000D02*
X-10709000Y-16458000D01*
D10*
X-10709000Y-16458000D02*
X-10717331Y-16466331D01*
D10*
X-10717331Y-16466331D02*
X-10717331Y-16498695D01*
D10*
X-10717331Y-16498695D02*
X-19868636Y-25650000D01*
D10*
X-19868636Y-25650000D02*
X-30160000Y-25650000D01*
D10*
X018000000Y-06350000D02*
X016250664Y-06350000D01*
D10*
X016250664Y-06350000D02*
X011678604Y-10922060D01*
D10*
X011678604Y-10922060D02*
X009273570Y-10922060D01*
D10*
X009273570Y-10922060D02*
X006622755Y-13572875D01*
D10*
X006622755Y-13572875D02*
X002479125Y-13572875D01*
D10*
X002479125Y-13572875D02*
X-03605000Y-19657000D01*
D10*
X-03605000Y-19657000D02*
X-03605000Y-19657000D01*
D10*
X-07574000Y-19891000D02*
X-07574000Y-19891000D01*
D10*
X-07574000Y-19891000D02*
X-07591034Y-19908034D01*
D10*
X-07591034Y-19908034D02*
X-15873000Y-28190000D01*
D10*
X-15873000Y-28190000D02*
X-30160000Y-28190000D01*
D10*
X018000000Y021590000D02*
X010868000Y014458000D01*
D10*
X010868000Y014458000D02*
X010868000Y006621000D01*
D10*
X010868000Y006621000D02*
X010868000Y006621000D01*
D10*
X013600000Y004600000D02*
X013600000Y004600000D01*
D10*
X013600000Y004600000D02*
X013589422Y004589422D01*
D10*
X013589422Y004589422D02*
X013056000Y004056000D01*
D10*
X013056000Y004056000D02*
X013056000Y003569000D01*
D10*
X013056000Y003569000D02*
X013056000Y003569000D01*
D10*
X-05709000Y-10970000D02*
X-05709000Y-10970000D01*
D10*
X-05709000Y-10970000D02*
X-05789782Y-11050782D01*
D10*
X-05789782Y-11050782D02*
X-05789782Y-11073155D01*
D10*
X-05789782Y-11073155D02*
X-06231000Y-11514373D01*
D10*
X-06231000Y-11514373D02*
X-06231000Y-12139000D01*
D10*
X-06231000Y-12139000D02*
X-06231000Y-12139000D01*
D10*
X018000000Y019050000D02*
X017639054Y018689054D01*
D10*
X017639054Y018689054D02*
X016982389Y018689054D01*
D10*
X016982389Y018689054D02*
X016982389Y012032389D01*
D10*
X016982389Y012032389D02*
X011087000Y006137000D01*
D10*
X011087000Y006137000D02*
X011087000Y006137000D01*
D10*
X-17998000Y-10208000D02*
X-17998000Y-10208000D01*
D10*
X-17998000Y-10208000D02*
X-18058582Y-10268582D01*
D10*
X-18058582Y-10268582D02*
X-18058582Y-10322804D01*
D10*
X-18058582Y-10322804D02*
X-18242000Y-10506223D01*
D10*
X-18242000Y-10506223D02*
X-18242000Y-10994000D01*
D10*
X-18242000Y-10994000D02*
X-18242000Y-10994000D01*
D10*
X-18695000Y-16551000D02*
X-18695000Y-16551000D01*
D10*
X-18695000Y-16551000D02*
X-18753089Y-16609089D01*
D10*
X-18753089Y-16609089D02*
X-18753089Y-16630859D01*
D10*
X-18753089Y-16630859D02*
X-18958000Y-16835769D01*
D10*
X-18958000Y-16835769D02*
X-18958000Y-17795000D01*
D10*
X-18958000Y-17795000D02*
X-18958000Y-17795000D01*
D10*
X045280000Y-19255000D02*
X045280000Y-19255000D01*
D10*
X045280000Y-19255000D02*
X045211658Y-19323342D01*
D10*
X045211658Y-19323342D02*
X045188173Y-19323342D01*
D10*
X045188173Y-19323342D02*
X044198284Y-20313230D01*
D10*
X044198284Y-20313230D02*
X043112300Y-20313230D01*
D10*
X043112300Y-20313230D02*
X043112300Y-21877700D01*
D10*
X043112300Y-21877700D02*
X040860000Y-24130000D01*
D10*
X059173000Y-19350000D02*
X059173000Y-19350000D01*
D10*
X059173000Y-19350000D02*
X060368026Y-19350000D01*
D10*
X060368026Y-19350000D02*
X060582685Y-19135341D01*
D10*
X060582685Y-19135341D02*
X060687659Y-19135341D01*
D10*
X060687659Y-19135341D02*
X060783000Y-19040000D01*
D10*
X060783000Y-19040000D02*
X060783000Y-19040000D01*
D10*
X069540000Y036000000D02*
X061324000Y027784000D01*
D10*
X061324000Y027784000D02*
X060417000Y027784000D01*
D10*
X060417000Y027784000D02*
X060417000Y027784000D01*
D10*
X057149000Y027413000D02*
X057149000Y027413000D01*
D10*
X057149000Y027413000D02*
X057108895Y027372895D01*
D10*
X057108895Y027372895D02*
X057108895Y027350512D01*
D10*
X057108895Y027350512D02*
X050431471Y020673088D01*
D10*
X050431471Y020673088D02*
X050431471Y020622644D01*
D10*
X050431471Y020622644D02*
X039892644Y020622644D01*
D10*
X039892644Y020622644D02*
X018000000Y-01270000D01*
D10*
X057395000Y028786000D02*
X057395000Y028786000D01*
D10*
X057395000Y028786000D02*
X058032150Y024640343D01*
D10*
X058032150Y024640343D02*
X058172962Y024359702D01*
D10*
X058172962Y024359702D02*
X058172962Y024158038D01*
D10*
X058172962Y024158038D02*
X058176000Y024155000D01*
D10*
X058176000Y024155000D02*
X058176000Y024155000D01*
D10*
X065500000Y-06000000D02*
X054002448Y-17497552D01*
D10*
X054002448Y-17497552D02*
X024632448Y-17497552D01*
D10*
X024632448Y-17497552D02*
X018000000Y-24130000D01*
D10*
X-25786000Y017259000D02*
X-25786000Y017259000D01*
D10*
X-25786000Y017259000D02*
X-25748732Y017221732D01*
D10*
X-25748732Y017221732D02*
X-25748732Y017125351D01*
D10*
X-25748732Y017125351D02*
X-17823381Y009200000D01*
D10*
X-17823381Y009200000D02*
X-17600000Y009200000D01*
D10*
X-17600000Y009200000D02*
X-17600000Y009200000D01*
D10*
X-14244000Y005409000D02*
X-14244000Y005409000D01*
D10*
X-14244000Y005409000D02*
X-14156238Y005321238D01*
D10*
X-14156238Y005321238D02*
X-14156238Y005289619D01*
D10*
X-14156238Y005289619D02*
X-13105000Y004238380D01*
D10*
X-13105000Y004238380D02*
X-13105000Y003480000D01*
D10*
X-13105000Y003480000D02*
X-13105000Y003480000D01*
D10*
X-04440000Y-01904000D02*
X-04440000Y-01904000D01*
D10*
X-04440000Y-01904000D02*
X-04332463Y-02011537D01*
D10*
X-04332463Y-02011537D02*
X-01819000Y-04525000D01*
D10*
X-01819000Y-04525000D02*
X-01127000Y-04525000D01*
D10*
X-01127000Y-04525000D02*
X-01127000Y-04525000D01*
D10*
X009581000Y-13604000D02*
X009581000Y-13604000D01*
D10*
X009581000Y-13604000D02*
X009651979Y-13674979D01*
D10*
X009651979Y-13674979D02*
X009651979Y-13676226D01*
D10*
X009651979Y-13676226D02*
X010577000Y-14601246D01*
D10*
X010577000Y-14601246D02*
X010577000Y-15042000D01*
D10*
X010577000Y-15042000D02*
X010577000Y-15042000D01*
D10*
X-34975000Y011842000D02*
X-34975000Y011842000D01*
D10*
X-34975000Y011842000D02*
X-34888144Y011755144D01*
D10*
X-34888144Y011755144D02*
X-34869161Y011755144D01*
D10*
X-34869161Y011755144D02*
X-22294049Y-00819967D01*
D10*
X-22294049Y-00819967D02*
X-00581453Y-00819967D01*
D10*
X-00581453Y-00819967D02*
X007629000Y-09030420D01*
D10*
X007629000Y-09030420D02*
X007629000Y-10916000D01*
D10*
X007629000Y-10916000D02*
X007629000Y-10916000D01*
D10*
X009584000Y-11491000D02*
X009584000Y-11491000D01*
D10*
X009584000Y-11491000D02*
X009596183Y-11503183D01*
D10*
X009596183Y-11503183D02*
X009688205Y-11503183D01*
D10*
X009688205Y-11503183D02*
X010092183Y-11503183D01*
D10*
X010092183Y-11503183D02*
X014402000Y-15813000D01*
D10*
X014402000Y-15813000D02*
X014402000Y-15813000D01*
D10*
X-19200000Y006400000D02*
X-19200000Y006400000D01*
D10*
X-19200000Y006400000D02*
X-19199778Y006400222D01*
D10*
X-19199778Y006400222D02*
X-19195853Y006400222D01*
D10*
X-19195853Y006400222D02*
X008894778Y006400222D01*
D10*
X008894778Y006400222D02*
X010420000Y004875000D01*
D10*
X010420000Y004875000D02*
X010420000Y004875000D01*
D10*
X-47203000Y004483000D02*
X-47203000Y004483000D01*
D10*
X-47203000Y004483000D02*
X-47163327Y004443327D01*
D10*
X-47163327Y004443327D02*
X-47163327Y004412750D01*
D10*
X-47163327Y004412750D02*
X-63587250Y004412750D01*
D10*
X-63587250Y004412750D02*
X-68000000Y000000000D01*
D10*
X-35621000Y-06261000D02*
X-35621000Y-06261000D01*
D10*
X-35621000Y-06261000D02*
X-35501800Y-06380200D01*
D10*
X-35501800Y-06380200D02*
X-28579118Y-13302882D01*
D10*
X-28579118Y-13302882D02*
X-28399708Y-13302882D01*
D10*
X-28399708Y-13302882D02*
X006521118Y-13302882D01*
D10*
X006521118Y-13302882D02*
X009226000Y-10598000D01*
D10*
X009226000Y-10598000D02*
X009226000Y-10598000D01*
D10*
X012062000Y-11178000D02*
X012062000Y-11178000D01*
D10*
X012062000Y-11178000D02*
X012071215Y-11187215D01*
D10*
X012071215Y-11187215D02*
X013254630Y-12370630D01*
D10*
X013254630Y-12370630D02*
X013324869Y-12370630D01*
D10*
X013324869Y-12370630D02*
X036720630Y-12370630D01*
D10*
X036720630Y-12370630D02*
X040860000Y-16510000D01*
D10*
X-58400000Y-09600000D02*
X-58400000Y-09600000D01*
D10*
X-58400000Y-09600000D02*
X-58403151Y-09603151D01*
D10*
X-58403151Y-09603151D02*
X-58403151Y-09718676D01*
D10*
X-58403151Y-09718676D02*
X-63684475Y-15000000D01*
D10*
X-63684475Y-15000000D02*
X-65460000Y-15000000D01*
D10*
X-06839000Y-03508000D02*
X-06839000Y-03508000D01*
D10*
X-06839000Y-03508000D02*
X-06822356Y-03524644D01*
D10*
X-06822356Y-03524644D02*
X-04142000Y-06205000D01*
D10*
X-04142000Y-06205000D02*
X-03435000Y-06205000D01*
D10*
X-03435000Y-06205000D02*
X-03435000Y-06205000D01*
D10*
X-35629000Y-12277000D02*
X-35629000Y-12277000D01*
D10*
X-35629000Y-12277000D02*
X-35524200Y-12381800D01*
D10*
X-35524200Y-12381800D02*
X-35501667Y-12381800D01*
D10*
X-35501667Y-12381800D02*
X-34264649Y-13618819D01*
D10*
X-34264649Y-13618819D02*
X-12135162Y-13618819D01*
D10*
X-12135162Y-13618819D02*
X-04516010Y-21237971D01*
D10*
X-04516010Y-21237971D02*
X-01058038Y-17780000D01*
D10*
X-01058038Y-17780000D02*
X019550000Y-17780000D01*
D10*
X019550000Y-17780000D02*
X019550000Y-17780000D01*
D10*
X008000000Y-12813000D02*
X008000000Y-12813000D01*
D10*
X008000000Y-12813000D02*
X008029747Y-12842747D01*
D10*
X008029747Y-12842747D02*
X008059297Y-12842747D01*
D10*
X008059297Y-12842747D02*
X008337550Y-13121000D01*
D10*
X008337550Y-13121000D02*
X011193000Y-13121000D01*
D10*
X011193000Y-13121000D02*
X011193000Y-13121000D01*
D10*
X-14604000Y-16179000D02*
X-14604000Y-16179000D01*
D10*
X-14604000Y-16179000D02*
X-14500000Y-16283000D01*
D10*
X-14500000Y-16283000D02*
X-14440804Y-16283000D01*
D10*
X-14440804Y-16283000D02*
X-14041804Y-16682000D01*
D10*
X-14041804Y-16682000D02*
X-13609000Y-16682000D01*
D10*
X-13609000Y-16682000D02*
X-13609000Y-16682000D01*
D10*
X005568000Y-17196000D02*
X005568000Y-17196000D01*
D10*
X005568000Y-17196000D02*
X005702784Y-17061216D01*
D10*
X005702784Y-17061216D02*
X005716361Y-17061216D01*
D10*
X005716361Y-17061216D02*
X008150577Y-14627000D01*
D10*
X008150577Y-14627000D02*
X009957000Y-14627000D01*
D10*
X009957000Y-14627000D02*
X009957000Y-14627000D01*
D11*
X055175000Y004256000D02*
X055175000Y004256000D01*
D11*
X055175000Y004256000D02*
X052460000Y004256000D01*
D11*
X052460000Y004256000D02*
X052460000Y002000000D01*
D12*
X059605000Y009000000D02*
X059605000Y009000000D01*
D12*
X059605000Y009000000D02*
X059605000Y008004590D01*
D12*
X059605000Y008004590D02*
X059605000Y007009180D01*
D12*
X059605000Y007009180D02*
X059600000Y007004180D01*
D13*
X059600000Y007004180D02*
X059600000Y007000000D01*
D13*
X059600000Y007000000D02*
X059600000Y007000000D01*
D14*
X045622000Y004564000D02*
X045622000Y004564000D01*
D14*
X045622000Y004564000D02*
X045500000Y004500000D01*
D14*
X045500000Y004500000D02*
X045500000Y004250000D01*
D13*
X045500000Y004250000D02*
X045250000Y004250000D01*
D15*
X045250000Y004250000D02*
X045000000Y004250000D01*
D16*
X045000000Y004250000D02*
X044500000Y004625000D01*
D11*
X044500000Y004625000D02*
X044000000Y005000000D01*
D11*
X044000000Y005000000D02*
X042633844Y007622000D01*
D11*
X042633844Y007622000D02*
X041998000Y007622000D01*
D11*
X041998000Y007622000D02*
X041998000Y007622000D01*
D11*
X-15440000Y040083000D02*
X-15440000Y040083000D01*
D11*
X-15440000Y040083000D02*
X-14866883Y040083000D01*
D11*
X-14866883Y040083000D02*
X-14742533Y040207350D01*
D11*
X-14742533Y040207350D02*
X-14624650Y040207350D01*
D11*
X-14624650Y040207350D02*
X-14614000Y040218000D01*
D11*
X-14614000Y040218000D02*
X-14614000Y040218000D01*
D11*
X044190000Y-24000000D02*
X043530000Y-24000000D01*
D11*
X043530000Y-24000000D02*
X040860000Y-26670000D01*
D11*
X046916000Y004822000D02*
X046916000Y004822000D01*
D11*
X046916000Y004822000D02*
X046849840Y004888160D01*
D11*
X046849840Y004888160D02*
X046849840Y004931314D01*
D11*
X046849840Y004931314D02*
X046668000Y005113154D01*
D11*
X046668000Y005113154D02*
X046668000Y005605000D01*
D11*
X046668000Y005605000D02*
X046668000Y005605000D01*
D11*
X044800000Y022800000D02*
X044800000Y022800000D01*
D11*
X044800000Y022800000D02*
X043470000Y024130000D01*
D11*
X043470000Y024130000D02*
X040860000Y024130000D01*
D11*
X046846000Y-20154000D02*
X046846000Y-20154000D01*
D11*
X046846000Y-20154000D02*
X046846000Y-24000000D01*
D11*
X046846000Y-24000000D02*
X044190000Y-24000000D01*
D11*
X051200000Y020000000D02*
X051200000Y020000000D01*
D11*
X051200000Y020000000D02*
X055006704Y020000000D01*
D11*
X055006704Y020000000D02*
X058146131Y023139427D01*
D11*
X058146131Y023139427D02*
X058875000Y023750000D01*
D15*
X058875000Y023750000D02*
X058875000Y024750000D01*
D15*
X058875000Y024750000D02*
X058716333Y025060631D01*
D11*
X058716333Y025060631D02*
X058716333Y030315333D01*
D11*
X058716333Y030315333D02*
X059494000Y031093000D01*
D11*
X059494000Y031093000D02*
X059494000Y031093000D01*
D11*
X067730000Y014000000D02*
X057540000Y003810000D01*
D11*
X057540000Y003810000D02*
X057540000Y002000000D01*
D11*
X040860000Y-26670000D02*
X040187600Y-27342400D01*
D11*
X040187600Y-27342400D02*
X039515200Y-28014800D01*
D11*
X039515200Y-28014800D02*
X038842800Y-28687200D01*
D11*
X038842800Y-28687200D02*
X038170400Y-29359600D01*
D11*
X038170400Y-29359600D02*
X037498000Y-30032000D01*
D11*
X037498000Y-30032000D02*
X037363000Y-30032000D01*
D11*
X037363000Y-30032000D02*
X037363000Y-30032000D01*
D10*
X043223000Y-08747000D02*
X043223000Y-08747000D01*
D10*
X043223000Y-08747000D02*
X051501086Y-00468914D01*
D10*
X051501086Y-00468914D02*
X051501086Y006572285D01*
D10*
X051501086Y006572285D02*
X055919970Y010991169D01*
D10*
X055919970Y010991169D02*
X055919970Y010994970D01*
D10*
X055919970Y010994970D02*
X056091000Y011166000D01*
D10*
X056091000Y011166000D02*
X056091000Y011166000D01*
D10*
X040860000Y-13970000D02*
X042881465Y-11948535D01*
D10*
X042881465Y-11948535D02*
X042881465Y-07307417D01*
D10*
X042881465Y-07307417D02*
X051243377Y001054494D01*
D10*
X051243377Y001054494D02*
X051243377Y007728455D01*
D10*
X051243377Y007728455D02*
X059564397Y016049476D01*
D10*
X059564397Y016049476D02*
X059564397Y028530403D01*
D10*
X059564397Y028530403D02*
X059564397Y028548603D01*
D10*
X059564397Y028548603D02*
X059558000Y028555000D01*
D10*
X059558000Y028555000D02*
X059558000Y028555000D01*
D10*
X062920000Y-30000000D02*
X061137122Y-30000000D01*
D10*
X061137122Y-30000000D02*
X059331833Y-28194711D01*
D10*
X059331833Y-28194711D02*
X059331833Y-28178833D01*
D10*
X059331833Y-28178833D02*
X059174000Y-28021000D01*
D10*
X059174000Y-28021000D02*
X059174000Y-28021000D01*
D10*
X062920000Y-30000000D02*
X065810000Y-30000000D01*
D10*
X065810000Y-30000000D02*
X071810000Y-24000000D01*
D10*
X037000000Y-28500000D02*
X037000000Y-28500000D01*
D10*
X037000000Y-28500000D02*
X036994467Y-28505533D01*
D10*
X036994467Y-28505533D02*
X036994467Y-28571077D01*
D10*
X036994467Y-28571077D02*
X036675000Y-29700000D01*
D10*
X036675000Y-29700000D02*
X036994467Y-38264467D01*
D10*
X036994467Y-38264467D02*
X038095000Y-39365000D01*
D10*
X058921153Y034515504D02*
X058921153Y034515504D01*
D10*
X058921153Y034515504D02*
X058872201Y034466553D01*
D10*
X058872201Y034466553D02*
X058872201Y034426904D01*
D10*
X058872201Y034426904D02*
X056695298Y032250000D01*
D10*
X056695298Y032250000D02*
X056525000Y032250000D01*
D10*
X056525000Y032250000D02*
X056525000Y032250000D01*
D10*
X045446000Y004944000D02*
X045446000Y004944000D01*
D10*
X045446000Y004944000D02*
X045272551Y004944000D01*
D10*
X045272551Y004944000D02*
X044866039Y005350512D01*
D10*
X044866039Y005350512D02*
X044781488Y005350512D01*
D10*
X044781488Y005350512D02*
X044758000Y005374000D01*
D10*
X044758000Y005374000D02*
X044758000Y005374000D01*
D10*
X067730000Y006000000D02*
X064186685Y006000000D01*
D10*
X064186685Y006000000D02*
X064059293Y005872608D01*
D10*
X064059293Y005872608D02*
X064009531Y005872608D01*
D10*
X064009531Y005872608D02*
X063889142Y005992997D01*
D10*
X063889142Y005992997D02*
X063889142Y005992997D01*
D10*
X063523926Y005776782D02*
X063523926Y005776782D01*
D10*
X063523926Y005776782D02*
X063555173Y005745535D01*
D10*
X063555173Y005745535D02*
X064510878Y004789830D01*
D10*
X064510878Y004789830D02*
X064535115Y004789830D01*
D10*
X064535115Y004789830D02*
X069059830Y004789830D01*
D10*
X069059830Y004789830D02*
X070270000Y006000000D01*
D10*
X063464000Y016575000D02*
X063464000Y016575000D01*
D10*
X063464000Y016575000D02*
X063535391Y016646391D01*
D10*
X063535391Y016646391D02*
X063616270Y016646391D01*
D10*
X063616270Y016646391D02*
X067623609Y016646391D01*
D10*
X067623609Y016646391D02*
X070270000Y014000000D01*
D10*
X042678000Y015158000D02*
X042678000Y015158000D01*
D10*
X042678000Y015158000D02*
X042557678Y015037678D01*
D10*
X042557678Y015037678D02*
X042557678Y015027454D01*
D10*
X042557678Y015027454D02*
X042344000Y014813776D01*
D10*
X042344000Y014813776D02*
X042344000Y009200000D01*
D10*
X042344000Y009200000D02*
X042344000Y009200000D01*
D10*
X042595000Y-06082000D02*
X042595000Y-06082000D01*
D10*
X042595000Y-06082000D02*
X042580208Y-06096792D01*
D10*
X042580208Y-06096792D02*
X042580208Y-06102791D01*
D10*
X042580208Y-06102791D02*
X042580208Y-07169792D01*
D10*
X042580208Y-07169792D02*
X040860000Y-08890000D01*
D10*
X067363000Y031546000D02*
X067363000Y031546000D01*
D10*
X067363000Y031546000D02*
X067399725Y031509275D01*
D10*
X067399725Y031509275D02*
X068760725Y031509275D01*
D10*
X068760725Y031509275D02*
X070270000Y030000000D01*
D11*
X-64540000Y025292500D02*
X-57103000Y032730000D01*
D11*
X-57103000Y032730000D02*
X-44160000Y032730000D01*
D38*
X004183000Y-06181000D03*
D38*
X-04648000Y-12953000D03*
D38*
X-10709000Y-16458000D03*
D38*
X-03605000Y-19657000D03*
D38*
X-07574000Y-19891000D03*
D38*
X010868000Y006621000D03*
D38*
X013600000Y004600000D03*
D38*
X013056000Y003569000D03*
D38*
X-05709000Y-10970000D03*
D38*
X-06231000Y-12139000D03*
D38*
X011087000Y006137000D03*
D38*
X-17998000Y-10208000D03*
D38*
X-18242000Y-10994000D03*
D38*
X-18695000Y-16551000D03*
D38*
X-18958000Y-17795000D03*
D38*
X045280000Y-19255000D03*
D38*
X059173000Y-19350000D03*
D38*
X060783000Y-19040000D03*
D38*
X060417000Y027784000D03*
D38*
X057149000Y027413000D03*
D38*
X057395000Y028786000D03*
D38*
X058176000Y024155000D03*
D38*
X-25786000Y017259000D03*
D38*
X-17600000Y009200000D03*
D38*
X-14244000Y005409000D03*
D38*
X-13105000Y003480000D03*
D38*
X-04440000Y-01904000D03*
D38*
X-01127000Y-04525000D03*
D38*
X009581000Y-13604000D03*
D38*
X010577000Y-15042000D03*
D38*
X-34975000Y011842000D03*
D38*
X007629000Y-10916000D03*
D38*
X009584000Y-11491000D03*
D38*
X014402000Y-15813000D03*
D38*
X-19200000Y006400000D03*
D38*
X010420000Y004875000D03*
D38*
X-47203000Y004483000D03*
D38*
X-35621000Y-06261000D03*
D38*
X009226000Y-10598000D03*
D38*
X012062000Y-11178000D03*
D38*
X-58400000Y-09600000D03*
D38*
X-06839000Y-03508000D03*
D38*
X-03435000Y-06205000D03*
D38*
X-35629000Y-12277000D03*
D38*
X019550000Y-17780000D03*
D38*
X008000000Y-12813000D03*
D38*
X011193000Y-13121000D03*
D38*
X-14604000Y-16179000D03*
D38*
X-13609000Y-16682000D03*
D38*
X005568000Y-17196000D03*
D38*
X009957000Y-14627000D03*
D38*
X055175000Y004256000D03*
D38*
X059605000Y009000000D03*
D38*
X059600000Y007000000D03*
D38*
X045622000Y004564000D03*
D38*
X041998000Y007622000D03*
D38*
X-15440000Y040083000D03*
D38*
X-14614000Y040218000D03*
D38*
X046916000Y004822000D03*
D38*
X046668000Y005605000D03*
D38*
X044800000Y022800000D03*
D38*
X046846000Y-20154000D03*
D38*
X051200000Y020000000D03*
D38*
X059494000Y031093000D03*
D38*
X037363000Y-30032000D03*
D38*
X043223000Y-08747000D03*
D38*
X056091000Y011166000D03*
D38*
X059558000Y028555000D03*
D38*
X059174000Y-28021000D03*
D38*
X037000000Y-28500000D03*
D38*
X058921153Y034515504D03*
D38*
X056525000Y032250000D03*
D38*
X045446000Y004944000D03*
D38*
X044758000Y005374000D03*
D38*
X063889142Y005992997D03*
D38*
X063523926Y005776782D03*
D38*
X063464000Y016575000D03*
D38*
X042678000Y015158000D03*
D38*
X042344000Y009200000D03*
D38*
X042595000Y-06082000D03*
D38*
X067363000Y031546000D03*
%LPC*%
D17*
X-75000000Y-45000000D03*
%LPD*%
%LPC*%
D17*
X075000000Y-45000000D03*
%LPD*%
%LPC*%
D17*
X-75000000Y045000000D03*
%LPD*%
%LPC*%
D17*
X075000000Y045000000D03*
%LPD*%
%LPC*%
D23*
X-69747000Y043707500D03*
%LPD*%
%LPC*%
D23*
X-54507000Y043707500D03*
%LPD*%
%LPC*%
D26*
X-44500000Y023500000D03*
%LPD*%
%LPC*%
D26*
X-23400000Y023500000D03*
%LPD*%
%LPC*%
D26*
X-23400000Y044600000D03*
%LPD*%
%LPC*%
D37*
X034920000Y-47620000D03*
%LPD*%
%LPC*%
D37*
X045080000Y-47620000D03*
%LPD*%
%LPC*%
D37*
X054920000Y-47620000D03*
%LPD*%
%LPC*%
D37*
X065080000Y-47620000D03*
%LPD*%
M02*