%TF.GenerationSoftware,tscircuit,circuit-json-to-gerber,0.0.93*%
%TF.CreationDate,2026-08-27T13:04:22.744Z*%
%TF.SameCoordinates,Original*%
%TF.FileFunction,Copper,L2,Bot*%
%TF.FilePolarity,Positive*%
%FSLAX46Y46*%
%MOMM*%
G04 Gerber Fmt 4.6, Leading zero omitted, Abs format (unit mm)*
G04 Created by tscircuit (builder) date 2026-08-27T13:04:22.744Z*
G01*
%LPD*%
G75*
G04 APERTURE MACROS START*
%AMHORZPILL*
0 Horizontal pill (stadium) shape macro*
0 Parameters:*
0 $1 = Total width*
0 $2 = Total height*
0 $3 = Circle diameter (equal to height)*
0 $4 = Circle center offset
0 21 = Center Line(Exposure, Width, Height, Center X, Center Y, Rotation)*
0 1 = Circle(Exposure, Diameter, Center X, Center Y, Rotation)*
21,1,$1-$3,$2,0.0,0.0,0.0*
1,1,$3,0.0-$4,0.0*
1,1,$3,$4,0.0*%
%AMVERTPILL*
0 Vertical pill (stadium) shape macro*
0 Parameters:*
0 $1 = Total width*
0 $2 = Total height*
0 $3 = Circle diameter (equal to width)*
0 $4 = Circle center offset
0 21 = Center Line(Exposure, Width, Height, Center X, Center Y, Rotation)*
21,1,$1,$2-$3,0.0,0.0,0.0*
1,1,$3,0.0,0.0-$4*
1,1,$3,0.0,$4*%
%AMROUNDRECT*
0 Rectangle with rounded corners*
0 $1 Corner radius*
0 $2 $3 $4 $5 $6 $7 $8 $9 X,Y Position of each corner*
0 Polygon box body*
4,1,4,$2,$3,$4,$5,$6,$7,$8,$9,$2,$3,0*
0 Circles for rounded corners*
1,1,$1+$1,$2,$3*
1,1,$1+$1,$4,$5*
1,1,$1+$1,$6,$7*
1,1,$1+$1,$8,$9*
0 Rectangles between the rounded corners*
20,1,$1+$1,$2,$3,$4,$5,0*
20,1,$1+$1,$4,$5,$6,$7,0*
20,1,$1+$1,$6,$7,$8,$9,0*
20,1,$1+$1,$8,$9,$2,$3,0*%
G04 APERTURE MACROS END*
G04 aperture START LIST*
%ADD10C,0.150000*%
%ADD11C,1.000000*%
%ADD12C,0.450000*%
%ADD13C,0.975000*%
%ADD14C,3.200000*%
%ADD15R,1.500000X1.500000*%
%ADD16C,1.500000*%
%ADD17C,0.063000*%
%ADD18C,0.200000*%
%ADD19C,0.108000*%
%ADD20C,2.500000*%
%ADD21R,1.800000X1.800000*%
%ADD22C,0.081000*%
%ADD23C,2.180000*%
%ADD24C,0.090000*%
%ADD25C,0.100000*%
%ADD26R,1.700000X1.700000*%
%ADD27C,0.120000*%
%ADD28C,0.036000*%
%ADD29R,2.200000X2.200000*%
%ADD30C,0.150000*%
%ADD31R,2.800000X2.800000*%
%ADD32C,0.072000*%
%ADD33R,2.000000X2.000000*%
%ADD34C,0.045000*%
%ADD35C,1.400000*%
%ADD36C,3.250000*%
%ADD37C,0.300000*%
%ADD38C,0.001000*%
%TD*%
G04 aperture END LIST*
D38*
G36*
X079500000Y049500000D02*
G01*
X-79500000Y049500000D01*
G01*
X-79500000Y-49500000D01*
G01*
X079500000Y-49500000D01*
G01*
X079500000Y049500000D01*
G37*
%LPC*%
D38*
G36*
X-75000000Y043150000D02*
G01*
X-74639083Y043185547D01*
G01*
X-74292036Y043290823D01*
G01*
X-73972195Y043461781D01*
G01*
X-73691852Y043691852D01*
G01*
X-73461781Y043972195D01*
G01*
X-73290823Y044292036D01*
G01*
X-73185547Y044639083D01*
G01*
X-73150000Y045000000D01*
G01*
X-73185547Y045360917D01*
G01*
X-73290823Y045707964D01*
G01*
X-73461781Y046027805D01*
G01*
X-73691852Y046308148D01*
G01*
X-73972195Y046538219D01*
G01*
X-74292036Y046709177D01*
G01*
X-74639083Y046814453D01*
G01*
X-75000000Y046850000D01*
G01*
X-75360917Y046814453D01*
G01*
X-75707964Y046709177D01*
G01*
X-76027805Y046538219D01*
G01*
X-76308148Y046308148D01*
G01*
X-76538219Y046027805D01*
G01*
X-76709177Y045707964D01*
G01*
X-76814453Y045360917D01*
G01*
X-76850000Y045000000D01*
G01*
X-76814453Y044639083D01*
G01*
X-76709177Y044292036D01*
G01*
X-76538219Y043972195D01*
G01*
X-76308148Y043691852D01*
G01*
X-76027805Y043461781D01*
G01*
X-75707964Y043290823D01*
G01*
X-75360917Y043185547D01*
G01*
X-75000000Y043150000D01*
G37*
D38*
G36*
X075000000Y043150000D02*
G01*
X075360917Y043185547D01*
G01*
X075707964Y043290823D01*
G01*
X076027805Y043461781D01*
G01*
X076308148Y043691852D01*
G01*
X076538219Y043972195D01*
G01*
X076709177Y044292036D01*
G01*
X076814453Y044639083D01*
G01*
X076850000Y045000000D01*
G01*
X076814453Y045360917D01*
G01*
X076709177Y045707964D01*
G01*
X076538219Y046027805D01*
G01*
X076308148Y046308148D01*
G01*
X076027805Y046538219D01*
G01*
X075707964Y046709177D01*
G01*
X075360917Y046814453D01*
G01*
X075000000Y046850000D01*
G01*
X074639083Y046814453D01*
G01*
X074292036Y046709177D01*
G01*
X073972195Y046538219D01*
G01*
X073691852Y046308148D01*
G01*
X073461781Y046027805D01*
G01*
X073290823Y045707964D01*
G01*
X073185547Y045360917D01*
G01*
X073150000Y045000000D01*
G01*
X073185547Y044639083D01*
G01*
X073290823Y044292036D01*
G01*
X073461781Y043972195D01*
G01*
X073691852Y043691852D01*
G01*
X073972195Y043461781D01*
G01*
X074292036Y043290823D01*
G01*
X074639083Y043185547D01*
G01*
X075000000Y043150000D01*
G37*
D38*
G36*
X-23400000Y043260000D02*
G01*
X-23138579Y043285748D01*
G01*
X-22887204Y043362001D01*
G01*
X-22655536Y043485831D01*
G01*
X-22452477Y043652477D01*
G01*
X-22285831Y043855536D01*
G01*
X-22162001Y044087204D01*
G01*
X-22085748Y044338579D01*
G01*
X-22060000Y044600000D01*
G01*
X-22085748Y044861421D01*
G01*
X-22162001Y045112796D01*
G01*
X-22285831Y045344464D01*
G01*
X-22452477Y045547523D01*
G01*
X-22655536Y045714169D01*
G01*
X-22887204Y045837999D01*
G01*
X-23138579Y045914252D01*
G01*
X-23400000Y045940000D01*
G01*
X-23661421Y045914252D01*
G01*
X-23912796Y045837999D01*
G01*
X-24144464Y045714169D01*
G01*
X-24347523Y045547523D01*
G01*
X-24514169Y045344464D01*
G01*
X-24637999Y045112796D01*
G01*
X-24714252Y044861421D01*
G01*
X-24740000Y044600000D01*
G01*
X-24714252Y044338579D01*
G01*
X-24637999Y044087204D01*
G01*
X-24514169Y043855536D01*
G01*
X-24347523Y043652477D01*
G01*
X-24144464Y043485831D01*
G01*
X-23912796Y043362001D01*
G01*
X-23661421Y043285748D01*
G01*
X-23400000Y043260000D01*
G37*
D38*
G36*
X-69747000Y042207500D02*
G01*
X-69454365Y042236322D01*
G01*
X-69172975Y042321681D01*
G01*
X-68913645Y042460296D01*
G01*
X-68686340Y042646840D01*
G01*
X-68499796Y042874145D01*
G01*
X-68361181Y043133475D01*
G01*
X-68275822Y043414865D01*
G01*
X-68247000Y043707500D01*
G01*
X-68275822Y044000135D01*
G01*
X-68361181Y044281525D01*
G01*
X-68499796Y044540855D01*
G01*
X-68686340Y044768160D01*
G01*
X-68913645Y044954704D01*
G01*
X-69172975Y045093319D01*
G01*
X-69454365Y045178678D01*
G01*
X-69747000Y045207500D01*
G01*
X-70039635Y045178678D01*
G01*
X-70321025Y045093319D01*
G01*
X-70580355Y044954704D01*
G01*
X-70807660Y044768160D01*
G01*
X-70994204Y044540855D01*
G01*
X-71132819Y044281525D01*
G01*
X-71218178Y044000135D01*
G01*
X-71247000Y043707500D01*
G01*
X-71218178Y043414865D01*
G01*
X-71132819Y043133475D01*
G01*
X-70994204Y042874145D01*
G01*
X-70807660Y042646840D01*
G01*
X-70580355Y042460296D01*
G01*
X-70321025Y042321681D01*
G01*
X-70039635Y042236322D01*
G01*
X-69747000Y042207500D01*
G37*
D38*
G36*
X-54507000Y042207500D02*
G01*
X-54214365Y042236322D01*
G01*
X-53932975Y042321681D01*
G01*
X-53673645Y042460296D01*
G01*
X-53446340Y042646840D01*
G01*
X-53259796Y042874145D01*
G01*
X-53121181Y043133475D01*
G01*
X-53035822Y043414865D01*
G01*
X-53007000Y043707500D01*
G01*
X-53035822Y044000135D01*
G01*
X-53121181Y044281525D01*
G01*
X-53259796Y044540855D01*
G01*
X-53446340Y044768160D01*
G01*
X-53673645Y044954704D01*
G01*
X-53932975Y045093319D01*
G01*
X-54214365Y045178678D01*
G01*
X-54507000Y045207500D01*
G01*
X-54799635Y045178678D01*
G01*
X-55081025Y045093319D01*
G01*
X-55340355Y044954704D01*
G01*
X-55567660Y044768160D01*
G01*
X-55754204Y044540855D01*
G01*
X-55892819Y044281525D01*
G01*
X-55978178Y044000135D01*
G01*
X-56007000Y043707500D01*
G01*
X-55978178Y043414865D01*
G01*
X-55892819Y043133475D01*
G01*
X-55754204Y042874145D01*
G01*
X-55567660Y042646840D01*
G01*
X-55340355Y042460296D01*
G01*
X-55081025Y042321681D01*
G01*
X-54799635Y042236322D01*
G01*
X-54507000Y042207500D01*
G37*
D38*
G36*
X001570000Y-27130000D02*
G01*
X001765090Y-27110785D01*
G01*
X001952683Y-27053880D01*
G01*
X002125570Y-26961470D01*
G01*
X002277107Y-26837107D01*
G01*
X002401470Y-26685570D01*
G01*
X002493880Y-26512683D01*
G01*
X002550785Y-26325090D01*
G01*
X002570000Y-26130000D01*
G01*
X002550785Y-25934910D01*
G01*
X002493880Y-25747317D01*
G01*
X002465465Y-25694155D01*
G01*
X008362621Y-19796998D01*
G01*
X025562060Y-19796998D01*
G01*
X025625465Y-19790753D01*
G01*
X025686432Y-19772259D01*
G01*
X025742621Y-19742225D01*
G01*
X025791870Y-19701807D01*
G01*
X030594217Y-14899460D01*
G01*
X056782545Y-14899460D01*
G01*
X056925540Y-14899460D01*
G01*
X056988944Y-14893215D01*
G01*
X057049912Y-14874721D01*
G01*
X057106100Y-14844688D01*
G01*
X057155350Y-14804270D01*
G01*
X064709620Y-07250000D01*
G01*
X066750000Y-07250000D01*
G01*
X066750000Y-04750000D01*
G01*
X065825000Y-04750000D01*
G01*
X065825000Y025100000D01*
G01*
X065818755Y025163404D01*
G01*
X065800261Y025224372D01*
G01*
X065770228Y025280560D01*
G01*
X065729810Y025329810D01*
G01*
X056793486Y034266134D01*
G01*
X056792314Y034278036D01*
G01*
X056769552Y034353073D01*
G01*
X056732588Y034422228D01*
G01*
X056682843Y034482843D01*
G01*
X056622228Y034532588D01*
G01*
X056553073Y034569552D01*
G01*
X056478036Y034592314D01*
G01*
X056400000Y034600000D01*
G01*
X056321964Y034592314D01*
G01*
X056246927Y034569552D01*
G01*
X056177772Y034532588D01*
G01*
X056117157Y034482843D01*
G01*
X056067412Y034422228D01*
G01*
X056030448Y034353073D01*
G01*
X056007686Y034278036D01*
G01*
X056000000Y034200000D01*
G01*
X056007686Y034121964D01*
G01*
X056030448Y034046927D01*
G01*
X056067412Y033977772D01*
G01*
X056117157Y033917157D01*
G01*
X056177772Y033867412D01*
G01*
X056246927Y033830448D01*
G01*
X056321964Y033807686D01*
G01*
X056333866Y033806514D01*
G01*
X065175000Y024965380D01*
G01*
X065175000Y-04750000D01*
G01*
X064250000Y-04750000D01*
G01*
X064250000Y-06790380D01*
G01*
X056790920Y-14249460D01*
G01*
X056782545Y-14249460D01*
G01*
X046323061Y-14249460D01*
G01*
X046325001Y-14229768D01*
G01*
X046317315Y-14151731D01*
G01*
X046294553Y-14076694D01*
G01*
X046257589Y-14007539D01*
G01*
X046250001Y-13998293D01*
G01*
X046250001Y-11743210D01*
G01*
X046769320Y-11223891D01*
G01*
X046833073Y-11204552D01*
G01*
X046902228Y-11167588D01*
G01*
X046962843Y-11117843D01*
G01*
X047012588Y-11057228D01*
G01*
X047049552Y-10988073D01*
G01*
X047072314Y-10913036D01*
G01*
X047080000Y-10835000D01*
G01*
X047072314Y-10756964D01*
G01*
X047049552Y-10681927D01*
G01*
X047012588Y-10612772D01*
G01*
X046962843Y-10552157D01*
G01*
X046902228Y-10502412D01*
G01*
X046833073Y-10465448D01*
G01*
X046758036Y-10442686D01*
G01*
X046680000Y-10435000D01*
G01*
X046601964Y-10442686D01*
G01*
X046526927Y-10465448D01*
G01*
X046457772Y-10502412D01*
G01*
X046397157Y-10552157D01*
G01*
X046347412Y-10612772D01*
G01*
X046310448Y-10681927D01*
G01*
X046287686Y-10756964D01*
G01*
X046285802Y-10776090D01*
G01*
X046275184Y-10789028D01*
G01*
X046263977Y-10809995D01*
G01*
X045695191Y-11378781D01*
G01*
X045654773Y-11428030D01*
G01*
X045624740Y-11484219D01*
G01*
X045606246Y-11545186D01*
G01*
X045600001Y-11608591D01*
G01*
X045600001Y-13998293D01*
G01*
X045592413Y-14007539D01*
G01*
X045555449Y-14076694D01*
G01*
X045532687Y-14151731D01*
G01*
X045525001Y-14229768D01*
G01*
X045526941Y-14249460D01*
G01*
X030459598Y-14249460D01*
G01*
X030396193Y-14255705D01*
G01*
X030335226Y-14274199D01*
G01*
X030279037Y-14304232D01*
G01*
X030229788Y-14344650D01*
G01*
X025427441Y-19146998D01*
G01*
X025194644Y-19146998D01*
G01*
X025261470Y-19065570D01*
G01*
X025353880Y-18892683D01*
G01*
X025410785Y-18705090D01*
G01*
X025430000Y-18510000D01*
G01*
X025410785Y-18314910D01*
G01*
X025353880Y-18127317D01*
G01*
X025325465Y-18074155D01*
G01*
X033308810Y-10090810D01*
G01*
X033349228Y-10041560D01*
G01*
X033379261Y-09985372D01*
G01*
X033397755Y-09924404D01*
G01*
X033404000Y-09861000D01*
G01*
X033404000Y017786309D01*
G01*
X033397755Y017849713D01*
G01*
X033379261Y017910681D01*
G01*
X033349228Y017966869D01*
G01*
X033308810Y018016118D01*
G01*
X024215000Y027109928D01*
G01*
X024215000Y030975172D01*
G01*
X024289987Y030935090D01*
G01*
X024430682Y030892411D01*
G01*
X024577000Y030878000D01*
G01*
X025576000Y030878000D01*
G01*
X026575000Y030878000D01*
G01*
X027574000Y030878000D01*
G01*
X028573000Y030878000D01*
G01*
X029572000Y030878000D01*
G01*
X030571000Y030878000D01*
G01*
X031570000Y030878000D01*
G01*
X032569000Y030878000D01*
G01*
X033568000Y030878000D01*
G01*
X033714318Y030892411D01*
G01*
X033855013Y030935090D01*
G01*
X033984678Y031004398D01*
G01*
X034098330Y031097670D01*
G01*
X034731473Y031730813D01*
G01*
X035364616Y032363956D01*
G01*
X035997759Y032997098D01*
G01*
X036630902Y033630241D01*
G01*
X037264044Y034263384D01*
G01*
X037410660Y034410000D01*
G01*
X039650000Y034410000D01*
G01*
X039650000Y037710000D01*
G01*
X036350000Y037710000D01*
G01*
X036350000Y035470660D01*
G01*
X036203384Y035324044D01*
G01*
X035570241Y034690902D01*
G01*
X034937098Y034057759D01*
G01*
X034303956Y033424616D01*
G01*
X033670813Y032791473D01*
G01*
X033257340Y032378000D01*
G01*
X032569000Y032378000D01*
G01*
X031570000Y032378000D01*
G01*
X030571000Y032378000D01*
G01*
X029572000Y032378000D01*
G01*
X028573000Y032378000D01*
G01*
X027574000Y032378000D01*
G01*
X026575000Y032378000D01*
G01*
X025576000Y032378000D01*
G01*
X024577000Y032378000D01*
G01*
X024430682Y032363589D01*
G01*
X024289987Y032320910D01*
G01*
X024215000Y032280828D01*
G01*
X024215000Y039580000D01*
G01*
X025040000Y039580000D01*
G01*
X025040000Y041880000D01*
G01*
X022855227Y041880000D01*
G01*
X022855227Y042089773D01*
G01*
X022848982Y042153178D01*
G01*
X022830488Y042214145D01*
G01*
X022800454Y042270334D01*
G01*
X022760036Y042319583D01*
G01*
X022500000Y042579619D01*
G01*
X022500000Y044420000D01*
G01*
X020200000Y044420000D01*
G01*
X020200000Y042334240D01*
G01*
X020175378Y042364242D01*
G01*
X019960000Y042579620D01*
G01*
X019960000Y044420000D01*
G01*
X017660000Y044420000D01*
G01*
X017660000Y042120000D01*
G01*
X019500380Y042120000D01*
G01*
X019620568Y041999812D01*
G01*
X019620568Y041880000D01*
G01*
X017660000Y041880000D01*
G01*
X017660000Y040039620D01*
G01*
X017420000Y039799620D01*
G01*
X017420000Y041880000D01*
G01*
X015120000Y041880000D01*
G01*
X015120000Y040039620D01*
G01*
X014880000Y039799620D01*
G01*
X014880000Y041880000D01*
G01*
X012580000Y041880000D01*
G01*
X012580000Y040039620D01*
G01*
X012340000Y039799620D01*
G01*
X012340000Y041880000D01*
G01*
X010384645Y041880000D01*
G01*
X010384645Y041991991D01*
G01*
X010384645Y042005025D01*
G01*
X010499620Y042120000D01*
G01*
X012340000Y042120000D01*
G01*
X012340000Y044420000D01*
G01*
X010040000Y044420000D01*
G01*
X010040000Y042579620D01*
G01*
X009829835Y042369455D01*
G01*
X009789417Y042320205D01*
G01*
X009759384Y042264017D01*
G01*
X009740890Y042203049D01*
G01*
X009734645Y042139645D01*
G01*
X009734645Y041991991D01*
G01*
X009734645Y041880000D01*
G01*
X007500000Y041880000D01*
G01*
X007500000Y039799620D01*
G01*
X007260000Y040039620D01*
G01*
X007260000Y041880000D01*
G01*
X005179620Y041880000D01*
G01*
X005419620Y042120000D01*
G01*
X007260000Y042120000D01*
G01*
X007260000Y044420000D01*
G01*
X004960000Y044420000D01*
G01*
X004960000Y042579620D01*
G01*
X-01284810Y036334810D01*
G01*
X-01325228Y036285560D01*
G01*
X-01355261Y036229372D01*
G01*
X-01373755Y036168404D01*
G01*
X-01380000Y036105000D01*
G01*
X-01380000Y-05652526D01*
G01*
X-01387588Y-05661772D01*
G01*
X-01424552Y-05730927D01*
G01*
X-01447314Y-05805964D01*
G01*
X-01455000Y-05884000D01*
G01*
X-01447314Y-05962036D01*
G01*
X-01424552Y-06037073D01*
G01*
X-01387588Y-06106228D01*
G01*
X-01337843Y-06166843D01*
G01*
X-01277228Y-06216588D01*
G01*
X-01208073Y-06253552D01*
G01*
X-01133036Y-06276314D01*
G01*
X-01055000Y-06284000D01*
G01*
X-00976964Y-06276314D01*
G01*
X-00901927Y-06253552D01*
G01*
X-00832772Y-06216588D01*
G01*
X-00772157Y-06166843D01*
G01*
X-00722412Y-06106228D01*
G01*
X-00685448Y-06037073D01*
G01*
X-00662686Y-05962036D01*
G01*
X-00655000Y-05884000D01*
G01*
X-00662686Y-05805964D01*
G01*
X-00685448Y-05730927D01*
G01*
X-00722412Y-05661772D01*
G01*
X-00730000Y-05652526D01*
G01*
X-00730000Y035970380D01*
G01*
X004960000Y041660380D01*
G01*
X004960000Y039580000D01*
G01*
X006800380Y039580000D01*
G01*
X007081000Y039299380D01*
G01*
X007081000Y034854474D01*
G01*
X007073412Y034845228D01*
G01*
X007036448Y034776073D01*
G01*
X007013686Y034701036D01*
G01*
X007006000Y034623000D01*
G01*
X007013686Y034544964D01*
G01*
X007036448Y034469927D01*
G01*
X007073412Y034400772D01*
G01*
X007123157Y034340157D01*
G01*
X007183772Y034290412D01*
G01*
X007252927Y034253448D01*
G01*
X007327964Y034230686D01*
G01*
X007406000Y034223000D01*
G01*
X007484036Y034230686D01*
G01*
X007559073Y034253448D01*
G01*
X007628228Y034290412D01*
G01*
X007688843Y034340157D01*
G01*
X007738588Y034400772D01*
G01*
X007775552Y034469927D01*
G01*
X007798314Y034544964D01*
G01*
X007806000Y034623000D01*
G01*
X007798314Y034701036D01*
G01*
X007775552Y034776073D01*
G01*
X007738588Y034845228D01*
G01*
X007731000Y034854474D01*
G01*
X007731000Y039434000D01*
G01*
X007724755Y039497404D01*
G01*
X007706261Y039558372D01*
G01*
X007694701Y039580000D01*
G01*
X009734645Y039580000D01*
G01*
X009734645Y037861265D01*
G01*
X009648866Y037775486D01*
G01*
X009636964Y037774314D01*
G01*
X009561927Y037751552D01*
G01*
X009492772Y037714588D01*
G01*
X009432157Y037664843D01*
G01*
X009382412Y037604228D01*
G01*
X009345448Y037535073D01*
G01*
X009322686Y037460036D01*
G01*
X009315000Y037382000D01*
G01*
X009322686Y037303964D01*
G01*
X009345448Y037228927D01*
G01*
X009382412Y037159772D01*
G01*
X009432157Y037099157D01*
G01*
X009492772Y037049412D01*
G01*
X009561927Y037012448D01*
G01*
X009636964Y036989686D01*
G01*
X009715000Y036982000D01*
G01*
X009793036Y036989686D01*
G01*
X009868073Y037012448D01*
G01*
X009937228Y037049412D01*
G01*
X009997843Y037099157D01*
G01*
X010047588Y037159772D01*
G01*
X010084552Y037228927D01*
G01*
X010107314Y037303964D01*
G01*
X010108486Y037315866D01*
G01*
X010289455Y037496835D01*
G01*
X010329873Y037546085D01*
G01*
X010359906Y037602273D01*
G01*
X010378400Y037663241D01*
G01*
X010384645Y037726645D01*
G01*
X010384645Y039580000D01*
G01*
X012120380Y039580000D01*
G01*
X011098190Y038557810D01*
G01*
X011057772Y038508560D01*
G01*
X011027739Y038452372D01*
G01*
X011009245Y038391404D01*
G01*
X011003000Y038328000D01*
G01*
X011003000Y018838474D01*
G01*
X010995412Y018829228D01*
G01*
X010958448Y018760073D01*
G01*
X010935686Y018685036D01*
G01*
X010928000Y018607000D01*
G01*
X010935686Y018528964D01*
G01*
X010958448Y018453927D01*
G01*
X010995412Y018384772D01*
G01*
X011045157Y018324157D01*
G01*
X011105772Y018274412D01*
G01*
X011174927Y018237448D01*
G01*
X011249964Y018214686D01*
G01*
X011328000Y018207000D01*
G01*
X011406036Y018214686D01*
G01*
X011481073Y018237448D01*
G01*
X011550228Y018274412D01*
G01*
X011610843Y018324157D01*
G01*
X011660588Y018384772D01*
G01*
X011697552Y018453927D01*
G01*
X011720314Y018528964D01*
G01*
X011728000Y018607000D01*
G01*
X011720314Y018685036D01*
G01*
X011697552Y018760073D01*
G01*
X011660588Y018829228D01*
G01*
X011653000Y018838474D01*
G01*
X011653000Y038193380D01*
G01*
X013039620Y039580000D01*
G01*
X014660380Y039580000D01*
G01*
X012123190Y037042810D01*
G01*
X012082772Y036993560D01*
G01*
X012052739Y036937372D01*
G01*
X012034245Y036876404D01*
G01*
X012028000Y036813000D01*
G01*
X012028000Y028837474D01*
G01*
X012020412Y028828228D01*
G01*
X011983448Y028759073D01*
G01*
X011960686Y028684036D01*
G01*
X011953000Y028606000D01*
G01*
X011960686Y028527964D01*
G01*
X011983448Y028452927D01*
G01*
X012020412Y028383772D01*
G01*
X012070157Y028323157D01*
G01*
X012130772Y028273412D01*
G01*
X012199927Y028236448D01*
G01*
X012274964Y028213686D01*
G01*
X012353000Y028206000D01*
G01*
X012431036Y028213686D01*
G01*
X012506073Y028236448D01*
G01*
X012575228Y028273412D01*
G01*
X012635843Y028323157D01*
G01*
X012685588Y028383772D01*
G01*
X012722552Y028452927D01*
G01*
X012745314Y028527964D01*
G01*
X012753000Y028606000D01*
G01*
X012745314Y028684036D01*
G01*
X012722552Y028759073D01*
G01*
X012685588Y028828228D01*
G01*
X012678000Y028837474D01*
G01*
X012678000Y036678380D01*
G01*
X015579620Y039580000D01*
G01*
X017200380Y039580000D01*
G01*
X013199190Y035578810D01*
G01*
X013158772Y035529560D01*
G01*
X013128739Y035473372D01*
G01*
X013110245Y035412404D01*
G01*
X013104000Y035349000D01*
G01*
X013104000Y028049474D01*
G01*
X013096412Y028040228D01*
G01*
X013059448Y027971073D01*
G01*
X013036686Y027896036D01*
G01*
X013029000Y027818000D01*
G01*
X013036686Y027739964D01*
G01*
X013059448Y027664927D01*
G01*
X013096412Y027595772D01*
G01*
X013146157Y027535157D01*
G01*
X013206772Y027485412D01*
G01*
X013275927Y027448448D01*
G01*
X013350964Y027425686D01*
G01*
X013429000Y027418000D01*
G01*
X013507036Y027425686D01*
G01*
X013582073Y027448448D01*
G01*
X013651228Y027485412D01*
G01*
X013711843Y027535157D01*
G01*
X013761588Y027595772D01*
G01*
X013798552Y027664927D01*
G01*
X013821314Y027739964D01*
G01*
X013829000Y027818000D01*
G01*
X013821314Y027896036D01*
G01*
X013798552Y027971073D01*
G01*
X013761588Y028040228D01*
G01*
X013754000Y028049474D01*
G01*
X013754000Y035214380D01*
G01*
X018119620Y039580000D01*
G01*
X019620568Y039580000D01*
G01*
X019620568Y032765373D01*
G01*
X019620568Y031861685D01*
G01*
X019544864Y031785980D01*
G01*
X019470927Y031763552D01*
G01*
X019401772Y031726588D01*
G01*
X019341157Y031676843D01*
G01*
X019291412Y031616228D01*
G01*
X019254448Y031547073D01*
G01*
X019231686Y031472036D01*
G01*
X019224000Y031394000D01*
G01*
X019231686Y031315964D01*
G01*
X019254448Y031240927D01*
G01*
X019291412Y031171772D01*
G01*
X019341157Y031111157D01*
G01*
X019401772Y031061412D01*
G01*
X019470927Y031024448D01*
G01*
X019545964Y031001686D01*
G01*
X019624000Y030994000D01*
G01*
X019702036Y031001686D01*
G01*
X019777073Y031024448D01*
G01*
X019846228Y031061412D01*
G01*
X019906843Y031111157D01*
G01*
X019956588Y031171772D01*
G01*
X019993552Y031240927D01*
G01*
X020016314Y031315964D01*
G01*
X020018742Y031340620D01*
G01*
X020175378Y031497256D01*
G01*
X020215796Y031546505D01*
G01*
X020245829Y031602693D01*
G01*
X020264323Y031663661D01*
G01*
X020270568Y031727065D01*
G01*
X020270568Y032765373D01*
G01*
X020270568Y039580000D01*
G01*
X021025000Y039580000D01*
G01*
X021025000Y032301499D01*
G01*
X020504525Y031781024D01*
G01*
X020446927Y031763552D01*
G01*
X020377772Y031726588D01*
G01*
X020317157Y031676843D01*
G01*
X020267412Y031616228D01*
G01*
X020230448Y031547073D01*
G01*
X020207686Y031472036D01*
G01*
X020200000Y031394000D01*
G01*
X020207686Y031315964D01*
G01*
X020230448Y031240927D01*
G01*
X020267412Y031171772D01*
G01*
X020317157Y031111157D01*
G01*
X020377772Y031061412D01*
G01*
X020446927Y031024448D01*
G01*
X020521964Y031001686D01*
G01*
X020600000Y030994000D01*
G01*
X020678036Y031001686D01*
G01*
X020753073Y031024448D01*
G01*
X020822228Y031061412D01*
G01*
X020882843Y031111157D01*
G01*
X020932588Y031171772D01*
G01*
X020969552Y031240927D01*
G01*
X020992314Y031315964D01*
G01*
X020995986Y031353246D01*
G01*
X021579810Y031937070D01*
G01*
X021620228Y031986319D01*
G01*
X021650261Y032042507D01*
G01*
X021668755Y032103475D01*
G01*
X021675000Y032166879D01*
G01*
X021675000Y039580000D01*
G01*
X022205227Y039580000D01*
G01*
X022205227Y025643785D01*
G01*
X018244026Y021682584D01*
G01*
X018203609Y021633335D01*
G01*
X018173575Y021577147D01*
G01*
X018155081Y021516179D01*
G01*
X018148836Y021452775D01*
G01*
X018148836Y-04748744D01*
G01*
X018155081Y-04812148D01*
G01*
X018173575Y-04873116D01*
G01*
X018203609Y-04929304D01*
G01*
X018244026Y-04978554D01*
G01*
X021688755Y-08423283D01*
G01*
X021691686Y-08453036D01*
G01*
X021714448Y-08528073D01*
G01*
X021751412Y-08597228D01*
G01*
X021801157Y-08657843D01*
G01*
X021861772Y-08707588D01*
G01*
X021930927Y-08744552D01*
G01*
X022005964Y-08767314D01*
G01*
X022084000Y-08775000D01*
G01*
X022162036Y-08767314D01*
G01*
X022237073Y-08744552D01*
G01*
X022306228Y-08707588D01*
G01*
X022366843Y-08657843D01*
G01*
X022416588Y-08597228D01*
G01*
X022453552Y-08528073D01*
G01*
X022476314Y-08453036D01*
G01*
X022484000Y-08375000D01*
G01*
X022476314Y-08296964D01*
G01*
X022453552Y-08221927D01*
G01*
X022416588Y-08152772D01*
G01*
X022366843Y-08092157D01*
G01*
X022306228Y-08042412D01*
G01*
X022237073Y-08005448D01*
G01*
X022169731Y-07985020D01*
G01*
X018798836Y-04614124D01*
G01*
X018798836Y011720252D01*
G01*
X018836964Y011708686D01*
G01*
X018915000Y011701000D01*
G01*
X018993036Y011708686D01*
G01*
X019068073Y011731448D01*
G01*
X019137228Y011768412D01*
G01*
X019146474Y011776000D01*
G01*
X022021000Y011776000D01*
G01*
X022084404Y011782245D01*
G01*
X022145372Y011800739D01*
G01*
X022201560Y011830772D01*
G01*
X022250810Y011871190D01*
G01*
X023994155Y013614535D01*
G01*
X024047317Y013586120D01*
G01*
X024234910Y013529215D01*
G01*
X024430000Y013510000D01*
G01*
X024625090Y013529215D01*
G01*
X024812683Y013586120D01*
G01*
X024985570Y013678530D01*
G01*
X025137107Y013802893D01*
G01*
X025261470Y013954430D01*
G01*
X025353880Y014127317D01*
G01*
X025410785Y014314910D01*
G01*
X025430000Y014510000D01*
G01*
X025410785Y014705090D01*
G01*
X025353880Y014892683D01*
G01*
X025261470Y015065570D01*
G01*
X025137107Y015217107D01*
G01*
X024985570Y015341470D01*
G01*
X024812683Y015433880D01*
G01*
X024625090Y015490785D01*
G01*
X024430000Y015510000D01*
G01*
X024234910Y015490785D01*
G01*
X024047317Y015433880D01*
G01*
X023874430Y015341470D01*
G01*
X023722893Y015217107D01*
G01*
X023598530Y015065570D01*
G01*
X023506120Y014892683D01*
G01*
X023449215Y014705090D01*
G01*
X023430000Y014510000D01*
G01*
X023449215Y014314910D01*
G01*
X023506120Y014127317D01*
G01*
X023534535Y014074155D01*
G01*
X021886380Y012426000D01*
G01*
X019146474Y012426000D01*
G01*
X019137228Y012433588D01*
G01*
X019068073Y012470552D01*
G01*
X018993036Y012493314D01*
G01*
X018915000Y012501000D01*
G01*
X018836964Y012493314D01*
G01*
X018798836Y012481748D01*
G01*
X018798836Y021318155D01*
G01*
X020773223Y023292542D01*
G01*
X020793412Y023254772D01*
G01*
X020801000Y023245526D01*
G01*
X020801000Y020354000D01*
G01*
X020807245Y020290596D01*
G01*
X020825739Y020229628D01*
G01*
X020855772Y020173440D01*
G01*
X020896190Y020124190D01*
G01*
X023534535Y017485845D01*
G01*
X023506120Y017432683D01*
G01*
X023449215Y017245090D01*
G01*
X023430000Y017050000D01*
G01*
X023449215Y016854910D01*
G01*
X023506120Y016667317D01*
G01*
X023598530Y016494430D01*
G01*
X023722893Y016342893D01*
G01*
X023874430Y016218530D01*
G01*
X024047317Y016126120D01*
G01*
X024234910Y016069215D01*
G01*
X024430000Y016050000D01*
G01*
X024625090Y016069215D01*
G01*
X024812683Y016126120D01*
G01*
X024985570Y016218530D01*
G01*
X025137107Y016342893D01*
G01*
X025261470Y016494430D01*
G01*
X025353880Y016667317D01*
G01*
X025410785Y016854910D01*
G01*
X025430000Y017050000D01*
G01*
X025410785Y017245090D01*
G01*
X025353880Y017432683D01*
G01*
X025261470Y017605570D01*
G01*
X025137107Y017757107D01*
G01*
X024985570Y017881470D01*
G01*
X024812683Y017973880D01*
G01*
X024625090Y018030785D01*
G01*
X024430000Y018050000D01*
G01*
X024234910Y018030785D01*
G01*
X024047317Y017973880D01*
G01*
X023994155Y017945465D01*
G01*
X021451000Y020488620D01*
G01*
X021451000Y023245526D01*
G01*
X021458588Y023254772D01*
G01*
X021495552Y023323927D01*
G01*
X021518314Y023398964D01*
G01*
X021526000Y023477000D01*
G01*
X021518314Y023555036D01*
G01*
X021495552Y023630073D01*
G01*
X021458588Y023699228D01*
G01*
X021408843Y023759843D01*
G01*
X021348228Y023809588D01*
G01*
X021310458Y023829777D01*
G01*
X022760036Y025279355D01*
G01*
X022800454Y025328605D01*
G01*
X022830488Y025384793D01*
G01*
X022848982Y025445761D01*
G01*
X022855227Y025509165D01*
G01*
X022855227Y039580000D01*
G01*
X023565000Y039580000D01*
G01*
X023565000Y026975309D01*
G01*
X023571245Y026911904D01*
G01*
X023589739Y026850936D01*
G01*
X023619772Y026794748D01*
G01*
X023660190Y026745499D01*
G01*
X032754000Y017651689D01*
G01*
X032754000Y-09726380D01*
G01*
X024865845Y-17614535D01*
G01*
X024812683Y-17586120D01*
G01*
X024625090Y-17529215D01*
G01*
X024430000Y-17510000D01*
G01*
X024234910Y-17529215D01*
G01*
X024047317Y-17586120D01*
G01*
X023874430Y-17678530D01*
G01*
X023722893Y-17802893D01*
G01*
X023598530Y-17954430D01*
G01*
X023506120Y-18127317D01*
G01*
X023449215Y-18314910D01*
G01*
X023430000Y-18510000D01*
G01*
X023449215Y-18705090D01*
G01*
X023506120Y-18892683D01*
G01*
X023598530Y-19065570D01*
G01*
X023665356Y-19146998D01*
G01*
X008228002Y-19146998D01*
G01*
X008164598Y-19153242D01*
G01*
X008103630Y-19171737D01*
G01*
X008047442Y-19201770D01*
G01*
X007998193Y-19242188D01*
G01*
X002005845Y-25234535D01*
G01*
X001952683Y-25206120D01*
G01*
X001765090Y-25149215D01*
G01*
X001570000Y-25130000D01*
G01*
X001374910Y-25149215D01*
G01*
X001187317Y-25206120D01*
G01*
X001014430Y-25298530D01*
G01*
X000862893Y-25422893D01*
G01*
X000738530Y-25574430D01*
G01*
X000646120Y-25747317D01*
G01*
X000589215Y-25934910D01*
G01*
X000570000Y-26130000D01*
G01*
X000589215Y-26325090D01*
G01*
X000646120Y-26512683D01*
G01*
X000738530Y-26685570D01*
G01*
X000862893Y-26837107D01*
G01*
X001014430Y-26961470D01*
G01*
X001187317Y-27053880D01*
G01*
X001374910Y-27110785D01*
G01*
X001570000Y-27130000D01*
G37*
D38*
G36*
X015120000Y042120000D02*
G01*
X017420000Y042120000D01*
G01*
X017420000Y044420000D01*
G01*
X015120000Y044420000D01*
G01*
X015120000Y042120000D01*
G37*
D38*
G36*
X036350000Y038370000D02*
G01*
X039650000Y038370000D01*
G01*
X039650000Y041670000D01*
G01*
X036350000Y041670000D01*
G01*
X036350000Y038370000D01*
G37*
D38*
G36*
X-45310000Y039200000D02*
G01*
X-43010000Y039200000D01*
G01*
X-43010000Y041500000D01*
G01*
X-45310000Y041500000D01*
G01*
X-45310000Y039200000D01*
G37*
D38*
G36*
X-42770000Y039200000D02*
G01*
X-40470000Y039200000D01*
G01*
X-40470000Y041500000D01*
G01*
X-42770000Y041500000D01*
G01*
X-42770000Y039200000D01*
G37*
D38*
G36*
X063110000Y034650000D02*
G01*
X065810000Y034650000D01*
G01*
X065810000Y037350000D01*
G01*
X063110000Y037350000D01*
G01*
X063110000Y034650000D01*
G37*
D38*
G36*
X064967000Y033356000D02*
G01*
X065045036Y033363686D01*
G01*
X065120073Y033386448D01*
G01*
X065189228Y033423412D01*
G01*
X065198474Y033431000D01*
G01*
X067296000Y033431000D01*
G01*
X067359404Y033437245D01*
G01*
X067420372Y033455739D01*
G01*
X067476560Y033485772D01*
G01*
X067525810Y033526190D01*
G01*
X068649620Y034650000D01*
G01*
X070890000Y034650000D01*
G01*
X070890000Y037350000D01*
G01*
X068190000Y037350000D01*
G01*
X068190000Y035109620D01*
G01*
X067161380Y034081000D01*
G01*
X065198474Y034081000D01*
G01*
X065189228Y034088588D01*
G01*
X065120073Y034125552D01*
G01*
X065045036Y034148314D01*
G01*
X064967000Y034156000D01*
G01*
X064888964Y034148314D01*
G01*
X064813927Y034125552D01*
G01*
X064744772Y034088588D01*
G01*
X064684157Y034038843D01*
G01*
X064634412Y033978228D01*
G01*
X064597448Y033909073D01*
G01*
X064574686Y033834036D01*
G01*
X064567000Y033756000D01*
G01*
X064574686Y033677964D01*
G01*
X064597448Y033602927D01*
G01*
X064634412Y033533772D01*
G01*
X064684157Y033473157D01*
G01*
X064744772Y033423412D01*
G01*
X064813927Y033386448D01*
G01*
X064888964Y033363686D01*
G01*
X064967000Y033356000D01*
G37*
D38*
G36*
X-45310000Y034120000D02*
G01*
X-43010000Y034120000D01*
G01*
X-43010000Y036420000D01*
G01*
X-45310000Y036420000D01*
G01*
X-45310000Y034120000D01*
G37*
D38*
G36*
X-42770000Y034120000D02*
G01*
X-40470000Y034120000D01*
G01*
X-40470000Y036420000D01*
G01*
X-42770000Y036420000D01*
G01*
X-42770000Y034120000D01*
G37*
D38*
G36*
X-31260000Y-34370000D02*
G01*
X-29060000Y-34370000D01*
G01*
X-29060000Y-32629620D01*
G01*
X-24752167Y-28321786D01*
G01*
X-24711749Y-28272537D01*
G01*
X-24681716Y-28216348D01*
G01*
X-24663221Y-28155381D01*
G01*
X-24656976Y-28091976D01*
G01*
X-24656976Y-24217615D01*
G01*
X-24582000Y-24225000D01*
G01*
X-24503964Y-24217314D01*
G01*
X-24428927Y-24194552D01*
G01*
X-24359772Y-24157588D01*
G01*
X-24350526Y-24150000D01*
G01*
X-19927274Y-24150000D01*
G01*
X-19863870Y-24143755D01*
G01*
X-19802902Y-24125261D01*
G01*
X-19746714Y-24095228D01*
G01*
X-19743537Y-24092621D01*
G01*
X-19709964Y-24089314D01*
G01*
X-19634927Y-24066552D01*
G01*
X-19565772Y-24029588D01*
G01*
X-19505157Y-23979843D01*
G01*
X-19455412Y-23919228D01*
G01*
X-19418448Y-23850073D01*
G01*
X-19395686Y-23775036D01*
G01*
X-19388000Y-23697000D01*
G01*
X-19395686Y-23618964D01*
G01*
X-19418448Y-23543927D01*
G01*
X-19455412Y-23474772D01*
G01*
X-19505157Y-23414157D01*
G01*
X-19565772Y-23364412D01*
G01*
X-19634927Y-23327448D01*
G01*
X-19709964Y-23304686D01*
G01*
X-19788000Y-23297000D01*
G01*
X-19866036Y-23304686D01*
G01*
X-19941073Y-23327448D01*
G01*
X-20010228Y-23364412D01*
G01*
X-20070843Y-23414157D01*
G01*
X-20120588Y-23474772D01*
G01*
X-20134073Y-23500000D01*
G01*
X-24350526Y-23500000D01*
G01*
X-24359772Y-23492412D01*
G01*
X-24428927Y-23455448D01*
G01*
X-24503964Y-23432686D01*
G01*
X-24582000Y-23425000D01*
G01*
X-24656976Y-23432385D01*
G01*
X-24656976Y-22726600D01*
G01*
X-09954844Y-08024469D01*
G01*
X-09930803Y-07995174D01*
G01*
X-09899772Y-07978588D01*
G01*
X-09839157Y-07928843D01*
G01*
X-09789412Y-07868228D01*
G01*
X-09752448Y-07799073D01*
G01*
X-09729686Y-07724036D01*
G01*
X-09722000Y-07646000D01*
G01*
X-09729686Y-07567964D01*
G01*
X-09752448Y-07492927D01*
G01*
X-09789412Y-07423772D01*
G01*
X-09804818Y-07405000D01*
G01*
X-03224214Y-07405000D01*
G01*
X-03243314Y-07467964D01*
G01*
X-03251000Y-07546000D01*
G01*
X-03245059Y-07606318D01*
G01*
X-03246014Y-07616014D01*
G01*
X-03246014Y-07621220D01*
G01*
X-03239769Y-07684624D01*
G01*
X-03221275Y-07745592D01*
G01*
X-03191241Y-07801780D01*
G01*
X-03150823Y-07851030D01*
G01*
X-00238170Y-10763683D01*
G01*
X-00238170Y-10874642D01*
G01*
X-00238170Y-14798991D01*
G01*
X-00299000Y-14793000D01*
G01*
X-00377036Y-14800686D01*
G01*
X-00452073Y-14823448D01*
G01*
X-00521228Y-14860412D01*
G01*
X-00581843Y-14910157D01*
G01*
X-00631588Y-14970772D01*
G01*
X-00668552Y-15039927D01*
G01*
X-00691314Y-15114964D01*
G01*
X-00696333Y-15165923D01*
G01*
X-10069810Y-24539399D01*
G01*
X-10078510Y-24550000D01*
G01*
X-10940000Y-24550000D01*
G01*
X-10940000Y-26750000D01*
G01*
X-08740000Y-26750000D01*
G01*
X-08740000Y-24550000D01*
G01*
X-09161171Y-24550000D01*
G01*
X-00238170Y-15626999D01*
G01*
X-00238170Y-17026830D01*
G01*
X-00231925Y-17090235D01*
G01*
X-00213431Y-17151202D01*
G01*
X-00183397Y-17207391D01*
G01*
X-00142980Y-17256640D01*
G01*
X000674535Y-18074155D01*
G01*
X000646120Y-18127317D01*
G01*
X000589215Y-18314910D01*
G01*
X000570000Y-18510000D01*
G01*
X000589215Y-18705090D01*
G01*
X000646120Y-18892683D01*
G01*
X000738530Y-19065570D01*
G01*
X000862893Y-19217107D01*
G01*
X001014430Y-19341470D01*
G01*
X001187317Y-19433880D01*
G01*
X001374910Y-19490785D01*
G01*
X001570000Y-19510000D01*
G01*
X001765090Y-19490785D01*
G01*
X001952683Y-19433880D01*
G01*
X002125570Y-19341470D01*
G01*
X002277107Y-19217107D01*
G01*
X002401470Y-19065570D01*
G01*
X002493880Y-18892683D01*
G01*
X002550785Y-18705090D01*
G01*
X002570000Y-18510000D01*
G01*
X002550785Y-18314910D01*
G01*
X002493880Y-18127317D01*
G01*
X002401470Y-17954430D01*
G01*
X002277107Y-17802893D01*
G01*
X002125570Y-17678530D01*
G01*
X001952683Y-17586120D01*
G01*
X001765090Y-17529215D01*
G01*
X001570000Y-17510000D01*
G01*
X001374910Y-17529215D01*
G01*
X001187317Y-17586120D01*
G01*
X001134155Y-17614535D01*
G01*
X000411830Y-16892210D01*
G01*
X000411830Y-10874642D01*
G01*
X000411830Y-10629064D01*
G01*
X000405585Y-10565659D01*
G01*
X000387091Y-10504692D01*
G01*
X000357058Y-10448503D01*
G01*
X000316640Y-10399254D01*
G01*
X-02458676Y-07623938D01*
G01*
X-02451000Y-07546000D01*
G01*
X-02458686Y-07467964D01*
G01*
X-02477786Y-07405000D01*
G01*
X001256941Y-07405000D01*
G01*
X001187317Y-07426120D01*
G01*
X001014430Y-07518530D01*
G01*
X000862893Y-07642893D01*
G01*
X000738530Y-07794430D01*
G01*
X000646120Y-07967317D01*
G01*
X000589215Y-08154910D01*
G01*
X000570000Y-08350000D01*
G01*
X000589215Y-08545090D01*
G01*
X000646120Y-08732683D01*
G01*
X000738530Y-08905570D01*
G01*
X000862893Y-09057107D01*
G01*
X001014430Y-09181470D01*
G01*
X001187317Y-09273880D01*
G01*
X001374910Y-09330785D01*
G01*
X001570000Y-09350000D01*
G01*
X001765090Y-09330785D01*
G01*
X001952683Y-09273880D01*
G01*
X002125570Y-09181470D01*
G01*
X002277107Y-09057107D01*
G01*
X002401470Y-08905570D01*
G01*
X002493880Y-08732683D01*
G01*
X002550785Y-08545090D01*
G01*
X002570000Y-08350000D01*
G01*
X002550785Y-08154910D01*
G01*
X002493880Y-07967317D01*
G01*
X002401470Y-07794430D01*
G01*
X002277107Y-07642893D01*
G01*
X002125570Y-07518530D01*
G01*
X001952683Y-07426120D01*
G01*
X001883059Y-07405000D01*
G01*
X002086451Y-07405000D01*
G01*
X004043261Y-09361810D01*
G01*
X004092510Y-09402228D01*
G01*
X004148699Y-09432261D01*
G01*
X004209666Y-09450755D01*
G01*
X004273071Y-09457000D01*
G01*
X006386526Y-09457000D01*
G01*
X006395772Y-09464588D01*
G01*
X006464927Y-09501552D01*
G01*
X006539964Y-09524314D01*
G01*
X006618000Y-09532000D01*
G01*
X006633727Y-09530451D01*
G01*
X006633727Y-15526654D01*
G01*
X002005845Y-20154535D01*
G01*
X001952683Y-20126120D01*
G01*
X001765090Y-20069215D01*
G01*
X001570000Y-20050000D01*
G01*
X001374910Y-20069215D01*
G01*
X001187317Y-20126120D01*
G01*
X001014430Y-20218530D01*
G01*
X000862893Y-20342893D01*
G01*
X000738530Y-20494430D01*
G01*
X000646120Y-20667317D01*
G01*
X000589215Y-20854910D01*
G01*
X000570000Y-21050000D01*
G01*
X000589215Y-21245090D01*
G01*
X000646120Y-21432683D01*
G01*
X000738530Y-21605570D01*
G01*
X000862893Y-21757107D01*
G01*
X001014430Y-21881470D01*
G01*
X001187317Y-21973880D01*
G01*
X001374910Y-22030785D01*
G01*
X001570000Y-22050000D01*
G01*
X001765090Y-22030785D01*
G01*
X001952683Y-21973880D01*
G01*
X002125570Y-21881470D01*
G01*
X002277107Y-21757107D01*
G01*
X002401470Y-21605570D01*
G01*
X002493880Y-21432683D01*
G01*
X002550785Y-21245090D01*
G01*
X002570000Y-21050000D01*
G01*
X002550785Y-20854910D01*
G01*
X002493880Y-20667317D01*
G01*
X002465465Y-20614155D01*
G01*
X007188537Y-15891082D01*
G01*
X007228955Y-15841833D01*
G01*
X007258988Y-15785645D01*
G01*
X007277483Y-15724677D01*
G01*
X007283727Y-15661273D01*
G01*
X007283727Y-09032182D01*
G01*
X007283727Y-08512724D01*
G01*
X007277483Y-08449319D01*
G01*
X007258988Y-08388351D01*
G01*
X007255945Y-08382658D01*
G01*
X007276073Y-08376552D01*
G01*
X007345228Y-08339588D01*
G01*
X007405843Y-08289843D01*
G01*
X007455588Y-08229228D01*
G01*
X007456977Y-08226630D01*
G01*
X007460448Y-08238073D01*
G01*
X007497412Y-08307228D01*
G01*
X007547157Y-08367843D01*
G01*
X007607772Y-08417588D01*
G01*
X007676927Y-08454552D01*
G01*
X007751964Y-08477314D01*
G01*
X007830000Y-08485000D01*
G01*
X007850665Y-08482965D01*
G01*
X017748510Y-18380810D01*
G01*
X017797759Y-18421228D01*
G01*
X017853948Y-18451261D01*
G01*
X017914915Y-18469755D01*
G01*
X017978320Y-18476000D01*
G01*
X018410526Y-18476000D01*
G01*
X018419772Y-18483588D01*
G01*
X018488927Y-18520552D01*
G01*
X018563964Y-18543314D01*
G01*
X018642000Y-18551000D01*
G01*
X018720036Y-18543314D01*
G01*
X018795073Y-18520552D01*
G01*
X018864228Y-18483588D01*
G01*
X018924843Y-18433843D01*
G01*
X018974588Y-18373228D01*
G01*
X019011552Y-18304073D01*
G01*
X019034314Y-18229036D01*
G01*
X019042000Y-18151000D01*
G01*
X019034314Y-18072964D01*
G01*
X019011552Y-17997927D01*
G01*
X018974588Y-17928772D01*
G01*
X018924843Y-17868157D01*
G01*
X018864228Y-17818412D01*
G01*
X018795073Y-17781448D01*
G01*
X018720036Y-17758686D01*
G01*
X018642000Y-17751000D01*
G01*
X018563964Y-17758686D01*
G01*
X018488927Y-17781448D01*
G01*
X018419772Y-17818412D01*
G01*
X018410526Y-17826000D01*
G01*
X018112939Y-17826000D01*
G01*
X008177373Y-07890433D01*
G01*
X008162588Y-07862772D01*
G01*
X008112843Y-07802157D01*
G01*
X008052228Y-07752412D01*
G01*
X007983073Y-07715448D01*
G01*
X007908036Y-07692686D01*
G01*
X007897929Y-07691691D01*
G01*
X010760157Y-04829463D01*
G01*
X010800575Y-04780213D01*
G01*
X010830608Y-04724025D01*
G01*
X010849102Y-04663057D01*
G01*
X010855347Y-04599653D01*
G01*
X010855347Y031829833D01*
G01*
X010855347Y032068251D01*
G01*
X010849102Y032131655D01*
G01*
X010830608Y032192623D01*
G01*
X010800575Y032248811D01*
G01*
X010760157Y032298060D01*
G01*
X008796967Y034261250D01*
G01*
X008795314Y034278036D01*
G01*
X008772552Y034353073D01*
G01*
X008735588Y034422228D01*
G01*
X008685843Y034482843D01*
G01*
X008625228Y034532588D01*
G01*
X008556073Y034569552D01*
G01*
X008481036Y034592314D01*
G01*
X008403000Y034600000D01*
G01*
X008324964Y034592314D01*
G01*
X008249927Y034569552D01*
G01*
X008180772Y034532588D01*
G01*
X008120157Y034482843D01*
G01*
X008070412Y034422228D01*
G01*
X008033448Y034353073D01*
G01*
X008010686Y034278036D01*
G01*
X008003000Y034200000D01*
G01*
X008010686Y034121964D01*
G01*
X008033448Y034046927D01*
G01*
X008070412Y033977772D01*
G01*
X008120157Y033917157D01*
G01*
X008180772Y033867412D01*
G01*
X008249927Y033830448D01*
G01*
X008324964Y033807686D01*
G01*
X008331983Y033806995D01*
G01*
X010205347Y031933631D01*
G01*
X010205347Y031829833D01*
G01*
X010205347Y015040435D01*
G01*
X010159000Y015045000D01*
G01*
X010080964Y015037314D01*
G01*
X010005927Y015014552D01*
G01*
X009936772Y014977588D01*
G01*
X009876157Y014927843D01*
G01*
X009826412Y014867228D01*
G01*
X009789448Y014798073D01*
G01*
X009766686Y014723036D01*
G01*
X009765514Y014711134D01*
G01*
X007635380Y012581000D01*
G01*
X007620474Y012581000D01*
G01*
X007611228Y012588588D01*
G01*
X007542073Y012625552D01*
G01*
X007467036Y012648314D01*
G01*
X007389000Y012656000D01*
G01*
X007310964Y012648314D01*
G01*
X007235927Y012625552D01*
G01*
X007166772Y012588588D01*
G01*
X007106157Y012538843D01*
G01*
X007056412Y012478228D01*
G01*
X007019448Y012409073D01*
G01*
X006996686Y012334036D01*
G01*
X006989000Y012256000D01*
G01*
X006996686Y012177964D01*
G01*
X007003599Y012155174D01*
G01*
X006267998Y012890775D01*
G01*
X006267998Y033477974D01*
G01*
X006282843Y033490157D01*
G01*
X006332588Y033550772D01*
G01*
X006369552Y033619927D01*
G01*
X006392314Y033694964D01*
G01*
X006400000Y033773000D01*
G01*
X006392314Y033851036D01*
G01*
X006369552Y033926073D01*
G01*
X006332588Y033995228D01*
G01*
X006282843Y034055843D01*
G01*
X006222228Y034105588D01*
G01*
X006153073Y034142552D01*
G01*
X006078036Y034165314D01*
G01*
X006000000Y034173000D01*
G01*
X005921964Y034165314D01*
G01*
X005846927Y034142552D01*
G01*
X005777772Y034105588D01*
G01*
X005717157Y034055843D01*
G01*
X005667412Y033995228D01*
G01*
X005630448Y033926073D01*
G01*
X005607686Y033851036D01*
G01*
X005600000Y033773000D01*
G01*
X005607686Y033694964D01*
G01*
X005617998Y033660970D01*
G01*
X005617998Y033593346D01*
G01*
X005617998Y012756155D01*
G01*
X005624243Y012692751D01*
G01*
X005642738Y012631783D01*
G01*
X005672771Y012575595D01*
G01*
X005713189Y012526345D01*
G01*
X007317758Y010921776D01*
G01*
X007317758Y006338355D01*
G01*
X007275036Y006351314D01*
G01*
X007197000Y006359000D01*
G01*
X007118964Y006351314D01*
G01*
X007043927Y006328552D01*
G01*
X006974772Y006291588D01*
G01*
X006914157Y006241843D01*
G01*
X006864412Y006181228D01*
G01*
X006827448Y006112073D01*
G01*
X006804686Y006037036D01*
G01*
X006800118Y005990661D01*
G01*
X005482190Y004672733D01*
G01*
X005441772Y004623484D01*
G01*
X005417880Y004578785D01*
G01*
X005417880Y007738132D01*
G01*
X005417880Y008097120D01*
G01*
X005414252Y008133950D01*
G01*
X005418000Y008172000D01*
G01*
X005410314Y008250036D01*
G01*
X005387552Y008325073D01*
G01*
X005350588Y008394228D01*
G01*
X005300843Y008454843D01*
G01*
X005240228Y008504588D01*
G01*
X005171073Y008541552D01*
G01*
X005096036Y008564314D01*
G01*
X005018000Y008572000D01*
G01*
X004939964Y008564314D01*
G01*
X004864927Y008541552D01*
G01*
X004795772Y008504588D01*
G01*
X004735157Y008454843D01*
G01*
X004685412Y008394228D01*
G01*
X004648448Y008325073D01*
G01*
X004625686Y008250036D01*
G01*
X004618000Y008172000D01*
G01*
X004625686Y008093964D01*
G01*
X004648448Y008018927D01*
G01*
X004685412Y007949772D01*
G01*
X004735157Y007889157D01*
G01*
X004767880Y007862302D01*
G01*
X004767880Y007738132D01*
G01*
X004767880Y006828224D01*
G01*
X004760000Y006829000D01*
G01*
X004681964Y006821314D01*
G01*
X004606927Y006798552D01*
G01*
X004537772Y006761588D01*
G01*
X004477157Y006711843D01*
G01*
X004427412Y006651228D01*
G01*
X004390448Y006582073D01*
G01*
X004367686Y006507036D01*
G01*
X004360000Y006429000D01*
G01*
X004360699Y006421898D01*
G01*
X004356328Y006407487D01*
G01*
X004355421Y006398275D01*
G01*
X004292429Y006335284D01*
G01*
X004292429Y017085655D01*
G01*
X004360000Y017079000D01*
G01*
X004452668Y017088127D01*
G01*
X004541775Y017115157D01*
G01*
X004623896Y017159052D01*
G01*
X004695876Y017218124D01*
G01*
X004754948Y017290104D01*
G01*
X004798843Y017372225D01*
G01*
X004825873Y017461332D01*
G01*
X004835000Y017554000D01*
G01*
X004830424Y017600463D01*
G01*
X004832700Y017600688D01*
G01*
X004785417Y018079409D01*
G01*
X004870594Y018183198D01*
G01*
X004938747Y018310702D01*
G01*
X004980715Y018449052D01*
G01*
X004994886Y018592931D01*
G01*
X004994886Y019315700D01*
G01*
X005007386Y019442614D01*
G01*
X005007386Y022130000D01*
G01*
X004992975Y022276318D01*
G01*
X004950295Y022417013D01*
G01*
X004880988Y022546678D01*
G01*
X004787716Y022660330D01*
G01*
X004674063Y022753602D01*
G01*
X004544398Y022822910D01*
G01*
X004403703Y022865589D01*
G01*
X004257386Y022880000D01*
G01*
X002224842Y022880000D01*
G01*
X002125570Y022961470D01*
G01*
X001952683Y023053880D01*
G01*
X001765090Y023110785D01*
G01*
X001570000Y023130000D01*
G01*
X001374910Y023110785D01*
G01*
X001187317Y023053880D01*
G01*
X001014430Y022961470D01*
G01*
X000862893Y022837107D01*
G01*
X000738530Y022685570D01*
G01*
X000646120Y022512683D01*
G01*
X000589215Y022325090D01*
G01*
X000570000Y022130000D01*
G01*
X000589215Y021934910D01*
G01*
X000646120Y021747317D01*
G01*
X000738530Y021574430D01*
G01*
X000862893Y021422893D01*
G01*
X001014430Y021298530D01*
G01*
X001187317Y021206120D01*
G01*
X001374910Y021149215D01*
G01*
X001570000Y021130000D01*
G01*
X001765090Y021149215D01*
G01*
X001952683Y021206120D01*
G01*
X002125570Y021298530D01*
G01*
X002224842Y021380000D01*
G01*
X003507386Y021380000D01*
G01*
X003507386Y019442614D01*
G01*
X003519886Y019315700D01*
G01*
X003519886Y018592931D01*
G01*
X003534056Y018449052D01*
G01*
X003576024Y018310702D01*
G01*
X003619892Y018228632D01*
G01*
X003606000Y018230000D01*
G01*
X003527964Y018222314D01*
G01*
X003452927Y018199552D01*
G01*
X003383772Y018162588D01*
G01*
X003323157Y018112843D01*
G01*
X003273412Y018052228D01*
G01*
X003236448Y017983073D01*
G01*
X003213686Y017908036D01*
G01*
X003206000Y017830000D01*
G01*
X003213686Y017751964D01*
G01*
X003236448Y017676927D01*
G01*
X003273412Y017607772D01*
G01*
X003323157Y017547157D01*
G01*
X003383772Y017497412D01*
G01*
X003452927Y017460448D01*
G01*
X003527964Y017437686D01*
G01*
X003539867Y017436514D01*
G01*
X003642429Y017333952D01*
G01*
X003642429Y010042973D01*
G01*
X003632000Y010044000D01*
G01*
X003553964Y010036314D01*
G01*
X003478927Y010013552D01*
G01*
X003409772Y009976588D01*
G01*
X003349157Y009926843D01*
G01*
X003299412Y009866228D01*
G01*
X003262448Y009797073D01*
G01*
X003239686Y009722036D01*
G01*
X003232000Y009644000D01*
G01*
X003239686Y009565964D01*
G01*
X003262448Y009490927D01*
G01*
X003299412Y009421772D01*
G01*
X003300242Y009420761D01*
G01*
X003300242Y003999861D01*
G01*
X002005845Y002705464D01*
G01*
X001952683Y002733880D01*
G01*
X001765090Y002790785D01*
G01*
X001570000Y002810000D01*
G01*
X001374910Y002790785D01*
G01*
X001187317Y002733880D01*
G01*
X001014430Y002641470D01*
G01*
X000862893Y002517107D01*
G01*
X000738530Y002365570D01*
G01*
X000646120Y002192683D01*
G01*
X000589215Y002005090D01*
G01*
X000570000Y001810000D01*
G01*
X000589215Y001614910D01*
G01*
X000646120Y001427317D01*
G01*
X000738530Y001254430D01*
G01*
X000862893Y001102893D01*
G01*
X001014430Y000978530D01*
G01*
X001187317Y000886120D01*
G01*
X001374910Y000829215D01*
G01*
X001570000Y000810000D01*
G01*
X001765090Y000829215D01*
G01*
X001952683Y000886120D01*
G01*
X002125570Y000978530D01*
G01*
X002277107Y001102893D01*
G01*
X002401470Y001254430D01*
G01*
X002493880Y001427317D01*
G01*
X002550785Y001614910D01*
G01*
X002570000Y001810000D01*
G01*
X002550785Y002005090D01*
G01*
X002493880Y002192683D01*
G01*
X002465464Y002245845D01*
G01*
X003642429Y003422810D01*
G01*
X003642429Y-05521426D01*
G01*
X003648674Y-05584830D01*
G01*
X003667169Y-05645798D01*
G01*
X003697202Y-05701986D01*
G01*
X003737620Y-05751235D01*
G01*
X006633727Y-08647342D01*
G01*
X006633727Y-08733549D01*
G01*
X006618000Y-08732000D01*
G01*
X006539964Y-08739686D01*
G01*
X006464927Y-08762448D01*
G01*
X006395772Y-08799412D01*
G01*
X006386526Y-08807000D01*
G01*
X004407690Y-08807000D01*
G01*
X002450880Y-06850190D01*
G01*
X002401631Y-06809772D01*
G01*
X002345443Y-06779739D01*
G01*
X002284475Y-06761245D01*
G01*
X002221071Y-06755000D01*
G01*
X001883059Y-06755000D01*
G01*
X001952683Y-06733880D01*
G01*
X002125570Y-06641470D01*
G01*
X002277107Y-06517107D01*
G01*
X002401470Y-06365570D01*
G01*
X002493880Y-06192683D01*
G01*
X002550785Y-06005090D01*
G01*
X002570000Y-05810000D01*
G01*
X002550785Y-05614910D01*
G01*
X002493880Y-05427317D01*
G01*
X002401470Y-05254430D01*
G01*
X002277107Y-05102893D01*
G01*
X002125570Y-04978530D01*
G01*
X001952683Y-04886120D01*
G01*
X001765090Y-04829215D01*
G01*
X001570000Y-04810000D01*
G01*
X001374910Y-04829215D01*
G01*
X001187317Y-04886120D01*
G01*
X001014430Y-04978530D01*
G01*
X000862893Y-05102893D01*
G01*
X000738530Y-05254430D01*
G01*
X000646120Y-05427317D01*
G01*
X000589215Y-05614910D01*
G01*
X000570000Y-05810000D01*
G01*
X000589215Y-06005090D01*
G01*
X000646120Y-06192683D01*
G01*
X000738530Y-06365570D01*
G01*
X000862893Y-06517107D01*
G01*
X001014430Y-06641470D01*
G01*
X001187317Y-06733880D01*
G01*
X001256941Y-06755000D01*
G01*
X-24216343Y-06755000D01*
G01*
X-48318814Y017347471D01*
G01*
X-48368064Y017387889D01*
G01*
X-48424252Y017417922D01*
G01*
X-48485220Y017436416D01*
G01*
X-48548624Y017442661D01*
G01*
X-48612029Y017436416D01*
G01*
X-48672996Y017417922D01*
G01*
X-48710038Y017398123D01*
G01*
X-48758073Y017383552D01*
G01*
X-48827228Y017346588D01*
G01*
X-48887843Y017296843D01*
G01*
X-48937588Y017236228D01*
G01*
X-48974552Y017167073D01*
G01*
X-48997314Y017092036D01*
G01*
X-49005000Y017014000D01*
G01*
X-48997314Y016935964D01*
G01*
X-48974552Y016860927D01*
G01*
X-48937588Y016791772D01*
G01*
X-48887843Y016731157D01*
G01*
X-48827228Y016681412D01*
G01*
X-48758073Y016644448D01*
G01*
X-48683036Y016621686D01*
G01*
X-48605000Y016614000D01*
G01*
X-48526964Y016621686D01*
G01*
X-48515689Y016625106D01*
G01*
X-24580773Y-07309810D01*
G01*
X-24531523Y-07350228D01*
G01*
X-24475335Y-07380261D01*
G01*
X-24414368Y-07398755D01*
G01*
X-24350963Y-07405000D01*
G01*
X-10439182Y-07405000D01*
G01*
X-10454588Y-07423772D01*
G01*
X-10491552Y-07492927D01*
G01*
X-10514314Y-07567964D01*
G01*
X-10522000Y-07646000D01*
G01*
X-10519634Y-07670019D01*
G01*
X-25211786Y-22362172D01*
G01*
X-25252204Y-22411421D01*
G01*
X-25282237Y-22467609D01*
G01*
X-25300732Y-22528577D01*
G01*
X-25306976Y-22591981D01*
G01*
X-25306976Y-22665094D01*
G01*
X-25306976Y-27957357D01*
G01*
X-29060000Y-31710380D01*
G01*
X-29060000Y-29630000D01*
G01*
X-31260000Y-29630000D01*
G01*
X-31260000Y-31830000D01*
G01*
X-29179620Y-31830000D01*
G01*
X-29519620Y-32170000D01*
G01*
X-31260000Y-32170000D01*
G01*
X-31260000Y-34370000D01*
G37*
D38*
G36*
X-65690000Y024142500D02*
G01*
X-63390000Y024142500D01*
G01*
X-63390000Y025381882D01*
G01*
X-56792325Y031980000D01*
G01*
X-45310000Y031980000D01*
G01*
X-45310000Y031580000D01*
G01*
X-43010000Y031580000D01*
G01*
X-43010000Y033880000D01*
G01*
X-45310000Y033880000D01*
G01*
X-45310000Y033480000D01*
G01*
X-57103000Y033480000D01*
G01*
X-57249318Y033465589D01*
G01*
X-57390013Y033422910D01*
G01*
X-57519678Y033353602D01*
G01*
X-57633330Y033260330D01*
G01*
X-57633346Y033260310D01*
G01*
X-57633348Y033260312D01*
G01*
X-64450702Y026442500D01*
G01*
X-65690000Y026442500D01*
G01*
X-65690000Y024142500D01*
G37*
D38*
G36*
X-42770000Y031580000D02*
G01*
X-40470000Y031580000D01*
G01*
X-40470000Y033880000D01*
G01*
X-42770000Y033880000D01*
G01*
X-42770000Y031580000D01*
G37*
D38*
G36*
X056037000Y031417000D02*
G01*
X056115036Y031424686D01*
G01*
X056190073Y031447448D01*
G01*
X056259228Y031484412D01*
G01*
X056319843Y031534157D01*
G01*
X056369588Y031594772D01*
G01*
X056406552Y031663927D01*
G01*
X056429314Y031738964D01*
G01*
X056437000Y031817000D01*
G01*
X056429314Y031895036D01*
G01*
X056406552Y031970073D01*
G01*
X056369588Y032039228D01*
G01*
X056319843Y032099843D01*
G01*
X056259228Y032149588D01*
G01*
X056190073Y032186552D01*
G01*
X056115036Y032209314D01*
G01*
X056037000Y032217000D01*
G01*
X056006635Y032214009D01*
G01*
X055857458Y032363186D01*
G01*
X055860000Y032389000D01*
G01*
X055852314Y032467036D01*
G01*
X055829552Y032542073D01*
G01*
X055792588Y032611228D01*
G01*
X055742843Y032671843D01*
G01*
X055682228Y032721588D01*
G01*
X055613073Y032758552D01*
G01*
X055538036Y032781314D01*
G01*
X055460000Y032789000D01*
G01*
X055381964Y032781314D01*
G01*
X055306927Y032758552D01*
G01*
X055237772Y032721588D01*
G01*
X055177157Y032671843D01*
G01*
X055127412Y032611228D01*
G01*
X055090448Y032542073D01*
G01*
X055067686Y032467036D01*
G01*
X055060000Y032389000D01*
G01*
X055067686Y032310964D01*
G01*
X055090448Y032235927D01*
G01*
X055127412Y032166772D01*
G01*
X055177157Y032106157D01*
G01*
X055237772Y032056412D01*
G01*
X055256886Y032046196D01*
G01*
X055264557Y032036848D01*
G01*
X055701862Y031599543D01*
G01*
X055704412Y031594772D01*
G01*
X055754157Y031534157D01*
G01*
X055814772Y031484412D01*
G01*
X055883927Y031447448D01*
G01*
X055958964Y031424686D01*
G01*
X056037000Y031417000D01*
G37*
D38*
G36*
X008862000Y026410000D02*
G01*
X008940036Y026417686D01*
G01*
X009015073Y026440448D01*
G01*
X009084228Y026477412D01*
G01*
X009144843Y026527157D01*
G01*
X009194588Y026587772D01*
G01*
X009231552Y026656927D01*
G01*
X009254314Y026731964D01*
G01*
X009262000Y026810000D01*
G01*
X009254314Y026888036D01*
G01*
X009231552Y026963073D01*
G01*
X009194588Y027032228D01*
G01*
X009187000Y027041474D01*
G01*
X009187000Y027928754D01*
G01*
X009263661Y028005415D01*
G01*
X009304079Y028054664D01*
G01*
X009305627Y028057560D01*
G01*
X009364843Y028106157D01*
G01*
X009414588Y028166772D01*
G01*
X009451552Y028235927D01*
G01*
X009474314Y028310964D01*
G01*
X009482000Y028389000D01*
G01*
X009474314Y028467036D01*
G01*
X009451552Y028542073D01*
G01*
X009414588Y028611228D01*
G01*
X009364843Y028671843D01*
G01*
X009304228Y028721588D01*
G01*
X009235073Y028758552D01*
G01*
X009160036Y028781314D01*
G01*
X009082000Y028789000D01*
G01*
X009003964Y028781314D01*
G01*
X008928927Y028758552D01*
G01*
X008859772Y028721588D01*
G01*
X008799157Y028671843D01*
G01*
X008749412Y028611228D01*
G01*
X008712448Y028542073D01*
G01*
X008689686Y028467036D01*
G01*
X008682000Y028389000D01*
G01*
X008686125Y028347118D01*
G01*
X008632190Y028293183D01*
G01*
X008591772Y028243933D01*
G01*
X008561739Y028187745D01*
G01*
X008543245Y028126777D01*
G01*
X008537000Y028063373D01*
G01*
X008537000Y027041474D01*
G01*
X008529412Y027032228D01*
G01*
X008492448Y026963073D01*
G01*
X008469686Y026888036D01*
G01*
X008462000Y026810000D01*
G01*
X008469686Y026731964D01*
G01*
X008492448Y026656927D01*
G01*
X008529412Y026587772D01*
G01*
X008579157Y026527157D01*
G01*
X008639772Y026477412D01*
G01*
X008708927Y026440448D01*
G01*
X008783964Y026417686D01*
G01*
X008862000Y026410000D01*
G37*
D38*
G36*
X-60610000Y024142500D02*
G01*
X-58310000Y024142500D01*
G01*
X-58310000Y026442500D01*
G01*
X-60610000Y026442500D01*
G01*
X-60610000Y024142500D01*
G37*
D38*
G36*
X017200000Y011200000D02*
G01*
X017278036Y011207686D01*
G01*
X017353073Y011230448D01*
G01*
X017422228Y011267412D01*
G01*
X017482843Y011317157D01*
G01*
X017532588Y011377772D01*
G01*
X017569552Y011446927D01*
G01*
X017592314Y011521964D01*
G01*
X017600000Y011600000D01*
G01*
X017592314Y011678036D01*
G01*
X017569552Y011753073D01*
G01*
X017532588Y011822228D01*
G01*
X017525000Y011831474D01*
G01*
X017525000Y024538858D01*
G01*
X017552228Y024553412D01*
G01*
X017612843Y024603157D01*
G01*
X017662588Y024663772D01*
G01*
X017699552Y024732927D01*
G01*
X017722314Y024807964D01*
G01*
X017730000Y024886000D01*
G01*
X017722314Y024964036D01*
G01*
X017699552Y025039073D01*
G01*
X017662588Y025108228D01*
G01*
X017612843Y025168843D01*
G01*
X017552228Y025218588D01*
G01*
X017483073Y025255552D01*
G01*
X017408036Y025278314D01*
G01*
X017330000Y025286000D01*
G01*
X017251964Y025278314D01*
G01*
X017176927Y025255552D01*
G01*
X017107772Y025218588D01*
G01*
X017047157Y025168843D01*
G01*
X016997412Y025108228D01*
G01*
X016960448Y025039073D01*
G01*
X016937686Y024964036D01*
G01*
X016930001Y024886010D01*
G01*
X016929772Y024885731D01*
G01*
X016899739Y024829543D01*
G01*
X016881245Y024768575D01*
G01*
X016875000Y024705171D01*
G01*
X016875000Y011831474D01*
G01*
X016867412Y011822228D01*
G01*
X016830448Y011753073D01*
G01*
X016807686Y011678036D01*
G01*
X016800000Y011600000D01*
G01*
X016807686Y011521964D01*
G01*
X016830448Y011446927D01*
G01*
X016867412Y011377772D01*
G01*
X016917157Y011317157D01*
G01*
X016977772Y011267412D01*
G01*
X017046927Y011230448D01*
G01*
X017121964Y011207686D01*
G01*
X017200000Y011200000D01*
G37*
D38*
G36*
X-44500000Y022160000D02*
G01*
X-44238579Y022185748D01*
G01*
X-43987204Y022262001D01*
G01*
X-43755536Y022385831D01*
G01*
X-43552477Y022552477D01*
G01*
X-43385831Y022755536D01*
G01*
X-43262001Y022987204D01*
G01*
X-43185748Y023238579D01*
G01*
X-43160000Y023500000D01*
G01*
X-43185748Y023761421D01*
G01*
X-43262001Y024012796D01*
G01*
X-43385831Y024244464D01*
G01*
X-43552477Y024447523D01*
G01*
X-43755536Y024614169D01*
G01*
X-43987204Y024737999D01*
G01*
X-44238579Y024814252D01*
G01*
X-44500000Y024840000D01*
G01*
X-44761421Y024814252D01*
G01*
X-45012796Y024737999D01*
G01*
X-45244464Y024614169D01*
G01*
X-45447523Y024447523D01*
G01*
X-45614169Y024244464D01*
G01*
X-45737999Y024012796D01*
G01*
X-45814252Y023761421D01*
G01*
X-45840000Y023500000D01*
G01*
X-45814252Y023238579D01*
G01*
X-45737999Y022987204D01*
G01*
X-45614169Y022755536D01*
G01*
X-45447523Y022552477D01*
G01*
X-45244464Y022385831D01*
G01*
X-45012796Y022262001D01*
G01*
X-44761421Y022185748D01*
G01*
X-44500000Y022160000D01*
G37*
D38*
G36*
X-23400000Y022160000D02*
G01*
X-23138579Y022185748D01*
G01*
X-22887204Y022262001D01*
G01*
X-22655536Y022385831D01*
G01*
X-22452477Y022552477D01*
G01*
X-22285831Y022755536D01*
G01*
X-22162001Y022987204D01*
G01*
X-22085748Y023238579D01*
G01*
X-22060000Y023500000D01*
G01*
X-22085748Y023761421D01*
G01*
X-22162001Y024012796D01*
G01*
X-22285831Y024244464D01*
G01*
X-22452477Y024447523D01*
G01*
X-22655536Y024614169D01*
G01*
X-22887204Y024737999D01*
G01*
X-23138579Y024814252D01*
G01*
X-23400000Y024840000D01*
G01*
X-23661421Y024814252D01*
G01*
X-23912796Y024737999D01*
G01*
X-24144464Y024614169D01*
G01*
X-24347523Y024447523D01*
G01*
X-24514169Y024244464D01*
G01*
X-24637999Y024012796D01*
G01*
X-24714252Y023761421D01*
G01*
X-24740000Y023500000D01*
G01*
X-24714252Y023238579D01*
G01*
X-24637999Y022987204D01*
G01*
X-24514169Y022755536D01*
G01*
X-24347523Y022552477D01*
G01*
X-24144464Y022385831D01*
G01*
X-23912796Y022262001D01*
G01*
X-23661421Y022185748D01*
G01*
X-23400000Y022160000D01*
G37*
D38*
G36*
X001570000Y018590000D02*
G01*
X001765090Y018609215D01*
G01*
X001952683Y018666120D01*
G01*
X002125570Y018758530D01*
G01*
X002277107Y018882893D01*
G01*
X002401470Y019034430D01*
G01*
X002493880Y019207317D01*
G01*
X002550785Y019394910D01*
G01*
X002570000Y019590000D01*
G01*
X002550785Y019785090D01*
G01*
X002493880Y019972683D01*
G01*
X002401470Y020145570D01*
G01*
X002277107Y020297107D01*
G01*
X002125570Y020421470D01*
G01*
X001952683Y020513880D01*
G01*
X001765090Y020570785D01*
G01*
X001570000Y020590000D01*
G01*
X001374910Y020570785D01*
G01*
X001187317Y020513880D01*
G01*
X001014430Y020421470D01*
G01*
X000862893Y020297107D01*
G01*
X000738530Y020145570D01*
G01*
X000646120Y019972683D01*
G01*
X000589215Y019785090D01*
G01*
X000570000Y019590000D01*
G01*
X000589215Y019394910D01*
G01*
X000646120Y019207317D01*
G01*
X000738530Y019034430D01*
G01*
X000862893Y018882893D01*
G01*
X001014430Y018758530D01*
G01*
X001187317Y018666120D01*
G01*
X001374910Y018609215D01*
G01*
X001570000Y018590000D01*
G37*
D38*
G36*
X024430000Y018590000D02*
G01*
X024625090Y018609215D01*
G01*
X024812683Y018666120D01*
G01*
X024985570Y018758530D01*
G01*
X025137107Y018882893D01*
G01*
X025261470Y019034430D01*
G01*
X025353880Y019207317D01*
G01*
X025410785Y019394910D01*
G01*
X025430000Y019590000D01*
G01*
X025410785Y019785090D01*
G01*
X025353880Y019972683D01*
G01*
X025261470Y020145570D01*
G01*
X025137107Y020297107D01*
G01*
X024985570Y020421470D01*
G01*
X024812683Y020513880D01*
G01*
X024625090Y020570785D01*
G01*
X024430000Y020590000D01*
G01*
X024234910Y020570785D01*
G01*
X024047317Y020513880D01*
G01*
X023874430Y020421470D01*
G01*
X023722893Y020297107D01*
G01*
X023598530Y020145570D01*
G01*
X023506120Y019972683D01*
G01*
X023449215Y019785090D01*
G01*
X023430000Y019590000D01*
G01*
X023449215Y019394910D01*
G01*
X023506120Y019207317D01*
G01*
X023598530Y019034430D01*
G01*
X023722893Y018882893D01*
G01*
X023874430Y018758530D01*
G01*
X024047317Y018666120D01*
G01*
X024234910Y018609215D01*
G01*
X024430000Y018590000D01*
G37*
D38*
G36*
X001570000Y016050000D02*
G01*
X001765090Y016069215D01*
G01*
X001952683Y016126120D01*
G01*
X002125570Y016218530D01*
G01*
X002277107Y016342893D01*
G01*
X002401470Y016494430D01*
G01*
X002493880Y016667317D01*
G01*
X002550785Y016854910D01*
G01*
X002570000Y017050000D01*
G01*
X002550785Y017245090D01*
G01*
X002493880Y017432683D01*
G01*
X002401470Y017605570D01*
G01*
X002277107Y017757107D01*
G01*
X002125570Y017881470D01*
G01*
X001952683Y017973880D01*
G01*
X001765090Y018030785D01*
G01*
X001570000Y018050000D01*
G01*
X001374910Y018030785D01*
G01*
X001187317Y017973880D01*
G01*
X001014430Y017881470D01*
G01*
X000862893Y017757107D01*
G01*
X000738530Y017605570D01*
G01*
X000646120Y017432683D01*
G01*
X000589215Y017245090D01*
G01*
X000570000Y017050000D01*
G01*
X000589215Y016854910D01*
G01*
X000646120Y016667317D01*
G01*
X000738530Y016494430D01*
G01*
X000862893Y016342893D01*
G01*
X001014430Y016218530D01*
G01*
X001187317Y016126120D01*
G01*
X001374910Y016069215D01*
G01*
X001570000Y016050000D01*
G37*
D38*
G36*
X-77500000Y014000000D02*
G01*
X-75500000Y014000000D01*
G01*
X-75500000Y016000000D01*
G01*
X-77500000Y016000000D01*
G01*
X-77500000Y014000000D01*
G37*
D38*
G36*
X001570000Y013510000D02*
G01*
X001765090Y013529215D01*
G01*
X001952683Y013586120D01*
G01*
X002125570Y013678530D01*
G01*
X002277107Y013802893D01*
G01*
X002401470Y013954430D01*
G01*
X002493880Y014127317D01*
G01*
X002550785Y014314910D01*
G01*
X002570000Y014510000D01*
G01*
X002550785Y014705090D01*
G01*
X002493880Y014892683D01*
G01*
X002401470Y015065570D01*
G01*
X002277107Y015217107D01*
G01*
X002125570Y015341470D01*
G01*
X001952683Y015433880D01*
G01*
X001765090Y015490785D01*
G01*
X001570000Y015510000D01*
G01*
X001374910Y015490785D01*
G01*
X001187317Y015433880D01*
G01*
X001014430Y015341470D01*
G01*
X000862893Y015217107D01*
G01*
X000738530Y015065570D01*
G01*
X000646120Y014892683D01*
G01*
X000589215Y014705090D01*
G01*
X000570000Y014510000D01*
G01*
X000589215Y014314910D01*
G01*
X000646120Y014127317D01*
G01*
X000738530Y013954430D01*
G01*
X000862893Y013802893D01*
G01*
X001014430Y013678530D01*
G01*
X001187317Y013586120D01*
G01*
X001374910Y013529215D01*
G01*
X001570000Y013510000D01*
G37*
D38*
G36*
X001570000Y010970000D02*
G01*
X001765090Y010989215D01*
G01*
X001952683Y011046120D01*
G01*
X002125570Y011138530D01*
G01*
X002277107Y011262893D01*
G01*
X002401470Y011414430D01*
G01*
X002493880Y011587317D01*
G01*
X002550785Y011774910D01*
G01*
X002570000Y011970000D01*
G01*
X002550785Y012165090D01*
G01*
X002493880Y012352683D01*
G01*
X002401470Y012525570D01*
G01*
X002277107Y012677107D01*
G01*
X002125570Y012801470D01*
G01*
X001952683Y012893880D01*
G01*
X001765090Y012950785D01*
G01*
X001570000Y012970000D01*
G01*
X001374910Y012950785D01*
G01*
X001187317Y012893880D01*
G01*
X001014430Y012801470D01*
G01*
X000862893Y012677107D01*
G01*
X000738530Y012525570D01*
G01*
X000646120Y012352683D01*
G01*
X000589215Y012165090D01*
G01*
X000570000Y011970000D01*
G01*
X000589215Y011774910D01*
G01*
X000646120Y011587317D01*
G01*
X000738530Y011414430D01*
G01*
X000862893Y011262893D01*
G01*
X001014430Y011138530D01*
G01*
X001187317Y011046120D01*
G01*
X001374910Y010989215D01*
G01*
X001570000Y010970000D01*
G37*
D38*
G36*
X020385000Y008278000D02*
G01*
X020463036Y008285686D01*
G01*
X020538073Y008308448D01*
G01*
X020607228Y008345412D01*
G01*
X020616474Y008353000D01*
G01*
X021138000Y008353000D01*
G01*
X021201404Y008359245D01*
G01*
X021262372Y008377739D01*
G01*
X021318560Y008407772D01*
G01*
X021367810Y008448190D01*
G01*
X023994155Y011074535D01*
G01*
X024047317Y011046120D01*
G01*
X024234910Y010989215D01*
G01*
X024430000Y010970000D01*
G01*
X024625090Y010989215D01*
G01*
X024812683Y011046120D01*
G01*
X024985570Y011138530D01*
G01*
X025137107Y011262893D01*
G01*
X025261470Y011414430D01*
G01*
X025353880Y011587317D01*
G01*
X025410785Y011774910D01*
G01*
X025430000Y011970000D01*
G01*
X025410785Y012165090D01*
G01*
X025353880Y012352683D01*
G01*
X025261470Y012525570D01*
G01*
X025137107Y012677107D01*
G01*
X024985570Y012801470D01*
G01*
X024812683Y012893880D01*
G01*
X024625090Y012950785D01*
G01*
X024430000Y012970000D01*
G01*
X024234910Y012950785D01*
G01*
X024047317Y012893880D01*
G01*
X023874430Y012801470D01*
G01*
X023722893Y012677107D01*
G01*
X023598530Y012525570D01*
G01*
X023506120Y012352683D01*
G01*
X023449215Y012165090D01*
G01*
X023430000Y011970000D01*
G01*
X023449215Y011774910D01*
G01*
X023506120Y011587317D01*
G01*
X023534535Y011534155D01*
G01*
X021003380Y009003000D01*
G01*
X020616474Y009003000D01*
G01*
X020607228Y009010588D01*
G01*
X020538073Y009047552D01*
G01*
X020463036Y009070314D01*
G01*
X020385000Y009078000D01*
G01*
X020306964Y009070314D01*
G01*
X020231927Y009047552D01*
G01*
X020162772Y009010588D01*
G01*
X020102157Y008960843D01*
G01*
X020052412Y008900228D01*
G01*
X020015448Y008831073D01*
G01*
X019992686Y008756036D01*
G01*
X019985000Y008678000D01*
G01*
X019992686Y008599964D01*
G01*
X020015448Y008524927D01*
G01*
X020052412Y008455772D01*
G01*
X020102157Y008395157D01*
G01*
X020162772Y008345412D01*
G01*
X020231927Y008308448D01*
G01*
X020306964Y008285686D01*
G01*
X020385000Y008278000D01*
G37*
D38*
G36*
X001570000Y008430000D02*
G01*
X001765090Y008449215D01*
G01*
X001952683Y008506120D01*
G01*
X002125570Y008598530D01*
G01*
X002277107Y008722893D01*
G01*
X002401470Y008874430D01*
G01*
X002493880Y009047317D01*
G01*
X002550785Y009234910D01*
G01*
X002570000Y009430000D01*
G01*
X002550785Y009625090D01*
G01*
X002493880Y009812683D01*
G01*
X002401470Y009985570D01*
G01*
X002277107Y010137107D01*
G01*
X002125570Y010261470D01*
G01*
X001952683Y010353880D01*
G01*
X001765090Y010410785D01*
G01*
X001570000Y010430000D01*
G01*
X001374910Y010410785D01*
G01*
X001187317Y010353880D01*
G01*
X001014430Y010261470D01*
G01*
X000862893Y010137107D01*
G01*
X000738530Y009985570D01*
G01*
X000646120Y009812683D01*
G01*
X000589215Y009625090D01*
G01*
X000570000Y009430000D01*
G01*
X000589215Y009234910D01*
G01*
X000646120Y009047317D01*
G01*
X000738530Y008874430D01*
G01*
X000862893Y008722893D01*
G01*
X001014430Y008598530D01*
G01*
X001187317Y008506120D01*
G01*
X001374910Y008449215D01*
G01*
X001570000Y008430000D01*
G37*
D38*
G36*
X031812000Y000838000D02*
G01*
X031890036Y000845686D01*
G01*
X031965073Y000868448D01*
G01*
X032034228Y000905412D01*
G01*
X032094843Y000955157D01*
G01*
X032144588Y001015772D01*
G01*
X032181552Y001084927D01*
G01*
X032204314Y001159964D01*
G01*
X032212000Y001238000D01*
G01*
X032204314Y001316036D01*
G01*
X032181552Y001391073D01*
G01*
X032144588Y001460228D01*
G01*
X032135941Y001470764D01*
G01*
X032135941Y002049059D01*
G01*
X032129696Y002112463D01*
G01*
X032111202Y002173431D01*
G01*
X032081169Y002229619D01*
G01*
X032040751Y002278869D01*
G01*
X025325465Y008994155D01*
G01*
X025353880Y009047317D01*
G01*
X025410785Y009234910D01*
G01*
X025430000Y009430000D01*
G01*
X025410785Y009625090D01*
G01*
X025353880Y009812683D01*
G01*
X025261470Y009985570D01*
G01*
X025137107Y010137107D01*
G01*
X024985570Y010261470D01*
G01*
X024812683Y010353880D01*
G01*
X024625090Y010410785D01*
G01*
X024430000Y010430000D01*
G01*
X024234910Y010410785D01*
G01*
X024047317Y010353880D01*
G01*
X023874430Y010261470D01*
G01*
X023722893Y010137107D01*
G01*
X023598530Y009985570D01*
G01*
X023506120Y009812683D01*
G01*
X023449215Y009625090D01*
G01*
X023430000Y009430000D01*
G01*
X023449215Y009234910D01*
G01*
X023506120Y009047317D01*
G01*
X023598530Y008874430D01*
G01*
X023722893Y008722893D01*
G01*
X023874430Y008598530D01*
G01*
X024047317Y008506120D01*
G01*
X024234910Y008449215D01*
G01*
X024430000Y008430000D01*
G01*
X024625090Y008449215D01*
G01*
X024812683Y008506120D01*
G01*
X024865845Y008534535D01*
G01*
X031485941Y001914439D01*
G01*
X031485941Y001468184D01*
G01*
X031479412Y001460228D01*
G01*
X031442448Y001391073D01*
G01*
X031419686Y001316036D01*
G01*
X031412000Y001238000D01*
G01*
X031419686Y001159964D01*
G01*
X031442448Y001084927D01*
G01*
X031479412Y001015772D01*
G01*
X031529157Y000955157D01*
G01*
X031589772Y000905412D01*
G01*
X031658927Y000868448D01*
G01*
X031733964Y000845686D01*
G01*
X031812000Y000838000D01*
G37*
D38*
G36*
X017194000Y007420000D02*
G01*
X017272036Y007427686D01*
G01*
X017347073Y007450448D01*
G01*
X017416228Y007487412D01*
G01*
X017476843Y007537157D01*
G01*
X017526588Y007597772D01*
G01*
X017563552Y007666927D01*
G01*
X017586314Y007741964D01*
G01*
X017594000Y007820000D01*
G01*
X017586314Y007898036D01*
G01*
X017563552Y007973073D01*
G01*
X017526588Y008042228D01*
G01*
X017476843Y008102843D01*
G01*
X017416228Y008152588D01*
G01*
X017347073Y008189552D01*
G01*
X017272036Y008212314D01*
G01*
X017194000Y008220000D01*
G01*
X017193356Y008219937D01*
G01*
X016985483Y008427810D01*
G01*
X016936234Y008468228D01*
G01*
X016880046Y008498261D01*
G01*
X016819078Y008516755D01*
G01*
X016755674Y008523000D01*
G01*
X014252474Y008523000D01*
G01*
X014243228Y008530588D01*
G01*
X014174073Y008567552D01*
G01*
X014099036Y008590314D01*
G01*
X014021000Y008598000D01*
G01*
X013942964Y008590314D01*
G01*
X013867927Y008567552D01*
G01*
X013798772Y008530588D01*
G01*
X013738157Y008480843D01*
G01*
X013688412Y008420228D01*
G01*
X013651448Y008351073D01*
G01*
X013628686Y008276036D01*
G01*
X013621000Y008198000D01*
G01*
X013628686Y008119964D01*
G01*
X013651448Y008044927D01*
G01*
X013688412Y007975772D01*
G01*
X013738157Y007915157D01*
G01*
X013798772Y007865412D01*
G01*
X013867927Y007828448D01*
G01*
X013942964Y007805686D01*
G01*
X014021000Y007798000D01*
G01*
X014099036Y007805686D01*
G01*
X014174073Y007828448D01*
G01*
X014243228Y007865412D01*
G01*
X014252474Y007873000D01*
G01*
X016621054Y007873000D01*
G01*
X016823281Y007670774D01*
G01*
X016824448Y007666927D01*
G01*
X016861412Y007597772D01*
G01*
X016911157Y007537157D01*
G01*
X016971772Y007487412D01*
G01*
X017040927Y007450448D01*
G01*
X017115964Y007427686D01*
G01*
X017194000Y007420000D01*
G37*
D38*
G36*
X-65460000Y-01000000D02*
G01*
X-65264910Y-00980785D01*
G01*
X-65077317Y-00923880D01*
G01*
X-64904430Y-00831470D01*
G01*
X-64752893Y-00707107D01*
G01*
X-64628530Y-00555570D01*
G01*
X-64536120Y-00382683D01*
G01*
X-64479215Y-00195090D01*
G01*
X-64460000Y000000000D01*
G01*
X-64479215Y000195090D01*
G01*
X-64536120Y000382683D01*
G01*
X-64628530Y000555570D01*
G01*
X-64752893Y000707107D01*
G01*
X-64904430Y000831470D01*
G01*
X-65077317Y000923880D01*
G01*
X-65135000Y000941378D01*
G01*
X-65135000Y003439349D01*
G01*
X-61216699Y007357650D01*
G01*
X-61189468Y007390831D01*
G01*
X-61124772Y007425412D01*
G01*
X-61064157Y007475157D01*
G01*
X-61014412Y007535772D01*
G01*
X-60977448Y007604927D01*
G01*
X-60954686Y007679964D01*
G01*
X-60947000Y007758000D01*
G01*
X-60954686Y007836036D01*
G01*
X-60977448Y007911073D01*
G01*
X-61014412Y007980228D01*
G01*
X-61064157Y008040843D01*
G01*
X-61124772Y008090588D01*
G01*
X-61193927Y008127552D01*
G01*
X-61268964Y008150314D01*
G01*
X-61347000Y008158000D01*
G01*
X-61425036Y008150314D01*
G01*
X-61500073Y008127552D01*
G01*
X-61569228Y008090588D01*
G01*
X-61629843Y008040843D01*
G01*
X-61679588Y007980228D01*
G01*
X-61716552Y007911073D01*
G01*
X-61739314Y007836036D01*
G01*
X-61744050Y007787952D01*
G01*
X-61746770Y007782863D01*
G01*
X-61762464Y007731125D01*
G01*
X-65689810Y003803779D01*
G01*
X-65730228Y003754529D01*
G01*
X-65760261Y003698341D01*
G01*
X-65778755Y003637373D01*
G01*
X-65785000Y003573969D01*
G01*
X-65785000Y000941378D01*
G01*
X-65842683Y000923880D01*
G01*
X-66015570Y000831470D01*
G01*
X-66167107Y000707107D01*
G01*
X-66291470Y000555570D01*
G01*
X-66383880Y000382683D01*
G01*
X-66440785Y000195090D01*
G01*
X-66460000Y000000000D01*
G01*
X-66440785Y-00195090D01*
G01*
X-66383880Y-00382683D01*
G01*
X-66291470Y-00555570D01*
G01*
X-66167107Y-00707107D01*
G01*
X-66015570Y-00831470D01*
G01*
X-65842683Y-00923880D01*
G01*
X-65655090Y-00980785D01*
G01*
X-65460000Y-01000000D01*
G37*
D38*
G36*
X001570000Y005890000D02*
G01*
X001765090Y005909215D01*
G01*
X001952683Y005966120D01*
G01*
X002125570Y006058530D01*
G01*
X002277107Y006182893D01*
G01*
X002401470Y006334430D01*
G01*
X002493880Y006507317D01*
G01*
X002550785Y006694910D01*
G01*
X002570000Y006890000D01*
G01*
X002550785Y007085090D01*
G01*
X002493880Y007272683D01*
G01*
X002401470Y007445570D01*
G01*
X002277107Y007597107D01*
G01*
X002125570Y007721470D01*
G01*
X001952683Y007813880D01*
G01*
X001765090Y007870785D01*
G01*
X001570000Y007890000D01*
G01*
X001374910Y007870785D01*
G01*
X001187317Y007813880D01*
G01*
X001014430Y007721470D01*
G01*
X000862893Y007597107D01*
G01*
X000738530Y007445570D01*
G01*
X000646120Y007272683D01*
G01*
X000589215Y007085090D01*
G01*
X000570000Y006890000D01*
G01*
X000589215Y006694910D01*
G01*
X000646120Y006507317D01*
G01*
X000738530Y006334430D01*
G01*
X000862893Y006182893D01*
G01*
X001014430Y006058530D01*
G01*
X001187317Y005966120D01*
G01*
X001374910Y005909215D01*
G01*
X001570000Y005890000D01*
G37*
D38*
G36*
X024430000Y005890000D02*
G01*
X024625090Y005909215D01*
G01*
X024812683Y005966120D01*
G01*
X024985570Y006058530D01*
G01*
X025137107Y006182893D01*
G01*
X025261470Y006334430D01*
G01*
X025353880Y006507317D01*
G01*
X025410785Y006694910D01*
G01*
X025430000Y006890000D01*
G01*
X025410785Y007085090D01*
G01*
X025353880Y007272683D01*
G01*
X025261470Y007445570D01*
G01*
X025137107Y007597107D01*
G01*
X024985570Y007721470D01*
G01*
X024812683Y007813880D01*
G01*
X024625090Y007870785D01*
G01*
X024430000Y007890000D01*
G01*
X024234910Y007870785D01*
G01*
X024047317Y007813880D01*
G01*
X023874430Y007721470D01*
G01*
X023722893Y007597107D01*
G01*
X023598530Y007445570D01*
G01*
X023506120Y007272683D01*
G01*
X023449215Y007085090D01*
G01*
X023430000Y006890000D01*
G01*
X023449215Y006694910D01*
G01*
X023506120Y006507317D01*
G01*
X023598530Y006334430D01*
G01*
X023722893Y006182893D01*
G01*
X023874430Y006058530D01*
G01*
X024047317Y005966120D01*
G01*
X024234910Y005909215D01*
G01*
X024430000Y005890000D01*
G37*
D38*
G36*
X001570000Y003350000D02*
G01*
X001765090Y003369215D01*
G01*
X001952683Y003426120D01*
G01*
X002125570Y003518530D01*
G01*
X002277107Y003642893D01*
G01*
X002401470Y003794430D01*
G01*
X002493880Y003967317D01*
G01*
X002550785Y004154910D01*
G01*
X002570000Y004350000D01*
G01*
X002550785Y004545090D01*
G01*
X002493880Y004732683D01*
G01*
X002401470Y004905570D01*
G01*
X002277107Y005057107D01*
G01*
X002125570Y005181470D01*
G01*
X001952683Y005273880D01*
G01*
X001765090Y005330785D01*
G01*
X001570000Y005350000D01*
G01*
X001374910Y005330785D01*
G01*
X001187317Y005273880D01*
G01*
X001014430Y005181470D01*
G01*
X000862893Y005057107D01*
G01*
X000738530Y004905570D01*
G01*
X000646120Y004732683D01*
G01*
X000589215Y004545090D01*
G01*
X000570000Y004350000D01*
G01*
X000589215Y004154910D01*
G01*
X000646120Y003967317D01*
G01*
X000738530Y003794430D01*
G01*
X000862893Y003642893D01*
G01*
X001014430Y003518530D01*
G01*
X001187317Y003426120D01*
G01*
X001374910Y003369215D01*
G01*
X001570000Y003350000D01*
G37*
D38*
G36*
X024430000Y003350000D02*
G01*
X024625090Y003369215D01*
G01*
X024812683Y003426120D01*
G01*
X024985570Y003518530D01*
G01*
X025137107Y003642893D01*
G01*
X025261470Y003794430D01*
G01*
X025353880Y003967317D01*
G01*
X025410785Y004154910D01*
G01*
X025430000Y004350000D01*
G01*
X025410785Y004545090D01*
G01*
X025353880Y004732683D01*
G01*
X025261470Y004905570D01*
G01*
X025137107Y005057107D01*
G01*
X024985570Y005181470D01*
G01*
X024812683Y005273880D01*
G01*
X024625090Y005330785D01*
G01*
X024430000Y005350000D01*
G01*
X024234910Y005330785D01*
G01*
X024047317Y005273880D01*
G01*
X023874430Y005181470D01*
G01*
X023722893Y005057107D01*
G01*
X023598530Y004905570D01*
G01*
X023506120Y004732683D01*
G01*
X023449215Y004545090D01*
G01*
X023430000Y004350000D01*
G01*
X023449215Y004154910D01*
G01*
X023506120Y003967317D01*
G01*
X023598530Y003794430D01*
G01*
X023722893Y003642893D01*
G01*
X023874430Y003518530D01*
G01*
X024047317Y003426120D01*
G01*
X024234910Y003369215D01*
G01*
X024430000Y003350000D01*
G37*
D38*
G36*
X024430000Y000810000D02*
G01*
X024625090Y000829215D01*
G01*
X024812683Y000886120D01*
G01*
X024985570Y000978530D01*
G01*
X025137107Y001102893D01*
G01*
X025261470Y001254430D01*
G01*
X025353880Y001427317D01*
G01*
X025410785Y001614910D01*
G01*
X025430000Y001810000D01*
G01*
X025410785Y002005090D01*
G01*
X025353880Y002192683D01*
G01*
X025261470Y002365570D01*
G01*
X025137107Y002517107D01*
G01*
X024985570Y002641470D01*
G01*
X024812683Y002733880D01*
G01*
X024625090Y002790785D01*
G01*
X024430000Y002810000D01*
G01*
X024234910Y002790785D01*
G01*
X024047317Y002733880D01*
G01*
X023874430Y002641470D01*
G01*
X023722893Y002517107D01*
G01*
X023598530Y002365570D01*
G01*
X023506120Y002192683D01*
G01*
X023449215Y002005090D01*
G01*
X023430000Y001810000D01*
G01*
X023449215Y001614910D01*
G01*
X023506120Y001427317D01*
G01*
X023598530Y001254430D01*
G01*
X023722893Y001102893D01*
G01*
X023874430Y000978530D01*
G01*
X024047317Y000886120D01*
G01*
X024234910Y000829215D01*
G01*
X024430000Y000810000D01*
G37*
D38*
G36*
X-71540000Y-01000000D02*
G01*
X-69540000Y-01000000D01*
G01*
X-69540000Y001000000D01*
G01*
X-71540000Y001000000D01*
G01*
X-71540000Y-01000000D01*
G37*
D38*
G36*
X-68000000Y-01000000D02*
G01*
X-67804910Y-00980785D01*
G01*
X-67617317Y-00923880D01*
G01*
X-67444430Y-00831470D01*
G01*
X-67292893Y-00707107D01*
G01*
X-67168530Y-00555570D01*
G01*
X-67076120Y-00382683D01*
G01*
X-67019215Y-00195090D01*
G01*
X-67000000Y000000000D01*
G01*
X-67019215Y000195090D01*
G01*
X-67076120Y000382683D01*
G01*
X-67168530Y000555570D01*
G01*
X-67292893Y000707107D01*
G01*
X-67444430Y000831470D01*
G01*
X-67617317Y000923880D01*
G01*
X-67804910Y000980785D01*
G01*
X-68000000Y001000000D01*
G01*
X-68195090Y000980785D01*
G01*
X-68382683Y000923880D01*
G01*
X-68555570Y000831470D01*
G01*
X-68707107Y000707107D01*
G01*
X-68831470Y000555570D01*
G01*
X-68923880Y000382683D01*
G01*
X-68980785Y000195090D01*
G01*
X-69000000Y000000000D01*
G01*
X-68980785Y-00195090D01*
G01*
X-68923880Y-00382683D01*
G01*
X-68831470Y-00555570D01*
G01*
X-68707107Y-00707107D01*
G01*
X-68555570Y-00831470D01*
G01*
X-68382683Y-00923880D01*
G01*
X-68195090Y-00980785D01*
G01*
X-68000000Y-01000000D01*
G37*
D38*
G36*
X001570000Y-01730000D02*
G01*
X001765090Y-01710785D01*
G01*
X001952683Y-01653880D01*
G01*
X002125570Y-01561470D01*
G01*
X002277107Y-01437107D01*
G01*
X002401470Y-01285570D01*
G01*
X002493880Y-01112683D01*
G01*
X002550785Y-00925090D01*
G01*
X002570000Y-00730000D01*
G01*
X002550785Y-00534910D01*
G01*
X002493880Y-00347317D01*
G01*
X002401470Y-00174430D01*
G01*
X002277107Y-00022893D01*
G01*
X002125570Y000101470D01*
G01*
X001952683Y000193880D01*
G01*
X001765090Y000250785D01*
G01*
X001570000Y000270000D01*
G01*
X001374910Y000250785D01*
G01*
X001187317Y000193880D01*
G01*
X001014430Y000101470D01*
G01*
X000862893Y-00022893D01*
G01*
X000738530Y-00174430D01*
G01*
X000646120Y-00347317D01*
G01*
X000589215Y-00534910D01*
G01*
X000570000Y-00730000D01*
G01*
X000589215Y-00925090D01*
G01*
X000646120Y-01112683D01*
G01*
X000738530Y-01285570D01*
G01*
X000862893Y-01437107D01*
G01*
X001014430Y-01561470D01*
G01*
X001187317Y-01653880D01*
G01*
X001374910Y-01710785D01*
G01*
X001570000Y-01730000D01*
G37*
D38*
G36*
X024430000Y-01730000D02*
G01*
X024625090Y-01710785D01*
G01*
X024812683Y-01653880D01*
G01*
X024985570Y-01561470D01*
G01*
X025137107Y-01437107D01*
G01*
X025261470Y-01285570D01*
G01*
X025353880Y-01112683D01*
G01*
X025410785Y-00925090D01*
G01*
X025430000Y-00730000D01*
G01*
X025410785Y-00534910D01*
G01*
X025353880Y-00347317D01*
G01*
X025261470Y-00174430D01*
G01*
X025137107Y-00022893D01*
G01*
X024985570Y000101470D01*
G01*
X024812683Y000193880D01*
G01*
X024625090Y000250785D01*
G01*
X024430000Y000270000D01*
G01*
X024234910Y000250785D01*
G01*
X024047317Y000193880D01*
G01*
X023874430Y000101470D01*
G01*
X023722893Y-00022893D01*
G01*
X023598530Y-00174430D01*
G01*
X023506120Y-00347317D01*
G01*
X023449215Y-00534910D01*
G01*
X023430000Y-00730000D01*
G01*
X023449215Y-00925090D01*
G01*
X023506120Y-01112683D01*
G01*
X023598530Y-01285570D01*
G01*
X023722893Y-01437107D01*
G01*
X023874430Y-01561470D01*
G01*
X024047317Y-01653880D01*
G01*
X024234910Y-01710785D01*
G01*
X024430000Y-01730000D01*
G37*
D38*
G36*
X001570000Y-04270000D02*
G01*
X001765090Y-04250785D01*
G01*
X001952683Y-04193880D01*
G01*
X002125570Y-04101470D01*
G01*
X002277107Y-03977107D01*
G01*
X002401470Y-03825570D01*
G01*
X002493880Y-03652683D01*
G01*
X002550785Y-03465090D01*
G01*
X002570000Y-03270000D01*
G01*
X002550785Y-03074910D01*
G01*
X002493880Y-02887317D01*
G01*
X002401470Y-02714430D01*
G01*
X002277107Y-02562893D01*
G01*
X002125570Y-02438530D01*
G01*
X001952683Y-02346120D01*
G01*
X001765090Y-02289215D01*
G01*
X001570000Y-02270000D01*
G01*
X001374910Y-02289215D01*
G01*
X001187317Y-02346120D01*
G01*
X001014430Y-02438530D01*
G01*
X000862893Y-02562893D01*
G01*
X000738530Y-02714430D01*
G01*
X000646120Y-02887317D01*
G01*
X000589215Y-03074910D01*
G01*
X000570000Y-03270000D01*
G01*
X000589215Y-03465090D01*
G01*
X000646120Y-03652683D01*
G01*
X000738530Y-03825570D01*
G01*
X000862893Y-03977107D01*
G01*
X001014430Y-04101470D01*
G01*
X001187317Y-04193880D01*
G01*
X001374910Y-04250785D01*
G01*
X001570000Y-04270000D01*
G37*
D38*
G36*
X024430000Y-04270000D02*
G01*
X024625090Y-04250785D01*
G01*
X024812683Y-04193880D01*
G01*
X024985570Y-04101470D01*
G01*
X025137107Y-03977107D01*
G01*
X025261470Y-03825570D01*
G01*
X025353880Y-03652683D01*
G01*
X025410785Y-03465090D01*
G01*
X025430000Y-03270000D01*
G01*
X025410785Y-03074910D01*
G01*
X025353880Y-02887317D01*
G01*
X025261470Y-02714430D01*
G01*
X025137107Y-02562893D01*
G01*
X024985570Y-02438530D01*
G01*
X024812683Y-02346120D01*
G01*
X024625090Y-02289215D01*
G01*
X024430000Y-02270000D01*
G01*
X024234910Y-02289215D01*
G01*
X024047317Y-02346120D01*
G01*
X023874430Y-02438530D01*
G01*
X023722893Y-02562893D01*
G01*
X023598530Y-02714430D01*
G01*
X023506120Y-02887317D01*
G01*
X023449215Y-03074910D01*
G01*
X023430000Y-03270000D01*
G01*
X023449215Y-03465090D01*
G01*
X023506120Y-03652683D01*
G01*
X023598530Y-03825570D01*
G01*
X023722893Y-03977107D01*
G01*
X023874430Y-04101470D01*
G01*
X024047317Y-04193880D01*
G01*
X024234910Y-04250785D01*
G01*
X024430000Y-04270000D01*
G37*
D38*
G36*
X003116000Y-07238000D02*
G01*
X003194036Y-07230314D01*
G01*
X003269073Y-07207552D01*
G01*
X003338228Y-07170588D01*
G01*
X003398843Y-07120843D01*
G01*
X003448588Y-07060228D01*
G01*
X003485552Y-06991073D01*
G01*
X003508314Y-06916036D01*
G01*
X003516000Y-06838000D01*
G01*
X003508314Y-06759964D01*
G01*
X003485552Y-06684927D01*
G01*
X003448588Y-06615772D01*
G01*
X003441000Y-06606526D01*
G01*
X003441000Y-04315415D01*
G01*
X003434755Y-04252011D01*
G01*
X003416261Y-04191043D01*
G01*
X003386228Y-04134855D01*
G01*
X003371253Y-04116608D01*
G01*
X003379314Y-04090036D01*
G01*
X003387000Y-04012000D01*
G01*
X003379314Y-03933964D01*
G01*
X003356552Y-03858927D01*
G01*
X003319588Y-03789772D01*
G01*
X003269843Y-03729157D01*
G01*
X003209228Y-03679412D01*
G01*
X003140073Y-03642448D01*
G01*
X003065036Y-03619686D01*
G01*
X002987000Y-03612000D01*
G01*
X002908964Y-03619686D01*
G01*
X002833927Y-03642448D01*
G01*
X002764772Y-03679412D01*
G01*
X002704157Y-03729157D01*
G01*
X002654412Y-03789772D01*
G01*
X002617448Y-03858927D01*
G01*
X002594686Y-03933964D01*
G01*
X002587000Y-04012000D01*
G01*
X002594686Y-04090036D01*
G01*
X002617448Y-04165073D01*
G01*
X002635169Y-04198227D01*
G01*
X002637192Y-04218767D01*
G01*
X002655687Y-04279735D01*
G01*
X002685720Y-04335923D01*
G01*
X002726138Y-04385172D01*
G01*
X002791000Y-04450034D01*
G01*
X002791000Y-06606526D01*
G01*
X002783412Y-06615772D01*
G01*
X002746448Y-06684927D01*
G01*
X002723686Y-06759964D01*
G01*
X002716000Y-06838000D01*
G01*
X002723686Y-06916036D01*
G01*
X002746448Y-06991073D01*
G01*
X002783412Y-07060228D01*
G01*
X002833157Y-07120843D01*
G01*
X002893772Y-07170588D01*
G01*
X002962927Y-07207552D01*
G01*
X003037964Y-07230314D01*
G01*
X003116000Y-07238000D01*
G37*
D38*
G36*
X069250000Y-07250000D02*
G01*
X071750000Y-07250000D01*
G01*
X071750000Y-04750000D01*
G01*
X069250000Y-04750000D01*
G01*
X069250000Y-07250000D01*
G37*
D38*
G36*
X024430000Y-06810000D02*
G01*
X024625090Y-06790785D01*
G01*
X024812683Y-06733880D01*
G01*
X024985570Y-06641470D01*
G01*
X025137107Y-06517107D01*
G01*
X025261470Y-06365570D01*
G01*
X025353880Y-06192683D01*
G01*
X025410785Y-06005090D01*
G01*
X025430000Y-05810000D01*
G01*
X025410785Y-05614910D01*
G01*
X025353880Y-05427317D01*
G01*
X025261470Y-05254430D01*
G01*
X025137107Y-05102893D01*
G01*
X024985570Y-04978530D01*
G01*
X024812683Y-04886120D01*
G01*
X024625090Y-04829215D01*
G01*
X024430000Y-04810000D01*
G01*
X024234910Y-04829215D01*
G01*
X024047317Y-04886120D01*
G01*
X023874430Y-04978530D01*
G01*
X023722893Y-05102893D01*
G01*
X023598530Y-05254430D01*
G01*
X023506120Y-05427317D01*
G01*
X023449215Y-05614910D01*
G01*
X023430000Y-05810000D01*
G01*
X023449215Y-06005090D01*
G01*
X023506120Y-06192683D01*
G01*
X023598530Y-06365570D01*
G01*
X023722893Y-06517107D01*
G01*
X023874430Y-06641470D01*
G01*
X024047317Y-06733880D01*
G01*
X024234910Y-06790785D01*
G01*
X024430000Y-06810000D01*
G37*
D38*
G36*
X045777000Y-09443000D02*
G01*
X045855036Y-09435314D01*
G01*
X045930073Y-09412552D01*
G01*
X045999228Y-09375588D01*
G01*
X046059843Y-09325843D01*
G01*
X046109588Y-09265228D01*
G01*
X046146552Y-09196073D01*
G01*
X046169314Y-09121036D01*
G01*
X046177000Y-09043000D01*
G01*
X046169314Y-08964964D01*
G01*
X046146552Y-08889927D01*
G01*
X046109588Y-08820772D01*
G01*
X046059843Y-08760157D01*
G01*
X045999228Y-08710412D01*
G01*
X045930073Y-08673448D01*
G01*
X045855036Y-08650686D01*
G01*
X045843133Y-08649514D01*
G01*
X042970486Y-05776866D01*
G01*
X042969314Y-05764964D01*
G01*
X042946552Y-05689927D01*
G01*
X042909588Y-05620772D01*
G01*
X042859843Y-05560157D01*
G01*
X042799228Y-05510412D01*
G01*
X042730073Y-05473448D01*
G01*
X042655036Y-05450686D01*
G01*
X042577000Y-05443000D01*
G01*
X042498964Y-05450686D01*
G01*
X042423927Y-05473448D01*
G01*
X042354772Y-05510412D01*
G01*
X042294157Y-05560157D01*
G01*
X042244412Y-05620772D01*
G01*
X042207448Y-05689927D01*
G01*
X042184686Y-05764964D01*
G01*
X042177000Y-05843000D01*
G01*
X042184686Y-05921036D01*
G01*
X042207448Y-05996073D01*
G01*
X042244412Y-06065228D01*
G01*
X042294157Y-06125843D01*
G01*
X042354772Y-06175588D01*
G01*
X042423927Y-06212552D01*
G01*
X042498964Y-06235314D01*
G01*
X042510866Y-06236486D01*
G01*
X045383514Y-09109133D01*
G01*
X045384686Y-09121036D01*
G01*
X045407448Y-09196073D01*
G01*
X045444412Y-09265228D01*
G01*
X045494157Y-09325843D01*
G01*
X045554772Y-09375588D01*
G01*
X045623927Y-09412552D01*
G01*
X045698964Y-09435314D01*
G01*
X045777000Y-09443000D01*
G37*
D38*
G36*
X019594000Y-10339000D02*
G01*
X019672036Y-10331314D01*
G01*
X019747073Y-10308552D01*
G01*
X019816228Y-10271588D01*
G01*
X019825474Y-10264000D01*
G01*
X022841000Y-10264000D01*
G01*
X022904404Y-10257755D01*
G01*
X022965372Y-10239261D01*
G01*
X023021560Y-10209228D01*
G01*
X023070810Y-10168810D01*
G01*
X023994155Y-09245465D01*
G01*
X024047317Y-09273880D01*
G01*
X024234910Y-09330785D01*
G01*
X024430000Y-09350000D01*
G01*
X024625090Y-09330785D01*
G01*
X024812683Y-09273880D01*
G01*
X024985570Y-09181470D01*
G01*
X025137107Y-09057107D01*
G01*
X025261470Y-08905570D01*
G01*
X025353880Y-08732683D01*
G01*
X025410785Y-08545090D01*
G01*
X025430000Y-08350000D01*
G01*
X025410785Y-08154910D01*
G01*
X025353880Y-07967317D01*
G01*
X025261470Y-07794430D01*
G01*
X025137107Y-07642893D01*
G01*
X024985570Y-07518530D01*
G01*
X024812683Y-07426120D01*
G01*
X024625090Y-07369215D01*
G01*
X024430000Y-07350000D01*
G01*
X024234910Y-07369215D01*
G01*
X024047317Y-07426120D01*
G01*
X023874430Y-07518530D01*
G01*
X023722893Y-07642893D01*
G01*
X023598530Y-07794430D01*
G01*
X023506120Y-07967317D01*
G01*
X023449215Y-08154910D01*
G01*
X023430000Y-08350000D01*
G01*
X023449215Y-08545090D01*
G01*
X023506120Y-08732683D01*
G01*
X023534535Y-08785845D01*
G01*
X022706380Y-09614000D01*
G01*
X019825474Y-09614000D01*
G01*
X019816228Y-09606412D01*
G01*
X019747073Y-09569448D01*
G01*
X019672036Y-09546686D01*
G01*
X019594000Y-09539000D01*
G01*
X019515964Y-09546686D01*
G01*
X019440927Y-09569448D01*
G01*
X019371772Y-09606412D01*
G01*
X019311157Y-09656157D01*
G01*
X019261412Y-09716772D01*
G01*
X019224448Y-09785927D01*
G01*
X019201686Y-09860964D01*
G01*
X019194000Y-09939000D01*
G01*
X019201686Y-10017036D01*
G01*
X019224448Y-10092073D01*
G01*
X019261412Y-10161228D01*
G01*
X019311157Y-10221843D01*
G01*
X019371772Y-10271588D01*
G01*
X019440927Y-10308552D01*
G01*
X019515964Y-10331314D01*
G01*
X019594000Y-10339000D01*
G37*
D38*
G36*
X-65460000Y-16000000D02*
G01*
X-65264910Y-15980785D01*
G01*
X-65077317Y-15923880D01*
G01*
X-64904430Y-15831470D01*
G01*
X-64752893Y-15707107D01*
G01*
X-64628530Y-15555570D01*
G01*
X-64536120Y-15382683D01*
G01*
X-64479215Y-15195090D01*
G01*
X-64460000Y-15000000D01*
G01*
X-64479215Y-14804910D01*
G01*
X-64536120Y-14617317D01*
G01*
X-64628530Y-14444430D01*
G01*
X-64752893Y-14292893D01*
G01*
X-64904430Y-14168530D01*
G01*
X-65077317Y-14076120D01*
G01*
X-65135000Y-14058622D01*
G01*
X-65135000Y-12526793D01*
G01*
X-62036007Y-09427800D01*
G01*
X-61998927Y-09416552D01*
G01*
X-61929772Y-09379588D01*
G01*
X-61869157Y-09329843D01*
G01*
X-61819412Y-09269228D01*
G01*
X-61782448Y-09200073D01*
G01*
X-61759686Y-09125036D01*
G01*
X-61752000Y-09047000D01*
G01*
X-61759686Y-08968964D01*
G01*
X-61782448Y-08893927D01*
G01*
X-61819412Y-08824772D01*
G01*
X-61869157Y-08764157D01*
G01*
X-61929772Y-08714412D01*
G01*
X-61998927Y-08677448D01*
G01*
X-62073964Y-08654686D01*
G01*
X-62152000Y-08647000D01*
G01*
X-62230036Y-08654686D01*
G01*
X-62305073Y-08677448D01*
G01*
X-62374228Y-08714412D01*
G01*
X-62434843Y-08764157D01*
G01*
X-62484588Y-08824772D01*
G01*
X-62521552Y-08893927D01*
G01*
X-62544314Y-08968964D01*
G01*
X-62549548Y-09022102D01*
G01*
X-65689810Y-12162364D01*
G01*
X-65730228Y-12211613D01*
G01*
X-65760261Y-12267802D01*
G01*
X-65778755Y-12328769D01*
G01*
X-65785000Y-12392174D01*
G01*
X-65785000Y-14058622D01*
G01*
X-65842683Y-14076120D01*
G01*
X-66015570Y-14168530D01*
G01*
X-66167107Y-14292893D01*
G01*
X-66291470Y-14444430D01*
G01*
X-66383880Y-14617317D01*
G01*
X-66440785Y-14804910D01*
G01*
X-66460000Y-15000000D01*
G01*
X-66440785Y-15195090D01*
G01*
X-66383880Y-15382683D01*
G01*
X-66291470Y-15555570D01*
G01*
X-66167107Y-15707107D01*
G01*
X-66015570Y-15831470D01*
G01*
X-65842683Y-15923880D01*
G01*
X-65655090Y-15980785D01*
G01*
X-65460000Y-16000000D01*
G37*
D38*
G36*
X001570000Y-11890000D02*
G01*
X001765090Y-11870785D01*
G01*
X001952683Y-11813880D01*
G01*
X002125570Y-11721470D01*
G01*
X002277107Y-11597107D01*
G01*
X002401470Y-11445570D01*
G01*
X002493880Y-11272683D01*
G01*
X002550785Y-11085090D01*
G01*
X002570000Y-10890000D01*
G01*
X002550785Y-10694910D01*
G01*
X002493880Y-10507317D01*
G01*
X002401470Y-10334430D01*
G01*
X002277107Y-10182893D01*
G01*
X002125570Y-10058530D01*
G01*
X001952683Y-09966120D01*
G01*
X001765090Y-09909215D01*
G01*
X001570000Y-09890000D01*
G01*
X001374910Y-09909215D01*
G01*
X001187317Y-09966120D01*
G01*
X001014430Y-10058530D01*
G01*
X000862893Y-10182893D01*
G01*
X000738530Y-10334430D01*
G01*
X000646120Y-10507317D01*
G01*
X000589215Y-10694910D01*
G01*
X000570000Y-10890000D01*
G01*
X000589215Y-11085090D01*
G01*
X000646120Y-11272683D01*
G01*
X000738530Y-11445570D01*
G01*
X000862893Y-11597107D01*
G01*
X001014430Y-11721470D01*
G01*
X001187317Y-11813880D01*
G01*
X001374910Y-11870785D01*
G01*
X001570000Y-11890000D01*
G37*
D38*
G36*
X024430000Y-11890000D02*
G01*
X024625090Y-11870785D01*
G01*
X024812683Y-11813880D01*
G01*
X024985570Y-11721470D01*
G01*
X025137107Y-11597107D01*
G01*
X025261470Y-11445570D01*
G01*
X025353880Y-11272683D01*
G01*
X025410785Y-11085090D01*
G01*
X025430000Y-10890000D01*
G01*
X025410785Y-10694910D01*
G01*
X025353880Y-10507317D01*
G01*
X025261470Y-10334430D01*
G01*
X025137107Y-10182893D01*
G01*
X024985570Y-10058530D01*
G01*
X024812683Y-09966120D01*
G01*
X024625090Y-09909215D01*
G01*
X024430000Y-09890000D01*
G01*
X024234910Y-09909215D01*
G01*
X024047317Y-09966120D01*
G01*
X023874430Y-10058530D01*
G01*
X023722893Y-10182893D01*
G01*
X023598530Y-10334430D01*
G01*
X023506120Y-10507317D01*
G01*
X023449215Y-10694910D01*
G01*
X023430000Y-10890000D01*
G01*
X023449215Y-11085090D01*
G01*
X023506120Y-11272683D01*
G01*
X023598530Y-11445570D01*
G01*
X023722893Y-11597107D01*
G01*
X023874430Y-11721470D01*
G01*
X024047317Y-11813880D01*
G01*
X024234910Y-11870785D01*
G01*
X024430000Y-11890000D01*
G37*
D38*
G36*
X001570000Y-16970000D02*
G01*
X001765090Y-16950785D01*
G01*
X001952683Y-16893880D01*
G01*
X002125570Y-16801470D01*
G01*
X002277107Y-16677107D01*
G01*
X002401470Y-16525570D01*
G01*
X002493880Y-16352683D01*
G01*
X002550785Y-16165090D01*
G01*
X002570000Y-15970000D01*
G01*
X002550785Y-15774910D01*
G01*
X002493880Y-15587317D01*
G01*
X002465465Y-15534155D01*
G01*
X003181218Y-14818402D01*
G01*
X003221635Y-14769152D01*
G01*
X003251669Y-14712964D01*
G01*
X003270163Y-14651996D01*
G01*
X003276408Y-14588592D01*
G01*
X003276408Y-10720586D01*
G01*
X003285843Y-10712843D01*
G01*
X003335588Y-10652228D01*
G01*
X003372552Y-10583073D01*
G01*
X003395314Y-10508036D01*
G01*
X003403000Y-10430000D01*
G01*
X003395314Y-10351964D01*
G01*
X003372552Y-10276927D01*
G01*
X003335588Y-10207772D01*
G01*
X003285843Y-10147157D01*
G01*
X003225228Y-10097412D01*
G01*
X003156073Y-10060448D01*
G01*
X003081036Y-10037686D01*
G01*
X003003000Y-10030000D01*
G01*
X002924964Y-10037686D01*
G01*
X002849927Y-10060448D01*
G01*
X002780772Y-10097412D01*
G01*
X002720157Y-10147157D01*
G01*
X002670412Y-10207772D01*
G01*
X002633448Y-10276927D01*
G01*
X002610686Y-10351964D01*
G01*
X002603000Y-10430000D01*
G01*
X002610686Y-10508036D01*
G01*
X002626408Y-10559865D01*
G01*
X002626408Y-14453972D01*
G01*
X002005845Y-15074535D01*
G01*
X001952683Y-15046120D01*
G01*
X001765090Y-14989215D01*
G01*
X001570000Y-14970000D01*
G01*
X001374910Y-14989215D01*
G01*
X001187317Y-15046120D01*
G01*
X001014430Y-15138530D01*
G01*
X000862893Y-15262893D01*
G01*
X000738530Y-15414430D01*
G01*
X000646120Y-15587317D01*
G01*
X000589215Y-15774910D01*
G01*
X000570000Y-15970000D01*
G01*
X000589215Y-16165090D01*
G01*
X000646120Y-16352683D01*
G01*
X000738530Y-16525570D01*
G01*
X000862893Y-16677107D01*
G01*
X001014430Y-16801470D01*
G01*
X001187317Y-16893880D01*
G01*
X001374910Y-16950785D01*
G01*
X001570000Y-16970000D01*
G37*
D38*
G36*
X001570000Y-14430000D02*
G01*
X001765090Y-14410785D01*
G01*
X001952683Y-14353880D01*
G01*
X002125570Y-14261470D01*
G01*
X002277107Y-14137107D01*
G01*
X002401470Y-13985570D01*
G01*
X002493880Y-13812683D01*
G01*
X002550785Y-13625090D01*
G01*
X002570000Y-13430000D01*
G01*
X002550785Y-13234910D01*
G01*
X002493880Y-13047317D01*
G01*
X002401470Y-12874430D01*
G01*
X002277107Y-12722893D01*
G01*
X002125570Y-12598530D01*
G01*
X001952683Y-12506120D01*
G01*
X001765090Y-12449215D01*
G01*
X001570000Y-12430000D01*
G01*
X001374910Y-12449215D01*
G01*
X001187317Y-12506120D01*
G01*
X001014430Y-12598530D01*
G01*
X000862893Y-12722893D01*
G01*
X000738530Y-12874430D01*
G01*
X000646120Y-13047317D01*
G01*
X000589215Y-13234910D01*
G01*
X000570000Y-13430000D01*
G01*
X000589215Y-13625090D01*
G01*
X000646120Y-13812683D01*
G01*
X000738530Y-13985570D01*
G01*
X000862893Y-14137107D01*
G01*
X001014430Y-14261470D01*
G01*
X001187317Y-14353880D01*
G01*
X001374910Y-14410785D01*
G01*
X001570000Y-14430000D01*
G37*
D38*
G36*
X024430000Y-14430000D02*
G01*
X024625090Y-14410785D01*
G01*
X024812683Y-14353880D01*
G01*
X024985570Y-14261470D01*
G01*
X025137107Y-14137107D01*
G01*
X025261470Y-13985570D01*
G01*
X025353880Y-13812683D01*
G01*
X025410785Y-13625090D01*
G01*
X025430000Y-13430000D01*
G01*
X025410785Y-13234910D01*
G01*
X025353880Y-13047317D01*
G01*
X025261470Y-12874430D01*
G01*
X025137107Y-12722893D01*
G01*
X024985570Y-12598530D01*
G01*
X024812683Y-12506120D01*
G01*
X024625090Y-12449215D01*
G01*
X024430000Y-12430000D01*
G01*
X024234910Y-12449215D01*
G01*
X024047317Y-12506120D01*
G01*
X023874430Y-12598530D01*
G01*
X023722893Y-12722893D01*
G01*
X023598530Y-12874430D01*
G01*
X023506120Y-13047317D01*
G01*
X023449215Y-13234910D01*
G01*
X023430000Y-13430000D01*
G01*
X023449215Y-13625090D01*
G01*
X023506120Y-13812683D01*
G01*
X023598530Y-13985570D01*
G01*
X023722893Y-14137107D01*
G01*
X023874430Y-14261470D01*
G01*
X024047317Y-14353880D01*
G01*
X024234910Y-14410785D01*
G01*
X024430000Y-14430000D01*
G37*
D38*
G36*
X-71540000Y-16000000D02*
G01*
X-69540000Y-16000000D01*
G01*
X-69540000Y-14000000D01*
G01*
X-71540000Y-14000000D01*
G01*
X-71540000Y-16000000D01*
G37*
D38*
G36*
X-68000000Y-16000000D02*
G01*
X-67804910Y-15980785D01*
G01*
X-67617317Y-15923880D01*
G01*
X-67444430Y-15831470D01*
G01*
X-67292893Y-15707107D01*
G01*
X-67168530Y-15555570D01*
G01*
X-67076120Y-15382683D01*
G01*
X-67019215Y-15195090D01*
G01*
X-67000000Y-15000000D01*
G01*
X-67019215Y-14804910D01*
G01*
X-67076120Y-14617317D01*
G01*
X-67168530Y-14444430D01*
G01*
X-67292893Y-14292893D01*
G01*
X-67444430Y-14168530D01*
G01*
X-67617317Y-14076120D01*
G01*
X-67804910Y-14019215D01*
G01*
X-68000000Y-14000000D01*
G01*
X-68195090Y-14019215D01*
G01*
X-68382683Y-14076120D01*
G01*
X-68555570Y-14168530D01*
G01*
X-68707107Y-14292893D01*
G01*
X-68831470Y-14444430D01*
G01*
X-68923880Y-14617317D01*
G01*
X-68980785Y-14804910D01*
G01*
X-69000000Y-15000000D01*
G01*
X-68980785Y-15195090D01*
G01*
X-68923880Y-15382683D01*
G01*
X-68831470Y-15555570D01*
G01*
X-68707107Y-15707107D01*
G01*
X-68555570Y-15831470D01*
G01*
X-68382683Y-15923880D01*
G01*
X-68195090Y-15980785D01*
G01*
X-68000000Y-16000000D01*
G37*
D38*
G36*
X024430000Y-16970000D02*
G01*
X024625090Y-16950785D01*
G01*
X024812683Y-16893880D01*
G01*
X024985570Y-16801470D01*
G01*
X025137107Y-16677107D01*
G01*
X025261470Y-16525570D01*
G01*
X025353880Y-16352683D01*
G01*
X025410785Y-16165090D01*
G01*
X025430000Y-15970000D01*
G01*
X025410785Y-15774910D01*
G01*
X025353880Y-15587317D01*
G01*
X025261470Y-15414430D01*
G01*
X025137107Y-15262893D01*
G01*
X024985570Y-15138530D01*
G01*
X024812683Y-15046120D01*
G01*
X024625090Y-14989215D01*
G01*
X024430000Y-14970000D01*
G01*
X024234910Y-14989215D01*
G01*
X024047317Y-15046120D01*
G01*
X023874430Y-15138530D01*
G01*
X023722893Y-15262893D01*
G01*
X023598530Y-15414430D01*
G01*
X023506120Y-15587317D01*
G01*
X023449215Y-15774910D01*
G01*
X023430000Y-15970000D01*
G01*
X023449215Y-16165090D01*
G01*
X023506120Y-16352683D01*
G01*
X023598530Y-16525570D01*
G01*
X023722893Y-16677107D01*
G01*
X023874430Y-16801470D01*
G01*
X024047317Y-16893880D01*
G01*
X024234910Y-16950785D01*
G01*
X024430000Y-16970000D01*
G37*
D38*
G36*
X060799000Y-18778000D02*
G01*
X060877036Y-18770314D01*
G01*
X060952073Y-18747552D01*
G01*
X061021228Y-18710588D01*
G01*
X061081843Y-18660843D01*
G01*
X061131588Y-18600228D01*
G01*
X061168552Y-18531073D01*
G01*
X061191314Y-18456036D01*
G01*
X061199000Y-18378000D01*
G01*
X061191314Y-18299964D01*
G01*
X061168552Y-18224927D01*
G01*
X061131588Y-18155772D01*
G01*
X061081843Y-18095157D01*
G01*
X061021228Y-18045412D01*
G01*
X060952073Y-18008448D01*
G01*
X060877036Y-17985686D01*
G01*
X060799000Y-17978000D01*
G01*
X060720964Y-17985686D01*
G01*
X060645927Y-18008448D01*
G01*
X060577543Y-18045000D01*
G01*
X059429474Y-18045000D01*
G01*
X059420228Y-18037412D01*
G01*
X059351073Y-18000448D01*
G01*
X059276036Y-17977686D01*
G01*
X059198000Y-17970000D01*
G01*
X059119964Y-17977686D01*
G01*
X059044927Y-18000448D01*
G01*
X058975772Y-18037412D01*
G01*
X058915157Y-18087157D01*
G01*
X058865412Y-18147772D01*
G01*
X058828448Y-18216927D01*
G01*
X058805686Y-18291964D01*
G01*
X058798000Y-18370000D01*
G01*
X058805686Y-18448036D01*
G01*
X058828448Y-18523073D01*
G01*
X058865412Y-18592228D01*
G01*
X058915157Y-18652843D01*
G01*
X058975772Y-18702588D01*
G01*
X059044927Y-18739552D01*
G01*
X059119964Y-18762314D01*
G01*
X059198000Y-18770000D01*
G01*
X059276036Y-18762314D01*
G01*
X059351073Y-18739552D01*
G01*
X059420228Y-18702588D01*
G01*
X059429474Y-18695000D01*
G01*
X060557778Y-18695000D01*
G01*
X060576772Y-18710588D01*
G01*
X060645927Y-18747552D01*
G01*
X060720964Y-18770314D01*
G01*
X060799000Y-18778000D01*
G37*
D38*
G36*
X024430000Y-27130000D02*
G01*
X024625090Y-27110785D01*
G01*
X024812683Y-27053880D01*
G01*
X024985570Y-26961470D01*
G01*
X025137107Y-26837107D01*
G01*
X025261470Y-26685570D01*
G01*
X025353880Y-26512683D01*
G01*
X025410785Y-26325090D01*
G01*
X025430000Y-26130000D01*
G01*
X025410785Y-25934910D01*
G01*
X025353880Y-25747317D01*
G01*
X025325465Y-25694155D01*
G01*
X031802314Y-19217305D01*
G01*
X046146850Y-19217305D01*
G01*
X046148412Y-19220228D01*
G01*
X046198157Y-19280843D01*
G01*
X046258772Y-19330588D01*
G01*
X046327927Y-19367552D01*
G01*
X046402964Y-19390314D01*
G01*
X046481000Y-19398000D01*
G01*
X046559036Y-19390314D01*
G01*
X046634073Y-19367552D01*
G01*
X046703228Y-19330588D01*
G01*
X046763843Y-19280843D01*
G01*
X046813588Y-19220228D01*
G01*
X046850552Y-19151073D01*
G01*
X046873314Y-19076036D01*
G01*
X046881000Y-18998000D01*
G01*
X046873314Y-18919964D01*
G01*
X046850552Y-18844927D01*
G01*
X046813588Y-18775772D01*
G01*
X046763843Y-18715157D01*
G01*
X046703228Y-18665412D01*
G01*
X046634073Y-18628448D01*
G01*
X046559036Y-18605686D01*
G01*
X046517556Y-18601601D01*
G01*
X046499677Y-18592044D01*
G01*
X046438709Y-18573549D01*
G01*
X046375305Y-18567305D01*
G01*
X046276208Y-18567305D01*
G01*
X031667695Y-18567305D01*
G01*
X031604291Y-18573549D01*
G01*
X031543323Y-18592044D01*
G01*
X031487135Y-18622077D01*
G01*
X031437886Y-18662495D01*
G01*
X024865845Y-25234535D01*
G01*
X024812683Y-25206120D01*
G01*
X024625090Y-25149215D01*
G01*
X024430000Y-25130000D01*
G01*
X024234910Y-25149215D01*
G01*
X024047317Y-25206120D01*
G01*
X023874430Y-25298530D01*
G01*
X023722893Y-25422893D01*
G01*
X023598530Y-25574430D01*
G01*
X023506120Y-25747317D01*
G01*
X023449215Y-25934910D01*
G01*
X023430000Y-26130000D01*
G01*
X023449215Y-26325090D01*
G01*
X023506120Y-26512683D01*
G01*
X023598530Y-26685570D01*
G01*
X023722893Y-26837107D01*
G01*
X023874430Y-26961470D01*
G01*
X024047317Y-27053880D01*
G01*
X024234910Y-27110785D01*
G01*
X024430000Y-27130000D01*
G37*
D38*
G36*
X024430000Y-22050000D02*
G01*
X024625090Y-22030785D01*
G01*
X024812683Y-21973880D01*
G01*
X024985570Y-21881470D01*
G01*
X025137107Y-21757107D01*
G01*
X025261470Y-21605570D01*
G01*
X025353880Y-21432683D01*
G01*
X025410785Y-21245090D01*
G01*
X025430000Y-21050000D01*
G01*
X025410785Y-20854910D01*
G01*
X025353880Y-20667317D01*
G01*
X025261470Y-20494430D01*
G01*
X025137107Y-20342893D01*
G01*
X024985570Y-20218530D01*
G01*
X024812683Y-20126120D01*
G01*
X024625090Y-20069215D01*
G01*
X024430000Y-20050000D01*
G01*
X024234910Y-20069215D01*
G01*
X024047317Y-20126120D01*
G01*
X023874430Y-20218530D01*
G01*
X023722893Y-20342893D01*
G01*
X023598530Y-20494430D01*
G01*
X023506120Y-20667317D01*
G01*
X023449215Y-20854910D01*
G01*
X023430000Y-21050000D01*
G01*
X023449215Y-21245090D01*
G01*
X023506120Y-21432683D01*
G01*
X023598530Y-21605570D01*
G01*
X023722893Y-21757107D01*
G01*
X023874430Y-21881470D01*
G01*
X024047317Y-21973880D01*
G01*
X024234910Y-22030785D01*
G01*
X024430000Y-22050000D01*
G37*
D38*
G36*
X043040000Y-22610000D02*
G01*
X045340000Y-22610000D01*
G01*
X045340000Y-20310000D01*
G01*
X043040000Y-20310000D01*
G01*
X043040000Y-22610000D01*
G37*
D38*
G36*
X050660000Y-22610000D02*
G01*
X052960000Y-22610000D01*
G01*
X052960000Y-20310000D01*
G01*
X050660000Y-20310000D01*
G01*
X050660000Y-22610000D01*
G37*
D38*
G36*
X063040000Y-22610000D02*
G01*
X065340000Y-22610000D01*
G01*
X065340000Y-20310000D01*
G01*
X063040000Y-20310000D01*
G01*
X063040000Y-22610000D01*
G37*
D38*
G36*
X070660000Y-22610000D02*
G01*
X072960000Y-22610000D01*
G01*
X072960000Y-20310000D01*
G01*
X070660000Y-20310000D01*
G01*
X070660000Y-22610000D01*
G37*
D38*
G36*
X001570000Y-24590000D02*
G01*
X001765090Y-24570785D01*
G01*
X001952683Y-24513880D01*
G01*
X002125570Y-24421470D01*
G01*
X002277107Y-24297107D01*
G01*
X002401470Y-24145570D01*
G01*
X002493880Y-23972683D01*
G01*
X002550785Y-23785090D01*
G01*
X002570000Y-23590000D01*
G01*
X002550785Y-23394910D01*
G01*
X002493880Y-23207317D01*
G01*
X002401470Y-23034430D01*
G01*
X002277107Y-22882893D01*
G01*
X002125570Y-22758530D01*
G01*
X001952683Y-22666120D01*
G01*
X001765090Y-22609215D01*
G01*
X001570000Y-22590000D01*
G01*
X001374910Y-22609215D01*
G01*
X001187317Y-22666120D01*
G01*
X001014430Y-22758530D01*
G01*
X000862893Y-22882893D01*
G01*
X000738530Y-23034430D01*
G01*
X000646120Y-23207317D01*
G01*
X000589215Y-23394910D01*
G01*
X000570000Y-23590000D01*
G01*
X000589215Y-23785090D01*
G01*
X000646120Y-23972683D01*
G01*
X000738530Y-24145570D01*
G01*
X000862893Y-24297107D01*
G01*
X001014430Y-24421470D01*
G01*
X001187317Y-24513880D01*
G01*
X001374910Y-24570785D01*
G01*
X001570000Y-24590000D01*
G37*
D38*
G36*
X024430000Y-24590000D02*
G01*
X024625090Y-24570785D01*
G01*
X024812683Y-24513880D01*
G01*
X024985570Y-24421470D01*
G01*
X025137107Y-24297107D01*
G01*
X025261470Y-24145570D01*
G01*
X025353880Y-23972683D01*
G01*
X025410785Y-23785090D01*
G01*
X025430000Y-23590000D01*
G01*
X025410785Y-23394910D01*
G01*
X025353880Y-23207317D01*
G01*
X025261470Y-23034430D01*
G01*
X025137107Y-22882893D01*
G01*
X024985570Y-22758530D01*
G01*
X024812683Y-22666120D01*
G01*
X024625090Y-22609215D01*
G01*
X024430000Y-22590000D01*
G01*
X024234910Y-22609215D01*
G01*
X024047317Y-22666120D01*
G01*
X023874430Y-22758530D01*
G01*
X023722893Y-22882893D01*
G01*
X023598530Y-23034430D01*
G01*
X023506120Y-23207317D01*
G01*
X023449215Y-23394910D01*
G01*
X023430000Y-23590000D01*
G01*
X023449215Y-23785090D01*
G01*
X023506120Y-23972683D01*
G01*
X023598530Y-24145570D01*
G01*
X023722893Y-24297107D01*
G01*
X023874430Y-24421470D01*
G01*
X024047317Y-24513880D01*
G01*
X024234910Y-24570785D01*
G01*
X024430000Y-24590000D01*
G37*
D38*
G36*
X041670000Y-31250000D02*
G01*
X044170000Y-31250000D01*
G01*
X044170000Y-30325000D01*
G01*
X045810000Y-30325000D01*
G01*
X045873404Y-30318755D01*
G01*
X045934372Y-30300261D01*
G01*
X045990560Y-30270228D01*
G01*
X046039810Y-30229810D01*
G01*
X050660000Y-25609620D01*
G01*
X050660000Y-27690000D01*
G01*
X052960000Y-27690000D01*
G01*
X052960000Y-25390000D01*
G01*
X050879620Y-25390000D01*
G01*
X051119620Y-25150000D01*
G01*
X052960000Y-25150000D01*
G01*
X052960000Y-22850000D01*
G01*
X050660000Y-22850000D01*
G01*
X050660000Y-24690380D01*
G01*
X045675380Y-29675000D01*
G01*
X044170000Y-29675000D01*
G01*
X044170000Y-28750000D01*
G01*
X041670000Y-28750000D01*
G01*
X041670000Y-31250000D01*
G37*
D38*
G36*
X061670000Y-31250000D02*
G01*
X064170000Y-31250000D01*
G01*
X064170000Y-30325000D01*
G01*
X065810000Y-30325000D01*
G01*
X065873404Y-30318755D01*
G01*
X065934372Y-30300261D01*
G01*
X065990560Y-30270228D01*
G01*
X066039810Y-30229810D01*
G01*
X070660000Y-25609620D01*
G01*
X070660000Y-27690000D01*
G01*
X072960000Y-27690000D01*
G01*
X072960000Y-25390000D01*
G01*
X070879620Y-25390000D01*
G01*
X071119620Y-25150000D01*
G01*
X072960000Y-25150000D01*
G01*
X072960000Y-22850000D01*
G01*
X070660000Y-22850000D01*
G01*
X070660000Y-24690380D01*
G01*
X065675380Y-29675000D01*
G01*
X064170000Y-29675000D01*
G01*
X064170000Y-28750000D01*
G01*
X061670000Y-28750000D01*
G01*
X061670000Y-29675000D01*
G01*
X061271741Y-29675000D01*
G01*
X059610152Y-28013411D01*
G01*
X059602060Y-27998272D01*
G01*
X059567629Y-27956319D01*
G01*
X059566314Y-27942964D01*
G01*
X059543552Y-27867927D01*
G01*
X059506588Y-27798772D01*
G01*
X059456843Y-27738157D01*
G01*
X059396228Y-27688412D01*
G01*
X059327073Y-27651448D01*
G01*
X059252036Y-27628686D01*
G01*
X059174000Y-27621000D01*
G01*
X059095964Y-27628686D01*
G01*
X059020927Y-27651448D01*
G01*
X058951772Y-27688412D01*
G01*
X058891157Y-27738157D01*
G01*
X058841412Y-27798772D01*
G01*
X058804448Y-27867927D01*
G01*
X058781686Y-27942964D01*
G01*
X058774000Y-28021000D01*
G01*
X058781686Y-28099036D01*
G01*
X058804448Y-28174073D01*
G01*
X058841412Y-28243228D01*
G01*
X058891157Y-28303843D01*
G01*
X058951772Y-28353588D01*
G01*
X059020927Y-28390552D01*
G01*
X059091786Y-28412046D01*
G01*
X059102023Y-28424521D01*
G01*
X060907312Y-30229810D01*
G01*
X060956561Y-30270228D01*
G01*
X061012749Y-30300261D01*
G01*
X061073717Y-30318755D01*
G01*
X061137122Y-30325000D01*
G01*
X061670000Y-30325000D01*
G01*
X061670000Y-31250000D01*
G37*
D38*
G36*
X-31260000Y-26750000D02*
G01*
X-29060000Y-26750000D01*
G01*
X-29060000Y-24550000D01*
G01*
X-31260000Y-24550000D01*
G01*
X-31260000Y-26750000D01*
G37*
D38*
G36*
X043040000Y-27690000D02*
G01*
X045340000Y-27690000D01*
G01*
X045340000Y-25390000D01*
G01*
X043040000Y-25390000D01*
G01*
X043040000Y-27690000D01*
G37*
D38*
G36*
X063040000Y-27690000D02*
G01*
X065340000Y-27690000D01*
G01*
X065340000Y-25390000D01*
G01*
X063040000Y-25390000D01*
G01*
X063040000Y-27690000D01*
G37*
D38*
G36*
X-31260000Y-29290000D02*
G01*
X-29060000Y-29290000D01*
G01*
X-29060000Y-27090000D01*
G01*
X-31260000Y-27090000D01*
G01*
X-31260000Y-29290000D01*
G37*
D38*
G36*
X-10940000Y-29290000D02*
G01*
X-08740000Y-29290000D01*
G01*
X-08740000Y-27090000D01*
G01*
X-10940000Y-27090000D01*
G01*
X-10940000Y-29290000D01*
G37*
D38*
G36*
X000570000Y-29670000D02*
G01*
X002570000Y-29670000D01*
G01*
X002570000Y-27670000D01*
G01*
X000570000Y-27670000D01*
G01*
X000570000Y-29670000D01*
G37*
D38*
G36*
X051830000Y-31250000D02*
G01*
X054330000Y-31250000D01*
G01*
X054330000Y-28750000D01*
G01*
X051830000Y-28750000D01*
G01*
X051830000Y-31250000D01*
G37*
D38*
G36*
X071830000Y-31250000D02*
G01*
X074330000Y-31250000D01*
G01*
X074330000Y-28750000D01*
G01*
X071830000Y-28750000D01*
G01*
X071830000Y-31250000D01*
G37*
D38*
G36*
X041905000Y-41585000D02*
G01*
X042090336Y-41566746D01*
G01*
X042268549Y-41512686D01*
G01*
X042432792Y-41424896D01*
G01*
X042576751Y-41306751D01*
G01*
X042694896Y-41162792D01*
G01*
X042782686Y-40998549D01*
G01*
X042836746Y-40820336D01*
G01*
X042855000Y-40635000D01*
G01*
X042836746Y-40449664D01*
G01*
X042782686Y-40271451D01*
G01*
X042694896Y-40107208D01*
G01*
X042576751Y-39963249D01*
G01*
X042432792Y-39845104D01*
G01*
X042268549Y-39757314D01*
G01*
X042090336Y-39703254D01*
G01*
X041905000Y-39685000D01*
G01*
X041719664Y-39703254D01*
G01*
X041541451Y-39757314D01*
G01*
X041479656Y-39790344D01*
G01*
X041512686Y-39728549D01*
G01*
X041566746Y-39550336D01*
G01*
X041585000Y-39365000D01*
G01*
X041566746Y-39179664D01*
G01*
X041512686Y-39001451D01*
G01*
X041424896Y-38837208D01*
G01*
X041306751Y-38693249D01*
G01*
X041162792Y-38575104D01*
G01*
X040998549Y-38487314D01*
G01*
X040820336Y-38433254D01*
G01*
X040635000Y-38415000D01*
G01*
X040449664Y-38433254D01*
G01*
X040271451Y-38487314D01*
G01*
X040107208Y-38575104D01*
G01*
X039963249Y-38693249D01*
G01*
X039845104Y-38837208D01*
G01*
X039757314Y-39001451D01*
G01*
X039703254Y-39179664D01*
G01*
X039685000Y-39365000D01*
G01*
X039703254Y-39550336D01*
G01*
X039757314Y-39728549D01*
G01*
X039790344Y-39790344D01*
G01*
X039728549Y-39757314D01*
G01*
X039550336Y-39703254D01*
G01*
X039365000Y-39685000D01*
G01*
X039179664Y-39703254D01*
G01*
X039001451Y-39757314D01*
G01*
X038939656Y-39790344D01*
G01*
X038972686Y-39728549D01*
G01*
X039026746Y-39550336D01*
G01*
X039045000Y-39365000D01*
G01*
X039026746Y-39179664D01*
G01*
X038972686Y-39001451D01*
G01*
X038884896Y-38837208D01*
G01*
X038766751Y-38693249D01*
G01*
X038622792Y-38575104D01*
G01*
X038458549Y-38487314D01*
G01*
X038420000Y-38475620D01*
G01*
X038420000Y-30434255D01*
G01*
X038413755Y-30370851D01*
G01*
X038395261Y-30309883D01*
G01*
X038365228Y-30253695D01*
G01*
X038324810Y-30204446D01*
G01*
X037386742Y-29266378D01*
G01*
X037379314Y-29190964D01*
G01*
X037356552Y-29115927D01*
G01*
X037319588Y-29046772D01*
G01*
X037269843Y-28986157D01*
G01*
X037209228Y-28936412D01*
G01*
X037140073Y-28899448D01*
G01*
X037065036Y-28876686D01*
G01*
X036987000Y-28869000D01*
G01*
X036908964Y-28876686D01*
G01*
X036833927Y-28899448D01*
G01*
X036764772Y-28936412D01*
G01*
X036704157Y-28986157D01*
G01*
X036654412Y-29046772D01*
G01*
X036617448Y-29115927D01*
G01*
X036594686Y-29190964D01*
G01*
X036587000Y-29269000D01*
G01*
X036594686Y-29347036D01*
G01*
X036617448Y-29422073D01*
G01*
X036654412Y-29491228D01*
G01*
X036704157Y-29551843D01*
G01*
X036764772Y-29601588D01*
G01*
X036833927Y-29638552D01*
G01*
X036842181Y-29641056D01*
G01*
X037770000Y-30568875D01*
G01*
X037770000Y-38475620D01*
G01*
X037731451Y-38487314D01*
G01*
X037567208Y-38575104D01*
G01*
X037423249Y-38693249D01*
G01*
X037305104Y-38837208D01*
G01*
X037217314Y-39001451D01*
G01*
X037163254Y-39179664D01*
G01*
X037145000Y-39365000D01*
G01*
X037163254Y-39550336D01*
G01*
X037217314Y-39728549D01*
G01*
X037305104Y-39892792D01*
G01*
X037423249Y-40036751D01*
G01*
X037567208Y-40154896D01*
G01*
X037731451Y-40242686D01*
G01*
X037909664Y-40296746D01*
G01*
X038095000Y-40315000D01*
G01*
X038280336Y-40296746D01*
G01*
X038458549Y-40242686D01*
G01*
X038520344Y-40209656D01*
G01*
X038487314Y-40271451D01*
G01*
X038433254Y-40449664D01*
G01*
X038415000Y-40635000D01*
G01*
X038433254Y-40820336D01*
G01*
X038487314Y-40998549D01*
G01*
X038575104Y-41162792D01*
G01*
X038693249Y-41306751D01*
G01*
X038837208Y-41424896D01*
G01*
X039001451Y-41512686D01*
G01*
X039179664Y-41566746D01*
G01*
X039365000Y-41585000D01*
G01*
X039550336Y-41566746D01*
G01*
X039728549Y-41512686D01*
G01*
X039892792Y-41424896D01*
G01*
X040036751Y-41306751D01*
G01*
X040154896Y-41162792D01*
G01*
X040242686Y-40998549D01*
G01*
X040296746Y-40820336D01*
G01*
X040315000Y-40635000D01*
G01*
X040296746Y-40449664D01*
G01*
X040242686Y-40271451D01*
G01*
X040209656Y-40209656D01*
G01*
X040271451Y-40242686D01*
G01*
X040449664Y-40296746D01*
G01*
X040635000Y-40315000D01*
G01*
X040820336Y-40296746D01*
G01*
X040998549Y-40242686D01*
G01*
X041060344Y-40209656D01*
G01*
X041027314Y-40271451D01*
G01*
X040973254Y-40449664D01*
G01*
X040955000Y-40635000D01*
G01*
X040973254Y-40820336D01*
G01*
X041027314Y-40998549D01*
G01*
X041115104Y-41162792D01*
G01*
X041233249Y-41306751D01*
G01*
X041377208Y-41424896D01*
G01*
X041541451Y-41512686D01*
G01*
X041719664Y-41566746D01*
G01*
X041905000Y-41585000D01*
G37*
D38*
G36*
X-10940000Y-31830000D02*
G01*
X-08740000Y-31830000D01*
G01*
X-08740000Y-29630000D01*
G01*
X-10940000Y-29630000D01*
G01*
X-10940000Y-31830000D01*
G37*
D38*
G36*
X-10940000Y-34370000D02*
G01*
X-08740000Y-34370000D01*
G01*
X-08740000Y-32170000D01*
G01*
X-10940000Y-32170000D01*
G01*
X-10940000Y-34370000D01*
G37*
D38*
G36*
X-10940000Y-36910000D02*
G01*
X-08740000Y-36910000D01*
G01*
X-08740000Y-34710000D01*
G01*
X-10940000Y-34710000D01*
G01*
X-10940000Y-36910000D01*
G37*
D38*
G36*
X061905000Y-41585000D02*
G01*
X062090336Y-41566746D01*
G01*
X062268549Y-41512686D01*
G01*
X062432792Y-41424896D01*
G01*
X062576751Y-41306751D01*
G01*
X062694896Y-41162792D01*
G01*
X062782686Y-40998549D01*
G01*
X062836746Y-40820336D01*
G01*
X062855000Y-40635000D01*
G01*
X062836746Y-40449664D01*
G01*
X062782686Y-40271451D01*
G01*
X062694896Y-40107208D01*
G01*
X062576751Y-39963249D01*
G01*
X062432792Y-39845104D01*
G01*
X062268549Y-39757314D01*
G01*
X062090336Y-39703254D01*
G01*
X061905000Y-39685000D01*
G01*
X061719664Y-39703254D01*
G01*
X061541451Y-39757314D01*
G01*
X061479656Y-39790344D01*
G01*
X061512686Y-39728549D01*
G01*
X061566746Y-39550336D01*
G01*
X061585000Y-39365000D01*
G01*
X061566746Y-39179664D01*
G01*
X061512686Y-39001451D01*
G01*
X061424896Y-38837208D01*
G01*
X061306751Y-38693249D01*
G01*
X061162792Y-38575104D01*
G01*
X060998549Y-38487314D01*
G01*
X060820336Y-38433254D01*
G01*
X060635000Y-38415000D01*
G01*
X060449664Y-38433254D01*
G01*
X060271451Y-38487314D01*
G01*
X060107208Y-38575104D01*
G01*
X059963249Y-38693249D01*
G01*
X059845104Y-38837208D01*
G01*
X059757314Y-39001451D01*
G01*
X059703254Y-39179664D01*
G01*
X059685000Y-39365000D01*
G01*
X059703254Y-39550336D01*
G01*
X059757314Y-39728549D01*
G01*
X059790344Y-39790344D01*
G01*
X059728549Y-39757314D01*
G01*
X059550336Y-39703254D01*
G01*
X059365000Y-39685000D01*
G01*
X059179664Y-39703254D01*
G01*
X059001451Y-39757314D01*
G01*
X058939656Y-39790344D01*
G01*
X058972686Y-39728549D01*
G01*
X059026746Y-39550336D01*
G01*
X059045000Y-39365000D01*
G01*
X059026746Y-39179664D01*
G01*
X058972686Y-39001451D01*
G01*
X058884896Y-38837208D01*
G01*
X058766751Y-38693249D01*
G01*
X058622792Y-38575104D01*
G01*
X058458549Y-38487314D01*
G01*
X058280336Y-38433254D01*
G01*
X058095000Y-38415000D01*
G01*
X057909664Y-38433254D01*
G01*
X057731451Y-38487314D01*
G01*
X057567208Y-38575104D01*
G01*
X057423249Y-38693249D01*
G01*
X057305104Y-38837208D01*
G01*
X057217314Y-39001451D01*
G01*
X057163254Y-39179664D01*
G01*
X057145000Y-39365000D01*
G01*
X057163254Y-39550336D01*
G01*
X057217314Y-39728549D01*
G01*
X057305104Y-39892792D01*
G01*
X057423249Y-40036751D01*
G01*
X057567208Y-40154896D01*
G01*
X057731451Y-40242686D01*
G01*
X057909664Y-40296746D01*
G01*
X058095000Y-40315000D01*
G01*
X058280336Y-40296746D01*
G01*
X058458549Y-40242686D01*
G01*
X058520344Y-40209656D01*
G01*
X058487314Y-40271451D01*
G01*
X058433254Y-40449664D01*
G01*
X058415000Y-40635000D01*
G01*
X058433254Y-40820336D01*
G01*
X058487314Y-40998549D01*
G01*
X058575104Y-41162792D01*
G01*
X058693249Y-41306751D01*
G01*
X058837208Y-41424896D01*
G01*
X059001451Y-41512686D01*
G01*
X059179664Y-41566746D01*
G01*
X059365000Y-41585000D01*
G01*
X059550336Y-41566746D01*
G01*
X059728549Y-41512686D01*
G01*
X059892792Y-41424896D01*
G01*
X060036751Y-41306751D01*
G01*
X060154896Y-41162792D01*
G01*
X060242686Y-40998549D01*
G01*
X060296746Y-40820336D01*
G01*
X060315000Y-40635000D01*
G01*
X060296746Y-40449664D01*
G01*
X060242686Y-40271451D01*
G01*
X060209656Y-40209656D01*
G01*
X060271451Y-40242686D01*
G01*
X060449664Y-40296746D01*
G01*
X060635000Y-40315000D01*
G01*
X060820336Y-40296746D01*
G01*
X060998549Y-40242686D01*
G01*
X061060344Y-40209656D01*
G01*
X061027314Y-40271451D01*
G01*
X060973254Y-40449664D01*
G01*
X060955000Y-40635000D01*
G01*
X060973254Y-40820336D01*
G01*
X061027314Y-40998549D01*
G01*
X061115104Y-41162792D01*
G01*
X061233249Y-41306751D01*
G01*
X061377208Y-41424896D01*
G01*
X061541451Y-41512686D01*
G01*
X061719664Y-41566746D01*
G01*
X061905000Y-41585000D01*
G37*
D38*
G36*
X-75000000Y-46850000D02*
G01*
X-74639083Y-46814453D01*
G01*
X-74292036Y-46709177D01*
G01*
X-73972195Y-46538219D01*
G01*
X-73691852Y-46308148D01*
G01*
X-73461781Y-46027805D01*
G01*
X-73290823Y-45707964D01*
G01*
X-73185547Y-45360917D01*
G01*
X-73150000Y-45000000D01*
G01*
X-73185547Y-44639083D01*
G01*
X-73290823Y-44292036D01*
G01*
X-73461781Y-43972195D01*
G01*
X-73691852Y-43691852D01*
G01*
X-73972195Y-43461781D01*
G01*
X-74292036Y-43290823D01*
G01*
X-74639083Y-43185547D01*
G01*
X-75000000Y-43150000D01*
G01*
X-75360917Y-43185547D01*
G01*
X-75707964Y-43290823D01*
G01*
X-76027805Y-43461781D01*
G01*
X-76308148Y-43691852D01*
G01*
X-76538219Y-43972195D01*
G01*
X-76709177Y-44292036D01*
G01*
X-76814453Y-44639083D01*
G01*
X-76850000Y-45000000D01*
G01*
X-76814453Y-45360917D01*
G01*
X-76709177Y-45707964D01*
G01*
X-76538219Y-46027805D01*
G01*
X-76308148Y-46308148D01*
G01*
X-76027805Y-46538219D01*
G01*
X-75707964Y-46709177D01*
G01*
X-75360917Y-46814453D01*
G01*
X-75000000Y-46850000D01*
G37*
D38*
G36*
X075000000Y-46850000D02*
G01*
X075360917Y-46814453D01*
G01*
X075707964Y-46709177D01*
G01*
X076027805Y-46538219D01*
G01*
X076308148Y-46308148D01*
G01*
X076538219Y-46027805D01*
G01*
X076709177Y-45707964D01*
G01*
X076814453Y-45360917D01*
G01*
X076850000Y-45000000D01*
G01*
X076814453Y-44639083D01*
G01*
X076709177Y-44292036D01*
G01*
X076538219Y-43972195D01*
G01*
X076308148Y-43691852D01*
G01*
X076027805Y-43461781D01*
G01*
X075707964Y-43290823D01*
G01*
X075360917Y-43185547D01*
G01*
X075000000Y-43150000D01*
G01*
X074639083Y-43185547D01*
G01*
X074292036Y-43290823D01*
G01*
X073972195Y-43461781D01*
G01*
X073691852Y-43691852D01*
G01*
X073461781Y-43972195D01*
G01*
X073290823Y-44292036D01*
G01*
X073185547Y-44639083D01*
G01*
X073150000Y-45000000D01*
G01*
X073185547Y-45360917D01*
G01*
X073290823Y-45707964D01*
G01*
X073461781Y-46027805D01*
G01*
X073691852Y-46308148D01*
G01*
X073972195Y-46538219D01*
G01*
X074292036Y-46709177D01*
G01*
X074639083Y-46814453D01*
G01*
X075000000Y-46850000D01*
G37*
D38*
G36*
X034920000Y-49495000D02*
G01*
X035285794Y-49458972D01*
G01*
X035637531Y-49352274D01*
G01*
X035961694Y-49179006D01*
G01*
X036245825Y-48945825D01*
G01*
X036479006Y-48661694D01*
G01*
X036652274Y-48337531D01*
G01*
X036758972Y-47985794D01*
G01*
X036795000Y-47620000D01*
G01*
X036758972Y-47254206D01*
G01*
X036652274Y-46902469D01*
G01*
X036479006Y-46578306D01*
G01*
X036245825Y-46294175D01*
G01*
X035961694Y-46060994D01*
G01*
X035637531Y-45887726D01*
G01*
X035285794Y-45781028D01*
G01*
X034920000Y-45745000D01*
G01*
X034554206Y-45781028D01*
G01*
X034202469Y-45887726D01*
G01*
X033878306Y-46060994D01*
G01*
X033594175Y-46294175D01*
G01*
X033360994Y-46578306D01*
G01*
X033187726Y-46902469D01*
G01*
X033081028Y-47254206D01*
G01*
X033045000Y-47620000D01*
G01*
X033081028Y-47985794D01*
G01*
X033187726Y-48337531D01*
G01*
X033360994Y-48661694D01*
G01*
X033594175Y-48945825D01*
G01*
X033878306Y-49179006D01*
G01*
X034202469Y-49352274D01*
G01*
X034554206Y-49458972D01*
G01*
X034920000Y-49495000D01*
G37*
D38*
G36*
X045080000Y-49495000D02*
G01*
X045445794Y-49458972D01*
G01*
X045797531Y-49352274D01*
G01*
X046121694Y-49179006D01*
G01*
X046405825Y-48945825D01*
G01*
X046639006Y-48661694D01*
G01*
X046812274Y-48337531D01*
G01*
X046918972Y-47985794D01*
G01*
X046955000Y-47620000D01*
G01*
X046918972Y-47254206D01*
G01*
X046812274Y-46902469D01*
G01*
X046639006Y-46578306D01*
G01*
X046405825Y-46294175D01*
G01*
X046121694Y-46060994D01*
G01*
X045797531Y-45887726D01*
G01*
X045445794Y-45781028D01*
G01*
X045080000Y-45745000D01*
G01*
X044714206Y-45781028D01*
G01*
X044362469Y-45887726D01*
G01*
X044038306Y-46060994D01*
G01*
X043754175Y-46294175D01*
G01*
X043520994Y-46578306D01*
G01*
X043347726Y-46902469D01*
G01*
X043241028Y-47254206D01*
G01*
X043205000Y-47620000D01*
G01*
X043241028Y-47985794D01*
G01*
X043347726Y-48337531D01*
G01*
X043520994Y-48661694D01*
G01*
X043754175Y-48945825D01*
G01*
X044038306Y-49179006D01*
G01*
X044362469Y-49352274D01*
G01*
X044714206Y-49458972D01*
G01*
X045080000Y-49495000D01*
G37*
D38*
G36*
X054920000Y-49495000D02*
G01*
X055285794Y-49458972D01*
G01*
X055637531Y-49352274D01*
G01*
X055961694Y-49179006D01*
G01*
X056245825Y-48945825D01*
G01*
X056479006Y-48661694D01*
G01*
X056652274Y-48337531D01*
G01*
X056758972Y-47985794D01*
G01*
X056795000Y-47620000D01*
G01*
X056758972Y-47254206D01*
G01*
X056652274Y-46902469D01*
G01*
X056479006Y-46578306D01*
G01*
X056245825Y-46294175D01*
G01*
X055961694Y-46060994D01*
G01*
X055637531Y-45887726D01*
G01*
X055285794Y-45781028D01*
G01*
X054920000Y-45745000D01*
G01*
X054554206Y-45781028D01*
G01*
X054202469Y-45887726D01*
G01*
X053878306Y-46060994D01*
G01*
X053594175Y-46294175D01*
G01*
X053360994Y-46578306D01*
G01*
X053187726Y-46902469D01*
G01*
X053081028Y-47254206D01*
G01*
X053045000Y-47620000D01*
G01*
X053081028Y-47985794D01*
G01*
X053187726Y-48337531D01*
G01*
X053360994Y-48661694D01*
G01*
X053594175Y-48945825D01*
G01*
X053878306Y-49179006D01*
G01*
X054202469Y-49352274D01*
G01*
X054554206Y-49458972D01*
G01*
X054920000Y-49495000D01*
G37*
D38*
G36*
X065080000Y-49495000D02*
G01*
X065445794Y-49458972D01*
G01*
X065797531Y-49352274D01*
G01*
X066121694Y-49179006D01*
G01*
X066405825Y-48945825D01*
G01*
X066639006Y-48661694D01*
G01*
X066812274Y-48337531D01*
G01*
X066918972Y-47985794D01*
G01*
X066955000Y-47620000D01*
G01*
X066918972Y-47254206D01*
G01*
X066812274Y-46902469D01*
G01*
X066639006Y-46578306D01*
G01*
X066405825Y-46294175D01*
G01*
X066121694Y-46060994D01*
G01*
X065797531Y-45887726D01*
G01*
X065445794Y-45781028D01*
G01*
X065080000Y-45745000D01*
G01*
X064714206Y-45781028D01*
G01*
X064362469Y-45887726D01*
G01*
X064038306Y-46060994D01*
G01*
X063754175Y-46294175D01*
G01*
X063520994Y-46578306D01*
G01*
X063347726Y-46902469D01*
G01*
X063241028Y-47254206D01*
G01*
X063205000Y-47620000D01*
G01*
X063241028Y-47985794D01*
G01*
X063347726Y-48337531D01*
G01*
X063520994Y-48661694D01*
G01*
X063754175Y-48945825D01*
G01*
X064038306Y-49179006D01*
G01*
X064362469Y-49352274D01*
G01*
X064714206Y-49458972D01*
G01*
X065080000Y-49495000D01*
G37*
%LPD*%
D38*
G36*
X004767880Y002594725D02*
G01*
X004767880Y005891495D01*
G01*
X004757000Y005880615D01*
G01*
X004757000Y002585796D01*
G01*
X004767880Y002594725D01*
G37*
D38*
G36*
X006790412Y-07784772D02*
G01*
X006840157Y-07724157D01*
G01*
X006900772Y-07674412D01*
G01*
X006969927Y-07637448D01*
G01*
X007044964Y-07614686D01*
G01*
X007056866Y-07613514D01*
G01*
X010205347Y-04465033D01*
G01*
X010205347Y014231727D01*
G01*
X007999810Y012026190D01*
G01*
X007950560Y011985772D01*
G01*
X007894372Y011955739D01*
G01*
X007833404Y011937245D01*
G01*
X007770000Y011931000D01*
G01*
X007620474Y011931000D01*
G01*
X007611228Y011923412D01*
G01*
X007542073Y011886448D01*
G01*
X007467036Y011863686D01*
G01*
X007389000Y011856000D01*
G01*
X007310964Y011863686D01*
G01*
X007288174Y011870599D01*
G01*
X007872568Y011286205D01*
G01*
X007912986Y011236955D01*
G01*
X007943019Y011180767D01*
G01*
X007961514Y011119800D01*
G01*
X007967758Y011056395D01*
G01*
X007967758Y007272838D01*
G01*
X008031964Y007292314D01*
G01*
X008110000Y007300000D01*
G01*
X008188036Y007292314D01*
G01*
X008263073Y007269552D01*
G01*
X008332228Y007232588D01*
G01*
X008392843Y007182843D01*
G01*
X008442588Y007122228D01*
G01*
X008479552Y007053073D01*
G01*
X008502314Y006978036D01*
G01*
X008510000Y006900000D01*
G01*
X008502314Y006821964D01*
G01*
X008479552Y006746927D01*
G01*
X008442588Y006677772D01*
G01*
X008435000Y006668526D01*
G01*
X008435000Y004166260D01*
G01*
X008598958Y004002302D01*
G01*
X008630228Y003985588D01*
G01*
X008690843Y003935843D01*
G01*
X008740588Y003875228D01*
G01*
X008777552Y003806073D01*
G01*
X008800314Y003731036D01*
G01*
X008808000Y003653000D01*
G01*
X008800314Y003574964D01*
G01*
X008777552Y003499927D01*
G01*
X008740588Y003430772D01*
G01*
X008690843Y003370157D01*
G01*
X008630228Y003320412D01*
G01*
X008561073Y003283448D01*
G01*
X008486036Y003260686D01*
G01*
X008408000Y003253000D01*
G01*
X008329964Y003260686D01*
G01*
X008254927Y003283448D01*
G01*
X008185772Y003320412D01*
G01*
X008125157Y003370157D01*
G01*
X008075412Y003430772D01*
G01*
X008038448Y003499927D01*
G01*
X008015686Y003574964D01*
G01*
X008008000Y003653000D01*
G01*
X008009885Y003672136D01*
G01*
X007967758Y003714263D01*
G01*
X007967758Y-05457242D01*
G01*
X007961514Y-05520646D01*
G01*
X007943019Y-05581614D01*
G01*
X007912986Y-05637802D01*
G01*
X007872568Y-05687051D01*
G01*
X007163486Y-06396133D01*
G01*
X007162314Y-06408036D01*
G01*
X007139552Y-06483073D01*
G01*
X007102588Y-06552228D01*
G01*
X007052843Y-06612843D01*
G01*
X006992228Y-06662588D01*
G01*
X006923073Y-06699552D01*
G01*
X006848036Y-06722314D01*
G01*
X006770000Y-06730000D01*
G01*
X006691964Y-06722314D01*
G01*
X006616927Y-06699552D01*
G01*
X006547772Y-06662588D01*
G01*
X006487157Y-06612843D01*
G01*
X006437412Y-06552228D01*
G01*
X006400448Y-06483073D01*
G01*
X006377686Y-06408036D01*
G01*
X006370000Y-06330000D01*
G01*
X006377686Y-06251964D01*
G01*
X006400448Y-06176927D01*
G01*
X006437412Y-06107772D01*
G01*
X006487157Y-06047157D01*
G01*
X006547772Y-05997412D01*
G01*
X006616927Y-05960448D01*
G01*
X006691964Y-05937686D01*
G01*
X006703867Y-05936514D01*
G01*
X007317758Y-05322623D01*
G01*
X007317758Y005579645D01*
G01*
X007304241Y005575545D01*
G01*
X006037000Y004308304D01*
G01*
X006037000Y001257474D01*
G01*
X006044588Y001248228D01*
G01*
X006081552Y001179073D01*
G01*
X006104314Y001104036D01*
G01*
X006112000Y001026000D01*
G01*
X006104314Y000947964D01*
G01*
X006081552Y000872927D01*
G01*
X006044588Y000803772D01*
G01*
X005994843Y000743157D01*
G01*
X005934228Y000693412D01*
G01*
X005865073Y000656448D01*
G01*
X005790036Y000633686D01*
G01*
X005712000Y000626000D01*
G01*
X005633964Y000633686D01*
G01*
X005558927Y000656448D01*
G01*
X005489772Y000693412D01*
G01*
X005429157Y000743157D01*
G01*
X005379412Y000803772D01*
G01*
X005342448Y000872927D01*
G01*
X005319686Y000947964D01*
G01*
X005312000Y001026000D01*
G01*
X005319686Y001104036D01*
G01*
X005342448Y001179073D01*
G01*
X005379412Y001248228D01*
G01*
X005387000Y001257474D01*
G01*
X005387000Y002157370D01*
G01*
X005376552Y002122927D01*
G01*
X005339588Y002053772D01*
G01*
X005289843Y001993157D01*
G01*
X005229228Y001943412D01*
G01*
X005160073Y001906448D01*
G01*
X005085036Y001883686D01*
G01*
X005007000Y001876000D01*
G01*
X004928964Y001883686D01*
G01*
X004853927Y001906448D01*
G01*
X004784772Y001943412D01*
G01*
X004757000Y001966204D01*
G01*
X004757000Y000091474D01*
G01*
X004764588Y000082228D01*
G01*
X004801552Y000013073D01*
G01*
X004824314Y-00061964D01*
G01*
X004832000Y-00140000D01*
G01*
X004824314Y-00218036D01*
G01*
X004801552Y-00293073D01*
G01*
X004764588Y-00362228D01*
G01*
X004714843Y-00422843D01*
G01*
X004654228Y-00472588D01*
G01*
X004585073Y-00509552D01*
G01*
X004510036Y-00532314D01*
G01*
X004432000Y-00540000D01*
G01*
X004353964Y-00532314D01*
G01*
X004292429Y-00513648D01*
G01*
X004292429Y-05386806D01*
G01*
X006755573Y-07849950D01*
G01*
X006790412Y-07784772D01*
G37*
%LPC*%
D38*
G36*
X006185000Y-05319000D02*
G01*
X006263036Y-05311314D01*
G01*
X006338073Y-05288552D01*
G01*
X006407228Y-05251588D01*
G01*
X006467843Y-05201843D01*
G01*
X006517588Y-05141228D01*
G01*
X006554552Y-05072073D01*
G01*
X006577314Y-04997036D01*
G01*
X006585000Y-04919000D01*
G01*
X006577314Y-04840964D01*
G01*
X006554552Y-04765927D01*
G01*
X006517588Y-04696772D01*
G01*
X006510000Y-04687526D01*
G01*
X006510000Y-03985169D01*
G01*
X006503755Y-03921765D01*
G01*
X006485261Y-03860797D01*
G01*
X006480496Y-03851882D01*
G01*
X006486000Y-03796000D01*
G01*
X006478314Y-03717964D01*
G01*
X006455552Y-03642927D01*
G01*
X006418588Y-03573772D01*
G01*
X006368843Y-03513157D01*
G01*
X006308228Y-03463412D01*
G01*
X006239073Y-03426448D01*
G01*
X006164036Y-03403686D01*
G01*
X006086000Y-03396000D01*
G01*
X006007964Y-03403686D01*
G01*
X005932927Y-03426448D01*
G01*
X005863772Y-03463412D01*
G01*
X005803157Y-03513157D01*
G01*
X005753412Y-03573772D01*
G01*
X005716448Y-03642927D01*
G01*
X005693686Y-03717964D01*
G01*
X005686000Y-03796000D01*
G01*
X005693686Y-03874036D01*
G01*
X005716448Y-03949073D01*
G01*
X005753412Y-04018228D01*
G01*
X005803157Y-04078843D01*
G01*
X005860000Y-04125492D01*
G01*
X005860000Y-04687526D01*
G01*
X005852412Y-04696772D01*
G01*
X005815448Y-04765927D01*
G01*
X005792686Y-04840964D01*
G01*
X005785000Y-04919000D01*
G01*
X005792686Y-04997036D01*
G01*
X005815448Y-05072073D01*
G01*
X005852412Y-05141228D01*
G01*
X005902157Y-05201843D01*
G01*
X005962772Y-05251588D01*
G01*
X006031927Y-05288552D01*
G01*
X006106964Y-05311314D01*
G01*
X006185000Y-05319000D01*
G37*
%LPD*%
D38*
G36*
X022205227Y041955154D02*
G01*
X022040381Y042120000D01*
G01*
X020270568Y042120000D01*
G01*
X020270568Y041880000D01*
G01*
X022205227Y041880000D01*
G01*
X022205227Y041955154D01*
G37*
D15*
X001570000Y-28670000D03*
D16*
X001570000Y-26130000D03*
D16*
X001570000Y-23590000D03*
D16*
X001570000Y-21050000D03*
D16*
X001570000Y-18510000D03*
D16*
X001570000Y-15970000D03*
D16*
X001570000Y-13430000D03*
D16*
X001570000Y-10890000D03*
D16*
X001570000Y-08350000D03*
D16*
X001570000Y-05810000D03*
D16*
X001570000Y-03270000D03*
D16*
X001570000Y-00730000D03*
D16*
X001570000Y001810000D03*
D16*
X001570000Y004350000D03*
D16*
X001570000Y006890000D03*
D16*
X001570000Y009430000D03*
D16*
X001570000Y011970000D03*
D16*
X001570000Y014510000D03*
D16*
X001570000Y017050000D03*
D16*
X001570000Y019590000D03*
D16*
X001570000Y022130000D03*
D16*
X001570000Y024670000D03*
D15*
X024430000Y-28670000D03*
D16*
X024430000Y-26130000D03*
D16*
X024430000Y-23590000D03*
D16*
X024430000Y-21050000D03*
D16*
X024430000Y-18510000D03*
D16*
X024430000Y-15970000D03*
D16*
X024430000Y-13430000D03*
D16*
X024430000Y-10890000D03*
D16*
X024430000Y-08350000D03*
D16*
X024430000Y-05810000D03*
D16*
X024430000Y-03270000D03*
D16*
X024430000Y-00730000D03*
D16*
X024430000Y001810000D03*
D16*
X024430000Y004350000D03*
D16*
X024430000Y006890000D03*
D16*
X024430000Y009430000D03*
D16*
X024430000Y011970000D03*
D16*
X024430000Y014510000D03*
D16*
X024430000Y017050000D03*
D16*
X024430000Y019590000D03*
D16*
X024430000Y022130000D03*
D16*
X024430000Y024670000D03*
D15*
X-70540000Y-15000000D03*
D16*
X-68000000Y-15000000D03*
D16*
X-65460000Y-15000000D03*
D15*
X-70540000Y000000000D03*
D16*
X-68000000Y000000000D03*
D16*
X-65460000Y000000000D03*
D15*
X-76500000Y015000000D03*
D21*
X-64540000Y025292500D03*
D21*
X-59460000Y025292500D03*
D21*
X-44160000Y040350000D03*
D21*
X-41620000Y040350000D03*
D21*
X-44160000Y037810000D03*
D21*
X-41620000Y037810000D03*
D21*
X-44160000Y035270000D03*
D21*
X-41620000Y035270000D03*
D21*
X-44160000Y032730000D03*
D21*
X-41620000Y032730000D03*
D26*
X-30160000Y-38350000D03*
D26*
X-30160000Y-35810000D03*
D26*
X-30160000Y-33270000D03*
D26*
X-30160000Y-30730000D03*
D26*
X-30160000Y-28190000D03*
D26*
X-30160000Y-25650000D03*
D26*
X-09840000Y-38350000D03*
D26*
X-09840000Y-35810000D03*
D26*
X-09840000Y-33270000D03*
D26*
X-09840000Y-30730000D03*
D26*
X-09840000Y-28190000D03*
D26*
X-09840000Y-25650000D03*
D29*
X069540000Y036000000D03*
D29*
X067000000Y036000000D03*
D29*
X064460000Y036000000D03*
D21*
X006110000Y040730000D03*
D21*
X006110000Y043270000D03*
D21*
X008650000Y040730000D03*
D21*
X008650000Y043270000D03*
D21*
X011190000Y040730000D03*
D21*
X011190000Y043270000D03*
D21*
X013730000Y040730000D03*
D21*
X013730000Y043270000D03*
D21*
X016270000Y040730000D03*
D21*
X016270000Y043270000D03*
D21*
X018810000Y040730000D03*
D21*
X018810000Y043270000D03*
D21*
X021350000Y040730000D03*
D21*
X021350000Y043270000D03*
D21*
X023890000Y040730000D03*
D21*
X023890000Y043270000D03*
D31*
X038000000Y036060000D03*
D31*
X038000000Y040020000D03*
D31*
X038000000Y043980000D03*
D31*
X038000000Y047940000D03*
D33*
X065500000Y-06000000D03*
D33*
X070500000Y-06000000D03*
D35*
X038095000Y-39365000D03*
D35*
X039365000Y-40635000D03*
D35*
X040635000Y-39365000D03*
D35*
X041905000Y-40635000D03*
D21*
X044190000Y-21460000D03*
D21*
X044190000Y-24000000D03*
D21*
X044190000Y-26540000D03*
D21*
X051810000Y-26540000D03*
D21*
X051810000Y-24000000D03*
D21*
X051810000Y-21460000D03*
D33*
X042920000Y-30000000D03*
D33*
X053080000Y-30000000D03*
D35*
X058095000Y-39365000D03*
D35*
X059365000Y-40635000D03*
D35*
X060635000Y-39365000D03*
D35*
X061905000Y-40635000D03*
D21*
X064190000Y-21460000D03*
D21*
X064190000Y-24000000D03*
D21*
X064190000Y-26540000D03*
D21*
X071810000Y-26540000D03*
D21*
X071810000Y-24000000D03*
D21*
X071810000Y-21460000D03*
D33*
X062920000Y-30000000D03*
D33*
X073080000Y-30000000D03*
D10*
X024430000Y-08350000D02*
X022841000Y-09939000D01*
D10*
X022841000Y-09939000D02*
X019594000Y-09939000D01*
D10*
X019594000Y-09939000D02*
X019594000Y-09939000D01*
D10*
X-19788000Y-23697000D02*
X-19788000Y-23697000D01*
D10*
X-19788000Y-23697000D02*
X-19849252Y-23758252D01*
D10*
X-19849252Y-23758252D02*
X-19860526Y-23758252D01*
D10*
X-19860526Y-23758252D02*
X-19927274Y-23825000D01*
D10*
X-19927274Y-23825000D02*
X-24582000Y-23825000D01*
D10*
X-24582000Y-23825000D02*
X-24582000Y-23825000D01*
D10*
X024430000Y011970000D02*
X021138000Y008678000D01*
D10*
X021138000Y008678000D02*
X020385000Y008678000D01*
D10*
X020385000Y008678000D02*
X020385000Y008678000D01*
D10*
X017194000Y007820000D02*
X017194000Y007820000D01*
D10*
X017194000Y007820000D02*
X017178540Y007835460D01*
D10*
X017178540Y007835460D02*
X017118213Y007835460D01*
D10*
X017118213Y007835460D02*
X016755674Y008198000D01*
D10*
X016755674Y008198000D02*
X014021000Y008198000D01*
D10*
X014021000Y008198000D02*
X014021000Y008198000D01*
D10*
X024430000Y017050000D02*
X021126000Y020354000D01*
D10*
X021126000Y020354000D02*
X021126000Y023477000D01*
D10*
X021126000Y023477000D02*
X021126000Y023477000D01*
D10*
X017330000Y024886000D02*
X017330000Y024886000D01*
D10*
X017330000Y024886000D02*
X017299120Y024855120D01*
D10*
X017299120Y024855120D02*
X017299120Y024804291D01*
D10*
X017299120Y024804291D02*
X017200000Y024705171D01*
D10*
X017200000Y024705171D02*
X017200000Y011600000D01*
D10*
X017200000Y011600000D02*
X017200000Y011600000D01*
D10*
X-00299000Y-15193000D02*
X-00299000Y-15193000D01*
D10*
X-00299000Y-15193000D02*
X-00386612Y-15280612D01*
D10*
X-00386612Y-15280612D02*
X-00386612Y-15315821D01*
D10*
X-00386612Y-15315821D02*
X-09840000Y-24769209D01*
D10*
X-09840000Y-24769209D02*
X-09840000Y-25650000D01*
D10*
X024430000Y014510000D02*
X022021000Y012101000D01*
D10*
X022021000Y012101000D02*
X018915000Y012101000D01*
D10*
X018915000Y012101000D02*
X018915000Y012101000D01*
D10*
X008408000Y003653000D02*
X008408000Y003653000D01*
D10*
X008408000Y003653000D02*
X008374988Y003686012D01*
D10*
X008374988Y003686012D02*
X008374988Y003766653D01*
D10*
X008374988Y003766653D02*
X008110000Y004031641D01*
D10*
X008110000Y004031641D02*
X008110000Y006900000D01*
D10*
X008110000Y006900000D02*
X008110000Y006900000D01*
D10*
X007197000Y005959000D02*
X007197000Y005959000D01*
D10*
X007197000Y005959000D02*
X007180933Y005942933D01*
D10*
X007180933Y005942933D02*
X007180933Y005911857D01*
D10*
X007180933Y005911857D02*
X005712000Y004442923D01*
D10*
X005712000Y004442923D02*
X005712000Y001026000D01*
D10*
X005712000Y001026000D02*
X005712000Y001026000D01*
D10*
X-10122000Y-07646000D02*
X-10122000Y-07646000D01*
D10*
X-10122000Y-07646000D02*
X-10184654Y-07708654D01*
D10*
X-10184654Y-07708654D02*
X-10184654Y-07794659D01*
D10*
X-10184654Y-07794659D02*
X-24981976Y-22591981D01*
D10*
X-24981976Y-22591981D02*
X-24981976Y-22665094D01*
D10*
X-24981976Y-22665094D02*
X-24981976Y-28091976D01*
D10*
X-24981976Y-28091976D02*
X-30160000Y-33270000D01*
D10*
X059198000Y-18370000D02*
X059198000Y-18370000D01*
D10*
X059198000Y-18370000D02*
X060689375Y-18370000D01*
D10*
X060689375Y-18370000D02*
X060694388Y-18375013D01*
D10*
X060694388Y-18375013D02*
X060796013Y-18375013D01*
D10*
X060796013Y-18375013D02*
X060799000Y-18378000D01*
D10*
X060799000Y-18378000D02*
X060799000Y-18378000D01*
D10*
X046481000Y-18998000D02*
X046481000Y-18998000D01*
D10*
X046481000Y-18998000D02*
X046375305Y-18892305D01*
D10*
X046375305Y-18892305D02*
X046276208Y-18892305D01*
D10*
X046276208Y-18892305D02*
X031667695Y-18892305D01*
D10*
X031667695Y-18892305D02*
X024430000Y-26130000D01*
D10*
X045777000Y-09043000D02*
X045777000Y-09043000D01*
D10*
X045777000Y-09043000D02*
X045690125Y-08956125D01*
D10*
X045690125Y-08956125D02*
X042577000Y-05843000D01*
D10*
X042577000Y-05843000D02*
X042577000Y-05843000D01*
D10*
X031812000Y001238000D02*
X031812000Y001238000D01*
D10*
X031812000Y001238000D02*
X031810941Y001239059D01*
D10*
X031810941Y001239059D02*
X031810941Y002049059D01*
D10*
X031810941Y002049059D02*
X024430000Y009430000D01*
D10*
X023890000Y040730000D02*
X023890000Y026975309D01*
D10*
X023890000Y026975309D02*
X033079000Y017786309D01*
D10*
X033079000Y017786309D02*
X033079000Y-09861000D01*
D10*
X033079000Y-09861000D02*
X024430000Y-18510000D01*
D10*
X021350000Y043270000D02*
X022530227Y042089773D01*
D10*
X022530227Y042089773D02*
X022530227Y025509165D01*
D10*
X022530227Y025509165D02*
X018473836Y021452775D01*
D10*
X018473836Y021452775D02*
X018473836Y-04748744D01*
D10*
X018473836Y-04748744D02*
X022009025Y-08283933D01*
D10*
X022009025Y-08283933D02*
X022009025Y-08300025D01*
D10*
X022009025Y-08300025D02*
X022084000Y-08375000D01*
D10*
X022084000Y-08375000D02*
X022084000Y-08375000D01*
D10*
X021350000Y040730000D02*
X021350000Y032166879D01*
D10*
X021350000Y032166879D02*
X020687589Y031504468D01*
D10*
X020687589Y031504468D02*
X020687589Y031481589D01*
D10*
X020687589Y031481589D02*
X020600000Y031394000D01*
D10*
X020600000Y031394000D02*
X020600000Y031394000D01*
D10*
X018810000Y043270000D02*
X019945568Y042134432D01*
D10*
X019945568Y042134432D02*
X019945568Y032765373D01*
D10*
X019945568Y032765373D02*
X019945568Y031727065D01*
D10*
X019945568Y031727065D02*
X019627865Y031409362D01*
D10*
X019627865Y031409362D02*
X019627865Y031397865D01*
D10*
X019627865Y031397865D02*
X019624000Y031394000D01*
D10*
X019624000Y031394000D02*
X019624000Y031394000D01*
D10*
X018810000Y040730000D02*
X013429000Y035349000D01*
D10*
X013429000Y035349000D02*
X013429000Y027818000D01*
D10*
X013429000Y027818000D02*
X013429000Y027818000D01*
D10*
X010159000Y014645000D02*
X010159000Y014645000D01*
D10*
X010159000Y014645000D02*
X010144263Y014630263D01*
D10*
X010144263Y014630263D02*
X007770000Y012256000D01*
D10*
X007770000Y012256000D02*
X007389000Y012256000D01*
D10*
X007389000Y012256000D02*
X007389000Y012256000D01*
D10*
X003632000Y009644000D02*
X003632000Y009644000D01*
D10*
X003632000Y009644000D02*
X003625242Y009637242D01*
D10*
X003625242Y009637242D02*
X003625242Y009458593D01*
D10*
X003625242Y009458593D02*
X003625242Y003865242D01*
D10*
X003625242Y003865242D02*
X001570000Y001810000D01*
D10*
X009082000Y028389000D02*
X009082000Y028389000D01*
D10*
X009082000Y028389000D02*
X009033852Y028340852D01*
D10*
X009033852Y028340852D02*
X009033852Y028235225D01*
D10*
X009033852Y028235225D02*
X008862000Y028063373D01*
D10*
X008862000Y028063373D02*
X008862000Y026810000D01*
D10*
X008862000Y026810000D02*
X008862000Y026810000D01*
D10*
X005018000Y008172000D02*
X005018000Y008172000D01*
D10*
X005018000Y008172000D02*
X005092880Y008097120D01*
D10*
X005092880Y008097120D02*
X005092880Y007738132D01*
D10*
X005092880Y007738132D02*
X005092880Y002361880D01*
D10*
X005092880Y002361880D02*
X005007000Y002276000D01*
D10*
X005007000Y002276000D02*
X005007000Y002276000D01*
D10*
X016270000Y040730000D02*
X012353000Y036813000D01*
D10*
X012353000Y036813000D02*
X012353000Y028606000D01*
D10*
X012353000Y028606000D02*
X012353000Y028606000D01*
D10*
X004760000Y006429000D02*
X004760000Y006429000D01*
D10*
X004760000Y006429000D02*
X004675083Y006344083D01*
D10*
X004675083Y006344083D02*
X004675083Y006258318D01*
D10*
X004675083Y006258318D02*
X004432000Y006015235D01*
D10*
X004432000Y006015235D02*
X004432000Y-00140000D01*
D10*
X004432000Y-00140000D02*
X004432000Y-00140000D01*
D10*
X013730000Y040730000D02*
X011328000Y038328000D01*
D10*
X011328000Y038328000D02*
X011328000Y018607000D01*
D10*
X011328000Y018607000D02*
X011328000Y018607000D01*
D10*
X006086000Y-03796000D02*
X006086000Y-03796000D01*
D10*
X006086000Y-03796000D02*
X006139315Y-03849315D01*
D10*
X006139315Y-03849315D02*
X006139315Y-03939484D01*
D10*
X006139315Y-03939484D02*
X006185000Y-03985169D01*
D10*
X006185000Y-03985169D02*
X006185000Y-04919000D01*
D10*
X006185000Y-04919000D02*
X006185000Y-04919000D01*
D10*
X011190000Y043270000D02*
X010059645Y042139645D01*
D10*
X010059645Y042139645D02*
X010059645Y041991991D01*
D10*
X010059645Y041991991D02*
X010059645Y037726645D01*
D10*
X010059645Y037726645D02*
X009715000Y037382000D01*
D10*
X009715000Y037382000D02*
X009715000Y037382000D01*
D10*
X002987000Y-04012000D02*
X002987000Y-04012000D01*
D10*
X002987000Y-04012000D02*
X002955948Y-04043052D01*
D10*
X002955948Y-04043052D02*
X002955948Y-04155363D01*
D10*
X002955948Y-04155363D02*
X003116000Y-04315415D01*
D10*
X003116000Y-04315415D02*
X003116000Y-06838000D01*
D10*
X003116000Y-06838000D02*
X003116000Y-06838000D01*
D10*
X008403000Y034200000D02*
X008403000Y034200000D01*
D10*
X008403000Y034200000D02*
X008402032Y034199032D01*
D10*
X008402032Y034199032D02*
X008402032Y034196565D01*
D10*
X008402032Y034196565D02*
X010530347Y032068251D01*
D10*
X010530347Y032068251D02*
X010530347Y031829833D01*
D10*
X010530347Y031829833D02*
X010530347Y-04599653D01*
D10*
X010530347Y-04599653D02*
X007123000Y-08007000D01*
D10*
X007123000Y-08007000D02*
X007123000Y-08007000D01*
D10*
X006000000Y033773000D02*
X006000000Y033773000D01*
D10*
X006000000Y033773000D02*
X005942998Y033715998D01*
D10*
X005942998Y033715998D02*
X005942998Y033593346D01*
D10*
X005942998Y033593346D02*
X005942998Y012756155D01*
D10*
X005942998Y012756155D02*
X007642758Y011056395D01*
D10*
X007642758Y011056395D02*
X007642758Y-05457242D01*
D10*
X007642758Y-05457242D02*
X006770000Y-06330000D01*
D10*
X006770000Y-06330000D02*
X006770000Y-06330000D01*
D10*
X003003000Y-10430000D02*
X003003000Y-10430000D01*
D10*
X003003000Y-10430000D02*
X002951408Y-10481592D01*
D10*
X002951408Y-10481592D02*
X002951408Y-10542411D01*
D10*
X002951408Y-10542411D02*
X002951408Y-14588592D01*
D10*
X002951408Y-14588592D02*
X001570000Y-15970000D01*
D10*
X006110000Y043270000D02*
X-01055000Y036105000D01*
D10*
X-01055000Y036105000D02*
X-01055000Y-05884000D01*
D10*
X-01055000Y-05884000D02*
X-01055000Y-05884000D01*
D10*
X-02851000Y-07546000D02*
X-02851000Y-07546000D01*
D10*
X-02851000Y-07546000D02*
X-02921014Y-07616014D01*
D10*
X-02921014Y-07616014D02*
X-02921014Y-07621220D01*
D10*
X-02921014Y-07621220D02*
X000086830Y-10629064D01*
D10*
X000086830Y-10629064D02*
X000086830Y-10874642D01*
D10*
X000086830Y-10874642D02*
X000086830Y-17026830D01*
D10*
X000086830Y-17026830D02*
X001570000Y-18510000D01*
D10*
X006110000Y040730000D02*
X007406000Y039434000D01*
D10*
X007406000Y039434000D02*
X007406000Y034623000D01*
D10*
X007406000Y034623000D02*
X007406000Y034623000D01*
D10*
X003606000Y017830000D02*
X003606000Y017830000D01*
D10*
X003606000Y017830000D02*
X003608342Y017827658D01*
D10*
X003608342Y017827658D02*
X003967429Y017468571D01*
D10*
X003967429Y017468571D02*
X003967429Y-05521426D01*
D10*
X003967429Y-05521426D02*
X006958727Y-08512724D01*
D10*
X006958727Y-08512724D02*
X006958727Y-09032182D01*
D10*
X006958727Y-09032182D02*
X006958727Y-15661273D01*
D10*
X006958727Y-15661273D02*
X001570000Y-21050000D01*
D10*
X069540000Y036000000D02*
X067296000Y033756000D01*
D10*
X067296000Y033756000D02*
X064967000Y033756000D01*
D10*
X064967000Y033756000D02*
X064967000Y033756000D01*
D10*
X056400000Y034200000D02*
X056400000Y034200000D01*
D10*
X056400000Y034200000D02*
X065500000Y025100000D01*
D10*
X065500000Y025100000D02*
X065500000Y-06000000D01*
D10*
X065500000Y-06000000D02*
X056925540Y-14574460D01*
D10*
X056925540Y-14574460D02*
X056782545Y-14574460D01*
D10*
X056782545Y-14574460D02*
X030459598Y-14574460D01*
D10*
X030459598Y-14574460D02*
X025562060Y-19471998D01*
D10*
X025562060Y-19471998D02*
X008228002Y-19471998D01*
D10*
X008228002Y-19471998D02*
X001570000Y-26130000D01*
D10*
X-48605000Y017014000D02*
X-48605000Y017014000D01*
D10*
X-48605000Y017014000D02*
X-48548624Y017070376D01*
D10*
X-48548624Y017070376D02*
X-48548624Y017117661D01*
D10*
X-48548624Y017117661D02*
X-24350963Y-07080000D01*
D10*
X-24350963Y-07080000D02*
X002221071Y-07080000D01*
D10*
X002221071Y-07080000D02*
X004273071Y-09132000D01*
D10*
X004273071Y-09132000D02*
X006618000Y-09132000D01*
D10*
X006618000Y-09132000D02*
X006618000Y-09132000D01*
D10*
X007830000Y-08085000D02*
X007830000Y-08085000D01*
D10*
X007830000Y-08085000D02*
X007871160Y-08043840D01*
D10*
X007871160Y-08043840D02*
X017978320Y-18151000D01*
D10*
X017978320Y-18151000D02*
X018642000Y-18151000D01*
D10*
X018642000Y-18151000D02*
X018642000Y-18151000D01*
D10*
X-61347000Y007758000D02*
X-61347000Y007758000D01*
D10*
X-61347000Y007758000D02*
X-61446509Y007658491D01*
D10*
X-61446509Y007658491D02*
X-61446509Y007587460D01*
D10*
X-61446509Y007587460D02*
X-65460000Y003573969D01*
D10*
X-65460000Y003573969D02*
X-65460000Y000000000D01*
D10*
X-62152000Y-09047000D02*
X-62152000Y-09047000D01*
D10*
X-62152000Y-09047000D02*
X-62177674Y-09072674D01*
D10*
X-62177674Y-09072674D02*
X-62177674Y-09109848D01*
D10*
X-62177674Y-09109848D02*
X-65460000Y-12392174D01*
D10*
X-65460000Y-12392174D02*
X-65460000Y-15000000D01*
D11*
X038000000Y036060000D02*
X037366857Y035426857D01*
D11*
X037366857Y035426857D02*
X036733714Y034793714D01*
D11*
X036733714Y034793714D02*
X036100571Y034160571D01*
D11*
X036100571Y034160571D02*
X035467429Y033527429D01*
D11*
X035467429Y033527429D02*
X034834286Y032894286D01*
D11*
X034834286Y032894286D02*
X034201143Y032261143D01*
D11*
X034201143Y032261143D02*
X033568000Y031628000D01*
D11*
X033568000Y031628000D02*
X032569000Y031628000D01*
D11*
X032569000Y031628000D02*
X031570000Y031628000D01*
D11*
X031570000Y031628000D02*
X030571000Y031628000D01*
D11*
X030571000Y031628000D02*
X029572000Y031628000D01*
D11*
X029572000Y031628000D02*
X028573000Y031628000D01*
D11*
X028573000Y031628000D02*
X027574000Y031628000D01*
D11*
X027574000Y031628000D02*
X026575000Y031628000D01*
D11*
X026575000Y031628000D02*
X025576000Y031628000D01*
D11*
X025576000Y031628000D02*
X024577000Y031628000D01*
D11*
X024577000Y031628000D02*
X024577000Y031628000D01*
D12*
X004360000Y017554000D02*
X004360000Y017554000D01*
D12*
X004360000Y017554000D02*
X004308693Y018073465D01*
D12*
X004308693Y018073465D02*
X004257386Y018592931D01*
D13*
X004257386Y018592931D02*
X004257386Y019442614D01*
D11*
X004257386Y019442614D02*
X004257386Y022130000D01*
D11*
X004257386Y022130000D02*
X001570000Y022130000D01*
D11*
X-14800000Y037600000D02*
X-14800000Y037600000D01*
D11*
X-14800000Y037600000D02*
X-13301438Y037600000D01*
D11*
X-13301438Y037600000D02*
X-13068453Y037832985D01*
D11*
X-13068453Y037832985D02*
X-13068453Y037832985D01*
D11*
X045984000Y-21115000D02*
X045984000Y-21115000D01*
D11*
X045984000Y-21115000D02*
X045984000Y-24000000D01*
D11*
X045984000Y-24000000D02*
X044190000Y-24000000D01*
D11*
X057980000Y031361000D02*
X057980000Y031361000D01*
D11*
X057980000Y031361000D02*
X051120821Y038220179D01*
D11*
X051120821Y038220179D02*
X051120821Y038415317D01*
D11*
X051120821Y038415317D02*
X050425236Y039110903D01*
D11*
X050425236Y039110903D02*
X049729650Y039806488D01*
D11*
X049729650Y039806488D02*
X049034065Y040502073D01*
D11*
X049034065Y040502073D02*
X048338479Y041197659D01*
D11*
X048338479Y041197659D02*
X047642894Y041893244D01*
D11*
X047642894Y041893244D02*
X046947309Y042588829D01*
D11*
X046947309Y042588829D02*
X046251723Y043284415D01*
D11*
X046251723Y043284415D02*
X045556138Y043980000D01*
D11*
X045556138Y043980000D02*
X044611621Y043980000D01*
D11*
X044611621Y043980000D02*
X043667104Y043980000D01*
D11*
X043667104Y043980000D02*
X042722586Y043980000D01*
D11*
X042722586Y043980000D02*
X041778069Y043980000D01*
D11*
X041778069Y043980000D02*
X040833552Y043980000D01*
D11*
X040833552Y043980000D02*
X039889035Y043980000D01*
D11*
X039889035Y043980000D02*
X038944517Y043980000D01*
D11*
X038944517Y043980000D02*
X038000000Y043980000D01*
D11*
X037879000Y005532000D02*
X037879000Y005532000D01*
D11*
X037879000Y005532000D02*
X037878243Y005532757D01*
D11*
X037878243Y005532757D02*
X037878243Y005564898D01*
D11*
X037878243Y005564898D02*
X037745000Y005698141D01*
D11*
X037745000Y005698141D02*
X037745000Y006674374D01*
D11*
X037745000Y006674374D02*
X037745000Y007650606D01*
D11*
X037745000Y007650606D02*
X037745000Y008626838D01*
D11*
X037745000Y008626838D02*
X037745000Y009603071D01*
D11*
X037745000Y009603071D02*
X037745000Y010579303D01*
D11*
X037745000Y010579303D02*
X037745000Y011555535D01*
D11*
X037745000Y011555535D02*
X037745000Y012531768D01*
D11*
X037745000Y012531768D02*
X037745000Y013508000D01*
D11*
X037745000Y013508000D02*
X037745000Y013508000D01*
D10*
X062920000Y-30000000D02*
X061137122Y-30000000D01*
D10*
X061137122Y-30000000D02*
X059331833Y-28194711D01*
D10*
X059331833Y-28194711D02*
X059331833Y-28178833D01*
D10*
X059331833Y-28178833D02*
X059174000Y-28021000D01*
D10*
X059174000Y-28021000D02*
X059174000Y-28021000D01*
D10*
X062920000Y-30000000D02*
X065810000Y-30000000D01*
D10*
X065810000Y-30000000D02*
X071810000Y-24000000D01*
D10*
X036987000Y-29269000D02*
X036987000Y-29269000D01*
D10*
X036987000Y-29269000D02*
X036985530Y-29270470D01*
D10*
X036985530Y-29270470D02*
X036985530Y-29324785D01*
D10*
X036985530Y-29324785D02*
X038095000Y-30434255D01*
D10*
X038095000Y-30434255D02*
X038095000Y-39365000D01*
D10*
X042920000Y-30000000D02*
X045810000Y-30000000D01*
D10*
X045810000Y-30000000D02*
X051810000Y-24000000D01*
D10*
X046680000Y-10835000D02*
X046680000Y-10835000D01*
D10*
X046680000Y-10835000D02*
X046545412Y-10969588D01*
D10*
X046545412Y-10969588D02*
X046545412Y-10988180D01*
D10*
X046545412Y-10988180D02*
X045925001Y-11608591D01*
D10*
X045925001Y-11608591D02*
X045925001Y-14229768D01*
D10*
X045925001Y-14229768D02*
X045925001Y-14229768D01*
D10*
X055460000Y032389000D02*
X055460000Y032389000D01*
D10*
X055460000Y032389000D02*
X055494367Y032354633D01*
D10*
X055494367Y032354633D02*
X055494367Y032266658D01*
D10*
X055494367Y032266658D02*
X055944025Y031817000D01*
D10*
X055944025Y031817000D02*
X056037000Y031817000D01*
D10*
X056037000Y031817000D02*
X056037000Y031817000D01*
D11*
X-64540000Y025292500D02*
X-57103000Y032730000D01*
D11*
X-57103000Y032730000D02*
X-44160000Y032730000D01*
D37*
X019594000Y-09939000D03*
D37*
X-19788000Y-23697000D03*
D37*
X-24582000Y-23825000D03*
D37*
X020385000Y008678000D03*
D37*
X017194000Y007820000D03*
D37*
X014021000Y008198000D03*
D37*
X021126000Y023477000D03*
D37*
X017330000Y024886000D03*
D37*
X017200000Y011600000D03*
D37*
X-00299000Y-15193000D03*
D37*
X018915000Y012101000D03*
D37*
X008408000Y003653000D03*
D37*
X008110000Y006900000D03*
D37*
X007197000Y005959000D03*
D37*
X005712000Y001026000D03*
D37*
X-10122000Y-07646000D03*
D37*
X059198000Y-18370000D03*
D37*
X060799000Y-18378000D03*
D37*
X046481000Y-18998000D03*
D37*
X045777000Y-09043000D03*
D37*
X042577000Y-05843000D03*
D37*
X031812000Y001238000D03*
D37*
X022084000Y-08375000D03*
D37*
X020600000Y031394000D03*
D37*
X019624000Y031394000D03*
D37*
X013429000Y027818000D03*
D37*
X010159000Y014645000D03*
D37*
X007389000Y012256000D03*
D37*
X003632000Y009644000D03*
D37*
X009082000Y028389000D03*
D37*
X008862000Y026810000D03*
D37*
X005018000Y008172000D03*
D37*
X005007000Y002276000D03*
D37*
X012353000Y028606000D03*
D37*
X004760000Y006429000D03*
D37*
X004432000Y-00140000D03*
D37*
X011328000Y018607000D03*
D37*
X006086000Y-03796000D03*
D37*
X006185000Y-04919000D03*
D37*
X009715000Y037382000D03*
D37*
X002987000Y-04012000D03*
D37*
X003116000Y-06838000D03*
D37*
X008403000Y034200000D03*
D37*
X007123000Y-08007000D03*
D37*
X006000000Y033773000D03*
D37*
X006770000Y-06330000D03*
D37*
X003003000Y-10430000D03*
D37*
X-01055000Y-05884000D03*
D37*
X-02851000Y-07546000D03*
D37*
X007406000Y034623000D03*
D37*
X003606000Y017830000D03*
D37*
X064967000Y033756000D03*
D37*
X056400000Y034200000D03*
D37*
X-48605000Y017014000D03*
D37*
X006618000Y-09132000D03*
D37*
X007830000Y-08085000D03*
D37*
X018642000Y-18151000D03*
D37*
X-61347000Y007758000D03*
D37*
X-62152000Y-09047000D03*
D37*
X024577000Y031628000D03*
D37*
X004360000Y017554000D03*
D37*
X-14800000Y037600000D03*
D37*
X-13068453Y037832985D03*
D37*
X045984000Y-21115000D03*
D37*
X057980000Y031361000D03*
D37*
X037879000Y005532000D03*
D37*
X037745000Y013508000D03*
D37*
X059174000Y-28021000D03*
D37*
X036987000Y-29269000D03*
D37*
X046680000Y-10835000D03*
D37*
X045925001Y-14229768D03*
D37*
X055460000Y032389000D03*
D37*
X056037000Y031817000D03*
%LPC*%
D14*
X-75000000Y-45000000D03*
%LPD*%
%LPC*%
D14*
X075000000Y-45000000D03*
%LPD*%
%LPC*%
D14*
X-75000000Y045000000D03*
%LPD*%
%LPC*%
D14*
X075000000Y045000000D03*
%LPD*%
%LPC*%
D20*
X-69747000Y043707500D03*
%LPD*%
%LPC*%
D20*
X-54507000Y043707500D03*
%LPD*%
%LPC*%
D23*
X-44500000Y023500000D03*
%LPD*%
%LPC*%
D23*
X-23400000Y023500000D03*
%LPD*%
%LPC*%
D23*
X-23400000Y044600000D03*
%LPD*%
%LPC*%
D36*
X034920000Y-47620000D03*
%LPD*%
%LPC*%
D36*
X045080000Y-47620000D03*
%LPD*%
%LPC*%
D36*
X054920000Y-47620000D03*
%LPD*%
%LPC*%
D36*
X065080000Y-47620000D03*
%LPD*%
M02*