%TF.GenerationSoftware,tscircuit,circuit-json-to-gerber,0.0.93*%
%TF.CreationDate,2026-08-27T09:13:14.327Z*%
%TF.SameCoordinates,Original*%
%TF.FileFunction,Soldermask,Bot*%
%TF.FilePolarity,Negative*%
%FSLAX46Y46*%
%MOMM*%
G04 Gerber Fmt 4.6, Leading zero omitted, Abs format (unit mm)*
G04 Created by tscircuit (builder) date 2026-08-27T09:13:14.327Z*
G01*
%LPD*%
G75*
G04 APERTURE MACROS START*
%AMHORZPILL*
0 Horizontal pill (stadium) shape macro*
0 Parameters:*
0 $1 = Total width*
0 $2 = Total height*
0 $3 = Circle diameter (equal to height)*
0 $4 = Circle center offset
0 21 = Center Line(Exposure, Width, Height, Center X, Center Y, Rotation)*
0 1 = Circle(Exposure, Diameter, Center X, Center Y, Rotation)*
21,1,$1-$3,$2,0.0,0.0,0.0*
1,1,$3,0.0-$4,0.0*
1,1,$3,$4,0.0*%
%AMVERTPILL*
0 Vertical pill (stadium) shape macro*
0 Parameters:*
0 $1 = Total width*
0 $2 = Total height*
0 $3 = Circle diameter (equal to width)*
0 $4 = Circle center offset
0 21 = Center Line(Exposure, Width, Height, Center X, Center Y, Rotation)*
21,1,$1,$2-$3,0.0,0.0,0.0*
1,1,$3,0.0,0.0-$4*
1,1,$3,0.0,$4*%
%AMROUNDRECT*
0 Rectangle with rounded corners*
0 $1 Corner radius*
0 $2 $3 $4 $5 $6 $7 $8 $9 X,Y Position of each corner*
0 Polygon box body*
4,1,4,$2,$3,$4,$5,$6,$7,$8,$9,$2,$3,0*
0 Circles for rounded corners*
1,1,$1+$1,$2,$3*
1,1,$1+$1,$4,$5*
1,1,$1+$1,$6,$7*
1,1,$1+$1,$8,$9*
0 Rectangles between the rounded corners*
20,1,$1+$1,$2,$3,$4,$5,0*
20,1,$1+$1,$4,$5,$6,$7,0*
20,1,$1+$1,$6,$7,$8,$9,0*
20,1,$1+$1,$8,$9,$2,$3,0*%
G04 APERTURE MACROS END*
G04 aperture START LIST*
%ADD10C,0.150000*%
%ADD11C,1.000000*%
%ADD12C,0.400000*%
%ADD13C,0.500000*%
%ADD14C,0.550000*%
%ADD15C,0.525000*%
%ADD16C,3.200000*%
%ADD17R,1.500000X1.500000*%
%ADD18C,1.500000*%
%ADD19C,0.063000*%
%ADD20C,0.200000*%
%ADD21C,0.108000*%
%ADD22C,2.500000*%
%ADD23R,1.800000X1.800000*%
%ADD24C,0.081000*%
%ADD25C,2.180000*%
%ADD26C,0.090000*%
%ADD27C,0.100000*%
%ADD28R,1.700000X1.700000*%
%ADD29C,0.120000*%
%ADD30C,0.036000*%
%ADD31R,2.000000X2.000000*%
%ADD32C,0.045000*%
%ADD33R,2.200000X2.200000*%
%ADD34C,0.150000*%
%ADD35R,2.800000X2.800000*%
%ADD36C,0.072000*%
%ADD37C,1.400000*%
%ADD38C,3.250000*%
%ADD39C,0.300000*%
%TD*%
G04 aperture END LIST*
D16*
X-75000000Y-45000000D03*
D16*
X075000000Y-45000000D03*
D16*
X-75000000Y045000000D03*
D16*
X075000000Y045000000D03*
D17*
X018000000Y-26670000D03*
D18*
X018000000Y-24130000D03*
D18*
X018000000Y-21590000D03*
D18*
X018000000Y-19050000D03*
D18*
X018000000Y-16510000D03*
D18*
X018000000Y-13970000D03*
D18*
X018000000Y-11430000D03*
D18*
X018000000Y-08890000D03*
D18*
X018000000Y-06350000D03*
D18*
X018000000Y-03810000D03*
D18*
X018000000Y-01270000D03*
D18*
X018000000Y001270000D03*
D18*
X018000000Y003810000D03*
D18*
X018000000Y006350000D03*
D18*
X018000000Y008890000D03*
D18*
X018000000Y011430000D03*
D18*
X018000000Y013970000D03*
D18*
X018000000Y016510000D03*
D18*
X018000000Y019050000D03*
D18*
X018000000Y021590000D03*
D18*
X018000000Y024130000D03*
D18*
X018000000Y026670000D03*
D17*
X040860000Y-26670000D03*
D18*
X040860000Y-24130000D03*
D18*
X040860000Y-21590000D03*
D18*
X040860000Y-19050000D03*
D18*
X040860000Y-16510000D03*
D18*
X040860000Y-13970000D03*
D18*
X040860000Y-11430000D03*
D18*
X040860000Y-08890000D03*
D18*
X040860000Y-06350000D03*
D18*
X040860000Y-03810000D03*
D18*
X040860000Y-01270000D03*
D18*
X040860000Y001270000D03*
D18*
X040860000Y003810000D03*
D18*
X040860000Y006350000D03*
D18*
X040860000Y008890000D03*
D18*
X040860000Y011430000D03*
D18*
X040860000Y013970000D03*
D18*
X040860000Y016510000D03*
D18*
X040860000Y019050000D03*
D18*
X040860000Y021590000D03*
D18*
X040860000Y024130000D03*
D18*
X040860000Y026670000D03*
D17*
X-70540000Y-15000000D03*
D18*
X-68000000Y-15000000D03*
D18*
X-65460000Y-15000000D03*
D17*
X-70540000Y000000000D03*
D18*
X-68000000Y000000000D03*
D18*
X-65460000Y000000000D03*
D17*
X-76500000Y015000000D03*
D22*
X-69747000Y043707500D03*
D22*
X-54507000Y043707500D03*
D23*
X-64540000Y025292500D03*
D23*
X-59460000Y025292500D03*
D23*
X-44160000Y040350000D03*
D23*
X-41620000Y040350000D03*
D23*
X-44160000Y037810000D03*
D23*
X-41620000Y037810000D03*
D23*
X-44160000Y035270000D03*
D23*
X-41620000Y035270000D03*
D23*
X-44160000Y032730000D03*
D23*
X-41620000Y032730000D03*
D25*
X-44500000Y023500000D03*
D25*
X-23400000Y023500000D03*
D25*
X-23400000Y044600000D03*
D28*
X-30160000Y-38350000D03*
D28*
X-30160000Y-35810000D03*
D28*
X-30160000Y-33270000D03*
D28*
X-30160000Y-30730000D03*
D28*
X-30160000Y-28190000D03*
D28*
X-30160000Y-25650000D03*
D28*
X-09840000Y-38350000D03*
D28*
X-09840000Y-35810000D03*
D28*
X-09840000Y-33270000D03*
D28*
X-09840000Y-30730000D03*
D28*
X-09840000Y-28190000D03*
D28*
X-09840000Y-25650000D03*
D31*
X067730000Y030000000D03*
D31*
X070270000Y030000000D03*
D31*
X067730000Y022000000D03*
D31*
X070270000Y022000000D03*
D31*
X067730000Y014000000D03*
D31*
X070270000Y014000000D03*
D31*
X067730000Y006000000D03*
D31*
X070270000Y006000000D03*
D33*
X069540000Y036000000D03*
D33*
X067000000Y036000000D03*
D33*
X064460000Y036000000D03*
D23*
X006110000Y040730000D03*
D23*
X006110000Y043270000D03*
D23*
X008650000Y040730000D03*
D23*
X008650000Y043270000D03*
D23*
X011190000Y040730000D03*
D23*
X011190000Y043270000D03*
D23*
X013730000Y040730000D03*
D23*
X013730000Y043270000D03*
D23*
X016270000Y040730000D03*
D23*
X016270000Y043270000D03*
D23*
X018810000Y040730000D03*
D23*
X018810000Y043270000D03*
D23*
X021350000Y040730000D03*
D23*
X021350000Y043270000D03*
D23*
X023890000Y040730000D03*
D23*
X023890000Y043270000D03*
D35*
X038000000Y036060000D03*
D35*
X038000000Y040020000D03*
D35*
X038000000Y043980000D03*
D35*
X038000000Y047940000D03*
D31*
X065500000Y-06000000D03*
D31*
X070500000Y-06000000D03*
D37*
X038095000Y-39365000D03*
D37*
X039365000Y-40635000D03*
D37*
X040635000Y-39365000D03*
D37*
X041905000Y-40635000D03*
D38*
X034920000Y-47620000D03*
D38*
X045080000Y-47620000D03*
D23*
X044190000Y-21460000D03*
D23*
X044190000Y-24000000D03*
D23*
X044190000Y-26540000D03*
D23*
X051810000Y-26540000D03*
D23*
X051810000Y-24000000D03*
D23*
X051810000Y-21460000D03*
D31*
X042920000Y-30000000D03*
D31*
X053080000Y-30000000D03*
D37*
X058095000Y-39365000D03*
D37*
X059365000Y-40635000D03*
D37*
X060635000Y-39365000D03*
D37*
X061905000Y-40635000D03*
D38*
X054920000Y-47620000D03*
D38*
X065080000Y-47620000D03*
D23*
X064190000Y-21460000D03*
D23*
X064190000Y-24000000D03*
D23*
X064190000Y-26540000D03*
D23*
X071810000Y-26540000D03*
D23*
X071810000Y-24000000D03*
D23*
X071810000Y-21460000D03*
D31*
X062920000Y-30000000D03*
D31*
X073080000Y-30000000D03*
M02*