%TF.GenerationSoftware,tscircuit,circuit-json-to-gerber,0.0.93*%
%TF.CreationDate,2026-08-26T23:23:42.006Z*%
%TF.SameCoordinates,Original*%
%TF.FileFunction,Paste,Bot*%
%TF.FilePolarity,Positive*%
%FSLAX46Y46*%
%MOMM*%
G04 Gerber Fmt 4.6, Leading zero omitted, Abs format (unit mm)*
G04 Created by tscircuit (builder) date 2026-08-26T23:23:42.006Z*
G01*
%LPD*%
G75*
G04 APERTURE MACROS START*
%AMHORZPILL*
0 Horizontal pill (stadium) shape macro*
0 Parameters:*
0 $1 = Total width*
0 $2 = Total height*
0 $3 = Circle diameter (equal to height)*
0 $4 = Circle center offset
0 21 = Center Line(Exposure, Width, Height, Center X, Center Y, Rotation)*
0 1 = Circle(Exposure, Diameter, Center X, Center Y, Rotation)*
21,1,$1-$3,$2,0.0,0.0,0.0*
1,1,$3,0.0-$4,0.0*
1,1,$3,$4,0.0*%
%AMVERTPILL*
0 Vertical pill (stadium) shape macro*
0 Parameters:*
0 $1 = Total width*
0 $2 = Total height*
0 $3 = Circle diameter (equal to width)*
0 $4 = Circle center offset
0 21 = Center Line(Exposure, Width, Height, Center X, Center Y, Rotation)*
21,1,$1,$2-$3,0.0,0.0,0.0*
1,1,$3,0.0,0.0-$4*
1,1,$3,0.0,$4*%
%AMROUNDRECT*
0 Rectangle with rounded corners*
0 $1 Corner radius*
0 $2 $3 $4 $5 $6 $7 $8 $9 X,Y Position of each corner*
0 Polygon box body*
4,1,4,$2,$3,$4,$5,$6,$7,$8,$9,$2,$3,0*
0 Circles for rounded corners*
1,1,$1+$1,$2,$3*
1,1,$1+$1,$4,$5*
1,1,$1+$1,$6,$7*
1,1,$1+$1,$8,$9*
0 Rectangles between the rounded corners*
20,1,$1+$1,$2,$3,$4,$5,0*
20,1,$1+$1,$4,$5,$6,$7,0*
20,1,$1+$1,$6,$7,$8,$9,0*
20,1,$1+$1,$8,$9,$2,$3,0*%
G04 APERTURE MACROS END*
G04 aperture START LIST*
%ADD10C,0.150000*%
%ADD11C,1.000000*%
%ADD12R,1.500000X1.500000*%
%ADD13C,1.500000*%
%ADD14C,0.063000*%
%ADD15C,0.200000*%
%ADD16C,0.108000*%
%ADD17R,3.000000X3.000000*%
%ADD18C,0.081000*%
%ADD19R,1.800000X1.800000*%
%ADD20C,0.090000*%
%ADD21C,0.100000*%
%ADD22R,1.700000X1.700000*%
%ADD23C,0.120000*%
%ADD24C,0.036000*%
%ADD25R,2.000000X2.000000*%
%ADD26R,2.200000X2.200000*%
%ADD27C,0.150000*%
%ADD28C,0.045000*%
%ADD29C,0.300000*%
%TD*%
G04 aperture END LIST*
D13*
X018000000Y-24130000D03*
D13*
X018000000Y-21590000D03*
D13*
X018000000Y-19050000D03*
D13*
X018000000Y-16510000D03*
D13*
X018000000Y-13970000D03*
D13*
X018000000Y-11430000D03*
D13*
X018000000Y-08890000D03*
D13*
X018000000Y-06350000D03*
D13*
X018000000Y-03810000D03*
D13*
X018000000Y-01270000D03*
D13*
X018000000Y001270000D03*
D13*
X018000000Y003810000D03*
D13*
X018000000Y006350000D03*
D13*
X018000000Y008890000D03*
D13*
X018000000Y011430000D03*
D13*
X018000000Y013970000D03*
D13*
X018000000Y016510000D03*
D13*
X018000000Y019050000D03*
D13*
X018000000Y021590000D03*
D13*
X018000000Y024130000D03*
D13*
X018000000Y026670000D03*
D13*
X040860000Y-24130000D03*
D13*
X040860000Y-21590000D03*
D13*
X040860000Y-19050000D03*
D13*
X040860000Y-16510000D03*
D13*
X040860000Y-13970000D03*
D13*
X040860000Y-11430000D03*
D13*
X040860000Y-08890000D03*
D13*
X040860000Y-06350000D03*
D13*
X040860000Y-03810000D03*
D13*
X040860000Y-01270000D03*
D13*
X040860000Y001270000D03*
D13*
X040860000Y003810000D03*
D13*
X040860000Y006350000D03*
D13*
X040860000Y008890000D03*
D13*
X040860000Y011430000D03*
D13*
X040860000Y013970000D03*
D13*
X040860000Y016510000D03*
D13*
X040860000Y019050000D03*
D13*
X040860000Y021590000D03*
D13*
X040860000Y024130000D03*
D13*
X040860000Y026670000D03*
D13*
X-68000000Y-15000000D03*
D13*
X-65460000Y-15000000D03*
D13*
X-68000000Y000000000D03*
D13*
X-65460000Y000000000D03*
D13*
X067000000Y008000000D03*
D13*
X069540000Y008000000D03*
M02*