M48
; DRILL file {tscircuit} date 2026-08-27T09:13:14.439Z
; FORMAT={-:-/ absolute / metric / decimal}
; #@! TF.CreationDate,2026-08-27T09:13:14.439Z
; #@! TF.GenerationSoftware,tscircuit
; #@! TF.FileFunction,Plated,1,2,PTH
FMAT,2
METRIC
; #@! TA.AperFunction,Plated,PTH,ComponentDrill
T10C1.000000
; #@! TA.AperFunction,Plated,PTH,ComponentDrill
T11C1.100000
; #@! TA.AperFunction,Plated,PTH,ComponentDrill
T12C1.400000
; #@! TA.AperFunction,Plated,PTH,ComponentDrill
T13C0.900000
; #@! TA.AperFunction,Plated,PTH,ComponentDrill
T14C0.200000
%
G90
G05
T10
X18.0000Y-26.6700
X18.0000Y-24.1300
X18.0000Y-21.5900
X18.0000Y-19.0500
X18.0000Y-16.5100
X18.0000Y-13.9700
X18.0000Y-11.4300
X18.0000Y-8.8900
X18.0000Y-6.3500
X18.0000Y-3.8100
X18.0000Y-1.2700
X18.0000Y1.2700
X18.0000Y3.8100
X18.0000Y6.3500
X18.0000Y8.8900
X18.0000Y11.4300
X18.0000Y13.9700
X18.0000Y16.5100
X18.0000Y19.0500
X18.0000Y21.5900
X18.0000Y24.1300
X18.0000Y26.6700
X40.8600Y-26.6700
X40.8600Y-24.1300
X40.8600Y-21.5900
X40.8600Y-19.0500
X40.8600Y-16.5100
X40.8600Y-13.9700
X40.8600Y-11.4300
X40.8600Y-8.8900
X40.8600Y-6.3500
X40.8600Y-3.8100
X40.8600Y-1.2700
X40.8600Y1.2700
X40.8600Y3.8100
X40.8600Y6.3500
X40.8600Y8.8900
X40.8600Y11.4300
X40.8600Y13.9700
X40.8600Y16.5100
X40.8600Y19.0500
X40.8600Y21.5900
X40.8600Y24.1300
X40.8600Y26.6700
X-70.5400Y-15.0000
X-68.0000Y-15.0000
X-65.4600Y-15.0000
X-70.5400Y0.0000
X-68.0000Y0.0000
X-65.4600Y0.0000
X-76.5000Y15.0000
X-64.5400Y25.2925
X-59.4600Y25.2925
X-44.1600Y40.3500
X-41.6200Y40.3500
X-44.1600Y37.8100
X-41.6200Y37.8100
X-44.1600Y35.2700
X-41.6200Y35.2700
X-44.1600Y32.7300
X-41.6200Y32.7300
X-30.1600Y-38.3500
X-30.1600Y-35.8100
X-30.1600Y-33.2700
X-30.1600Y-30.7300
X-30.1600Y-28.1900
X-30.1600Y-25.6500
X-9.8400Y-38.3500
X-9.8400Y-35.8100
X-9.8400Y-33.2700
X-9.8400Y-30.7300
X-9.8400Y-28.1900
X-9.8400Y-25.6500
X67.7300Y30.0000
X70.2700Y30.0000
X67.7300Y22.0000
X70.2700Y22.0000
X67.7300Y14.0000
X70.2700Y14.0000
X67.7300Y6.0000
X70.2700Y6.0000
X6.1100Y40.7300
X6.1100Y43.2700
X8.6500Y40.7300
X8.6500Y43.2700
X11.1900Y40.7300
X11.1900Y43.2700
X13.7300Y40.7300
X13.7300Y43.2700
X16.2700Y40.7300
X16.2700Y43.2700
X18.8100Y40.7300
X18.8100Y43.2700
X21.3500Y40.7300
X21.3500Y43.2700
X23.8900Y40.7300
X23.8900Y43.2700
X65.5000Y-6.0000
X70.5000Y-6.0000
X42.9200Y-30.0000
X53.0800Y-30.0000
X62.9200Y-30.0000
X73.0800Y-30.0000
T11
X69.5400Y36.0000
X67.0000Y36.0000
X64.4600Y36.0000
T12
X38.0000Y36.0600
X38.0000Y40.0200
X38.0000Y43.9800
X38.0000Y47.9400
T13
X38.0950Y-39.3650
X39.3650Y-40.6350
X40.6350Y-39.3650
X41.9050Y-40.6350
X44.1900Y-21.4600
X44.1900Y-24.0000
X44.1900Y-26.5400
X51.8100Y-26.5400
X51.8100Y-24.0000
X51.8100Y-21.4600
X58.0950Y-39.3650
X59.3650Y-40.6350
X60.6350Y-39.3650
X61.9050Y-40.6350
X64.1900Y-21.4600
X64.1900Y-24.0000
X64.1900Y-26.5400
X71.8100Y-26.5400
X71.8100Y-24.0000
X71.8100Y-21.4600
T14
X38.0060Y-3.9900
X36.8840Y-5.3140
X16.0030Y-10.8520
X13.9320Y-12.6210
X-8.2620Y-16.0610
X-8.5520Y-11.5150
X31.9100Y-2.2010
X14.4220Y-8.0760
X13.2010Y-8.0020
X8.7270Y-9.6320
X7.6990Y-10.2200
X-15.5880Y-20.9970
X29.5500Y-6.7680
X32.0990Y14.3830
X30.8560Y3.5810
X29.8390Y3.2140
X13.5940Y-3.4340
X12.7960Y-3.7460
X3.6000Y-4.8000
X1.9960Y-4.8010
X14.3730Y-6.5990
X11.2670Y-7.0030
X6.7910Y-8.7010
X33.2420Y19.8260
X31.6040Y22.9680
X37.1850Y-4.2140
X35.9510Y5.7460
X36.2010Y-0.9250
X21.8300Y5.7840
X16.8110Y36.3480
X20.4050Y7.8250
X20.0000Y24.7400
X20.0000Y22.6000
X15.4000Y30.0000
X15.4260Y8.0010
X14.7690Y-11.3760
X15.5210Y-12.3960
X10.4700Y8.0100
X7.7180Y7.9460
X5.4010Y3.8290
X9.4120Y-12.6420
X9.7820Y-13.6610
X64.8220Y26.1980
X61.0800Y26.5450
X44.0020Y-0.8010
X57.3439Y35.2756
X-32.4620Y17.2020
X13.1920Y-13.2070
X14.1170Y-13.8030
X19.6250Y-13.3090
X-61.3470Y7.7580
X-62.1520Y-9.0470
X59.6200Y20.7870
X59.8000Y15.2000
X25.7040Y32.0860
X24.2390Y32.1450
X23.7730Y26.7380
X-13.9800Y38.1870
X-12.4000Y38.1250
X45.2000Y22.8000
X45.6220Y-19.0510
X50.8000Y20.0000
X53.9070Y29.0990
X57.6000Y-15.6000
X37.3630Y-30.0320
X46.9460Y15.0430
X47.8510Y14.0160
X57.7110Y26.9910
X59.1740Y-28.0210
X37.0000Y-28.5000
X46.9800Y10.4950
X44.9870Y8.1030
X42.6000Y19.5720
X67.6000Y32.8000
M30