M48
; DRILL file {tscircuit} date 2026-08-26T23:47:51.732Z
; FORMAT={-:-/ absolute / metric / decimal}
; #@! TF.CreationDate,2026-08-26T23:47:51.732Z
; #@! TF.GenerationSoftware,tscircuit
; #@! TF.FileFunction,Plated,1,2,PTH
FMAT,2
METRIC
; #@! TA.AperFunction,Plated,PTH,ComponentDrill
T10C1.000000
; #@! TA.AperFunction,Plated,PTH,ComponentDrill
T11C1.500000
; #@! TA.AperFunction,Plated,PTH,ComponentDrill
T12C1.100000
; #@! TA.AperFunction,Plated,PTH,ComponentDrill
T13C1.190000
; #@! TA.AperFunction,Plated,PTH,ComponentDrill
T14C0.200000
%
G90
G05
T10
X18.0000Y-26.6700
X18.0000Y-24.1300
X18.0000Y-21.5900
X18.0000Y-19.0500
X18.0000Y-16.5100
X18.0000Y-13.9700
X18.0000Y-11.4300
X18.0000Y-8.8900
X18.0000Y-6.3500
X18.0000Y-3.8100
X18.0000Y-1.2700
X18.0000Y1.2700
X18.0000Y3.8100
X18.0000Y6.3500
X18.0000Y8.8900
X18.0000Y11.4300
X18.0000Y13.9700
X18.0000Y16.5100
X18.0000Y19.0500
X18.0000Y21.5900
X18.0000Y24.1300
X18.0000Y26.6700
X40.8600Y-26.6700
X40.8600Y-24.1300
X40.8600Y-21.5900
X40.8600Y-19.0500
X40.8600Y-16.5100
X40.8600Y-13.9700
X40.8600Y-11.4300
X40.8600Y-8.8900
X40.8600Y-6.3500
X40.8600Y-3.8100
X40.8600Y-1.2700
X40.8600Y1.2700
X40.8600Y3.8100
X40.8600Y6.3500
X40.8600Y8.8900
X40.8600Y11.4300
X40.8600Y13.9700
X40.8600Y16.5100
X40.8600Y19.0500
X40.8600Y21.5900
X40.8600Y24.1300
X40.8600Y26.6700
X-70.5400Y-15.0000
X-68.0000Y-15.0000
X-65.4600Y-15.0000
X-70.5400Y0.0000
X-68.0000Y0.0000
X-65.4600Y0.0000
X-76.5000Y15.0000
X-44.1600Y40.3500
X-41.6200Y40.3500
X-44.1600Y37.8100
X-41.6200Y37.8100
X-44.1600Y35.2700
X-41.6200Y35.2700
X-44.1600Y32.7300
X-41.6200Y32.7300
X-44.1600Y30.1900
X-41.6200Y30.1900
X-44.1600Y27.6500
X-41.6200Y27.6500
X-30.1600Y-38.3500
X-30.1600Y-35.8100
X-30.1600Y-33.2700
X-30.1600Y-30.7300
X-30.1600Y-28.1900
X-30.1600Y-25.6500
X-9.8400Y-38.3500
X-9.8400Y-35.8100
X-9.8400Y-33.2700
X-9.8400Y-30.7300
X-9.8400Y-28.1900
X-9.8400Y-25.6500
X65.7300Y27.0000
X68.2700Y27.0000
X65.7300Y20.0000
X68.2700Y20.0000
X64.4600Y8.0000
X67.0000Y8.0000
X69.5400Y8.0000
X64.5000Y-12.0000
X69.5000Y-12.0000
T11
X-64.5400Y17.5000
X-59.4600Y17.5000
T12
X69.5400Y36.0000
X67.0000Y36.0000
X64.4600Y36.0000
T13
X12.4600Y-44.4200
X15.2300Y-44.4200
X18.0000Y-44.4200
X20.7700Y-44.4200
X23.5400Y-44.4200
X13.8450Y-41.5800
X16.6150Y-41.5800
X19.3850Y-41.5800
X22.1550Y-41.5800
X48.4600Y-44.4200
X51.2300Y-44.4200
X54.0000Y-44.4200
X56.7700Y-44.4200
X59.5400Y-44.4200
X49.8450Y-41.5800
X52.6150Y-41.5800
X55.3850Y-41.5800
X58.1550Y-41.5800
T14
X4.9920Y-9.2390
X4.6230Y-10.6950
X-3.9750Y-14.4940
X-5.8400Y-15.4560
X7.8150Y-7.6300
X-25.7520Y-20.2470
X-12.4750Y-17.7990
X-8.0390Y-12.9580
X-1.5660Y-2.5150
X-4.5310Y-5.7320
X7.6840Y17.3850
X4.4300Y6.4460
X-6.5840Y1.0610
X32.9570Y-24.7750
X34.1280Y-29.0690
X45.1790Y-8.7970
X45.0420Y-6.4650
X-7.2000Y-28.8000
X7.7440Y-18.2390
X3.4470Y-17.7520
X2.9480Y-15.0410
X57.6200Y35.1410
X57.8000Y32.8000
X58.0000Y16.8000
X58.0000Y9.6000
X-25.7860Y17.2590
X-19.3270Y4.1530
X-6.2290Y-0.6620
X-5.7410Y-1.7450
X8.3660Y-8.3970
X8.3900Y-10.0300
X15.8010Y-12.4890
X-34.9750Y11.8420
X-20.7260Y2.7270
X-16.0740Y2.0730
X4.4190Y-10.0280
X11.5710Y-13.4440
X-59.9070Y4.1300
X-32.4220Y0.1360
X7.4420Y10.7520
X-5.2120Y-9.8780
X-3.5370Y-10.7630
X-51.7490Y-8.2440
X-5.4420Y-15.0550
X-2.1790Y-18.3650
X-12.2320Y-12.9680
X11.6040Y-10.9280
X-7.6090Y-15.5390
X-3.9670Y-17.5980
X60.9540Y30.1990
X46.6550Y-16.2390
X58.4000Y31.2000
X44.7790Y26.2900
X-16.8700Y37.9450
X62.7810Y-7.7230
X53.6840Y16.9040
X51.2880Y5.6570
X51.8920Y14.3480
X34.8610Y-29.1980
X35.3980Y-29.9850
X35.6260Y-29.1680
X31.6970Y-25.8310
X33.8270Y-24.7810
X26.1750Y-36.8900
X60.0750Y-13.8000
X62.2310Y6.1720
X43.3570Y26.4850
X64.7722Y28.9372
M30