M48
; DRILL file {tscircuit} date 2026-08-27T10:14:07.320Z
; FORMAT={-:-/ absolute / metric / decimal}
; #@! TF.CreationDate,2026-08-27T10:14:07.320Z
; #@! TF.GenerationSoftware,tscircuit
; #@! TF.FileFunction,Plated,1,2,PTH
FMAT,2
METRIC
; #@! TA.AperFunction,Plated,PTH,ComponentDrill
T10C1.000000
; #@! TA.AperFunction,Plated,PTH,ComponentDrill
T11C1.100000
; #@! TA.AperFunction,Plated,PTH,ComponentDrill
T12C1.400000
; #@! TA.AperFunction,Plated,PTH,ComponentDrill
T13C0.900000
; #@! TA.AperFunction,Plated,PTH,ComponentDrill
T14C0.200000
%
G90
G05
T10
X18.0000Y-26.6700
X18.0000Y-24.1300
X18.0000Y-21.5900
X18.0000Y-19.0500
X18.0000Y-16.5100
X18.0000Y-13.9700
X18.0000Y-11.4300
X18.0000Y-8.8900
X18.0000Y-6.3500
X18.0000Y-3.8100
X18.0000Y-1.2700
X18.0000Y1.2700
X18.0000Y3.8100
X18.0000Y6.3500
X18.0000Y8.8900
X18.0000Y11.4300
X18.0000Y13.9700
X18.0000Y16.5100
X18.0000Y19.0500
X18.0000Y21.5900
X18.0000Y24.1300
X18.0000Y26.6700
X40.8600Y-26.6700
X40.8600Y-24.1300
X40.8600Y-21.5900
X40.8600Y-19.0500
X40.8600Y-16.5100
X40.8600Y-13.9700
X40.8600Y-11.4300
X40.8600Y-8.8900
X40.8600Y-6.3500
X40.8600Y-3.8100
X40.8600Y-1.2700
X40.8600Y1.2700
X40.8600Y3.8100
X40.8600Y6.3500
X40.8600Y8.8900
X40.8600Y11.4300
X40.8600Y13.9700
X40.8600Y16.5100
X40.8600Y19.0500
X40.8600Y21.5900
X40.8600Y24.1300
X40.8600Y26.6700
X-70.5400Y-15.0000
X-68.0000Y-15.0000
X-65.4600Y-15.0000
X-70.5400Y0.0000
X-68.0000Y0.0000
X-65.4600Y0.0000
X-76.5000Y15.0000
X-64.5400Y25.2925
X-59.4600Y25.2925
X-44.1600Y40.3500
X-41.6200Y40.3500
X-44.1600Y37.8100
X-41.6200Y37.8100
X-44.1600Y35.2700
X-41.6200Y35.2700
X-44.1600Y32.7300
X-41.6200Y32.7300
X-30.1600Y-38.3500
X-30.1600Y-35.8100
X-30.1600Y-33.2700
X-30.1600Y-30.7300
X-30.1600Y-28.1900
X-30.1600Y-25.6500
X-9.8400Y-38.3500
X-9.8400Y-35.8100
X-9.8400Y-33.2700
X-9.8400Y-30.7300
X-9.8400Y-28.1900
X-9.8400Y-25.6500
X6.1100Y40.7300
X6.1100Y43.2700
X8.6500Y40.7300
X8.6500Y43.2700
X11.1900Y40.7300
X11.1900Y43.2700
X13.7300Y40.7300
X13.7300Y43.2700
X16.2700Y40.7300
X16.2700Y43.2700
X18.8100Y40.7300
X18.8100Y43.2700
X21.3500Y40.7300
X21.3500Y43.2700
X23.8900Y40.7300
X23.8900Y43.2700
X65.5000Y-6.0000
X70.5000Y-6.0000
X42.9200Y-30.0000
X53.0800Y-30.0000
X62.9200Y-30.0000
X73.0800Y-30.0000
T11
X69.5400Y36.0000
X67.0000Y36.0000
X64.4600Y36.0000
T12
X38.0000Y36.0600
X38.0000Y40.0200
X38.0000Y43.9800
X38.0000Y47.9400
T13
X38.0950Y-39.3650
X39.3650Y-40.6350
X40.6350Y-39.3650
X41.9050Y-40.6350
X44.1900Y-21.4600
X44.1900Y-24.0000
X44.1900Y-26.5400
X51.8100Y-26.5400
X51.8100Y-24.0000
X51.8100Y-21.4600
X58.0950Y-39.3650
X59.3650Y-40.6350
X60.6350Y-39.3650
X61.9050Y-40.6350
X64.1900Y-21.4600
X64.1900Y-24.0000
X64.1900Y-26.5400
X71.8100Y-26.5400
X71.8100Y-24.0000
X71.8100Y-21.4600
T14
X34.3170Y-9.1690
X20.3500Y-10.1600
X16.6300Y-11.6290
X15.7800Y-11.9730
X-8.2550Y-12.3970
X-9.8500Y-11.7400
X-19.6340Y-23.6960
X30.1610Y-0.9270
X30.0000Y-4.2000
X16.8140Y-10.0760
X16.2450Y-10.8220
X14.0310Y-11.2030
X11.9540Y-12.8410
X32.9970Y15.5730
X28.7770Y8.5860
X26.9180Y8.2170
X10.7550Y-4.1000
X4.4020Y-3.0420
X16.6360Y-6.0250
X44.0000Y-1.6000
X28.2170Y-0.8360
X28.5810Y-1.8570
X24.2200Y38.2300
X39.2320Y-7.2500
X30.1090Y14.6270
X30.1800Y13.4190
X34.9880Y7.5260
X35.5480Y-0.2200
X26.2000Y24.5960
X37.3630Y-10.2720
X20.2140Y24.7030
X20.3200Y23.8130
X16.0000Y21.6000
X16.0000Y8.7940
X12.6950Y21.5760
X12.4000Y8.7930
X13.9660Y-2.6690
X16.1470Y-5.7830
X16.3120Y-8.1630
X9.8910Y21.5750
X9.6010Y8.7720
X10.4110Y-5.1000
X11.5990Y-8.1360
X14.8060Y-14.7330
X7.0350Y21.5840
X11.2000Y-8.6000
X57.3281Y35.0432
X-44.8710Y20.4740
X4.8480Y-5.8300
X11.2920Y-6.1320
X31.1750Y-14.2170
X-61.3470Y7.7580
X-62.1520Y-9.0470
X23.1970Y26.6640
X7.7900Y26.6710
X9.0060Y28.6450
X10.2060Y28.5620
X12.0100Y25.9450
X12.8530Y27.7120
X-13.9780Y37.8910
X-11.9230Y37.6920
X47.8970Y-15.8120
X58.1110Y-16.4250
X50.6920Y-9.9610
X59.1740Y-28.0210
X36.9870Y-29.2690
M30