M48
; DRILL file {tscircuit} date 2026-08-30T01:54:30.408Z
; FORMAT={-:-/ absolute / metric / decimal}
; #@! TF.CreationDate,2026-08-30T01:54:30.408Z
; #@! TF.GenerationSoftware,tscircuit
; #@! TF.FileFunction,Plated,1,2,PTH
FMAT,2
METRIC
; #@! TA.AperFunction,Plated,PTH,ComponentDrill
T10C1.000000
; #@! TA.AperFunction,Plated,PTH,ComponentDrill
T11C1.100000
; #@! TA.AperFunction,Plated,PTH,ComponentDrill
T12C1.400000
; #@! TA.AperFunction,Plated,PTH,ComponentDrill
T13C0.900000
; #@! TA.AperFunction,Plated,PTH,ComponentDrill
T14C0.200000
%
G90
G05
T10
X1.5700Y-41.6700
X1.5700Y-39.1300
X1.5700Y-36.5900
X1.5700Y-34.0500
X1.5700Y-31.5100
X1.5700Y-28.9700
X1.5700Y-26.4300
X1.5700Y-23.8900
X1.5700Y-21.3500
X1.5700Y-18.8100
X1.5700Y-16.2700
X1.5700Y-13.7300
X1.5700Y-11.1900
X1.5700Y-8.6500
X1.5700Y-6.1100
X1.5700Y-3.5700
X1.5700Y-1.0300
X1.5700Y1.5100
X1.5700Y4.0500
X1.5700Y6.5900
X1.5700Y9.1300
X1.5700Y11.6700
X24.4300Y-41.6700
X24.4300Y-39.1300
X24.4300Y-36.5900
X24.4300Y-34.0500
X24.4300Y-31.5100
X24.4300Y-28.9700
X24.4300Y-26.4300
X24.4300Y-23.8900
X24.4300Y-21.3500
X24.4300Y-18.8100
X24.4300Y-16.2700
X24.4300Y-13.7300
X24.4300Y-11.1900
X24.4300Y-8.6500
X24.4300Y-6.1100
X24.4300Y-3.5700
X24.4300Y-1.0300
X24.4300Y1.5100
X24.4300Y4.0500
X24.4300Y6.5900
X24.4300Y9.1300
X24.4300Y11.6700
X-70.5400Y-15.0000
X-68.0000Y-15.0000
X-65.4600Y-15.0000
X-70.5400Y0.0000
X-68.0000Y0.0000
X-65.4600Y0.0000
X-76.5000Y15.0000
X-64.5400Y25.2925
X-59.4600Y25.2925
X-44.1600Y40.3500
X-41.6200Y40.3500
X-44.1600Y37.8100
X-41.6200Y37.8100
X-44.1600Y35.2700
X-41.6200Y35.2700
X-44.1600Y32.7300
X-41.6200Y32.7300
X-30.1600Y-38.3500
X-30.1600Y-35.8100
X-30.1600Y-33.2700
X-30.1600Y-30.7300
X-30.1600Y-28.1900
X-30.1600Y-25.6500
X-9.8400Y-38.3500
X-9.8400Y-35.8100
X-9.8400Y-33.2700
X-9.8400Y-30.7300
X-9.8400Y-28.1900
X-9.8400Y-25.6500
X6.1100Y40.7300
X6.1100Y43.2700
X8.6500Y40.7300
X8.6500Y43.2700
X11.1900Y40.7300
X11.1900Y43.2700
X13.7300Y40.7300
X13.7300Y43.2700
X16.2700Y40.7300
X16.2700Y43.2700
X18.8100Y40.7300
X18.8100Y43.2700
X21.3500Y40.7300
X21.3500Y43.2700
X23.8900Y40.7300
X23.8900Y43.2700
X65.5000Y-6.0000
X70.5000Y-6.0000
X42.9200Y-30.0000
X53.0800Y-30.0000
X62.9200Y-30.0000
X73.0800Y-30.0000
T11
X69.5400Y46.0000
X67.0000Y46.0000
X64.4600Y46.0000
T12
X38.0000Y36.0600
X38.0000Y40.0200
X38.0000Y43.9800
X38.0000Y47.9400
T13
X38.0950Y-39.3650
X39.3650Y-40.6350
X40.6350Y-39.3650
X41.9050Y-40.6350
X44.1900Y-21.4600
X44.1900Y-24.0000
X44.1900Y-26.5400
X51.8100Y-26.5400
X51.8100Y-24.0000
X51.8100Y-21.4600
X58.0950Y-39.3650
X59.3650Y-40.6350
X60.6350Y-39.3650
X61.9050Y-40.6350
X64.1900Y-21.4600
X64.1900Y-24.0000
X64.1900Y-26.5400
X71.8100Y-26.5400
X71.8100Y-24.0000
X71.8100Y-21.4600
T14
X21.1860Y-22.9120
X-22.7910Y-27.0870
X18.7970Y-2.2290
X11.6340Y-8.4120
X3.1610Y-10.4500
X-22.0000Y-23.9990
X14.2640Y-0.4250
X13.9840Y-3.5990
X-3.5390Y-17.1110
X19.5760Y-0.9310
X17.1990Y-1.1760
X7.2170Y-3.3890
X5.7950Y-6.7660
X-18.5390Y-25.8330
X45.2960Y-19.1580
X28.4100Y-3.0320
X26.5540Y16.3700
X26.0000Y-30.4000
X21.8100Y2.1820
X27.1060Y-14.4340
X21.1000Y26.2140
X12.5410Y19.8910
X10.5770Y15.5960
X5.0150Y0.4760
X5.1410Y-8.9610
X12.5030Y16.9930
X12.3350Y15.7950
X8.1000Y-2.6120
X7.9490Y-10.5400
X3.4050Y-13.4420
X11.2590Y28.6530
X8.5070Y3.7380
X6.6430Y3.3480
X5.2580Y-14.2120
X9.0000Y-9.8000
X6.2040Y-12.6170
X4.5320Y-18.9730
X6.6660Y-25.8720
X-7.1290Y-17.1530
X-2.1160Y-26.3770
X-1.5800Y-27.1860
X-5.8090Y-16.2340
X-3.8670Y-18.1900
X37.6340Y2.5450
X35.7610Y-1.1730
X56.4770Y42.8430
X-48.4050Y17.0010
X-10.2860Y-15.9390
X-8.7810Y-17.4220
X3.6060Y-18.4020
X8.3990Y-18.8090
X21.1940Y-31.2060
X-47.4000Y11.0000
X-61.6210Y-10.8230
X22.4040Y32.2320
X7.6240Y16.2310
X6.8060Y16.0850
X-14.9420Y37.5000
X-11.2000Y36.8000
X58.9520Y-14.6470
X3.9750Y11.3040
X6.4800Y4.7190
X8.6870Y4.6590
X11.2070Y6.4710
X40.0000Y-8.8000
X39.6730Y-2.4960
X29.2240Y6.6900
X59.1740Y-28.0210
X37.9100Y-29.2500
X36.3420Y-28.7800
X45.4690Y-19.7460
X46.0764Y-11.2790
X46.2000Y-14.0000
X56.5060Y41.8450
X56.4000Y40.4000
M30