M48
; DRILL file {tscircuit} date 2026-08-27T03:11:56.141Z
; FORMAT={-:-/ absolute / metric / decimal}
; #@! TF.CreationDate,2026-08-27T03:11:56.141Z
; #@! TF.GenerationSoftware,tscircuit
; #@! TF.FileFunction,Plated,1,2,PTH
FMAT,2
METRIC
; #@! TA.AperFunction,Plated,PTH,ComponentDrill
T10C1.000000
; #@! TA.AperFunction,Plated,PTH,ComponentDrill
T11C1.100000
; #@! TA.AperFunction,Plated,PTH,ComponentDrill
T12C0.900000
; #@! TA.AperFunction,Plated,PTH,ComponentDrill
T13C0.200000
%
G90
G05
T10
X18.0000Y-26.6700
X18.0000Y-24.1300
X18.0000Y-21.5900
X18.0000Y-19.0500
X18.0000Y-16.5100
X18.0000Y-13.9700
X18.0000Y-11.4300
X18.0000Y-8.8900
X18.0000Y-6.3500
X18.0000Y-3.8100
X18.0000Y-1.2700
X18.0000Y1.2700
X18.0000Y3.8100
X18.0000Y6.3500
X18.0000Y8.8900
X18.0000Y11.4300
X18.0000Y13.9700
X18.0000Y16.5100
X18.0000Y19.0500
X18.0000Y21.5900
X18.0000Y24.1300
X18.0000Y26.6700
X40.8600Y-26.6700
X40.8600Y-24.1300
X40.8600Y-21.5900
X40.8600Y-19.0500
X40.8600Y-16.5100
X40.8600Y-13.9700
X40.8600Y-11.4300
X40.8600Y-8.8900
X40.8600Y-6.3500
X40.8600Y-3.8100
X40.8600Y-1.2700
X40.8600Y1.2700
X40.8600Y3.8100
X40.8600Y6.3500
X40.8600Y8.8900
X40.8600Y11.4300
X40.8600Y13.9700
X40.8600Y16.5100
X40.8600Y19.0500
X40.8600Y21.5900
X40.8600Y24.1300
X40.8600Y26.6700
X-70.5400Y-15.0000
X-68.0000Y-15.0000
X-65.4600Y-15.0000
X-70.5400Y0.0000
X-68.0000Y0.0000
X-65.4600Y0.0000
X-76.5000Y15.0000
X-64.5400Y25.2925
X-59.4600Y25.2925
X-44.1600Y40.3500
X-41.6200Y40.3500
X-44.1600Y37.8100
X-41.6200Y37.8100
X-44.1600Y35.2700
X-41.6200Y35.2700
X-44.1600Y32.7300
X-41.6200Y32.7300
X-44.1600Y30.1900
X-41.6200Y30.1900
X-44.1600Y27.6500
X-41.6200Y27.6500
X-30.1600Y-38.3500
X-30.1600Y-35.8100
X-30.1600Y-33.2700
X-30.1600Y-30.7300
X-30.1600Y-28.1900
X-30.1600Y-25.6500
X-9.8400Y-38.3500
X-9.8400Y-35.8100
X-9.8400Y-33.2700
X-9.8400Y-30.7300
X-9.8400Y-28.1900
X-9.8400Y-25.6500
X67.7300Y30.0000
X70.2700Y30.0000
X67.7300Y22.0000
X70.2700Y22.0000
X67.7300Y14.0000
X70.2700Y14.0000
X67.7300Y6.0000
X70.2700Y6.0000
X52.4600Y2.0000
X55.0000Y2.0000
X57.5400Y2.0000
X65.5000Y-6.0000
X70.5000Y-6.0000
X42.9200Y-30.0000
X53.0800Y-30.0000
X62.9200Y-30.0000
X73.0800Y-30.0000
T11
X69.5400Y36.0000
X67.0000Y36.0000
X64.4600Y36.0000
T12
X38.0950Y-39.3650
X39.3650Y-40.6350
X40.6350Y-39.3650
X41.9050Y-40.6350
X44.1900Y-21.4600
X44.1900Y-24.0000
X44.1900Y-26.5400
X51.8100Y-26.5400
X51.8100Y-24.0000
X51.8100Y-21.4600
X58.0950Y-39.3650
X59.3650Y-40.6350
X60.6350Y-39.3650
X61.9050Y-40.6350
X64.1900Y-21.4600
X64.1900Y-24.0000
X64.1900Y-26.5400
X71.8100Y-26.5400
X71.8100Y-24.0000
X71.8100Y-21.4600
T13
X15.0160Y-7.4170
X8.8430Y-7.5910
X2.4010Y-12.8470
X-2.7010Y-10.3790
X-26.0100Y-25.9300
X-13.9930Y-17.5890
X-12.9290Y-15.9970
X14.9790Y-10.3800
X13.0000Y-12.8330
X6.8720Y-21.4980
X6.5120Y8.8190
X-7.0160Y1.5680
X-7.3770Y-10.2280
X-13.1110Y-16.7940
X-13.1840Y-17.9760
X8.4700Y17.5880
X5.6800Y9.7120
X-9.9730Y1.7060
X-12.1010Y-10.3960
X-16.0010Y-16.3980
X-16.8160Y-17.1640
X15.7160Y-24.3980
X45.2790Y-19.2560
X43.1790Y-9.2200
X42.8160Y-7.5400
X45.1810Y3.9780
X-0.1350Y-16.7330
X56.0000Y33.2000
X39.4240Y-14.8420
X-27.0750Y18.1540
X-17.6000Y9.2000
X-14.2620Y5.4060
X-13.7020Y3.2360
X7.6040Y-6.7650
X9.2150Y-8.1750
X-32.0390Y7.7840
X-16.0190Y1.9820
X3.2200Y-9.2200
X5.8400Y-9.5980
X-61.5750Y7.3090
X-25.7750Y5.2810
X-35.6210Y-6.2610
X20.3500Y-14.4480
X-58.4000Y-9.6000
X-24.9750Y-2.3710
X-35.6290Y-12.2770
X-4.2000Y-15.2000
X3.2420Y-17.3830
X20.3500Y-17.7800
X-1.8230Y-16.9270
X0.1390Y-15.7620
X7.5950Y-16.0320
X55.1750Y4.2580
X59.4070Y7.8170
X59.4010Y7.0150
X32.5630Y10.8000
X49.0450Y5.4840
X48.3420Y5.8970
X45.3930Y22.8520
X46.2080Y-20.9040
X58.1110Y-16.4250
X55.9880Y-9.9950
X61.1850Y7.8100
X-16.8700Y37.9450
X37.3630Y-30.0320
X49.6260Y-0.7710
X55.5600Y9.6270
X56.1960Y22.4660
X59.1740Y-28.0210
X37.0000Y-28.5000
X47.3800Y-11.2210
X47.0180Y-13.8220
X44.4000Y8.0050
M30