M48
; DRILL file {tscircuit} date 2026-08-31T07:14:13.130Z
; FORMAT={-:-/ absolute / metric / decimal}
; #@! TF.CreationDate,2026-08-31T07:14:13.130Z
; #@! TF.GenerationSoftware,tscircuit
; #@! TF.FileFunction,Plated,1,2,PTH
FMAT,2
METRIC
; #@! TA.AperFunction,Plated,PTH,ComponentDrill
T10C1.000000
; #@! TA.AperFunction,Plated,PTH,ComponentDrill
T11C1.100000
; #@! TA.AperFunction,Plated,PTH,ComponentDrill
T12C1.400000
; #@! TA.AperFunction,Plated,PTH,ComponentDrill
T13C0.900000
; #@! TA.AperFunction,Plated,PTH,ComponentDrill
T14C0.200000
%
G90
G05
T10
X1.5700Y-41.6700
X1.5700Y-39.1300
X1.5700Y-36.5900
X1.5700Y-34.0500
X1.5700Y-31.5100
X1.5700Y-28.9700
X1.5700Y-26.4300
X1.5700Y-23.8900
X1.5700Y-21.3500
X1.5700Y-18.8100
X1.5700Y-16.2700
X1.5700Y-13.7300
X1.5700Y-11.1900
X1.5700Y-8.6500
X1.5700Y-6.1100
X1.5700Y-3.5700
X1.5700Y-1.0300
X1.5700Y1.5100
X1.5700Y4.0500
X1.5700Y6.5900
X1.5700Y9.1300
X1.5700Y11.6700
X24.4300Y-41.6700
X24.4300Y-39.1300
X24.4300Y-36.5900
X24.4300Y-34.0500
X24.4300Y-31.5100
X24.4300Y-28.9700
X24.4300Y-26.4300
X24.4300Y-23.8900
X24.4300Y-21.3500
X24.4300Y-18.8100
X24.4300Y-16.2700
X24.4300Y-13.7300
X24.4300Y-11.1900
X24.4300Y-8.6500
X24.4300Y-6.1100
X24.4300Y-3.5700
X24.4300Y-1.0300
X24.4300Y1.5100
X24.4300Y4.0500
X24.4300Y6.5900
X24.4300Y9.1300
X24.4300Y11.6700
X-70.5400Y-15.0000
X-68.0000Y-15.0000
X-65.4600Y-15.0000
X-70.5400Y0.0000
X-68.0000Y0.0000
X-65.4600Y0.0000
X-76.5000Y15.0000
X-64.5400Y25.2925
X-59.4600Y25.2925
X-44.1600Y40.3500
X-41.6200Y40.3500
X-44.1600Y37.8100
X-41.6200Y37.8100
X-44.1600Y35.2700
X-41.6200Y35.2700
X-44.1600Y32.7300
X-41.6200Y32.7300
X-9.8400Y-25.6500
X-9.8400Y-28.1900
X-9.8400Y-30.7300
X-9.8400Y-33.2700
X-9.8400Y-35.8100
X-9.8400Y-38.3500
X-30.1600Y-25.6500
X-30.1600Y-28.1900
X-30.1600Y-30.7300
X-30.1600Y-33.2700
X-30.1600Y-35.8100
X-30.1600Y-38.3500
X6.1100Y40.7300
X6.1100Y43.2700
X8.6500Y40.7300
X8.6500Y43.2700
X11.1900Y40.7300
X11.1900Y43.2700
X13.7300Y40.7300
X13.7300Y43.2700
X16.2700Y40.7300
X16.2700Y43.2700
X18.8100Y40.7300
X18.8100Y43.2700
X21.3500Y40.7300
X21.3500Y43.2700
X23.8900Y40.7300
X23.8900Y43.2700
X65.5000Y16.0000
X70.5000Y16.0000
X42.9200Y-18.0000
X53.0800Y-18.0000
X62.9200Y-18.0000
X73.0800Y-18.0000
T11
X69.5400Y46.0000
X67.0000Y46.0000
X64.4600Y46.0000
T12
X38.0000Y36.0600
X38.0000Y40.0200
X38.0000Y43.9800
X38.0000Y47.9400
T13
X41.9050Y-33.0700
X40.6350Y-30.5300
X39.3650Y-33.0700
X38.0950Y-30.5300
X44.1900Y-9.4600
X44.1900Y-12.0000
X44.1900Y-14.5400
X51.8100Y-14.5400
X51.8100Y-12.0000
X51.8100Y-9.4600
X61.9050Y-33.0700
X60.6350Y-30.5300
X59.3650Y-33.0700
X58.0950Y-30.5300
X64.1900Y-9.4600
X64.1900Y-12.0000
X64.1900Y-14.5400
X71.8100Y-14.5400
X71.8100Y-12.0000
X71.8100Y-9.4600
T14
X21.8070Y-19.8620
X20.4110Y-19.5320
X-0.6090Y-32.9830
X-4.0000Y-36.8000
X18.8610Y-10.8060
X8.4230Y-19.7940
X7.1740Y-20.6160
X7.2760Y-6.9860
X6.2310Y-6.1570
X-20.9100Y-32.0250
X18.7820Y-5.8340
X8.6390Y-15.7020
X7.5970Y-15.8130
X-0.7630Y-20.4380
X-1.6280Y-20.1230
X41.8220Y-8.2940
X36.2800Y-19.4160
X29.1130Y-0.4570
X25.9740Y-16.0930
X19.9390Y12.3830
X20.2100Y2.1820
X18.0750Y25.4140
X18.9230Y-19.5150
X10.5770Y15.5960
X5.3600Y-5.0510
X5.3530Y-8.1720
X11.2590Y28.6530
X8.5070Y3.7380
X6.6430Y3.3480
X5.5070Y-16.9790
X8.4350Y-8.5740
X2.8560Y-18.5960
X11.0200Y-4.9820
X-3.4720Y-17.9330
X-2.5710Y-18.4550
X-3.7410Y-30.9880
X62.4650Y30.9750
X57.6200Y43.1410
X57.8000Y40.8000
X-12.4390Y-35.9080
X29.9160Y-18.1980
X25.7710Y-18.5850
X13.9050Y-33.1730
X-48.4050Y17.0010
X-12.6320Y-17.4310
X-2.3980Y-17.6460
X2.8300Y-20.6080
X5.6020Y-20.6390
X14.0240Y-31.3000
X-47.4000Y11.0000
X-61.6210Y-10.8230
X24.3030Y27.9610
X21.2320Y22.9950
X15.9000Y16.5750
X7.6240Y16.2310
X6.8060Y16.0850
X-14.9420Y37.5000
X-11.2000Y36.8000
X44.9550Y-5.7910
X44.8920Y-6.9980
X58.8000Y39.2000
X3.9750Y11.3040
X6.4800Y4.7190
X8.6870Y4.6590
X11.2070Y6.4710
X44.0970Y8.3130
X28.3140Y9.2810
X39.5220Y-22.5180
X75.1670Y-12.4600
X63.8540Y-26.0290
X59.8010Y-16.1920
X57.0870Y-9.6250
X47.5610Y-26.8920
X36.3910Y-16.0630
X45.4910Y-7.7140
X47.8000Y11.2000
X45.0350Y7.4330
M30