M48
; DRILL file {tscircuit} date 2026-08-27T11:18:39.361Z
; FORMAT={-:-/ absolute / metric / decimal}
; #@! TF.CreationDate,2026-08-27T11:18:39.361Z
; #@! TF.GenerationSoftware,tscircuit
; #@! TF.FileFunction,Plated,1,2,PTH
FMAT,2
METRIC
; #@! TA.AperFunction,Plated,PTH,ComponentDrill
T10C1.000000
; #@! TA.AperFunction,Plated,PTH,ComponentDrill
T11C1.100000
; #@! TA.AperFunction,Plated,PTH,ComponentDrill
T12C1.400000
; #@! TA.AperFunction,Plated,PTH,ComponentDrill
T13C0.900000
; #@! TA.AperFunction,Plated,PTH,ComponentDrill
T14C0.200000
%
G90
G05
T10
X18.0000Y-26.6700
X18.0000Y-24.1300
X18.0000Y-21.5900
X18.0000Y-19.0500
X18.0000Y-16.5100
X18.0000Y-13.9700
X18.0000Y-11.4300
X18.0000Y-8.8900
X18.0000Y-6.3500
X18.0000Y-3.8100
X18.0000Y-1.2700
X18.0000Y1.2700
X18.0000Y3.8100
X18.0000Y6.3500
X18.0000Y8.8900
X18.0000Y11.4300
X18.0000Y13.9700
X18.0000Y16.5100
X18.0000Y19.0500
X18.0000Y21.5900
X18.0000Y24.1300
X18.0000Y26.6700
X40.8600Y-26.6700
X40.8600Y-24.1300
X40.8600Y-21.5900
X40.8600Y-19.0500
X40.8600Y-16.5100
X40.8600Y-13.9700
X40.8600Y-11.4300
X40.8600Y-8.8900
X40.8600Y-6.3500
X40.8600Y-3.8100
X40.8600Y-1.2700
X40.8600Y1.2700
X40.8600Y3.8100
X40.8600Y6.3500
X40.8600Y8.8900
X40.8600Y11.4300
X40.8600Y13.9700
X40.8600Y16.5100
X40.8600Y19.0500
X40.8600Y21.5900
X40.8600Y24.1300
X40.8600Y26.6700
X-70.5400Y-15.0000
X-68.0000Y-15.0000
X-65.4600Y-15.0000
X-70.5400Y0.0000
X-68.0000Y0.0000
X-65.4600Y0.0000
X-76.5000Y15.0000
X-64.5400Y25.2925
X-59.4600Y25.2925
X-44.1600Y40.3500
X-41.6200Y40.3500
X-44.1600Y37.8100
X-41.6200Y37.8100
X-44.1600Y35.2700
X-41.6200Y35.2700
X-44.1600Y32.7300
X-41.6200Y32.7300
X-30.1600Y-38.3500
X-30.1600Y-35.8100
X-30.1600Y-33.2700
X-30.1600Y-30.7300
X-30.1600Y-28.1900
X-30.1600Y-25.6500
X-9.8400Y-38.3500
X-9.8400Y-35.8100
X-9.8400Y-33.2700
X-9.8400Y-30.7300
X-9.8400Y-28.1900
X-9.8400Y-25.6500
X6.1100Y40.7300
X6.1100Y43.2700
X8.6500Y40.7300
X8.6500Y43.2700
X11.1900Y40.7300
X11.1900Y43.2700
X13.7300Y40.7300
X13.7300Y43.2700
X16.2700Y40.7300
X16.2700Y43.2700
X18.8100Y40.7300
X18.8100Y43.2700
X21.3500Y40.7300
X21.3500Y43.2700
X23.8900Y40.7300
X23.8900Y43.2700
X65.5000Y-6.0000
X70.5000Y-6.0000
X42.9200Y-30.0000
X53.0800Y-30.0000
X62.9200Y-30.0000
X73.0800Y-30.0000
T11
X69.5400Y36.0000
X67.0000Y36.0000
X64.4600Y36.0000
T12
X38.0000Y36.0600
X38.0000Y40.0200
X38.0000Y43.9800
X38.0000Y47.9400
T13
X38.0950Y-39.3650
X39.3650Y-40.6350
X40.6350Y-39.3650
X41.9050Y-40.6350
X44.1900Y-21.4600
X44.1900Y-24.0000
X44.1900Y-26.5400
X51.8100Y-26.5400
X51.8100Y-24.0000
X51.8100Y-21.4600
X58.0950Y-39.3650
X59.3650Y-40.6350
X60.6350Y-39.3650
X61.9050Y-40.6350
X64.1900Y-21.4600
X64.1900Y-24.0000
X64.1900Y-26.5400
X71.8100Y-26.5400
X71.8100Y-24.0000
X71.8100Y-21.4600
T14
X37.5520Y-11.6820
X31.9750Y-9.2340
X-8.3140Y-20.5720
X-9.9420Y-19.1410
X36.6020Y9.5160
X36.2150Y3.7180
X2.0190Y-11.4330
X32.4470Y17.7570
X31.9580Y13.8480
X28.3820Y10.7080
X34.2170Y7.3780
X13.6290Y-0.8720
X12.8510Y-1.1910
X9.2760Y-5.7800
X7.5760Y-7.5560
X16.4250Y-4.0800
X15.1390Y-5.5740
X12.8990Y-6.1640
X10.7460Y-7.5120
X2.6020Y-14.2310
X1.9190Y-16.4300
X44.0000Y-1.6000
X37.0390Y-14.5450
X35.5900Y11.5860
X36.4040Y10.9520
X21.9550Y33.9810
X25.0000Y9.0000
X19.7290Y6.5930
X21.7150Y2.5550
X16.0000Y21.6000
X16.0000Y8.7940
X16.1360Y-0.2310
X16.6460Y-1.0520
X10.9100Y21.5750
X11.4520Y7.4410
X15.6200Y-0.5980
X16.3260Y-2.2540
X16.7580Y-3.4040
X16.8080Y-6.9830
X12.6460Y21.5860
X10.1950Y-3.8690
X9.1680Y26.3830
X14.0520Y-2.6690
X14.6220Y-3.3940
X15.4080Y-11.7490
X9.7390Y-3.3000
X11.7620Y-5.0150
X14.7950Y-12.7540
X7.0350Y21.5840
X8.8800Y-4.5570
X57.3281Y35.0432
X-44.8710Y20.4740
X11.5530Y-4.1160
X15.8050Y-5.6550
X20.3500Y-9.2200
X-61.3470Y7.7580
X-62.1520Y-9.0470
X27.6450Y30.1630
X22.7790Y25.9450
X21.2390Y25.8340
X6.9530Y26.8270
X-13.9780Y37.8910
X-11.9230Y37.6920
X47.8970Y-15.8120
X58.1110Y-16.4250
X50.6920Y-9.9610
X59.1740Y-28.0210
X36.9870Y-29.2690
M30