M48
; DRILL file {tscircuit} date 2026-08-27T05:33:12.759Z
; FORMAT={-:-/ absolute / metric / decimal}
; #@! TF.CreationDate,2026-08-27T05:33:12.759Z
; #@! TF.GenerationSoftware,tscircuit
; #@! TF.FileFunction,Plated,1,2,PTH
FMAT,2
METRIC
; #@! TA.AperFunction,Plated,PTH,ComponentDrill
T10C1.000000
; #@! TA.AperFunction,Plated,PTH,ComponentDrill
T11C1.100000
; #@! TA.AperFunction,Plated,PTH,ComponentDrill
T12C0.900000
; #@! TA.AperFunction,Plated,PTH,ComponentDrill
T13C0.200000
%
G90
G05
T10
X18.0000Y-26.6700
X18.0000Y-24.1300
X18.0000Y-21.5900
X18.0000Y-19.0500
X18.0000Y-16.5100
X18.0000Y-13.9700
X18.0000Y-11.4300
X18.0000Y-8.8900
X18.0000Y-6.3500
X18.0000Y-3.8100
X18.0000Y-1.2700
X18.0000Y1.2700
X18.0000Y3.8100
X18.0000Y6.3500
X18.0000Y8.8900
X18.0000Y11.4300
X18.0000Y13.9700
X18.0000Y16.5100
X18.0000Y19.0500
X18.0000Y21.5900
X18.0000Y24.1300
X18.0000Y26.6700
X40.8600Y-26.6700
X40.8600Y-24.1300
X40.8600Y-21.5900
X40.8600Y-19.0500
X40.8600Y-16.5100
X40.8600Y-13.9700
X40.8600Y-11.4300
X40.8600Y-8.8900
X40.8600Y-6.3500
X40.8600Y-3.8100
X40.8600Y-1.2700
X40.8600Y1.2700
X40.8600Y3.8100
X40.8600Y6.3500
X40.8600Y8.8900
X40.8600Y11.4300
X40.8600Y13.9700
X40.8600Y16.5100
X40.8600Y19.0500
X40.8600Y21.5900
X40.8600Y24.1300
X40.8600Y26.6700
X-70.5400Y-15.0000
X-68.0000Y-15.0000
X-65.4600Y-15.0000
X-70.5400Y0.0000
X-68.0000Y0.0000
X-65.4600Y0.0000
X-76.5000Y15.0000
X-64.5400Y25.2925
X-59.4600Y25.2925
X-44.1600Y40.3500
X-41.6200Y40.3500
X-44.1600Y37.8100
X-41.6200Y37.8100
X-44.1600Y35.2700
X-41.6200Y35.2700
X-44.1600Y32.7300
X-41.6200Y32.7300
X-30.1600Y-38.3500
X-30.1600Y-35.8100
X-30.1600Y-33.2700
X-30.1600Y-30.7300
X-30.1600Y-28.1900
X-30.1600Y-25.6500
X-9.8400Y-38.3500
X-9.8400Y-35.8100
X-9.8400Y-33.2700
X-9.8400Y-30.7300
X-9.8400Y-28.1900
X-9.8400Y-25.6500
X67.7300Y30.0000
X70.2700Y30.0000
X67.7300Y22.0000
X70.2700Y22.0000
X67.7300Y14.0000
X70.2700Y14.0000
X67.7300Y6.0000
X70.2700Y6.0000
X52.4600Y2.0000
X55.0000Y2.0000
X57.5400Y2.0000
X65.5000Y-6.0000
X70.5000Y-6.0000
X42.9200Y-30.0000
X53.0800Y-30.0000
X62.9200Y-30.0000
X73.0800Y-30.0000
T11
X69.5400Y36.0000
X67.0000Y36.0000
X64.4600Y36.0000
T12
X38.0950Y-39.3650
X39.3650Y-40.6350
X40.6350Y-39.3650
X41.9050Y-40.6350
X44.1900Y-21.4600
X44.1900Y-24.0000
X44.1900Y-26.5400
X51.8100Y-26.5400
X51.8100Y-24.0000
X51.8100Y-21.4600
X58.0950Y-39.3650
X59.3650Y-40.6350
X60.6350Y-39.3650
X61.9050Y-40.6350
X64.1900Y-21.4600
X64.1900Y-24.0000
X64.1900Y-26.5400
X71.8100Y-26.5400
X71.8100Y-24.0000
X71.8100Y-21.4600
T13
X4.1830Y-6.1810
X-4.6480Y-12.9530
X-10.7090Y-16.4580
X-3.6050Y-19.6570
X-7.5740Y-19.8910
X10.8680Y6.6210
X13.6000Y4.6000
X13.0560Y3.5690
X-5.7090Y-10.9700
X-6.2310Y-12.1390
X11.0870Y6.1370
X-17.9980Y-10.2080
X-18.2420Y-10.9940
X-18.6950Y-16.5510
X-18.9580Y-17.7950
X45.2800Y-19.2550
X59.1730Y-19.3500
X60.7830Y-19.0400
X60.4170Y27.7840
X57.1490Y27.4130
X57.3950Y28.7860
X58.1760Y24.1550
X-25.7860Y17.2590
X-17.6000Y9.2000
X-14.2440Y5.4090
X-13.1050Y3.4800
X-4.4400Y-1.9040
X-1.1270Y-4.5250
X9.5810Y-13.6040
X10.5770Y-15.0420
X-34.9750Y11.8420
X7.6290Y-10.9160
X9.5840Y-11.4910
X14.4020Y-15.8130
X-19.2000Y6.4000
X10.4200Y4.8750
X-47.2030Y4.4830
X-35.6210Y-6.2610
X9.2260Y-10.5980
X12.0620Y-11.1780
X-58.4000Y-9.6000
X-6.8390Y-3.5080
X-3.4350Y-6.2050
X-35.6290Y-12.2770
X19.5500Y-17.7800
X8.0000Y-12.8130
X11.1930Y-13.1210
X-14.6040Y-16.1790
X-13.6090Y-16.6820
X5.5680Y-17.1960
X9.9570Y-14.6270
X55.1750Y4.2560
X59.6050Y9.0000
X59.6000Y7.0000
X45.6220Y4.5640
X41.9980Y7.6220
X-15.4400Y40.0830
X-14.6140Y40.2180
X46.9160Y4.8220
X46.6680Y5.6050
X44.8000Y22.8000
X46.8460Y-20.1540
X51.2000Y20.0000
X59.4940Y31.0930
X37.3630Y-30.0320
X43.2230Y-8.7470
X56.0910Y11.1660
X59.5580Y28.5550
X59.1740Y-28.0210
X37.0000Y-28.5000
X58.9212Y34.5155
X56.5250Y32.2500
X45.4460Y4.9440
X44.7580Y5.3740
X63.8891Y5.9930
X63.5239Y5.7768
X63.4640Y16.5750
X42.6780Y15.1580
X42.3440Y9.2000
X42.5950Y-6.0820
X67.3630Y31.5460
M30