M48
; DRILL file {tscircuit} date 2026-08-31T00:40:08.896Z
; FORMAT={-:-/ absolute / metric / decimal}
; #@! TF.CreationDate,2026-08-31T00:40:08.896Z
; #@! TF.GenerationSoftware,tscircuit
; #@! TF.FileFunction,Plated,1,2,PTH
FMAT,2
METRIC
; #@! TA.AperFunction,Plated,PTH,ComponentDrill
T10C1.000000
; #@! TA.AperFunction,Plated,PTH,ComponentDrill
T11C1.100000
; #@! TA.AperFunction,Plated,PTH,ComponentDrill
T12C1.400000
; #@! TA.AperFunction,Plated,PTH,ComponentDrill
T13C0.900000
; #@! TA.AperFunction,Plated,PTH,ComponentDrill
T14C0.200000
%
G90
G05
T10
X1.5700Y-41.6700
X1.5700Y-39.1300
X1.5700Y-36.5900
X1.5700Y-34.0500
X1.5700Y-31.5100
X1.5700Y-28.9700
X1.5700Y-26.4300
X1.5700Y-23.8900
X1.5700Y-21.3500
X1.5700Y-18.8100
X1.5700Y-16.2700
X1.5700Y-13.7300
X1.5700Y-11.1900
X1.5700Y-8.6500
X1.5700Y-6.1100
X1.5700Y-3.5700
X1.5700Y-1.0300
X1.5700Y1.5100
X1.5700Y4.0500
X1.5700Y6.5900
X1.5700Y9.1300
X1.5700Y11.6700
X24.4300Y-41.6700
X24.4300Y-39.1300
X24.4300Y-36.5900
X24.4300Y-34.0500
X24.4300Y-31.5100
X24.4300Y-28.9700
X24.4300Y-26.4300
X24.4300Y-23.8900
X24.4300Y-21.3500
X24.4300Y-18.8100
X24.4300Y-16.2700
X24.4300Y-13.7300
X24.4300Y-11.1900
X24.4300Y-8.6500
X24.4300Y-6.1100
X24.4300Y-3.5700
X24.4300Y-1.0300
X24.4300Y1.5100
X24.4300Y4.0500
X24.4300Y6.5900
X24.4300Y9.1300
X24.4300Y11.6700
X-70.5400Y-15.0000
X-68.0000Y-15.0000
X-65.4600Y-15.0000
X-70.5400Y0.0000
X-68.0000Y0.0000
X-65.4600Y0.0000
X-76.5000Y15.0000
X-64.5400Y25.2925
X-59.4600Y25.2925
X-44.1600Y40.3500
X-41.6200Y40.3500
X-44.1600Y37.8100
X-41.6200Y37.8100
X-44.1600Y35.2700
X-41.6200Y35.2700
X-44.1600Y32.7300
X-41.6200Y32.7300
X-9.8400Y-25.6500
X-9.8400Y-28.1900
X-9.8400Y-30.7300
X-9.8400Y-33.2700
X-9.8400Y-35.8100
X-9.8400Y-38.3500
X-30.1600Y-25.6500
X-30.1600Y-28.1900
X-30.1600Y-30.7300
X-30.1600Y-33.2700
X-30.1600Y-35.8100
X-30.1600Y-38.3500
X6.1100Y40.7300
X6.1100Y43.2700
X8.6500Y40.7300
X8.6500Y43.2700
X11.1900Y40.7300
X11.1900Y43.2700
X13.7300Y40.7300
X13.7300Y43.2700
X16.2700Y40.7300
X16.2700Y43.2700
X18.8100Y40.7300
X18.8100Y43.2700
X21.3500Y40.7300
X21.3500Y43.2700
X23.8900Y40.7300
X23.8900Y43.2700
X65.5000Y-6.0000
X70.5000Y-6.0000
X42.9200Y-30.0000
X53.0800Y-30.0000
X62.9200Y-30.0000
X73.0800Y-30.0000
T11
X69.5400Y46.0000
X67.0000Y46.0000
X64.4600Y46.0000
T12
X38.0000Y36.0600
X38.0000Y40.0200
X38.0000Y43.9800
X38.0000Y47.9400
T13
X41.9050Y-47.6350
X40.6350Y-46.3650
X39.3650Y-47.6350
X38.0950Y-46.3650
X44.1900Y-21.4600
X44.1900Y-24.0000
X44.1900Y-26.5400
X51.8100Y-26.5400
X51.8100Y-24.0000
X51.8100Y-21.4600
X61.9050Y-47.6350
X60.6350Y-46.3650
X59.3650Y-47.6350
X58.0950Y-46.3650
X64.1900Y-21.4600
X64.1900Y-24.0000
X64.1900Y-26.5400
X71.8100Y-26.5400
X71.8100Y-24.0000
X71.8100Y-21.4600
T14
X18.8800Y-10.3000
X5.5770Y-4.8170
X4.2080Y-0.8480
X-26.1540Y-32.2490
X18.7830Y-9.0330
X-3.0310Y-22.3520
X-3.3720Y-23.3810
X-21.6470Y-32.8110
X45.2960Y-19.1580
X28.4100Y-3.0320
X26.5540Y16.3700
X25.9800Y-30.2400
X21.8100Y2.1820
X22.2210Y-12.2170
X27.1060Y-14.4340
X27.1090Y-16.7650
X21.1000Y26.2140
X10.3840Y20.4170
X10.0170Y14.7840
X5.6570Y-2.1990
X4.3660Y-9.2510
X10.9710Y0.8460
X10.7760Y-6.1920
X11.9590Y28.4470
X5.4170Y-18.6300
X7.6540Y-10.7930
X10.4380Y-12.3640
X9.6260Y-21.3820
X9.9100Y2.8050
X11.5990Y2.4340
X11.6000Y-10.9930
X9.3840Y-14.2120
X8.5970Y-23.3250
X5.4230Y36.5880
X-9.4060Y-16.1700
X-8.5940Y-17.4220
X2.7720Y-32.6120
X37.6340Y2.5450
X35.7610Y-1.1730
X-4.9990Y-36.2120
X-6.5830Y-36.3780
X-22.5850Y-34.1790
X56.4770Y42.8430
X15.5670Y-33.0970
X-48.4050Y17.0010
X-3.1990Y-16.8110
X-2.0550Y-16.9810
X4.4190Y-21.5870
X9.1240Y-21.3770
X14.0250Y-31.3090
X-47.4000Y11.0000
X-61.6210Y-10.8230
X22.4040Y32.2320
X10.8550Y16.4120
X10.6660Y15.2730
X6.8050Y15.6330
X5.8840Y14.7770
X-14.9420Y37.5000
X-11.2000Y36.8000
X58.9520Y-14.6470
X3.0210Y9.0020
X5.1970Y5.3680
X5.5740Y2.4130
X7.8090Y2.8870
X8.9970Y3.1580
X11.6430Y3.9870
X12.3840Y7.6220
X40.0000Y-8.8000
X39.6730Y-2.4960
X29.2240Y6.6900
X69.4400Y-36.2540
X63.0180Y-42.5780
X61.5010Y-44.2050
X59.9800Y-28.3500
X60.1740Y-30.5900
X56.9700Y-34.1570
X42.6550Y-43.3350
X40.8430Y-44.0690
X37.9090Y-28.5940
X36.3420Y-28.7300
X45.4690Y-19.7460
X46.0764Y-11.2790
X46.2000Y-14.0000
X56.5060Y41.8450
X56.4000Y40.4000
M30