M48
; DRILL file {tscircuit} date 2026-08-26T22:54:07.096Z
; FORMAT={-:-/ absolute / metric / decimal}
; #@! TF.CreationDate,2026-08-26T22:54:07.096Z
; #@! TF.GenerationSoftware,tscircuit
; #@! TF.FileFunction,Plated,1,2,PTH
FMAT,2
METRIC
; #@! TA.AperFunction,Plated,PTH,ComponentDrill
T10C1.000000
; #@! TA.AperFunction,Plated,PTH,ComponentDrill
T11C1.500000
; #@! TA.AperFunction,Plated,PTH,ComponentDrill
T12C1.100000
; #@! TA.AperFunction,Plated,PTH,ComponentDrill
T13C0.200000
%
G90
G05
T10
X18.0000Y-26.6700
X18.0000Y-24.1300
X18.0000Y-21.5900
X18.0000Y-19.0500
X18.0000Y-16.5100
X18.0000Y-13.9700
X18.0000Y-11.4300
X18.0000Y-8.8900
X18.0000Y-6.3500
X18.0000Y-3.8100
X18.0000Y-1.2700
X18.0000Y1.2700
X18.0000Y3.8100
X18.0000Y6.3500
X18.0000Y8.8900
X18.0000Y11.4300
X18.0000Y13.9700
X18.0000Y16.5100
X18.0000Y19.0500
X18.0000Y21.5900
X18.0000Y24.1300
X18.0000Y26.6700
X40.8600Y-26.6700
X40.8600Y-24.1300
X40.8600Y-21.5900
X40.8600Y-19.0500
X40.8600Y-16.5100
X40.8600Y-13.9700
X40.8600Y-11.4300
X40.8600Y-8.8900
X40.8600Y-6.3500
X40.8600Y-3.8100
X40.8600Y-1.2700
X40.8600Y1.2700
X40.8600Y3.8100
X40.8600Y6.3500
X40.8600Y8.8900
X40.8600Y11.4300
X40.8600Y13.9700
X40.8600Y16.5100
X40.8600Y19.0500
X40.8600Y21.5900
X40.8600Y24.1300
X40.8600Y26.6700
X-70.5400Y-15.0000
X-68.0000Y-15.0000
X-65.4600Y-15.0000
X-70.5400Y0.0000
X-68.0000Y0.0000
X-65.4600Y0.0000
X-76.5000Y15.0000
X-44.1600Y40.3500
X-41.6200Y40.3500
X-44.1600Y37.8100
X-41.6200Y37.8100
X-44.1600Y35.2700
X-41.6200Y35.2700
X-44.1600Y32.7300
X-41.6200Y32.7300
X-44.1600Y30.1900
X-41.6200Y30.1900
X-44.1600Y27.6500
X-41.6200Y27.6500
X-30.1600Y-38.3500
X-30.1600Y-35.8100
X-30.1600Y-33.2700
X-30.1600Y-30.7300
X-30.1600Y-28.1900
X-30.1600Y-25.6500
X-9.8400Y-38.3500
X-9.8400Y-35.8100
X-9.8400Y-33.2700
X-9.8400Y-30.7300
X-9.8400Y-28.1900
X-9.8400Y-25.6500
X64.4600Y8.0000
X67.0000Y8.0000
X69.5400Y8.0000
X65.7300Y-12.0000
X68.2700Y-12.0000
T11
X-64.5400Y17.5000
X-59.4600Y17.5000
T12
X69.5400Y36.0000
X67.0000Y36.0000
X64.4600Y36.0000
T13
X4.5920Y-7.2410
X1.4430Y-9.6130
X0.8400Y-10.6380
X-26.0100Y-25.9300
X-15.6250Y-19.3140
X-8.2860Y-12.9580
X6.5120Y8.8190
X-3.1550Y-0.1640
X-2.4210Y-1.0110
X0.5150Y-9.3570
X-13.8970Y-17.6080
X8.4700Y17.5880
X5.6800Y9.7120
X-11.0240Y-0.1940
X-11.1100Y-1.0050
X-11.0580Y-6.6000
X-11.2110Y-7.7710
X-15.8080Y-12.2850
X-19.4980Y-17.3140
X-3.2000Y-27.2050
X15.9080Y-21.3970
X48.0000Y29.6000
X-25.7860Y17.2590
X-17.6000Y9.2000
X-14.8940Y5.5630
X11.0750Y-15.5160
X-34.9750Y11.5250
X6.2420Y-13.2750
X15.5850Y-14.1830
X-19.2000Y6.4000
X-59.9070Y4.1300
X-51.7510Y-9.8460
X-3.4300Y-14.2140
X-2.5560Y-13.5060
X2.8880Y-14.2320
X3.1080Y-15.0130
X-24.9750Y-11.0480
X4.2340Y-10.6110
X-3.5150Y-15.4860
X-2.4740Y-14.7200
X-15.4400Y40.0830
X-14.6140Y40.2180
X66.9700Y3.4630
X59.2000Y10.4000
X43.2100Y30.2000
M30