M48
; DRILL file {tscircuit} date 2026-08-27T13:04:22.816Z
; FORMAT={-:-/ absolute / metric / decimal}
; #@! TF.CreationDate,2026-08-27T13:04:22.816Z
; #@! TF.GenerationSoftware,tscircuit
; #@! TF.FileFunction,Plated,1,2,PTH
FMAT,2
METRIC
; #@! TA.AperFunction,Plated,PTH,ComponentDrill
T10C1.000000
; #@! TA.AperFunction,Plated,PTH,ComponentDrill
T11C1.100000
; #@! TA.AperFunction,Plated,PTH,ComponentDrill
T12C1.400000
; #@! TA.AperFunction,Plated,PTH,ComponentDrill
T13C0.900000
; #@! TA.AperFunction,Plated,PTH,ComponentDrill
T14C0.200000
%
G90
G05
T10
X1.5700Y-28.6700
X1.5700Y-26.1300
X1.5700Y-23.5900
X1.5700Y-21.0500
X1.5700Y-18.5100
X1.5700Y-15.9700
X1.5700Y-13.4300
X1.5700Y-10.8900
X1.5700Y-8.3500
X1.5700Y-5.8100
X1.5700Y-3.2700
X1.5700Y-0.7300
X1.5700Y1.8100
X1.5700Y4.3500
X1.5700Y6.8900
X1.5700Y9.4300
X1.5700Y11.9700
X1.5700Y14.5100
X1.5700Y17.0500
X1.5700Y19.5900
X1.5700Y22.1300
X1.5700Y24.6700
X24.4300Y-28.6700
X24.4300Y-26.1300
X24.4300Y-23.5900
X24.4300Y-21.0500
X24.4300Y-18.5100
X24.4300Y-15.9700
X24.4300Y-13.4300
X24.4300Y-10.8900
X24.4300Y-8.3500
X24.4300Y-5.8100
X24.4300Y-3.2700
X24.4300Y-0.7300
X24.4300Y1.8100
X24.4300Y4.3500
X24.4300Y6.8900
X24.4300Y9.4300
X24.4300Y11.9700
X24.4300Y14.5100
X24.4300Y17.0500
X24.4300Y19.5900
X24.4300Y22.1300
X24.4300Y24.6700
X-70.5400Y-15.0000
X-68.0000Y-15.0000
X-65.4600Y-15.0000
X-70.5400Y0.0000
X-68.0000Y0.0000
X-65.4600Y0.0000
X-76.5000Y15.0000
X-64.5400Y25.2925
X-59.4600Y25.2925
X-44.1600Y40.3500
X-41.6200Y40.3500
X-44.1600Y37.8100
X-41.6200Y37.8100
X-44.1600Y35.2700
X-41.6200Y35.2700
X-44.1600Y32.7300
X-41.6200Y32.7300
X-30.1600Y-38.3500
X-30.1600Y-35.8100
X-30.1600Y-33.2700
X-30.1600Y-30.7300
X-30.1600Y-28.1900
X-30.1600Y-25.6500
X-9.8400Y-38.3500
X-9.8400Y-35.8100
X-9.8400Y-33.2700
X-9.8400Y-30.7300
X-9.8400Y-28.1900
X-9.8400Y-25.6500
X6.1100Y40.7300
X6.1100Y43.2700
X8.6500Y40.7300
X8.6500Y43.2700
X11.1900Y40.7300
X11.1900Y43.2700
X13.7300Y40.7300
X13.7300Y43.2700
X16.2700Y40.7300
X16.2700Y43.2700
X18.8100Y40.7300
X18.8100Y43.2700
X21.3500Y40.7300
X21.3500Y43.2700
X23.8900Y40.7300
X23.8900Y43.2700
X65.5000Y-6.0000
X70.5000Y-6.0000
X42.9200Y-30.0000
X53.0800Y-30.0000
X62.9200Y-30.0000
X73.0800Y-30.0000
T11
X69.5400Y36.0000
X67.0000Y36.0000
X64.4600Y36.0000
T12
X38.0000Y36.0600
X38.0000Y40.0200
X38.0000Y43.9800
X38.0000Y47.9400
T13
X38.0950Y-39.3650
X39.3650Y-40.6350
X40.6350Y-39.3650
X41.9050Y-40.6350
X44.1900Y-21.4600
X44.1900Y-24.0000
X44.1900Y-26.5400
X51.8100Y-26.5400
X51.8100Y-24.0000
X51.8100Y-21.4600
X58.0950Y-39.3650
X59.3650Y-40.6350
X60.6350Y-39.3650
X61.9050Y-40.6350
X64.1900Y-21.4600
X64.1900Y-24.0000
X64.1900Y-26.5400
X71.8100Y-26.5400
X71.8100Y-24.0000
X71.8100Y-21.4600
T14
X19.5940Y-9.9390
X-19.7880Y-23.6970
X-24.5820Y-23.8250
X20.3850Y8.6780
X17.1940Y7.8200
X14.0210Y8.1980
X21.1260Y23.4770
X17.3300Y24.8860
X17.2000Y11.6000
X-0.2990Y-15.1930
X18.9150Y12.1010
X8.4080Y3.6530
X8.1100Y6.9000
X7.1970Y5.9590
X5.7120Y1.0260
X-10.1220Y-7.6460
X59.1980Y-18.3700
X60.7990Y-18.3780
X46.4810Y-18.9980
X45.7770Y-9.0430
X42.5770Y-5.8430
X31.8120Y1.2380
X22.0840Y-8.3750
X20.6000Y31.3940
X19.6240Y31.3940
X13.4290Y27.8180
X10.1590Y14.6450
X7.3890Y12.2560
X3.6320Y9.6440
X9.0820Y28.3890
X8.8620Y26.8100
X5.0180Y8.1720
X5.0070Y2.2760
X12.3530Y28.6060
X4.7600Y6.4290
X4.4320Y-0.1400
X11.3280Y18.6070
X6.0860Y-3.7960
X6.1850Y-4.9190
X9.7150Y37.3820
X2.9870Y-4.0120
X3.1160Y-6.8380
X8.4030Y34.2000
X7.1230Y-8.0070
X6.0000Y33.7730
X6.7700Y-6.3300
X3.0030Y-10.4300
X-1.0550Y-5.8840
X-2.8510Y-7.5460
X7.4060Y34.6230
X3.6060Y17.8300
X64.9670Y33.7560
X56.4000Y34.2000
X-48.6050Y17.0140
X6.6180Y-9.1320
X7.8300Y-8.0850
X18.6420Y-18.1510
X-61.3470Y7.7580
X-62.1520Y-9.0470
X24.5770Y31.6280
X4.3600Y17.5540
X-14.8000Y37.6000
X-13.0685Y37.8330
X45.9840Y-21.1150
X57.9800Y31.3610
X37.8790Y5.5320
X37.7450Y13.5080
X59.1740Y-28.0210
X36.9870Y-29.2690
X46.6800Y-10.8350
X45.9250Y-14.2298
X55.4600Y32.3890
X56.0370Y31.8170
M30