M48
; DRILL file {tscircuit} date 2026-08-26T19:06:41.385Z
; FORMAT={-:-/ absolute / metric / decimal}
; #@! TF.CreationDate,2026-08-26T19:06:41.385Z
; #@! TF.GenerationSoftware,tscircuit
; #@! TF.FileFunction,Plated,1,2,PTH
FMAT,2
METRIC
; #@! TA.AperFunction,Plated,PTH,ComponentDrill
T10C1.000000
; #@! TA.AperFunction,Plated,PTH,ComponentDrill
T11C1.100000
; #@! TA.AperFunction,Plated,PTH,ComponentDrill
T12C0.200000
%
G90
G05
T10
X18.0000Y-26.6700
X18.0000Y-24.1300
X18.0000Y-21.5900
X18.0000Y-19.0500
X18.0000Y-16.5100
X18.0000Y-13.9700
X18.0000Y-11.4300
X18.0000Y-8.8900
X18.0000Y-6.3500
X18.0000Y-3.8100
X18.0000Y-1.2700
X18.0000Y1.2700
X18.0000Y3.8100
X18.0000Y6.3500
X18.0000Y8.8900
X18.0000Y11.4300
X18.0000Y13.9700
X18.0000Y16.5100
X18.0000Y19.0500
X18.0000Y21.5900
X18.0000Y24.1300
X18.0000Y26.6700
X40.8600Y-26.6700
X40.8600Y-24.1300
X40.8600Y-21.5900
X40.8600Y-19.0500
X40.8600Y-16.5100
X40.8600Y-13.9700
X40.8600Y-11.4300
X40.8600Y-8.8900
X40.8600Y-6.3500
X40.8600Y-3.8100
X40.8600Y-1.2700
X40.8600Y1.2700
X40.8600Y3.8100
X40.8600Y6.3500
X40.8600Y8.8900
X40.8600Y11.4300
X40.8600Y13.9700
X40.8600Y16.5100
X40.8600Y19.0500
X40.8600Y21.5900
X40.8600Y24.1300
X40.8600Y26.6700
X-70.5400Y-15.0000
X-68.0000Y-15.0000
X-65.4600Y-15.0000
X-70.5400Y0.0000
X-68.0000Y0.0000
X-65.4600Y0.0000
X-68.0000Y15.0000
X-56.2700Y40.0000
X-53.7300Y40.0000
X-30.1600Y-38.3500
X-30.1600Y-35.8100
X-30.1600Y-33.2700
X-30.1600Y-30.7300
X-30.1600Y-28.1900
X-30.1600Y-25.6500
X-9.8400Y-38.3500
X-9.8400Y-35.8100
X-9.8400Y-33.2700
X-9.8400Y-30.7300
X-9.8400Y-28.1900
X-9.8400Y-25.6500
X64.4600Y8.0000
X67.0000Y8.0000
X69.5400Y8.0000
X65.7300Y-12.0000
X68.2700Y-12.0000
T11
X69.5400Y36.0000
X67.0000Y36.0000
X64.4600Y36.0000
T12
X-1.3910Y-13.4830
X-3.0140Y-13.9570
X-9.5140Y-15.2960
X-15.2870Y-14.7080
X15.7550Y-3.4500
X-23.1930Y-23.2980
X-9.2270Y-17.2120
X-8.2810Y-14.0430
X6.7780Y-13.7660
X-2.4250Y-20.1350
X-10.8750Y-11.7200
X-9.5220Y-13.2460
X-12.4510Y-16.8790
X-19.2950Y-18.8600
X-0.5750Y1.1940
X-10.2860Y-13.9290
X-11.6610Y-15.2870
X56.0660Y13.1260
X43.1700Y16.0400
X42.3110Y15.3710
X-34.9750Y17.5250
X-3.5610Y0.2300
X-2.2160Y-0.8180
X8.5660Y-10.7250
X10.1990Y-12.7900
X-28.8040Y11.5780
X-9.1900Y-2.2920
X-1.6280Y-8.2150
X0.5220Y-9.9580
X7.4140Y-13.1700
X7.7000Y-17.7680
X-57.9800Y6.8420
X-14.4180Y6.9000
X-12.5930Y5.6720
X-10.3730Y-7.3000
X-51.7510Y-9.8460
X-29.9980Y-14.6600
X-29.2110Y-11.4310
X3.9420Y-11.2640
X15.9510Y-9.8080
X-2.9980Y-18.3620
X0.2150Y-15.7460
X-44.5890Y35.2460
X-43.0000Y35.2000
X48.8000Y26.0130
X66.9700Y3.4630
X57.6000Y10.4000
M30