M48
; DRILL file {tscircuit} date 2026-08-31T06:38:35.156Z
; FORMAT={-:-/ absolute / metric / decimal}
; #@! TF.CreationDate,2026-08-31T06:38:35.156Z
; #@! TF.GenerationSoftware,tscircuit
; #@! TF.FileFunction,Plated,1,2,PTH
FMAT,2
METRIC
; #@! TA.AperFunction,Plated,PTH,ComponentDrill
T10C1.000000
; #@! TA.AperFunction,Plated,PTH,ComponentDrill
T11C1.100000
; #@! TA.AperFunction,Plated,PTH,ComponentDrill
T12C1.400000
; #@! TA.AperFunction,Plated,PTH,ComponentDrill
T13C0.900000
; #@! TA.AperFunction,Plated,PTH,ComponentDrill
T14C0.200000
%
G90
G05
T10
X1.5700Y-41.6700
X1.5700Y-39.1300
X1.5700Y-36.5900
X1.5700Y-34.0500
X1.5700Y-31.5100
X1.5700Y-28.9700
X1.5700Y-26.4300
X1.5700Y-23.8900
X1.5700Y-21.3500
X1.5700Y-18.8100
X1.5700Y-16.2700
X1.5700Y-13.7300
X1.5700Y-11.1900
X1.5700Y-8.6500
X1.5700Y-6.1100
X1.5700Y-3.5700
X1.5700Y-1.0300
X1.5700Y1.5100
X1.5700Y4.0500
X1.5700Y6.5900
X1.5700Y9.1300
X1.5700Y11.6700
X24.4300Y-41.6700
X24.4300Y-39.1300
X24.4300Y-36.5900
X24.4300Y-34.0500
X24.4300Y-31.5100
X24.4300Y-28.9700
X24.4300Y-26.4300
X24.4300Y-23.8900
X24.4300Y-21.3500
X24.4300Y-18.8100
X24.4300Y-16.2700
X24.4300Y-13.7300
X24.4300Y-11.1900
X24.4300Y-8.6500
X24.4300Y-6.1100
X24.4300Y-3.5700
X24.4300Y-1.0300
X24.4300Y1.5100
X24.4300Y4.0500
X24.4300Y6.5900
X24.4300Y9.1300
X24.4300Y11.6700
X-70.5400Y-15.0000
X-68.0000Y-15.0000
X-65.4600Y-15.0000
X-70.5400Y0.0000
X-68.0000Y0.0000
X-65.4600Y0.0000
X-76.5000Y15.0000
X-64.5400Y25.2925
X-59.4600Y25.2925
X-44.1600Y40.3500
X-41.6200Y40.3500
X-44.1600Y37.8100
X-41.6200Y37.8100
X-44.1600Y35.2700
X-41.6200Y35.2700
X-44.1600Y32.7300
X-41.6200Y32.7300
X-9.8400Y-25.6500
X-9.8400Y-28.1900
X-9.8400Y-30.7300
X-9.8400Y-33.2700
X-9.8400Y-35.8100
X-9.8400Y-38.3500
X-30.1600Y-25.6500
X-30.1600Y-28.1900
X-30.1600Y-30.7300
X-30.1600Y-33.2700
X-30.1600Y-35.8100
X-30.1600Y-38.3500
X6.1100Y40.7300
X6.1100Y43.2700
X8.6500Y40.7300
X8.6500Y43.2700
X11.1900Y40.7300
X11.1900Y43.2700
X13.7300Y40.7300
X13.7300Y43.2700
X16.2700Y40.7300
X16.2700Y43.2700
X18.8100Y40.7300
X18.8100Y43.2700
X21.3500Y40.7300
X21.3500Y43.2700
X23.8900Y40.7300
X23.8900Y43.2700
X65.5000Y-6.0000
X70.5000Y-6.0000
X42.9200Y-30.0000
X53.0800Y-30.0000
X62.9200Y-30.0000
X73.0800Y-30.0000
T11
X69.5400Y46.0000
X67.0000Y46.0000
X64.4600Y46.0000
T12
X38.0000Y36.0600
X38.0000Y40.0200
X38.0000Y43.9800
X38.0000Y47.9400
T13
X41.9050Y-33.0700
X40.6350Y-30.5300
X39.3650Y-33.0700
X38.0950Y-30.5300
X44.1900Y-21.4600
X44.1900Y-24.0000
X44.1900Y-26.5400
X51.8100Y-26.5400
X51.8100Y-24.0000
X51.8100Y-21.4600
X61.9050Y-33.0700
X60.6350Y-30.5300
X59.3650Y-33.0700
X58.0950Y-30.5300
X64.1900Y-21.4600
X64.1900Y-24.0000
X64.1900Y-26.5400
X71.8100Y-26.5400
X71.8100Y-24.0000
X71.8100Y-21.4600
T14
X-0.6320Y-33.0140
X-4.0000Y-36.8000
X-0.6310Y-27.8930
X16.8360Y-0.4220
X8.9670Y-8.8430
X6.5910Y-9.4160
X-4.9860Y-13.2000
X-5.8650Y-13.9850
X6.8170Y-16.8270
X3.5630Y-18.6190
X-0.5180Y-20.6010
X-1.5410Y-22.6120
X-0.3760Y-19.8990
X-2.0820Y-23.1690
X60.0030Y-17.6000
X61.6000Y-17.6000
X27.3240Y9.1750
X27.0710Y-16.8030
X18.8580Y-25.2030
X14.6400Y26.3960
X9.8080Y23.3490
X9.0110Y15.4370
X3.8050Y-0.5750
X8.8050Y-2.2420
X8.7120Y-4.6090
X8.3760Y-8.4930
X7.5980Y-9.0280
X8.2000Y6.6090
X8.2000Y5.7970
X11.1140Y-8.2080
X10.3820Y-8.9920
X-4.4410Y-12.1580
X-2.1570Y-19.0030
X7.1770Y6.6700
X3.3710Y13.6460
X3.2500Y10.9860
X2.6000Y-26.7000
X4.4300Y40.3310
X-0.1540Y16.0060
X-6.0000Y-8.4000
X-7.7980Y-13.1570
X-6.5460Y-14.9480
X-4.5080Y-29.4590
X37.2520Y-0.3860
X35.6920Y-5.9440
X-11.6320Y-36.4990
X55.5230Y31.1330
X22.2490Y-27.0460
X22.5350Y-33.7720
X-48.6050Y17.0140
X5.6160Y-22.6990
X9.1500Y-23.0080
X14.0250Y-31.3090
X-60.5540Y10.1510
X-61.6230Y-10.8260
X23.0340Y24.6260
X21.6790Y23.3400
X14.2000Y17.6000
X-14.9420Y37.5000
X-11.2000Y36.8000
X51.3950Y-13.9150
X50.2010Y-13.7990
X44.9210Y-16.2940
X45.2220Y-18.6070
X60.0250Y40.2500
X10.8600Y6.3980
X11.6340Y6.8830
X40.0000Y-8.8000
X39.6730Y-2.4960
X74.2330Y-21.7610
X35.2530Y-28.7960
X35.3474Y-31.8344
X35.4910Y-28.0910
X46.3980Y-21.0340
X46.0764Y-11.2790
X46.2000Y-14.0000
M30