M48
; DRILL file {tscircuit} date 2026-08-26T23:23:42.062Z
; FORMAT={-:-/ absolute / metric / decimal}
; #@! TF.CreationDate,2026-08-26T23:23:42.062Z
; #@! TF.GenerationSoftware,tscircuit
; #@! TF.FileFunction,Plated,1,2,PTH
FMAT,2
METRIC
; #@! TA.AperFunction,Plated,PTH,ComponentDrill
T10C1.000000
; #@! TA.AperFunction,Plated,PTH,ComponentDrill
T11C1.500000
; #@! TA.AperFunction,Plated,PTH,ComponentDrill
T12C1.100000
; #@! TA.AperFunction,Plated,PTH,ComponentDrill
T13C0.200000
%
G90
G05
T10
X18.0000Y-26.6700
X18.0000Y-24.1300
X18.0000Y-21.5900
X18.0000Y-19.0500
X18.0000Y-16.5100
X18.0000Y-13.9700
X18.0000Y-11.4300
X18.0000Y-8.8900
X18.0000Y-6.3500
X18.0000Y-3.8100
X18.0000Y-1.2700
X18.0000Y1.2700
X18.0000Y3.8100
X18.0000Y6.3500
X18.0000Y8.8900
X18.0000Y11.4300
X18.0000Y13.9700
X18.0000Y16.5100
X18.0000Y19.0500
X18.0000Y21.5900
X18.0000Y24.1300
X18.0000Y26.6700
X40.8600Y-26.6700
X40.8600Y-24.1300
X40.8600Y-21.5900
X40.8600Y-19.0500
X40.8600Y-16.5100
X40.8600Y-13.9700
X40.8600Y-11.4300
X40.8600Y-8.8900
X40.8600Y-6.3500
X40.8600Y-3.8100
X40.8600Y-1.2700
X40.8600Y1.2700
X40.8600Y3.8100
X40.8600Y6.3500
X40.8600Y8.8900
X40.8600Y11.4300
X40.8600Y13.9700
X40.8600Y16.5100
X40.8600Y19.0500
X40.8600Y21.5900
X40.8600Y24.1300
X40.8600Y26.6700
X-70.5400Y-15.0000
X-68.0000Y-15.0000
X-65.4600Y-15.0000
X-70.5400Y0.0000
X-68.0000Y0.0000
X-65.4600Y0.0000
X-76.5000Y15.0000
X-44.1600Y40.3500
X-41.6200Y40.3500
X-44.1600Y37.8100
X-41.6200Y37.8100
X-44.1600Y35.2700
X-41.6200Y35.2700
X-44.1600Y32.7300
X-41.6200Y32.7300
X-44.1600Y30.1900
X-41.6200Y30.1900
X-44.1600Y27.6500
X-41.6200Y27.6500
X-30.1600Y-38.3500
X-30.1600Y-35.8100
X-30.1600Y-33.2700
X-30.1600Y-30.7300
X-30.1600Y-28.1900
X-30.1600Y-25.6500
X-9.8400Y-38.3500
X-9.8400Y-35.8100
X-9.8400Y-33.2700
X-9.8400Y-30.7300
X-9.8400Y-28.1900
X-9.8400Y-25.6500
X65.7300Y27.0000
X68.2700Y27.0000
X65.7300Y20.0000
X68.2700Y20.0000
X64.4600Y8.0000
X67.0000Y8.0000
X69.5400Y8.0000
X64.5000Y-12.0000
X69.5000Y-12.0000
T11
X-64.5400Y17.5000
X-59.4600Y17.5000
T12
X69.5400Y36.0000
X67.0000Y36.0000
X64.4600Y36.0000
T13
X-0.3120Y-13.1800
X-6.9400Y-15.2620
X-26.0100Y-25.9300
X-12.6980Y-17.5800
X-12.4300Y-15.3540
X5.1710Y6.6300
X-15.6760Y-16.0690
X-15.9810Y-17.9830
X-19.1170Y-23.5160
X14.0020Y17.3490
X-7.1660Y-2.9720
X-7.6740Y-3.8400
X-15.8010Y-12.2050
X-20.0220Y-15.9360
X-20.7320Y-17.7830
X44.9160Y-8.8350
X52.3820Y8.9510
X52.1340Y14.3050
X-4.2020Y-16.6830
X-4.0190Y-17.8030
X2.6080Y-21.1500
X2.4600Y-16.3740
X56.2700Y33.8360
X-25.7880Y17.2640
X-17.6000Y9.2000
X-13.4250Y5.5700
X-7.5860Y0.2710
X8.4500Y-2.8070
X4.2560Y-9.7620
X10.6320Y-13.7230
X-31.3270Y7.6640
X-31.6040Y4.0640
X-10.1940Y-5.7090
X-9.4260Y-5.3310
X-2.1980Y-8.1880
X-0.2080Y-9.2030
X9.7430Y-13.7780
X10.3840Y-14.7490
X-59.9070Y4.1300
X-34.8090Y1.6720
X7.5800Y10.9030
X-10.1570Y-7.4310
X-1.4180Y-8.6420
X-51.7490Y-8.2440
X-32.4110Y-2.9940
X-24.9750Y-12.6480
X6.5650Y-16.8500
X7.3840Y-16.8780
X-10.5820Y-10.5810
X11.7780Y-10.7250
X36.0660Y15.5280
X46.4100Y-15.8000
X44.0050Y26.9230
X-16.8700Y37.9450
X50.8910Y4.8870
X51.4820Y12.5560
X44.8910Y-7.9530
X54.2000Y23.2300
X58.1780Y7.6450
M30