%TF.GenerationSoftware,tscircuit,circuit-json-to-gerber,0.0.93*%
%TF.CreationDate,2026-08-27T05:33:12.690Z*%
%TF.SameCoordinates,Original*%
%TF.FileFunction,Copper,L1,Top*%
%TF.FilePolarity,Positive*%
%FSLAX46Y46*%
%MOMM*%
G04 Gerber Fmt 4.6, Leading zero omitted, Abs format (unit mm)*
G04 Created by tscircuit (builder) date 2026-08-27T05:33:12.691Z*
G01*
%LPD*%
G75*
G04 APERTURE MACROS START*
%AMHORZPILL*
0 Horizontal pill (stadium) shape macro*
0 Parameters:*
0 $1 = Total width*
0 $2 = Total height*
0 $3 = Circle diameter (equal to height)*
0 $4 = Circle center offset
0 21 = Center Line(Exposure, Width, Height, Center X, Center Y, Rotation)*
0 1 = Circle(Exposure, Diameter, Center X, Center Y, Rotation)*
21,1,$1-$3,$2,0.0,0.0,0.0*
1,1,$3,0.0-$4,0.0*
1,1,$3,$4,0.0*%
%AMVERTPILL*
0 Vertical pill (stadium) shape macro*
0 Parameters:*
0 $1 = Total width*
0 $2 = Total height*
0 $3 = Circle diameter (equal to width)*
0 $4 = Circle center offset
0 21 = Center Line(Exposure, Width, Height, Center X, Center Y, Rotation)*
21,1,$1,$2-$3,0.0,0.0,0.0*
1,1,$3,0.0,0.0-$4*
1,1,$3,0.0,$4*%
%AMROUNDRECT*
0 Rectangle with rounded corners*
0 $1 Corner radius*
0 $2 $3 $4 $5 $6 $7 $8 $9 X,Y Position of each corner*
0 Polygon box body*
4,1,4,$2,$3,$4,$5,$6,$7,$8,$9,$2,$3,0*
0 Circles for rounded corners*
1,1,$1+$1,$2,$3*
1,1,$1+$1,$4,$5*
1,1,$1+$1,$6,$7*
1,1,$1+$1,$8,$9*
0 Rectangles between the rounded corners*
20,1,$1+$1,$2,$3,$4,$5,0*
20,1,$1+$1,$4,$5,$6,$7,0*
20,1,$1+$1,$6,$7,$8,$9,0*
20,1,$1+$1,$8,$9,$2,$3,0*%
G04 APERTURE MACROS END*
G04 aperture START LIST*
%ADD10C,0.150000*%
%ADD11C,1.000000*%
%ADD12C,0.650000*%
%ADD13C,0.387500*%
%ADD14C,0.287500*%
%ADD15C,0.275000*%
%ADD16C,0.325000*%
%ADD17C,0.950000*%
%ADD18C,0.800000*%
%ADD19C,0.875000*%
%ADD20C,0.375000*%
%ADD21C,0.700000*%
%ADD22C,0.525000*%
%ADD23C,0.900000*%
%ADD24C,0.825000*%
%ADD25C,0.925000*%
%ADD26C,0.675000*%
%ADD27C,0.775000*%
%ADD28C,0.450000*%
%ADD29C,0.300000*%
%ADD30C,0.850000*%
%ADD31C,0.975000*%
%ADD32C,0.600000*%
%ADD33C,0.475000*%
%ADD34C,0.475000*%
%ADD35C,0.575000*%
%ADD36C,0.950000*%
%ADD37R,1.500000X1.500000*%
%ADD38C,1.500000*%
%ADD39C,0.063000*%
%ADD40C,0.200000*%
%ADD41C,0.108000*%
%ADD42R,1.800000X1.800000*%
%ADD43C,0.081000*%
%ADD44C,0.090000*%
%ADD45C,0.100000*%
%ADD46R,1.700000X1.700000*%
%ADD47R,1.025000X1.400000*%
%ADD48R,0.717500X0.980000*%
%ADD49C,0.120000*%
%ADD50C,0.036000*%
%ADD51R,2.000000X2.000000*%
%ADD52R,1.325000X0.600000*%
%ADD53R,0.927500X0.420000*%
%ADD54C,0.045000*%
%ADD55R,0.800000X0.950000*%
%ADD56R,0.560000X0.665000*%
%ADD57R,2.200000X2.200000*%
%ADD58C,0.150000*%
%ADD59C,1.400000*%
%ADD60C,0.300000*%
%TD*%
G04 aperture END LIST*
D37*
X018000000Y-26670000D03*
D38*
X018000000Y-24130000D03*
D38*
X018000000Y-21590000D03*
D38*
X018000000Y-19050000D03*
D38*
X018000000Y-16510000D03*
D38*
X018000000Y-13970000D03*
D38*
X018000000Y-11430000D03*
D38*
X018000000Y-08890000D03*
D38*
X018000000Y-06350000D03*
D38*
X018000000Y-03810000D03*
D38*
X018000000Y-01270000D03*
D38*
X018000000Y001270000D03*
D38*
X018000000Y003810000D03*
D38*
X018000000Y006350000D03*
D38*
X018000000Y008890000D03*
D38*
X018000000Y011430000D03*
D38*
X018000000Y013970000D03*
D38*
X018000000Y016510000D03*
D38*
X018000000Y019050000D03*
D38*
X018000000Y021590000D03*
D38*
X018000000Y024130000D03*
D38*
X018000000Y026670000D03*
D37*
X040860000Y-26670000D03*
D38*
X040860000Y-24130000D03*
D38*
X040860000Y-21590000D03*
D38*
X040860000Y-19050000D03*
D38*
X040860000Y-16510000D03*
D38*
X040860000Y-13970000D03*
D38*
X040860000Y-11430000D03*
D38*
X040860000Y-08890000D03*
D38*
X040860000Y-06350000D03*
D38*
X040860000Y-03810000D03*
D38*
X040860000Y-01270000D03*
D38*
X040860000Y001270000D03*
D38*
X040860000Y003810000D03*
D38*
X040860000Y006350000D03*
D38*
X040860000Y008890000D03*
D38*
X040860000Y011430000D03*
D38*
X040860000Y013970000D03*
D38*
X040860000Y016510000D03*
D38*
X040860000Y019050000D03*
D38*
X040860000Y021590000D03*
D38*
X040860000Y024130000D03*
D38*
X040860000Y026670000D03*
D37*
X-70540000Y-15000000D03*
D38*
X-68000000Y-15000000D03*
D38*
X-65460000Y-15000000D03*
D37*
X-70540000Y000000000D03*
D38*
X-68000000Y000000000D03*
D38*
X-65460000Y000000000D03*
D37*
X-76500000Y015000000D03*
D42*
X-64540000Y025292500D03*
D42*
X-59460000Y025292500D03*
D42*
X-44160000Y040350000D03*
D42*
X-41620000Y040350000D03*
D42*
X-44160000Y037810000D03*
D42*
X-41620000Y037810000D03*
D42*
X-44160000Y035270000D03*
D42*
X-41620000Y035270000D03*
D42*
X-44160000Y032730000D03*
D42*
X-41620000Y032730000D03*
D46*
X-30160000Y-38350000D03*
D46*
X-30160000Y-35810000D03*
D46*
X-30160000Y-33270000D03*
D46*
X-30160000Y-30730000D03*
D46*
X-30160000Y-28190000D03*
D46*
X-30160000Y-25650000D03*
D46*
X-09840000Y-38350000D03*
D46*
X-09840000Y-35810000D03*
D46*
X-09840000Y-33270000D03*
D46*
X-09840000Y-30730000D03*
D46*
X-09840000Y-28190000D03*
D46*
X-09840000Y-25650000D03*
D47*
X-48912500Y-18000000D03*
D47*
X-47087500Y-18000000D03*
D47*
X-48912500Y-12000000D03*
D47*
X-47087500Y-12000000D03*
D47*
X-38912500Y-12000000D03*
D47*
X-37087500Y-12000000D03*
D47*
X-48912500Y-06000000D03*
D47*
X-47087500Y-06000000D03*
D47*
X-38912500Y-06000000D03*
D47*
X-37087500Y-06000000D03*
D47*
X-48912500Y000000000D03*
D47*
X-47087500Y000000000D03*
D47*
X-48912500Y006000000D03*
D47*
X-47087500Y006000000D03*
D47*
X-38912500Y006000000D03*
D47*
X-37087500Y006000000D03*
D47*
X-48912500Y012000000D03*
D47*
X-47087500Y012000000D03*
D47*
X-38912500Y012000000D03*
D47*
X-37087500Y012000000D03*
D47*
X-48912500Y018000000D03*
D47*
X-47087500Y018000000D03*
D47*
X-38912500Y018000000D03*
D47*
X-37087500Y018000000D03*
D47*
X059087500Y030000000D03*
D47*
X060912500Y030000000D03*
D51*
X067730000Y030000000D03*
D51*
X070270000Y030000000D03*
D47*
X059087500Y022000000D03*
D47*
X060912500Y022000000D03*
D51*
X067730000Y022000000D03*
D51*
X070270000Y022000000D03*
D52*
X050862500Y022950000D03*
D52*
X050862500Y021050000D03*
D52*
X053137500Y022000000D03*
D55*
X044175000Y022000000D03*
D55*
X045825000Y022000000D03*
D47*
X059087500Y014000000D03*
D47*
X060912500Y014000000D03*
D51*
X067730000Y014000000D03*
D51*
X070270000Y014000000D03*
D47*
X059087500Y006000000D03*
D47*
X060912500Y006000000D03*
D51*
X067730000Y006000000D03*
D51*
X070270000Y006000000D03*
D52*
X050862500Y006950000D03*
D52*
X050862500Y005050000D03*
D52*
X053137500Y006000000D03*
D55*
X044175000Y006000000D03*
D55*
X045825000Y006000000D03*
D57*
X069540000Y036000000D03*
D57*
X067000000Y036000000D03*
D57*
X064460000Y036000000D03*
D55*
X057175000Y036000000D03*
D55*
X058825000Y036000000D03*
D55*
X057175000Y032000000D03*
D55*
X058825000Y032000000D03*
D37*
X052460000Y002000000D03*
D38*
X055000000Y002000000D03*
D38*
X057540000Y002000000D03*
D47*
X047087500Y002000000D03*
D47*
X048912500Y002000000D03*
D51*
X065500000Y-06000000D03*
D51*
X070500000Y-06000000D03*
D52*
X053862500Y-11050000D03*
D52*
X053862500Y-12950000D03*
D52*
X056137500Y-12000000D03*
D55*
X046175000Y-10000000D03*
D55*
X047825000Y-10000000D03*
D55*
X046175000Y-15000000D03*
D55*
X047825000Y-15000000D03*
D47*
X-17912500Y039000000D03*
D47*
X-16087500Y039000000D03*
D55*
X-13825000Y039000000D03*
D55*
X-12175000Y039000000D03*
D59*
X038095000Y-39365000D03*
D59*
X039365000Y-40635000D03*
D59*
X040635000Y-39365000D03*
D59*
X041905000Y-40635000D03*
D42*
X044190000Y-21460000D03*
D42*
X044190000Y-24000000D03*
D42*
X044190000Y-26540000D03*
D42*
X051810000Y-26540000D03*
D42*
X051810000Y-24000000D03*
D42*
X051810000Y-21460000D03*
D47*
X047087500Y-18000000D03*
D47*
X048912500Y-18000000D03*
D47*
X034087500Y-27000000D03*
D47*
X035912500Y-27000000D03*
D47*
X056087500Y-30000000D03*
D47*
X057912500Y-30000000D03*
D51*
X042920000Y-30000000D03*
D51*
X053080000Y-30000000D03*
D59*
X058095000Y-39365000D03*
D59*
X059365000Y-40635000D03*
D59*
X060635000Y-39365000D03*
D59*
X061905000Y-40635000D03*
D42*
X064190000Y-21460000D03*
D42*
X064190000Y-24000000D03*
D42*
X064190000Y-26540000D03*
D42*
X071810000Y-26540000D03*
D42*
X071810000Y-24000000D03*
D42*
X071810000Y-21460000D03*
D47*
X067087500Y-18000000D03*
D47*
X068912500Y-18000000D03*
D47*
X058087500Y-27000000D03*
D47*
X059912500Y-27000000D03*
D47*
X076087500Y-30000000D03*
D47*
X077912500Y-30000000D03*
D51*
X062920000Y-30000000D03*
D51*
X073080000Y-30000000D03*
D10*
X018000000Y-03810000D02*
X015629000Y-06181000D01*
D10*
X015629000Y-06181000D02*
X004183000Y-06181000D01*
D10*
X004183000Y-06181000D02*
X004183000Y-06181000D01*
D10*
X-04648000Y-12953000D02*
X-04648000Y-12953000D01*
D10*
X-04648000Y-12953000D02*
X-04659037Y-12964037D01*
D10*
X-04659037Y-12964037D02*
X-08153000Y-16458000D01*
D10*
X-08153000Y-16458000D02*
X-10709000Y-16458000D01*
D10*
X-10709000Y-16458000D02*
X-10709000Y-16458000D01*
D10*
X-03605000Y-19657000D02*
X-03605000Y-19657000D01*
D10*
X-03605000Y-19657000D02*
X-03647765Y-19699765D01*
D10*
X-03647765Y-19699765D02*
X-03654202Y-19699765D01*
D10*
X-03654202Y-19699765D02*
X-03845437Y-19891000D01*
D10*
X-03845437Y-19891000D02*
X-07574000Y-19891000D01*
D10*
X-07574000Y-19891000D02*
X-07574000Y-19891000D01*
D10*
X018000000Y-08890000D02*
X017347579Y-09542421D01*
D10*
X017347579Y-09542421D02*
X014237919Y-09542421D01*
D10*
X014237919Y-09542421D02*
X-01869660Y-25650000D01*
D10*
X-01869660Y-25650000D02*
X-09840000Y-25650000D01*
D10*
X010868000Y006621000D02*
X010868000Y006621000D01*
D10*
X010868000Y006621000D02*
X010875797Y006613203D01*
D10*
X010875797Y006613203D02*
X010939020Y006613203D01*
D10*
X010939020Y006613203D02*
X011586797Y006613203D01*
D10*
X011586797Y006613203D02*
X013600000Y004600000D01*
D10*
X013600000Y004600000D02*
X013600000Y004600000D01*
D10*
X013056000Y003569000D02*
X013056000Y003569000D01*
D10*
X013056000Y003569000D02*
X013030204Y003543204D01*
D10*
X013030204Y003543204D02*
X012641464Y003154464D01*
D10*
X012641464Y003154464D02*
X005448788Y003154464D01*
D10*
X005448788Y003154464D02*
X-05709000Y-08003324D01*
D10*
X-05709000Y-08003324D02*
X-05709000Y-10970000D01*
D10*
X-05709000Y-10970000D02*
X-05709000Y-10970000D01*
D10*
X-06231000Y-12139000D02*
X-06231000Y-12139000D01*
D10*
X-06231000Y-12139000D02*
X-06234916Y-12142916D01*
D10*
X-06234916Y-12142916D02*
X-06247944Y-12142916D01*
D10*
X-06247944Y-12142916D02*
X-06347477Y-12242449D01*
D10*
X-06347477Y-12242449D02*
X-09706411Y-12242449D01*
D10*
X-09706411Y-12242449D02*
X-30160000Y-32696038D01*
D10*
X-30160000Y-32696038D02*
X-30160000Y-33270000D01*
D10*
X011087000Y006137000D02*
X011087000Y006137000D01*
D10*
X011087000Y006137000D02*
X011064932Y006114932D01*
D10*
X011064932Y006114932D02*
X010981060Y006114932D01*
D10*
X010981060Y006114932D02*
X010607791Y005741663D01*
D10*
X010607791Y005741663D02*
X007641342Y005741663D01*
D10*
X007641342Y005741663D02*
X-08308320Y-10208000D01*
D10*
X-08308320Y-10208000D02*
X-17998000Y-10208000D01*
D10*
X-17998000Y-10208000D02*
X-17998000Y-10208000D01*
D10*
X-18242000Y-10994000D02*
X-18242000Y-10994000D01*
D10*
X-18242000Y-10994000D02*
X-18361193Y-11113193D01*
D10*
X-18361193Y-11113193D02*
X-18361193Y-11191227D01*
D10*
X-18361193Y-11191227D02*
X-18695000Y-11525034D01*
D10*
X-18695000Y-11525034D02*
X-18695000Y-16551000D01*
D10*
X-18695000Y-16551000D02*
X-18695000Y-16551000D01*
D10*
X-18958000Y-17795000D02*
X-18958000Y-17795000D01*
D10*
X-18958000Y-17795000D02*
X-18959334Y-17796334D01*
D10*
X-18959334Y-17796334D02*
X-18959334Y-17869564D01*
D10*
X-18959334Y-17869564D02*
X-18959334Y-19529334D01*
D10*
X-18959334Y-19529334D02*
X-30160000Y-30730000D01*
D10*
X018000000Y-21590000D02*
X011400000Y-28190000D01*
D10*
X011400000Y-28190000D02*
X-09840000Y-28190000D01*
D10*
X047087500Y-18000000D02*
X045833000Y-19255000D01*
D10*
X045833000Y-19255000D02*
X045280000Y-19255000D01*
D10*
X045280000Y-19255000D02*
X045280000Y-19255000D01*
D10*
X047087500Y-18000000D02*
X048033956Y-17053544D01*
D10*
X048033956Y-17053544D02*
X056695178Y-17053544D01*
D10*
X056695178Y-17053544D02*
X056839267Y-17053544D01*
D10*
X056839267Y-17053544D02*
X059035263Y-19249540D01*
D10*
X059035263Y-19249540D02*
X059072540Y-19249540D01*
D10*
X059072540Y-19249540D02*
X059173000Y-19350000D01*
D10*
X059173000Y-19350000D02*
X059173000Y-19350000D01*
D10*
X060783000Y-19040000D02*
X060783000Y-19040000D01*
D10*
X060783000Y-19040000D02*
X066048000Y-19040000D01*
D10*
X066048000Y-19040000D02*
X067087500Y-18000000D01*
D10*
X046175000Y-10000000D02*
X045907591Y-09732591D01*
D10*
X045907591Y-09732591D02*
X045786223Y-09732591D01*
D10*
X045786223Y-09732591D02*
X042403632Y-06350000D01*
D10*
X042403632Y-06350000D02*
X040860000Y-06350000D01*
D10*
X047087500Y002000000D02*
X045094778Y003993222D01*
D10*
X045094778Y003993222D02*
X045094778Y004092859D01*
D10*
X045094778Y004092859D02*
X045094778Y012275222D01*
D10*
X045094778Y012275222D02*
X040860000Y016510000D01*
D10*
X060417000Y027784000D02*
X060417000Y027784000D01*
D10*
X060417000Y027784000D02*
X060349855Y027716855D01*
D10*
X060349855Y027716855D02*
X060271260Y027716855D01*
D10*
X060271260Y027716855D02*
X059967405Y027413000D01*
D10*
X059967405Y027413000D02*
X057149000Y027413000D01*
D10*
X057149000Y027413000D02*
X057149000Y027413000D01*
D10*
X-09840000Y-35810000D02*
X-09840000Y-33270000D01*
D10*
X018000000Y-26670000D02*
X018000000Y-24130000D01*
D10*
X018000000Y-26670000D02*
X011400000Y-33270000D01*
D10*
X011400000Y-33270000D02*
X-09840000Y-33270000D01*
D10*
X057175000Y036000000D02*
X057754632Y035420368D01*
D10*
X057754632Y035420368D02*
X057754632Y029240382D01*
D10*
X057754632Y029240382D02*
X057754632Y029145632D01*
D10*
X057754632Y029145632D02*
X057395000Y028786000D01*
D10*
X057395000Y028786000D02*
X057395000Y028786000D01*
D10*
X058176000Y024155000D02*
X058176000Y024155000D01*
D10*
X058176000Y024155000D02*
X058401964Y024155000D01*
D10*
X058401964Y024155000D02*
X059831503Y022725461D01*
D10*
X059831503Y022725461D02*
X059831503Y020707424D01*
D10*
X059831503Y020707424D02*
X064234877Y016304050D01*
D10*
X064234877Y016304050D02*
X064234877Y-04734877D01*
D10*
X064234877Y-04734877D02*
X065500000Y-06000000D01*
D10*
X-37087500Y018000000D02*
X-36346000Y017259000D01*
D10*
X-36346000Y017259000D02*
X-25786000Y017259000D01*
D10*
X-25786000Y017259000D02*
X-25786000Y017259000D01*
D10*
X-17600000Y009200000D02*
X-17600000Y009200000D01*
D10*
X-17600000Y009200000D02*
X-17629671Y009170329D01*
D10*
X-17629671Y009170329D02*
X-14244000Y005784659D01*
D10*
X-14244000Y005784659D02*
X-14244000Y005409000D01*
D10*
X-14244000Y005409000D02*
X-14244000Y005409000D01*
D10*
X-13105000Y003480000D02*
X-13105000Y003480000D01*
D10*
X-13105000Y003480000D02*
X-13050082Y003425082D01*
D10*
X-13050082Y003425082D02*
X-12978525Y003425082D01*
D10*
X-12978525Y003425082D02*
X-07649443Y-01904000D01*
D10*
X-07649443Y-01904000D02*
X-04440000Y-01904000D01*
D10*
X-04440000Y-01904000D02*
X-04440000Y-01904000D01*
D10*
X-01127000Y-04525000D02*
X-01127000Y-04525000D01*
D10*
X-01127000Y-04525000D02*
X-01022843Y-04629157D01*
D10*
X-01022843Y-04629157D02*
X-00947706Y-04629157D01*
D10*
X-00947706Y-04629157D02*
X000606157Y-04629157D01*
D10*
X000606157Y-04629157D02*
X009581000Y-13604000D01*
D10*
X009581000Y-13604000D02*
X009581000Y-13604000D01*
D10*
X010577000Y-15042000D02*
X010577000Y-15042000D01*
D10*
X010577000Y-15042000D02*
X010599185Y-15064185D01*
D10*
X010599185Y-15064185D02*
X016554185Y-15064185D01*
D10*
X016554185Y-15064185D02*
X018000000Y-16510000D01*
D10*
X-47087500Y018000000D02*
X-47087000Y018000000D01*
D10*
X-47087000Y018000000D02*
X-38912500Y018000000D01*
D10*
X-47087500Y018000000D02*
X-50087000Y015000000D01*
D10*
X-50087000Y015000000D02*
X-76500000Y015000000D01*
D10*
X-48912500Y018000000D02*
X-48010912Y018901088D01*
D10*
X-48010912Y018901088D02*
X-48009281Y018901088D01*
D10*
X-48009281Y018901088D02*
X015608912Y018901088D01*
D10*
X015608912Y018901088D02*
X018000000Y016510000D01*
D10*
X-37087500Y012000000D02*
X-36929000Y011842000D01*
D10*
X-36929000Y011842000D02*
X-34975000Y011842000D01*
D10*
X-34975000Y011842000D02*
X-34975000Y011842000D01*
D10*
X007629000Y-10916000D02*
X007629000Y-10916000D01*
D10*
X007629000Y-10916000D02*
X007752191Y-11039191D01*
D10*
X007752191Y-11039191D02*
X007773092Y-11039191D01*
D10*
X007773092Y-11039191D02*
X008224901Y-11491000D01*
D10*
X008224901Y-11491000D02*
X009584000Y-11491000D01*
D10*
X009584000Y-11491000D02*
X009584000Y-11491000D01*
D10*
X014402000Y-15813000D02*
X014402000Y-15813000D01*
D10*
X014402000Y-15813000D02*
X014535739Y-15946739D01*
D10*
X014535739Y-15946739D02*
X017639000Y-19050000D01*
D10*
X017639000Y-19050000D02*
X018000000Y-19050000D01*
D10*
X-47087500Y012000000D02*
X-47087000Y012000000D01*
D10*
X-47087000Y012000000D02*
X-38912500Y012000000D01*
D10*
X-47087500Y012000000D02*
X-59087000Y000000000D01*
D10*
X-59087000Y000000000D02*
X-65460000Y000000000D01*
D10*
X-48912500Y012000000D02*
X-46942000Y013970000D01*
D10*
X-46942000Y013970000D02*
X018000000Y013970000D01*
D10*
X-37087500Y006000000D02*
X-36687000Y006400000D01*
D10*
X-36687000Y006400000D02*
X-19200000Y006400000D01*
D10*
X-19200000Y006400000D02*
X-19200000Y006400000D01*
D10*
X010420000Y004875000D02*
X010420000Y004875000D01*
D10*
X010420000Y004875000D02*
X010423987Y004871013D01*
D10*
X010423987Y004871013D02*
X010440082Y004871013D01*
D10*
X010440082Y004871013D02*
X010748926Y004562170D01*
D10*
X010748926Y004562170D02*
X012561643Y004562170D01*
D10*
X012561643Y004562170D02*
X013313813Y003810000D01*
D10*
X013313813Y003810000D02*
X018000000Y003810000D01*
D10*
X-47087500Y006000000D02*
X-47087000Y006000000D01*
D10*
X-47087000Y006000000D02*
X-38912500Y006000000D01*
D10*
X-47087500Y006000000D02*
X-47203000Y005884000D01*
D10*
X-47203000Y005884000D02*
X-47203000Y004483000D01*
D10*
X-47203000Y004483000D02*
X-47203000Y004483000D01*
D10*
X-48912500Y006000000D02*
X-46460875Y008451125D01*
D10*
X-46460875Y008451125D02*
X-39016011Y008451125D01*
D10*
X-39016011Y008451125D02*
X-36037136Y011430000D01*
D10*
X-36037136Y011430000D02*
X018000000Y011430000D01*
D10*
X-47087500Y000000000D02*
X-48044568Y-00957568D01*
D10*
X-48044568Y-00957568D02*
X-48186737Y-00957568D01*
D10*
X-48186737Y-00957568D02*
X-69582432Y-00957568D01*
D10*
X-69582432Y-00957568D02*
X-70540000Y000000000D01*
D10*
X-48912500Y000000000D02*
X-44089069Y004822931D01*
D10*
X-44089069Y004822931D02*
X-14315267Y004822931D01*
D10*
X-14315267Y004822931D02*
X-10248198Y008890000D01*
D10*
X-10248198Y008890000D02*
X018000000Y008890000D01*
D10*
X-37087500Y-06000000D02*
X-36826000Y-06261000D01*
D10*
X-36826000Y-06261000D02*
X-35621000Y-06261000D01*
D10*
X-35621000Y-06261000D02*
X-35621000Y-06261000D01*
D10*
X009226000Y-10598000D02*
X009226000Y-10598000D01*
D10*
X009226000Y-10598000D02*
X009266585Y-10557415D01*
D10*
X009266585Y-10557415D02*
X009321042Y-10557415D01*
D10*
X009321042Y-10557415D02*
X009941627Y-11178000D01*
D10*
X009941627Y-11178000D02*
X012062000Y-11178000D01*
D10*
X012062000Y-11178000D02*
X012062000Y-11178000D01*
D10*
X-47087500Y-06000000D02*
X-47087000Y-06000000D01*
D10*
X-47087000Y-06000000D02*
X-38912500Y-06000000D01*
D10*
X-47087500Y-06000000D02*
X-50687000Y-09600000D01*
D10*
X-50687000Y-09600000D02*
X-58400000Y-09600000D01*
D10*
X-58400000Y-09600000D02*
X-58400000Y-09600000D01*
D10*
X-48912500Y-06000000D02*
X-46420000Y-03508000D01*
D10*
X-46420000Y-03508000D02*
X-06839000Y-03508000D01*
D10*
X-06839000Y-03508000D02*
X-06839000Y-03508000D01*
D10*
X-03435000Y-06205000D02*
X-03435000Y-06205000D01*
D10*
X-03435000Y-06205000D02*
X-03412580Y-06182580D01*
D10*
X-03412580Y-06182580D02*
X004040000Y001270000D01*
D10*
X004040000Y001270000D02*
X018000000Y001270000D01*
D10*
X-37087500Y-12000000D02*
X-36810000Y-12277000D01*
D10*
X-36810000Y-12277000D02*
X-35629000Y-12277000D01*
D10*
X-35629000Y-12277000D02*
X-35629000Y-12277000D01*
D10*
X019550000Y-17780000D02*
X019550000Y-17780000D01*
D10*
X019550000Y-17780000D02*
X019636274Y-17780000D01*
D10*
X019636274Y-17780000D02*
X020906274Y-19050000D01*
D10*
X020906274Y-19050000D02*
X040860000Y-19050000D01*
D10*
X-47087500Y-12000000D02*
X-47087000Y-12000000D01*
D10*
X-47087000Y-12000000D02*
X-38912500Y-12000000D01*
D10*
X-47087500Y-12000000D02*
X-47970791Y-12883791D01*
D10*
X-47970791Y-12883791D02*
X-65883791Y-12883791D01*
D10*
X-65883791Y-12883791D02*
X-68000000Y-15000000D01*
D10*
X-48912500Y-12000000D02*
X-47498811Y-10586811D01*
D10*
X-47498811Y-10586811D02*
X-06849245Y-10586811D01*
D10*
X-06849245Y-10586811D02*
X-06125551Y-11310505D01*
D10*
X-06125551Y-11310505D02*
X006497505Y-11310505D01*
D10*
X006497505Y-11310505D02*
X008000000Y-12813000D01*
D10*
X008000000Y-12813000D02*
X008000000Y-12813000D01*
D10*
X011193000Y-13121000D02*
X011193000Y-13121000D01*
D10*
X011193000Y-13121000D02*
X011198657Y-13115343D01*
D10*
X011198657Y-13115343D02*
X012884000Y-11430000D01*
D10*
X012884000Y-11430000D02*
X018000000Y-11430000D01*
D10*
X-47087500Y-18000000D02*
X-48109441Y-16977559D01*
D10*
X-48109441Y-16977559D02*
X-68562441Y-16977559D01*
D10*
X-68562441Y-16977559D02*
X-70540000Y-15000000D01*
D10*
X-48912500Y-18000000D02*
X-48095836Y-18903164D01*
D10*
X-48095836Y-18903164D02*
X-47733627Y-18903164D01*
D10*
X-47733627Y-18903164D02*
X-47750000Y-18903000D01*
D10*
X-47750000Y-18903000D02*
X-47550000Y-18905000D01*
D10*
X-47550000Y-18905000D02*
X-47200000Y-18905000D01*
D10*
X-47200000Y-18905000D02*
X-47000000Y-18905000D01*
D10*
X-47000000Y-18905000D02*
X-46800000Y-18905000D01*
D10*
X-46800000Y-18905000D02*
X-46405285Y-18905000D01*
D10*
X-46405285Y-18905000D02*
X-46297198Y-18796913D01*
D10*
X-46297198Y-18796913D02*
X-44884245Y-17296959D01*
D10*
X-44884245Y-17296959D02*
X-15721959Y-17296959D01*
D10*
X-15721959Y-17296959D02*
X-14604000Y-16179000D01*
D10*
X-14604000Y-16179000D02*
X-14604000Y-16179000D01*
D10*
X-13609000Y-16682000D02*
X-13609000Y-16682000D01*
D10*
X-13609000Y-16682000D02*
X-13522560Y-16768440D01*
D10*
X-13522560Y-16768440D02*
X-13501780Y-16768440D01*
D10*
X-13501780Y-16768440D02*
X-13074221Y-17196000D01*
D10*
X-13074221Y-17196000D02*
X005568000Y-17196000D01*
D10*
X005568000Y-17196000D02*
X005568000Y-17196000D01*
D10*
X009957000Y-14627000D02*
X009957000Y-14627000D01*
D10*
X009957000Y-14627000D02*
X009962875Y-14621125D01*
D10*
X009962875Y-14621125D02*
X010019927Y-14621125D01*
D10*
X010019927Y-14621125D02*
X010671051Y-13970000D01*
D10*
X010671051Y-13970000D02*
X018000000Y-13970000D01*
D11*
X-44160000Y040350000D02*
X-41620000Y040350000D01*
D12*
X-17912500Y039000000D02*
X-17396800Y039515533D01*
D12*
X-17396800Y039515533D02*
X-16881101Y040031066D01*
D12*
X-16881101Y040031066D02*
X-16365401Y040546599D01*
D13*
X-16365401Y040546599D02*
X-15396718Y040546599D01*
D14*
X-15396718Y040546599D02*
X-15125000Y040375000D01*
D15*
X-15125000Y040375000D02*
X-15000000Y040000000D01*
D15*
X-15000000Y040000000D02*
X-14412495Y039499017D01*
D16*
X-14412495Y039499017D02*
X-13913478Y039000000D01*
D17*
X-13913478Y039000000D02*
X-13825000Y039000000D01*
D11*
X059087500Y006000000D02*
X058190625Y005687500D01*
D11*
X058190625Y005687500D02*
X057293750Y005375000D01*
D11*
X057293750Y005375000D02*
X056396875Y005062500D01*
D11*
X056396875Y005062500D02*
X055500000Y004750000D01*
D19*
X055500000Y004750000D02*
X055250000Y004500000D01*
D20*
X055250000Y004500000D02*
X055175000Y004256000D01*
D20*
X055175000Y004256000D02*
X055175000Y004256000D01*
D11*
X059087500Y022000000D02*
X059087500Y021070213D01*
D11*
X059087500Y021070213D02*
X059087500Y020140426D01*
D11*
X059087500Y020140426D02*
X059087500Y019210640D01*
D11*
X059087500Y019210640D02*
X059087500Y018280853D01*
D11*
X059087500Y018280853D02*
X059087500Y017351066D01*
D11*
X059087500Y017351066D02*
X059087500Y016421279D01*
D11*
X059087500Y016421279D02*
X059087500Y015491492D01*
D19*
X059087500Y015491492D02*
X059543750Y015245746D01*
D21*
X059543750Y015245746D02*
X060000000Y015000000D01*
D22*
X060000000Y015000000D02*
X059965300Y014613693D01*
D22*
X059965300Y014613693D02*
X059965300Y013744883D01*
D22*
X059965300Y013744883D02*
X059965300Y012876073D01*
D22*
X059965300Y012876073D02*
X059965300Y012007264D01*
D23*
X059965300Y012007264D02*
X059965300Y011138454D01*
D11*
X059965300Y011138454D02*
X059965300Y010269644D01*
D11*
X059965300Y010269644D02*
X059965300Y009400835D01*
D11*
X059965300Y009400835D02*
X059606364Y009041899D01*
D11*
X059606364Y009041899D02*
X059606364Y009001364D01*
D11*
X059606364Y009001364D02*
X059605000Y009000000D01*
D11*
X059605000Y009000000D02*
X059605000Y009000000D01*
D11*
X059600000Y007000000D02*
X059600000Y007000000D01*
D11*
X059600000Y007000000D02*
X059087500Y006487500D01*
D11*
X059087500Y006487500D02*
X059087500Y006000000D01*
D11*
X-41620000Y040350000D02*
X-19262000Y040350000D01*
D11*
X-19262000Y040350000D02*
X-19262000Y040349500D01*
D11*
X-19262000Y040349500D02*
X-17912500Y039000000D01*
D18*
X-13825000Y039000000D02*
X-13825000Y038525001D01*
D18*
X-13825000Y038525001D02*
X-13825000Y038524999D01*
D11*
X-13825000Y038524999D02*
X-13825000Y034268636D01*
D11*
X-13825000Y034268636D02*
X-09093636Y034268636D01*
D11*
X-09093636Y034268636D02*
X-08417727Y033592727D01*
D11*
X-08417727Y033592727D02*
X-07741818Y032916818D01*
D11*
X-07741818Y032916818D02*
X-07065909Y032240909D01*
D11*
X-07065909Y032240909D02*
X-06390000Y031565000D01*
D11*
X-06390000Y031565000D02*
X-05714091Y030889091D01*
D11*
X-05714091Y030889091D02*
X-05038182Y030213182D01*
D11*
X-05038182Y030213182D02*
X-04362273Y029537273D01*
D11*
X-04362273Y029537273D02*
X-03686364Y028861364D01*
D11*
X-03686364Y028861364D02*
X-03010455Y028185455D01*
D11*
X-03010455Y028185455D02*
X-02334545Y027509545D01*
D11*
X-02334545Y027509545D02*
X-01658636Y026833636D01*
D11*
X-01658636Y026833636D02*
X-00982727Y026157727D01*
D11*
X-00982727Y026157727D02*
X-00306818Y025481818D01*
D11*
X-00306818Y025481818D02*
X000369091Y024805909D01*
D11*
X000369091Y024805909D02*
X001045000Y024130000D01*
D11*
X001045000Y024130000D02*
X002042353Y024130000D01*
D11*
X002042353Y024130000D02*
X003039706Y024130000D01*
D11*
X003039706Y024130000D02*
X004037059Y024130000D01*
D11*
X004037059Y024130000D02*
X005034412Y024130000D01*
D11*
X005034412Y024130000D02*
X006031765Y024130000D01*
D11*
X006031765Y024130000D02*
X007029118Y024130000D01*
D11*
X007029118Y024130000D02*
X008026471Y024130000D01*
D11*
X008026471Y024130000D02*
X009023824Y024130000D01*
D11*
X009023824Y024130000D02*
X010021176Y024130000D01*
D11*
X010021176Y024130000D02*
X011018529Y024130000D01*
D11*
X011018529Y024130000D02*
X012015882Y024130000D01*
D11*
X012015882Y024130000D02*
X013013235Y024130000D01*
D11*
X013013235Y024130000D02*
X014010588Y024130000D01*
D11*
X014010588Y024130000D02*
X015007941Y024130000D01*
D11*
X015007941Y024130000D02*
X016005294Y024130000D01*
D11*
X016005294Y024130000D02*
X017002647Y024130000D01*
D11*
X017002647Y024130000D02*
X018000000Y024130000D01*
D11*
X052460000Y002000000D02*
X052600000Y002140000D01*
D11*
X052600000Y002140000D02*
X052600000Y002200000D01*
D11*
X052600000Y002200000D02*
X051800000Y002200000D01*
D11*
X051800000Y002200000D02*
X051400000Y002600000D01*
D11*
X051400000Y002600000D02*
X051000000Y002600000D01*
D24*
X051000000Y002600000D02*
X049800000Y003800000D01*
D24*
X049800000Y003800000D02*
X047400000Y003800000D01*
D24*
X047400000Y003800000D02*
X047325000Y003875000D01*
D11*
X047325000Y003875000D02*
X046875000Y003875000D01*
D11*
X046875000Y003875000D02*
X046125000Y004375000D01*
D25*
X046125000Y004375000D02*
X045875000Y004375000D01*
D26*
X045875000Y004375000D02*
X045625000Y004375000D01*
D16*
X045625000Y004375000D02*
X045622000Y004564000D01*
D16*
X045622000Y004564000D02*
X045622000Y004564000D01*
D24*
X041998000Y007622000D02*
X041998000Y007622000D01*
D24*
X041998000Y007622000D02*
X041978867Y007641133D01*
D24*
X041978867Y007641133D02*
X041919759Y007641133D01*
D27*
X041919759Y007641133D02*
X040990898Y007641133D01*
D27*
X040990898Y007641133D02*
X040062036Y007641133D01*
D27*
X040062036Y007641133D02*
X039133175Y007641133D01*
D18*
X039133175Y007641133D02*
X038204313Y007641133D01*
D11*
X038204313Y007641133D02*
X037275452Y007641133D01*
D11*
X037275452Y007641133D02*
X036346590Y007641133D01*
D11*
X036346590Y007641133D02*
X035417729Y007641133D01*
D11*
X035417729Y007641133D02*
X034488867Y007641133D01*
D11*
X034488867Y007641133D02*
X033801831Y008328169D01*
D11*
X033801831Y008328169D02*
X033114795Y009015205D01*
D11*
X033114795Y009015205D02*
X032427759Y009702241D01*
D11*
X032427759Y009702241D02*
X031740723Y010389277D01*
D11*
X031740723Y010389277D02*
X031053686Y011076314D01*
D11*
X031053686Y011076314D02*
X030366650Y011763350D01*
D11*
X030366650Y011763350D02*
X029679614Y012450386D01*
D11*
X029679614Y012450386D02*
X028992578Y013137422D01*
D11*
X028992578Y013137422D02*
X028305542Y013824458D01*
D11*
X028305542Y013824458D02*
X027618506Y014511494D01*
D11*
X027618506Y014511494D02*
X026931470Y015198530D01*
D11*
X026931470Y015198530D02*
X026244434Y015885566D01*
D11*
X026244434Y015885566D02*
X025557397Y016572603D01*
D11*
X025557397Y016572603D02*
X024870361Y017259639D01*
D11*
X024870361Y017259639D02*
X024183325Y017946675D01*
D11*
X024183325Y017946675D02*
X023496289Y018633711D01*
D11*
X023496289Y018633711D02*
X022809253Y019320747D01*
D11*
X022809253Y019320747D02*
X022809253Y024130000D01*
D11*
X022809253Y024130000D02*
X018000000Y024130000D01*
D11*
X-44160000Y037810000D02*
X-41620000Y037810000D01*
D11*
X-30160000Y-38350000D02*
X-30160000Y-35810000D01*
D11*
X040860000Y024130000D02*
X040860000Y026670000D01*
D11*
X-16087500Y039000000D02*
X-15750000Y039750000D01*
D28*
X-15750000Y039750000D02*
X-15500000Y040000000D01*
D29*
X-15500000Y040000000D02*
X-15440000Y040083000D01*
D29*
X-15440000Y040083000D02*
X-15440000Y040083000D01*
D29*
X-14614000Y040218000D02*
X-14614000Y040218000D01*
D29*
X-14614000Y040218000D02*
X-14500000Y040500000D01*
D29*
X-14500000Y040500000D02*
X-14250000Y040500000D01*
D27*
X-14250000Y040500000D02*
X-14000000Y040500000D01*
D30*
X-14000000Y040500000D02*
X-13750000Y040500000D01*
D31*
X-13750000Y040500000D02*
X-13250000Y040125000D01*
D11*
X-13250000Y040125000D02*
X-12175000Y040125000D01*
D11*
X-12175000Y040125000D02*
X-12175000Y039475001D01*
D11*
X-12175000Y039475001D02*
X-12175000Y039474999D01*
D18*
X-12175000Y039474999D02*
X-12175000Y039000000D01*
D32*
X050862500Y021050000D02*
X050200001Y021050000D01*
D32*
X050200001Y021050000D02*
X050199999Y021050000D01*
D11*
X050199999Y021050000D02*
X046775000Y021050000D01*
D11*
X046775000Y021050000D02*
X046225001Y021599999D01*
D11*
X046225001Y021599999D02*
X046224999Y021600001D01*
D18*
X046224999Y021600001D02*
X045825000Y022000000D01*
D32*
X050862500Y005050000D02*
X050635000Y004822500D01*
D11*
X050635000Y004822500D02*
X050635000Y004822000D01*
D32*
X050635000Y004822000D02*
X050200001Y004822000D01*
D32*
X050200001Y004822000D02*
X050199999Y004822000D01*
D20*
X050199999Y004822000D02*
X049705250Y004822000D01*
D20*
X049705250Y004822000D02*
X048775500Y004822000D01*
D20*
X048775500Y004822000D02*
X047845750Y004822000D01*
D20*
X047845750Y004822000D02*
X046916000Y004822000D01*
D20*
X046916000Y004822000D02*
X046916000Y004822000D01*
D33*
X046668000Y005605000D02*
X046668000Y005605000D01*
D33*
X046668000Y005605000D02*
X046273000Y006000000D01*
D34*
X046273000Y006000000D02*
X045825000Y006000000D01*
D18*
X045825000Y022000000D02*
X045425000Y022400000D01*
D23*
X045425000Y022400000D02*
X045025000Y022800000D01*
D35*
X045025000Y022800000D02*
X044800000Y022800000D01*
D35*
X044800000Y022800000D02*
X044800000Y022800000D01*
D11*
X067730000Y030000000D02*
X068250000Y031000000D01*
D11*
X068250000Y031000000D02*
X068200000Y031000000D01*
D11*
X068200000Y031000000D02*
X068200000Y031800000D01*
D11*
X068200000Y031800000D02*
X067400000Y032600000D01*
D11*
X067400000Y032600000D02*
X067400000Y033000000D01*
D11*
X067400000Y033000000D02*
X067000000Y033400000D01*
D11*
X067000000Y033400000D02*
X067000000Y036000000D01*
D32*
X053862500Y-12950000D02*
X053562501Y-13249999D01*
D32*
X053562501Y-13249999D02*
X053562499Y-13250001D01*
D11*
X053562499Y-13250001D02*
X051812500Y-15000000D01*
D11*
X051812500Y-15000000D02*
X048225001Y-15000000D01*
D11*
X048225001Y-15000000D02*
X048224999Y-15000000D01*
D18*
X048224999Y-15000000D02*
X047825000Y-15000000D01*
D32*
X050862500Y005050000D02*
X051162499Y004750001D01*
D32*
X051162499Y004750001D02*
X051162501Y004749999D01*
D11*
X051162501Y004749999D02*
X051439710Y004472790D01*
D11*
X051439710Y004472790D02*
X051439960Y004472790D01*
D11*
X051439960Y004472790D02*
X052652210Y004472790D01*
D11*
X052652210Y004472790D02*
X053500000Y003625000D01*
D11*
X053500000Y003625000D02*
X056000000Y003375000D01*
D11*
X056000000Y003375000D02*
X056908140Y002631860D01*
D11*
X056908140Y002631860D02*
X057540000Y002000000D01*
D18*
X058825000Y032000000D02*
X059224999Y032000000D01*
D18*
X059224999Y032000000D02*
X059225001Y032000000D01*
D11*
X059225001Y032000000D02*
X064000000Y032000000D01*
D11*
X064000000Y032000000D02*
X067000000Y035000000D01*
D11*
X067000000Y035000000D02*
X067000000Y036000000D01*
D18*
X047825000Y-15000000D02*
X048000000Y-14825000D01*
D18*
X048000000Y-14825000D02*
X048000000Y-14800000D01*
D18*
X048000000Y-14800000D02*
X047600000Y-15200000D01*
D18*
X047600000Y-15200000D02*
X047600000Y-15474999D01*
D18*
X047600000Y-15474999D02*
X047600000Y-15475001D01*
D11*
X047600000Y-15475001D02*
X047600000Y-16000000D01*
D11*
X047600000Y-16000000D02*
X047200000Y-16400000D01*
D11*
X047200000Y-16400000D02*
X046000000Y-16400000D01*
D11*
X046000000Y-16400000D02*
X045600000Y-16800000D01*
D11*
X045600000Y-16800000D02*
X045600000Y-17200000D01*
D11*
X045600000Y-17200000D02*
X044183177Y-18616823D01*
D11*
X044183177Y-18616823D02*
X044183177Y-18739046D01*
D11*
X044183177Y-18739046D02*
X044500000Y-19500000D01*
D23*
X044500000Y-19500000D02*
X045000000Y-20000000D01*
D23*
X045000000Y-20000000D02*
X045250000Y-20000000D01*
D23*
X045250000Y-20000000D02*
X045598131Y-20154000D01*
D36*
X045598131Y-20154000D02*
X046222065Y-20154000D01*
D11*
X046222065Y-20154000D02*
X046846000Y-20154000D01*
D11*
X046846000Y-20154000D02*
X046846000Y-20154000D01*
D32*
X050862500Y021050000D02*
X050862500Y020750001D01*
D32*
X050862500Y020750001D02*
X050862500Y020749999D01*
D11*
X050862500Y020749999D02*
X050862500Y020468243D01*
D11*
X050862500Y020468243D02*
X051158180Y020172562D01*
D11*
X051158180Y020172562D02*
X051158180Y020041820D01*
D11*
X051158180Y020041820D02*
X051200000Y020000000D01*
D11*
X051200000Y020000000D02*
X051200000Y020000000D01*
D35*
X059494000Y031093000D02*
X059494000Y031093000D01*
D35*
X059494000Y031093000D02*
X059494000Y031331000D01*
D35*
X059494000Y031331000D02*
X058825000Y032000000D01*
D32*
X053862500Y-12950000D02*
X054162529Y-13249999D01*
D32*
X054162529Y-13249999D02*
X054162531Y-13250001D01*
D11*
X054162531Y-13250001D02*
X054489262Y-13576699D01*
D11*
X054489262Y-13576699D02*
X055116023Y-14203398D01*
D11*
X055116023Y-14203398D02*
X055742785Y-14830097D01*
D11*
X055742785Y-14830097D02*
X056369546Y-15456796D01*
D11*
X056369546Y-15456796D02*
X056996308Y-16083495D01*
D11*
X056996308Y-16083495D02*
X057623069Y-16710194D01*
D11*
X057623069Y-16710194D02*
X060000000Y-19000000D01*
D11*
X060000000Y-19000000D02*
X060000000Y-24000000D01*
D11*
X060000000Y-24000000D02*
X064190000Y-24000000D01*
D11*
X057540000Y002000000D02*
X057540000Y001060625D01*
D11*
X057540000Y001060625D02*
X057540000Y000121250D01*
D11*
X057540000Y000121250D02*
X057540000Y-08427344D01*
D11*
X057540000Y-08427344D02*
X056967500Y-08999844D01*
D11*
X056967500Y-08999844D02*
X055250000Y-10717344D01*
D11*
X055250000Y-10717344D02*
X055250000Y-11000000D01*
D27*
X055250000Y-11000000D02*
X055000000Y-11500000D01*
D27*
X055000000Y-11500000D02*
X054750000Y-12000000D01*
D27*
X054750000Y-12000000D02*
X054306250Y-12475000D01*
D11*
X054306250Y-12475000D02*
X054306250Y-12506250D01*
D11*
X054306250Y-12506250D02*
X054162501Y-12649999D01*
D11*
X054162501Y-12649999D02*
X054162499Y-12650001D01*
D32*
X054162499Y-12650001D02*
X053862500Y-12950000D01*
D32*
X050862500Y021050000D02*
X050562501Y020750001D01*
D32*
X050562501Y020750001D02*
X050562499Y020749999D01*
D11*
X050562499Y020749999D02*
X045825000Y016012500D01*
D11*
X045825000Y016012500D02*
X045825000Y016012000D01*
D11*
X045825000Y016012000D02*
X045825000Y008000000D01*
D11*
X045825000Y008000000D02*
X045825000Y007750000D01*
D11*
X045825000Y007750000D02*
X045825000Y007500000D01*
D11*
X045825000Y007500000D02*
X045825000Y007250000D01*
D11*
X045825000Y007250000D02*
X045825000Y007000000D01*
D11*
X045825000Y007000000D02*
X045825000Y006750000D01*
D11*
X045825000Y006750000D02*
X045825000Y006500000D01*
D11*
X045825000Y006500000D02*
X045825000Y006475000D01*
D18*
X045825000Y006475000D02*
X045825000Y006250000D01*
D18*
X045825000Y006250000D02*
X045825000Y006000000D01*
D11*
X-30160000Y-38350000D02*
X-09840000Y-38350000D01*
D11*
X018000000Y026670000D02*
X040860000Y026670000D01*
D11*
X-41620000Y037810000D02*
X-40646280Y037810000D01*
D11*
X-40646280Y037810000D02*
X-39672560Y037810000D01*
D11*
X-39672560Y037810000D02*
X-38698840Y037810000D01*
D11*
X-38698840Y037810000D02*
X-37725120Y037810000D01*
D11*
X-37725120Y037810000D02*
X-36751400Y037810000D01*
D11*
X-36751400Y037810000D02*
X-35777680Y037810000D01*
D11*
X-35777680Y037810000D02*
X-34803960Y037810000D01*
D11*
X-34803960Y037810000D02*
X-33830240Y037810000D01*
D11*
X-33830240Y037810000D02*
X-32856520Y037810000D01*
D11*
X-32856520Y037810000D02*
X-31882800Y037810000D01*
D11*
X-31882800Y037810000D02*
X-30909080Y037810000D01*
D11*
X-30909080Y037810000D02*
X-29935360Y037810000D01*
D11*
X-29935360Y037810000D02*
X-28961640Y037810000D01*
D11*
X-28961640Y037810000D02*
X-27987920Y037810000D01*
D11*
X-27987920Y037810000D02*
X-27014200Y037810000D01*
D11*
X-27014200Y037810000D02*
X-26040480Y037810000D01*
D11*
X-26040480Y037810000D02*
X-25066760Y037810000D01*
D11*
X-25066760Y037810000D02*
X-24756760Y037500000D01*
D11*
X-24756760Y037500000D02*
X-17000000Y037500000D01*
D11*
X-17000000Y037500000D02*
X-16087500Y037500000D01*
D11*
X-16087500Y037500000D02*
X-16087500Y039000000D01*
D18*
X-12175000Y039000000D02*
X-11925000Y039000000D01*
D17*
X-11925000Y039000000D02*
X-11775000Y039000000D01*
D17*
X-11775000Y039000000D02*
X-11675000Y039000000D01*
D11*
X-11675000Y039000000D02*
X-11425000Y039000000D01*
D11*
X-11425000Y039000000D02*
X-11175000Y039000000D01*
D11*
X-11175000Y039000000D02*
X-10925000Y039000000D01*
D11*
X-10925000Y039000000D02*
X-10675000Y039000000D01*
D11*
X-10675000Y039000000D02*
X-10425000Y039000000D01*
D11*
X-10425000Y039000000D02*
X-10175000Y039000000D01*
D11*
X-10175000Y039000000D02*
X005670000Y039000000D01*
D11*
X005670000Y039000000D02*
X018000000Y026670000D01*
D11*
X037363000Y-30032000D02*
X037363000Y-30032000D01*
D11*
X037363000Y-30032000D02*
X037350048Y-30044952D01*
D11*
X037350048Y-30044952D02*
X037219821Y-30044952D01*
D11*
X037219821Y-30044952D02*
X036527734Y-30737039D01*
D11*
X036527734Y-30737039D02*
X035835646Y-31429127D01*
D11*
X035835646Y-31429127D02*
X035143559Y-32121214D01*
D11*
X035143559Y-32121214D02*
X034451471Y-32813301D01*
D11*
X034451471Y-32813301D02*
X033759384Y-33505389D01*
D11*
X033759384Y-33505389D02*
X033067297Y-34197476D01*
D11*
X033067297Y-34197476D02*
X032375209Y-34889563D01*
D11*
X032375209Y-34889563D02*
X031683122Y-35581651D01*
D11*
X031683122Y-35581651D02*
X030991035Y-36273738D01*
D11*
X030991035Y-36273738D02*
X030298947Y-36965825D01*
D11*
X030298947Y-36965825D02*
X029606860Y-37657913D01*
D11*
X029606860Y-37657913D02*
X028914773Y-38350000D01*
D11*
X028914773Y-38350000D02*
X027921061Y-38350000D01*
D11*
X027921061Y-38350000D02*
X026927348Y-38350000D01*
D11*
X026927348Y-38350000D02*
X025933636Y-38350000D01*
D11*
X025933636Y-38350000D02*
X024939924Y-38350000D01*
D11*
X024939924Y-38350000D02*
X023946212Y-38350000D01*
D11*
X023946212Y-38350000D02*
X022952500Y-38350000D01*
D11*
X022952500Y-38350000D02*
X021958788Y-38350000D01*
D11*
X021958788Y-38350000D02*
X020965076Y-38350000D01*
D11*
X020965076Y-38350000D02*
X019971364Y-38350000D01*
D11*
X019971364Y-38350000D02*
X018977651Y-38350000D01*
D11*
X018977651Y-38350000D02*
X017983939Y-38350000D01*
D11*
X017983939Y-38350000D02*
X016990227Y-38350000D01*
D11*
X016990227Y-38350000D02*
X015996515Y-38350000D01*
D11*
X015996515Y-38350000D02*
X015002803Y-38350000D01*
D11*
X015002803Y-38350000D02*
X014009091Y-38350000D01*
D11*
X014009091Y-38350000D02*
X013015379Y-38350000D01*
D11*
X013015379Y-38350000D02*
X012021667Y-38350000D01*
D11*
X012021667Y-38350000D02*
X011027955Y-38350000D01*
D11*
X011027955Y-38350000D02*
X010034242Y-38350000D01*
D11*
X010034242Y-38350000D02*
X009040530Y-38350000D01*
D11*
X009040530Y-38350000D02*
X008046818Y-38350000D01*
D11*
X008046818Y-38350000D02*
X007053106Y-38350000D01*
D11*
X007053106Y-38350000D02*
X006059394Y-38350000D01*
D11*
X006059394Y-38350000D02*
X005065682Y-38350000D01*
D11*
X005065682Y-38350000D02*
X004071970Y-38350000D01*
D11*
X004071970Y-38350000D02*
X003078258Y-38350000D01*
D11*
X003078258Y-38350000D02*
X002084545Y-38350000D01*
D11*
X002084545Y-38350000D02*
X001090833Y-38350000D01*
D11*
X001090833Y-38350000D02*
X000097121Y-38350000D01*
D11*
X000097121Y-38350000D02*
X-00896591Y-38350000D01*
D11*
X-00896591Y-38350000D02*
X-01890303Y-38350000D01*
D11*
X-01890303Y-38350000D02*
X-02884015Y-38350000D01*
D11*
X-02884015Y-38350000D02*
X-03877727Y-38350000D01*
D11*
X-03877727Y-38350000D02*
X-04871439Y-38350000D01*
D11*
X-04871439Y-38350000D02*
X-05865152Y-38350000D01*
D11*
X-05865152Y-38350000D02*
X-06858864Y-38350000D01*
D11*
X-06858864Y-38350000D02*
X-07852576Y-38350000D01*
D11*
X-07852576Y-38350000D02*
X-08846288Y-38350000D01*
D11*
X-08846288Y-38350000D02*
X-09840000Y-38350000D01*
D10*
X040860000Y-11430000D02*
X040860000Y-11140166D01*
D10*
X040860000Y-11140166D02*
X043129860Y-08870307D01*
D10*
X043129860Y-08870307D02*
X043129860Y-08840140D01*
D10*
X043129860Y-08840140D02*
X043223000Y-08747000D01*
D10*
X043223000Y-08747000D02*
X043223000Y-08747000D01*
D10*
X056091000Y011166000D02*
X056091000Y011166000D01*
D10*
X056091000Y011166000D02*
X056254000Y011166000D01*
D10*
X056254000Y011166000D02*
X059087500Y014000000D01*
D10*
X059558000Y028555000D02*
X059558000Y028555000D01*
D10*
X059558000Y028555000D02*
X059558000Y029530000D01*
D10*
X059558000Y029530000D02*
X059087500Y030000000D01*
D10*
X077912500Y-30000000D02*
X067278000Y-40635000D01*
D10*
X067278000Y-40635000D02*
X061905000Y-40635000D01*
D10*
X071810000Y-21460000D02*
X076088000Y-25738000D01*
D10*
X076088000Y-25738000D02*
X076087500Y-30000000D01*
D10*
X060635000Y-39365000D02*
X059541767Y-40458233D01*
D10*
X059541767Y-40458233D02*
X059365000Y-40635000D01*
D10*
X073080000Y-30000000D02*
X071810000Y-28730000D01*
D10*
X071810000Y-28730000D02*
X071810000Y-26540000D01*
D10*
X073080000Y-30000000D02*
X063715000Y-39365000D01*
D10*
X063715000Y-39365000D02*
X060635000Y-39365000D01*
D10*
X059912500Y-27000000D02*
X059913000Y-37547000D01*
D10*
X059913000Y-37547000D02*
X058095000Y-39365000D01*
D10*
X059174000Y-28021000D02*
X059174000Y-28021000D01*
D10*
X059174000Y-28021000D02*
X059109000Y-28021000D01*
D10*
X059109000Y-28021000D02*
X058087500Y-27000000D01*
D10*
X068912500Y-18000000D02*
X065453000Y-21460000D01*
D10*
X065453000Y-21460000D02*
X064190000Y-21460000D01*
D10*
X057912500Y-30000000D02*
X047278000Y-40635000D01*
D10*
X047278000Y-40635000D02*
X041905000Y-40635000D01*
D10*
X051810000Y-21460000D02*
X056088000Y-25738000D01*
D10*
X056088000Y-25738000D02*
X056087500Y-30000000D01*
D10*
X040635000Y-39365000D02*
X039541767Y-40458233D01*
D10*
X039541767Y-40458233D02*
X039365000Y-40635000D01*
D10*
X053080000Y-30000000D02*
X051810000Y-28730000D01*
D10*
X051810000Y-28730000D02*
X051810000Y-26540000D01*
D10*
X053080000Y-30000000D02*
X043715000Y-39365000D01*
D10*
X043715000Y-39365000D02*
X040635000Y-39365000D01*
D10*
X035912500Y-27000000D02*
X037000000Y-28087000D01*
D10*
X037000000Y-28087000D02*
X037000000Y-28500000D01*
D10*
X037000000Y-28500000D02*
X037000000Y-28500000D01*
D10*
X042920000Y-30000000D02*
X041879651Y-28959651D01*
D10*
X041879651Y-28959651D02*
X036101204Y-28959651D01*
D10*
X036101204Y-28959651D02*
X036047651Y-28959651D01*
D10*
X036047651Y-28959651D02*
X034087500Y-27000000D01*
D10*
X042920000Y-30000000D02*
X045810000Y-30000000D01*
D10*
X045810000Y-30000000D02*
X051810000Y-24000000D01*
D10*
X048912500Y-18000000D02*
X047621843Y-19291157D01*
D10*
X047621843Y-19291157D02*
X047621843Y-19964683D01*
D10*
X047621843Y-19964683D02*
X047434928Y-20764195D01*
D10*
X047434928Y-20764195D02*
X046126526Y-21460000D01*
D10*
X046126526Y-21460000D02*
X044190000Y-21460000D01*
D10*
X047825000Y-10000000D02*
X046175000Y-11650000D01*
D10*
X046175000Y-11650000D02*
X046175000Y-15000000D01*
D10*
X047825000Y-10000000D02*
X052813000Y-10000000D01*
D10*
X052813000Y-10000000D02*
X053862500Y-11050000D01*
D10*
X070500000Y-06000000D02*
X064500000Y-12000000D01*
D10*
X064500000Y-12000000D02*
X056137500Y-12000000D01*
D10*
X048912500Y002000000D02*
X050298984Y000614016D01*
D10*
X050298984Y000614016D02*
X052824183Y000614016D01*
D10*
X052824183Y000614016D02*
X054210167Y002000000D01*
D10*
X054210167Y002000000D02*
X055000000Y002000000D01*
D10*
X058825000Y036000000D02*
X058921153Y035903847D01*
D10*
X058921153Y035903847D02*
X058921153Y034515504D01*
D10*
X058921153Y034515504D02*
X058921153Y034515504D01*
D10*
X056525000Y032250000D02*
X056525000Y032250000D01*
D10*
X056525000Y032250000D02*
X056528850Y032250000D01*
D10*
X056528850Y032250000D02*
X056778850Y032000000D01*
D10*
X056778850Y032000000D02*
X057175000Y032000000D01*
D10*
X058825000Y036000000D02*
X064460000Y036000000D01*
D10*
X050862500Y006950000D02*
X049097910Y005185410D01*
D10*
X049097910Y005185410D02*
X045593807Y005185410D01*
D10*
X045593807Y005185410D02*
X045593807Y005091807D01*
D10*
X045593807Y005091807D02*
X045483761Y004981761D01*
D10*
X045483761Y004981761D02*
X045446000Y004944000D01*
D10*
X045446000Y004944000D02*
X045446000Y004944000D01*
D10*
X044758000Y005374000D02*
X044758000Y005374000D01*
D10*
X044758000Y005374000D02*
X044758000Y005417000D01*
D10*
X044758000Y005417000D02*
X044175000Y006000000D01*
D10*
X044175000Y006000000D02*
X043145249Y007029751D01*
D10*
X043145249Y007029751D02*
X043145249Y010971227D01*
D10*
X043145249Y010971227D02*
X040860000Y013256477D01*
D10*
X040860000Y013256477D02*
X040860000Y013970000D01*
D10*
X063889142Y005992997D02*
X063889142Y005992997D01*
D10*
X063889142Y005992997D02*
X062495721Y007386418D01*
D10*
X062495721Y007386418D02*
X057825000Y007875000D01*
D10*
X057825000Y007875000D02*
X054562417Y007386418D01*
D10*
X054562417Y007386418D02*
X054524418Y007386418D01*
D10*
X054524418Y007386418D02*
X053137500Y006000000D01*
D10*
X060912500Y006000000D02*
X061136218Y005776782D01*
D10*
X061136218Y005776782D02*
X063523926Y005776782D01*
D10*
X063523926Y005776782D02*
X063523926Y005776782D01*
D10*
X060912500Y014000000D02*
X063464000Y016551000D01*
D10*
X063464000Y016551000D02*
X063464000Y016575000D01*
D10*
X063464000Y016575000D02*
X063464000Y016575000D01*
D10*
X050862500Y022950000D02*
X050566970Y023246030D01*
D10*
X050566970Y023246030D02*
X045000000Y023625000D01*
D10*
X045000000Y023625000D02*
X044100000Y023175000D01*
D10*
X044100000Y023175000D02*
X044175000Y022696411D01*
D10*
X044175000Y022696411D02*
X044175000Y022000000D01*
D10*
X044175000Y022000000D02*
X042678000Y020503000D01*
D10*
X042678000Y020503000D02*
X042678000Y015158000D01*
D10*
X042678000Y015158000D02*
X042678000Y015158000D01*
D10*
X042344000Y009200000D02*
X042344000Y009200000D01*
D10*
X042344000Y009200000D02*
X042416249Y009127751D01*
D10*
X042416249Y009127751D02*
X042416249Y009092953D01*
D10*
X042416249Y009092953D02*
X042595000Y008914202D01*
D10*
X042595000Y008914202D02*
X042595000Y-06082000D01*
D10*
X042595000Y-06082000D02*
X042595000Y-06082000D01*
D10*
X067730000Y022000000D02*
X065205688Y024524312D01*
D10*
X065205688Y024524312D02*
X055775845Y024524312D01*
D10*
X055775845Y024524312D02*
X055662312Y024524312D01*
D10*
X055662312Y024524312D02*
X053137500Y022000000D01*
D10*
X060912500Y022000000D02*
X062150233Y020762767D01*
D10*
X062150233Y020762767D02*
X069032767Y020762767D01*
D10*
X069032767Y020762767D02*
X070270000Y022000000D01*
D10*
X060912500Y030000000D02*
X067363000Y031546000D01*
D10*
X067363000Y031546000D02*
X067363000Y031546000D01*
D11*
X-44160000Y035270000D02*
X-41620000Y035270000D01*
D11*
X-59460000Y025292500D02*
X-49483000Y035270000D01*
D11*
X-49483000Y035270000D02*
X-44160000Y035270000D01*
D11*
X-44160000Y032730000D02*
X-41620000Y032730000D01*
D29*
X004183000Y-06181000D03*
D29*
X-04648000Y-12953000D03*
D29*
X-10709000Y-16458000D03*
D29*
X-03605000Y-19657000D03*
D29*
X-07574000Y-19891000D03*
D29*
X010868000Y006621000D03*
D29*
X013600000Y004600000D03*
D29*
X013056000Y003569000D03*
D29*
X-05709000Y-10970000D03*
D29*
X-06231000Y-12139000D03*
D29*
X011087000Y006137000D03*
D29*
X-17998000Y-10208000D03*
D29*
X-18242000Y-10994000D03*
D29*
X-18695000Y-16551000D03*
D29*
X-18958000Y-17795000D03*
D29*
X045280000Y-19255000D03*
D29*
X059173000Y-19350000D03*
D29*
X060783000Y-19040000D03*
D29*
X060417000Y027784000D03*
D29*
X057149000Y027413000D03*
D29*
X057395000Y028786000D03*
D29*
X058176000Y024155000D03*
D29*
X-25786000Y017259000D03*
D29*
X-17600000Y009200000D03*
D29*
X-14244000Y005409000D03*
D29*
X-13105000Y003480000D03*
D29*
X-04440000Y-01904000D03*
D29*
X-01127000Y-04525000D03*
D29*
X009581000Y-13604000D03*
D29*
X010577000Y-15042000D03*
D29*
X-34975000Y011842000D03*
D29*
X007629000Y-10916000D03*
D29*
X009584000Y-11491000D03*
D29*
X014402000Y-15813000D03*
D29*
X-19200000Y006400000D03*
D29*
X010420000Y004875000D03*
D29*
X-47203000Y004483000D03*
D29*
X-35621000Y-06261000D03*
D29*
X009226000Y-10598000D03*
D29*
X012062000Y-11178000D03*
D29*
X-58400000Y-09600000D03*
D29*
X-06839000Y-03508000D03*
D29*
X-03435000Y-06205000D03*
D29*
X-35629000Y-12277000D03*
D29*
X019550000Y-17780000D03*
D29*
X008000000Y-12813000D03*
D29*
X011193000Y-13121000D03*
D29*
X-14604000Y-16179000D03*
D29*
X-13609000Y-16682000D03*
D29*
X005568000Y-17196000D03*
D29*
X009957000Y-14627000D03*
D29*
X055175000Y004256000D03*
D29*
X059605000Y009000000D03*
D29*
X059600000Y007000000D03*
D29*
X045622000Y004564000D03*
D29*
X041998000Y007622000D03*
D29*
X-15440000Y040083000D03*
D29*
X-14614000Y040218000D03*
D29*
X046916000Y004822000D03*
D29*
X046668000Y005605000D03*
D29*
X044800000Y022800000D03*
D29*
X046846000Y-20154000D03*
D29*
X051200000Y020000000D03*
D29*
X059494000Y031093000D03*
D29*
X037363000Y-30032000D03*
D29*
X043223000Y-08747000D03*
D29*
X056091000Y011166000D03*
D29*
X059558000Y028555000D03*
D29*
X059174000Y-28021000D03*
D29*
X037000000Y-28500000D03*
D29*
X058921153Y034515504D03*
D29*
X056525000Y032250000D03*
D29*
X045446000Y004944000D03*
D29*
X044758000Y005374000D03*
D29*
X063889142Y005992997D03*
D29*
X063523926Y005776782D03*
D29*
X063464000Y016575000D03*
D29*
X042678000Y015158000D03*
D29*
X042344000Y009200000D03*
D29*
X042595000Y-06082000D03*
D29*
X067363000Y031546000D03*
M02*