%TF.GenerationSoftware,tscircuit,circuit-json-to-gerber,0.0.93*%
%TF.CreationDate,2026-08-27T09:13:14.326Z*%
%TF.SameCoordinates,Original*%
%TF.FileFunction,Copper,L1,Top*%
%TF.FilePolarity,Positive*%
%FSLAX46Y46*%
%MOMM*%
G04 Gerber Fmt 4.6, Leading zero omitted, Abs format (unit mm)*
G04 Created by tscircuit (builder) date 2026-08-27T09:13:14.326Z*
G01*
%LPD*%
G75*
G04 APERTURE MACROS START*
%AMHORZPILL*
0 Horizontal pill (stadium) shape macro*
0 Parameters:*
0 $1 = Total width*
0 $2 = Total height*
0 $3 = Circle diameter (equal to height)*
0 $4 = Circle center offset
0 21 = Center Line(Exposure, Width, Height, Center X, Center Y, Rotation)*
0 1 = Circle(Exposure, Diameter, Center X, Center Y, Rotation)*
21,1,$1-$3,$2,0.0,0.0,0.0*
1,1,$3,0.0-$4,0.0*
1,1,$3,$4,0.0*%
%AMVERTPILL*
0 Vertical pill (stadium) shape macro*
0 Parameters:*
0 $1 = Total width*
0 $2 = Total height*
0 $3 = Circle diameter (equal to width)*
0 $4 = Circle center offset
0 21 = Center Line(Exposure, Width, Height, Center X, Center Y, Rotation)*
21,1,$1,$2-$3,0.0,0.0,0.0*
1,1,$3,0.0,0.0-$4*
1,1,$3,0.0,$4*%
%AMROUNDRECT*
0 Rectangle with rounded corners*
0 $1 Corner radius*
0 $2 $3 $4 $5 $6 $7 $8 $9 X,Y Position of each corner*
0 Polygon box body*
4,1,4,$2,$3,$4,$5,$6,$7,$8,$9,$2,$3,0*
0 Circles for rounded corners*
1,1,$1+$1,$2,$3*
1,1,$1+$1,$4,$5*
1,1,$1+$1,$6,$7*
1,1,$1+$1,$8,$9*
0 Rectangles between the rounded corners*
20,1,$1+$1,$2,$3,$4,$5,0*
20,1,$1+$1,$4,$5,$6,$7,0*
20,1,$1+$1,$6,$7,$8,$9,0*
20,1,$1+$1,$8,$9,$2,$3,0*%
G04 APERTURE MACROS END*
G04 aperture START LIST*
%ADD10C,0.150000*%
%ADD11C,1.000000*%
%ADD12C,0.800000*%
%ADD13C,0.650000*%
%ADD14C,0.575000*%
%ADD15C,0.375000*%
%ADD16C,0.775000*%
%ADD17C,0.600000*%
%ADD18C,0.575000*%
%ADD19C,0.925000*%
%ADD20C,0.950000*%
%ADD21C,0.975000*%
%ADD22C,0.300000*%
%ADD23C,0.450000*%
%ADD24C,0.625000*%
%ADD25C,0.750000*%
%ADD26R,1.500000X1.500000*%
%ADD27C,1.500000*%
%ADD28C,0.063000*%
%ADD29C,0.200000*%
%ADD30C,0.108000*%
%ADD31R,1.800000X1.800000*%
%ADD32C,0.081000*%
%ADD33C,0.090000*%
%ADD34C,0.100000*%
%ADD35R,1.700000X1.700000*%
%ADD36R,1.025000X1.400000*%
%ADD37R,0.717500X0.980000*%
%ADD38C,0.120000*%
%ADD39C,0.036000*%
%ADD40R,2.000000X2.000000*%
%ADD41R,1.325000X0.600000*%
%ADD42R,0.927500X0.420000*%
%ADD43C,0.045000*%
%ADD44R,0.800000X0.950000*%
%ADD45R,0.560000X0.665000*%
%ADD46R,2.200000X2.200000*%
%ADD47C,0.150000*%
%ADD48R,2.800000X2.800000*%
%ADD49C,0.072000*%
%ADD50C,1.400000*%
%ADD51C,0.300000*%
%TD*%
G04 aperture END LIST*
D26*
X018000000Y-26670000D03*
D27*
X018000000Y-24130000D03*
D27*
X018000000Y-21590000D03*
D27*
X018000000Y-19050000D03*
D27*
X018000000Y-16510000D03*
D27*
X018000000Y-13970000D03*
D27*
X018000000Y-11430000D03*
D27*
X018000000Y-08890000D03*
D27*
X018000000Y-06350000D03*
D27*
X018000000Y-03810000D03*
D27*
X018000000Y-01270000D03*
D27*
X018000000Y001270000D03*
D27*
X018000000Y003810000D03*
D27*
X018000000Y006350000D03*
D27*
X018000000Y008890000D03*
D27*
X018000000Y011430000D03*
D27*
X018000000Y013970000D03*
D27*
X018000000Y016510000D03*
D27*
X018000000Y019050000D03*
D27*
X018000000Y021590000D03*
D27*
X018000000Y024130000D03*
D27*
X018000000Y026670000D03*
D26*
X040860000Y-26670000D03*
D27*
X040860000Y-24130000D03*
D27*
X040860000Y-21590000D03*
D27*
X040860000Y-19050000D03*
D27*
X040860000Y-16510000D03*
D27*
X040860000Y-13970000D03*
D27*
X040860000Y-11430000D03*
D27*
X040860000Y-08890000D03*
D27*
X040860000Y-06350000D03*
D27*
X040860000Y-03810000D03*
D27*
X040860000Y-01270000D03*
D27*
X040860000Y001270000D03*
D27*
X040860000Y003810000D03*
D27*
X040860000Y006350000D03*
D27*
X040860000Y008890000D03*
D27*
X040860000Y011430000D03*
D27*
X040860000Y013970000D03*
D27*
X040860000Y016510000D03*
D27*
X040860000Y019050000D03*
D27*
X040860000Y021590000D03*
D27*
X040860000Y024130000D03*
D27*
X040860000Y026670000D03*
D26*
X-70540000Y-15000000D03*
D27*
X-68000000Y-15000000D03*
D27*
X-65460000Y-15000000D03*
D26*
X-70540000Y000000000D03*
D27*
X-68000000Y000000000D03*
D27*
X-65460000Y000000000D03*
D26*
X-76500000Y015000000D03*
D31*
X-64540000Y025292500D03*
D31*
X-59460000Y025292500D03*
D31*
X-44160000Y040350000D03*
D31*
X-41620000Y040350000D03*
D31*
X-44160000Y037810000D03*
D31*
X-41620000Y037810000D03*
D31*
X-44160000Y035270000D03*
D31*
X-41620000Y035270000D03*
D31*
X-44160000Y032730000D03*
D31*
X-41620000Y032730000D03*
D35*
X-30160000Y-38350000D03*
D35*
X-30160000Y-35810000D03*
D35*
X-30160000Y-33270000D03*
D35*
X-30160000Y-30730000D03*
D35*
X-30160000Y-28190000D03*
D35*
X-30160000Y-25650000D03*
D35*
X-09840000Y-38350000D03*
D35*
X-09840000Y-35810000D03*
D35*
X-09840000Y-33270000D03*
D35*
X-09840000Y-30730000D03*
D35*
X-09840000Y-28190000D03*
D35*
X-09840000Y-25650000D03*
D36*
X-48912500Y-18000000D03*
D36*
X-47087500Y-18000000D03*
D36*
X-48912500Y-12000000D03*
D36*
X-47087500Y-12000000D03*
D36*
X-48912500Y-06000000D03*
D36*
X-47087500Y-06000000D03*
D36*
X-48912500Y000000000D03*
D36*
X-47087500Y000000000D03*
D36*
X-48912500Y006000000D03*
D36*
X-47087500Y006000000D03*
D36*
X-48912500Y012000000D03*
D36*
X-47087500Y012000000D03*
D36*
X-48912500Y018000000D03*
D36*
X-47087500Y018000000D03*
D36*
X059087500Y030000000D03*
D36*
X060912500Y030000000D03*
D40*
X067730000Y030000000D03*
D40*
X070270000Y030000000D03*
D36*
X059087500Y022000000D03*
D36*
X060912500Y022000000D03*
D40*
X067730000Y022000000D03*
D40*
X070270000Y022000000D03*
D41*
X050862500Y022950000D03*
D41*
X050862500Y021050000D03*
D41*
X053137500Y022000000D03*
D44*
X044175000Y022000000D03*
D44*
X045825000Y022000000D03*
D36*
X059087500Y014000000D03*
D36*
X060912500Y014000000D03*
D40*
X067730000Y014000000D03*
D40*
X070270000Y014000000D03*
D36*
X059087500Y006000000D03*
D36*
X060912500Y006000000D03*
D40*
X067730000Y006000000D03*
D40*
X070270000Y006000000D03*
D41*
X050862500Y006950000D03*
D41*
X050862500Y005050000D03*
D41*
X053137500Y006000000D03*
D44*
X044175000Y006000000D03*
D44*
X045825000Y006000000D03*
D46*
X069540000Y036000000D03*
D46*
X067000000Y036000000D03*
D46*
X064460000Y036000000D03*
D44*
X057175000Y036000000D03*
D44*
X058825000Y036000000D03*
D44*
X057175000Y032000000D03*
D44*
X058825000Y032000000D03*
D31*
X006110000Y040730000D03*
D31*
X006110000Y043270000D03*
D31*
X008650000Y040730000D03*
D31*
X008650000Y043270000D03*
D31*
X011190000Y040730000D03*
D31*
X011190000Y043270000D03*
D31*
X013730000Y040730000D03*
D31*
X013730000Y043270000D03*
D31*
X016270000Y040730000D03*
D31*
X016270000Y043270000D03*
D31*
X018810000Y040730000D03*
D31*
X018810000Y043270000D03*
D31*
X021350000Y040730000D03*
D31*
X021350000Y043270000D03*
D31*
X023890000Y040730000D03*
D31*
X023890000Y043270000D03*
D48*
X038000000Y036060000D03*
D48*
X038000000Y040020000D03*
D48*
X038000000Y043980000D03*
D48*
X038000000Y047940000D03*
D40*
X065500000Y-06000000D03*
D40*
X070500000Y-06000000D03*
D41*
X053862500Y-11050000D03*
D41*
X053862500Y-12950000D03*
D41*
X056137500Y-12000000D03*
D44*
X046175000Y-10000000D03*
D44*
X047825000Y-10000000D03*
D44*
X046175000Y-15000000D03*
D44*
X047825000Y-15000000D03*
D36*
X-17912500Y039000000D03*
D36*
X-16087500Y039000000D03*
D44*
X-13825000Y039000000D03*
D44*
X-12175000Y039000000D03*
D50*
X038095000Y-39365000D03*
D50*
X039365000Y-40635000D03*
D50*
X040635000Y-39365000D03*
D50*
X041905000Y-40635000D03*
D31*
X044190000Y-21460000D03*
D31*
X044190000Y-24000000D03*
D31*
X044190000Y-26540000D03*
D31*
X051810000Y-26540000D03*
D31*
X051810000Y-24000000D03*
D31*
X051810000Y-21460000D03*
D36*
X047087500Y-18000000D03*
D36*
X048912500Y-18000000D03*
D36*
X034087500Y-27000000D03*
D36*
X035912500Y-27000000D03*
D36*
X056087500Y-30000000D03*
D36*
X057912500Y-30000000D03*
D40*
X042920000Y-30000000D03*
D40*
X053080000Y-30000000D03*
D50*
X058095000Y-39365000D03*
D50*
X059365000Y-40635000D03*
D50*
X060635000Y-39365000D03*
D50*
X061905000Y-40635000D03*
D31*
X064190000Y-21460000D03*
D31*
X064190000Y-24000000D03*
D31*
X064190000Y-26540000D03*
D31*
X071810000Y-26540000D03*
D31*
X071810000Y-24000000D03*
D31*
X071810000Y-21460000D03*
D36*
X067087500Y-18000000D03*
D36*
X068912500Y-18000000D03*
D36*
X058087500Y-27000000D03*
D36*
X059912500Y-27000000D03*
D36*
X076087500Y-30000000D03*
D36*
X077912500Y-30000000D03*
D40*
X062920000Y-30000000D03*
D40*
X073080000Y-30000000D03*
D10*
X040860000Y-01270000D02*
X038140000Y-03990000D01*
D10*
X038140000Y-03990000D02*
X038006000Y-03990000D01*
D10*
X038006000Y-03990000D02*
X038006000Y-03990000D01*
D10*
X036884000Y-05314000D02*
X036884000Y-05314000D01*
D10*
X036884000Y-05314000D02*
X036779832Y-05418168D01*
D10*
X036779832Y-05418168D02*
X036779832Y-05507428D01*
D10*
X036779832Y-05507428D02*
X032385838Y-09901422D01*
D10*
X032385838Y-09901422D02*
X032352364Y-09901422D01*
D10*
X032352364Y-09901422D02*
X016953578Y-09901422D01*
D10*
X016953578Y-09901422D02*
X016003000Y-10852000D01*
D10*
X016003000Y-10852000D02*
X016003000Y-10852000D01*
D10*
X013932000Y-12621000D02*
X013932000Y-12621000D01*
D10*
X013932000Y-12621000D02*
X013885123Y-12667877D01*
D10*
X013885123Y-12667877D02*
X013827072Y-12667877D01*
D10*
X013827072Y-12667877D02*
X013727698Y-12767251D01*
D10*
X013727698Y-12767251D02*
X010120583Y-12767251D01*
D10*
X010120583Y-12767251D02*
X006826834Y-16061000D01*
D10*
X006826834Y-16061000D02*
X-08262000Y-16061000D01*
D10*
X-08262000Y-16061000D02*
X-08262000Y-16061000D01*
D10*
X-08552000Y-11515000D02*
X-08552000Y-11515000D01*
D10*
X-08552000Y-11515000D02*
X-08552682Y-11514318D01*
D10*
X-08552682Y-11514318D02*
X-08765288Y-11514318D01*
D10*
X-08765288Y-11514318D02*
X-16024318Y-11514318D01*
D10*
X-16024318Y-11514318D02*
X-30160000Y-25650000D01*
D10*
X040860000Y001270000D02*
X035381000Y001270000D01*
D10*
X035381000Y001270000D02*
X031910000Y-02201000D01*
D10*
X031910000Y-02201000D02*
X031910000Y-02201000D01*
D10*
X014422000Y-08076000D02*
X014422000Y-08076000D01*
D10*
X014422000Y-08076000D02*
X014418013Y-08072013D01*
D10*
X014418013Y-08072013D02*
X014348000Y-08002000D01*
D10*
X014348000Y-08002000D02*
X013201000Y-08002000D01*
D10*
X013201000Y-08002000D02*
X013201000Y-08002000D01*
D10*
X008727000Y-09632000D02*
X008727000Y-09632000D01*
D10*
X008727000Y-09632000D02*
X008708696Y-09650304D01*
D10*
X008708696Y-09650304D02*
X008139000Y-10220000D01*
D10*
X008139000Y-10220000D02*
X007699000Y-10220000D01*
D10*
X007699000Y-10220000D02*
X007699000Y-10220000D01*
D10*
X-15588000Y-20997000D02*
X-15588000Y-20997000D01*
D10*
X-15588000Y-20997000D02*
X-15615067Y-21024067D01*
D10*
X-15615067Y-21024067D02*
X-15628453Y-21024067D01*
D10*
X-15628453Y-21024067D02*
X-22794386Y-28190000D01*
D10*
X-22794386Y-28190000D02*
X-30160000Y-28190000D01*
D10*
X040860000Y003810000D02*
X040251958Y003201958D01*
D10*
X040251958Y003201958D02*
X036830452Y003201958D01*
D10*
X036830452Y003201958D02*
X029550000Y-04078494D01*
D10*
X029550000Y-04078494D02*
X029550000Y-06768000D01*
D10*
X029550000Y-06768000D02*
X029550000Y-06768000D01*
D10*
X040860000Y016510000D02*
X038733000Y014383000D01*
D10*
X038733000Y014383000D02*
X032099000Y014383000D01*
D10*
X032099000Y014383000D02*
X032099000Y014383000D01*
D10*
X030856000Y003581000D02*
X030856000Y003581000D01*
D10*
X030856000Y003581000D02*
X030775888Y003500888D01*
D10*
X030775888Y003500888D02*
X030714610Y003500888D01*
D10*
X030714610Y003500888D02*
X030427723Y003214000D01*
D10*
X030427723Y003214000D02*
X029839000Y003214000D01*
D10*
X029839000Y003214000D02*
X029839000Y003214000D01*
D10*
X013594000Y-03434000D02*
X013594000Y-03434000D01*
D10*
X013594000Y-03434000D02*
X013514274Y-03513726D01*
D10*
X013514274Y-03513726D02*
X013446521Y-03513726D01*
D10*
X013446521Y-03513726D02*
X013214247Y-03746000D01*
D10*
X013214247Y-03746000D02*
X012796000Y-03746000D01*
D10*
X012796000Y-03746000D02*
X012796000Y-03746000D01*
D10*
X003600000Y-04800000D02*
X003600000Y-04800000D01*
D10*
X003600000Y-04800000D02*
X003493944Y-04800000D01*
D10*
X003493944Y-04800000D02*
X003492944Y-04801000D01*
D10*
X003492944Y-04801000D02*
X001996000Y-04801000D01*
D10*
X001996000Y-04801000D02*
X001996000Y-04801000D01*
D10*
X014373000Y-06599000D02*
X014373000Y-06599000D01*
D10*
X014373000Y-06599000D02*
X014353096Y-06618904D01*
D10*
X014353096Y-06618904D02*
X013969000Y-07003000D01*
D10*
X013969000Y-07003000D02*
X011267000Y-07003000D01*
D10*
X011267000Y-07003000D02*
X011267000Y-07003000D01*
D10*
X006791000Y-08701000D02*
X006791000Y-08701000D01*
D10*
X006791000Y-08701000D02*
X006781280Y-08710720D01*
D10*
X006781280Y-08710720D02*
X006718672Y-08710720D01*
D10*
X006718672Y-08710720D02*
X-01531024Y-08710720D01*
D10*
X-01531024Y-08710720D02*
X-23550305Y-30730000D01*
D10*
X-23550305Y-30730000D02*
X-30160000Y-30730000D01*
D10*
X018000000Y-21590000D02*
X011400000Y-28190000D01*
D10*
X011400000Y-28190000D02*
X-09840000Y-28190000D01*
D10*
X047087500Y-18000000D02*
X046963519Y-18123981D01*
D10*
X046963519Y-18123981D02*
X046963519Y-18198109D01*
D10*
X046963519Y-18198109D02*
X046320728Y-19447627D01*
D10*
X046320728Y-19447627D02*
X044880990Y-20280638D01*
D10*
X044880990Y-20280638D02*
X043034034Y-20280638D01*
D10*
X043034034Y-20280638D02*
X043034034Y-21955966D01*
D10*
X043034034Y-21955966D02*
X040860000Y-24130000D01*
D10*
X047087500Y-18000000D02*
X048044260Y-17043240D01*
D10*
X048044260Y-17043240D02*
X066131240Y-17043240D01*
D10*
X066131240Y-17043240D02*
X067087500Y-18000000D01*
D10*
X046175000Y-10000000D02*
X046175000Y001349260D01*
D10*
X046175000Y001349260D02*
X043500446Y004023814D01*
D10*
X043500446Y004023814D02*
X043500446Y008789554D01*
D10*
X043500446Y008789554D02*
X040860000Y011430000D01*
D10*
X021350000Y043270000D02*
X022785355Y041834645D01*
D10*
X022785355Y041834645D02*
X022785355Y038864645D01*
D10*
X022785355Y038864645D02*
X033156481Y028493519D01*
D10*
X033156481Y028493519D02*
X033156481Y019911519D01*
D10*
X033156481Y019911519D02*
X033242000Y019826000D01*
D10*
X033242000Y019826000D02*
X033242000Y019826000D01*
D10*
X021350000Y040730000D02*
X021350000Y038192069D01*
D10*
X021350000Y038192069D02*
X026979962Y032562107D01*
D10*
X026979962Y032562107D02*
X026979962Y027592038D01*
D10*
X026979962Y027592038D02*
X031596353Y022975647D01*
D10*
X031596353Y022975647D02*
X031604000Y022968000D01*
D10*
X031604000Y022968000D02*
X031604000Y022968000D01*
D10*
X037185000Y-04214000D02*
X037185000Y-04214000D01*
D10*
X037185000Y-04214000D02*
X039899370Y-06928370D01*
D10*
X039899370Y-06928370D02*
X039899370Y-10335445D01*
D10*
X039899370Y-10335445D02*
X039899370Y-10469370D01*
D10*
X039899370Y-10469370D02*
X040860000Y-11430000D01*
D10*
X018810000Y043270000D02*
X020268475Y041811525D01*
D10*
X020268475Y041811525D02*
X020268475Y038874219D01*
D10*
X020268475Y038874219D02*
X026714770Y032427925D01*
D10*
X026714770Y032427925D02*
X026714770Y015045261D01*
D10*
X026714770Y015045261D02*
X026714770Y014990883D01*
D10*
X026714770Y014990883D02*
X035868353Y005837300D01*
D10*
X035868353Y005837300D02*
X035868353Y005828647D01*
D10*
X035868353Y005828647D02*
X035951000Y005746000D01*
D10*
X035951000Y005746000D02*
X035951000Y005746000D01*
D10*
X036201000Y-00925000D02*
X036201000Y-00925000D01*
D10*
X036201000Y-00925000D02*
X036201000Y-04129000D01*
D10*
X036201000Y-04129000D02*
X037292136Y-05220135D01*
D10*
X037292136Y-05220135D02*
X037292136Y-10402136D01*
D10*
X037292136Y-10402136D02*
X040860000Y-13970000D01*
D10*
X016270000Y043270000D02*
X017717550Y041822450D01*
D10*
X017717550Y041822450D02*
X017719544Y033621888D01*
D10*
X017719544Y033621888D02*
X024416170Y027115278D01*
D10*
X024416170Y027115278D02*
X024319168Y008273511D01*
D10*
X024319168Y008273511D02*
X021844560Y005798903D01*
D10*
X021844560Y005798903D02*
X021844560Y005798560D01*
D10*
X021844560Y005798560D02*
X021830000Y005784000D01*
D10*
X021830000Y005784000D02*
X021830000Y005784000D01*
D10*
X016270000Y040730000D02*
X016270000Y036907102D01*
D10*
X016270000Y036907102D02*
X016748592Y036428509D01*
D10*
X016748592Y036428509D02*
X016748592Y036410408D01*
D10*
X016748592Y036410408D02*
X016811000Y036348000D01*
D10*
X016811000Y036348000D02*
X016811000Y036348000D01*
D10*
X020405000Y007825000D02*
X020405000Y007825000D01*
D10*
X020405000Y007825000D02*
X020405000Y001135000D01*
D10*
X020405000Y001135000D02*
X018000000Y-01270000D01*
D10*
X013730000Y040730000D02*
X013730000Y033960847D01*
D10*
X013730000Y033960847D02*
X019550000Y028140847D01*
D10*
X019550000Y028140847D02*
X019550000Y025223420D01*
D10*
X019550000Y025223420D02*
X019961620Y024811800D01*
D10*
X019961620Y024811800D02*
X020000000Y024740000D01*
D10*
X020000000Y024740000D02*
X020000000Y024740000D01*
D10*
X020000000Y022600000D02*
X020000000Y022600000D01*
D10*
X020000000Y022600000D02*
X020803626Y021796374D01*
D10*
X020803626Y021796374D02*
X020803626Y-04664245D01*
D10*
X020803626Y-04664245D02*
X019685755Y-04664245D01*
D10*
X019685755Y-04664245D02*
X018000000Y-06350000D01*
D10*
X011190000Y043270000D02*
X010000000Y042080000D01*
D10*
X010000000Y042080000D02*
X010000000Y037263205D01*
D10*
X010000000Y037263205D02*
X010000000Y035409680D01*
D10*
X010000000Y035409680D02*
X015404840Y030004840D01*
D10*
X015404840Y030004840D02*
X015400000Y030000000D01*
D10*
X015400000Y030000000D02*
X015400000Y030000000D01*
D10*
X015426000Y008001000D02*
X015426000Y008001000D01*
D10*
X015426000Y008001000D02*
X015426000Y-06316000D01*
D10*
X015426000Y-06316000D02*
X018000000Y-08890000D01*
D10*
X014769000Y-11376000D02*
X014769000Y-11376000D01*
D10*
X014769000Y-11376000D02*
X014769000Y-11656145D01*
D10*
X014769000Y-11656145D02*
X015453456Y-12340601D01*
D10*
X015453456Y-12340601D02*
X015465601Y-12340601D01*
D10*
X015465601Y-12340601D02*
X015521000Y-12396000D01*
D10*
X015521000Y-12396000D02*
X015521000Y-12396000D01*
D10*
X010470000Y008010000D02*
X010470000Y008010000D01*
D10*
X010470000Y008010000D02*
X010540809Y007939191D01*
D10*
X010540809Y007939191D02*
X014762143Y003717857D01*
D10*
X014762143Y003717857D02*
X014762143Y003438563D01*
D10*
X014762143Y003438563D02*
X014762143Y-10732143D01*
D10*
X014762143Y-10732143D02*
X018000000Y-13970000D01*
D10*
X007718000Y007946000D02*
X007718000Y007946000D01*
D10*
X007718000Y007946000D02*
X007717400Y007945400D01*
D10*
X007717400Y007945400D02*
X007701032Y007929032D01*
D10*
X007701032Y007929032D02*
X007701032Y-05526271D01*
D10*
X007701032Y-05526271D02*
X018000000Y-15825239D01*
D10*
X018000000Y-15825239D02*
X018000000Y-16510000D01*
D10*
X005401000Y003829000D02*
X005401000Y003829000D01*
D10*
X005401000Y003829000D02*
X005499157Y003730843D01*
D10*
X005499157Y003730843D02*
X006870462Y002359538D01*
D10*
X006870462Y002359538D02*
X006870462Y-05196812D01*
D10*
X006870462Y-05196812D02*
X009412000Y-07738350D01*
D10*
X009412000Y-07738350D02*
X009412000Y-12642000D01*
D10*
X009412000Y-12642000D02*
X009412000Y-12642000D01*
D10*
X009782000Y-13661000D02*
X009782000Y-13661000D01*
D10*
X009782000Y-13661000D02*
X009824824Y-13703824D01*
D10*
X009824824Y-13703824D02*
X009964558Y-13703824D01*
D10*
X009964558Y-13703824D02*
X015310734Y-19050000D01*
D10*
X015310734Y-19050000D02*
X018000000Y-19050000D01*
D10*
X064822000Y026198000D02*
X064822000Y026198000D01*
D10*
X064822000Y026198000D02*
X064818288Y026194288D01*
D10*
X064818288Y026194288D02*
X064682695Y026194288D01*
D10*
X064682695Y026194288D02*
X064331983Y026545000D01*
D10*
X064331983Y026545000D02*
X061080000Y026545000D01*
D10*
X061080000Y026545000D02*
X061080000Y026545000D01*
D10*
X044002000Y-00801000D02*
X044002000Y-00801000D01*
D10*
X044002000Y-00801000D02*
X043903946Y-00899054D01*
D10*
X043903946Y-00899054D02*
X040993000Y-03810000D01*
D10*
X040993000Y-03810000D02*
X040860000Y-03810000D01*
D10*
X-09840000Y-35810000D02*
X-09840000Y-33270000D01*
D10*
X018000000Y-26670000D02*
X018000000Y-24130000D01*
D10*
X018000000Y-26670000D02*
X011400000Y-33270000D01*
D10*
X011400000Y-33270000D02*
X-09840000Y-33270000D01*
D10*
X057175000Y036000000D02*
X057175000Y035444485D01*
D10*
X057175000Y035444485D02*
X057289057Y035330427D01*
D10*
X057289057Y035330427D02*
X057343931Y035275553D01*
D10*
X057343931Y035275553D02*
X057343931Y035275553D01*
D10*
X-47087500Y018000000D02*
X-47970711Y018883711D01*
D10*
X-47970711Y018883711D02*
X-72616289Y018883711D01*
D10*
X-72616289Y018883711D02*
X-76500000Y015000000D01*
D10*
X-48912500Y018000000D02*
X-47919847Y017007847D01*
D10*
X-47919847Y017007847D02*
X-47873626Y017007847D01*
D10*
X-47873626Y017007847D02*
X-32656153Y017007847D01*
D10*
X-32656153Y017007847D02*
X-32462000Y017202000D01*
D10*
X-32462000Y017202000D02*
X-32462000Y017202000D01*
D10*
X013192000Y-13207000D02*
X013192000Y-13207000D01*
D10*
X013192000Y-13207000D02*
X013297551Y-13312551D01*
D10*
X013297551Y-13312551D02*
X013322549Y-13312551D01*
D10*
X013322549Y-13312551D02*
X013812997Y-13803000D01*
D10*
X013812997Y-13803000D02*
X014117000Y-13803000D01*
D10*
X014117000Y-13803000D02*
X014117000Y-13803000D01*
D10*
X019625000Y-13309000D02*
X019625000Y-13309000D01*
D10*
X019625000Y-13309000D02*
X019672029Y-13356029D01*
D10*
X019672029Y-13356029D02*
X019718769Y-13356029D01*
D10*
X019718769Y-13356029D02*
X025412740Y-19050000D01*
D10*
X025412740Y-19050000D02*
X040860000Y-19050000D01*
D10*
X-47087500Y012000000D02*
X-51329000Y007758000D01*
D10*
X-51329000Y007758000D02*
X-61347000Y007758000D01*
D10*
X-61347000Y007758000D02*
X-61347000Y007758000D01*
D10*
X-48912500Y012000000D02*
X-46851097Y014060903D01*
D10*
X-46851097Y014060903D02*
X-35130749Y014060903D01*
D10*
X-35130749Y014060903D02*
X-27601652Y021590000D01*
D10*
X-27601652Y021590000D02*
X018000000Y021590000D01*
D10*
X-47087500Y006000000D02*
X-47970699Y005116301D01*
D10*
X-47970699Y005116301D02*
X-62883699Y005116301D01*
D10*
X-62883699Y005116301D02*
X-68000000Y000000000D01*
D10*
X-48912500Y006000000D02*
X-46101449Y008810551D01*
D10*
X-46101449Y008810551D02*
X-40008575Y008810551D01*
D10*
X-40008575Y008810551D02*
X-29769126Y019050000D01*
D10*
X-29769126Y019050000D02*
X018000000Y019050000D01*
D10*
X-47087500Y000000000D02*
X-48020488Y-00933488D01*
D10*
X-48020488Y-00933488D02*
X-48176763Y-00933488D01*
D10*
X-48176763Y-00933488D02*
X-69606512Y-00933488D01*
D10*
X-69606512Y-00933488D02*
X-70540000Y000000000D01*
D10*
X-48912500Y000000000D02*
X-44765070Y004146930D01*
D10*
X-44765070Y004146930D02*
X-44128063Y004146930D01*
D10*
X-44128063Y004146930D02*
X-31764994Y016510000D01*
D10*
X-31764994Y016510000D02*
X018000000Y016510000D01*
D10*
X-47087500Y-06000000D02*
X-50134000Y-09047000D01*
D10*
X-50134000Y-09047000D02*
X-62152000Y-09047000D01*
D10*
X-62152000Y-09047000D02*
X-62152000Y-09047000D01*
D10*
X-48912500Y-06000000D02*
X-28942000Y013970000D01*
D10*
X-28942000Y013970000D02*
X018000000Y013970000D01*
D10*
X-47087500Y-12000000D02*
X-47970696Y-12883696D01*
D10*
X-47970696Y-12883696D02*
X-65883696Y-12883696D01*
D10*
X-65883696Y-12883696D02*
X-68000000Y-15000000D01*
D10*
X-48912500Y-12000000D02*
X-25482000Y011430000D01*
D10*
X-25482000Y011430000D02*
X018000000Y011430000D01*
D10*
X-47087500Y-18000000D02*
X-48126499Y-16960501D01*
D10*
X-48126499Y-16960501D02*
X-68579499Y-16960501D01*
D10*
X-68579499Y-16960501D02*
X-70540000Y-15000000D01*
D10*
X-48912500Y-18000000D02*
X-47399829Y-19512171D01*
D10*
X-47399829Y-19512171D02*
X-47399829Y-19872481D01*
D10*
X-47399829Y-19872481D02*
X-18637349Y008890000D01*
D10*
X-18637349Y008890000D02*
X018000000Y008890000D01*
D11*
X-44160000Y040350000D02*
X-41620000Y040350000D01*
D11*
X038000000Y036060000D02*
X038000000Y040020000D01*
D11*
X-17912500Y039000000D02*
X-18000000Y039087500D01*
D11*
X-18000000Y039087500D02*
X-18000000Y039200000D01*
D11*
X-18000000Y039200000D02*
X-17600000Y039600000D01*
D11*
X-17600000Y039600000D02*
X-17600000Y040400000D01*
D11*
X-17600000Y040400000D02*
X-17200000Y040800000D01*
D11*
X-17200000Y040800000D02*
X-15200000Y040800000D01*
D11*
X-15200000Y040800000D02*
X-14400000Y040000000D01*
D11*
X-14400000Y040000000D02*
X-14400000Y039600000D01*
D11*
X-14400000Y039600000D02*
X-13825000Y039025000D01*
D12*
X-13825000Y039025000D02*
X-13825000Y039000000D01*
D13*
X059087500Y022000000D02*
X059087500Y021351681D01*
D13*
X059087500Y021351681D02*
X059512892Y020926289D01*
D14*
X059512892Y020926289D02*
X059512892Y020894108D01*
D15*
X059512892Y020894108D02*
X059620000Y020787000D01*
D15*
X059620000Y020787000D02*
X059620000Y020787000D01*
D16*
X059800000Y015200000D02*
X059800000Y015200000D01*
D16*
X059800000Y015200000D02*
X060000000Y015000000D01*
D17*
X060000000Y015000000D02*
X060000000Y014750000D01*
D18*
X060000000Y014750000D02*
X060000000Y014000000D01*
D18*
X060000000Y014000000D02*
X060000000Y013250000D01*
D18*
X060000000Y013250000D02*
X060000000Y013000000D01*
D17*
X060000000Y013000000D02*
X060000000Y012750000D01*
D16*
X060000000Y012750000D02*
X059869643Y011785714D01*
D11*
X059869643Y011785714D02*
X059869643Y009283929D01*
D11*
X059869643Y009283929D02*
X059478571Y008892857D01*
D11*
X059478571Y008892857D02*
X059348214Y007928571D01*
D11*
X059348214Y007928571D02*
X059217857Y006964286D01*
D11*
X059217857Y006964286D02*
X059087500Y006000000D01*
D11*
X025704000Y032086000D02*
X025704000Y032086000D01*
D11*
X025704000Y032086000D02*
X025645000Y032145000D01*
D11*
X025645000Y032145000D02*
X024239000Y032145000D01*
D11*
X024239000Y032145000D02*
X024239000Y032145000D01*
D19*
X023773005Y026738005D02*
X023773005Y026738005D01*
D19*
X023773005Y026738005D02*
X023092088Y026219171D01*
D19*
X023092088Y026219171D02*
X022573253Y025700337D01*
D11*
X022573253Y025700337D02*
X022411170Y025700337D01*
D11*
X022411170Y025700337D02*
X020570845Y023860012D01*
D11*
X020570845Y023860012D02*
X019240577Y023860012D01*
D11*
X019240577Y023860012D02*
X018793654Y024095023D01*
D11*
X018793654Y024095023D02*
X018000000Y024130000D01*
D11*
X-41620000Y040350000D02*
X-19262000Y040350000D01*
D11*
X-19262000Y040350000D02*
X-19262000Y040349500D01*
D11*
X-19262000Y040349500D02*
X-17912500Y039000000D01*
D11*
X059087500Y022000000D02*
X045028000Y036060000D01*
D11*
X045028000Y036060000D02*
X038000000Y036060000D01*
D12*
X-13825000Y039000000D02*
X-13750000Y039000000D01*
D20*
X-13750000Y039000000D02*
X-13250000Y038500000D01*
D20*
X-13250000Y038500000D02*
X-13250000Y038000000D01*
D20*
X-13250000Y038000000D02*
X-13250000Y037750000D01*
D11*
X-13250000Y037750000D02*
X-07065000Y031565000D01*
D11*
X-07065000Y031565000D02*
X-06390000Y031565000D01*
D11*
X-06390000Y031565000D02*
X-05714091Y030889091D01*
D11*
X-05714091Y030889091D02*
X-05038182Y030213182D01*
D11*
X-05038182Y030213182D02*
X-04362273Y029537273D01*
D11*
X-04362273Y029537273D02*
X-03686364Y028861364D01*
D11*
X-03686364Y028861364D02*
X-03010455Y028185455D01*
D11*
X-03010455Y028185455D02*
X-02334545Y027509545D01*
D11*
X-02334545Y027509545D02*
X-01658636Y026833636D01*
D11*
X-01658636Y026833636D02*
X-00982727Y026157727D01*
D11*
X-00982727Y026157727D02*
X-00306818Y025481818D01*
D11*
X-00306818Y025481818D02*
X000369091Y024805909D01*
D11*
X000369091Y024805909D02*
X001045000Y024130000D01*
D11*
X001045000Y024130000D02*
X002042353Y024130000D01*
D11*
X002042353Y024130000D02*
X003039706Y024130000D01*
D11*
X003039706Y024130000D02*
X004037059Y024130000D01*
D11*
X004037059Y024130000D02*
X005034412Y024130000D01*
D11*
X005034412Y024130000D02*
X006031765Y024130000D01*
D11*
X006031765Y024130000D02*
X007029118Y024130000D01*
D11*
X007029118Y024130000D02*
X008026471Y024130000D01*
D11*
X008026471Y024130000D02*
X009023824Y024130000D01*
D11*
X009023824Y024130000D02*
X010021176Y024130000D01*
D11*
X010021176Y024130000D02*
X011018529Y024130000D01*
D11*
X011018529Y024130000D02*
X012015882Y024130000D01*
D11*
X012015882Y024130000D02*
X013013235Y024130000D01*
D11*
X013013235Y024130000D02*
X014010588Y024130000D01*
D11*
X014010588Y024130000D02*
X015007941Y024130000D01*
D11*
X015007941Y024130000D02*
X016005294Y024130000D01*
D11*
X016005294Y024130000D02*
X017002647Y024130000D01*
D11*
X017002647Y024130000D02*
X018000000Y024130000D01*
D11*
X-44160000Y037810000D02*
X-41620000Y037810000D01*
D11*
X-30160000Y-38350000D02*
X-30160000Y-35810000D01*
D11*
X040860000Y024130000D02*
X040860000Y026670000D01*
D11*
X-16087500Y039000000D02*
X-15587500Y038500000D01*
D11*
X-15587500Y038500000D02*
X-15418750Y038500000D01*
D11*
X-15418750Y038500000D02*
X-14750000Y038000000D01*
D21*
X-14750000Y038000000D02*
X-14500000Y038000000D01*
D16*
X-14500000Y038000000D02*
X-14250000Y038000000D01*
D22*
X-14250000Y038000000D02*
X-13980000Y038187000D01*
D22*
X-13980000Y038187000D02*
X-13980000Y038187000D01*
D23*
X-12400000Y038125000D02*
X-12400000Y038125000D01*
D23*
X-12400000Y038125000D02*
X-12343505Y038181495D01*
D23*
X-12343505Y038181495D02*
X-12343505Y038319879D01*
D24*
X-12343505Y038319879D02*
X-12175000Y038488385D01*
D13*
X-12175000Y038488385D02*
X-12175000Y039000000D01*
D11*
X038000000Y043980000D02*
X038000000Y047940000D01*
D11*
X008650000Y043270000D02*
X008720000Y043200000D01*
D11*
X008720000Y043200000D02*
X008800000Y043200000D01*
D11*
X008800000Y043200000D02*
X008800000Y044000000D01*
D11*
X008800000Y044000000D02*
X009200000Y044400000D01*
D11*
X009200000Y044400000D02*
X009200000Y044800000D01*
D11*
X009200000Y044800000D02*
X009600000Y045200000D01*
D11*
X009600000Y045200000D02*
X012800000Y045200000D01*
D11*
X012800000Y045200000D02*
X013200000Y044800000D01*
D11*
X013200000Y044800000D02*
X013200000Y044000000D01*
D11*
X013200000Y044000000D02*
X013730000Y043470000D01*
D11*
X013730000Y043470000D02*
X013730000Y043270000D01*
D17*
X050862500Y021050000D02*
X050200001Y021050000D01*
D17*
X050200001Y021050000D02*
X050199999Y021050000D01*
D11*
X050199999Y021050000D02*
X046775000Y021050000D01*
D11*
X046775000Y021050000D02*
X046225001Y021599999D01*
D11*
X046225001Y021599999D02*
X046224999Y021600001D01*
D12*
X046224999Y021600001D02*
X045825000Y022000000D01*
D17*
X050862500Y005050000D02*
X050200001Y005050000D01*
D17*
X050200001Y005050000D02*
X050199999Y005050000D01*
D11*
X050199999Y005050000D02*
X046775000Y005050000D01*
D11*
X046775000Y005050000D02*
X046225001Y005599999D01*
D11*
X046225001Y005599999D02*
X046224999Y005600001D01*
D12*
X046224999Y005600001D02*
X045825000Y006000000D01*
D12*
X045825000Y022000000D02*
X045825000Y022175000D01*
D12*
X045825000Y022175000D02*
X045200000Y022800000D01*
D11*
X045200000Y022800000D02*
X045200000Y022800000D01*
D11*
X067730000Y030000000D02*
X068500000Y033000000D01*
D11*
X068500000Y033000000D02*
X067000000Y034500000D01*
D11*
X067000000Y034500000D02*
X067000000Y036000000D01*
D17*
X053862500Y-12950000D02*
X053562501Y-13249999D01*
D17*
X053562501Y-13249999D02*
X053562499Y-13250001D01*
D11*
X053562499Y-13250001D02*
X051812500Y-15000000D01*
D11*
X051812500Y-15000000D02*
X048225001Y-15000000D01*
D11*
X048225001Y-15000000D02*
X048224999Y-15000000D01*
D12*
X048224999Y-15000000D02*
X047825000Y-15000000D01*
D12*
X058825000Y032000000D02*
X059224999Y032000000D01*
D12*
X059224999Y032000000D02*
X059225001Y032000000D01*
D11*
X059225001Y032000000D02*
X064000000Y032000000D01*
D11*
X064000000Y032000000D02*
X067000000Y035000000D01*
D11*
X067000000Y035000000D02*
X067000000Y036000000D01*
D12*
X047825000Y-15000000D02*
X048000000Y-14825000D01*
D12*
X048000000Y-14825000D02*
X048000000Y-14800000D01*
D12*
X048000000Y-14800000D02*
X047600000Y-15200000D01*
D12*
X047600000Y-15200000D02*
X047600000Y-15474999D01*
D12*
X047600000Y-15474999D02*
X047600000Y-15475001D01*
D11*
X047600000Y-15475001D02*
X047600000Y-16000000D01*
D11*
X047600000Y-16000000D02*
X047200000Y-16400000D01*
D11*
X047200000Y-16400000D02*
X046000000Y-16400000D01*
D11*
X046000000Y-16400000D02*
X045600000Y-16800000D01*
D11*
X045600000Y-16800000D02*
X045600000Y-18800000D01*
D11*
X045600000Y-18800000D02*
X045622000Y-18822000D01*
D11*
X045622000Y-18822000D02*
X045622000Y-19051000D01*
D11*
X045622000Y-19051000D02*
X045622000Y-19051000D01*
D11*
X013730000Y043270000D02*
X013730000Y045000000D01*
D11*
X013730000Y045000000D02*
X015250000Y045000000D01*
D11*
X015250000Y045000000D02*
X023328062Y045000000D01*
D11*
X023328062Y045000000D02*
X023328062Y043831938D01*
D11*
X023328062Y043831938D02*
X023890000Y043270000D01*
D17*
X050862500Y021050000D02*
X050800000Y020987500D01*
D11*
X050800000Y020987500D02*
X050800000Y020000000D01*
D11*
X050800000Y020000000D02*
X050800000Y020000000D01*
D11*
X053907000Y029099000D02*
X053907000Y029099000D01*
D11*
X053907000Y029099000D02*
X055308000Y030500000D01*
D11*
X055308000Y030500000D02*
X057500000Y030500000D01*
D11*
X057500000Y030500000D02*
X058424999Y031547169D01*
D11*
X058424999Y031547169D02*
X058425001Y031547171D01*
D12*
X058425001Y031547171D02*
X058825000Y032000000D01*
D11*
X023890000Y043270000D02*
X037290000Y043270000D01*
D11*
X037290000Y043270000D02*
X038000000Y043980000D01*
D17*
X053862500Y-12950000D02*
X054162556Y-13249999D01*
D17*
X054162556Y-13249999D02*
X054162557Y-13250001D01*
D11*
X054162557Y-13250001D02*
X054525125Y-13612500D01*
D11*
X054525125Y-13612500D02*
X055187750Y-14275000D01*
D11*
X055187750Y-14275000D02*
X055850375Y-14937500D01*
D11*
X055850375Y-14937500D02*
X056513000Y-15600000D01*
D11*
X056513000Y-15600000D02*
X057056500Y-15600000D01*
D11*
X057056500Y-15600000D02*
X057600000Y-15600000D01*
D11*
X057600000Y-15600000D02*
X057600000Y-15600000D01*
D17*
X050862500Y021050000D02*
X050562501Y020750001D01*
D17*
X050562501Y020750001D02*
X050562499Y020749999D01*
D11*
X050562499Y020749999D02*
X047690625Y017878125D01*
D11*
X047690625Y017878125D02*
X047690625Y015299916D01*
D11*
X047690625Y015299916D02*
X047812500Y015000000D01*
D16*
X047812500Y015000000D02*
X047437500Y014625000D01*
D16*
X047437500Y014625000D02*
X047062500Y014250000D01*
D16*
X047062500Y014250000D02*
X046753125Y013349108D01*
D11*
X046753125Y013349108D02*
X046443750Y012448216D01*
D11*
X046443750Y012448216D02*
X045825000Y011829466D01*
D11*
X045825000Y011829466D02*
X045825000Y006475001D01*
D11*
X045825000Y006475001D02*
X045825000Y006474999D01*
D12*
X045825000Y006474999D02*
X045825000Y006000000D01*
D17*
X050862500Y005050000D02*
X051162499Y004750001D01*
D17*
X051162499Y004750001D02*
X051162501Y004749999D01*
D11*
X051162501Y004749999D02*
X051509863Y004402637D01*
D11*
X051509863Y004402637D02*
X052157226Y003755274D01*
D11*
X052157226Y003755274D02*
X052804589Y003107911D01*
D11*
X052804589Y003107911D02*
X053451951Y002460549D01*
D11*
X053451951Y002460549D02*
X054099314Y001813186D01*
D11*
X054099314Y001813186D02*
X054746677Y001165823D01*
D11*
X054746677Y001165823D02*
X054746677Y000220670D01*
D11*
X054746677Y000220670D02*
X054746677Y-00724484D01*
D11*
X054746677Y-00724484D02*
X054746677Y-01669637D01*
D11*
X054746677Y-01669637D02*
X054746677Y-02614790D01*
D11*
X054746677Y-02614790D02*
X054746677Y-03559943D01*
D11*
X054746677Y-03559943D02*
X054746677Y-04505097D01*
D11*
X054746677Y-04505097D02*
X054746677Y-05450250D01*
D11*
X054746677Y-05450250D02*
X054746677Y-06395403D01*
D11*
X054746677Y-06395403D02*
X054746677Y-07340557D01*
D11*
X054746677Y-07340557D02*
X054746677Y-08285710D01*
D11*
X054746677Y-08285710D02*
X054746677Y-09230863D01*
D11*
X054746677Y-09230863D02*
X054746677Y-10176016D01*
D25*
X054746677Y-10176016D02*
X055000000Y-10625000D01*
D25*
X055000000Y-10625000D02*
X055000000Y-11625000D01*
D25*
X055000000Y-11625000D02*
X054746677Y-12066323D01*
D25*
X054746677Y-12066323D02*
X054304589Y-12508161D01*
D11*
X054304589Y-12508161D02*
X054304339Y-12508161D01*
D11*
X054304339Y-12508161D02*
X054162501Y-12649999D01*
D11*
X054162501Y-12649999D02*
X054162499Y-12650001D01*
D17*
X054162499Y-12650001D02*
X053862500Y-12950000D01*
D11*
X-30160000Y-38350000D02*
X-09840000Y-38350000D01*
D11*
X008650000Y043270000D02*
X008600000Y043320000D01*
D11*
X008600000Y043320000D02*
X008600000Y043400000D01*
D11*
X008600000Y043400000D02*
X008200000Y043800000D01*
D11*
X008200000Y043800000D02*
X008200000Y044200000D01*
D11*
X008200000Y044200000D02*
X007400000Y045000000D01*
D11*
X007400000Y045000000D02*
X004600000Y045000000D01*
D11*
X004600000Y045000000D02*
X004200000Y044600000D01*
D11*
X004200000Y044600000D02*
X000200000Y044600000D01*
D11*
X000200000Y044600000D02*
X000067808Y044467808D01*
D11*
X000067808Y044467808D02*
X-00125300Y044467808D01*
D11*
X-00125300Y044467808D02*
X-01065570Y044467808D01*
D11*
X-01065570Y044467808D02*
X-02005841Y044467808D01*
D11*
X-02005841Y044467808D02*
X-02946111Y044467808D01*
D11*
X-02946111Y044467808D02*
X-03886381Y044467808D01*
D11*
X-03886381Y044467808D02*
X-04826652Y044467808D01*
D11*
X-04826652Y044467808D02*
X-05766922Y044467808D01*
D11*
X-05766922Y044467808D02*
X-06707192Y044467808D01*
D11*
X-06707192Y044467808D02*
X-07390668Y043784332D01*
D11*
X-07390668Y043784332D02*
X-08074144Y043100856D01*
D11*
X-08074144Y043100856D02*
X-08757620Y042417380D01*
D11*
X-08757620Y042417380D02*
X-09441096Y041733904D01*
D11*
X-09441096Y041733904D02*
X-10124572Y041050428D01*
D11*
X-10124572Y041050428D02*
X-10808048Y040366952D01*
D11*
X-10808048Y040366952D02*
X-11491524Y039683476D01*
D11*
X-11491524Y039683476D02*
X-11774999Y039400001D01*
D11*
X-11774999Y039400001D02*
X-11775001Y039399999D01*
D12*
X-11775001Y039399999D02*
X-12175000Y039000000D01*
D11*
X-41620000Y037810000D02*
X-40646280Y037810000D01*
D11*
X-40646280Y037810000D02*
X-39672560Y037810000D01*
D11*
X-39672560Y037810000D02*
X-38698840Y037810000D01*
D11*
X-38698840Y037810000D02*
X-37725120Y037810000D01*
D11*
X-37725120Y037810000D02*
X-36751400Y037810000D01*
D11*
X-36751400Y037810000D02*
X-35777680Y037810000D01*
D11*
X-35777680Y037810000D02*
X-34803960Y037810000D01*
D11*
X-34803960Y037810000D02*
X-33830240Y037810000D01*
D11*
X-33830240Y037810000D02*
X-32856520Y037810000D01*
D11*
X-32856520Y037810000D02*
X-31882800Y037810000D01*
D11*
X-31882800Y037810000D02*
X-30909080Y037810000D01*
D11*
X-30909080Y037810000D02*
X-29935360Y037810000D01*
D11*
X-29935360Y037810000D02*
X-28961640Y037810000D01*
D11*
X-28961640Y037810000D02*
X-27987920Y037810000D01*
D11*
X-27987920Y037810000D02*
X-27014200Y037810000D01*
D11*
X-27014200Y037810000D02*
X-26040480Y037810000D01*
D11*
X-26040480Y037810000D02*
X-25066760Y037810000D01*
D11*
X-25066760Y037810000D02*
X-24756760Y037500000D01*
D11*
X-24756760Y037500000D02*
X-17000000Y037500000D01*
D11*
X-17000000Y037500000D02*
X-16087500Y037500000D01*
D11*
X-16087500Y037500000D02*
X-16087500Y039000000D01*
D11*
X037363000Y-30032000D02*
X037363000Y-30032000D01*
D11*
X037363000Y-30032000D02*
X037350048Y-30044952D01*
D11*
X037350048Y-30044952D02*
X037219821Y-30044952D01*
D11*
X037219821Y-30044952D02*
X036527734Y-30737039D01*
D11*
X036527734Y-30737039D02*
X035835646Y-31429127D01*
D11*
X035835646Y-31429127D02*
X035143559Y-32121214D01*
D11*
X035143559Y-32121214D02*
X034451471Y-32813301D01*
D11*
X034451471Y-32813301D02*
X033759384Y-33505389D01*
D11*
X033759384Y-33505389D02*
X033067297Y-34197476D01*
D11*
X033067297Y-34197476D02*
X032375209Y-34889563D01*
D11*
X032375209Y-34889563D02*
X031683122Y-35581651D01*
D11*
X031683122Y-35581651D02*
X030991035Y-36273738D01*
D11*
X030991035Y-36273738D02*
X030298947Y-36965825D01*
D11*
X030298947Y-36965825D02*
X029606860Y-37657913D01*
D11*
X029606860Y-37657913D02*
X028914773Y-38350000D01*
D11*
X028914773Y-38350000D02*
X027921061Y-38350000D01*
D11*
X027921061Y-38350000D02*
X026927348Y-38350000D01*
D11*
X026927348Y-38350000D02*
X025933636Y-38350000D01*
D11*
X025933636Y-38350000D02*
X024939924Y-38350000D01*
D11*
X024939924Y-38350000D02*
X023946212Y-38350000D01*
D11*
X023946212Y-38350000D02*
X022952500Y-38350000D01*
D11*
X022952500Y-38350000D02*
X021958788Y-38350000D01*
D11*
X021958788Y-38350000D02*
X020965076Y-38350000D01*
D11*
X020965076Y-38350000D02*
X019971364Y-38350000D01*
D11*
X019971364Y-38350000D02*
X018977651Y-38350000D01*
D11*
X018977651Y-38350000D02*
X017983939Y-38350000D01*
D11*
X017983939Y-38350000D02*
X016990227Y-38350000D01*
D11*
X016990227Y-38350000D02*
X015996515Y-38350000D01*
D11*
X015996515Y-38350000D02*
X015002803Y-38350000D01*
D11*
X015002803Y-38350000D02*
X014009091Y-38350000D01*
D11*
X014009091Y-38350000D02*
X013015379Y-38350000D01*
D11*
X013015379Y-38350000D02*
X012021667Y-38350000D01*
D11*
X012021667Y-38350000D02*
X011027955Y-38350000D01*
D11*
X011027955Y-38350000D02*
X010034242Y-38350000D01*
D11*
X010034242Y-38350000D02*
X009040530Y-38350000D01*
D11*
X009040530Y-38350000D02*
X008046818Y-38350000D01*
D11*
X008046818Y-38350000D02*
X007053106Y-38350000D01*
D11*
X007053106Y-38350000D02*
X006059394Y-38350000D01*
D11*
X006059394Y-38350000D02*
X005065682Y-38350000D01*
D11*
X005065682Y-38350000D02*
X004071970Y-38350000D01*
D11*
X004071970Y-38350000D02*
X003078258Y-38350000D01*
D11*
X003078258Y-38350000D02*
X002084545Y-38350000D01*
D11*
X002084545Y-38350000D02*
X001090833Y-38350000D01*
D11*
X001090833Y-38350000D02*
X000097121Y-38350000D01*
D11*
X000097121Y-38350000D02*
X-00896591Y-38350000D01*
D11*
X-00896591Y-38350000D02*
X-01890303Y-38350000D01*
D11*
X-01890303Y-38350000D02*
X-02884015Y-38350000D01*
D11*
X-02884015Y-38350000D02*
X-03877727Y-38350000D01*
D11*
X-03877727Y-38350000D02*
X-04871439Y-38350000D01*
D11*
X-04871439Y-38350000D02*
X-05865152Y-38350000D01*
D11*
X-05865152Y-38350000D02*
X-06858864Y-38350000D01*
D11*
X-06858864Y-38350000D02*
X-07852576Y-38350000D01*
D11*
X-07852576Y-38350000D02*
X-08846288Y-38350000D01*
D11*
X-08846288Y-38350000D02*
X-09840000Y-38350000D01*
D10*
X040860000Y021590000D02*
X042219084Y020230916D01*
D10*
X042219084Y020230916D02*
X042219084Y019403051D01*
D10*
X042219084Y019403051D02*
X046574790Y015047344D01*
D10*
X046574790Y015047344D02*
X046913825Y015047344D01*
D10*
X046913825Y015047344D02*
X046941656Y015047344D01*
D10*
X046941656Y015047344D02*
X046946000Y015043000D01*
D10*
X046946000Y015043000D02*
X046946000Y015043000D01*
D10*
X047851000Y014016000D02*
X047851000Y014016000D01*
D10*
X047851000Y014016000D02*
X059072000Y014016000D01*
D10*
X059072000Y014016000D02*
X059087500Y014000000D01*
D10*
X057711000Y026991000D02*
X057711000Y026991000D01*
D10*
X057711000Y026991000D02*
X057711000Y028623000D01*
D10*
X057711000Y028623000D02*
X059087500Y030000000D01*
D10*
X077912500Y-30000000D02*
X067278000Y-40635000D01*
D10*
X067278000Y-40635000D02*
X061905000Y-40635000D01*
D10*
X071810000Y-21460000D02*
X076088000Y-25738000D01*
D10*
X076088000Y-25738000D02*
X076087500Y-30000000D01*
D10*
X060635000Y-39365000D02*
X059541767Y-40458233D01*
D10*
X059541767Y-40458233D02*
X059365000Y-40635000D01*
D10*
X073080000Y-30000000D02*
X071810000Y-28730000D01*
D10*
X071810000Y-28730000D02*
X071810000Y-26540000D01*
D10*
X073080000Y-30000000D02*
X063715000Y-39365000D01*
D10*
X063715000Y-39365000D02*
X060635000Y-39365000D01*
D10*
X059912500Y-27000000D02*
X059913000Y-37547000D01*
D10*
X059913000Y-37547000D02*
X058095000Y-39365000D01*
D10*
X059174000Y-28021000D02*
X059174000Y-28021000D01*
D10*
X059174000Y-28021000D02*
X059109000Y-28021000D01*
D10*
X059109000Y-28021000D02*
X058087500Y-27000000D01*
D10*
X068912500Y-18000000D02*
X065453000Y-21460000D01*
D10*
X065453000Y-21460000D02*
X064190000Y-21460000D01*
D10*
X057912500Y-30000000D02*
X047278000Y-40635000D01*
D10*
X047278000Y-40635000D02*
X041905000Y-40635000D01*
D10*
X051810000Y-21460000D02*
X056088000Y-25738000D01*
D10*
X056088000Y-25738000D02*
X056087500Y-30000000D01*
D10*
X040635000Y-39365000D02*
X039541767Y-40458233D01*
D10*
X039541767Y-40458233D02*
X039365000Y-40635000D01*
D10*
X053080000Y-30000000D02*
X051810000Y-28730000D01*
D10*
X051810000Y-28730000D02*
X051810000Y-26540000D01*
D10*
X053080000Y-30000000D02*
X043715000Y-39365000D01*
D10*
X043715000Y-39365000D02*
X040635000Y-39365000D01*
D10*
X035912500Y-27000000D02*
X037000000Y-28087000D01*
D10*
X037000000Y-28087000D02*
X037000000Y-28500000D01*
D10*
X037000000Y-28500000D02*
X037000000Y-28500000D01*
D10*
X042920000Y-30000000D02*
X041879651Y-28959651D01*
D10*
X041879651Y-28959651D02*
X036101204Y-28959651D01*
D10*
X036101204Y-28959651D02*
X036047651Y-28959651D01*
D10*
X036047651Y-28959651D02*
X034087500Y-27000000D01*
D10*
X042920000Y-30000000D02*
X045810000Y-30000000D01*
D10*
X045810000Y-30000000D02*
X051810000Y-24000000D01*
D10*
X048912500Y-18000000D02*
X045453000Y-21460000D01*
D10*
X045453000Y-21460000D02*
X044190000Y-21460000D01*
D10*
X047825000Y-10000000D02*
X046175000Y-11650000D01*
D10*
X046175000Y-11650000D02*
X046175000Y-15000000D01*
D10*
X047825000Y-10000000D02*
X052813000Y-10000000D01*
D10*
X052813000Y-10000000D02*
X053862500Y-11050000D01*
D10*
X070500000Y-06000000D02*
X064500000Y-12000000D01*
D10*
X064500000Y-12000000D02*
X056137500Y-12000000D01*
D10*
X058825000Y036000000D02*
X058825000Y033650000D01*
D10*
X058825000Y033650000D02*
X057175000Y032000000D01*
D10*
X058825000Y036000000D02*
X064460000Y036000000D01*
D10*
X050862500Y006950000D02*
X050525000Y006950000D01*
D10*
X050525000Y006950000D02*
X047051622Y010423378D01*
D10*
X047051622Y010423378D02*
X046980000Y010495000D01*
D10*
X046980000Y010495000D02*
X046980000Y010495000D01*
D10*
X044987000Y008103000D02*
X044987000Y008103000D01*
D10*
X044987000Y008103000D02*
X044987000Y006812000D01*
D10*
X044987000Y006812000D02*
X044175000Y006000000D01*
D10*
X044175000Y006000000D02*
X044175000Y015735000D01*
D10*
X044175000Y015735000D02*
X040860000Y019050000D01*
D10*
X067730000Y006000000D02*
X066848646Y005118646D01*
D10*
X066848646Y005118646D02*
X054022631Y005118646D01*
D10*
X054022631Y005118646D02*
X054019354Y005118646D01*
D10*
X054019354Y005118646D02*
X053137500Y006000000D01*
D10*
X060912500Y006000000D02*
X062149372Y007236372D01*
D10*
X062149372Y007236372D02*
X062150578Y007236372D01*
D10*
X062150578Y007236372D02*
X069033628Y007236372D01*
D10*
X069033628Y007236372D02*
X070270000Y006000000D01*
D10*
X060912500Y014000000D02*
X062150233Y012762767D01*
D10*
X062150233Y012762767D02*
X069032767Y012762767D01*
D10*
X069032767Y012762767D02*
X070270000Y014000000D01*
D10*
X050862500Y022950000D02*
X050656936Y023155564D01*
D10*
X050656936Y023155564D02*
X045000000Y023625000D01*
D10*
X045000000Y023625000D02*
X044325000Y022950000D01*
D10*
X044325000Y022950000D02*
X044175000Y022325192D01*
D10*
X044175000Y022325192D02*
X044175000Y022000000D01*
D10*
X044175000Y022000000D02*
X042600000Y020425000D01*
D10*
X042600000Y020425000D02*
X042600000Y019572000D01*
D10*
X042600000Y019572000D02*
X042600000Y019572000D01*
D10*
X067730000Y022000000D02*
X066154498Y020424498D01*
D10*
X066154498Y020424498D02*
X054735105Y020424498D01*
D10*
X054735105Y020424498D02*
X054713502Y020424498D01*
D10*
X054713502Y020424498D02*
X053137500Y022000000D01*
D10*
X060912500Y022000000D02*
X062150230Y023237230D01*
D10*
X062150230Y023237230D02*
X069032770Y023237230D01*
D10*
X069032770Y023237230D02*
X070270000Y022000000D01*
D10*
X060912500Y030000000D02*
X064800000Y030000000D01*
D10*
X064800000Y030000000D02*
X067600000Y032800000D01*
D10*
X067600000Y032800000D02*
X067600000Y032800000D01*
D11*
X-44160000Y035270000D02*
X-41620000Y035270000D01*
D11*
X-59460000Y025292500D02*
X-49483000Y035270000D01*
D11*
X-49483000Y035270000D02*
X-44160000Y035270000D01*
D11*
X-44160000Y032730000D02*
X-41620000Y032730000D01*
D22*
X038006000Y-03990000D03*
D22*
X036884000Y-05314000D03*
D22*
X016003000Y-10852000D03*
D22*
X013932000Y-12621000D03*
D22*
X-08262000Y-16061000D03*
D22*
X-08552000Y-11515000D03*
D22*
X031910000Y-02201000D03*
D22*
X014422000Y-08076000D03*
D22*
X013201000Y-08002000D03*
D22*
X008727000Y-09632000D03*
D22*
X007699000Y-10220000D03*
D22*
X-15588000Y-20997000D03*
D22*
X029550000Y-06768000D03*
D22*
X032099000Y014383000D03*
D22*
X030856000Y003581000D03*
D22*
X029839000Y003214000D03*
D22*
X013594000Y-03434000D03*
D22*
X012796000Y-03746000D03*
D22*
X003600000Y-04800000D03*
D22*
X001996000Y-04801000D03*
D22*
X014373000Y-06599000D03*
D22*
X011267000Y-07003000D03*
D22*
X006791000Y-08701000D03*
D22*
X033242000Y019826000D03*
D22*
X031604000Y022968000D03*
D22*
X037185000Y-04214000D03*
D22*
X035951000Y005746000D03*
D22*
X036201000Y-00925000D03*
D22*
X021830000Y005784000D03*
D22*
X016811000Y036348000D03*
D22*
X020405000Y007825000D03*
D22*
X020000000Y024740000D03*
D22*
X020000000Y022600000D03*
D22*
X015400000Y030000000D03*
D22*
X015426000Y008001000D03*
D22*
X014769000Y-11376000D03*
D22*
X015521000Y-12396000D03*
D22*
X010470000Y008010000D03*
D22*
X007718000Y007946000D03*
D22*
X005401000Y003829000D03*
D22*
X009412000Y-12642000D03*
D22*
X009782000Y-13661000D03*
D22*
X064822000Y026198000D03*
D22*
X061080000Y026545000D03*
D22*
X044002000Y-00801000D03*
D22*
X057343931Y035275553D03*
D22*
X-32462000Y017202000D03*
D22*
X013192000Y-13207000D03*
D22*
X014117000Y-13803000D03*
D22*
X019625000Y-13309000D03*
D22*
X-61347000Y007758000D03*
D22*
X-62152000Y-09047000D03*
D22*
X059620000Y020787000D03*
D22*
X059800000Y015200000D03*
D22*
X025704000Y032086000D03*
D22*
X024239000Y032145000D03*
D22*
X023773005Y026738005D03*
D22*
X-13980000Y038187000D03*
D22*
X-12400000Y038125000D03*
D22*
X045200000Y022800000D03*
D22*
X045622000Y-19051000D03*
D22*
X050800000Y020000000D03*
D22*
X053907000Y029099000D03*
D22*
X057600000Y-15600000D03*
D22*
X037363000Y-30032000D03*
D22*
X046946000Y015043000D03*
D22*
X047851000Y014016000D03*
D22*
X057711000Y026991000D03*
D22*
X059174000Y-28021000D03*
D22*
X037000000Y-28500000D03*
D22*
X046980000Y010495000D03*
D22*
X044987000Y008103000D03*
D22*
X042600000Y019572000D03*
D22*
X067600000Y032800000D03*
M02*