%TF.GenerationSoftware,tscircuit,circuit-json-to-gerber,0.0.93*%
%TF.CreationDate,2026-08-26T23:23:42.006Z*%
%TF.SameCoordinates,Original*%
%TF.FileFunction,Copper,L1,Top*%
%TF.FilePolarity,Positive*%
%FSLAX46Y46*%
%MOMM*%
G04 Gerber Fmt 4.6, Leading zero omitted, Abs format (unit mm)*
G04 Created by tscircuit (builder) date 2026-08-26T23:23:42.006Z*
G01*
%LPD*%
G75*
G04 APERTURE MACROS START*
%AMHORZPILL*
0 Horizontal pill (stadium) shape macro*
0 Parameters:*
0 $1 = Total width*
0 $2 = Total height*
0 $3 = Circle diameter (equal to height)*
0 $4 = Circle center offset
0 21 = Center Line(Exposure, Width, Height, Center X, Center Y, Rotation)*
0 1 = Circle(Exposure, Diameter, Center X, Center Y, Rotation)*
21,1,$1-$3,$2,0.0,0.0,0.0*
1,1,$3,0.0-$4,0.0*
1,1,$3,$4,0.0*%
%AMVERTPILL*
0 Vertical pill (stadium) shape macro*
0 Parameters:*
0 $1 = Total width*
0 $2 = Total height*
0 $3 = Circle diameter (equal to width)*
0 $4 = Circle center offset
0 21 = Center Line(Exposure, Width, Height, Center X, Center Y, Rotation)*
21,1,$1,$2-$3,0.0,0.0,0.0*
1,1,$3,0.0,0.0-$4*
1,1,$3,0.0,$4*%
%AMROUNDRECT*
0 Rectangle with rounded corners*
0 $1 Corner radius*
0 $2 $3 $4 $5 $6 $7 $8 $9 X,Y Position of each corner*
0 Polygon box body*
4,1,4,$2,$3,$4,$5,$6,$7,$8,$9,$2,$3,0*
0 Circles for rounded corners*
1,1,$1+$1,$2,$3*
1,1,$1+$1,$4,$5*
1,1,$1+$1,$6,$7*
1,1,$1+$1,$8,$9*
0 Rectangles between the rounded corners*
20,1,$1+$1,$2,$3,$4,$5,0*
20,1,$1+$1,$4,$5,$6,$7,0*
20,1,$1+$1,$6,$7,$8,$9,0*
20,1,$1+$1,$8,$9,$2,$3,0*%
G04 APERTURE MACROS END*
G04 aperture START LIST*
%ADD10C,0.150000*%
%ADD11C,1.000000*%
%ADD12C,0.800000*%
%ADD13C,0.775000*%
%ADD14C,0.600000*%
%ADD15C,0.950000*%
%ADD16C,0.900000*%
%ADD17C,0.450000*%
%ADD18C,0.300000*%
%ADD19C,0.750000*%
%ADD20R,1.500000X1.500000*%
%ADD21C,1.500000*%
%ADD22C,0.063000*%
%ADD23C,0.200000*%
%ADD24C,0.108000*%
%ADD25R,3.000000X3.000000*%
%ADD26C,0.081000*%
%ADD27R,1.800000X1.800000*%
%ADD28C,0.090000*%
%ADD29C,0.100000*%
%ADD30R,1.700000X1.700000*%
%ADD31R,0.800000X0.950000*%
%ADD32R,0.560000X0.665000*%
%ADD33C,0.120000*%
%ADD34C,0.036000*%
%ADD35R,1.025000X1.400000*%
%ADD36R,0.717500X0.980000*%
%ADD37R,2.000000X2.000000*%
%ADD38R,2.200000X2.200000*%
%ADD39C,0.150000*%
%ADD40R,1.325000X0.600000*%
%ADD41R,0.927500X0.420000*%
%ADD42C,0.045000*%
%ADD43C,0.300000*%
%TD*%
G04 aperture END LIST*
D20*
X018000000Y-26670000D03*
D21*
X018000000Y-24130000D03*
D21*
X018000000Y-21590000D03*
D21*
X018000000Y-19050000D03*
D21*
X018000000Y-16510000D03*
D21*
X018000000Y-13970000D03*
D21*
X018000000Y-11430000D03*
D21*
X018000000Y-08890000D03*
D21*
X018000000Y-06350000D03*
D21*
X018000000Y-03810000D03*
D21*
X018000000Y-01270000D03*
D21*
X018000000Y001270000D03*
D21*
X018000000Y003810000D03*
D21*
X018000000Y006350000D03*
D21*
X018000000Y008890000D03*
D21*
X018000000Y011430000D03*
D21*
X018000000Y013970000D03*
D21*
X018000000Y016510000D03*
D21*
X018000000Y019050000D03*
D21*
X018000000Y021590000D03*
D21*
X018000000Y024130000D03*
D21*
X018000000Y026670000D03*
D20*
X040860000Y-26670000D03*
D21*
X040860000Y-24130000D03*
D21*
X040860000Y-21590000D03*
D21*
X040860000Y-19050000D03*
D21*
X040860000Y-16510000D03*
D21*
X040860000Y-13970000D03*
D21*
X040860000Y-11430000D03*
D21*
X040860000Y-08890000D03*
D21*
X040860000Y-06350000D03*
D21*
X040860000Y-03810000D03*
D21*
X040860000Y-01270000D03*
D21*
X040860000Y001270000D03*
D21*
X040860000Y003810000D03*
D21*
X040860000Y006350000D03*
D21*
X040860000Y008890000D03*
D21*
X040860000Y011430000D03*
D21*
X040860000Y013970000D03*
D21*
X040860000Y016510000D03*
D21*
X040860000Y019050000D03*
D21*
X040860000Y021590000D03*
D21*
X040860000Y024130000D03*
D21*
X040860000Y026670000D03*
D20*
X-70540000Y-15000000D03*
D21*
X-68000000Y-15000000D03*
D21*
X-65460000Y-15000000D03*
D20*
X-70540000Y000000000D03*
D21*
X-68000000Y000000000D03*
D21*
X-65460000Y000000000D03*
D20*
X-76500000Y015000000D03*
D25*
X-64540000Y017500000D03*
D25*
X-59460000Y017500000D03*
D27*
X-44160000Y040350000D03*
D27*
X-41620000Y040350000D03*
D27*
X-44160000Y037810000D03*
D27*
X-41620000Y037810000D03*
D27*
X-44160000Y035270000D03*
D27*
X-41620000Y035270000D03*
D27*
X-44160000Y032730000D03*
D27*
X-41620000Y032730000D03*
D27*
X-44160000Y030190000D03*
D27*
X-41620000Y030190000D03*
D27*
X-44160000Y027650000D03*
D27*
X-41620000Y027650000D03*
D30*
X-30160000Y-38350000D03*
D30*
X-30160000Y-35810000D03*
D30*
X-30160000Y-33270000D03*
D30*
X-30160000Y-30730000D03*
D30*
X-30160000Y-28190000D03*
D30*
X-30160000Y-25650000D03*
D30*
X-09840000Y-38350000D03*
D30*
X-09840000Y-35810000D03*
D30*
X-09840000Y-33270000D03*
D30*
X-09840000Y-30730000D03*
D30*
X-09840000Y-28190000D03*
D30*
X-09840000Y-25650000D03*
D31*
X-05825000Y-12000000D03*
D31*
X-04175000Y-12000000D03*
D35*
X-48912500Y-18000000D03*
D35*
X-47087500Y-18000000D03*
D35*
X-48912500Y-12000000D03*
D35*
X-47087500Y-12000000D03*
D35*
X-38912500Y-12000000D03*
D35*
X-37087500Y-12000000D03*
D35*
X-48912500Y-06000000D03*
D35*
X-47087500Y-06000000D03*
D35*
X-38912500Y-06000000D03*
D35*
X-37087500Y-06000000D03*
D35*
X-48912500Y000000000D03*
D35*
X-47087500Y000000000D03*
D35*
X-48912500Y006000000D03*
D35*
X-47087500Y006000000D03*
D35*
X-38912500Y006000000D03*
D35*
X-37087500Y006000000D03*
D35*
X-48912500Y012000000D03*
D35*
X-47087500Y012000000D03*
D35*
X-38912500Y012000000D03*
D35*
X-37087500Y012000000D03*
D35*
X-48912500Y018000000D03*
D35*
X-47087500Y018000000D03*
D35*
X-38912500Y018000000D03*
D35*
X-37087500Y018000000D03*
D35*
X057087500Y027000000D03*
D35*
X058912500Y027000000D03*
D37*
X065730000Y027000000D03*
D37*
X068270000Y027000000D03*
D35*
X057087500Y020000000D03*
D35*
X058912500Y020000000D03*
D37*
X065730000Y020000000D03*
D37*
X068270000Y020000000D03*
D38*
X069540000Y036000000D03*
D38*
X067000000Y036000000D03*
D38*
X064460000Y036000000D03*
D31*
X057175000Y036000000D03*
D31*
X058825000Y036000000D03*
D31*
X057175000Y032000000D03*
D31*
X058825000Y032000000D03*
D31*
X051175000Y036000000D03*
D31*
X052825000Y036000000D03*
D20*
X064460000Y008000000D03*
D21*
X067000000Y008000000D03*
D21*
X069540000Y008000000D03*
D35*
X055087500Y008000000D03*
D35*
X056912500Y008000000D03*
D37*
X064500000Y-12000000D03*
D37*
X069500000Y-12000000D03*
D40*
X053862500Y-11050000D03*
D40*
X053862500Y-12950000D03*
D40*
X056137500Y-12000000D03*
D31*
X046175000Y-10000000D03*
D31*
X047825000Y-10000000D03*
D31*
X046175000Y-15000000D03*
D31*
X047825000Y-15000000D03*
D35*
X-17912500Y039000000D03*
D35*
X-16087500Y039000000D03*
D31*
X-13825000Y039000000D03*
D31*
X-12175000Y039000000D03*
D10*
X-00312000Y-13180000D02*
X-00312000Y-13180000D01*
D10*
X-00312000Y-13180000D02*
X-00482945Y-13350945D01*
D10*
X-00482945Y-13350945D02*
X-00483030Y-13350945D01*
D10*
X-00483030Y-13350945D02*
X-02394085Y-15262000D01*
D10*
X-02394085Y-15262000D02*
X-06940000Y-15262000D01*
D10*
X-06940000Y-15262000D02*
X-06940000Y-15262000D01*
D10*
X018000000Y-06350000D02*
X000108913Y-06350000D01*
D10*
X000108913Y-06350000D02*
X-02796458Y-09255370D01*
D10*
X-02796458Y-09255370D02*
X-03080370Y-09255370D01*
D10*
X-03080370Y-09255370D02*
X-05825000Y-12000000D01*
D10*
X-26010000Y-25930000D02*
X-26010000Y-25930000D01*
D10*
X-26010000Y-25930000D02*
X-21021749Y-25930000D01*
D10*
X-21021749Y-25930000D02*
X-12727703Y-17635954D01*
D10*
X-12727703Y-17635954D02*
X-12727703Y-17609703D01*
D10*
X-12727703Y-17609703D02*
X-12698000Y-17580000D01*
D10*
X-12698000Y-17580000D02*
X-12698000Y-17580000D01*
D10*
X-12430000Y-15354000D02*
X-12430000Y-15354000D01*
D10*
X-12430000Y-15354000D02*
X-09179000Y-15354000D01*
D10*
X-09179000Y-15354000D02*
X-05825000Y-12000000D01*
D10*
X005171000Y006630000D02*
X005171000Y006630000D01*
D10*
X005171000Y006630000D02*
X005095814Y006554814D01*
D10*
X005095814Y006554814D02*
X005058582Y006554814D01*
D10*
X005058582Y006554814D02*
X004103768Y005600000D01*
D10*
X004103768Y005600000D02*
X-02791726Y005600000D01*
D10*
X-02791726Y005600000D02*
X-09779140Y-01387415D01*
D10*
X-09779140Y-01387415D02*
X-09779140Y-10399229D01*
D10*
X-09779140Y-10399229D02*
X-15448912Y-16069000D01*
D10*
X-15448912Y-16069000D02*
X-15676000Y-16069000D01*
D10*
X-15676000Y-16069000D02*
X-15676000Y-16069000D01*
D10*
X-15981000Y-17983000D02*
X-15981000Y-17983000D01*
D10*
X-15981000Y-17983000D02*
X-16040437Y-18042437D01*
D10*
X-16040437Y-18042437D02*
X-19117000Y-21119000D01*
D10*
X-19117000Y-21119000D02*
X-19117000Y-23516000D01*
D10*
X-19117000Y-23516000D02*
X-19117000Y-23516000D01*
D10*
X018000000Y019050000D02*
X016299000Y017349000D01*
D10*
X016299000Y017349000D02*
X014002000Y017349000D01*
D10*
X014002000Y017349000D02*
X014002000Y017349000D01*
D10*
X-07166000Y-02972000D02*
X-07166000Y-02972000D01*
D10*
X-07166000Y-02972000D02*
X-07210602Y-03016602D01*
D10*
X-07210602Y-03016602D02*
X-07210602Y-03036296D01*
D10*
X-07210602Y-03036296D02*
X-07674000Y-03499694D01*
D10*
X-07674000Y-03499694D02*
X-07674000Y-03840000D01*
D10*
X-07674000Y-03840000D02*
X-07674000Y-03840000D01*
D10*
X-15801000Y-12205000D02*
X-15801000Y-12205000D01*
D10*
X-15801000Y-12205000D02*
X-15816323Y-12220323D01*
D10*
X-15816323Y-12220323D02*
X-19532000Y-15936000D01*
D10*
X-19532000Y-15936000D02*
X-20022000Y-15936000D01*
D10*
X-20022000Y-15936000D02*
X-20022000Y-15936000D01*
D10*
X-20732000Y-17783000D02*
X-20732000Y-17783000D01*
D10*
X-20732000Y-17783000D02*
X-20805118Y-17856118D01*
D10*
X-20805118Y-17856118D02*
X-26384053Y-23435053D01*
D10*
X-26384053Y-23435053D02*
X-26384053Y-23544344D01*
D10*
X-26384053Y-23544344D02*
X-26384053Y-26954053D01*
D10*
X-26384053Y-26954053D02*
X-30160000Y-30730000D01*
D10*
X046175000Y-10000000D02*
X045010000Y-08835000D01*
D10*
X045010000Y-08835000D02*
X044916000Y-08835000D01*
D10*
X044916000Y-08835000D02*
X044916000Y-08835000D01*
D10*
X055087500Y008000000D02*
X054137000Y008951000D01*
D10*
X054137000Y008951000D02*
X052382000Y008951000D01*
D10*
X052382000Y008951000D02*
X052382000Y008951000D01*
D10*
X052134000Y014305000D02*
X052134000Y014305000D01*
D10*
X052134000Y014305000D02*
X052001461Y014437539D01*
D10*
X052001461Y014437539D02*
X049929000Y016510000D01*
D10*
X049929000Y016510000D02*
X040860000Y016510000D01*
D10*
X-09840000Y-35810000D02*
X-09840000Y-33270000D01*
D10*
X018000000Y-26670000D02*
X018000000Y-24130000D01*
D10*
X057175000Y036000000D02*
X052825000Y036000000D01*
D10*
X-04175000Y-12000000D02*
X-07341844Y-15166844D01*
D10*
X-07341844Y-15166844D02*
X-07341844Y-15385179D01*
D10*
X-07341844Y-15385179D02*
X-06137216Y-16589806D01*
D10*
X-06137216Y-16589806D02*
X-04341300Y-16589806D01*
D10*
X-04341300Y-16589806D02*
X-04295194Y-16589806D01*
D10*
X-04295194Y-16589806D02*
X-04202000Y-16683000D01*
D10*
X-04202000Y-16683000D02*
X-04202000Y-16683000D01*
D10*
X-04019000Y-17803000D02*
X-04019000Y-17803000D01*
D10*
X-04019000Y-17803000D02*
X-04019000Y-27449000D01*
D10*
X-04019000Y-27449000D02*
X-09840000Y-33270000D01*
D10*
X018000000Y-24130000D02*
X015020000Y-21150000D01*
D10*
X015020000Y-21150000D02*
X002608000Y-21150000D01*
D10*
X002608000Y-21150000D02*
X002608000Y-21150000D01*
D10*
X002460000Y-16374000D02*
X002460000Y-16374000D01*
D10*
X002460000Y-16374000D02*
X002436617Y-16350617D01*
D10*
X002436617Y-16350617D02*
X002436617Y-16159705D01*
D10*
X002436617Y-16159705D02*
X002423255Y-16146343D01*
D10*
X002423255Y-16146343D02*
X002423255Y-15415564D01*
D10*
X002423255Y-15415564D02*
X-00992308Y-12000000D01*
D10*
X-00992308Y-12000000D02*
X-04175000Y-12000000D01*
D10*
X064500000Y-12000000D02*
X059040465Y-17459535D01*
D10*
X059040465Y-17459535D02*
X058986704Y-17459535D01*
D10*
X058986704Y-17459535D02*
X024670465Y-17459535D01*
D10*
X024670465Y-17459535D02*
X018000000Y-24130000D01*
D10*
X057175000Y036000000D02*
X057175000Y034741000D01*
D10*
X057175000Y034741000D02*
X056334436Y033900436D01*
D10*
X056334436Y033900436D02*
X056270000Y033836000D01*
D10*
X056270000Y033836000D02*
X056270000Y033836000D01*
D10*
X-37087500Y018000000D02*
X-36351000Y017264000D01*
D10*
X-36351000Y017264000D02*
X-25788000Y017264000D01*
D10*
X-25788000Y017264000D02*
X-25788000Y017264000D01*
D10*
X-17600000Y009200000D02*
X-17600000Y009200000D01*
D10*
X-17600000Y009200000D02*
X-17690631Y009109369D01*
D10*
X-17690631Y009109369D02*
X-17690631Y009103714D01*
D10*
X-17690631Y009103714D02*
X-14156917Y005570000D01*
D10*
X-14156917Y005570000D02*
X-13425000Y005570000D01*
D10*
X-13425000Y005570000D02*
X-13425000Y005570000D01*
D10*
X-07586000Y000271000D02*
X-07586000Y000271000D01*
D10*
X-07586000Y000271000D02*
X-07484213Y000372787D01*
D10*
X-07484213Y000372787D02*
X-07478202Y000372787D01*
D10*
X-07478202Y000372787D02*
X-04298414Y-02807000D01*
D10*
X-04298414Y-02807000D02*
X008450000Y-02807000D01*
D10*
X008450000Y-02807000D02*
X008450000Y-02807000D01*
D10*
X004256000Y-09762000D02*
X004256000Y-09762000D01*
D10*
X004256000Y-09762000D02*
X004268005Y-09774005D01*
D10*
X004268005Y-09774005D02*
X004269489Y-09774005D01*
D10*
X004269489Y-09774005D02*
X006683005Y-09774005D01*
D10*
X006683005Y-09774005D02*
X010632000Y-13723000D01*
D10*
X010632000Y-13723000D02*
X010632000Y-13723000D01*
D10*
X-47087500Y018000000D02*
X-47087000Y018000000D01*
D10*
X-47087000Y018000000D02*
X-38912500Y018000000D01*
D10*
X-47087500Y018000000D02*
X-50087000Y015000000D01*
D10*
X-50087000Y015000000D02*
X-76500000Y015000000D01*
D10*
X-48912500Y018000000D02*
X-46357000Y020555000D01*
D10*
X-46357000Y020555000D02*
X-28574388Y020555000D01*
D10*
X-28574388Y020555000D02*
X-24529388Y016510000D01*
D10*
X-24529388Y016510000D02*
X018000000Y016510000D01*
D10*
X-37087500Y012000000D02*
X-32751000Y007664000D01*
D10*
X-32751000Y007664000D02*
X-31327000Y007664000D01*
D10*
X-31327000Y007664000D02*
X-31327000Y007664000D01*
D10*
X-31604000Y004064000D02*
X-31604000Y004064000D01*
D10*
X-31604000Y004064000D02*
X-31453396Y003913396D01*
D10*
X-31453396Y003913396D02*
X-31453396Y003910552D01*
D10*
X-31453396Y003910552D02*
X-21833845Y-05709000D01*
D10*
X-21833845Y-05709000D02*
X-10194000Y-05709000D01*
D10*
X-10194000Y-05709000D02*
X-10194000Y-05709000D01*
D10*
X-09426000Y-05331000D02*
X-09426000Y-05331000D01*
D10*
X-09426000Y-05331000D02*
X-09315475Y-05441525D01*
D10*
X-09315475Y-05441525D02*
X-09306320Y-05441525D01*
D10*
X-09306320Y-05441525D02*
X-06559845Y-08188000D01*
D10*
X-06559845Y-08188000D02*
X-02198000Y-08188000D01*
D10*
X-02198000Y-08188000D02*
X-02198000Y-08188000D01*
D10*
X-00208000Y-09203000D02*
X-00208000Y-09203000D01*
D10*
X-00208000Y-09203000D02*
X-00138797Y-09272203D01*
D10*
X-00138797Y-09272203D02*
X-00138550Y-09272203D01*
D10*
X-00138550Y-09272203D02*
X004367247Y-13778000D01*
D10*
X004367247Y-13778000D02*
X009743000Y-13778000D01*
D10*
X009743000Y-13778000D02*
X009743000Y-13778000D01*
D10*
X010384000Y-14749000D02*
X010384000Y-14749000D01*
D10*
X010384000Y-14749000D02*
X010485742Y-14850742D01*
D10*
X010485742Y-14850742D02*
X010485742Y-14859787D01*
D10*
X010485742Y-14859787D02*
X014675954Y-19050000D01*
D10*
X014675954Y-19050000D02*
X018000000Y-19050000D01*
D10*
X-47087500Y012000000D02*
X-47087000Y012000000D01*
D10*
X-47087000Y012000000D02*
X-38912500Y012000000D01*
D10*
X-47087500Y012000000D02*
X-47970674Y011116326D01*
D10*
X-47970674Y011116326D02*
X-54343674Y011116326D01*
D10*
X-54343674Y011116326D02*
X-65460000Y000000000D01*
D10*
X-48912500Y012000000D02*
X-46942000Y013970000D01*
D10*
X-46942000Y013970000D02*
X018000000Y013970000D01*
D10*
X-37087500Y006000000D02*
X-36258552Y005171552D01*
D10*
X-36258552Y005171552D02*
X-36180656Y005171552D01*
D10*
X-36180656Y005171552D02*
X-13267366Y005171552D01*
D10*
X-13267366Y005171552D02*
X-11420893Y007018025D01*
D10*
X-11420893Y007018025D02*
X014791975Y007018025D01*
D10*
X014791975Y007018025D02*
X018000000Y003810000D01*
D10*
X-47087500Y006000000D02*
X-47087000Y006000000D01*
D10*
X-47087000Y006000000D02*
X-38912500Y006000000D01*
D10*
X-47087500Y006000000D02*
X-48957000Y004130000D01*
D10*
X-48957000Y004130000D02*
X-59907000Y004130000D01*
D10*
X-59907000Y004130000D02*
X-59907000Y004130000D01*
D10*
X-48912500Y006000000D02*
X-47082655Y007829345D01*
D10*
X-47082655Y007829345D02*
X-37447401Y007829345D01*
D10*
X-37447401Y007829345D02*
X-36468920Y006850864D01*
D10*
X-36468920Y006850864D02*
X-31603158Y006850864D01*
D10*
X-31603158Y006850864D02*
X-27024022Y011430000D01*
D10*
X-27024022Y011430000D02*
X018000000Y011430000D01*
D10*
X-47087500Y000000000D02*
X-48044568Y-00957568D01*
D10*
X-48044568Y-00957568D02*
X-48186737Y-00957568D01*
D10*
X-48186737Y-00957568D02*
X-69582432Y-00957568D01*
D10*
X-69582432Y-00957568D02*
X-70540000Y000000000D01*
D10*
X-48912500Y000000000D02*
X-47240000Y001672000D01*
D10*
X-47240000Y001672000D02*
X-34809000Y001672000D01*
D10*
X-34809000Y001672000D02*
X-34809000Y001672000D01*
D10*
X007580000Y010903000D02*
X007580000Y010903000D01*
D10*
X007580000Y010903000D02*
X007583069Y010899931D01*
D10*
X007583069Y010899931D02*
X009593000Y008890000D01*
D10*
X009593000Y008890000D02*
X018000000Y008890000D01*
D10*
X-37087500Y-06000000D02*
X-35656000Y-07431000D01*
D10*
X-35656000Y-07431000D02*
X-10157000Y-07431000D01*
D10*
X-10157000Y-07431000D02*
X-10157000Y-07431000D01*
D10*
X-01418000Y-08642000D02*
X-01418000Y-08642000D01*
D10*
X-01418000Y-08642000D02*
X-01417503Y-08642497D01*
D10*
X-01417503Y-08642497D02*
X-01379299Y-08642497D01*
D10*
X-01379299Y-08642497D02*
X005977788Y-08642497D01*
D10*
X005977788Y-08642497D02*
X007315317Y-09980026D01*
D10*
X007315317Y-09980026D02*
X034330026Y-09980026D01*
D10*
X034330026Y-09980026D02*
X040860000Y-16510000D01*
D10*
X-47087500Y-06000000D02*
X-47087000Y-06000000D01*
D10*
X-47087000Y-06000000D02*
X-38912500Y-06000000D01*
D10*
X-47087500Y-06000000D02*
X-49331000Y-08244000D01*
D10*
X-49331000Y-08244000D02*
X-51749000Y-08244000D01*
D10*
X-51749000Y-08244000D02*
X-51749000Y-08244000D01*
D10*
X-48912500Y-06000000D02*
X-45906000Y-02994000D01*
D10*
X-45906000Y-02994000D02*
X-32411000Y-02994000D01*
D10*
X-32411000Y-02994000D02*
X-32411000Y-02994000D01*
D10*
X-37087500Y-12000000D02*
X-36439000Y-12648000D01*
D10*
X-36439000Y-12648000D02*
X-24975000Y-12648000D01*
D10*
X-24975000Y-12648000D02*
X-24975000Y-12648000D01*
D10*
X006565000Y-16850000D02*
X006565000Y-16850000D01*
D10*
X006565000Y-16850000D02*
X006589113Y-16825887D01*
D10*
X006589113Y-16825887D02*
X006657203Y-16825887D01*
D10*
X006657203Y-16825887D02*
X006709316Y-16878000D01*
D10*
X006709316Y-16878000D02*
X007384000Y-16878000D01*
D10*
X007384000Y-16878000D02*
X007384000Y-16878000D01*
D10*
X-47087500Y-12000000D02*
X-47087000Y-12000000D01*
D10*
X-47087000Y-12000000D02*
X-38912500Y-12000000D01*
D10*
X-47087500Y-12000000D02*
X-47908153Y-12821153D01*
D10*
X-47908153Y-12821153D02*
X-47908153Y-12889259D01*
D10*
X-47908153Y-12889259D02*
X-65889259Y-12889259D01*
D10*
X-65889259Y-12889259D02*
X-68000000Y-15000000D01*
D10*
X-48912500Y-12000000D02*
X-47493000Y-10581000D01*
D10*
X-47493000Y-10581000D02*
X-10582000Y-10581000D01*
D10*
X-10582000Y-10581000D02*
X-10582000Y-10581000D01*
D10*
X011778000Y-10725000D02*
X011778000Y-10725000D01*
D10*
X011778000Y-10725000D02*
X011792306Y-10725000D01*
D10*
X011792306Y-10725000D02*
X012497306Y-11430000D01*
D10*
X012497306Y-11430000D02*
X018000000Y-11430000D01*
D10*
X-47087500Y-18000000D02*
X-48109441Y-16977559D01*
D10*
X-48109441Y-16977559D02*
X-68562441Y-16977559D01*
D10*
X-68562441Y-16977559D02*
X-70540000Y-15000000D01*
D10*
X-48912500Y-18000000D02*
X-48061105Y-18912135D01*
D10*
X-48061105Y-18912135D02*
X-47723856Y-18912135D01*
D10*
X-47723856Y-18912135D02*
X-47714733Y-18912507D01*
D10*
X-47714733Y-18912507D02*
X-47514733Y-18914507D01*
D10*
X-47514733Y-18914507D02*
X-47314733Y-18914507D01*
D10*
X-47314733Y-18914507D02*
X-46964733Y-18914507D01*
D10*
X-46964733Y-18914507D02*
X-46764733Y-18914507D01*
D10*
X-46764733Y-18914507D02*
X-46564733Y-18914507D01*
D10*
X-46564733Y-18914507D02*
X-46276987Y-18809356D01*
D10*
X-46276987Y-18809356D02*
X-44748196Y-17148790D01*
D10*
X-44748196Y-17148790D02*
X-10191253Y-17148790D01*
D10*
X-10191253Y-17148790D02*
X003394305Y-17148790D01*
D10*
X003394305Y-17148790D02*
X006167926Y-14375169D01*
D10*
X006167926Y-14375169D02*
X017594831Y-14375169D01*
D10*
X017594831Y-14375169D02*
X018000000Y-13970000D01*
D11*
X-44160000Y040350000D02*
X-41620000Y040350000D01*
D11*
X-17912500Y039000000D02*
X-18000000Y039087500D01*
D11*
X-18000000Y039087500D02*
X-18000000Y038000000D01*
D11*
X-18000000Y038000000D02*
X-16800000Y036800000D01*
D11*
X-16800000Y036800000D02*
X-16400000Y037200000D01*
D11*
X-16400000Y037200000D02*
X-15200000Y037200000D01*
D11*
X-15200000Y037200000D02*
X-14400000Y038000000D01*
D11*
X-14400000Y038000000D02*
X-14400000Y038400000D01*
D11*
X-14400000Y038400000D02*
X-13825000Y038975000D01*
D12*
X-13825000Y038975000D02*
X-13825000Y039000000D01*
D11*
X-41620000Y040350000D02*
X-19262000Y040350000D01*
D11*
X-19262000Y040350000D02*
X-19262000Y040349500D01*
D11*
X-19262000Y040349500D02*
X-17912500Y039000000D01*
D12*
X-13825000Y039000000D02*
X-13825000Y038525001D01*
D12*
X-13825000Y038525001D02*
X-13825000Y038524999D01*
D11*
X-13825000Y038524999D02*
X-13825000Y034268636D01*
D11*
X-13825000Y034268636D02*
X-09093636Y034268636D01*
D11*
X-09093636Y034268636D02*
X-08417727Y033592727D01*
D11*
X-08417727Y033592727D02*
X-07741818Y032916818D01*
D11*
X-07741818Y032916818D02*
X-07065909Y032240909D01*
D11*
X-07065909Y032240909D02*
X-06390000Y031565000D01*
D11*
X-06390000Y031565000D02*
X-05714091Y030889091D01*
D11*
X-05714091Y030889091D02*
X-05038182Y030213182D01*
D11*
X-05038182Y030213182D02*
X-04362273Y029537273D01*
D11*
X-04362273Y029537273D02*
X-03686364Y028861364D01*
D11*
X-03686364Y028861364D02*
X-03010455Y028185455D01*
D11*
X-03010455Y028185455D02*
X-02334545Y027509545D01*
D11*
X-02334545Y027509545D02*
X-01658636Y026833636D01*
D11*
X-01658636Y026833636D02*
X-00982727Y026157727D01*
D11*
X-00982727Y026157727D02*
X-00306818Y025481818D01*
D11*
X-00306818Y025481818D02*
X000369091Y024805909D01*
D11*
X000369091Y024805909D02*
X001045000Y024130000D01*
D11*
X001045000Y024130000D02*
X002042353Y024130000D01*
D11*
X002042353Y024130000D02*
X003039706Y024130000D01*
D11*
X003039706Y024130000D02*
X004037059Y024130000D01*
D11*
X004037059Y024130000D02*
X005034412Y024130000D01*
D11*
X005034412Y024130000D02*
X006031765Y024130000D01*
D11*
X006031765Y024130000D02*
X007029118Y024130000D01*
D11*
X007029118Y024130000D02*
X008026471Y024130000D01*
D11*
X008026471Y024130000D02*
X009023824Y024130000D01*
D11*
X009023824Y024130000D02*
X010021176Y024130000D01*
D11*
X010021176Y024130000D02*
X011018529Y024130000D01*
D11*
X011018529Y024130000D02*
X012015882Y024130000D01*
D11*
X012015882Y024130000D02*
X013013235Y024130000D01*
D11*
X013013235Y024130000D02*
X014010588Y024130000D01*
D11*
X014010588Y024130000D02*
X015007941Y024130000D01*
D11*
X015007941Y024130000D02*
X016005294Y024130000D01*
D11*
X016005294Y024130000D02*
X017002647Y024130000D01*
D11*
X017002647Y024130000D02*
X018000000Y024130000D01*
D11*
X064460000Y008000000D02*
X063769257Y008690743D01*
D11*
X063769257Y008690743D02*
X063078515Y009381485D01*
D11*
X063078515Y009381485D02*
X062387772Y010072228D01*
D11*
X062387772Y010072228D02*
X061697029Y010762971D01*
D11*
X061697029Y010762971D02*
X061006287Y011453713D01*
D11*
X061006287Y011453713D02*
X060315544Y012144456D01*
D11*
X060315544Y012144456D02*
X059671088Y011500000D01*
D11*
X059671088Y011500000D02*
X051000000Y011500000D01*
D11*
X051000000Y011500000D02*
X046972000Y015528000D01*
D11*
X046972000Y015528000D02*
X044041893Y015528000D01*
D11*
X044041893Y015528000D02*
X043044906Y015528000D01*
D13*
X043044906Y015528000D02*
X042047920Y015528000D01*
D13*
X042047920Y015528000D02*
X041875000Y015250000D01*
D13*
X041875000Y015250000D02*
X041000000Y015250000D01*
D13*
X041000000Y015250000D02*
X040125000Y015250000D01*
D13*
X040125000Y015250000D02*
X039590980Y015389000D01*
D13*
X039590980Y015389000D02*
X039056960Y015528000D01*
D11*
X039056960Y015528000D02*
X038059973Y015528000D01*
D11*
X038059973Y015528000D02*
X037062987Y015528000D01*
D11*
X037062987Y015528000D02*
X036066000Y015528000D01*
D11*
X036066000Y015528000D02*
X036066000Y015528000D01*
D11*
X-44160000Y037810000D02*
X-41620000Y037810000D01*
D11*
X-30160000Y-38350000D02*
X-30160000Y-35810000D01*
D11*
X-16087500Y039000000D02*
X-16000000Y039087500D01*
D11*
X-16000000Y039087500D02*
X-16000000Y039200000D01*
D11*
X-16000000Y039200000D02*
X-14400000Y040800000D01*
D11*
X-14400000Y040800000D02*
X-13200000Y040800000D01*
D11*
X-13200000Y040800000D02*
X-12400000Y040000000D01*
D11*
X-12400000Y040000000D02*
X-12400000Y039600000D01*
D11*
X-12400000Y039600000D02*
X-12175000Y039375000D01*
D12*
X-12175000Y039375000D02*
X-12175000Y039000000D01*
D14*
X053862500Y-12950000D02*
X053562501Y-13249999D01*
D14*
X053562501Y-13249999D02*
X053562499Y-13250001D01*
D11*
X053562499Y-13250001D02*
X051812500Y-15000000D01*
D11*
X051812500Y-15000000D02*
X048225001Y-15000000D01*
D11*
X048225001Y-15000000D02*
X048224999Y-15000000D01*
D12*
X048224999Y-15000000D02*
X047825000Y-15000000D01*
D11*
X065730000Y027000000D02*
X060797175Y031932825D01*
D11*
X060797175Y031932825D02*
X060730000Y032000000D01*
D11*
X060730000Y032000000D02*
X060575000Y032000000D01*
D11*
X060575000Y032000000D02*
X060325000Y032000000D01*
D11*
X060325000Y032000000D02*
X060075000Y032000000D01*
D11*
X060075000Y032000000D02*
X059825000Y032000000D01*
D11*
X059825000Y032000000D02*
X059575000Y032000000D01*
D11*
X059575000Y032000000D02*
X059325000Y032000000D01*
D11*
X059325000Y032000000D02*
X059225000Y032000000D01*
D15*
X059225000Y032000000D02*
X059075000Y032000000D01*
D15*
X059075000Y032000000D02*
X058825000Y032000000D01*
D11*
X065730000Y027000000D02*
X065730000Y027966250D01*
D11*
X065730000Y027966250D02*
X065730000Y028932500D01*
D11*
X065730000Y028932500D02*
X065730000Y029898750D01*
D11*
X065730000Y029898750D02*
X067000000Y036000000D01*
D11*
X065730000Y020000000D02*
X065730000Y011810000D01*
D11*
X065730000Y011810000D02*
X069540000Y011810000D01*
D11*
X069540000Y011810000D02*
X069540000Y008000000D01*
D12*
X047825000Y-15000000D02*
X047433126Y-15474999D01*
D12*
X047433126Y-15474999D02*
X047433124Y-15475001D01*
D11*
X047433124Y-15475001D02*
X047412500Y-15500000D01*
D11*
X047412500Y-15500000D02*
X047000000Y-16000000D01*
D16*
X047000000Y-16000000D02*
X046750000Y-16000000D01*
D17*
X046750000Y-16000000D02*
X046410000Y-15800000D01*
D17*
X046410000Y-15800000D02*
X046410000Y-15800000D01*
D12*
X058825000Y032000000D02*
X059178553Y031646447D01*
D11*
X059178553Y031646447D02*
X054101553Y026569447D01*
D11*
X054101553Y026569447D02*
X053748000Y026923000D01*
D11*
X053748000Y026923000D02*
X052773700Y026923000D01*
D11*
X052773700Y026923000D02*
X051799400Y026923000D01*
D11*
X051799400Y026923000D02*
X050825100Y026923000D01*
D11*
X050825100Y026923000D02*
X049850800Y026923000D01*
D11*
X049850800Y026923000D02*
X048876500Y026923000D01*
D11*
X048876500Y026923000D02*
X047902200Y026923000D01*
D11*
X047902200Y026923000D02*
X046927900Y026923000D01*
D11*
X046927900Y026923000D02*
X045953600Y026923000D01*
D11*
X045953600Y026923000D02*
X044979300Y026923000D01*
D11*
X044979300Y026923000D02*
X044005000Y026923000D01*
D11*
X044005000Y026923000D02*
X044005000Y026923000D01*
D11*
X-30160000Y-38350000D02*
X-09840000Y-38350000D01*
D11*
X018000000Y026670000D02*
X040860000Y026670000D01*
D18*
X-16870000Y037945000D02*
X-16870000Y037945000D01*
D18*
X-16870000Y037945000D02*
X-16750000Y038250000D01*
D18*
X-16750000Y038250000D02*
X-16500000Y038500000D01*
D16*
X-16500000Y038500000D02*
X-16087500Y039000000D01*
D11*
X069540000Y008000000D02*
X069540000Y002727087D01*
D11*
X069540000Y002727087D02*
X066813478Y000000565D01*
D11*
X066813478Y000000565D02*
X066813261Y000000565D01*
D11*
X066813261Y000000565D02*
X059997174Y-06815522D01*
D11*
X059997174Y-06815522D02*
X055812696Y-11000000D01*
D11*
X055812696Y-11000000D02*
X055500000Y-11000000D01*
D12*
X055500000Y-11000000D02*
X055250000Y-11250000D01*
D19*
X055250000Y-11250000D02*
X055000000Y-11500000D01*
D19*
X055000000Y-11500000D02*
X054750000Y-12000000D01*
D13*
X054750000Y-12000000D02*
X054306250Y-12475000D01*
D11*
X054306250Y-12475000D02*
X054306250Y-12506250D01*
D11*
X054306250Y-12506250D02*
X054162501Y-12649999D01*
D11*
X054162501Y-12649999D02*
X054162499Y-12650001D01*
D14*
X054162499Y-12650001D02*
X053862500Y-12950000D01*
D12*
X-12175000Y039000000D02*
X-11925000Y039000000D01*
D15*
X-11925000Y039000000D02*
X-11775000Y039000000D01*
D15*
X-11775000Y039000000D02*
X-11675000Y039000000D01*
D11*
X-11675000Y039000000D02*
X-11425000Y039000000D01*
D11*
X-11425000Y039000000D02*
X-11175000Y039000000D01*
D11*
X-11175000Y039000000D02*
X-10925000Y039000000D01*
D11*
X-10925000Y039000000D02*
X-10675000Y039000000D01*
D11*
X-10675000Y039000000D02*
X-10425000Y039000000D01*
D11*
X-10425000Y039000000D02*
X-10175000Y039000000D01*
D11*
X-10175000Y039000000D02*
X005670000Y039000000D01*
D11*
X005670000Y039000000D02*
X018000000Y026670000D01*
D11*
X040860000Y-26670000D02*
X029180000Y-38350000D01*
D11*
X029180000Y-38350000D02*
X-09840000Y-38350000D01*
D10*
X040860000Y-11430000D02*
X050890538Y-01399462D01*
D10*
X050890538Y-01399462D02*
X050890538Y004665119D01*
D10*
X050890538Y004665119D02*
X050890538Y004886538D01*
D10*
X050890538Y004886538D02*
X050891000Y004887000D01*
D10*
X050891000Y004887000D02*
X050891000Y004887000D01*
D10*
X051482000Y012556000D02*
X051482000Y012556000D01*
D10*
X051482000Y012556000D02*
X057088000Y018162000D01*
D10*
X057088000Y018162000D02*
X057087500Y020000000D01*
D10*
X040860000Y-13970000D02*
X044581971Y-10248029D01*
D10*
X044581971Y-10248029D02*
X044581971Y-08262029D01*
D10*
X044581971Y-08262029D02*
X044891000Y-07953000D01*
D10*
X044891000Y-07953000D02*
X044891000Y-07953000D01*
D10*
X054200000Y023230000D02*
X054200000Y023230000D01*
D10*
X054200000Y023230000D02*
X054200000Y024112000D01*
D10*
X054200000Y024112000D02*
X057087500Y027000000D01*
D10*
X047825000Y-10000000D02*
X046175000Y-11650000D01*
D10*
X046175000Y-11650000D02*
X046175000Y-15000000D01*
D10*
X047825000Y-10000000D02*
X052813000Y-10000000D01*
D10*
X052813000Y-10000000D02*
X053862500Y-11050000D01*
D10*
X069500000Y-12000000D02*
X068263493Y-10763493D01*
D10*
X068263493Y-10763493D02*
X057375522Y-10763493D01*
D10*
X057375522Y-10763493D02*
X057374507Y-10763493D01*
D10*
X057374507Y-10763493D02*
X056137500Y-12000000D01*
D10*
X056912500Y008000000D02*
X057268000Y007645000D01*
D10*
X057268000Y007645000D02*
X058178000Y007645000D01*
D10*
X058178000Y007645000D02*
X058178000Y007645000D01*
D10*
X069540000Y036000000D02*
X068197877Y037342123D01*
D10*
X068197877Y037342123D02*
X052618751Y037342123D01*
D10*
X052618751Y037342123D02*
X052517123Y037342123D01*
D10*
X052517123Y037342123D02*
X051175000Y036000000D01*
D10*
X051175000Y036000000D02*
X042836317Y027661317D01*
D10*
X042836317Y027661317D02*
X042836317Y026876371D01*
D10*
X042836317Y026876371D02*
X041152837Y025192891D01*
D10*
X041152837Y025192891D02*
X039784111Y025192891D01*
D10*
X039784111Y025192891D02*
X039784111Y020514111D01*
D10*
X039784111Y020514111D02*
X018000000Y-01270000D01*
D10*
X058825000Y036000000D02*
X057175000Y034350000D01*
D10*
X057175000Y034350000D02*
X057175000Y032000000D01*
D10*
X058825000Y036000000D02*
X064460000Y036000000D01*
D10*
X058912500Y020000000D02*
X060150230Y021237230D01*
D10*
X060150230Y021237230D02*
X067032770Y021237230D01*
D10*
X067032770Y021237230D02*
X068270000Y020000000D01*
D10*
X058912500Y027000000D02*
X060125173Y025787827D01*
D10*
X060125173Y025787827D02*
X060160599Y025787827D01*
D10*
X060160599Y025787827D02*
X067057827Y025787827D01*
D10*
X067057827Y025787827D02*
X068270000Y027000000D01*
D11*
X-44160000Y035270000D02*
X-41620000Y035270000D01*
D11*
X-44160000Y032730000D02*
X-41620000Y032730000D01*
D11*
X-44160000Y027650000D02*
X-44350000Y027650000D01*
D11*
X-44350000Y027650000D02*
X-44400000Y027600000D01*
D11*
X-44400000Y027600000D02*
X-44800000Y028000000D01*
D11*
X-44800000Y028000000D02*
X-45200000Y028000000D01*
D11*
X-45200000Y028000000D02*
X-46400000Y029200000D01*
D11*
X-46400000Y029200000D02*
X-46400000Y031200000D01*
D11*
X-46400000Y031200000D02*
X-45200000Y032400000D01*
D11*
X-45200000Y032400000D02*
X-44400000Y032400000D01*
D11*
X-44400000Y032400000D02*
X-44000000Y032800000D01*
D11*
X-44000000Y032800000D02*
X-44090000Y032800000D01*
D11*
X-44090000Y032800000D02*
X-44160000Y032730000D01*
D11*
X-64540000Y017500000D02*
X-54390000Y027650000D01*
D11*
X-54390000Y027650000D02*
X-44160000Y027650000D01*
D18*
X-00312000Y-13180000D03*
D18*
X-06940000Y-15262000D03*
D18*
X-26010000Y-25930000D03*
D18*
X-12698000Y-17580000D03*
D18*
X-12430000Y-15354000D03*
D18*
X005171000Y006630000D03*
D18*
X-15676000Y-16069000D03*
D18*
X-15981000Y-17983000D03*
D18*
X-19117000Y-23516000D03*
D18*
X014002000Y017349000D03*
D18*
X-07166000Y-02972000D03*
D18*
X-07674000Y-03840000D03*
D18*
X-15801000Y-12205000D03*
D18*
X-20022000Y-15936000D03*
D18*
X-20732000Y-17783000D03*
D18*
X044916000Y-08835000D03*
D18*
X052382000Y008951000D03*
D18*
X052134000Y014305000D03*
D18*
X-04202000Y-16683000D03*
D18*
X-04019000Y-17803000D03*
D18*
X002608000Y-21150000D03*
D18*
X002460000Y-16374000D03*
D18*
X056270000Y033836000D03*
D18*
X-25788000Y017264000D03*
D18*
X-17600000Y009200000D03*
D18*
X-13425000Y005570000D03*
D18*
X-07586000Y000271000D03*
D18*
X008450000Y-02807000D03*
D18*
X004256000Y-09762000D03*
D18*
X010632000Y-13723000D03*
D18*
X-31327000Y007664000D03*
D18*
X-31604000Y004064000D03*
D18*
X-10194000Y-05709000D03*
D18*
X-09426000Y-05331000D03*
D18*
X-02198000Y-08188000D03*
D18*
X-00208000Y-09203000D03*
D18*
X009743000Y-13778000D03*
D18*
X010384000Y-14749000D03*
D18*
X-59907000Y004130000D03*
D18*
X-34809000Y001672000D03*
D18*
X007580000Y010903000D03*
D18*
X-10157000Y-07431000D03*
D18*
X-01418000Y-08642000D03*
D18*
X-51749000Y-08244000D03*
D18*
X-32411000Y-02994000D03*
D18*
X-24975000Y-12648000D03*
D18*
X006565000Y-16850000D03*
D18*
X007384000Y-16878000D03*
D18*
X-10582000Y-10581000D03*
D18*
X011778000Y-10725000D03*
D18*
X036066000Y015528000D03*
D18*
X046410000Y-15800000D03*
D18*
X044005000Y026923000D03*
D18*
X-16870000Y037945000D03*
D18*
X050891000Y004887000D03*
D18*
X051482000Y012556000D03*
D18*
X044891000Y-07953000D03*
D18*
X054200000Y023230000D03*
D18*
X058178000Y007645000D03*
M02*