%TF.GenerationSoftware,tscircuit,circuit-json-to-gerber,0.0.93*%
%TF.CreationDate,2026-08-31T00:40:08.852Z*%
%TF.SameCoordinates,Original*%
%TF.FileFunction,Copper,L1,Top*%
%TF.FilePolarity,Positive*%
%FSLAX46Y46*%
%MOMM*%
G04 Gerber Fmt 4.6, Leading zero omitted, Abs format (unit mm)*
G04 Created by tscircuit (builder) date 2026-08-31T00:40:08.852Z*
G01*
%LPD*%
G75*
G04 APERTURE MACROS START*
%AMHORZPILL*
0 Horizontal pill (stadium) shape macro*
0 Parameters:*
0 $1 = Total width*
0 $2 = Total height*
0 $3 = Circle diameter (equal to height)*
0 $4 = Circle center offset
0 21 = Center Line(Exposure, Width, Height, Center X, Center Y, Rotation)*
0 1 = Circle(Exposure, Diameter, Center X, Center Y, Rotation)*
21,1,$1-$3,$2,0.0,0.0,0.0*
1,1,$3,0.0-$4,0.0*
1,1,$3,$4,0.0*%
%AMVERTPILL*
0 Vertical pill (stadium) shape macro*
0 Parameters:*
0 $1 = Total width*
0 $2 = Total height*
0 $3 = Circle diameter (equal to width)*
0 $4 = Circle center offset
0 21 = Center Line(Exposure, Width, Height, Center X, Center Y, Rotation)*
21,1,$1,$2-$3,0.0,0.0,0.0*
1,1,$3,0.0,0.0-$4*
1,1,$3,0.0,$4*%
%AMROUNDRECT*
0 Rectangle with rounded corners*
0 $1 Corner radius*
0 $2 $3 $4 $5 $6 $7 $8 $9 X,Y Position of each corner*
0 Polygon box body*
4,1,4,$2,$3,$4,$5,$6,$7,$8,$9,$2,$3,0*
0 Circles for rounded corners*
1,1,$1+$1,$2,$3*
1,1,$1+$1,$4,$5*
1,1,$1+$1,$6,$7*
1,1,$1+$1,$8,$9*
0 Rectangles between the rounded corners*
20,1,$1+$1,$2,$3,$4,$5,0*
20,1,$1+$1,$4,$5,$6,$7,0*
20,1,$1+$1,$6,$7,$8,$9,0*
20,1,$1+$1,$8,$9,$2,$3,0*%
G04 APERTURE MACROS END*
G04 aperture START LIST*
%ADD10C,0.150000*%
%ADD11C,1.000000*%
%ADD12C,0.800000*%
%ADD13C,0.300000*%
%ADD14C,0.875000*%
%ADD15C,0.325000*%
%ADD16C,0.975000*%
%ADD17C,0.600000*%
%ADD18C,0.625000*%
%ADD19C,0.375000*%
%ADD20C,0.400000*%
%ADD21R,1.500000X1.500000*%
%ADD22C,1.500000*%
%ADD23C,0.063000*%
%ADD24C,0.200000*%
%ADD25C,0.108000*%
%ADD26R,1.800000X1.800000*%
%ADD27C,0.081000*%
%ADD28C,0.090000*%
%ADD29C,0.100000*%
%ADD30R,1.700000X1.700000*%
%ADD31R,1.025000X1.400000*%
%ADD32R,0.717500X0.980000*%
%ADD33C,0.120000*%
%ADD34C,0.036000*%
%ADD35R,2.200000X2.200000*%
%ADD36C,0.150000*%
%ADD37R,0.800000X0.950000*%
%ADD38R,0.560000X0.665000*%
%ADD39R,2.800000X2.800000*%
%ADD40C,0.072000*%
%ADD41R,2.000000X2.000000*%
%ADD42R,1.325000X0.600000*%
%ADD43R,0.927500X0.420000*%
%ADD44C,0.045000*%
%ADD45C,1.400000*%
%ADD46C,0.300000*%
%TD*%
G04 aperture END LIST*
D21*
X001570000Y-41670000D03*
D22*
X001570000Y-39130000D03*
D22*
X001570000Y-36590000D03*
D22*
X001570000Y-34050000D03*
D22*
X001570000Y-31510000D03*
D22*
X001570000Y-28970000D03*
D22*
X001570000Y-26430000D03*
D22*
X001570000Y-23890000D03*
D22*
X001570000Y-21350000D03*
D22*
X001570000Y-18810000D03*
D22*
X001570000Y-16270000D03*
D22*
X001570000Y-13730000D03*
D22*
X001570000Y-11190000D03*
D22*
X001570000Y-08650000D03*
D22*
X001570000Y-06110000D03*
D22*
X001570000Y-03570000D03*
D22*
X001570000Y-01030000D03*
D22*
X001570000Y001510000D03*
D22*
X001570000Y004050000D03*
D22*
X001570000Y006590000D03*
D22*
X001570000Y009130000D03*
D22*
X001570000Y011670000D03*
D21*
X024430000Y-41670000D03*
D22*
X024430000Y-39130000D03*
D22*
X024430000Y-36590000D03*
D22*
X024430000Y-34050000D03*
D22*
X024430000Y-31510000D03*
D22*
X024430000Y-28970000D03*
D22*
X024430000Y-26430000D03*
D22*
X024430000Y-23890000D03*
D22*
X024430000Y-21350000D03*
D22*
X024430000Y-18810000D03*
D22*
X024430000Y-16270000D03*
D22*
X024430000Y-13730000D03*
D22*
X024430000Y-11190000D03*
D22*
X024430000Y-08650000D03*
D22*
X024430000Y-06110000D03*
D22*
X024430000Y-03570000D03*
D22*
X024430000Y-01030000D03*
D22*
X024430000Y001510000D03*
D22*
X024430000Y004050000D03*
D22*
X024430000Y006590000D03*
D22*
X024430000Y009130000D03*
D22*
X024430000Y011670000D03*
D21*
X-70540000Y-15000000D03*
D22*
X-68000000Y-15000000D03*
D22*
X-65460000Y-15000000D03*
D21*
X-70540000Y000000000D03*
D22*
X-68000000Y000000000D03*
D22*
X-65460000Y000000000D03*
D21*
X-76500000Y015000000D03*
D26*
X-64540000Y025292500D03*
D26*
X-59460000Y025292500D03*
D26*
X-44160000Y040350000D03*
D26*
X-41620000Y040350000D03*
D26*
X-44160000Y037810000D03*
D26*
X-41620000Y037810000D03*
D26*
X-44160000Y035270000D03*
D26*
X-41620000Y035270000D03*
D26*
X-44160000Y032730000D03*
D26*
X-41620000Y032730000D03*
D30*
X-09840000Y-25650000D03*
D30*
X-09840000Y-28190000D03*
D30*
X-09840000Y-30730000D03*
D30*
X-09840000Y-33270000D03*
D30*
X-09840000Y-35810000D03*
D30*
X-09840000Y-38350000D03*
D30*
X-30160000Y-25650000D03*
D30*
X-30160000Y-28190000D03*
D30*
X-30160000Y-30730000D03*
D30*
X-30160000Y-33270000D03*
D30*
X-30160000Y-35810000D03*
D30*
X-30160000Y-38350000D03*
D31*
X-48912500Y-18000000D03*
D31*
X-47087500Y-18000000D03*
D31*
X-48912500Y-12000000D03*
D31*
X-47087500Y-12000000D03*
D31*
X-48912500Y-06000000D03*
D31*
X-47087500Y-06000000D03*
D31*
X-48912500Y000000000D03*
D31*
X-47087500Y000000000D03*
D31*
X-48912500Y006000000D03*
D31*
X-47087500Y006000000D03*
D31*
X-48912500Y012000000D03*
D31*
X-47087500Y012000000D03*
D31*
X-48912500Y018000000D03*
D31*
X-47087500Y018000000D03*
D35*
X069540000Y046000000D03*
D35*
X067000000Y046000000D03*
D35*
X064460000Y046000000D03*
D37*
X057175000Y044000000D03*
D37*
X058825000Y044000000D03*
D37*
X057175000Y040000000D03*
D37*
X058825000Y040000000D03*
D26*
X006110000Y040730000D03*
D26*
X006110000Y043270000D03*
D26*
X008650000Y040730000D03*
D26*
X008650000Y043270000D03*
D26*
X011190000Y040730000D03*
D26*
X011190000Y043270000D03*
D26*
X013730000Y040730000D03*
D26*
X013730000Y043270000D03*
D26*
X016270000Y040730000D03*
D26*
X016270000Y043270000D03*
D26*
X018810000Y040730000D03*
D26*
X018810000Y043270000D03*
D26*
X021350000Y040730000D03*
D26*
X021350000Y043270000D03*
D26*
X023890000Y040730000D03*
D26*
X023890000Y043270000D03*
D39*
X038000000Y036060000D03*
D39*
X038000000Y040020000D03*
D39*
X038000000Y043980000D03*
D39*
X038000000Y047940000D03*
D41*
X065500000Y-06000000D03*
D41*
X070500000Y-06000000D03*
D42*
X053862500Y-11050000D03*
D42*
X053862500Y-12950000D03*
D42*
X056137500Y-12000000D03*
D37*
X046175000Y-10000000D03*
D37*
X047825000Y-10000000D03*
D37*
X046175000Y-15000000D03*
D37*
X047825000Y-15000000D03*
D31*
X-17912500Y039000000D03*
D31*
X-16087500Y039000000D03*
D37*
X-13825000Y039000000D03*
D37*
X-12175000Y039000000D03*
D45*
X041905000Y-47635000D03*
D45*
X040635000Y-46365000D03*
D45*
X039365000Y-47635000D03*
D45*
X038095000Y-46365000D03*
D26*
X044190000Y-21460000D03*
D26*
X044190000Y-24000000D03*
D26*
X044190000Y-26540000D03*
D26*
X051810000Y-26540000D03*
D26*
X051810000Y-24000000D03*
D26*
X051810000Y-21460000D03*
D31*
X047087500Y-18000000D03*
D31*
X048912500Y-18000000D03*
D31*
X034087500Y-27000000D03*
D31*
X035912500Y-27000000D03*
D31*
X056087500Y-30000000D03*
D31*
X057912500Y-30000000D03*
D41*
X042920000Y-30000000D03*
D41*
X053080000Y-30000000D03*
D45*
X061905000Y-47635000D03*
D45*
X060635000Y-46365000D03*
D45*
X059365000Y-47635000D03*
D45*
X058095000Y-46365000D03*
D26*
X064190000Y-21460000D03*
D26*
X064190000Y-24000000D03*
D26*
X064190000Y-26540000D03*
D26*
X071810000Y-26540000D03*
D26*
X071810000Y-24000000D03*
D26*
X071810000Y-21460000D03*
D31*
X067087500Y-18000000D03*
D31*
X068912500Y-18000000D03*
D31*
X058087500Y-27000000D03*
D31*
X059912500Y-27000000D03*
D31*
X076087500Y-30000000D03*
D31*
X077912500Y-30000000D03*
D41*
X062920000Y-30000000D03*
D41*
X073080000Y-30000000D03*
D10*
X024430000Y-21350000D02*
X024345024Y-21434976D01*
D10*
X024345024Y-21434976D02*
X013402571Y-21434976D01*
D10*
X013402571Y-21434976D02*
X002337171Y-32500376D01*
D10*
X002337171Y-32500376D02*
X-01763300Y-32500376D01*
D10*
X-01763300Y-32500376D02*
X-07612924Y-38350000D01*
D10*
X-07612924Y-38350000D02*
X-09840000Y-38350000D01*
D10*
X018880000Y-10300000D02*
X018880000Y-10300000D01*
D10*
X018880000Y-10300000D02*
X018819177Y-10360823D01*
D10*
X018819177Y-10360823D02*
X018819177Y-10397235D01*
D10*
X018819177Y-10397235D02*
X014355308Y-14861104D01*
D10*
X014355308Y-14861104D02*
X014355308Y-14955498D01*
D10*
X014355308Y-14955498D02*
X009873997Y-14955498D01*
D10*
X009873997Y-14955498D02*
X002437417Y-22392078D01*
D10*
X002437417Y-22392078D02*
X001164589Y-22392078D01*
D10*
X001164589Y-22392078D02*
X-00940124Y-24496791D01*
D10*
X-00940124Y-24496791D02*
X-00940124Y-26910124D01*
D10*
X-00940124Y-26910124D02*
X-09840000Y-35810000D01*
D10*
X024430000Y004050000D02*
X023336560Y002956560D01*
D10*
X023336560Y002956560D02*
X022102133Y002956560D01*
D10*
X022102133Y002956560D02*
X014328573Y-04817000D01*
D10*
X014328573Y-04817000D02*
X005577000Y-04817000D01*
D10*
X005577000Y-04817000D02*
X005577000Y-04817000D01*
D10*
X004208000Y-00848000D02*
X004208000Y-00848000D01*
D10*
X004208000Y-00848000D02*
X004201373Y-00854627D01*
D10*
X004201373Y-00854627D02*
X004201373Y-00898034D01*
D10*
X004201373Y-00898034D02*
X004124917Y-00974489D01*
D10*
X004124917Y-00974489D02*
X004124917Y-07865124D01*
D10*
X004124917Y-07865124D02*
X002340041Y-09650000D01*
D10*
X002340041Y-09650000D02*
X001232733Y-09650000D01*
D10*
X001232733Y-09650000D02*
X-21366267Y-32249000D01*
D10*
X-21366267Y-32249000D02*
X-26154000Y-32249000D01*
D10*
X-26154000Y-32249000D02*
X-26154000Y-32249000D01*
D10*
X018783000Y-09033000D02*
X018783000Y-09033000D01*
D10*
X018783000Y-09033000D02*
X018752816Y-09063184D01*
D10*
X018752816Y-09063184D02*
X018635387Y-09063184D01*
D10*
X018635387Y-09063184D02*
X013087639Y-14610933D01*
D10*
X013087639Y-14610933D02*
X008936587Y-14610933D01*
D10*
X008936587Y-14610933D02*
X003732467Y-19815053D01*
D10*
X003732467Y-19815053D02*
X001343928Y-19815053D01*
D10*
X001343928Y-19815053D02*
X-01540924Y-22699906D01*
D10*
X-01540924Y-22699906D02*
X-03709517Y-22699906D01*
D10*
X-03709517Y-22699906D02*
X-03709517Y-24599517D01*
D10*
X-03709517Y-24599517D02*
X-09840000Y-30730000D01*
D10*
X001570000Y-18810000D02*
X-01972000Y-22352000D01*
D10*
X-01972000Y-22352000D02*
X-03031000Y-22352000D01*
D10*
X-03031000Y-22352000D02*
X-03031000Y-22352000D01*
D10*
X-03372000Y-23381000D02*
X-03372000Y-23381000D01*
D10*
X-03372000Y-23381000D02*
X-03400121Y-23409121D01*
D10*
X-03400121Y-23409121D02*
X-03400121Y-23437585D01*
D10*
X-03400121Y-23437585D02*
X-03400121Y-26830121D01*
D10*
X-03400121Y-26830121D02*
X-09840000Y-33270000D01*
D10*
X-21647000Y-32811000D02*
X-21647000Y-32811000D01*
D10*
X-21647000Y-32811000D02*
X-21651102Y-32815102D01*
D10*
X-21651102Y-32815102D02*
X-27165102Y-32815102D01*
D10*
X-27165102Y-32815102D02*
X-30160000Y-35810000D01*
D10*
X047087500Y-18000000D02*
X047993982Y-17093518D01*
D10*
X047993982Y-17093518D02*
X066181518Y-17093518D01*
D10*
X066181518Y-17093518D02*
X067087500Y-18000000D01*
D10*
X047087500Y-18000000D02*
X045930000Y-19158000D01*
D10*
X045930000Y-19158000D02*
X045296000Y-19158000D01*
D10*
X045296000Y-19158000D02*
X045296000Y-19158000D01*
D10*
X046175000Y-10000000D02*
X036945998Y-00770998D01*
D10*
X036945998Y-00770998D02*
X036222376Y-00770998D01*
D10*
X036222376Y-00770998D02*
X030671002Y-00770998D01*
D10*
X030671002Y-00770998D02*
X028410000Y-03032000D01*
D10*
X028410000Y-03032000D02*
X028410000Y-03032000D01*
D10*
X023890000Y040730000D02*
X026442780Y038177220D01*
D10*
X026442780Y038177220D02*
X026442780Y016537496D01*
D10*
X026442780Y016537496D02*
X026442780Y016481220D01*
D10*
X026442780Y016481220D02*
X026554000Y016370000D01*
D10*
X026554000Y016370000D02*
X026554000Y016370000D01*
D10*
X025980000Y-30240000D02*
X025980000Y-30240000D01*
D10*
X025980000Y-30240000D02*
X025700000Y-30240000D01*
D10*
X025700000Y-30240000D02*
X024430000Y-31510000D01*
D10*
X021810000Y002182000D02*
X021810000Y002182000D01*
D10*
X021810000Y002182000D02*
X021810000Y-11806000D01*
D10*
X021810000Y-11806000D02*
X022170614Y-12166614D01*
D10*
X022170614Y-12166614D02*
X022221000Y-12217000D01*
D10*
X022221000Y-12217000D02*
X022221000Y-12217000D01*
D10*
X021350000Y040730000D02*
X026028908Y036051092D01*
D10*
X026028908Y036051092D02*
X026028908Y013196092D01*
D10*
X026028908Y013196092D02*
X026028908Y-13241541D01*
D10*
X026028908Y-13241541D02*
X027159008Y-14371640D01*
D10*
X027159008Y-14371640D02*
X027159008Y-14380992D01*
D10*
X027159008Y-14380992D02*
X027106000Y-14434000D01*
D10*
X027106000Y-14434000D02*
X027106000Y-14434000D01*
D10*
X027109000Y-16765000D02*
X027109000Y-16765000D01*
D10*
X027109000Y-16765000D02*
X027109000Y-23751000D01*
D10*
X027109000Y-23751000D02*
X024430000Y-26430000D01*
D10*
X018810000Y043270000D02*
X019910099Y042169901D01*
D10*
X019910099Y042169901D02*
X019910099Y039725773D01*
D10*
X019910099Y039725773D02*
X019910099Y027416903D01*
D10*
X019910099Y027416903D02*
X021106501Y026220501D01*
D10*
X021106501Y026220501D02*
X021100000Y026214000D01*
D10*
X021100000Y026214000D02*
X021100000Y026214000D01*
D10*
X018810000Y040730000D02*
X018810000Y028843000D01*
D10*
X018810000Y028843000D02*
X010384000Y020417000D01*
D10*
X010384000Y020417000D02*
X010384000Y020417000D01*
D10*
X010017000Y014784000D02*
X010017000Y014784000D01*
D10*
X010017000Y014784000D02*
X009975527Y014742527D01*
D10*
X009975527Y014742527D02*
X009942333Y014742527D01*
D10*
X009942333Y014742527D02*
X008633615Y013433809D01*
D10*
X008633615Y013433809D02*
X008633615Y013314170D01*
D10*
X008633615Y013314170D02*
X008633615Y000777615D01*
D10*
X008633615Y000777615D02*
X005657000Y-02199000D01*
D10*
X005657000Y-02199000D02*
X005657000Y-02199000D01*
D10*
X004366000Y-09251000D02*
X004366000Y-09251000D01*
D10*
X004366000Y-09251000D02*
X004296992Y-09320008D01*
D10*
X004296992Y-09320008D02*
X004295131Y-09320008D01*
D10*
X004295131Y-09320008D02*
X002425139Y-11190000D01*
D10*
X002425139Y-11190000D02*
X001570000Y-11190000D01*
D10*
X016270000Y043270000D02*
X015175098Y042175098D01*
D10*
X015175098Y042175098D02*
X015175098Y041974660D01*
D10*
X015175098Y041974660D02*
X015175098Y029957295D01*
D10*
X015175098Y029957295D02*
X006460567Y021242763D01*
D10*
X006460567Y021242763D02*
X006460567Y005938448D01*
D10*
X006460567Y005938448D02*
X005625000Y004725000D01*
D10*
X005625000Y004725000D02*
X005085545Y004563426D01*
D10*
X005085545Y004563426D02*
X005085545Y-10214455D01*
D10*
X005085545Y-10214455D02*
X001570000Y-13730000D01*
D10*
X016270000Y040730000D02*
X016270000Y030672132D01*
D10*
X016270000Y030672132D02*
X009999837Y024401969D01*
D10*
X009999837Y024401969D02*
X009999837Y016772720D01*
D10*
X009999837Y016772720D02*
X010605877Y016181597D01*
D10*
X010605877Y016181597D02*
X011061196Y015850945D01*
D10*
X011061196Y015850945D02*
X012006408Y014766148D01*
D10*
X012006408Y014766148D02*
X012006408Y004107766D01*
D10*
X012006408Y004107766D02*
X012037500Y004050000D01*
D10*
X012037500Y004050000D02*
X012006408Y001881408D01*
D10*
X012006408Y001881408D02*
X010971000Y000846000D01*
D10*
X010971000Y000846000D02*
X010971000Y000846000D01*
D10*
X010776000Y-06192000D02*
X010776000Y-06192000D01*
D10*
X010776000Y-06192000D02*
X010744915Y-06223085D01*
D10*
X010744915Y-06223085D02*
X010744915Y-06320554D01*
D10*
X010744915Y-06320554D02*
X001570000Y-15495469D01*
D10*
X001570000Y-15495469D02*
X001570000Y-16270000D01*
D10*
X013730000Y040730000D02*
X011959000Y038959000D01*
D10*
X011959000Y038959000D02*
X011959000Y028447000D01*
D10*
X011959000Y028447000D02*
X011959000Y028447000D01*
D10*
X005417000Y-18630000D02*
X005417000Y-18630000D01*
D10*
X005417000Y-18630000D02*
X005319597Y-18727403D01*
D10*
X005319597Y-18727403D02*
X005233586Y-18727403D01*
D10*
X005233586Y-18727403D02*
X002610989Y-21350000D01*
D10*
X002610989Y-21350000D02*
X001570000Y-21350000D01*
D10*
X007654000Y-10793000D02*
X007654000Y-10793000D01*
D10*
X007654000Y-10793000D02*
X007720756Y-10859756D01*
D10*
X007720756Y-10859756D02*
X007813669Y-10859756D01*
D10*
X007813669Y-10859756D02*
X009317912Y-12364000D01*
D10*
X009317912Y-12364000D02*
X010438000Y-12364000D01*
D10*
X010438000Y-12364000D02*
X010438000Y-12364000D01*
D10*
X009626000Y-21382000D02*
X009626000Y-21382000D01*
D10*
X009626000Y-21382000D02*
X009564699Y-21443301D01*
D10*
X009564699Y-21443301D02*
X009564699Y-21463227D01*
D10*
X009564699Y-21463227D02*
X007137926Y-23890000D01*
D10*
X007137926Y-23890000D02*
X001570000Y-23890000D01*
D10*
X009910000Y002805000D02*
X009910000Y002805000D01*
D10*
X009910000Y002805000D02*
X009964558Y002750442D01*
D10*
X009964558Y002750442D02*
X009983910Y002750442D01*
D10*
X009983910Y002750442D02*
X010300352Y002434000D01*
D10*
X010300352Y002434000D02*
X011599000Y002434000D01*
D10*
X011599000Y002434000D02*
X011599000Y002434000D01*
D10*
X011600000Y-10993000D02*
X011600000Y-10993000D01*
D10*
X011600000Y-10993000D02*
X011600000Y-11132157D01*
D10*
X011600000Y-11132157D02*
X011600000Y-11996000D01*
D10*
X011600000Y-11996000D02*
X009384000Y-14212000D01*
D10*
X009384000Y-14212000D02*
X009384000Y-14212000D01*
D10*
X008597000Y-23325000D02*
X008597000Y-23325000D01*
D10*
X008597000Y-23325000D02*
X008547210Y-23374790D01*
D10*
X008547210Y-23374790D02*
X005492000Y-26430000D01*
D10*
X005492000Y-26430000D02*
X001570000Y-26430000D01*
D10*
X008650000Y040730000D02*
X005423000Y037503000D01*
D10*
X005423000Y037503000D02*
X005423000Y036588000D01*
D10*
X005423000Y036588000D02*
X005423000Y036588000D01*
D10*
X-09406000Y-16170000D02*
X-09406000Y-16170000D01*
D10*
X-09406000Y-16170000D02*
X-09343967Y-16232033D01*
D10*
X-09343967Y-16232033D02*
X-09343967Y-16233703D01*
D10*
X-09343967Y-16233703D02*
X-08594000Y-16983670D01*
D10*
X-08594000Y-16983670D02*
X-08594000Y-17422000D01*
D10*
X-08594000Y-17422000D02*
X-08594000Y-17422000D01*
D10*
X002772000Y-32612000D02*
X002772000Y-32612000D01*
D10*
X002772000Y-32612000D02*
X002643848Y-32740152D01*
D10*
X002643848Y-32740152D02*
X002643848Y-32744901D01*
D10*
X002643848Y-32744901D02*
X001570000Y-33818749D01*
D10*
X001570000Y-33818749D02*
X001570000Y-34050000D01*
D10*
X069540000Y046000000D02*
X037634000Y014094000D01*
D10*
X037634000Y014094000D02*
X037634000Y002545000D01*
D10*
X037634000Y002545000D02*
X037634000Y002545000D01*
D10*
X035761000Y-01173000D02*
X035761000Y-01173000D01*
D10*
X035761000Y-01173000D02*
X035703898Y-01230102D01*
D10*
X035703898Y-01230102D02*
X035703898Y-07536102D01*
D10*
X035703898Y-07536102D02*
X024430000Y-18810000D01*
D10*
X-30160000Y-28190000D02*
X-30160000Y-30730000D01*
D10*
X001570000Y-41670000D02*
X001570000Y-39130000D01*
D10*
X001570000Y-39130000D02*
X-01348000Y-36212000D01*
D10*
X-01348000Y-36212000D02*
X-04999000Y-36212000D01*
D10*
X-04999000Y-36212000D02*
X-04999000Y-36212000D01*
D10*
X-06583000Y-36378000D02*
X-06583000Y-36378000D01*
D10*
X-06583000Y-36378000D02*
X-06638292Y-36433292D01*
D10*
X-06638292Y-36433292D02*
X-07079657Y-36874657D01*
D10*
X-07079657Y-36874657D02*
X-07203317Y-36874657D01*
D10*
X-07203317Y-36874657D02*
X-19889343Y-36874657D01*
D10*
X-19889343Y-36874657D02*
X-22585000Y-34179000D01*
D10*
X-22585000Y-34179000D02*
X-22585000Y-34179000D01*
D10*
X057175000Y044000000D02*
X057175000Y043468769D01*
D10*
X057175000Y043468769D02*
X056666819Y042960589D01*
D10*
X056666819Y042960589D02*
X056594589Y042960589D01*
D10*
X056594589Y042960589D02*
X056477000Y042843000D01*
D10*
X056477000Y042843000D02*
X056477000Y042843000D01*
D10*
X015567000Y-33097000D02*
X015567000Y-33097000D01*
D10*
X015567000Y-33097000D02*
X015409455Y-33254545D01*
D10*
X015409455Y-33254545D02*
X015386208Y-33254545D01*
D10*
X015386208Y-33254545D02*
X009510753Y-39130000D01*
D10*
X009510753Y-39130000D02*
X001570000Y-39130000D01*
D10*
X-47087500Y018000000D02*
X-47824926Y017262074D01*
D10*
X-47824926Y017262074D02*
X-47824926Y017056050D01*
D10*
X-47824926Y017056050D02*
X-49880975Y015000000D01*
D10*
X-49880975Y015000000D02*
X-76500000Y015000000D01*
D10*
X-48912500Y018000000D02*
X-48405000Y017493000D01*
D10*
X-48405000Y017493000D02*
X-48405000Y017001000D01*
D10*
X-48405000Y017001000D02*
X-48405000Y017001000D01*
D10*
X-03199000Y-16811000D02*
X-03199000Y-16811000D01*
D10*
X-03199000Y-16811000D02*
X-03175630Y-16834370D01*
D10*
X-03175630Y-16834370D02*
X-02990017Y-16834370D01*
D10*
X-02990017Y-16834370D02*
X-02843387Y-16981000D01*
D10*
X-02843387Y-16981000D02*
X-02055000Y-16981000D01*
D10*
X-02055000Y-16981000D02*
X-02055000Y-16981000D01*
D10*
X004419000Y-21587000D02*
X004419000Y-21587000D01*
D10*
X004419000Y-21587000D02*
X004428047Y-21577953D01*
D10*
X004428047Y-21577953D02*
X004459353Y-21577953D01*
D10*
X004459353Y-21577953D02*
X004660306Y-21377000D01*
D10*
X004660306Y-21377000D02*
X009124000Y-21377000D01*
D10*
X009124000Y-21377000D02*
X009124000Y-21377000D01*
D10*
X014025000Y-31309000D02*
X014025000Y-31309000D01*
D10*
X014025000Y-31309000D02*
X014040769Y-31324769D01*
D10*
X014040769Y-31324769D02*
X014059068Y-31324769D01*
D10*
X014059068Y-31324769D02*
X021704769Y-31324769D01*
D10*
X021704769Y-31324769D02*
X024430000Y-34050000D01*
D10*
X-47087500Y012000000D02*
X-47400000Y011687000D01*
D10*
X-47400000Y011687000D02*
X-47400000Y011000000D01*
D10*
X-47400000Y011000000D02*
X-47400000Y011000000D01*
D10*
X-48912500Y012000000D02*
X-47528844Y010616844D01*
D10*
X-47528844Y010616844D02*
X-47528844Y010576002D01*
D10*
X-47528844Y010576002D02*
X-02416002Y010576002D01*
D10*
X-02416002Y010576002D02*
X001570000Y006590000D01*
D10*
X-47087500Y006000000D02*
X-47970678Y005116322D01*
D10*
X-47970678Y005116322D02*
X-62883678Y005116322D01*
D10*
X-62883678Y005116322D02*
X-68000000Y000000000D01*
D10*
X-48912500Y006000000D02*
X-48002643Y006909357D01*
D10*
X-48002643Y006909357D02*
X-47995320Y006909357D01*
D10*
X-47995320Y006909357D02*
X-01289357Y006909357D01*
D10*
X-01289357Y006909357D02*
X001570000Y004050000D01*
D10*
X-47087500Y000000000D02*
X-48044568Y-00957568D01*
D10*
X-48044568Y-00957568D02*
X-48186737Y-00957568D01*
D10*
X-48186737Y-00957568D02*
X-69582432Y-00957568D01*
D10*
X-69582432Y-00957568D02*
X-70540000Y000000000D01*
D10*
X-48912500Y000000000D02*
X-47402000Y001510000D01*
D10*
X-47402000Y001510000D02*
X001570000Y001510000D01*
D10*
X-47087500Y-06000000D02*
X-51910000Y-10823000D01*
D10*
X-51910000Y-10823000D02*
X-61621000Y-10823000D01*
D10*
X-61621000Y-10823000D02*
X-61621000Y-10823000D01*
D10*
X-48912500Y-06000000D02*
X-43942000Y-01030000D01*
D10*
X-43942000Y-01030000D02*
X001570000Y-01030000D01*
D10*
X-47087500Y-12000000D02*
X-47970696Y-12883696D01*
D10*
X-47970696Y-12883696D02*
X-65883696Y-12883696D01*
D10*
X-65883696Y-12883696D02*
X-68000000Y-15000000D01*
D10*
X-48912500Y-12000000D02*
X-40482000Y-03570000D01*
D10*
X-40482000Y-03570000D02*
X001570000Y-03570000D01*
D10*
X-47087500Y-18000000D02*
X-47997701Y-17089299D01*
D10*
X-47997701Y-17089299D02*
X-48155650Y-17089299D01*
D10*
X-48155650Y-17089299D02*
X-68450701Y-17089299D01*
D10*
X-68450701Y-17089299D02*
X-70540000Y-15000000D01*
D10*
X-48912500Y-18000000D02*
X-48149396Y-18762604D01*
D10*
X-48149396Y-18762604D02*
X-47890870Y-18762604D01*
D10*
X-47890870Y-18762604D02*
X-47887033Y-18849604D01*
D10*
X-47887033Y-18849604D02*
X-47698000Y-18897000D01*
D10*
X-47698000Y-18897000D02*
X-47400000Y-18905000D01*
D10*
X-47400000Y-18905000D02*
X-47200000Y-18905000D01*
D10*
X-47200000Y-18905000D02*
X-47000000Y-18905000D01*
D10*
X-47000000Y-18905000D02*
X-46700000Y-18905000D01*
D10*
X-46700000Y-18905000D02*
X-46415947Y-18905000D01*
D10*
X-46415947Y-18905000D02*
X-33707947Y-06197000D01*
D10*
X-33707947Y-06197000D02*
X001570000Y-06110000D01*
D11*
X-44160000Y040350000D02*
X-41620000Y040350000D01*
D11*
X038000000Y036060000D02*
X038000000Y040020000D01*
D11*
X-17912500Y039000000D02*
X-18000000Y039087500D01*
D11*
X-18000000Y039087500D02*
X-18000000Y039200000D01*
D11*
X-18000000Y039200000D02*
X-17600000Y039600000D01*
D11*
X-17600000Y039600000D02*
X-17600000Y040400000D01*
D11*
X-17600000Y040400000D02*
X-17200000Y040800000D01*
D11*
X-17200000Y040800000D02*
X-15200000Y040800000D01*
D11*
X-15200000Y040800000D02*
X-14400000Y040000000D01*
D11*
X-14400000Y040000000D02*
X-14400000Y039600000D01*
D11*
X-14400000Y039600000D02*
X-13825000Y039025000D01*
D12*
X-13825000Y039025000D02*
X-13825000Y039000000D01*
D11*
X-41620000Y040350000D02*
X-19262000Y040350000D01*
D11*
X-19262000Y040350000D02*
X-19262000Y040349500D01*
D11*
X-19262000Y040349500D02*
X-17912500Y039000000D01*
D12*
X-13825000Y039000000D02*
X-13825000Y038750000D01*
D12*
X-13825000Y038750000D02*
X-13825000Y038525000D01*
D12*
X-13825000Y038525000D02*
X-13825000Y038500000D01*
D11*
X-13825000Y038500000D02*
X-13825000Y038250000D01*
D11*
X-13825000Y038250000D02*
X-13825000Y038000000D01*
D11*
X-13825000Y038000000D02*
X-13825000Y037750000D01*
D11*
X-13825000Y037750000D02*
X-13825000Y037500000D01*
D11*
X-13825000Y037500000D02*
X-13825000Y037250000D01*
D11*
X-13825000Y037250000D02*
X-13825000Y037000000D01*
D11*
X-13825000Y037000000D02*
X-13825000Y024525000D01*
D11*
X-13825000Y024525000D02*
X001570000Y009130000D01*
D11*
X022404000Y032232000D02*
X022404000Y032232000D01*
D11*
X022404000Y032232000D02*
X022404000Y026404000D01*
D11*
X022404000Y026404000D02*
X021500000Y025500000D01*
D11*
X021500000Y025500000D02*
X015216970Y019216970D01*
D11*
X015216970Y019216970D02*
X014649838Y019216970D01*
D11*
X014649838Y019216970D02*
X013948596Y018515728D01*
D11*
X013948596Y018515728D02*
X013247353Y017814485D01*
D11*
X013247353Y017814485D02*
X012546111Y017113243D01*
D11*
X012546111Y017113243D02*
X011844868Y016412000D01*
D13*
X011844868Y016412000D02*
X010855000Y016412000D01*
D13*
X010855000Y016412000D02*
X010855000Y016412000D01*
D11*
X010666000Y015273000D02*
X010666000Y015273000D01*
D11*
X010666000Y015273000D02*
X010660414Y015278586D01*
D11*
X010660414Y015278586D02*
X010656102Y015278586D01*
D14*
X010656102Y015278586D02*
X010301688Y015633000D01*
D14*
X010301688Y015633000D02*
X009427516Y015633000D01*
D14*
X009427516Y015633000D02*
X008553344Y015633000D01*
D14*
X008553344Y015633000D02*
X007679172Y015633000D01*
D15*
X007679172Y015633000D02*
X006805000Y015633000D01*
D15*
X006805000Y015633000D02*
X006805000Y015633000D01*
D12*
X005884000Y014777000D02*
X005884000Y014777000D01*
D12*
X005884000Y014777000D02*
X005792264Y014685264D01*
D12*
X005792264Y014685264D02*
X005615276Y014685264D01*
D16*
X005615276Y014685264D02*
X005615276Y013930270D01*
D11*
X005615276Y013930270D02*
X005615276Y013175276D01*
D11*
X005615276Y013175276D02*
X004941063Y012501063D01*
D11*
X004941063Y012501063D02*
X004266851Y011826851D01*
D11*
X004266851Y011826851D02*
X003592638Y011152638D01*
D11*
X003592638Y011152638D02*
X002918425Y010478425D01*
D11*
X002918425Y010478425D02*
X002244213Y009804213D01*
D11*
X002244213Y009804213D02*
X001570000Y009130000D01*
D11*
X-44160000Y037810000D02*
X-41620000Y037810000D01*
D11*
X-09840000Y-25650000D02*
X-09840000Y-28190000D01*
D11*
X024430000Y009130000D02*
X024430000Y011670000D01*
D11*
X-16087500Y039000000D02*
X-16087500Y038839066D01*
D11*
X-16087500Y038839066D02*
X-14963930Y037715496D01*
D11*
X-14963930Y037715496D02*
X-14963930Y037521930D01*
D11*
X-14963930Y037521930D02*
X-14942000Y037500000D01*
D11*
X-14942000Y037500000D02*
X-14942000Y037500000D01*
D11*
X-11200000Y036800000D02*
X-11200000Y036800000D01*
D11*
X-11200000Y036800000D02*
X-11200000Y038025000D01*
D11*
X-11200000Y038025000D02*
X-11774999Y038599999D01*
D11*
X-11774999Y038599999D02*
X-11775001Y038600001D01*
D12*
X-11775001Y038600001D02*
X-12175000Y039000000D01*
D11*
X038000000Y043980000D02*
X038000000Y047940000D01*
D11*
X008650000Y043270000D02*
X008720000Y043200000D01*
D11*
X008720000Y043200000D02*
X008800000Y043200000D01*
D11*
X008800000Y043200000D02*
X008800000Y044000000D01*
D11*
X008800000Y044000000D02*
X009200000Y044400000D01*
D11*
X009200000Y044400000D02*
X009200000Y044800000D01*
D11*
X009200000Y044800000D02*
X009600000Y045200000D01*
D11*
X009600000Y045200000D02*
X012800000Y045200000D01*
D11*
X012800000Y045200000D02*
X013200000Y044800000D01*
D11*
X013200000Y044800000D02*
X013200000Y044000000D01*
D11*
X013200000Y044000000D02*
X013730000Y043470000D01*
D11*
X013730000Y043470000D02*
X013730000Y043270000D01*
D17*
X053862500Y-12950000D02*
X053562501Y-13249999D01*
D17*
X053562501Y-13249999D02*
X053562499Y-13250001D01*
D11*
X053562499Y-13250001D02*
X051812500Y-15000000D01*
D11*
X051812500Y-15000000D02*
X048225001Y-15000000D01*
D11*
X048225001Y-15000000D02*
X048224999Y-15000000D01*
D12*
X048224999Y-15000000D02*
X047825000Y-15000000D01*
D12*
X047825000Y-15000000D02*
X047825000Y-15425000D01*
D12*
X047825000Y-15425000D02*
X047250000Y-16000000D01*
D11*
X047250000Y-16000000D02*
X046093149Y-16731851D01*
D11*
X046093149Y-16731851D02*
X042500000Y-20325000D01*
D11*
X042500000Y-20325000D02*
X042500000Y-24000000D01*
D11*
X042500000Y-24000000D02*
X044190000Y-24000000D01*
D12*
X058825000Y040000000D02*
X059224999Y040000000D01*
D12*
X059224999Y040000000D02*
X059225001Y040000000D01*
D11*
X059225001Y040000000D02*
X059550000Y040000000D01*
D11*
X059550000Y040000000D02*
X060275000Y040000000D01*
D11*
X060275000Y040000000D02*
X061000000Y040000000D01*
D11*
X061000000Y040000000D02*
X061530330Y039469670D01*
D11*
X061530330Y039469670D02*
X067530330Y045469670D01*
D11*
X067530330Y045469670D02*
X067000000Y046000000D01*
D11*
X013730000Y043270000D02*
X013730000Y045000000D01*
D11*
X013730000Y045000000D02*
X015250000Y045000000D01*
D11*
X015250000Y045000000D02*
X023327916Y045000000D01*
D11*
X023327916Y045000000D02*
X023327916Y043832084D01*
D11*
X023327916Y043832084D02*
X023890000Y043270000D01*
D11*
X023890000Y043270000D02*
X037290000Y043270000D01*
D11*
X037290000Y043270000D02*
X038000000Y043980000D01*
D17*
X053862500Y-12950000D02*
X054162588Y-13249999D01*
D17*
X054162588Y-13249999D02*
X054162589Y-13250001D01*
D11*
X054162589Y-13250001D02*
X054428333Y-13515667D01*
D11*
X054428333Y-13515667D02*
X054994167Y-14081333D01*
D11*
X054994167Y-14081333D02*
X055560000Y-14647000D01*
D11*
X055560000Y-14647000D02*
X056408000Y-14647000D01*
D11*
X056408000Y-14647000D02*
X057256000Y-14647000D01*
D11*
X057256000Y-14647000D02*
X058104000Y-14647000D01*
D11*
X058104000Y-14647000D02*
X058952000Y-14647000D01*
D11*
X058952000Y-14647000D02*
X058952000Y-14647000D01*
D12*
X058825000Y040000000D02*
X058825000Y039525001D01*
D12*
X058825000Y039525001D02*
X058825000Y039524999D01*
D11*
X058825000Y039524999D02*
X058825000Y038500000D01*
D11*
X058825000Y038500000D02*
X057000000Y038500000D01*
D11*
X057000000Y038500000D02*
X051307192Y038500000D01*
D11*
X051307192Y038500000D02*
X049073634Y040733558D01*
D11*
X049073634Y040733558D02*
X048095235Y040733558D01*
D11*
X048095235Y040733558D02*
X047116836Y040733558D01*
D11*
X047116836Y040733558D02*
X046138437Y040733558D01*
D11*
X046138437Y040733558D02*
X045160038Y040733558D01*
D11*
X045160038Y040733558D02*
X044181639Y040733558D01*
D11*
X044181639Y040733558D02*
X040935197Y043980000D01*
D11*
X040935197Y043980000D02*
X038000000Y043980000D01*
D11*
X008650000Y043270000D02*
X008650000Y044150000D01*
D11*
X008650000Y044150000D02*
X007600000Y045200000D01*
D11*
X007600000Y045200000D02*
X004800000Y045200000D01*
D11*
X004800000Y045200000D02*
X002000000Y042400000D01*
D11*
X002000000Y042400000D02*
X001200000Y042400000D01*
D11*
X001200000Y042400000D02*
X000904459Y042104459D01*
D11*
X000904459Y042104459D02*
X000608096Y042104459D01*
D11*
X000608096Y042104459D02*
X-00359768Y042104459D01*
D11*
X-00359768Y042104459D02*
X-01327631Y042104459D01*
D11*
X-01327631Y042104459D02*
X-02295495Y042104459D01*
D11*
X-02295495Y042104459D02*
X-03263359Y042104459D01*
D11*
X-03263359Y042104459D02*
X-04231222Y042104459D01*
D11*
X-04231222Y042104459D02*
X-05199086Y042104459D01*
D11*
X-05199086Y042104459D02*
X-06166950Y042104459D01*
D11*
X-06166950Y042104459D02*
X-07134813Y042104459D01*
D11*
X-07134813Y042104459D02*
X-08102677Y042104459D01*
D11*
X-08102677Y042104459D02*
X-09070541Y042104459D01*
D11*
X-09070541Y042104459D02*
X-09691432Y041483568D01*
D11*
X-09691432Y041483568D02*
X-10312324Y040862676D01*
D11*
X-10312324Y040862676D02*
X-10933216Y040241784D01*
D11*
X-10933216Y040241784D02*
X-11554108Y039620892D01*
D11*
X-11554108Y039620892D02*
X-11774999Y039400001D01*
D11*
X-11774999Y039400001D02*
X-11775001Y039399999D01*
D12*
X-11775001Y039399999D02*
X-12175000Y039000000D01*
D11*
X003021000Y009002000D02*
X003021000Y009002000D01*
D11*
X003021000Y009002000D02*
X003021000Y008273000D01*
D11*
X003021000Y008273000D02*
X003021000Y007544000D01*
D11*
X003021000Y007544000D02*
X003558348Y007006652D01*
D11*
X003558348Y007006652D02*
X004095696Y006469304D01*
D11*
X004095696Y006469304D02*
X004633043Y005931957D01*
D11*
X004633043Y005931957D02*
X005170391Y005394609D01*
D11*
X005170391Y005394609D02*
X005197000Y005368000D01*
D11*
X005197000Y005368000D02*
X005197000Y005368000D01*
D18*
X005574000Y002413000D02*
X005574000Y002413000D01*
D18*
X005574000Y002413000D02*
X006432945Y002413000D01*
D18*
X006432945Y002413000D02*
X007291891Y002413000D01*
D11*
X007291891Y002413000D02*
X007666138Y002787248D01*
D11*
X007666138Y002787248D02*
X007709248Y002787248D01*
D11*
X007709248Y002787248D02*
X007809000Y002887000D01*
D11*
X007809000Y002887000D02*
X007809000Y002887000D01*
D19*
X008997000Y003158000D02*
X008997000Y003158000D01*
D19*
X008997000Y003158000D02*
X009748500Y003266500D01*
D19*
X009748500Y003266500D02*
X010922500Y003266500D01*
D20*
X010922500Y003266500D02*
X011643000Y003987000D01*
D19*
X011643000Y003987000D02*
X011643000Y003987000D01*
D20*
X012384000Y007622000D02*
X012384000Y007622000D01*
D20*
X012384000Y007622000D02*
X013383750Y007622000D01*
D20*
X013383750Y007622000D02*
X014383500Y007622000D01*
D11*
X014383500Y007622000D02*
X015383250Y007622000D01*
D11*
X015383250Y007622000D02*
X016383000Y007622000D01*
D11*
X016383000Y007622000D02*
X017382750Y007622000D01*
D11*
X017382750Y007622000D02*
X018382500Y007622000D01*
D11*
X018382500Y007622000D02*
X019382250Y007622000D01*
D11*
X019382250Y007622000D02*
X020382000Y007622000D01*
D11*
X020382000Y007622000D02*
X021056667Y008296667D01*
D11*
X021056667Y008296667D02*
X021731333Y008971333D01*
D11*
X021731333Y008971333D02*
X022406000Y009646000D01*
D11*
X022406000Y009646000D02*
X023080667Y010320667D01*
D11*
X023080667Y010320667D02*
X023755333Y010995333D01*
D11*
X023755333Y010995333D02*
X024430000Y011670000D01*
D11*
X-41620000Y037810000D02*
X-40646280Y037810000D01*
D11*
X-40646280Y037810000D02*
X-39672560Y037810000D01*
D11*
X-39672560Y037810000D02*
X-38698840Y037810000D01*
D11*
X-38698840Y037810000D02*
X-37725120Y037810000D01*
D11*
X-37725120Y037810000D02*
X-36751400Y037810000D01*
D11*
X-36751400Y037810000D02*
X-35777680Y037810000D01*
D11*
X-35777680Y037810000D02*
X-34803960Y037810000D01*
D11*
X-34803960Y037810000D02*
X-33830240Y037810000D01*
D11*
X-33830240Y037810000D02*
X-32856520Y037810000D01*
D11*
X-32856520Y037810000D02*
X-31882800Y037810000D01*
D11*
X-31882800Y037810000D02*
X-30909080Y037810000D01*
D11*
X-30909080Y037810000D02*
X-29935360Y037810000D01*
D11*
X-29935360Y037810000D02*
X-28961640Y037810000D01*
D11*
X-28961640Y037810000D02*
X-27987920Y037810000D01*
D11*
X-27987920Y037810000D02*
X-27014200Y037810000D01*
D11*
X-27014200Y037810000D02*
X-26040480Y037810000D01*
D11*
X-26040480Y037810000D02*
X-25066760Y037810000D01*
D11*
X-25066760Y037810000D02*
X-24756760Y037500000D01*
D11*
X-24756760Y037500000D02*
X-17000000Y037500000D01*
D11*
X-17000000Y037500000D02*
X-16087500Y037500000D01*
D11*
X-16087500Y037500000D02*
X-16087500Y039000000D01*
D12*
X-12175000Y039000000D02*
X-11775001Y038600001D01*
D12*
X-11775001Y038600001D02*
X-11774999Y038599999D01*
D11*
X-11774999Y038599999D02*
X001570000Y025255000D01*
D11*
X001570000Y025255000D02*
X001570000Y011670000D01*
D12*
X047825000Y-15000000D02*
X048178553Y-14646447D01*
D11*
X048178553Y-14646447D02*
X044045220Y-10513113D01*
D11*
X044045220Y-10513113D02*
X042332107Y-08800000D01*
D11*
X042332107Y-08800000D02*
X040000000Y-08800000D01*
D11*
X040000000Y-08800000D02*
X040000000Y-08800000D01*
D11*
X039673000Y-02496000D02*
X039673000Y-02496000D01*
D11*
X039673000Y-02496000D02*
X039668690Y-02491690D01*
D11*
X039668690Y-02491690D02*
X038962406Y-01785406D01*
D11*
X038962406Y-01785406D02*
X038256122Y-01079122D01*
D11*
X038256122Y-01079122D02*
X037549838Y-00372838D01*
D11*
X037549838Y-00372838D02*
X036843554Y000333446D01*
D11*
X036843554Y000333446D02*
X036137271Y001039729D01*
D11*
X036137271Y001039729D02*
X035430987Y001746013D01*
D11*
X035430987Y001746013D02*
X034724703Y002452297D01*
D11*
X034724703Y002452297D02*
X034018419Y003158581D01*
D11*
X034018419Y003158581D02*
X033312135Y003864865D01*
D11*
X033312135Y003864865D02*
X032605851Y004571149D01*
D11*
X032605851Y004571149D02*
X031899568Y005277432D01*
D11*
X031899568Y005277432D02*
X031193284Y005983716D01*
D11*
X031193284Y005983716D02*
X030487000Y006690000D01*
D11*
X030487000Y006690000D02*
X029855500Y006690000D01*
D11*
X029855500Y006690000D02*
X029224000Y006690000D01*
D11*
X029224000Y006690000D02*
X029224000Y006690000D01*
D10*
X077912500Y-30000000D02*
X071659000Y-36254000D01*
D10*
X071659000Y-36254000D02*
X069440000Y-36254000D01*
D10*
X069440000Y-36254000D02*
X069440000Y-36254000D01*
D10*
X071810000Y-21460000D02*
X076088000Y-25738000D01*
D10*
X076088000Y-25738000D02*
X076087500Y-30000000D01*
D10*
X060635000Y-46365000D02*
X059541767Y-47458233D01*
D10*
X059541767Y-47458233D02*
X059365000Y-47635000D01*
D10*
X073080000Y-30000000D02*
X071810000Y-28730000D01*
D10*
X071810000Y-28730000D02*
X071810000Y-26540000D01*
D10*
X073080000Y-30000000D02*
X069103218Y-33976782D01*
D10*
X069103218Y-33976782D02*
X069103218Y-34177000D01*
D10*
X069103218Y-34177000D02*
X069103218Y-38714436D01*
D10*
X069103218Y-38714436D02*
X069209676Y-38820893D01*
D10*
X069209676Y-38820893D02*
X065452569Y-42578000D01*
D10*
X065452569Y-42578000D02*
X063018000Y-42578000D01*
D10*
X063018000Y-42578000D02*
X063018000Y-42578000D01*
D10*
X061501000Y-44205000D02*
X061501000Y-44205000D01*
D10*
X061501000Y-44205000D02*
X061500807Y-44205193D01*
D10*
X061500807Y-44205193D02*
X061500807Y-44223896D01*
D10*
X061500807Y-44223896D02*
X060635000Y-45089703D01*
D10*
X060635000Y-45089703D02*
X060635000Y-46365000D01*
D10*
X059912500Y-27000000D02*
X059980000Y-27067000D01*
D10*
X059980000Y-27067000D02*
X059980000Y-28350000D01*
D10*
X059980000Y-28350000D02*
X059980000Y-28350000D01*
D10*
X060174000Y-30590000D02*
X060174000Y-30590000D01*
D10*
X060174000Y-30590000D02*
X060179887Y-30595887D01*
D10*
X060179887Y-30595887D02*
X060179887Y-30599856D01*
D10*
X060179887Y-30599856D02*
X061905000Y-32324969D01*
D10*
X061905000Y-32324969D02*
X061905000Y-47635000D01*
D10*
X062920000Y-30000000D02*
X061088000Y-30000000D01*
D10*
X061088000Y-30000000D02*
X058087500Y-27000000D01*
D10*
X068912500Y-18000000D02*
X065453000Y-21460000D01*
D10*
X065453000Y-21460000D02*
X064190000Y-21460000D01*
D10*
X057912500Y-30000000D02*
X056970000Y-30943000D01*
D10*
X056970000Y-30943000D02*
X056970000Y-34157000D01*
D10*
X056970000Y-34157000D02*
X056970000Y-34157000D01*
D10*
X051810000Y-21460000D02*
X056088000Y-25738000D01*
D10*
X056088000Y-25738000D02*
X056087500Y-30000000D01*
D10*
X040635000Y-46365000D02*
X039541767Y-47458233D01*
D10*
X039541767Y-47458233D02*
X039365000Y-47635000D01*
D10*
X053080000Y-30000000D02*
X051810000Y-28730000D01*
D10*
X051810000Y-28730000D02*
X051810000Y-26540000D01*
D10*
X053080000Y-30000000D02*
X052457590Y-30622410D01*
D10*
X052457590Y-30622410D02*
X052457590Y-35620834D01*
D10*
X052457590Y-35620834D02*
X044743424Y-43335000D01*
D10*
X044743424Y-43335000D02*
X042655000Y-43335000D01*
D10*
X042655000Y-43335000D02*
X042655000Y-43335000D01*
D10*
X040843000Y-44069000D02*
X040843000Y-44069000D01*
D10*
X040843000Y-44069000D02*
X040880250Y-44106250D01*
D10*
X040880250Y-44106250D02*
X040880250Y-44216694D01*
D10*
X040880250Y-44216694D02*
X040635000Y-44461943D01*
D10*
X040635000Y-44461943D02*
X040635000Y-46365000D01*
D10*
X035912500Y-27000000D02*
X036007439Y-27094439D01*
D10*
X036007439Y-27094439D02*
X036007439Y-27210411D01*
D10*
X036007439Y-27210411D02*
X041905000Y-33107973D01*
D10*
X041905000Y-33107973D02*
X041905000Y-47635000D01*
D10*
X042920000Y-30000000D02*
X039322992Y-30000000D01*
D10*
X039322992Y-30000000D02*
X037977561Y-28654569D01*
D10*
X037977561Y-28654569D02*
X037969569Y-28654569D01*
D10*
X037969569Y-28654569D02*
X037909000Y-28594000D01*
D10*
X037909000Y-28594000D02*
X037909000Y-28594000D01*
D10*
X036342000Y-28730000D02*
X036342000Y-28730000D01*
D10*
X036342000Y-28730000D02*
X035818000Y-28730000D01*
D10*
X035818000Y-28730000D02*
X034087500Y-27000000D01*
D10*
X042920000Y-30000000D02*
X045810000Y-30000000D01*
D10*
X045810000Y-30000000D02*
X051810000Y-24000000D01*
D10*
X048912500Y-18000000D02*
X047167000Y-19746000D01*
D10*
X047167000Y-19746000D02*
X045469000Y-19746000D01*
D10*
X045469000Y-19746000D02*
X045469000Y-19746000D01*
D10*
X047825000Y-10000000D02*
X046545963Y-11279037D01*
D10*
X046545963Y-11279037D02*
X046076414Y-11279037D01*
D10*
X046076414Y-11279037D02*
X046076414Y-11279037D01*
D10*
X046200000Y-14000000D02*
X046200000Y-14000000D01*
D10*
X046200000Y-14000000D02*
X046192321Y-14007679D01*
D10*
X046192321Y-14007679D02*
X046175000Y-14025000D01*
D10*
X046175000Y-14025000D02*
X046175000Y-15000000D01*
D10*
X047825000Y-10000000D02*
X052813000Y-10000000D01*
D10*
X052813000Y-10000000D02*
X053862500Y-11050000D01*
D10*
X070500000Y-06000000D02*
X064500000Y-12000000D01*
D10*
X064500000Y-12000000D02*
X056137500Y-12000000D01*
D10*
X058825000Y044000000D02*
X056670000Y041845000D01*
D10*
X056670000Y041845000D02*
X056506000Y041845000D01*
D10*
X056506000Y041845000D02*
X056506000Y041845000D01*
D10*
X056400000Y040400000D02*
X056400000Y040400000D01*
D10*
X056400000Y040400000D02*
X056485400Y040314600D01*
D10*
X056485400Y040314600D02*
X056555401Y040314600D01*
D10*
X056555401Y040314600D02*
X056870001Y040000000D01*
D10*
X056870001Y040000000D02*
X057175000Y040000000D01*
D10*
X058825000Y044000000D02*
X062460000Y044000000D01*
D10*
X062460000Y044000000D02*
X064460000Y046000000D01*
D11*
X-44160000Y035270000D02*
X-41620000Y035270000D01*
D11*
X-59460000Y025292500D02*
X-49483000Y035270000D01*
D11*
X-49483000Y035270000D02*
X-44160000Y035270000D01*
D11*
X-44160000Y032730000D02*
X-41620000Y032730000D01*
D46*
X018880000Y-10300000D03*
D46*
X005577000Y-04817000D03*
D46*
X004208000Y-00848000D03*
D46*
X-26154000Y-32249000D03*
D46*
X018783000Y-09033000D03*
D46*
X-03031000Y-22352000D03*
D46*
X-03372000Y-23381000D03*
D46*
X-21647000Y-32811000D03*
D46*
X045296000Y-19158000D03*
D46*
X028410000Y-03032000D03*
D46*
X026554000Y016370000D03*
D46*
X025980000Y-30240000D03*
D46*
X021810000Y002182000D03*
D46*
X022221000Y-12217000D03*
D46*
X027106000Y-14434000D03*
D46*
X027109000Y-16765000D03*
D46*
X021100000Y026214000D03*
D46*
X010384000Y020417000D03*
D46*
X010017000Y014784000D03*
D46*
X005657000Y-02199000D03*
D46*
X004366000Y-09251000D03*
D46*
X010971000Y000846000D03*
D46*
X010776000Y-06192000D03*
D46*
X011959000Y028447000D03*
D46*
X005417000Y-18630000D03*
D46*
X007654000Y-10793000D03*
D46*
X010438000Y-12364000D03*
D46*
X009626000Y-21382000D03*
D46*
X009910000Y002805000D03*
D46*
X011599000Y002434000D03*
D46*
X011600000Y-10993000D03*
D46*
X009384000Y-14212000D03*
D46*
X008597000Y-23325000D03*
D46*
X005423000Y036588000D03*
D46*
X-09406000Y-16170000D03*
D46*
X-08594000Y-17422000D03*
D46*
X002772000Y-32612000D03*
D46*
X037634000Y002545000D03*
D46*
X035761000Y-01173000D03*
D46*
X-04999000Y-36212000D03*
D46*
X-06583000Y-36378000D03*
D46*
X-22585000Y-34179000D03*
D46*
X056477000Y042843000D03*
D46*
X015567000Y-33097000D03*
D46*
X-48405000Y017001000D03*
D46*
X-03199000Y-16811000D03*
D46*
X-02055000Y-16981000D03*
D46*
X004419000Y-21587000D03*
D46*
X009124000Y-21377000D03*
D46*
X014025000Y-31309000D03*
D46*
X-47400000Y011000000D03*
D46*
X-61621000Y-10823000D03*
D46*
X022404000Y032232000D03*
D46*
X010855000Y016412000D03*
D46*
X010666000Y015273000D03*
D46*
X006805000Y015633000D03*
D46*
X005884000Y014777000D03*
D46*
X-14942000Y037500000D03*
D46*
X-11200000Y036800000D03*
D46*
X058952000Y-14647000D03*
D46*
X003021000Y009002000D03*
D46*
X005197000Y005368000D03*
D46*
X005574000Y002413000D03*
D46*
X007809000Y002887000D03*
D46*
X008997000Y003158000D03*
D46*
X011643000Y003987000D03*
D46*
X012384000Y007622000D03*
D46*
X040000000Y-08800000D03*
D46*
X039673000Y-02496000D03*
D46*
X029224000Y006690000D03*
D46*
X069440000Y-36254000D03*
D46*
X063018000Y-42578000D03*
D46*
X061501000Y-44205000D03*
D46*
X059980000Y-28350000D03*
D46*
X060174000Y-30590000D03*
D46*
X056970000Y-34157000D03*
D46*
X042655000Y-43335000D03*
D46*
X040843000Y-44069000D03*
D46*
X037909000Y-28594000D03*
D46*
X036342000Y-28730000D03*
D46*
X045469000Y-19746000D03*
D46*
X046076414Y-11279037D03*
D46*
X046200000Y-14000000D03*
D46*
X056506000Y041845000D03*
D46*
X056400000Y040400000D03*
M02*