%TF.GenerationSoftware,tscircuit,circuit-json-to-gerber,0.0.93*%
%TF.CreationDate,2026-08-31T07:14:13.100Z*%
%TF.SameCoordinates,Original*%
%TF.FileFunction,Copper,L1,Top*%
%TF.FilePolarity,Positive*%
%FSLAX46Y46*%
%MOMM*%
G04 Gerber Fmt 4.6, Leading zero omitted, Abs format (unit mm)*
G04 Created by tscircuit (builder) date 2026-08-31T07:14:13.100Z*
G01*
%LPD*%
G75*
G04 APERTURE MACROS START*
%AMHORZPILL*
0 Horizontal pill (stadium) shape macro*
0 Parameters:*
0 $1 = Total width*
0 $2 = Total height*
0 $3 = Circle diameter (equal to height)*
0 $4 = Circle center offset
0 21 = Center Line(Exposure, Width, Height, Center X, Center Y, Rotation)*
0 1 = Circle(Exposure, Diameter, Center X, Center Y, Rotation)*
21,1,$1-$3,$2,0.0,0.0,0.0*
1,1,$3,0.0-$4,0.0*
1,1,$3,$4,0.0*%
%AMVERTPILL*
0 Vertical pill (stadium) shape macro*
0 Parameters:*
0 $1 = Total width*
0 $2 = Total height*
0 $3 = Circle diameter (equal to width)*
0 $4 = Circle center offset
0 21 = Center Line(Exposure, Width, Height, Center X, Center Y, Rotation)*
21,1,$1,$2-$3,0.0,0.0,0.0*
1,1,$3,0.0,0.0-$4*
1,1,$3,0.0,$4*%
%AMROUNDRECT*
0 Rectangle with rounded corners*
0 $1 Corner radius*
0 $2 $3 $4 $5 $6 $7 $8 $9 X,Y Position of each corner*
0 Polygon box body*
4,1,4,$2,$3,$4,$5,$6,$7,$8,$9,$2,$3,0*
0 Circles for rounded corners*
1,1,$1+$1,$2,$3*
1,1,$1+$1,$4,$5*
1,1,$1+$1,$6,$7*
1,1,$1+$1,$8,$9*
0 Rectangles between the rounded corners*
20,1,$1+$1,$2,$3,$4,$5,0*
20,1,$1+$1,$4,$5,$6,$7,0*
20,1,$1+$1,$6,$7,$8,$9,0*
20,1,$1+$1,$8,$9,$2,$3,0*%
G04 APERTURE MACROS END*
G04 aperture START LIST*
%ADD10C,0.150000*%
%ADD11C,1.000000*%
%ADD12C,0.800000*%
%ADD13C,0.625000*%
%ADD14C,0.300000*%
%ADD15C,0.275000*%
%ADD16C,0.350000*%
%ADD17C,0.350000*%
%ADD18C,0.600000*%
%ADD19C,0.525000*%
%ADD20C,0.975000*%
%ADD21C,0.900000*%
%ADD22C,0.600000*%
%ADD23C,0.400000*%
%ADD24C,0.375000*%
%ADD25C,0.325000*%
%ADD26C,0.575000*%
%ADD27C,0.650000*%
%ADD28R,1.500000X1.500000*%
%ADD29C,1.500000*%
%ADD30C,0.063000*%
%ADD31C,0.200000*%
%ADD32C,0.108000*%
%ADD33R,1.800000X1.800000*%
%ADD34C,0.081000*%
%ADD35C,0.090000*%
%ADD36C,0.100000*%
%ADD37R,1.700000X1.700000*%
%ADD38R,1.025000X1.400000*%
%ADD39R,0.717500X0.980000*%
%ADD40C,0.120000*%
%ADD41C,0.036000*%
%ADD42R,2.200000X2.200000*%
%ADD43C,0.150000*%
%ADD44R,0.800000X0.950000*%
%ADD45R,0.560000X0.665000*%
%ADD46R,2.800000X2.800000*%
%ADD47C,0.072000*%
%ADD48R,2.000000X2.000000*%
%ADD49R,1.325000X0.600000*%
%ADD50R,0.927500X0.420000*%
%ADD51C,0.045000*%
%ADD52C,1.400000*%
%ADD53C,0.300000*%
%TD*%
G04 aperture END LIST*
D28*
X001570000Y-41670000D03*
D29*
X001570000Y-39130000D03*
D29*
X001570000Y-36590000D03*
D29*
X001570000Y-34050000D03*
D29*
X001570000Y-31510000D03*
D29*
X001570000Y-28970000D03*
D29*
X001570000Y-26430000D03*
D29*
X001570000Y-23890000D03*
D29*
X001570000Y-21350000D03*
D29*
X001570000Y-18810000D03*
D29*
X001570000Y-16270000D03*
D29*
X001570000Y-13730000D03*
D29*
X001570000Y-11190000D03*
D29*
X001570000Y-08650000D03*
D29*
X001570000Y-06110000D03*
D29*
X001570000Y-03570000D03*
D29*
X001570000Y-01030000D03*
D29*
X001570000Y001510000D03*
D29*
X001570000Y004050000D03*
D29*
X001570000Y006590000D03*
D29*
X001570000Y009130000D03*
D29*
X001570000Y011670000D03*
D28*
X024430000Y-41670000D03*
D29*
X024430000Y-39130000D03*
D29*
X024430000Y-36590000D03*
D29*
X024430000Y-34050000D03*
D29*
X024430000Y-31510000D03*
D29*
X024430000Y-28970000D03*
D29*
X024430000Y-26430000D03*
D29*
X024430000Y-23890000D03*
D29*
X024430000Y-21350000D03*
D29*
X024430000Y-18810000D03*
D29*
X024430000Y-16270000D03*
D29*
X024430000Y-13730000D03*
D29*
X024430000Y-11190000D03*
D29*
X024430000Y-08650000D03*
D29*
X024430000Y-06110000D03*
D29*
X024430000Y-03570000D03*
D29*
X024430000Y-01030000D03*
D29*
X024430000Y001510000D03*
D29*
X024430000Y004050000D03*
D29*
X024430000Y006590000D03*
D29*
X024430000Y009130000D03*
D29*
X024430000Y011670000D03*
D28*
X-70540000Y-15000000D03*
D29*
X-68000000Y-15000000D03*
D29*
X-65460000Y-15000000D03*
D28*
X-70540000Y000000000D03*
D29*
X-68000000Y000000000D03*
D29*
X-65460000Y000000000D03*
D28*
X-76500000Y015000000D03*
D33*
X-64540000Y025292500D03*
D33*
X-59460000Y025292500D03*
D33*
X-44160000Y040350000D03*
D33*
X-41620000Y040350000D03*
D33*
X-44160000Y037810000D03*
D33*
X-41620000Y037810000D03*
D33*
X-44160000Y035270000D03*
D33*
X-41620000Y035270000D03*
D33*
X-44160000Y032730000D03*
D33*
X-41620000Y032730000D03*
D37*
X-09840000Y-25650000D03*
D37*
X-09840000Y-28190000D03*
D37*
X-09840000Y-30730000D03*
D37*
X-09840000Y-33270000D03*
D37*
X-09840000Y-35810000D03*
D37*
X-09840000Y-38350000D03*
D37*
X-30160000Y-25650000D03*
D37*
X-30160000Y-28190000D03*
D37*
X-30160000Y-30730000D03*
D37*
X-30160000Y-33270000D03*
D37*
X-30160000Y-35810000D03*
D37*
X-30160000Y-38350000D03*
D38*
X-48912500Y-18000000D03*
D38*
X-47087500Y-18000000D03*
D38*
X-48912500Y-12000000D03*
D38*
X-47087500Y-12000000D03*
D38*
X-48912500Y-06000000D03*
D38*
X-47087500Y-06000000D03*
D38*
X-48912500Y000000000D03*
D38*
X-47087500Y000000000D03*
D38*
X-48912500Y006000000D03*
D38*
X-47087500Y006000000D03*
D38*
X-48912500Y012000000D03*
D38*
X-47087500Y012000000D03*
D38*
X-48912500Y018000000D03*
D38*
X-47087500Y018000000D03*
D42*
X069540000Y046000000D03*
D42*
X067000000Y046000000D03*
D42*
X064460000Y046000000D03*
D44*
X057175000Y044000000D03*
D44*
X058825000Y044000000D03*
D44*
X057175000Y040000000D03*
D44*
X058825000Y040000000D03*
D33*
X006110000Y040730000D03*
D33*
X006110000Y043270000D03*
D33*
X008650000Y040730000D03*
D33*
X008650000Y043270000D03*
D33*
X011190000Y040730000D03*
D33*
X011190000Y043270000D03*
D33*
X013730000Y040730000D03*
D33*
X013730000Y043270000D03*
D33*
X016270000Y040730000D03*
D33*
X016270000Y043270000D03*
D33*
X018810000Y040730000D03*
D33*
X018810000Y043270000D03*
D33*
X021350000Y040730000D03*
D33*
X021350000Y043270000D03*
D33*
X023890000Y040730000D03*
D33*
X023890000Y043270000D03*
D46*
X038000000Y036060000D03*
D46*
X038000000Y040020000D03*
D46*
X038000000Y043980000D03*
D46*
X038000000Y047940000D03*
D48*
X065500000Y016000000D03*
D48*
X070500000Y016000000D03*
D49*
X053862500Y010950000D03*
D49*
X053862500Y009050000D03*
D49*
X056137500Y010000000D03*
D44*
X046175000Y012000000D03*
D44*
X047825000Y012000000D03*
D44*
X046175000Y007000000D03*
D44*
X047825000Y007000000D03*
D38*
X-17912500Y039000000D03*
D38*
X-16087500Y039000000D03*
D44*
X-13825000Y039000000D03*
D44*
X-12175000Y039000000D03*
D52*
X041905000Y-33070000D03*
D52*
X040635000Y-30530000D03*
D52*
X039365000Y-33070000D03*
D52*
X038095000Y-30530000D03*
D33*
X044190000Y-09460000D03*
D33*
X044190000Y-12000000D03*
D33*
X044190000Y-14540000D03*
D33*
X051810000Y-14540000D03*
D33*
X051810000Y-12000000D03*
D33*
X051810000Y-09460000D03*
D38*
X047087500Y-06000000D03*
D38*
X048912500Y-06000000D03*
D38*
X034087500Y-15000000D03*
D38*
X035912500Y-15000000D03*
D38*
X056087500Y-08000000D03*
D38*
X057912500Y-08000000D03*
D48*
X042920000Y-18000000D03*
D48*
X053080000Y-18000000D03*
D52*
X061905000Y-33070000D03*
D52*
X060635000Y-30530000D03*
D52*
X059365000Y-33070000D03*
D52*
X058095000Y-30530000D03*
D33*
X064190000Y-09460000D03*
D33*
X064190000Y-12000000D03*
D33*
X064190000Y-14540000D03*
D33*
X071810000Y-14540000D03*
D33*
X071810000Y-12000000D03*
D33*
X071810000Y-09460000D03*
D38*
X067087500Y-06000000D03*
D38*
X068912500Y-06000000D03*
D38*
X058087500Y-15000000D03*
D38*
X059912500Y-15000000D03*
D38*
X076087500Y-08000000D03*
D38*
X077912500Y-08000000D03*
D48*
X062920000Y-18000000D03*
D48*
X073080000Y-18000000D03*
D10*
X024430000Y-21350000D02*
X022942000Y-19862000D01*
D10*
X022942000Y-19862000D02*
X021807000Y-19862000D01*
D10*
X021807000Y-19862000D02*
X021807000Y-19862000D01*
D10*
X020411000Y-19532000D02*
X020411000Y-19532000D01*
D10*
X020411000Y-19532000D02*
X020377719Y-19498719D01*
D10*
X020377719Y-19498719D02*
X020376880Y-19498719D01*
D10*
X020376880Y-19498719D02*
X019940679Y-19062518D01*
D10*
X019940679Y-19062518D02*
X018872853Y-19062518D01*
D10*
X018872853Y-19062518D02*
X004952371Y-32983000D01*
D10*
X004952371Y-32983000D02*
X-00609000Y-32983000D01*
D10*
X-00609000Y-32983000D02*
X-00609000Y-32983000D01*
D10*
X-04000000Y-36800000D02*
X-04000000Y-36800000D01*
D10*
X-04000000Y-36800000D02*
X-04028346Y-36828346D01*
D10*
X-04028346Y-36828346D02*
X-04028346Y-36871145D01*
D10*
X-04028346Y-36871145D02*
X-05507201Y-38350000D01*
D10*
X-05507201Y-38350000D02*
X-09840000Y-38350000D01*
D10*
X018861000Y-10806000D02*
X018861000Y-10806000D01*
D10*
X018861000Y-10806000D02*
X018798534Y-10868466D01*
D10*
X018798534Y-10868466D02*
X018723038Y-10868466D01*
D10*
X018723038Y-10868466D02*
X009797504Y-19794000D01*
D10*
X009797504Y-19794000D02*
X008423000Y-19794000D01*
D10*
X008423000Y-19794000D02*
X008423000Y-19794000D01*
D10*
X007174000Y-20616000D02*
X007174000Y-20616000D01*
D10*
X007174000Y-20616000D02*
X007168865Y-20621135D01*
D10*
X007168865Y-20621135D02*
X007168400Y-20621135D01*
D10*
X007168400Y-20621135D02*
X005400985Y-22388550D01*
D10*
X005400985Y-22388550D02*
X-00171910Y-22388550D01*
D10*
X-00171910Y-22388550D02*
X-01357260Y-23573900D01*
D10*
X-01357260Y-23573900D02*
X-01357260Y-27327260D01*
D10*
X-01357260Y-27327260D02*
X-09840000Y-35810000D01*
D10*
X024430000Y004050000D02*
X018312000Y004050000D01*
D10*
X018312000Y004050000D02*
X007276000Y-06986000D01*
D10*
X007276000Y-06986000D02*
X007276000Y-06986000D01*
D10*
X006231000Y-06157000D02*
X006231000Y-06157000D01*
D10*
X006231000Y-06157000D02*
X006129496Y-06258504D01*
D10*
X006129496Y-06258504D02*
X002354756Y-10033244D01*
D10*
X002354756Y-10033244D02*
X-05803915Y-10033244D01*
D10*
X-05803915Y-10033244D02*
X-20910000Y-25139328D01*
D10*
X-20910000Y-25139328D02*
X-20910000Y-32025000D01*
D10*
X-20910000Y-32025000D02*
X-20910000Y-32025000D01*
D10*
X018782000Y-05834000D02*
X018782000Y-05834000D01*
D10*
X018782000Y-05834000D02*
X018712842Y-05903158D01*
D10*
X018712842Y-05903158D02*
X018574496Y-05903158D01*
D10*
X018574496Y-05903158D02*
X008775655Y-15702000D01*
D10*
X008775655Y-15702000D02*
X008639000Y-15702000D01*
D10*
X008639000Y-15702000D02*
X008639000Y-15702000D01*
D10*
X007597000Y-15813000D02*
X007597000Y-15813000D01*
D10*
X007597000Y-15813000D02*
X007559876Y-15850124D01*
D10*
X007559876Y-15850124D02*
X007434202Y-15850124D01*
D10*
X007434202Y-15850124D02*
X006886940Y-16397386D01*
D10*
X006886940Y-16397386D02*
X005164332Y-16397386D01*
D10*
X005164332Y-16397386D02*
X005164332Y-16969298D01*
D10*
X005164332Y-16969298D02*
X002252182Y-19881448D01*
D10*
X002252182Y-19881448D02*
X-00206448Y-19881448D01*
D10*
X-00206448Y-19881448D02*
X-00763000Y-20438000D01*
D10*
X-00763000Y-20438000D02*
X-00763000Y-20438000D01*
D10*
X-01628000Y-20123000D02*
X-01628000Y-20123000D01*
D10*
X-01628000Y-20123000D02*
X-01640022Y-20135022D01*
D10*
X-01640022Y-20135022D02*
X-01650863Y-20135022D01*
D10*
X-01650863Y-20135022D02*
X-04398129Y-22882287D01*
D10*
X-04398129Y-22882287D02*
X-04512593Y-22882287D01*
D10*
X-04512593Y-22882287D02*
X-04512593Y-25402593D01*
D10*
X-04512593Y-25402593D02*
X-09840000Y-30730000D01*
D10*
X001570000Y-18810000D02*
X000270179Y-18810000D01*
D10*
X000270179Y-18810000D02*
X-03900399Y-22980578D01*
D10*
X-03900399Y-22980578D02*
X-03900399Y-27330399D01*
D10*
X-03900399Y-27330399D02*
X-09840000Y-33270000D01*
D10*
X001570000Y-36590000D02*
X001393356Y-36413356D01*
D10*
X001393356Y-36413356D02*
X-04391664Y-36413356D01*
D10*
X-04391664Y-36413356D02*
X-04850104Y-36871796D01*
D10*
X-04850104Y-36871796D02*
X-29098204Y-36871796D01*
D10*
X-29098204Y-36871796D02*
X-30160000Y-35810000D01*
D10*
X047087500Y-06000000D02*
X047451568Y-05899000D01*
D10*
X047451568Y-05899000D02*
X048254120Y-05096449D01*
D10*
X048254120Y-05096449D02*
X048212196Y-05096868D01*
D10*
X048212196Y-05096868D02*
X048798990Y-05091000D01*
D10*
X048798990Y-05091000D02*
X049598990Y-05091000D01*
D10*
X049598990Y-05091000D02*
X049710722Y-05092117D01*
D10*
X049710722Y-05092117D02*
X049751609Y-05193117D01*
D10*
X049751609Y-05193117D02*
X066281117Y-05193117D01*
D10*
X066281117Y-05193117D02*
X067087500Y-06000000D01*
D10*
X047087500Y-06000000D02*
X046912204Y-06175796D01*
D10*
X046912204Y-06175796D02*
X043940204Y-06175796D01*
D10*
X043940204Y-06175796D02*
X043045238Y-06975511D01*
D10*
X043045238Y-06975511D02*
X042178643Y-07831269D01*
D10*
X042178643Y-07831269D02*
X041822000Y-08294000D01*
D10*
X041822000Y-08294000D02*
X041822000Y-08294000D01*
D10*
X036280000Y-19416000D02*
X036280000Y-19416000D01*
D10*
X036280000Y-19416000D02*
X036259622Y-19436378D01*
D10*
X036259622Y-19436378D02*
X036259622Y-27300378D01*
D10*
X036259622Y-27300378D02*
X024430000Y-39130000D01*
D10*
X046175000Y012000000D02*
X041570000Y012000000D01*
D10*
X041570000Y012000000D02*
X029113000Y-00457000D01*
D10*
X029113000Y-00457000D02*
X029113000Y-00457000D01*
D10*
X023890000Y040730000D02*
X028657200Y035962800D01*
D10*
X028657200Y035962800D02*
X028657200Y-13228982D01*
D10*
X028657200Y-13228982D02*
X028657200Y-13339837D01*
D10*
X028657200Y-13339837D02*
X025939018Y-16058018D01*
D10*
X025939018Y-16058018D02*
X025974000Y-16093000D01*
D10*
X025974000Y-16093000D02*
X025974000Y-16093000D01*
D10*
X021350000Y040730000D02*
X021350000Y023591061D01*
D10*
X021350000Y023591061D02*
X019326992Y021568053D01*
D10*
X019326992Y021568053D02*
X019326992Y012995008D01*
D10*
X019326992Y012995008D02*
X019932680Y012389320D01*
D10*
X019932680Y012389320D02*
X019939000Y012383000D01*
D10*
X019939000Y012383000D02*
X019939000Y012383000D01*
D10*
X020210000Y002182000D02*
X020210000Y002182000D01*
D10*
X020210000Y002182000D02*
X021449279Y000942721D01*
D10*
X021449279Y000942721D02*
X021449279Y-24454683D01*
D10*
X021449279Y-24454683D02*
X022454683Y-24454683D01*
D10*
X022454683Y-24454683D02*
X024430000Y-26430000D01*
D10*
X018810000Y043270000D02*
X019893750Y042186250D01*
D10*
X019893750Y042186250D02*
X019893750Y027232750D01*
D10*
X019893750Y027232750D02*
X018126190Y025465190D01*
D10*
X018126190Y025465190D02*
X018075000Y025414000D01*
D10*
X018075000Y025414000D02*
X018075000Y025414000D01*
D10*
X018923000Y-19515000D02*
X018923000Y-19515000D01*
D10*
X018923000Y-19515000D02*
X018923000Y-23463000D01*
D10*
X018923000Y-23463000D02*
X024430000Y-28970000D01*
D10*
X010577000Y015596000D02*
X010577000Y015596000D01*
D10*
X010577000Y015596000D02*
X010508892Y015527892D01*
D10*
X010508892Y015527892D02*
X010508892Y-02360948D01*
D10*
X010508892Y-02360948D02*
X006728626Y-06141214D01*
D10*
X006728626Y-06141214D02*
X001679840Y-11190000D01*
D10*
X001679840Y-11190000D02*
X001570000Y-11190000D01*
D10*
X016270000Y043270000D02*
X015073836Y042073836D01*
D10*
X015073836Y042073836D02*
X015073836Y031916348D01*
D10*
X015073836Y031916348D02*
X007261890Y024104402D01*
D10*
X007261890Y024104402D02*
X007261890Y015907560D01*
D10*
X007261890Y015907560D02*
X005360000Y014005670D01*
D10*
X005360000Y014005670D02*
X005360000Y-05051000D01*
D10*
X005360000Y-05051000D02*
X005360000Y-05051000D01*
D10*
X005353000Y-08172000D02*
X005353000Y-08172000D01*
D10*
X005353000Y-08172000D02*
X005313087Y-08211913D01*
D10*
X005313087Y-08211913D02*
X005313087Y-08280534D01*
D10*
X005313087Y-08280534D02*
X005313087Y-09986913D01*
D10*
X005313087Y-09986913D02*
X001570000Y-13730000D01*
D10*
X016270000Y040730000D02*
X016270000Y016640021D01*
D10*
X016270000Y016640021D02*
X016270000Y016284799D01*
D10*
X016270000Y016284799D02*
X016270000Y016390049D01*
D10*
X016270000Y016390049D02*
X010818870Y010938919D01*
D10*
X010818870Y010938919D02*
X010818870Y-02601314D01*
D10*
X010818870Y-02601314D02*
X006891893Y-06528291D01*
D10*
X006891893Y-06528291D02*
X006891893Y-06974497D01*
D10*
X006891893Y-06974497D02*
X006891893Y-10948107D01*
D10*
X006891893Y-10948107D02*
X001570000Y-16270000D01*
D10*
X013730000Y040730000D02*
X011259000Y038259000D01*
D10*
X011259000Y038259000D02*
X011259000Y028653000D01*
D10*
X011259000Y028653000D02*
X011259000Y028653000D01*
D10*
X008507000Y003738000D02*
X008507000Y003738000D01*
D10*
X008507000Y003738000D02*
X008485453Y003716453D01*
D10*
X008485453Y003716453D02*
X008117000Y003348000D01*
D10*
X008117000Y003348000D02*
X006643000Y003348000D01*
D10*
X006643000Y003348000D02*
X006643000Y003348000D01*
D10*
X005507000Y-16979000D02*
X005507000Y-16979000D01*
D10*
X005507000Y-16979000D02*
X005506170Y-16979830D01*
D10*
X005506170Y-16979830D02*
X005506170Y-16980515D01*
D10*
X005506170Y-16980515D02*
X005506170Y-17413830D01*
D10*
X005506170Y-17413830D02*
X001570000Y-21350000D01*
D10*
X008435000Y-08574000D02*
X008435000Y-08574000D01*
D10*
X008435000Y-08574000D02*
X008422998Y-08586002D01*
D10*
X008422998Y-08586002D02*
X008422998Y-08655876D01*
D10*
X008422998Y-08655876D02*
X008183829Y-08895044D01*
D10*
X008183829Y-08895044D02*
X008183829Y-10054344D01*
D10*
X008183829Y-10054344D02*
X002856000Y-15382174D01*
D10*
X002856000Y-15382174D02*
X002856000Y-18596000D01*
D10*
X002856000Y-18596000D02*
X002856000Y-18596000D01*
D10*
X011020000Y-04982000D02*
X011020000Y-04982000D01*
D10*
X011020000Y-04982000D02*
X010954472Y-05047528D01*
D10*
X010954472Y-05047528D02*
X010954472Y-05069359D01*
D10*
X010954472Y-05069359D02*
X009947792Y-06076039D01*
D10*
X009947792Y-06076039D02*
X009947792Y-08651085D01*
D10*
X009947792Y-08651085D02*
X008110478Y-10488399D01*
D10*
X008110478Y-10488399D02*
X008110478Y-15889172D01*
D10*
X008110478Y-15889172D02*
X007800938Y-16198712D01*
D10*
X007800938Y-16198712D02*
X007800938Y-20510457D01*
D10*
X007800938Y-20510457D02*
X001881395Y-26430000D01*
D10*
X001881395Y-26430000D02*
X001570000Y-26430000D01*
D10*
X-03472000Y-17933000D02*
X-03472000Y-17933000D01*
D10*
X-03472000Y-17933000D02*
X-03440260Y-17964740D01*
D10*
X-03440260Y-17964740D02*
X-03366428Y-17964740D01*
D10*
X-03366428Y-17964740D02*
X-02876167Y-18455000D01*
D10*
X-02876167Y-18455000D02*
X-02571000Y-18455000D01*
D10*
X-02571000Y-18455000D02*
X-02571000Y-18455000D01*
D10*
X-03741000Y-30988000D02*
X-03741000Y-30988000D01*
D10*
X-03741000Y-30988000D02*
X-03684666Y-31044334D01*
D10*
X-03684666Y-31044334D02*
X-00679000Y-34050000D01*
D10*
X-00679000Y-34050000D02*
X001570000Y-34050000D01*
D10*
X062465000Y030975000D02*
X062465000Y030975000D01*
D10*
X062465000Y030975000D02*
X062391800Y030901800D01*
D10*
X062391800Y030901800D02*
X062391800Y030883054D01*
D10*
X062391800Y030883054D02*
X046881085Y015372339D01*
D10*
X046881085Y015372339D02*
X046881085Y011560012D01*
D10*
X046881085Y011560012D02*
X044528502Y009207430D01*
D10*
X044528502Y009207430D02*
X043701393Y009207430D01*
D10*
X043701393Y009207430D02*
X043200000Y008325000D01*
D10*
X043200000Y008325000D02*
X043701393Y000461393D01*
D10*
X043701393Y000461393D02*
X024430000Y-18810000D01*
D10*
X-30160000Y-28190000D02*
X-30160000Y-30730000D01*
D10*
X001570000Y-41670000D02*
X001570000Y-39130000D01*
D10*
X057175000Y044000000D02*
X057175000Y043586000D01*
D10*
X057175000Y043586000D02*
X057588993Y043172007D01*
D10*
X057588993Y043172007D02*
X057620000Y043141000D01*
D10*
X057620000Y043141000D02*
X057620000Y043141000D01*
D10*
X057800000Y040800000D02*
X057800000Y040800000D01*
D10*
X057800000Y040800000D02*
X057800000Y036114575D01*
D10*
X057800000Y036114575D02*
X065799117Y028115458D01*
D10*
X065799117Y028115458D02*
X065799117Y016299117D01*
D10*
X065799117Y016299117D02*
X065500000Y016000000D01*
D10*
X-12439000Y-35908000D02*
X-12439000Y-35908000D01*
D10*
X-12439000Y-35908000D02*
X-12471977Y-35875023D01*
D10*
X-12471977Y-35875023D02*
X-12541314Y-35875023D01*
D10*
X-12541314Y-35875023D02*
X-25014977Y-35875023D01*
D10*
X-25014977Y-35875023D02*
X-30160000Y-30730000D01*
D10*
X029916000Y-18198000D02*
X029916000Y-18198000D01*
D10*
X029916000Y-18198000D02*
X029891638Y-18222362D01*
D10*
X029891638Y-18222362D02*
X029867553Y-18222362D01*
D10*
X029867553Y-18222362D02*
X029504915Y-18585000D01*
D10*
X029504915Y-18585000D02*
X025771000Y-18585000D01*
D10*
X025771000Y-18585000D02*
X025771000Y-18585000D01*
D10*
X013905000Y-33173000D02*
X013905000Y-33173000D01*
D10*
X013905000Y-33173000D02*
X013868779Y-33209221D01*
D10*
X013868779Y-33209221D02*
X013868779Y-33212469D01*
D10*
X013868779Y-33212469D02*
X007951247Y-39130000D01*
D10*
X007951247Y-39130000D02*
X001570000Y-39130000D01*
D10*
X-47087500Y018000000D02*
X-47824926Y017262074D01*
D10*
X-47824926Y017262074D02*
X-47824926Y017056050D01*
D10*
X-47824926Y017056050D02*
X-49880975Y015000000D01*
D10*
X-49880975Y015000000D02*
X-76500000Y015000000D01*
D10*
X-48912500Y018000000D02*
X-48405000Y017493000D01*
D10*
X-48405000Y017493000D02*
X-48405000Y017001000D01*
D10*
X-48405000Y017001000D02*
X-48405000Y017001000D01*
D10*
X-12632000Y-17431000D02*
X-12632000Y-17431000D01*
D10*
X-12632000Y-17431000D02*
X-12575327Y-17487673D01*
D10*
X-12575327Y-17487673D02*
X-02556327Y-17487673D01*
D10*
X-02556327Y-17487673D02*
X-02398000Y-17646000D01*
D10*
X-02398000Y-17646000D02*
X-02398000Y-17646000D01*
D10*
X002830000Y-20608000D02*
X002830000Y-20608000D01*
D10*
X002830000Y-20608000D02*
X002830303Y-20607697D01*
D10*
X002830303Y-20607697D02*
X002867486Y-20607697D01*
D10*
X002867486Y-20607697D02*
X002898789Y-20639000D01*
D10*
X002898789Y-20639000D02*
X005602000Y-20639000D01*
D10*
X005602000Y-20639000D02*
X005602000Y-20639000D01*
D10*
X014024000Y-31300000D02*
X014024000Y-31300000D01*
D10*
X014024000Y-31300000D02*
X014038614Y-31314614D01*
D10*
X014038614Y-31314614D02*
X014063256Y-31314614D01*
D10*
X014063256Y-31314614D02*
X016798642Y-34050000D01*
D10*
X016798642Y-34050000D02*
X024430000Y-34050000D01*
D10*
X-47087500Y012000000D02*
X-47400000Y011687000D01*
D10*
X-47400000Y011687000D02*
X-47400000Y011000000D01*
D10*
X-47400000Y011000000D02*
X-47400000Y011000000D01*
D10*
X-48912500Y012000000D02*
X-47528844Y010616844D01*
D10*
X-47528844Y010616844D02*
X-47528844Y010576002D01*
D10*
X-47528844Y010576002D02*
X-02416002Y010576002D01*
D10*
X-02416002Y010576002D02*
X001570000Y006590000D01*
D10*
X-47087500Y006000000D02*
X-47970678Y005116322D01*
D10*
X-47970678Y005116322D02*
X-62883678Y005116322D01*
D10*
X-62883678Y005116322D02*
X-68000000Y000000000D01*
D10*
X-48912500Y006000000D02*
X-48002643Y006909357D01*
D10*
X-48002643Y006909357D02*
X-47995320Y006909357D01*
D10*
X-47995320Y006909357D02*
X-01289357Y006909357D01*
D10*
X-01289357Y006909357D02*
X001570000Y004050000D01*
D10*
X-47087500Y000000000D02*
X-48044568Y-00957568D01*
D10*
X-48044568Y-00957568D02*
X-48186737Y-00957568D01*
D10*
X-48186737Y-00957568D02*
X-69582432Y-00957568D01*
D10*
X-69582432Y-00957568D02*
X-70540000Y000000000D01*
D10*
X-48912500Y000000000D02*
X-47402000Y001510000D01*
D10*
X-47402000Y001510000D02*
X001570000Y001510000D01*
D10*
X-47087500Y-06000000D02*
X-51910000Y-10823000D01*
D10*
X-51910000Y-10823000D02*
X-61621000Y-10823000D01*
D10*
X-61621000Y-10823000D02*
X-61621000Y-10823000D01*
D10*
X-48912500Y-06000000D02*
X-43942000Y-01030000D01*
D10*
X-43942000Y-01030000D02*
X001570000Y-01030000D01*
D10*
X-47087500Y-12000000D02*
X-47970696Y-12883696D01*
D10*
X-47970696Y-12883696D02*
X-65883696Y-12883696D01*
D10*
X-65883696Y-12883696D02*
X-68000000Y-15000000D01*
D10*
X-48912500Y-12000000D02*
X-40482000Y-03570000D01*
D10*
X-40482000Y-03570000D02*
X001570000Y-03570000D01*
D10*
X-47087500Y-18000000D02*
X-47997701Y-17089299D01*
D10*
X-47997701Y-17089299D02*
X-48155650Y-17089299D01*
D10*
X-48155650Y-17089299D02*
X-68450701Y-17089299D01*
D10*
X-68450701Y-17089299D02*
X-70540000Y-15000000D01*
D10*
X-48912500Y-18000000D02*
X-48149396Y-18762604D01*
D10*
X-48149396Y-18762604D02*
X-47890870Y-18762604D01*
D10*
X-47890870Y-18762604D02*
X-47887033Y-18849604D01*
D10*
X-47887033Y-18849604D02*
X-47698000Y-18897000D01*
D10*
X-47698000Y-18897000D02*
X-47400000Y-18905000D01*
D10*
X-47400000Y-18905000D02*
X-47200000Y-18905000D01*
D10*
X-47200000Y-18905000D02*
X-47000000Y-18905000D01*
D10*
X-47000000Y-18905000D02*
X-46700000Y-18905000D01*
D10*
X-46700000Y-18905000D02*
X-46415947Y-18905000D01*
D10*
X-46415947Y-18905000D02*
X-33707947Y-06197000D01*
D10*
X-33707947Y-06197000D02*
X001570000Y-06110000D01*
D11*
X-44160000Y040350000D02*
X-41620000Y040350000D01*
D11*
X038000000Y036060000D02*
X038000000Y040020000D01*
D11*
X-17912500Y039000000D02*
X-18000000Y039087500D01*
D11*
X-18000000Y039087500D02*
X-18000000Y039200000D01*
D11*
X-18000000Y039200000D02*
X-17600000Y039600000D01*
D11*
X-17600000Y039600000D02*
X-17600000Y040400000D01*
D11*
X-17600000Y040400000D02*
X-17200000Y040800000D01*
D11*
X-17200000Y040800000D02*
X-15200000Y040800000D01*
D11*
X-15200000Y040800000D02*
X-14400000Y040000000D01*
D11*
X-14400000Y040000000D02*
X-14400000Y039600000D01*
D11*
X-14400000Y039600000D02*
X-13825000Y039025000D01*
D12*
X-13825000Y039025000D02*
X-13825000Y039000000D01*
D11*
X-41620000Y040350000D02*
X-19262000Y040350000D01*
D11*
X-19262000Y040350000D02*
X-19262000Y040349500D01*
D11*
X-19262000Y040349500D02*
X-17912500Y039000000D01*
D12*
X-13825000Y039000000D02*
X-13825000Y038750000D01*
D12*
X-13825000Y038750000D02*
X-13825000Y038525000D01*
D12*
X-13825000Y038525000D02*
X-13825000Y038500000D01*
D11*
X-13825000Y038500000D02*
X-13825000Y038250000D01*
D11*
X-13825000Y038250000D02*
X-13825000Y038000000D01*
D11*
X-13825000Y038000000D02*
X-13825000Y037750000D01*
D11*
X-13825000Y037750000D02*
X-13825000Y037500000D01*
D11*
X-13825000Y037500000D02*
X-13825000Y037250000D01*
D11*
X-13825000Y037250000D02*
X-13825000Y037000000D01*
D11*
X-13825000Y037000000D02*
X-13825000Y024525000D01*
D11*
X-13825000Y024525000D02*
X001570000Y009130000D01*
D11*
X024303000Y027961000D02*
X024303000Y027961000D01*
D11*
X024303000Y027961000D02*
X024291522Y027949522D01*
D11*
X024291522Y027949522D02*
X024291522Y027002022D01*
D11*
X024291522Y027002022D02*
X024291522Y026054522D01*
D11*
X024291522Y026054522D02*
X023679618Y025442618D01*
D11*
X023679618Y025442618D02*
X023067713Y024830713D01*
D11*
X023067713Y024830713D02*
X022455809Y024218809D01*
D13*
X022455809Y024218809D02*
X021843904Y023606904D01*
D14*
X021843904Y023606904D02*
X021232000Y022995000D01*
D14*
X021232000Y022995000D02*
X021232000Y022995000D01*
D15*
X015900000Y016575000D02*
X015900000Y016575000D01*
D15*
X015900000Y016575000D02*
X015863053Y016538053D01*
D16*
X015863053Y016538053D02*
X015744326Y016538053D01*
D17*
X015744326Y016538053D02*
X015437272Y016231000D01*
D18*
X015437272Y016231000D02*
X014460613Y016231000D01*
D18*
X014460613Y016231000D02*
X014191613Y016500000D01*
D11*
X014191613Y016500000D02*
X011000000Y016500000D01*
D11*
X011000000Y016500000D02*
X009577318Y016231000D01*
D11*
X009577318Y016231000D02*
X008600659Y016231000D01*
D17*
X008600659Y016231000D02*
X007624000Y016231000D01*
D17*
X007624000Y016231000D02*
X007624000Y016231000D01*
D19*
X006806000Y016085000D02*
X006806000Y016085000D01*
D19*
X006806000Y016085000D02*
X006750064Y016029064D01*
D19*
X006750064Y016029064D02*
X006750064Y016021962D01*
D19*
X006750064Y016021962D02*
X006167495Y015439394D01*
D19*
X006167495Y015439394D02*
X005584927Y014856825D01*
D19*
X005584927Y014856825D02*
X005002359Y014274257D01*
D19*
X005002359Y014274257D02*
X004419791Y013691689D01*
D19*
X004419791Y013691689D02*
X004419791Y012873688D01*
D20*
X004419791Y012873688D02*
X004419791Y012055686D01*
D20*
X004419791Y012055686D02*
X004687500Y011625000D01*
D21*
X004687500Y011625000D02*
X004687500Y010875000D01*
D21*
X004687500Y010875000D02*
X004156250Y010500000D01*
D20*
X004156250Y010500000D02*
X003717230Y010535123D01*
D11*
X003717230Y010535123D02*
X003014668Y009832562D01*
D11*
X003014668Y009832562D02*
X002312107Y009130000D01*
D11*
X002312107Y009130000D02*
X001570000Y009130000D01*
D11*
X-44160000Y037810000D02*
X-41620000Y037810000D01*
D11*
X-09840000Y-25650000D02*
X-09840000Y-28190000D01*
D11*
X024430000Y009130000D02*
X024430000Y011670000D01*
D11*
X-16087500Y039000000D02*
X-16087500Y038839066D01*
D11*
X-16087500Y038839066D02*
X-14963930Y037715496D01*
D11*
X-14963930Y037715496D02*
X-14963930Y037521930D01*
D11*
X-14963930Y037521930D02*
X-14942000Y037500000D01*
D11*
X-14942000Y037500000D02*
X-14942000Y037500000D01*
D11*
X-11200000Y036800000D02*
X-11200000Y036800000D01*
D11*
X-11200000Y036800000D02*
X-11200000Y038025000D01*
D11*
X-11200000Y038025000D02*
X-11774999Y038599999D01*
D11*
X-11774999Y038599999D02*
X-11775001Y038600001D01*
D12*
X-11775001Y038600001D02*
X-12175000Y039000000D01*
D11*
X038000000Y043980000D02*
X038000000Y047940000D01*
D11*
X008650000Y043270000D02*
X008720000Y043200000D01*
D11*
X008720000Y043200000D02*
X008800000Y043200000D01*
D11*
X008800000Y043200000D02*
X008800000Y044000000D01*
D11*
X008800000Y044000000D02*
X009200000Y044400000D01*
D11*
X009200000Y044400000D02*
X009200000Y044800000D01*
D11*
X009200000Y044800000D02*
X009600000Y045200000D01*
D11*
X009600000Y045200000D02*
X012800000Y045200000D01*
D11*
X012800000Y045200000D02*
X013200000Y044800000D01*
D11*
X013200000Y044800000D02*
X013200000Y044000000D01*
D11*
X013200000Y044000000D02*
X013730000Y043470000D01*
D11*
X013730000Y043470000D02*
X013730000Y043270000D01*
D22*
X053862500Y009050000D02*
X053562501Y008750001D01*
D22*
X053562501Y008750001D02*
X053562499Y008749999D01*
D11*
X053562499Y008749999D02*
X051812500Y007000000D01*
D11*
X051812500Y007000000D02*
X048225001Y007000000D01*
D11*
X048225001Y007000000D02*
X048224999Y007000000D01*
D12*
X048224999Y007000000D02*
X047825000Y007000000D01*
D12*
X058825000Y040000000D02*
X059224999Y040000000D01*
D12*
X059224999Y040000000D02*
X059225001Y040000000D01*
D11*
X059225001Y040000000D02*
X059550000Y040000000D01*
D11*
X059550000Y040000000D02*
X060275000Y040000000D01*
D11*
X060275000Y040000000D02*
X061000000Y040000000D01*
D11*
X061000000Y040000000D02*
X061530330Y039469670D01*
D11*
X061530330Y039469670D02*
X067530330Y045469670D01*
D11*
X067530330Y045469670D02*
X067000000Y046000000D01*
D11*
X013730000Y043270000D02*
X013730000Y045000000D01*
D11*
X013730000Y045000000D02*
X015250000Y045000000D01*
D11*
X015250000Y045000000D02*
X023327916Y045000000D01*
D11*
X023327916Y045000000D02*
X023327916Y043832084D01*
D11*
X023327916Y043832084D02*
X023890000Y043270000D01*
D11*
X023890000Y043270000D02*
X037290000Y043270000D01*
D11*
X037290000Y043270000D02*
X038000000Y043980000D01*
D12*
X047825000Y007000000D02*
X047825000Y006525001D01*
D12*
X047825000Y006525001D02*
X047825000Y006524999D01*
D11*
X047825000Y006524999D02*
X047825000Y004023700D01*
D11*
X047825000Y004023700D02*
X044955000Y001153700D01*
D11*
X044955000Y001153700D02*
X044955000Y000161600D01*
D11*
X044955000Y000161600D02*
X044955000Y-00830500D01*
D11*
X044955000Y-00830500D02*
X044955000Y-01822600D01*
D11*
X044955000Y-01822600D02*
X044955000Y-02814700D01*
D11*
X044955000Y-02814700D02*
X044955000Y-03806800D01*
D11*
X044955000Y-03806800D02*
X044955000Y-04798900D01*
D23*
X044955000Y-04798900D02*
X044955000Y-05791000D01*
D23*
X044955000Y-05791000D02*
X044955000Y-05791000D01*
D11*
X044892000Y-06998000D02*
X044892000Y-06998000D01*
D11*
X044892000Y-06998000D02*
X044265000Y-07625000D01*
D11*
X044265000Y-07625000D02*
X043375000Y-07625000D01*
D11*
X043375000Y-07625000D02*
X042625000Y-08375000D01*
D11*
X042625000Y-08375000D02*
X042625000Y-10625000D01*
D11*
X042625000Y-10625000D02*
X044000000Y-12000000D01*
D11*
X044000000Y-12000000D02*
X044190000Y-12000000D01*
D11*
X044190000Y-12000000D02*
X046500000Y-12000000D01*
D11*
X046500000Y-12000000D02*
X050500000Y-08000000D01*
D11*
X050500000Y-08000000D02*
X052100000Y-06400000D01*
D11*
X052100000Y-06400000D02*
X058800000Y-06400000D01*
D11*
X058800000Y-06400000D02*
X062008037Y-09608037D01*
D11*
X062008037Y-09608037D02*
X062008037Y-10920753D01*
D11*
X062008037Y-10920753D02*
X063087283Y-12000000D01*
D11*
X063087283Y-12000000D02*
X064190000Y-12000000D01*
D12*
X058825000Y040000000D02*
X058800000Y039975000D01*
D12*
X058800000Y039975000D02*
X058800000Y039525001D01*
D12*
X058800000Y039525001D02*
X058800000Y039524999D01*
D11*
X058800000Y039524999D02*
X058800000Y039200000D01*
D11*
X058800000Y039200000D02*
X058800000Y039200000D01*
D11*
X008650000Y043270000D02*
X008650000Y044150000D01*
D11*
X008650000Y044150000D02*
X007600000Y045200000D01*
D11*
X007600000Y045200000D02*
X004800000Y045200000D01*
D11*
X004800000Y045200000D02*
X002000000Y042400000D01*
D11*
X002000000Y042400000D02*
X001200000Y042400000D01*
D11*
X001200000Y042400000D02*
X000904459Y042104459D01*
D11*
X000904459Y042104459D02*
X000608096Y042104459D01*
D11*
X000608096Y042104459D02*
X-00359768Y042104459D01*
D11*
X-00359768Y042104459D02*
X-01327631Y042104459D01*
D11*
X-01327631Y042104459D02*
X-02295495Y042104459D01*
D11*
X-02295495Y042104459D02*
X-03263359Y042104459D01*
D11*
X-03263359Y042104459D02*
X-04231222Y042104459D01*
D11*
X-04231222Y042104459D02*
X-05199086Y042104459D01*
D11*
X-05199086Y042104459D02*
X-06166950Y042104459D01*
D11*
X-06166950Y042104459D02*
X-07134813Y042104459D01*
D11*
X-07134813Y042104459D02*
X-08102677Y042104459D01*
D11*
X-08102677Y042104459D02*
X-09070541Y042104459D01*
D11*
X-09070541Y042104459D02*
X-09691432Y041483568D01*
D11*
X-09691432Y041483568D02*
X-10312324Y040862676D01*
D11*
X-10312324Y040862676D02*
X-10933216Y040241784D01*
D11*
X-10933216Y040241784D02*
X-11554108Y039620892D01*
D11*
X-11554108Y039620892D02*
X-11774999Y039400001D01*
D11*
X-11774999Y039400001D02*
X-11775001Y039399999D01*
D12*
X-11775001Y039399999D02*
X-12175000Y039000000D01*
D11*
X001570000Y011670000D02*
X002247827Y011670000D01*
D11*
X002247827Y011670000D02*
X002925653Y011670000D01*
D13*
X002925653Y011670000D02*
X003603480Y011670000D01*
D23*
X003603480Y011670000D02*
X003933295Y011340184D01*
D24*
X003933295Y011340184D02*
X003938816Y011340184D01*
D14*
X003938816Y011340184D02*
X003975000Y011304000D01*
D14*
X003975000Y011304000D02*
X003975000Y011304000D01*
D11*
X006480000Y004719000D02*
X006480000Y004719000D01*
D11*
X006480000Y004719000D02*
X008627000Y004719000D01*
D11*
X008627000Y004719000D02*
X008687000Y004659000D01*
D11*
X008687000Y004659000D02*
X008687000Y004659000D01*
D23*
X011207000Y006471000D02*
X011207000Y006471000D01*
D23*
X011207000Y006471000D02*
X012098556Y006471000D01*
D23*
X012098556Y006471000D02*
X012990111Y006471000D01*
D11*
X012990111Y006471000D02*
X013881667Y006471000D01*
D11*
X013881667Y006471000D02*
X014773222Y006471000D01*
D11*
X014773222Y006471000D02*
X015664778Y006471000D01*
D11*
X015664778Y006471000D02*
X016556333Y006471000D01*
D11*
X016556333Y006471000D02*
X017447889Y006471000D01*
D11*
X017447889Y006471000D02*
X018339444Y006471000D01*
D11*
X018339444Y006471000D02*
X019231000Y006471000D01*
D11*
X019231000Y006471000D02*
X019880875Y007120875D01*
D11*
X019880875Y007120875D02*
X020530750Y007770750D01*
D11*
X020530750Y007770750D02*
X021180625Y008420625D01*
D11*
X021180625Y008420625D02*
X021830500Y009070500D01*
D11*
X021830500Y009070500D02*
X022480375Y009720375D01*
D11*
X022480375Y009720375D02*
X023130250Y010370250D01*
D11*
X023130250Y010370250D02*
X023780125Y011020125D01*
D11*
X023780125Y011020125D02*
X024430000Y011670000D01*
D12*
X047825000Y007000000D02*
X047825000Y007474999D01*
D12*
X047825000Y007474999D02*
X047825000Y007475001D01*
D11*
X047825000Y007475001D02*
X047825000Y008313000D01*
D11*
X047825000Y008313000D02*
X044097000Y008313000D01*
D11*
X044097000Y008313000D02*
X044097000Y008313000D01*
D25*
X028314000Y009281000D02*
X028314000Y009281000D01*
D25*
X028314000Y009281000D02*
X028184574Y009151574D01*
D25*
X028184574Y009151574D02*
X028171049Y009151574D01*
D26*
X028171049Y009151574D02*
X028149475Y009130000D01*
D18*
X028149475Y009130000D02*
X027219607Y009130000D01*
D27*
X027219607Y009130000D02*
X026289738Y009130000D01*
D11*
X026289738Y009130000D02*
X025359869Y009130000D01*
D11*
X025359869Y009130000D02*
X024430000Y009130000D01*
D11*
X-41620000Y037810000D02*
X-40646280Y037810000D01*
D11*
X-40646280Y037810000D02*
X-39672560Y037810000D01*
D11*
X-39672560Y037810000D02*
X-38698840Y037810000D01*
D11*
X-38698840Y037810000D02*
X-37725120Y037810000D01*
D11*
X-37725120Y037810000D02*
X-36751400Y037810000D01*
D11*
X-36751400Y037810000D02*
X-35777680Y037810000D01*
D11*
X-35777680Y037810000D02*
X-34803960Y037810000D01*
D11*
X-34803960Y037810000D02*
X-33830240Y037810000D01*
D11*
X-33830240Y037810000D02*
X-32856520Y037810000D01*
D11*
X-32856520Y037810000D02*
X-31882800Y037810000D01*
D11*
X-31882800Y037810000D02*
X-30909080Y037810000D01*
D11*
X-30909080Y037810000D02*
X-29935360Y037810000D01*
D11*
X-29935360Y037810000D02*
X-28961640Y037810000D01*
D11*
X-28961640Y037810000D02*
X-27987920Y037810000D01*
D11*
X-27987920Y037810000D02*
X-27014200Y037810000D01*
D11*
X-27014200Y037810000D02*
X-26040480Y037810000D01*
D11*
X-26040480Y037810000D02*
X-25066760Y037810000D01*
D11*
X-25066760Y037810000D02*
X-24756760Y037500000D01*
D11*
X-24756760Y037500000D02*
X-17000000Y037500000D01*
D11*
X-17000000Y037500000D02*
X-16087500Y037500000D01*
D11*
X-16087500Y037500000D02*
X-16087500Y039000000D01*
D12*
X-12175000Y039000000D02*
X-11775001Y038600001D01*
D12*
X-11775001Y038600001D02*
X-11774999Y038599999D01*
D11*
X-11774999Y038599999D02*
X001570000Y025255000D01*
D11*
X001570000Y025255000D02*
X001570000Y011670000D01*
D11*
X039522000Y-22518000D02*
X039522000Y-22518000D01*
D11*
X039522000Y-22518000D02*
X039416056Y-22623944D01*
D11*
X039416056Y-22623944D02*
X039390742Y-22623944D01*
D11*
X039390742Y-22623944D02*
X039390742Y-23441007D01*
D11*
X039390742Y-23441007D02*
X039390742Y-24258070D01*
D11*
X039390742Y-24258070D02*
X039390742Y-25075132D01*
D11*
X039390742Y-25075132D02*
X039390742Y-25892195D01*
D11*
X039390742Y-25892195D02*
X033270439Y-32012499D01*
D11*
X033270439Y-32012499D02*
X033270439Y-32829561D01*
D11*
X033270439Y-32829561D02*
X032590405Y-33509595D01*
D11*
X032590405Y-33509595D02*
X031910371Y-34189629D01*
D11*
X031910371Y-34189629D02*
X031230337Y-34869663D01*
D11*
X031230337Y-34869663D02*
X030550304Y-35549696D01*
D11*
X030550304Y-35549696D02*
X029870270Y-36229730D01*
D11*
X029870270Y-36229730D02*
X029190236Y-36909764D01*
D11*
X029190236Y-36909764D02*
X029190236Y-41670000D01*
D11*
X029190236Y-41670000D02*
X024430000Y-41670000D01*
D10*
X077912500Y-08000000D02*
X075167000Y-10746000D01*
D10*
X075167000Y-10746000D02*
X075167000Y-12460000D01*
D10*
X075167000Y-12460000D02*
X075167000Y-12460000D01*
D10*
X071810000Y-09460000D02*
X074628000Y-09460000D01*
D10*
X074628000Y-09460000D02*
X076087500Y-08000000D01*
D10*
X060635000Y-30530000D02*
X059365000Y-31800000D01*
D10*
X059365000Y-31800000D02*
X059365000Y-33070000D01*
D10*
X073080000Y-18000000D02*
X071810000Y-16730000D01*
D10*
X071810000Y-16730000D02*
X071810000Y-14540000D01*
D10*
X073080000Y-18000000D02*
X060635000Y-30445000D01*
D10*
X060635000Y-30445000D02*
X060635000Y-30530000D01*
D10*
X059912500Y-15000000D02*
X060128886Y-15215886D01*
D10*
X060128886Y-15215886D02*
X060128886Y-15409341D01*
D10*
X060128886Y-15409341D02*
X060128886Y-22303886D01*
D10*
X060128886Y-22303886D02*
X063854000Y-26029000D01*
D10*
X063854000Y-26029000D02*
X063854000Y-26029000D01*
D10*
X059801000Y-16192000D02*
X059801000Y-16192000D01*
D10*
X059801000Y-16192000D02*
X059280000Y-16192000D01*
D10*
X059280000Y-16192000D02*
X058087500Y-15000000D01*
D10*
X062920000Y-18000000D02*
X065810000Y-18000000D01*
D10*
X065810000Y-18000000D02*
X071810000Y-12000000D01*
D10*
X068912500Y-06000000D02*
X065453000Y-09460000D01*
D10*
X065453000Y-09460000D02*
X064190000Y-09460000D01*
D10*
X057912500Y-08000000D02*
X057087000Y-08826000D01*
D10*
X057087000Y-08826000D02*
X057087000Y-09625000D01*
D10*
X057087000Y-09625000D02*
X057087000Y-09625000D01*
D10*
X047561000Y-26892000D02*
X047561000Y-26892000D01*
D10*
X047561000Y-26892000D02*
X047541058Y-26911942D01*
D10*
X047541058Y-26911942D02*
X047346254Y-26911942D01*
D10*
X047346254Y-26911942D02*
X041713058Y-26911942D01*
D10*
X041713058Y-26911942D02*
X038095000Y-30530000D01*
D10*
X051810000Y-09460000D02*
X054628000Y-09460000D01*
D10*
X054628000Y-09460000D02*
X056087500Y-08000000D01*
D10*
X040635000Y-30530000D02*
X039365000Y-31800000D01*
D10*
X039365000Y-31800000D02*
X039365000Y-33070000D01*
D10*
X053080000Y-18000000D02*
X051810000Y-16730000D01*
D10*
X051810000Y-16730000D02*
X051810000Y-14540000D01*
D10*
X053080000Y-18000000D02*
X052191575Y-18888425D01*
D10*
X052191575Y-18888425D02*
X052191575Y-22820632D01*
D10*
X052191575Y-22820632D02*
X044482208Y-30530000D01*
D10*
X044482208Y-30530000D02*
X040635000Y-30530000D01*
D10*
X035912500Y-15000000D02*
X036391000Y-15478000D01*
D10*
X036391000Y-15478000D02*
X036391000Y-16063000D01*
D10*
X036391000Y-16063000D02*
X036391000Y-16063000D01*
D10*
X042920000Y-18000000D02*
X037088000Y-18000000D01*
D10*
X037088000Y-18000000D02*
X034087500Y-15000000D01*
D10*
X042920000Y-18000000D02*
X045810000Y-18000000D01*
D10*
X045810000Y-18000000D02*
X051810000Y-12000000D01*
D10*
X048912500Y-06000000D02*
X047199000Y-07714000D01*
D10*
X047199000Y-07714000D02*
X045491000Y-07714000D01*
D10*
X045491000Y-07714000D02*
X045491000Y-07714000D01*
D10*
X047825000Y012000000D02*
X047800000Y011975000D01*
D10*
X047800000Y011975000D02*
X047800000Y011200000D01*
D10*
X047800000Y011200000D02*
X047800000Y011200000D01*
D10*
X045035000Y007433000D02*
X045035000Y007433000D01*
D10*
X045035000Y007433000D02*
X045078284Y007389716D01*
D10*
X045078284Y007389716D02*
X045086517Y007389716D01*
D10*
X045086517Y007389716D02*
X045476233Y007000000D01*
D10*
X045476233Y007000000D02*
X046175000Y007000000D01*
D10*
X047825000Y012000000D02*
X052813000Y012000000D01*
D10*
X052813000Y012000000D02*
X053862500Y010950000D01*
D10*
X070500000Y016000000D02*
X064500000Y010000000D01*
D10*
X064500000Y010000000D02*
X056137500Y010000000D01*
D10*
X058825000Y044000000D02*
X058738744Y043913744D01*
D10*
X058738744Y043913744D02*
X058738744Y043786201D01*
D10*
X058738744Y043786201D02*
X057175000Y042222457D01*
D10*
X057175000Y042222457D02*
X057175000Y040000000D01*
D10*
X058825000Y044000000D02*
X062460000Y044000000D01*
D10*
X062460000Y044000000D02*
X064460000Y046000000D01*
D11*
X-44160000Y035270000D02*
X-41620000Y035270000D01*
D11*
X-59460000Y025292500D02*
X-49483000Y035270000D01*
D11*
X-49483000Y035270000D02*
X-44160000Y035270000D01*
D11*
X-44160000Y032730000D02*
X-41620000Y032730000D01*
D53*
X021807000Y-19862000D03*
D53*
X020411000Y-19532000D03*
D53*
X-00609000Y-32983000D03*
D53*
X-04000000Y-36800000D03*
D53*
X018861000Y-10806000D03*
D53*
X008423000Y-19794000D03*
D53*
X007174000Y-20616000D03*
D53*
X007276000Y-06986000D03*
D53*
X006231000Y-06157000D03*
D53*
X-20910000Y-32025000D03*
D53*
X018782000Y-05834000D03*
D53*
X008639000Y-15702000D03*
D53*
X007597000Y-15813000D03*
D53*
X-00763000Y-20438000D03*
D53*
X-01628000Y-20123000D03*
D53*
X041822000Y-08294000D03*
D53*
X036280000Y-19416000D03*
D53*
X029113000Y-00457000D03*
D53*
X025974000Y-16093000D03*
D53*
X019939000Y012383000D03*
D53*
X020210000Y002182000D03*
D53*
X018075000Y025414000D03*
D53*
X018923000Y-19515000D03*
D53*
X010577000Y015596000D03*
D53*
X005360000Y-05051000D03*
D53*
X005353000Y-08172000D03*
D53*
X011259000Y028653000D03*
D53*
X008507000Y003738000D03*
D53*
X006643000Y003348000D03*
D53*
X005507000Y-16979000D03*
D53*
X008435000Y-08574000D03*
D53*
X002856000Y-18596000D03*
D53*
X011020000Y-04982000D03*
D53*
X-03472000Y-17933000D03*
D53*
X-02571000Y-18455000D03*
D53*
X-03741000Y-30988000D03*
D53*
X062465000Y030975000D03*
D53*
X057620000Y043141000D03*
D53*
X057800000Y040800000D03*
D53*
X-12439000Y-35908000D03*
D53*
X029916000Y-18198000D03*
D53*
X025771000Y-18585000D03*
D53*
X013905000Y-33173000D03*
D53*
X-48405000Y017001000D03*
D53*
X-12632000Y-17431000D03*
D53*
X-02398000Y-17646000D03*
D53*
X002830000Y-20608000D03*
D53*
X005602000Y-20639000D03*
D53*
X014024000Y-31300000D03*
D53*
X-47400000Y011000000D03*
D53*
X-61621000Y-10823000D03*
D53*
X024303000Y027961000D03*
D53*
X021232000Y022995000D03*
D53*
X015900000Y016575000D03*
D53*
X007624000Y016231000D03*
D53*
X006806000Y016085000D03*
D53*
X-14942000Y037500000D03*
D53*
X-11200000Y036800000D03*
D53*
X044955000Y-05791000D03*
D53*
X044892000Y-06998000D03*
D53*
X058800000Y039200000D03*
D53*
X003975000Y011304000D03*
D53*
X006480000Y004719000D03*
D53*
X008687000Y004659000D03*
D53*
X011207000Y006471000D03*
D53*
X044097000Y008313000D03*
D53*
X028314000Y009281000D03*
D53*
X039522000Y-22518000D03*
D53*
X075167000Y-12460000D03*
D53*
X063854000Y-26029000D03*
D53*
X059801000Y-16192000D03*
D53*
X057087000Y-09625000D03*
D53*
X047561000Y-26892000D03*
D53*
X036391000Y-16063000D03*
D53*
X045491000Y-07714000D03*
D53*
X047800000Y011200000D03*
D53*
X045035000Y007433000D03*
M02*