%TF.GenerationSoftware,tscircuit,circuit-json-to-gerber,0.0.93*%
%TF.CreationDate,2026-08-26T23:47:51.671Z*%
%TF.SameCoordinates,Original*%
%TF.FileFunction,Copper,L1,Top*%
%TF.FilePolarity,Positive*%
%FSLAX46Y46*%
%MOMM*%
G04 Gerber Fmt 4.6, Leading zero omitted, Abs format (unit mm)*
G04 Created by tscircuit (builder) date 2026-08-26T23:47:51.671Z*
G01*
%LPD*%
G75*
G04 APERTURE MACROS START*
%AMHORZPILL*
0 Horizontal pill (stadium) shape macro*
0 Parameters:*
0 $1 = Total width*
0 $2 = Total height*
0 $3 = Circle diameter (equal to height)*
0 $4 = Circle center offset
0 21 = Center Line(Exposure, Width, Height, Center X, Center Y, Rotation)*
0 1 = Circle(Exposure, Diameter, Center X, Center Y, Rotation)*
21,1,$1-$3,$2,0.0,0.0,0.0*
1,1,$3,0.0-$4,0.0*
1,1,$3,$4,0.0*%
%AMVERTPILL*
0 Vertical pill (stadium) shape macro*
0 Parameters:*
0 $1 = Total width*
0 $2 = Total height*
0 $3 = Circle diameter (equal to width)*
0 $4 = Circle center offset
0 21 = Center Line(Exposure, Width, Height, Center X, Center Y, Rotation)*
21,1,$1,$2-$3,0.0,0.0,0.0*
1,1,$3,0.0,0.0-$4*
1,1,$3,0.0,$4*%
%AMROUNDRECT*
0 Rectangle with rounded corners*
0 $1 Corner radius*
0 $2 $3 $4 $5 $6 $7 $8 $9 X,Y Position of each corner*
0 Polygon box body*
4,1,4,$2,$3,$4,$5,$6,$7,$8,$9,$2,$3,0*
0 Circles for rounded corners*
1,1,$1+$1,$2,$3*
1,1,$1+$1,$4,$5*
1,1,$1+$1,$6,$7*
1,1,$1+$1,$8,$9*
0 Rectangles between the rounded corners*
20,1,$1+$1,$2,$3,$4,$5,0*
20,1,$1+$1,$4,$5,$6,$7,0*
20,1,$1+$1,$6,$7,$8,$9,0*
20,1,$1+$1,$8,$9,$2,$3,0*%
G04 APERTURE MACROS END*
G04 aperture START LIST*
%ADD10C,0.150000*%
%ADD11C,1.000000*%
%ADD12C,0.800000*%
%ADD13C,0.850000*%
%ADD14C,0.750000*%
%ADD15C,0.300000*%
%ADD16C,0.475000*%
%ADD17C,0.500000*%
%ADD18C,0.700000*%
%ADD19C,0.975000*%
%ADD20C,0.450000*%
%ADD21C,0.375000*%
%ADD22C,0.400000*%
%ADD23C,0.475000*%
%ADD24C,0.250000*%
%ADD25C,0.600000*%
%ADD26C,0.950000*%
%ADD27C,0.825000*%
%ADD28C,0.900000*%
%ADD29R,1.500000X1.500000*%
%ADD30C,1.500000*%
%ADD31C,0.063000*%
%ADD32C,0.200000*%
%ADD33C,0.108000*%
%ADD34R,3.000000X3.000000*%
%ADD35C,0.081000*%
%ADD36R,1.800000X1.800000*%
%ADD37C,0.090000*%
%ADD38C,0.100000*%
%ADD39R,1.700000X1.700000*%
%ADD40R,0.800000X0.950000*%
%ADD41R,0.560000X0.665000*%
%ADD42C,0.120000*%
%ADD43C,0.036000*%
%ADD44R,1.025000X1.400000*%
%ADD45R,0.717500X0.980000*%
%ADD46R,2.000000X2.000000*%
%ADD47R,2.200000X2.200000*%
%ADD48C,0.150000*%
%ADD49R,1.325000X0.600000*%
%ADD50R,0.927500X0.420000*%
%ADD51C,0.045000*%
%ADD52R,1.450000X0.300000*%
%ADD53R,1.015000X0.210000*%
%ADD54C,0.048375*%
%ADD55C,0.300000*%
%TD*%
G04 aperture END LIST*
D29*
X018000000Y-26670000D03*
D30*
X018000000Y-24130000D03*
D30*
X018000000Y-21590000D03*
D30*
X018000000Y-19050000D03*
D30*
X018000000Y-16510000D03*
D30*
X018000000Y-13970000D03*
D30*
X018000000Y-11430000D03*
D30*
X018000000Y-08890000D03*
D30*
X018000000Y-06350000D03*
D30*
X018000000Y-03810000D03*
D30*
X018000000Y-01270000D03*
D30*
X018000000Y001270000D03*
D30*
X018000000Y003810000D03*
D30*
X018000000Y006350000D03*
D30*
X018000000Y008890000D03*
D30*
X018000000Y011430000D03*
D30*
X018000000Y013970000D03*
D30*
X018000000Y016510000D03*
D30*
X018000000Y019050000D03*
D30*
X018000000Y021590000D03*
D30*
X018000000Y024130000D03*
D30*
X018000000Y026670000D03*
D29*
X040860000Y-26670000D03*
D30*
X040860000Y-24130000D03*
D30*
X040860000Y-21590000D03*
D30*
X040860000Y-19050000D03*
D30*
X040860000Y-16510000D03*
D30*
X040860000Y-13970000D03*
D30*
X040860000Y-11430000D03*
D30*
X040860000Y-08890000D03*
D30*
X040860000Y-06350000D03*
D30*
X040860000Y-03810000D03*
D30*
X040860000Y-01270000D03*
D30*
X040860000Y001270000D03*
D30*
X040860000Y003810000D03*
D30*
X040860000Y006350000D03*
D30*
X040860000Y008890000D03*
D30*
X040860000Y011430000D03*
D30*
X040860000Y013970000D03*
D30*
X040860000Y016510000D03*
D30*
X040860000Y019050000D03*
D30*
X040860000Y021590000D03*
D30*
X040860000Y024130000D03*
D30*
X040860000Y026670000D03*
D29*
X-70540000Y-15000000D03*
D30*
X-68000000Y-15000000D03*
D30*
X-65460000Y-15000000D03*
D29*
X-70540000Y000000000D03*
D30*
X-68000000Y000000000D03*
D30*
X-65460000Y000000000D03*
D29*
X-76500000Y015000000D03*
D34*
X-64540000Y017500000D03*
D34*
X-59460000Y017500000D03*
D36*
X-44160000Y040350000D03*
D36*
X-41620000Y040350000D03*
D36*
X-44160000Y037810000D03*
D36*
X-41620000Y037810000D03*
D36*
X-44160000Y035270000D03*
D36*
X-41620000Y035270000D03*
D36*
X-44160000Y032730000D03*
D36*
X-41620000Y032730000D03*
D36*
X-44160000Y030190000D03*
D36*
X-41620000Y030190000D03*
D36*
X-44160000Y027650000D03*
D36*
X-41620000Y027650000D03*
D39*
X-30160000Y-38350000D03*
D39*
X-30160000Y-35810000D03*
D39*
X-30160000Y-33270000D03*
D39*
X-30160000Y-30730000D03*
D39*
X-30160000Y-28190000D03*
D39*
X-30160000Y-25650000D03*
D39*
X-09840000Y-38350000D03*
D39*
X-09840000Y-35810000D03*
D39*
X-09840000Y-33270000D03*
D39*
X-09840000Y-30730000D03*
D39*
X-09840000Y-28190000D03*
D39*
X-09840000Y-25650000D03*
D40*
X-05825000Y-12000000D03*
D40*
X-04175000Y-12000000D03*
D44*
X-48912500Y-18000000D03*
D44*
X-47087500Y-18000000D03*
D44*
X-48912500Y-12000000D03*
D44*
X-47087500Y-12000000D03*
D44*
X-38912500Y-12000000D03*
D44*
X-37087500Y-12000000D03*
D44*
X-48912500Y-06000000D03*
D44*
X-47087500Y-06000000D03*
D44*
X-38912500Y-06000000D03*
D44*
X-37087500Y-06000000D03*
D44*
X-48912500Y000000000D03*
D44*
X-47087500Y000000000D03*
D44*
X-48912500Y006000000D03*
D44*
X-47087500Y006000000D03*
D44*
X-38912500Y006000000D03*
D44*
X-37087500Y006000000D03*
D44*
X-48912500Y012000000D03*
D44*
X-47087500Y012000000D03*
D44*
X-38912500Y012000000D03*
D44*
X-37087500Y012000000D03*
D44*
X-48912500Y018000000D03*
D44*
X-47087500Y018000000D03*
D44*
X-38912500Y018000000D03*
D44*
X-37087500Y018000000D03*
D44*
X057087500Y027000000D03*
D44*
X058912500Y027000000D03*
D46*
X065730000Y027000000D03*
D46*
X068270000Y027000000D03*
D44*
X057087500Y020000000D03*
D44*
X058912500Y020000000D03*
D46*
X065730000Y020000000D03*
D46*
X068270000Y020000000D03*
D47*
X069540000Y036000000D03*
D47*
X067000000Y036000000D03*
D47*
X064460000Y036000000D03*
D40*
X057175000Y036000000D03*
D40*
X058825000Y036000000D03*
D40*
X057175000Y032000000D03*
D40*
X058825000Y032000000D03*
D40*
X051175000Y036000000D03*
D40*
X052825000Y036000000D03*
D29*
X064460000Y008000000D03*
D30*
X067000000Y008000000D03*
D30*
X069540000Y008000000D03*
D44*
X055087500Y008000000D03*
D44*
X056912500Y008000000D03*
D46*
X064500000Y-12000000D03*
D46*
X069500000Y-12000000D03*
D49*
X053862500Y-11050000D03*
D49*
X053862500Y-12950000D03*
D49*
X056137500Y-12000000D03*
D40*
X046175000Y-10000000D03*
D40*
X047825000Y-10000000D03*
D40*
X046175000Y-15000000D03*
D40*
X047825000Y-15000000D03*
D44*
X-17912500Y039000000D03*
D44*
X-16087500Y039000000D03*
D40*
X-13825000Y039000000D03*
D40*
X-12175000Y039000000D03*
D52*
X032775000Y-25250000D03*
D52*
X032775000Y-25750000D03*
D52*
X032775000Y-26250000D03*
D52*
X032775000Y-26750000D03*
D52*
X032775000Y-27250000D03*
D52*
X032775000Y-27750000D03*
D52*
X032775000Y-28250000D03*
D52*
X032775000Y-28750000D03*
D52*
X037225000Y-28750000D03*
D52*
X037225000Y-28250000D03*
D52*
X037225000Y-27750000D03*
D52*
X037225000Y-27250000D03*
D52*
X037225000Y-26750000D03*
D52*
X037225000Y-26250000D03*
D52*
X037225000Y-25750000D03*
D52*
X037225000Y-25250000D03*
D40*
X028175000Y-27000000D03*
D40*
X029825000Y-27000000D03*
D46*
X012460000Y-44420000D03*
D46*
X015230000Y-44420000D03*
D46*
X018000000Y-44420000D03*
D46*
X020770000Y-44420000D03*
D46*
X023540000Y-44420000D03*
D46*
X013845000Y-41580000D03*
D46*
X016615000Y-41580000D03*
D46*
X019385000Y-41580000D03*
D46*
X022155000Y-41580000D03*
D46*
X048460000Y-44420000D03*
D46*
X051230000Y-44420000D03*
D46*
X054000000Y-44420000D03*
D46*
X056770000Y-44420000D03*
D46*
X059540000Y-44420000D03*
D46*
X049845000Y-41580000D03*
D46*
X052615000Y-41580000D03*
D46*
X055385000Y-41580000D03*
D46*
X058155000Y-41580000D03*
D10*
X018000000Y-03810000D02*
X012571000Y-09239000D01*
D10*
X012571000Y-09239000D02*
X004992000Y-09239000D01*
D10*
X004992000Y-09239000D02*
X004992000Y-09239000D01*
D10*
X004623000Y-10695000D02*
X004623000Y-10695000D01*
D10*
X004623000Y-10695000D02*
X004515738Y-10802262D01*
D10*
X004515738Y-10802262D02*
X004490475Y-10802262D01*
D10*
X004490475Y-10802262D02*
X000798737Y-14494000D01*
D10*
X000798737Y-14494000D02*
X-03975000Y-14494000D01*
D10*
X-03975000Y-14494000D02*
X-03975000Y-14494000D01*
D10*
X-05840000Y-15456000D02*
X-05840000Y-15456000D01*
D10*
X-05840000Y-15456000D02*
X-05870404Y-15486404D01*
D10*
X-05870404Y-15486404D02*
X-16034000Y-25650000D01*
D10*
X-16034000Y-25650000D02*
X-30160000Y-25650000D01*
D10*
X007815000Y-07630000D02*
X007815000Y-07630000D01*
D10*
X007815000Y-07630000D02*
X-01455000Y-07630000D01*
D10*
X-01455000Y-07630000D02*
X-05825000Y-12000000D01*
D10*
X-25752000Y-20247000D02*
X-25752000Y-20247000D01*
D10*
X-25752000Y-20247000D02*
X-14931316Y-20247000D01*
D10*
X-14931316Y-20247000D02*
X-12507626Y-17823310D01*
D10*
X-12507626Y-17823310D02*
X-12499310Y-17823310D01*
D10*
X-12499310Y-17823310D02*
X-12475000Y-17799000D01*
D10*
X-12475000Y-17799000D02*
X-12475000Y-17799000D01*
D10*
X-08039000Y-12958000D02*
X-08039000Y-12958000D01*
D10*
X-08039000Y-12958000D02*
X-06783000Y-12958000D01*
D10*
X-06783000Y-12958000D02*
X-05825000Y-12000000D01*
D10*
X-01566000Y-02515000D02*
X-01566000Y-02515000D01*
D10*
X-01566000Y-02515000D02*
X-01686654Y-02635654D01*
D10*
X-01686654Y-02635654D02*
X-01686654Y-02661661D01*
D10*
X-01686654Y-02661661D02*
X-04531000Y-05506007D01*
D10*
X-04531000Y-05506007D02*
X-04531000Y-05732000D01*
D10*
X-04531000Y-05732000D02*
X-04531000Y-05732000D01*
D10*
X018000000Y019050000D02*
X016335000Y017385000D01*
D10*
X016335000Y017385000D02*
X007684000Y017385000D01*
D10*
X007684000Y017385000D02*
X007684000Y017385000D01*
D10*
X004430000Y006446000D02*
X004430000Y006446000D01*
D10*
X004430000Y006446000D02*
X004429014Y006445014D01*
D10*
X004429014Y006445014D02*
X-00955000Y001061000D01*
D10*
X-00955000Y001061000D02*
X-06584000Y001061000D01*
D10*
X-06584000Y001061000D02*
X-06584000Y001061000D01*
D10*
X018000000Y-21590000D02*
X010435716Y-29154284D01*
D10*
X010435716Y-29154284D02*
X-08875716Y-29154284D01*
D10*
X-08875716Y-29154284D02*
X-09840000Y-28190000D01*
D10*
X032775000Y-25250000D02*
X032775000Y-25003131D01*
D10*
X032775000Y-25003131D02*
X032953916Y-24824215D01*
D10*
X032953916Y-24824215D02*
X032953916Y-24778084D01*
D10*
X032953916Y-24778084D02*
X032957000Y-24775000D01*
D10*
X032957000Y-24775000D02*
X032957000Y-24775000D01*
D10*
X034128000Y-29069000D02*
X034128000Y-29069000D01*
D10*
X034128000Y-29069000D02*
X034069000Y-29069000D01*
D10*
X034069000Y-29069000D02*
X033853468Y-28663554D01*
D10*
X033853468Y-28663554D02*
X033594957Y-28405043D01*
D10*
X033594957Y-28405043D02*
X033232957Y-28305043D01*
D10*
X033232957Y-28305043D02*
X032775000Y-28250000D01*
D10*
X032775000Y-25250000D02*
X033895000Y-24130000D01*
D10*
X033895000Y-24130000D02*
X035999983Y-23807449D01*
D10*
X035999983Y-23807449D02*
X038250287Y-23802059D01*
D10*
X038250287Y-23802059D02*
X040860000Y-24130000D01*
D10*
X046175000Y-10000000D02*
X045179000Y-09004000D01*
D10*
X045179000Y-09004000D02*
X045179000Y-08797000D01*
D10*
X045179000Y-08797000D02*
X045179000Y-08797000D01*
D10*
X045042000Y-06465000D02*
X045042000Y-06465000D01*
D10*
X045042000Y-06465000D02*
X044928449Y-06351449D01*
D10*
X044928449Y-06351449D02*
X044859399Y-06351449D01*
D10*
X044859399Y-06351449D02*
X044857950Y-06350000D01*
D10*
X044857950Y-06350000D02*
X040860000Y-06350000D01*
D10*
X055087500Y008000000D02*
X049370000Y008000000D01*
D10*
X049370000Y008000000D02*
X040860000Y016510000D01*
D10*
X-09840000Y-35810000D02*
X-09840000Y-33270000D01*
D10*
X018000000Y-26670000D02*
X018000000Y-24130000D01*
D10*
X057175000Y036000000D02*
X052825000Y036000000D01*
D10*
X032775000Y-26750000D02*
X030779306Y-26750000D01*
D10*
X030779306Y-26750000D02*
X029892790Y-25863484D01*
D10*
X029892790Y-25863484D02*
X029311516Y-25863484D01*
D10*
X029311516Y-25863484D02*
X028175000Y-27000000D01*
D10*
X037225000Y-25250000D02*
X035325000Y-24975000D01*
D10*
X035325000Y-24975000D02*
X034829274Y-25250000D01*
D10*
X034829274Y-25250000D02*
X033905365Y-26335582D01*
D10*
X033905365Y-26335582D02*
X033746376Y-26494572D01*
D10*
X033746376Y-26494572D02*
X033559130Y-26602544D01*
D10*
X033559130Y-26602544D02*
X033305648Y-26689951D01*
D10*
X033305648Y-26689951D02*
X033265746Y-26689951D01*
D10*
X033265746Y-26689951D02*
X032996722Y-26689951D01*
D10*
X032996722Y-26689951D02*
X032775000Y-26750000D01*
D10*
X028175000Y-27000000D02*
X027845000Y-26670000D01*
D10*
X027845000Y-26670000D02*
X018000000Y-26670000D01*
D10*
X-04175000Y-12000000D02*
X-05067532Y-12892532D01*
D10*
X-05067532Y-12892532D02*
X-05067532Y-26630000D01*
D10*
X-05067532Y-26630000D02*
X-05067532Y-26667475D01*
D10*
X-05067532Y-26667475D02*
X-07161859Y-28761803D01*
D10*
X-07161859Y-28761803D02*
X-07161859Y-28761859D01*
D10*
X-07161859Y-28761859D02*
X-07200000Y-28800000D01*
D10*
X-07200000Y-28800000D02*
X-07200000Y-28800000D01*
D10*
X007744000Y-18239000D02*
X007744000Y-18239000D01*
D10*
X007744000Y-18239000D02*
X007740156Y-18235156D01*
D10*
X007740156Y-18235156D02*
X007257000Y-17752000D01*
D10*
X007257000Y-17752000D02*
X003447000Y-17752000D01*
D10*
X003447000Y-17752000D02*
X003447000Y-17752000D01*
D10*
X002948000Y-15041000D02*
X002948000Y-15041000D01*
D10*
X002948000Y-15041000D02*
X002919611Y-15012611D01*
D10*
X002919611Y-15012611D02*
X002903112Y-15012611D01*
D10*
X002903112Y-15012611D02*
X-04130186Y-15012611D01*
D10*
X-04130186Y-15012611D02*
X-04458350Y-14684447D01*
D10*
X-04458350Y-14684447D02*
X-04458350Y-12283350D01*
D10*
X-04458350Y-12283350D02*
X-04175000Y-12000000D01*
D10*
X064500000Y-12000000D02*
X051250000Y-25250000D01*
D10*
X051250000Y-25250000D02*
X037225000Y-25250000D01*
D10*
X057175000Y036000000D02*
X057175000Y035604216D01*
D10*
X057175000Y035604216D02*
X057583600Y035195616D01*
D10*
X057583600Y035195616D02*
X057583600Y035177400D01*
D10*
X057583600Y035177400D02*
X057620000Y035141000D01*
D10*
X057620000Y035141000D02*
X057620000Y035141000D01*
D10*
X057800000Y032800000D02*
X057800000Y032800000D01*
D10*
X057800000Y032800000D02*
X057800000Y017085891D01*
D10*
X057800000Y017085891D02*
X058000000Y016885891D01*
D10*
X058000000Y016885891D02*
X058000000Y016800000D01*
D10*
X058000000Y016800000D02*
X058000000Y016800000D01*
D10*
X058000000Y009600000D02*
X058000000Y009600000D01*
D10*
X058000000Y009600000D02*
X059368733Y009600000D01*
D10*
X059368733Y009600000D02*
X064406504Y004562229D01*
D10*
X064406504Y004562229D02*
X064406504Y-11906504D01*
D10*
X064406504Y-11906504D02*
X064500000Y-12000000D01*
D10*
X-37087500Y018000000D02*
X-36346000Y017259000D01*
D10*
X-36346000Y017259000D02*
X-25786000Y017259000D01*
D10*
X-25786000Y017259000D02*
X-25786000Y017259000D01*
D10*
X-19327000Y004153000D02*
X-19327000Y004153000D01*
D10*
X-19327000Y004153000D02*
X-19310212Y004136212D01*
D10*
X-19310212Y004136212D02*
X-19235105Y004136212D01*
D10*
X-19235105Y004136212D02*
X-11027212Y004136212D01*
D10*
X-11027212Y004136212D02*
X-06229000Y-00662000D01*
D10*
X-06229000Y-00662000D02*
X-06229000Y-00662000D01*
D10*
X-05741000Y-01745000D02*
X-05741000Y-01745000D01*
D10*
X-05741000Y-01745000D02*
X-05717457Y-01768543D01*
D10*
X-05717457Y-01768543D02*
X-05705514Y-01768543D01*
D10*
X-05705514Y-01768543D02*
X-05474382Y-01999676D01*
D10*
X-05474382Y-01999676D02*
X002693623Y-01999676D01*
D10*
X002693623Y-01999676D02*
X008366000Y-07672053D01*
D10*
X008366000Y-07672053D02*
X008366000Y-08397000D01*
D10*
X008366000Y-08397000D02*
X008366000Y-08397000D01*
D10*
X008390000Y-10030000D02*
X008390000Y-10030000D01*
D10*
X008390000Y-10030000D02*
X008515538Y-10155538D01*
D10*
X008515538Y-10155538D02*
X008515538Y-10162980D01*
D10*
X008515538Y-10162980D02*
X010841558Y-12489000D01*
D10*
X010841558Y-12489000D02*
X015801000Y-12489000D01*
D10*
X015801000Y-12489000D02*
X015801000Y-12489000D01*
D10*
X-47087500Y018000000D02*
X-47087000Y018000000D01*
D10*
X-47087000Y018000000D02*
X-38912500Y018000000D01*
D10*
X-47087500Y018000000D02*
X-50087000Y015000000D01*
D10*
X-50087000Y015000000D02*
X-76500000Y015000000D01*
D10*
X-48912500Y018000000D02*
X-46357000Y020555000D01*
D10*
X-46357000Y020555000D02*
X-28574387Y020555000D01*
D10*
X-28574387Y020555000D02*
X-24529387Y016510000D01*
D10*
X-24529387Y016510000D02*
X018000000Y016510000D01*
D10*
X-37087500Y012000000D02*
X-36929000Y011842000D01*
D10*
X-36929000Y011842000D02*
X-34975000Y011842000D01*
D10*
X-34975000Y011842000D02*
X-34975000Y011842000D01*
D10*
X-20726000Y002727000D02*
X-20726000Y002727000D01*
D10*
X-20726000Y002727000D02*
X-20691787Y002692787D01*
D10*
X-20691787Y002692787D02*
X-20563176Y002692787D01*
D10*
X-20563176Y002692787D02*
X-19943389Y002073000D01*
D10*
X-19943389Y002073000D02*
X-16074000Y002073000D01*
D10*
X-16074000Y002073000D02*
X-16074000Y002073000D01*
D10*
X004419000Y-10028000D02*
X004419000Y-10028000D01*
D10*
X004419000Y-10028000D02*
X004445428Y-10054428D01*
D10*
X004445428Y-10054428D02*
X004476106Y-10054428D01*
D10*
X004476106Y-10054428D02*
X007865678Y-13444000D01*
D10*
X007865678Y-13444000D02*
X011571000Y-13444000D01*
D10*
X011571000Y-13444000D02*
X011571000Y-13444000D01*
D10*
X-47087500Y012000000D02*
X-47087000Y012000000D01*
D10*
X-47087000Y012000000D02*
X-38912500Y012000000D01*
D10*
X-47087500Y012000000D02*
X-47970674Y011116326D01*
D10*
X-47970674Y011116326D02*
X-54343674Y011116326D01*
D10*
X-54343674Y011116326D02*
X-65460000Y000000000D01*
D10*
X-48912500Y012000000D02*
X-46942000Y013970000D01*
D10*
X-46942000Y013970000D02*
X018000000Y013970000D01*
D10*
X-37087500Y006000000D02*
X-36249390Y006837610D01*
D10*
X-36249390Y006837610D02*
X-36245623Y006837610D01*
D10*
X-36245623Y006837610D02*
X014972390Y006837610D01*
D10*
X014972390Y006837610D02*
X018000000Y003810000D01*
D10*
X-47087500Y006000000D02*
X-47087000Y006000000D01*
D10*
X-47087000Y006000000D02*
X-38912500Y006000000D01*
D10*
X-47087500Y006000000D02*
X-48957000Y004130000D01*
D10*
X-48957000Y004130000D02*
X-59907000Y004130000D01*
D10*
X-59907000Y004130000D02*
X-59907000Y004130000D01*
D10*
X-48912500Y006000000D02*
X-46451616Y008460384D01*
D10*
X-46451616Y008460384D02*
X-39019847Y008460384D01*
D10*
X-39019847Y008460384D02*
X-36050230Y011430000D01*
D10*
X-36050230Y011430000D02*
X018000000Y011430000D01*
D10*
X-47087500Y000000000D02*
X-48044568Y-00957568D01*
D10*
X-48044568Y-00957568D02*
X-48186737Y-00957568D01*
D10*
X-48186737Y-00957568D02*
X-69582432Y-00957568D01*
D10*
X-69582432Y-00957568D02*
X-70540000Y000000000D01*
D10*
X-48912500Y000000000D02*
X-48008001Y000903999D01*
D10*
X-48008001Y000903999D02*
X-47851389Y000903999D01*
D10*
X-47851389Y000903999D02*
X-33189999Y000903999D01*
D10*
X-33189999Y000903999D02*
X-32422000Y000136000D01*
D10*
X-32422000Y000136000D02*
X-32422000Y000136000D01*
D10*
X007442000Y010752000D02*
X007442000Y010752000D01*
D10*
X007442000Y010752000D02*
X007457576Y010736424D01*
D10*
X007457576Y010736424D02*
X007515042Y010736424D01*
D10*
X007515042Y010736424D02*
X009361466Y008890000D01*
D10*
X009361466Y008890000D02*
X018000000Y008890000D01*
D10*
X-37087500Y-06000000D02*
X-33209000Y-09878000D01*
D10*
X-33209000Y-09878000D02*
X-05212000Y-09878000D01*
D10*
X-05212000Y-09878000D02*
X-05212000Y-09878000D01*
D10*
X-03537000Y-10763000D02*
X-03537000Y-10763000D01*
D10*
X-03537000Y-10763000D02*
X-03461823Y-10687823D01*
D10*
X-03461823Y-10687823D02*
X-03398598Y-10687823D01*
D10*
X-03398598Y-10687823D02*
X-02400866Y-09690091D01*
D10*
X-02400866Y-09690091D02*
X008685948Y-09690091D01*
D10*
X008685948Y-09690091D02*
X010420704Y-11424848D01*
D10*
X010420704Y-11424848D02*
X015216698Y-11424848D01*
D10*
X015216698Y-11424848D02*
X016159382Y-12367531D01*
D10*
X016159382Y-12367531D02*
X017325966Y-12367531D01*
D10*
X017325966Y-12367531D02*
X036717531Y-12367531D01*
D10*
X036717531Y-12367531D02*
X040860000Y-16510000D01*
D10*
X-47087500Y-06000000D02*
X-47087000Y-06000000D01*
D10*
X-47087000Y-06000000D02*
X-38912500Y-06000000D01*
D10*
X-47087500Y-06000000D02*
X-49331000Y-08244000D01*
D10*
X-49331000Y-08244000D02*
X-51749000Y-08244000D01*
D10*
X-51749000Y-08244000D02*
X-51749000Y-08244000D01*
D10*
X-48912500Y-06000000D02*
X-44291708Y-01379708D01*
D10*
X-44291708Y-01379708D02*
X-44152156Y-01379708D01*
D10*
X-44152156Y-01379708D02*
X015350292Y-01379708D01*
D10*
X015350292Y-01379708D02*
X018000000Y001270000D01*
D10*
X-37087500Y-12000000D02*
X-34032000Y-15055000D01*
D10*
X-34032000Y-15055000D02*
X-05442000Y-15055000D01*
D10*
X-05442000Y-15055000D02*
X-05442000Y-15055000D01*
D10*
X-02179000Y-18365000D02*
X-02179000Y-18365000D01*
D10*
X-02179000Y-18365000D02*
X-01941673Y-18602327D01*
D10*
X-01941673Y-18602327D02*
X015208205Y-18602327D01*
D10*
X015208205Y-18602327D02*
X015784058Y-18026474D01*
D10*
X015784058Y-18026474D02*
X039836474Y-18026474D01*
D10*
X039836474Y-18026474D02*
X040860000Y-19050000D01*
D10*
X-47087500Y-12000000D02*
X-47087000Y-12000000D01*
D10*
X-47087000Y-12000000D02*
X-38912500Y-12000000D01*
D10*
X-47087500Y-12000000D02*
X-47908153Y-12821153D01*
D10*
X-47908153Y-12821153D02*
X-47908153Y-12889259D01*
D10*
X-47908153Y-12889259D02*
X-65889259Y-12889259D01*
D10*
X-65889259Y-12889259D02*
X-68000000Y-15000000D01*
D10*
X-48912500Y-12000000D02*
X-48029624Y-11117624D01*
D10*
X-48029624Y-11117624D02*
X-14082376Y-11117624D01*
D10*
X-14082376Y-11117624D02*
X-12232000Y-12968000D01*
D10*
X-12232000Y-12968000D02*
X-12232000Y-12968000D01*
D10*
X011604000Y-10928000D02*
X011604000Y-10928000D01*
D10*
X011604000Y-10928000D02*
X011604626Y-10927374D01*
D10*
X011604626Y-10927374D02*
X011708293Y-10927374D01*
D10*
X011708293Y-10927374D02*
X017497374Y-10927374D01*
D10*
X017497374Y-10927374D02*
X018000000Y-11430000D01*
D10*
X-47087500Y-18000000D02*
X-48109441Y-16977559D01*
D10*
X-48109441Y-16977559D02*
X-68562441Y-16977559D01*
D10*
X-68562441Y-16977559D02*
X-70540000Y-15000000D01*
D10*
X-48912500Y-18000000D02*
X-48101070Y-18897930D01*
D10*
X-48101070Y-18897930D02*
X-47776609Y-18897930D01*
D10*
X-47776609Y-18897930D02*
X-47847000Y-18894000D01*
D10*
X-47847000Y-18894000D02*
X-47450000Y-18905000D01*
D10*
X-47450000Y-18905000D02*
X-47300000Y-18905000D01*
D10*
X-47300000Y-18905000D02*
X-47100000Y-18905000D01*
D10*
X-47100000Y-18905000D02*
X-46700000Y-18905000D01*
D10*
X-46700000Y-18905000D02*
X-46500000Y-18905000D01*
D10*
X-46500000Y-18905000D02*
X-46302207Y-18875693D01*
D10*
X-46302207Y-18875693D02*
X-43052514Y-15539000D01*
D10*
X-43052514Y-15539000D02*
X-07609000Y-15539000D01*
D10*
X-07609000Y-15539000D02*
X-07609000Y-15539000D01*
D10*
X-03967000Y-17598000D02*
X-03967000Y-17598000D01*
D10*
X-03967000Y-17598000D02*
X-03877139Y-17687861D01*
D10*
X-03877139Y-17687861D02*
X-03866642Y-17687861D01*
D10*
X-03866642Y-17687861D02*
X-03820418Y-17734085D01*
D10*
X-03820418Y-17734085D02*
X000809233Y-17734085D01*
D10*
X000809233Y-17734085D02*
X004573318Y-13970000D01*
D10*
X004573318Y-13970000D02*
X018000000Y-13970000D01*
D11*
X-44160000Y040350000D02*
X-41620000Y040350000D01*
D11*
X-17912500Y039000000D02*
X-18000000Y039087500D01*
D11*
X-18000000Y039087500D02*
X-18000000Y038000000D01*
D11*
X-18000000Y038000000D02*
X-16800000Y036800000D01*
D11*
X-16800000Y036800000D02*
X-16400000Y037200000D01*
D11*
X-16400000Y037200000D02*
X-15200000Y037200000D01*
D11*
X-15200000Y037200000D02*
X-14400000Y038000000D01*
D11*
X-14400000Y038000000D02*
X-14400000Y038400000D01*
D11*
X-14400000Y038400000D02*
X-13825000Y038975000D01*
D12*
X-13825000Y038975000D02*
X-13825000Y039000000D01*
D11*
X-41620000Y040350000D02*
X-19262000Y040350000D01*
D11*
X-19262000Y040350000D02*
X-19262000Y040349500D01*
D11*
X-19262000Y040349500D02*
X-17912500Y039000000D01*
D12*
X-13825000Y039000000D02*
X-13825000Y038525001D01*
D12*
X-13825000Y038525001D02*
X-13825000Y038524999D01*
D11*
X-13825000Y038524999D02*
X-13825000Y034268636D01*
D11*
X-13825000Y034268636D02*
X-09093636Y034268636D01*
D11*
X-09093636Y034268636D02*
X-08417727Y033592727D01*
D11*
X-08417727Y033592727D02*
X-07741818Y032916818D01*
D11*
X-07741818Y032916818D02*
X-07065909Y032240909D01*
D11*
X-07065909Y032240909D02*
X-06390000Y031565000D01*
D11*
X-06390000Y031565000D02*
X-05714091Y030889091D01*
D11*
X-05714091Y030889091D02*
X-05038182Y030213182D01*
D11*
X-05038182Y030213182D02*
X-04362273Y029537273D01*
D11*
X-04362273Y029537273D02*
X-03686364Y028861364D01*
D11*
X-03686364Y028861364D02*
X-03010455Y028185455D01*
D11*
X-03010455Y028185455D02*
X-02334545Y027509545D01*
D11*
X-02334545Y027509545D02*
X-01658636Y026833636D01*
D11*
X-01658636Y026833636D02*
X-00982727Y026157727D01*
D11*
X-00982727Y026157727D02*
X-00306818Y025481818D01*
D11*
X-00306818Y025481818D02*
X000369091Y024805909D01*
D11*
X000369091Y024805909D02*
X001045000Y024130000D01*
D11*
X001045000Y024130000D02*
X002042353Y024130000D01*
D11*
X002042353Y024130000D02*
X003039706Y024130000D01*
D11*
X003039706Y024130000D02*
X004037059Y024130000D01*
D11*
X004037059Y024130000D02*
X005034412Y024130000D01*
D11*
X005034412Y024130000D02*
X006031765Y024130000D01*
D11*
X006031765Y024130000D02*
X007029118Y024130000D01*
D11*
X007029118Y024130000D02*
X008026471Y024130000D01*
D11*
X008026471Y024130000D02*
X009023824Y024130000D01*
D11*
X009023824Y024130000D02*
X010021176Y024130000D01*
D11*
X010021176Y024130000D02*
X011018529Y024130000D01*
D11*
X011018529Y024130000D02*
X012015882Y024130000D01*
D11*
X012015882Y024130000D02*
X013013235Y024130000D01*
D11*
X013013235Y024130000D02*
X014010588Y024130000D01*
D11*
X014010588Y024130000D02*
X015007941Y024130000D01*
D11*
X015007941Y024130000D02*
X016005294Y024130000D01*
D11*
X016005294Y024130000D02*
X017002647Y024130000D01*
D11*
X017002647Y024130000D02*
X018000000Y024130000D01*
D11*
X064460000Y008000000D02*
X063811935Y008648065D01*
D11*
X063811935Y008648065D02*
X063163870Y009296130D01*
D11*
X063163870Y009296130D02*
X062515805Y009944195D01*
D11*
X062515805Y009944195D02*
X061590284Y009944195D01*
D11*
X061590284Y009944195D02*
X060664763Y009944195D01*
D11*
X060664763Y009944195D02*
X059500000Y010500000D01*
D11*
X059500000Y010500000D02*
X058500000Y010500000D01*
D11*
X058500000Y010500000D02*
X056037156Y009944195D01*
D11*
X056037156Y009944195D02*
X055111635Y009944195D01*
D11*
X055111635Y009944195D02*
X054186114Y009944195D01*
D11*
X054186114Y009944195D02*
X053260593Y009944195D01*
D11*
X053260593Y009944195D02*
X052335071Y009944195D01*
D11*
X052335071Y009944195D02*
X051646534Y010632732D01*
D11*
X051646534Y010632732D02*
X050957997Y011321269D01*
D11*
X050957997Y011321269D02*
X050269460Y012009806D01*
D11*
X050269460Y012009806D02*
X049580923Y012698343D01*
D11*
X049580923Y012698343D02*
X048892386Y013386881D01*
D11*
X048892386Y013386881D02*
X048203849Y014075418D01*
D11*
X048203849Y014075418D02*
X047515312Y014763955D01*
D11*
X047515312Y014763955D02*
X046826774Y015452492D01*
D11*
X046826774Y015452492D02*
X046138237Y016141029D01*
D11*
X046138237Y016141029D02*
X045449700Y016829566D01*
D11*
X045449700Y016829566D02*
X044761163Y017518103D01*
D11*
X044761163Y017518103D02*
X043801674Y017518103D01*
D11*
X043801674Y017518103D02*
X043500000Y017812500D01*
D11*
X043500000Y017812500D02*
X042656250Y017812500D01*
D13*
X042656250Y017812500D02*
X041812500Y017812500D01*
D14*
X041812500Y017812500D02*
X040968750Y017812500D01*
D14*
X040968750Y017812500D02*
X040125000Y017812500D01*
D14*
X040125000Y017812500D02*
X039564615Y017665302D01*
D14*
X039564615Y017665302D02*
X039004230Y017518103D01*
D11*
X039004230Y017518103D02*
X038044741Y017518103D01*
D11*
X038044741Y017518103D02*
X037085252Y017518103D01*
D11*
X037085252Y017518103D02*
X036125763Y017518103D01*
D11*
X036125763Y017518103D02*
X035166274Y017518103D01*
D11*
X035166274Y017518103D02*
X034206786Y017518103D01*
D11*
X034206786Y017518103D02*
X033247297Y017518103D01*
D11*
X033247297Y017518103D02*
X032287808Y017518103D01*
D11*
X032287808Y017518103D02*
X031328319Y017518103D01*
D11*
X031328319Y017518103D02*
X030368830Y017518103D01*
D11*
X030368830Y017518103D02*
X029409341Y017518103D01*
D11*
X029409341Y017518103D02*
X028449852Y017518103D01*
D11*
X028449852Y017518103D02*
X027490363Y017518103D01*
D11*
X027490363Y017518103D02*
X026530875Y017518103D01*
D11*
X026530875Y017518103D02*
X025571386Y017518103D01*
D11*
X025571386Y017518103D02*
X024611897Y017518103D01*
D11*
X024611897Y017518103D02*
X023950707Y018179293D01*
D11*
X023950707Y018179293D02*
X023289517Y018840483D01*
D11*
X023289517Y018840483D02*
X022628328Y019501672D01*
D11*
X022628328Y019501672D02*
X022628328Y024130000D01*
D11*
X022628328Y024130000D02*
X018000000Y024130000D01*
D15*
X037225000Y-27250000D02*
X037949999Y-27250000D01*
D15*
X037949999Y-27250000D02*
X037950001Y-27250000D01*
D16*
X037950001Y-27250000D02*
X038000000Y-27250000D01*
D16*
X038000000Y-27250000D02*
X038250000Y-27250000D01*
D17*
X038250000Y-27250000D02*
X038500000Y-27250000D01*
D18*
X038500000Y-27250000D02*
X038625000Y-27375000D01*
D11*
X038625000Y-27375000D02*
X038625000Y-27875000D01*
D11*
X038625000Y-27875000D02*
X038625000Y-28625000D01*
D11*
X038625000Y-28625000D02*
X038250000Y-29000000D01*
D11*
X038250000Y-29000000D02*
X038000000Y-29000000D01*
D19*
X038000000Y-29000000D02*
X037250000Y-29000000D01*
D16*
X037250000Y-29000000D02*
X037240000Y-28900001D01*
D16*
X037240000Y-28900001D02*
X037240000Y-28899999D01*
D15*
X037240000Y-28899999D02*
X037225000Y-28750000D01*
D15*
X037225000Y-27250000D02*
X037949999Y-27250000D01*
D15*
X037949999Y-27250000D02*
X037950001Y-27250000D01*
D20*
X037950001Y-27250000D02*
X038093750Y-27250000D01*
D20*
X038093750Y-27250000D02*
X038250000Y-27093750D01*
D21*
X038250000Y-27093750D02*
X038250000Y-26531250D01*
D21*
X038250000Y-26531250D02*
X038250000Y-25968750D01*
D21*
X038250000Y-25968750D02*
X038062500Y-25781250D01*
D22*
X038062500Y-25781250D02*
X037950001Y-25777052D01*
D22*
X037950001Y-25777052D02*
X037949999Y-25777052D01*
D15*
X037949999Y-25777052D02*
X037225000Y-25750000D01*
D11*
X-44160000Y037810000D02*
X-41620000Y037810000D01*
D11*
X-30160000Y-38350000D02*
X-30160000Y-35810000D01*
D11*
X040860000Y024130000D02*
X040860000Y026670000D01*
D11*
X013845000Y-41580000D02*
X016615000Y-41580000D01*
D11*
X049845000Y-41580000D02*
X052615000Y-41580000D01*
D12*
X029825000Y-27000000D02*
X029825000Y-27075000D01*
D12*
X029825000Y-27075000D02*
X031750000Y-29000000D01*
D11*
X031750000Y-29000000D02*
X032000000Y-29000000D01*
D19*
X032000000Y-29000000D02*
X032750000Y-29000000D01*
D16*
X032750000Y-29000000D02*
X032760000Y-28900001D01*
D16*
X032760000Y-28900001D02*
X032760000Y-28899999D01*
D15*
X032760000Y-28899999D02*
X032775000Y-28750000D01*
D15*
X037225000Y-27250000D02*
X037949999Y-27250000D01*
D15*
X037949999Y-27250000D02*
X037950001Y-27250000D01*
D16*
X037950001Y-27250000D02*
X038000000Y-27250000D01*
D16*
X038000000Y-27250000D02*
X038250000Y-27250000D01*
D17*
X038250000Y-27250000D02*
X038500000Y-27250000D01*
D18*
X038500000Y-27250000D02*
X039286667Y-27056667D01*
D11*
X039286667Y-27056667D02*
X040073333Y-26863333D01*
D11*
X040073333Y-26863333D02*
X040860000Y-26670000D01*
D11*
X-16087500Y039000000D02*
X-16000000Y039087500D01*
D11*
X-16000000Y039087500D02*
X-16000000Y039200000D01*
D11*
X-16000000Y039200000D02*
X-14400000Y040800000D01*
D11*
X-14400000Y040800000D02*
X-13200000Y040800000D01*
D11*
X-13200000Y040800000D02*
X-12400000Y040000000D01*
D11*
X-12400000Y040000000D02*
X-12400000Y039600000D01*
D11*
X-12400000Y039600000D02*
X-12175000Y039375000D01*
D12*
X-12175000Y039375000D02*
X-12175000Y039000000D01*
D15*
X032775000Y-28750000D02*
X032924999Y-28899999D01*
D15*
X032924999Y-28899999D02*
X032925001Y-28900001D01*
D23*
X032925001Y-28900001D02*
X033173166Y-29148166D01*
D23*
X033173166Y-29148166D02*
X033571332Y-29546332D01*
D20*
X033571332Y-29546332D02*
X034482699Y-29546332D01*
D24*
X034482699Y-29546332D02*
X035187500Y-29625000D01*
D24*
X035187500Y-29625000D02*
X035750000Y-29562500D01*
D24*
X035750000Y-29562500D02*
X036289266Y-29562500D01*
D24*
X036289266Y-29562500D02*
X036305434Y-29546332D01*
D11*
X036305434Y-29546332D02*
X036428668Y-29546332D01*
D11*
X036428668Y-29546332D02*
X036826834Y-29148166D01*
D23*
X036826834Y-29148166D02*
X037074999Y-28900001D01*
D23*
X037074999Y-28900001D02*
X037075001Y-28899999D01*
D15*
X037075001Y-28899999D02*
X037225000Y-28750000D01*
D25*
X053862500Y-12950000D02*
X053562501Y-13249999D01*
D25*
X053562501Y-13249999D02*
X053562499Y-13250001D01*
D11*
X053562499Y-13250001D02*
X051812500Y-15000000D01*
D11*
X051812500Y-15000000D02*
X048225001Y-15000000D01*
D11*
X048225001Y-15000000D02*
X048224999Y-15000000D01*
D12*
X048224999Y-15000000D02*
X047825000Y-15000000D01*
D11*
X060954000Y030199000D02*
X060954000Y030199000D01*
D11*
X060954000Y030199000D02*
X060877909Y030275091D01*
D11*
X060877909Y030275091D02*
X060860421Y030275091D01*
D11*
X060860421Y030275091D02*
X060285452Y030850061D01*
D11*
X060285452Y030850061D02*
X059710482Y031425030D01*
D11*
X059710482Y031425030D02*
X059135513Y032000000D01*
D26*
X059135513Y032000000D02*
X058825000Y032000000D01*
D11*
X065730000Y027000000D02*
X065730000Y027966250D01*
D11*
X065730000Y027966250D02*
X065730000Y028932500D01*
D11*
X065730000Y028932500D02*
X065730000Y029898750D01*
D11*
X065730000Y029898750D02*
X067000000Y036000000D01*
D11*
X065730000Y020000000D02*
X065730000Y011810000D01*
D11*
X065730000Y011810000D02*
X069540000Y011810000D01*
D11*
X069540000Y011810000D02*
X069540000Y008000000D01*
D12*
X047825000Y-15000000D02*
X047825000Y-15474999D01*
D12*
X047825000Y-15474999D02*
X047825000Y-15475001D01*
D11*
X047825000Y-15475001D02*
X047825000Y-16239000D01*
D11*
X047825000Y-16239000D02*
X046655000Y-16239000D01*
D11*
X046655000Y-16239000D02*
X046655000Y-16239000D01*
D12*
X058825000Y032000000D02*
X058825000Y031625000D01*
D12*
X058825000Y031625000D02*
X058400000Y031200000D01*
D27*
X058400000Y031200000D02*
X058400000Y031200000D01*
D11*
X044779000Y026290000D02*
X044779000Y026290000D01*
D11*
X044779000Y026290000D02*
X044114000Y025625000D01*
D11*
X044114000Y025625000D02*
X043375000Y025625000D01*
D11*
X043375000Y025625000D02*
X040860000Y026670000D01*
D12*
X029825000Y-27000000D02*
X030178553Y-27353553D01*
D11*
X030178553Y-27353553D02*
X024616448Y-32915659D01*
D11*
X024616448Y-32915659D02*
X024262895Y-32562105D01*
D11*
X024262895Y-32562105D02*
X023567632Y-33257368D01*
D11*
X023567632Y-33257368D02*
X022872368Y-33952632D01*
D11*
X022872368Y-33952632D02*
X022177105Y-34647895D01*
D11*
X022177105Y-34647895D02*
X021481842Y-35343158D01*
D11*
X021481842Y-35343158D02*
X020786579Y-36038421D01*
D11*
X020786579Y-36038421D02*
X020091316Y-36733684D01*
D11*
X020091316Y-36733684D02*
X019396053Y-37428947D01*
D11*
X019396053Y-37428947D02*
X018700789Y-38124211D01*
D11*
X018700789Y-38124211D02*
X018005526Y-38819474D01*
D11*
X018005526Y-38819474D02*
X017310263Y-39514737D01*
D11*
X017310263Y-39514737D02*
X016615000Y-40210000D01*
D11*
X016615000Y-40210000D02*
X016615000Y-40895000D01*
D11*
X016615000Y-40895000D02*
X016615000Y-41580000D01*
D11*
X-30160000Y-38350000D02*
X-09840000Y-38350000D01*
D11*
X018000000Y026670000D02*
X040860000Y026670000D01*
D11*
X013845000Y-41580000D02*
X010615000Y-38350000D01*
D11*
X010615000Y-38350000D02*
X-09840000Y-38350000D01*
D15*
X-16870000Y037945000D02*
X-16870000Y037945000D01*
D15*
X-16870000Y037945000D02*
X-16750000Y038250000D01*
D15*
X-16750000Y038250000D02*
X-16500000Y038500000D01*
D28*
X-16500000Y038500000D02*
X-16087500Y039000000D01*
D11*
X062781000Y-07723000D02*
X062781000Y-07723000D01*
D11*
X062781000Y-07723000D02*
X059089937Y-07723000D01*
D11*
X059089937Y-07723000D02*
X058436562Y-08376375D01*
D11*
X058436562Y-08376375D02*
X061000000Y-14000000D01*
D11*
X061000000Y-14000000D02*
X060000000Y-15000000D01*
D11*
X060000000Y-15000000D02*
X057500000Y-15000000D01*
D11*
X057500000Y-15000000D02*
X057000000Y-14500000D01*
D11*
X057000000Y-14500000D02*
X054469759Y-13250000D01*
D11*
X054469759Y-13250000D02*
X054469757Y-13250000D01*
D25*
X054469757Y-13250000D02*
X053862500Y-12950000D01*
D12*
X-12175000Y039000000D02*
X-11925000Y039000000D01*
D26*
X-11925000Y039000000D02*
X-11775000Y039000000D01*
D26*
X-11775000Y039000000D02*
X-11675000Y039000000D01*
D11*
X-11675000Y039000000D02*
X-11425000Y039000000D01*
D11*
X-11425000Y039000000D02*
X-11175000Y039000000D01*
D11*
X-11175000Y039000000D02*
X-10925000Y039000000D01*
D11*
X-10925000Y039000000D02*
X-10675000Y039000000D01*
D11*
X-10675000Y039000000D02*
X-10425000Y039000000D01*
D11*
X-10425000Y039000000D02*
X-10175000Y039000000D01*
D11*
X-10175000Y039000000D02*
X005670000Y039000000D01*
D11*
X005670000Y039000000D02*
X018000000Y026670000D01*
D10*
X053684000Y016904000D02*
X053684000Y016904000D01*
D10*
X053684000Y016904000D02*
X053992000Y016904000D01*
D10*
X053992000Y016904000D02*
X057087500Y020000000D01*
D10*
X040860000Y-13970000D02*
X044797311Y-10032689D01*
D10*
X044797311Y-10032689D02*
X044797311Y-08350993D01*
D10*
X044797311Y-08350993D02*
X051148621Y-01999682D01*
D10*
X051148621Y-01999682D02*
X051148621Y005517317D01*
D10*
X051148621Y005517317D02*
X051148621Y005517621D01*
D10*
X051148621Y005517621D02*
X051288000Y005657000D01*
D10*
X051288000Y005657000D02*
X051288000Y005657000D01*
D10*
X051892000Y014348000D02*
X051892000Y014348000D01*
D10*
X051892000Y014348000D02*
X051892000Y021804000D01*
D10*
X051892000Y021804000D02*
X057087500Y027000000D01*
D10*
X032775000Y-27750000D02*
X033413000Y-27750000D01*
D10*
X033413000Y-27750000D02*
X034861000Y-29198000D01*
D10*
X034861000Y-29198000D02*
X034861000Y-29198000D01*
D10*
X035398000Y-29985000D02*
X035398000Y-29985000D01*
D10*
X035398000Y-29985000D02*
X035542299Y-30129299D01*
D10*
X035542299Y-30129299D02*
X035583923Y-30129299D01*
D10*
X035583923Y-30129299D02*
X045613101Y-40158477D01*
D10*
X045613101Y-40158477D02*
X053803895Y-40158477D01*
D10*
X053803895Y-40158477D02*
X053803895Y-42284896D01*
D10*
X053803895Y-42284896D02*
X054405353Y-42886354D01*
D10*
X054405353Y-42886354D02*
X055236354Y-42886354D01*
D10*
X055236354Y-42886354D02*
X056770000Y-44420000D01*
D10*
X032775000Y-27250000D02*
X033708000Y-27250000D01*
D10*
X033708000Y-27250000D02*
X035626000Y-29168000D01*
D10*
X035626000Y-29168000D02*
X035626000Y-29168000D01*
D10*
X032775000Y-25750000D02*
X032694000Y-25831000D01*
D10*
X032694000Y-25831000D02*
X031697000Y-25831000D01*
D10*
X031697000Y-25831000D02*
X031697000Y-25831000D01*
D10*
X032775000Y-26250000D02*
X032937861Y-26192139D01*
D10*
X032937861Y-26192139D02*
X033184558Y-26192139D01*
D10*
X033184558Y-26192139D02*
X033138000Y-26205000D01*
D10*
X033138000Y-26205000D02*
X033500000Y-26105000D01*
D10*
X033500000Y-26105000D02*
X033600000Y-26105000D01*
D10*
X033600000Y-26105000D02*
X033822723Y-25882277D01*
D10*
X033822723Y-25882277D02*
X033827000Y-25773000D01*
D10*
X033827000Y-25773000D02*
X033827000Y-24781000D01*
D10*
X033827000Y-24781000D02*
X033827000Y-24781000D01*
D10*
X026175000Y-36890000D02*
X026175000Y-36890000D01*
D10*
X026175000Y-36890000D02*
X026173492Y-36888492D01*
D10*
X026173492Y-36888492D02*
X025977225Y-36888492D01*
D10*
X025977225Y-36888492D02*
X022711966Y-40153751D01*
D10*
X022711966Y-40153751D02*
X020954696Y-40153751D01*
D10*
X020954696Y-40153751D02*
X020954696Y-42296306D01*
D10*
X020954696Y-42296306D02*
X020364647Y-42886354D01*
D10*
X020364647Y-42886354D02*
X019533646Y-42886354D01*
D10*
X019533646Y-42886354D02*
X018000000Y-44420000D01*
D10*
X047825000Y-10000000D02*
X046175000Y-11650000D01*
D10*
X046175000Y-11650000D02*
X046175000Y-15000000D01*
D10*
X047825000Y-10000000D02*
X052813000Y-10000000D01*
D10*
X052813000Y-10000000D02*
X053862500Y-11050000D01*
D10*
X060075000Y-13800000D02*
X060075000Y-13800000D01*
D10*
X060075000Y-13800000D02*
X057938000Y-13800000D01*
D10*
X057938000Y-13800000D02*
X056137500Y-12000000D01*
D10*
X056912500Y008000000D02*
X058741000Y006172000D01*
D10*
X058741000Y006172000D02*
X062231000Y006172000D01*
D10*
X062231000Y006172000D02*
X062231000Y006172000D01*
D10*
X069540000Y036000000D02*
X068197877Y037342123D01*
D10*
X068197877Y037342123D02*
X052618751Y037342123D01*
D10*
X052618751Y037342123D02*
X052517123Y037342123D01*
D10*
X052517123Y037342123D02*
X051175000Y036000000D01*
D10*
X051175000Y036000000D02*
X043357000Y028182000D01*
D10*
X043357000Y028182000D02*
X043357000Y026485000D01*
D10*
X043357000Y026485000D02*
X043357000Y026485000D01*
D10*
X058825000Y036000000D02*
X058738744Y035913744D01*
D10*
X058738744Y035913744D02*
X058738744Y035786201D01*
D10*
X058738744Y035786201D02*
X057175000Y034222457D01*
D10*
X057175000Y034222457D02*
X057175000Y032000000D01*
D10*
X058825000Y036000000D02*
X064460000Y036000000D01*
D10*
X058912500Y020000000D02*
X060150233Y021237233D01*
D10*
X060150233Y021237233D02*
X067032767Y021237233D01*
D10*
X067032767Y021237233D02*
X068270000Y020000000D01*
D10*
X058912500Y027000000D02*
X060708000Y028795000D01*
D10*
X060708000Y028795000D02*
X064772171Y028937171D01*
D10*
X064772171Y028937171D02*
X064772171Y028937171D01*
D11*
X-44160000Y035270000D02*
X-41620000Y035270000D01*
D11*
X-44160000Y032730000D02*
X-41620000Y032730000D01*
D11*
X-44160000Y027650000D02*
X-44350000Y027650000D01*
D11*
X-44350000Y027650000D02*
X-44400000Y027600000D01*
D11*
X-44400000Y027600000D02*
X-44800000Y028000000D01*
D11*
X-44800000Y028000000D02*
X-45200000Y028000000D01*
D11*
X-45200000Y028000000D02*
X-46400000Y029200000D01*
D11*
X-46400000Y029200000D02*
X-46400000Y031200000D01*
D11*
X-46400000Y031200000D02*
X-45200000Y032400000D01*
D11*
X-45200000Y032400000D02*
X-44400000Y032400000D01*
D11*
X-44400000Y032400000D02*
X-44000000Y032800000D01*
D11*
X-44000000Y032800000D02*
X-44090000Y032800000D01*
D11*
X-44090000Y032800000D02*
X-44160000Y032730000D01*
D11*
X-64540000Y017500000D02*
X-54390000Y027650000D01*
D11*
X-54390000Y027650000D02*
X-44160000Y027650000D01*
D15*
X004992000Y-09239000D03*
D15*
X004623000Y-10695000D03*
D15*
X-03975000Y-14494000D03*
D15*
X-05840000Y-15456000D03*
D15*
X007815000Y-07630000D03*
D15*
X-25752000Y-20247000D03*
D15*
X-12475000Y-17799000D03*
D15*
X-08039000Y-12958000D03*
D15*
X-01566000Y-02515000D03*
D15*
X-04531000Y-05732000D03*
D15*
X007684000Y017385000D03*
D15*
X004430000Y006446000D03*
D15*
X-06584000Y001061000D03*
D15*
X032957000Y-24775000D03*
D15*
X034128000Y-29069000D03*
D15*
X045179000Y-08797000D03*
D15*
X045042000Y-06465000D03*
D15*
X-07200000Y-28800000D03*
D15*
X007744000Y-18239000D03*
D15*
X003447000Y-17752000D03*
D15*
X002948000Y-15041000D03*
D15*
X057620000Y035141000D03*
D15*
X057800000Y032800000D03*
D15*
X058000000Y016800000D03*
D15*
X058000000Y009600000D03*
D15*
X-25786000Y017259000D03*
D15*
X-19327000Y004153000D03*
D15*
X-06229000Y-00662000D03*
D15*
X-05741000Y-01745000D03*
D15*
X008366000Y-08397000D03*
D15*
X008390000Y-10030000D03*
D15*
X015801000Y-12489000D03*
D15*
X-34975000Y011842000D03*
D15*
X-20726000Y002727000D03*
D15*
X-16074000Y002073000D03*
D15*
X004419000Y-10028000D03*
D15*
X011571000Y-13444000D03*
D15*
X-59907000Y004130000D03*
D15*
X-32422000Y000136000D03*
D15*
X007442000Y010752000D03*
D15*
X-05212000Y-09878000D03*
D15*
X-03537000Y-10763000D03*
D15*
X-51749000Y-08244000D03*
D15*
X-05442000Y-15055000D03*
D15*
X-02179000Y-18365000D03*
D15*
X-12232000Y-12968000D03*
D15*
X011604000Y-10928000D03*
D15*
X-07609000Y-15539000D03*
D15*
X-03967000Y-17598000D03*
D15*
X060954000Y030199000D03*
D15*
X046655000Y-16239000D03*
D15*
X058400000Y031200000D03*
D15*
X044779000Y026290000D03*
D15*
X-16870000Y037945000D03*
D15*
X062781000Y-07723000D03*
D15*
X053684000Y016904000D03*
D15*
X051288000Y005657000D03*
D15*
X051892000Y014348000D03*
D15*
X034861000Y-29198000D03*
D15*
X035398000Y-29985000D03*
D15*
X035626000Y-29168000D03*
D15*
X031697000Y-25831000D03*
D15*
X033827000Y-24781000D03*
D15*
X026175000Y-36890000D03*
D15*
X060075000Y-13800000D03*
D15*
X062231000Y006172000D03*
D15*
X043357000Y026485000D03*
D15*
X064772171Y028937171D03*
M02*