%TF.GenerationSoftware,tscircuit,circuit-json-to-gerber,0.0.93*%
%TF.CreationDate,2026-08-31T06:38:35.112Z*%
%TF.SameCoordinates,Original*%
%TF.FileFunction,Copper,L1,Top*%
%TF.FilePolarity,Positive*%
%FSLAX46Y46*%
%MOMM*%
G04 Gerber Fmt 4.6, Leading zero omitted, Abs format (unit mm)*
G04 Created by tscircuit (builder) date 2026-08-31T06:38:35.112Z*
G01*
%LPD*%
G75*
G04 APERTURE MACROS START*
%AMHORZPILL*
0 Horizontal pill (stadium) shape macro*
0 Parameters:*
0 $1 = Total width*
0 $2 = Total height*
0 $3 = Circle diameter (equal to height)*
0 $4 = Circle center offset
0 21 = Center Line(Exposure, Width, Height, Center X, Center Y, Rotation)*
0 1 = Circle(Exposure, Diameter, Center X, Center Y, Rotation)*
21,1,$1-$3,$2,0.0,0.0,0.0*
1,1,$3,0.0-$4,0.0*
1,1,$3,$4,0.0*%
%AMVERTPILL*
0 Vertical pill (stadium) shape macro*
0 Parameters:*
0 $1 = Total width*
0 $2 = Total height*
0 $3 = Circle diameter (equal to width)*
0 $4 = Circle center offset
0 21 = Center Line(Exposure, Width, Height, Center X, Center Y, Rotation)*
21,1,$1,$2-$3,0.0,0.0,0.0*
1,1,$3,0.0,0.0-$4*
1,1,$3,0.0,$4*%
%AMROUNDRECT*
0 Rectangle with rounded corners*
0 $1 Corner radius*
0 $2 $3 $4 $5 $6 $7 $8 $9 X,Y Position of each corner*
0 Polygon box body*
4,1,4,$2,$3,$4,$5,$6,$7,$8,$9,$2,$3,0*
0 Circles for rounded corners*
1,1,$1+$1,$2,$3*
1,1,$1+$1,$4,$5*
1,1,$1+$1,$6,$7*
1,1,$1+$1,$8,$9*
0 Rectangles between the rounded corners*
20,1,$1+$1,$2,$3,$4,$5,0*
20,1,$1+$1,$4,$5,$6,$7,0*
20,1,$1+$1,$6,$7,$8,$9,0*
20,1,$1+$1,$8,$9,$2,$3,0*%
G04 APERTURE MACROS END*
G04 aperture START LIST*
%ADD10C,0.150000*%
%ADD11C,1.000000*%
%ADD12C,0.800000*%
%ADD13C,0.350000*%
%ADD14C,0.300000*%
%ADD15C,0.600000*%
%ADD16C,0.900000*%
%ADD17C,0.775000*%
%ADD18C,0.850000*%
%ADD19C,0.950000*%
%ADD20C,0.375000*%
%ADD21C,0.275000*%
%ADD22C,0.650000*%
%ADD23C,0.750000*%
%ADD24C,0.525000*%
%ADD25R,1.500000X1.500000*%
%ADD26C,1.500000*%
%ADD27C,0.063000*%
%ADD28C,0.200000*%
%ADD29C,0.108000*%
%ADD30R,1.800000X1.800000*%
%ADD31C,0.081000*%
%ADD32C,0.090000*%
%ADD33C,0.100000*%
%ADD34R,1.700000X1.700000*%
%ADD35R,1.025000X1.400000*%
%ADD36R,0.717500X0.980000*%
%ADD37C,0.120000*%
%ADD38C,0.036000*%
%ADD39R,2.200000X2.200000*%
%ADD40C,0.150000*%
%ADD41R,0.800000X0.950000*%
%ADD42R,0.560000X0.665000*%
%ADD43R,2.800000X2.800000*%
%ADD44C,0.072000*%
%ADD45R,2.000000X2.000000*%
%ADD46R,1.325000X0.600000*%
%ADD47R,0.927500X0.420000*%
%ADD48C,0.045000*%
%ADD49C,1.400000*%
%ADD50C,0.300000*%
%TD*%
G04 aperture END LIST*
D25*
X001570000Y-41670000D03*
D26*
X001570000Y-39130000D03*
D26*
X001570000Y-36590000D03*
D26*
X001570000Y-34050000D03*
D26*
X001570000Y-31510000D03*
D26*
X001570000Y-28970000D03*
D26*
X001570000Y-26430000D03*
D26*
X001570000Y-23890000D03*
D26*
X001570000Y-21350000D03*
D26*
X001570000Y-18810000D03*
D26*
X001570000Y-16270000D03*
D26*
X001570000Y-13730000D03*
D26*
X001570000Y-11190000D03*
D26*
X001570000Y-08650000D03*
D26*
X001570000Y-06110000D03*
D26*
X001570000Y-03570000D03*
D26*
X001570000Y-01030000D03*
D26*
X001570000Y001510000D03*
D26*
X001570000Y004050000D03*
D26*
X001570000Y006590000D03*
D26*
X001570000Y009130000D03*
D26*
X001570000Y011670000D03*
D25*
X024430000Y-41670000D03*
D26*
X024430000Y-39130000D03*
D26*
X024430000Y-36590000D03*
D26*
X024430000Y-34050000D03*
D26*
X024430000Y-31510000D03*
D26*
X024430000Y-28970000D03*
D26*
X024430000Y-26430000D03*
D26*
X024430000Y-23890000D03*
D26*
X024430000Y-21350000D03*
D26*
X024430000Y-18810000D03*
D26*
X024430000Y-16270000D03*
D26*
X024430000Y-13730000D03*
D26*
X024430000Y-11190000D03*
D26*
X024430000Y-08650000D03*
D26*
X024430000Y-06110000D03*
D26*
X024430000Y-03570000D03*
D26*
X024430000Y-01030000D03*
D26*
X024430000Y001510000D03*
D26*
X024430000Y004050000D03*
D26*
X024430000Y006590000D03*
D26*
X024430000Y009130000D03*
D26*
X024430000Y011670000D03*
D25*
X-70540000Y-15000000D03*
D26*
X-68000000Y-15000000D03*
D26*
X-65460000Y-15000000D03*
D25*
X-70540000Y000000000D03*
D26*
X-68000000Y000000000D03*
D26*
X-65460000Y000000000D03*
D25*
X-76500000Y015000000D03*
D30*
X-64540000Y025292500D03*
D30*
X-59460000Y025292500D03*
D30*
X-44160000Y040350000D03*
D30*
X-41620000Y040350000D03*
D30*
X-44160000Y037810000D03*
D30*
X-41620000Y037810000D03*
D30*
X-44160000Y035270000D03*
D30*
X-41620000Y035270000D03*
D30*
X-44160000Y032730000D03*
D30*
X-41620000Y032730000D03*
D34*
X-09840000Y-25650000D03*
D34*
X-09840000Y-28190000D03*
D34*
X-09840000Y-30730000D03*
D34*
X-09840000Y-33270000D03*
D34*
X-09840000Y-35810000D03*
D34*
X-09840000Y-38350000D03*
D34*
X-30160000Y-25650000D03*
D34*
X-30160000Y-28190000D03*
D34*
X-30160000Y-30730000D03*
D34*
X-30160000Y-33270000D03*
D34*
X-30160000Y-35810000D03*
D34*
X-30160000Y-38350000D03*
D35*
X-48912500Y-18000000D03*
D35*
X-47087500Y-18000000D03*
D35*
X-48912500Y-12000000D03*
D35*
X-47087500Y-12000000D03*
D35*
X-48912500Y-06000000D03*
D35*
X-47087500Y-06000000D03*
D35*
X-48912500Y000000000D03*
D35*
X-47087500Y000000000D03*
D35*
X-48912500Y006000000D03*
D35*
X-47087500Y006000000D03*
D35*
X-48912500Y012000000D03*
D35*
X-47087500Y012000000D03*
D35*
X-48912500Y018000000D03*
D35*
X-47087500Y018000000D03*
D39*
X069540000Y046000000D03*
D39*
X067000000Y046000000D03*
D39*
X064460000Y046000000D03*
D41*
X057175000Y044000000D03*
D41*
X058825000Y044000000D03*
D41*
X057175000Y040000000D03*
D41*
X058825000Y040000000D03*
D30*
X006110000Y040730000D03*
D30*
X006110000Y043270000D03*
D30*
X008650000Y040730000D03*
D30*
X008650000Y043270000D03*
D30*
X011190000Y040730000D03*
D30*
X011190000Y043270000D03*
D30*
X013730000Y040730000D03*
D30*
X013730000Y043270000D03*
D30*
X016270000Y040730000D03*
D30*
X016270000Y043270000D03*
D30*
X018810000Y040730000D03*
D30*
X018810000Y043270000D03*
D30*
X021350000Y040730000D03*
D30*
X021350000Y043270000D03*
D30*
X023890000Y040730000D03*
D30*
X023890000Y043270000D03*
D43*
X038000000Y036060000D03*
D43*
X038000000Y040020000D03*
D43*
X038000000Y043980000D03*
D43*
X038000000Y047940000D03*
D45*
X065500000Y-06000000D03*
D45*
X070500000Y-06000000D03*
D46*
X053862500Y-11050000D03*
D46*
X053862500Y-12950000D03*
D46*
X056137500Y-12000000D03*
D41*
X046175000Y-10000000D03*
D41*
X047825000Y-10000000D03*
D41*
X046175000Y-15000000D03*
D41*
X047825000Y-15000000D03*
D35*
X-17912500Y039000000D03*
D35*
X-16087500Y039000000D03*
D41*
X-13825000Y039000000D03*
D41*
X-12175000Y039000000D03*
D49*
X041905000Y-33070000D03*
D49*
X040635000Y-30530000D03*
D49*
X039365000Y-33070000D03*
D49*
X038095000Y-30530000D03*
D30*
X044190000Y-21460000D03*
D30*
X044190000Y-24000000D03*
D30*
X044190000Y-26540000D03*
D30*
X051810000Y-26540000D03*
D30*
X051810000Y-24000000D03*
D30*
X051810000Y-21460000D03*
D35*
X047087500Y-18000000D03*
D35*
X048912500Y-18000000D03*
D35*
X034087500Y-27000000D03*
D35*
X035912500Y-27000000D03*
D35*
X056087500Y-20000000D03*
D35*
X057912500Y-20000000D03*
D45*
X042920000Y-30000000D03*
D45*
X053080000Y-30000000D03*
D49*
X061905000Y-33070000D03*
D49*
X060635000Y-30530000D03*
D49*
X059365000Y-33070000D03*
D49*
X058095000Y-30530000D03*
D30*
X064190000Y-21460000D03*
D30*
X064190000Y-24000000D03*
D30*
X064190000Y-26540000D03*
D30*
X071810000Y-26540000D03*
D30*
X071810000Y-24000000D03*
D30*
X071810000Y-21460000D03*
D35*
X067087500Y-18000000D03*
D35*
X068912500Y-18000000D03*
D35*
X058087500Y-27000000D03*
D35*
X059912500Y-27000000D03*
D35*
X076087500Y-20000000D03*
D35*
X077912500Y-20000000D03*
D45*
X062920000Y-30000000D03*
D45*
X073080000Y-30000000D03*
D10*
X024430000Y-21350000D02*
X023581096Y-22198904D01*
D10*
X023581096Y-22198904D02*
X021386151Y-22198904D01*
D10*
X021386151Y-22198904D02*
X010571055Y-33014000D01*
D10*
X010571055Y-33014000D02*
X-00632000Y-33014000D01*
D10*
X-00632000Y-33014000D02*
X-00632000Y-33014000D01*
D10*
X-04000000Y-36800000D02*
X-04000000Y-36800000D01*
D10*
X-04000000Y-36800000D02*
X-04028346Y-36828346D01*
D10*
X-04028346Y-36828346D02*
X-04028346Y-36871145D01*
D10*
X-04028346Y-36871145D02*
X-05507201Y-38350000D01*
D10*
X-05507201Y-38350000D02*
X-09840000Y-38350000D01*
D10*
X024430000Y-01030000D02*
X021129764Y-04330236D01*
D10*
X021129764Y-04330236D02*
X021129764Y-11651791D01*
D10*
X021129764Y-11651791D02*
X004888555Y-27893000D01*
D10*
X004888555Y-27893000D02*
X-00631000Y-27893000D01*
D10*
X-00631000Y-27893000D02*
X-00631000Y-27893000D01*
D10*
X024430000Y004050000D02*
X019958000Y-00422000D01*
D10*
X019958000Y-00422000D02*
X016836000Y-00422000D01*
D10*
X016836000Y-00422000D02*
X016836000Y-00422000D01*
D10*
X008967000Y-08843000D02*
X008967000Y-08843000D01*
D10*
X008967000Y-08843000D02*
X008903752Y-08906248D01*
D10*
X008903752Y-08906248D02*
X008876472Y-08906248D01*
D10*
X008876472Y-08906248D02*
X008366720Y-09416000D01*
D10*
X008366720Y-09416000D02*
X006591000Y-09416000D01*
D10*
X006591000Y-09416000D02*
X006591000Y-09416000D01*
D10*
X-04986000Y-13200000D02*
X-04986000Y-13200000D01*
D10*
X-04986000Y-13200000D02*
X-05127050Y-13341050D01*
D10*
X-05127050Y-13341050D02*
X-05132822Y-13341050D01*
D10*
X-05132822Y-13341050D02*
X-05776772Y-13985000D01*
D10*
X-05776772Y-13985000D02*
X-05865000Y-13985000D01*
D10*
X-05865000Y-13985000D02*
X-05865000Y-13985000D01*
D10*
X024430000Y001510000D02*
X024430000Y000786000D01*
D10*
X024430000Y000786000D02*
X006817000Y-16827000D01*
D10*
X006817000Y-16827000D02*
X006817000Y-16827000D01*
D10*
X003563000Y-18619000D02*
X003563000Y-18619000D01*
D10*
X003563000Y-18619000D02*
X003451841Y-18730159D01*
D10*
X003451841Y-18730159D02*
X003451841Y-18730310D01*
D10*
X003451841Y-18730310D02*
X001877936Y-20304215D01*
D10*
X001877936Y-20304215D02*
X000857038Y-20304215D01*
D10*
X000857038Y-20304215D02*
X000560253Y-20601000D01*
D10*
X000560253Y-20601000D02*
X-00518000Y-20601000D01*
D10*
X-00518000Y-20601000D02*
X-00518000Y-20601000D01*
D10*
X-01541000Y-22612000D02*
X-01541000Y-22612000D01*
D10*
X-01541000Y-22612000D02*
X-01598789Y-22669789D01*
D10*
X-01598789Y-22669789D02*
X-02218240Y-22669789D01*
D10*
X-02218240Y-22669789D02*
X-09840000Y-30291550D01*
D10*
X-09840000Y-30291550D02*
X-09840000Y-30730000D01*
D10*
X001570000Y-18810000D02*
X000481000Y-19899000D01*
D10*
X000481000Y-19899000D02*
X-00376000Y-19899000D01*
D10*
X-00376000Y-19899000D02*
X-00376000Y-19899000D01*
D10*
X-02082000Y-23169000D02*
X-02082000Y-23169000D01*
D10*
X-02082000Y-23169000D02*
X-02127937Y-23214937D01*
D10*
X-02127937Y-23214937D02*
X-02127937Y-25557937D01*
D10*
X-02127937Y-25557937D02*
X-09840000Y-33270000D01*
D10*
X001570000Y-36590000D02*
X001393571Y-36413571D01*
D10*
X001393571Y-36413571D02*
X-07894107Y-36413571D01*
D10*
X-07894107Y-36413571D02*
X-08348197Y-36867661D01*
D10*
X-08348197Y-36867661D02*
X-29102339Y-36867661D01*
D10*
X-29102339Y-36867661D02*
X-30160000Y-35810000D01*
D10*
X047087500Y-18000000D02*
X048013551Y-17073949D01*
D10*
X048013551Y-17073949D02*
X059427022Y-17073949D01*
D10*
X059427022Y-17073949D02*
X059432745Y-17073949D01*
D10*
X059432745Y-17073949D02*
X059958796Y-17600000D01*
D10*
X059958796Y-17600000D02*
X060003000Y-17600000D01*
D10*
X060003000Y-17600000D02*
X060003000Y-17600000D01*
D10*
X061600000Y-17600000D02*
X061600000Y-17600000D01*
D10*
X061600000Y-17600000D02*
X066688000Y-17600000D01*
D10*
X066688000Y-17600000D02*
X067087500Y-18000000D01*
D10*
X047087500Y-18000000D02*
X045000000Y-17775000D01*
D10*
X045000000Y-17775000D02*
X043095308Y-20217160D01*
D10*
X043095308Y-20217160D02*
X043095308Y-21496394D01*
D10*
X043095308Y-21496394D02*
X036576082Y-28015620D01*
D10*
X036576082Y-28015620D02*
X025461702Y-39130000D01*
D10*
X025461702Y-39130000D02*
X024430000Y-39130000D01*
D10*
X046175000Y-10000000D02*
X039745000Y-03570000D01*
D10*
X039745000Y-03570000D02*
X024430000Y-03570000D01*
D10*
X021350000Y040730000D02*
X022676919Y039403081D01*
D10*
X022676919Y039403081D02*
X022676919Y022529729D01*
D10*
X022676919Y022529729D02*
X027302243Y017904404D01*
D10*
X027302243Y017904404D02*
X027302243Y009196757D01*
D10*
X027302243Y009196757D02*
X027324000Y009175000D01*
D10*
X027324000Y009175000D02*
X027324000Y009175000D01*
D10*
X027071000Y-16803000D02*
X027071000Y-16803000D01*
D10*
X027071000Y-16803000D02*
X027071000Y-23789000D01*
D10*
X027071000Y-23789000D02*
X024430000Y-26430000D01*
D10*
X018858000Y-25203000D02*
X018858000Y-25203000D01*
D10*
X018858000Y-25203000D02*
X022625000Y-28970000D01*
D10*
X022625000Y-28970000D02*
X024430000Y-28970000D01*
D10*
X018810000Y040730000D02*
X018810000Y030566000D01*
D10*
X018810000Y030566000D02*
X014640000Y026396000D01*
D10*
X014640000Y026396000D02*
X014640000Y026396000D01*
D10*
X009808000Y023349000D02*
X009808000Y023349000D01*
D10*
X009808000Y023349000D02*
X009763651Y023304651D01*
D10*
X009763651Y023304651D02*
X009763651Y023123154D01*
D10*
X009763651Y023123154D02*
X009011000Y022370503D01*
D10*
X009011000Y022370503D02*
X009011000Y015437000D01*
D10*
X009011000Y015437000D02*
X009011000Y015437000D01*
D10*
X003805000Y-00575000D02*
X003805000Y-00575000D01*
D10*
X003805000Y-00575000D02*
X003775805Y-00604195D01*
D10*
X003775805Y-00604195D02*
X003775805Y-08984195D01*
D10*
X003775805Y-08984195D02*
X001570000Y-11190000D01*
D10*
X016270000Y043270000D02*
X015189952Y042189952D01*
D10*
X015189952Y042189952D02*
X015189952Y041969354D01*
D10*
X015189952Y041969354D02*
X015189952Y027487223D01*
D10*
X015189952Y027487223D02*
X013861618Y026158889D01*
D10*
X013861618Y026158889D02*
X013861618Y010528565D01*
D10*
X013861618Y010528565D02*
X011303879Y007970827D01*
D10*
X011303879Y007970827D02*
X011303879Y000256879D01*
D10*
X011303879Y000256879D02*
X008805000Y-02242000D01*
D10*
X008805000Y-02242000D02*
X008805000Y-02242000D01*
D10*
X008712000Y-04609000D02*
X008712000Y-04609000D01*
D10*
X008712000Y-04609000D02*
X008702573Y-04618427D01*
D10*
X008702573Y-04618427D02*
X008702573Y-04684505D01*
D10*
X008702573Y-04684505D02*
X008702573Y-06597427D01*
D10*
X008702573Y-06597427D02*
X001570000Y-13730000D01*
D10*
X008376000Y-08493000D02*
X008376000Y-08493000D01*
D10*
X008376000Y-08493000D02*
X008374448Y-08494552D01*
D10*
X008374448Y-08494552D02*
X007841000Y-09028000D01*
D10*
X007841000Y-09028000D02*
X007598000Y-09028000D01*
D10*
X007598000Y-09028000D02*
X007598000Y-09028000D01*
D10*
X013730000Y040730000D02*
X008200000Y035200000D01*
D10*
X008200000Y035200000D02*
X008200000Y006609000D01*
D10*
X008200000Y006609000D02*
X008200000Y006609000D01*
D10*
X008200000Y005797000D02*
X008200000Y005797000D01*
D10*
X008200000Y005797000D02*
X008170547Y005767547D01*
D10*
X008170547Y005767547D02*
X008170547Y005568916D01*
D10*
X008170547Y005568916D02*
X008227202Y005512261D01*
D10*
X008227202Y005512261D02*
X008227202Y-02156226D01*
D10*
X008227202Y-02156226D02*
X011114000Y-05043024D01*
D10*
X011114000Y-05043024D02*
X011114000Y-08208000D01*
D10*
X011114000Y-08208000D02*
X011114000Y-08208000D01*
D10*
X010382000Y-08992000D02*
X010382000Y-08992000D01*
D10*
X010382000Y-08992000D02*
X010360835Y-09013165D01*
D10*
X010360835Y-09013165D02*
X006143661Y-13230339D01*
D10*
X006143661Y-13230339D02*
X006108729Y-13230339D01*
D10*
X006108729Y-13230339D02*
X006108729Y-16811271D01*
D10*
X006108729Y-16811271D02*
X001570000Y-21350000D01*
D10*
X-04441000Y-12158000D02*
X-04441000Y-12158000D01*
D10*
X-04441000Y-12158000D02*
X-04409928Y-12189072D01*
D10*
X-04409928Y-12189072D02*
X-02157000Y-14442000D01*
D10*
X-02157000Y-14442000D02*
X-02157000Y-19003000D01*
D10*
X-02157000Y-19003000D02*
X-02157000Y-19003000D01*
D10*
X011190000Y040730000D02*
X007177000Y036717000D01*
D10*
X007177000Y036717000D02*
X007177000Y006670000D01*
D10*
X007177000Y006670000D02*
X007177000Y006670000D01*
D10*
X008650000Y040730000D02*
X003371000Y035451000D01*
D10*
X003371000Y035451000D02*
X003371000Y013646000D01*
D10*
X003371000Y013646000D02*
X003371000Y013646000D01*
D10*
X003250000Y010986000D02*
X003250000Y010986000D01*
D10*
X003250000Y010986000D02*
X003308246Y010927754D01*
D10*
X003308246Y010927754D02*
X003308246Y010922854D01*
D10*
X003308246Y010922854D02*
X003996725Y010234376D01*
D10*
X003996725Y010234376D02*
X003996725Y001710618D01*
D10*
X003996725Y001710618D02*
X010717240Y-05009897D01*
D10*
X010717240Y-05009897D02*
X010717240Y-09252857D01*
D10*
X010717240Y-09252857D02*
X006399542Y-13570555D01*
D10*
X006399542Y-13570555D02*
X006399542Y-16962279D01*
D10*
X006399542Y-16962279D02*
X002560000Y-20801821D01*
D10*
X002560000Y-20801821D02*
X002600000Y-26700000D01*
D10*
X002600000Y-26700000D02*
X002600000Y-26700000D01*
D10*
X004430000Y040331000D02*
X004430000Y040331000D01*
D10*
X004430000Y040331000D02*
X004271197Y040172197D01*
D10*
X004271197Y040172197D02*
X004267258Y040172197D01*
D10*
X004267258Y040172197D02*
X-00154000Y035750939D01*
D10*
X-00154000Y035750939D02*
X-00154000Y016006000D01*
D10*
X-00154000Y016006000D02*
X-00154000Y016006000D01*
D10*
X-06000000Y-08400000D02*
X-06000000Y-08400000D01*
D10*
X-06000000Y-08400000D02*
X-06013769Y-08413769D01*
D10*
X-06013769Y-08413769D02*
X-00958076Y-13469463D01*
D10*
X-00958076Y-13469463D02*
X-00958076Y-13807460D01*
D10*
X-00958076Y-13807460D02*
X-00958076Y-28981924D01*
D10*
X-00958076Y-28981924D02*
X001570000Y-31510000D01*
D10*
X-07798000Y-13157000D02*
X-07798000Y-13157000D01*
D10*
X-07798000Y-13157000D02*
X-07752983Y-13202017D01*
D10*
X-07752983Y-13202017D02*
X-06546000Y-14409000D01*
D10*
X-06546000Y-14409000D02*
X-06546000Y-14948000D01*
D10*
X-06546000Y-14948000D02*
X-06546000Y-14948000D01*
D10*
X-04508000Y-29459000D02*
X-04508000Y-29459000D01*
D10*
X-04508000Y-29459000D02*
X-04414871Y-29552129D01*
D10*
X-04414871Y-29552129D02*
X-04414871Y-29788838D01*
D10*
X-04414871Y-29788838D02*
X-00153709Y-34050000D01*
D10*
X-00153709Y-34050000D02*
X001570000Y-34050000D01*
D10*
X069540000Y046000000D02*
X069540000Y031902000D01*
D10*
X069540000Y031902000D02*
X037252000Y-00386000D01*
D10*
X037252000Y-00386000D02*
X037252000Y-00386000D01*
D10*
X035692000Y-05944000D02*
X035692000Y-05944000D01*
D10*
X035692000Y-05944000D02*
X035669811Y-05966189D01*
D10*
X035669811Y-05966189D02*
X035669811Y-07570189D01*
D10*
X035669811Y-07570189D02*
X024430000Y-18810000D01*
D10*
X-30160000Y-28190000D02*
X-30160000Y-30730000D01*
D10*
X001570000Y-41670000D02*
X001570000Y-39130000D01*
D10*
X-11632000Y-36499000D02*
X-11632000Y-36499000D01*
D10*
X-11632000Y-36499000D02*
X-11735027Y-36395973D01*
D10*
X-11735027Y-36395973D02*
X-11757022Y-36395973D01*
D10*
X-11757022Y-36395973D02*
X-17422995Y-30730000D01*
D10*
X-17422995Y-30730000D02*
X-30160000Y-30730000D01*
D10*
X057175000Y044000000D02*
X055559583Y042384583D01*
D10*
X055559583Y042384583D02*
X055559583Y031169583D01*
D10*
X055559583Y031169583D02*
X055523000Y031133000D01*
D10*
X055523000Y031133000D02*
X055523000Y031133000D01*
D10*
X065500000Y-06000000D02*
X060754780Y-06000000D01*
D10*
X060754780Y-06000000D02*
X055048081Y-11706699D01*
D10*
X055048081Y-11706699D02*
X053122048Y-11706699D01*
D10*
X053122048Y-11706699D02*
X051187500Y-13500000D01*
D10*
X051187500Y-13500000D02*
X050962500Y-14175000D01*
D10*
X050962500Y-14175000D02*
X048168148Y-16660599D01*
D10*
X048168148Y-16660599D02*
X046732603Y-16971280D01*
D10*
X046732603Y-16971280D02*
X044966448Y-16993957D01*
D10*
X044966448Y-16993957D02*
X042929002Y-16660599D01*
D10*
X042929002Y-16660599D02*
X032224855Y-27364747D01*
D10*
X032224855Y-27364747D02*
X025114943Y-27364747D01*
D10*
X025114943Y-27364747D02*
X022567747Y-27364747D01*
D10*
X022567747Y-27364747D02*
X022249000Y-27046000D01*
D10*
X022249000Y-27046000D02*
X022249000Y-27046000D01*
D10*
X022535000Y-33772000D02*
X022535000Y-33772000D01*
D10*
X022535000Y-33772000D02*
X022494753Y-33812247D01*
D10*
X022494753Y-33812247D02*
X022367190Y-33812247D01*
D10*
X022367190Y-33812247D02*
X017049437Y-39130000D01*
D10*
X017049437Y-39130000D02*
X001570000Y-39130000D01*
D10*
X-47087500Y018000000D02*
X-50087000Y015000000D01*
D10*
X-50087000Y015000000D02*
X-76500000Y015000000D01*
D10*
X-48912500Y018000000D02*
X-48605000Y017693000D01*
D10*
X-48605000Y017693000D02*
X-48605000Y017014000D01*
D10*
X-48605000Y017014000D02*
X-48605000Y017014000D01*
D10*
X005616000Y-22699000D02*
X005616000Y-22699000D01*
D10*
X005616000Y-22699000D02*
X005648828Y-22731828D01*
D10*
X005648828Y-22731828D02*
X005766434Y-22731828D01*
D10*
X005766434Y-22731828D02*
X006042606Y-23008000D01*
D10*
X006042606Y-23008000D02*
X009150000Y-23008000D01*
D10*
X009150000Y-23008000D02*
X009150000Y-23008000D01*
D10*
X014025000Y-31309000D02*
X014025000Y-31309000D01*
D10*
X014025000Y-31309000D02*
X014040769Y-31324769D01*
D10*
X014040769Y-31324769D02*
X014059068Y-31324769D01*
D10*
X014059068Y-31324769D02*
X021704769Y-31324769D01*
D10*
X021704769Y-31324769D02*
X024430000Y-34050000D01*
D10*
X-47087500Y012000000D02*
X-48936000Y010151000D01*
D10*
X-48936000Y010151000D02*
X-60554000Y010151000D01*
D10*
X-60554000Y010151000D02*
X-60554000Y010151000D01*
D10*
X-48912500Y012000000D02*
X-48028314Y012883686D01*
D10*
X-48028314Y012883686D02*
X-04723686Y012883686D01*
D10*
X-04723686Y012883686D02*
X001570000Y006590000D01*
D10*
X-47087500Y006000000D02*
X-48014241Y006927241D01*
D10*
X-48014241Y006927241D02*
X-48119589Y006927241D01*
D10*
X-48119589Y006927241D02*
X-61072759Y006927241D01*
D10*
X-61072759Y006927241D02*
X-68000000Y000000000D01*
D10*
X-48912500Y006000000D02*
X-46962000Y004050000D01*
D10*
X-46962000Y004050000D02*
X001570000Y004050000D01*
D10*
X-47087500Y000000000D02*
X-48044568Y-00957568D01*
D10*
X-48044568Y-00957568D02*
X-48186737Y-00957568D01*
D10*
X-48186737Y-00957568D02*
X-69582432Y-00957568D01*
D10*
X-69582432Y-00957568D02*
X-70540000Y000000000D01*
D10*
X-48912500Y000000000D02*
X-47402000Y001510000D01*
D10*
X-47402000Y001510000D02*
X001570000Y001510000D01*
D10*
X-47087500Y-06000000D02*
X-51913000Y-10826000D01*
D10*
X-51913000Y-10826000D02*
X-61623000Y-10826000D01*
D10*
X-61623000Y-10826000D02*
X-61623000Y-10826000D01*
D10*
X-48912500Y-06000000D02*
X-43942000Y-01030000D01*
D10*
X-43942000Y-01030000D02*
X001570000Y-01030000D01*
D10*
X-47087500Y-12000000D02*
X-47970790Y-12883790D01*
D10*
X-47970790Y-12883790D02*
X-65883790Y-12883790D01*
D10*
X-65883790Y-12883790D02*
X-68000000Y-15000000D01*
D10*
X-48912500Y-12000000D02*
X-40482000Y-03570000D01*
D10*
X-40482000Y-03570000D02*
X001570000Y-03570000D01*
D10*
X-47087500Y-18000000D02*
X-47877521Y-18790521D01*
D10*
X-47877521Y-18790521D02*
X-48127147Y-18790521D01*
D10*
X-48127147Y-18790521D02*
X-48105000Y-18874000D01*
D10*
X-48105000Y-18874000D02*
X-48300000Y-18905000D01*
D10*
X-48300000Y-18905000D02*
X-48500000Y-18905000D01*
D10*
X-48500000Y-18905000D02*
X-48950000Y-18905000D01*
D10*
X-48950000Y-18905000D02*
X-49200000Y-18905000D01*
D10*
X-49200000Y-18905000D02*
X-49400000Y-18905000D01*
D10*
X-49400000Y-18905000D02*
X-49621574Y-18905000D01*
D10*
X-49621574Y-18905000D02*
X-66722000Y-18818000D01*
D10*
X-66722000Y-18818000D02*
X-70540000Y-15000000D01*
D10*
X-48912500Y-18000000D02*
X-37022000Y-06110000D01*
D10*
X-37022000Y-06110000D02*
X001570000Y-06110000D01*
D11*
X-44160000Y040350000D02*
X-41620000Y040350000D01*
D11*
X038000000Y036060000D02*
X038000000Y040020000D01*
D11*
X-17912500Y039000000D02*
X-18000000Y039087500D01*
D11*
X-18000000Y039087500D02*
X-18000000Y039200000D01*
D11*
X-18000000Y039200000D02*
X-17600000Y039600000D01*
D11*
X-17600000Y039600000D02*
X-17600000Y040400000D01*
D11*
X-17600000Y040400000D02*
X-17200000Y040800000D01*
D11*
X-17200000Y040800000D02*
X-15200000Y040800000D01*
D11*
X-15200000Y040800000D02*
X-14400000Y040000000D01*
D11*
X-14400000Y040000000D02*
X-14400000Y039600000D01*
D11*
X-14400000Y039600000D02*
X-13825000Y039025000D01*
D12*
X-13825000Y039025000D02*
X-13825000Y039000000D01*
D11*
X-41620000Y040350000D02*
X-19262000Y040350000D01*
D11*
X-19262000Y040350000D02*
X-19262000Y040349500D01*
D11*
X-19262000Y040349500D02*
X-17912500Y039000000D01*
D12*
X-13825000Y039000000D02*
X-13825000Y038750000D01*
D12*
X-13825000Y038750000D02*
X-13825000Y038525000D01*
D12*
X-13825000Y038525000D02*
X-13825000Y038500000D01*
D11*
X-13825000Y038500000D02*
X-13825000Y038250000D01*
D11*
X-13825000Y038250000D02*
X-13825000Y038000000D01*
D11*
X-13825000Y038000000D02*
X-13825000Y037750000D01*
D11*
X-13825000Y037750000D02*
X-13825000Y037500000D01*
D11*
X-13825000Y037500000D02*
X-13825000Y037250000D01*
D11*
X-13825000Y037250000D02*
X-13825000Y037000000D01*
D11*
X-13825000Y037000000D02*
X-13825000Y024525000D01*
D11*
X-13825000Y024525000D02*
X001570000Y009130000D01*
D11*
X038000000Y036060000D02*
X037327412Y035387412D01*
D11*
X037327412Y035387412D02*
X036654824Y034714824D01*
D11*
X036654824Y034714824D02*
X035982235Y034042235D01*
D11*
X035982235Y034042235D02*
X035309647Y033369647D01*
D11*
X035309647Y033369647D02*
X034637059Y032697059D01*
D11*
X034637059Y032697059D02*
X033964471Y032024471D01*
D11*
X033964471Y032024471D02*
X033291882Y031351882D01*
D11*
X033291882Y031351882D02*
X032619294Y030679294D01*
D11*
X032619294Y030679294D02*
X031946706Y030006706D01*
D11*
X031946706Y030006706D02*
X031274118Y029334118D01*
D11*
X031274118Y029334118D02*
X030601529Y028661529D01*
D11*
X030601529Y028661529D02*
X029928941Y027988941D01*
D11*
X029928941Y027988941D02*
X029256353Y027316353D01*
D11*
X029256353Y027316353D02*
X028583765Y026643765D01*
D11*
X028583765Y026643765D02*
X027911176Y025971176D01*
D11*
X027911176Y025971176D02*
X027238588Y025298588D01*
D11*
X027238588Y025298588D02*
X026566000Y024626000D01*
D11*
X026566000Y024626000D02*
X025683000Y024626000D01*
D11*
X025683000Y024626000D02*
X024800000Y024626000D01*
D11*
X024800000Y024626000D02*
X023917000Y024626000D01*
D13*
X023917000Y024626000D02*
X023034000Y024626000D01*
D13*
X023034000Y024626000D02*
X023034000Y024626000D01*
D11*
X021679000Y023340000D02*
X021679000Y023340000D01*
D11*
X021679000Y023340000D02*
X021603866Y023264866D01*
D11*
X021603866Y023264866D02*
X021602046Y023264866D01*
D11*
X021602046Y023264866D02*
X020972616Y022635436D01*
D11*
X020972616Y022635436D02*
X020343187Y022006007D01*
D11*
X020343187Y022006007D02*
X019713757Y021376577D01*
D11*
X019713757Y021376577D02*
X019084328Y020747148D01*
D11*
X019084328Y020747148D02*
X018454898Y020117718D01*
D11*
X018454898Y020117718D02*
X017825469Y019488289D01*
D11*
X017825469Y019488289D02*
X017196039Y018858859D01*
D11*
X017196039Y018858859D02*
X016566610Y018229430D01*
D11*
X016566610Y018229430D02*
X015937180Y017600000D01*
D11*
X015937180Y017600000D02*
X015068590Y017600000D01*
D14*
X015068590Y017600000D02*
X014200000Y017600000D01*
D14*
X014200000Y017600000D02*
X014200000Y017600000D01*
D11*
X-44160000Y037810000D02*
X-41620000Y037810000D01*
D11*
X-09840000Y-25650000D02*
X-09840000Y-28190000D01*
D11*
X024430000Y009130000D02*
X024430000Y011670000D01*
D11*
X-16087500Y039000000D02*
X-16087500Y038839066D01*
D11*
X-16087500Y038839066D02*
X-14963930Y037715496D01*
D11*
X-14963930Y037715496D02*
X-14963930Y037521930D01*
D11*
X-14963930Y037521930D02*
X-14942000Y037500000D01*
D11*
X-14942000Y037500000D02*
X-14942000Y037500000D01*
D11*
X-11200000Y036800000D02*
X-11200000Y036800000D01*
D11*
X-11200000Y036800000D02*
X-11200000Y038025000D01*
D11*
X-11200000Y038025000D02*
X-11774999Y038599999D01*
D11*
X-11774999Y038599999D02*
X-11775001Y038600001D01*
D12*
X-11775001Y038600001D02*
X-12175000Y039000000D01*
D11*
X038000000Y043980000D02*
X038000000Y047940000D01*
D11*
X008650000Y043270000D02*
X008720000Y043200000D01*
D11*
X008720000Y043200000D02*
X008800000Y043200000D01*
D11*
X008800000Y043200000D02*
X008800000Y044000000D01*
D11*
X008800000Y044000000D02*
X009200000Y044400000D01*
D11*
X009200000Y044400000D02*
X009200000Y044800000D01*
D11*
X009200000Y044800000D02*
X009600000Y045200000D01*
D11*
X009600000Y045200000D02*
X012800000Y045200000D01*
D11*
X012800000Y045200000D02*
X013200000Y044800000D01*
D11*
X013200000Y044800000D02*
X013200000Y044000000D01*
D11*
X013200000Y044000000D02*
X013730000Y043470000D01*
D11*
X013730000Y043470000D02*
X013730000Y043270000D01*
D15*
X053862500Y-12950000D02*
X053562501Y-13249999D01*
D15*
X053562501Y-13249999D02*
X053562499Y-13250001D01*
D11*
X053562499Y-13250001D02*
X052897500Y-13915000D01*
D11*
X052897500Y-13915000D02*
X052146500Y-13915000D01*
D14*
X052146500Y-13915000D02*
X051395000Y-13915000D01*
D14*
X051395000Y-13915000D02*
X051395000Y-13915000D01*
D11*
X050201000Y-13799000D02*
X050201000Y-13799000D01*
D11*
X050201000Y-13799000D02*
X050184531Y-13815469D01*
D11*
X050184531Y-13815469D02*
X050100223Y-13815469D01*
D11*
X050100223Y-13815469D02*
X049507958Y-14407734D01*
D11*
X049507958Y-14407734D02*
X048915692Y-15000000D01*
D11*
X048915692Y-15000000D02*
X048370346Y-15000000D01*
D11*
X048370346Y-15000000D02*
X048225001Y-15000000D01*
D11*
X048225001Y-15000000D02*
X048224999Y-15000000D01*
D12*
X048224999Y-15000000D02*
X047825000Y-15000000D01*
D12*
X047825000Y-15000000D02*
X047825000Y-14525001D01*
D12*
X047825000Y-14525001D02*
X047825000Y-14524999D01*
D11*
X047825000Y-14524999D02*
X047825000Y-13000000D01*
D11*
X047825000Y-13000000D02*
X044921000Y-13000000D01*
D11*
X044921000Y-13000000D02*
X044921000Y-16294000D01*
D11*
X044921000Y-16294000D02*
X044921000Y-16294000D01*
D11*
X045222000Y-18607000D02*
X045222000Y-18607000D01*
D11*
X045222000Y-18607000D02*
X045486000Y-18871000D01*
D11*
X045486000Y-18871000D02*
X045486000Y-19553500D01*
D11*
X045486000Y-19553500D02*
X045750000Y-20500000D01*
D16*
X045750000Y-20500000D02*
X045750000Y-20750000D01*
D17*
X045750000Y-20750000D02*
X045750000Y-21250000D01*
D17*
X045750000Y-21250000D02*
X045750000Y-21500000D01*
D18*
X045750000Y-21500000D02*
X045750000Y-22500000D01*
D11*
X045750000Y-22500000D02*
X046000000Y-22500000D01*
D11*
X046000000Y-22500000D02*
X044190000Y-24000000D01*
D12*
X058825000Y040000000D02*
X059224999Y040000000D01*
D12*
X059224999Y040000000D02*
X059225001Y040000000D01*
D11*
X059225001Y040000000D02*
X059550000Y040000000D01*
D11*
X059550000Y040000000D02*
X060275000Y040000000D01*
D11*
X060275000Y040000000D02*
X061000000Y040000000D01*
D11*
X061000000Y040000000D02*
X061530330Y039469670D01*
D11*
X061530330Y039469670D02*
X067530330Y045469670D01*
D11*
X067530330Y045469670D02*
X067000000Y046000000D01*
D11*
X013730000Y043270000D02*
X013730000Y045000000D01*
D11*
X013730000Y045000000D02*
X015250000Y045000000D01*
D11*
X015250000Y045000000D02*
X023327916Y045000000D01*
D11*
X023327916Y045000000D02*
X023327916Y043832084D01*
D11*
X023327916Y043832084D02*
X023890000Y043270000D01*
D11*
X023890000Y043270000D02*
X037290000Y043270000D01*
D11*
X037290000Y043270000D02*
X038000000Y043980000D01*
D15*
X053862500Y-12950000D02*
X054162544Y-13249999D01*
D15*
X054162544Y-13249999D02*
X054162545Y-13250001D01*
D11*
X054162545Y-13250001D02*
X054541050Y-13628450D01*
D11*
X054541050Y-13628450D02*
X055219600Y-14306900D01*
D11*
X055219600Y-14306900D02*
X055898151Y-14985351D01*
D11*
X055898151Y-14985351D02*
X056576701Y-15663801D01*
D11*
X056576701Y-15663801D02*
X057255251Y-16342251D01*
D11*
X057255251Y-16342251D02*
X058038836Y-16342251D01*
D11*
X058038836Y-16342251D02*
X058822420Y-16342251D01*
D11*
X058822420Y-16342251D02*
X059606004Y-16342251D01*
D11*
X059606004Y-16342251D02*
X060389589Y-16342251D01*
D11*
X060389589Y-16342251D02*
X060632294Y-16796126D01*
D11*
X060632294Y-16796126D02*
X060875000Y-17250000D01*
D11*
X060875000Y-17250000D02*
X060713196Y-17911751D01*
D11*
X060713196Y-17911751D02*
X060551393Y-18573503D01*
D11*
X060551393Y-18573503D02*
X060551393Y-24000000D01*
D11*
X060551393Y-24000000D02*
X064190000Y-24000000D01*
D11*
X-09840000Y-25650000D02*
X-30160000Y-25650000D01*
D12*
X058825000Y040000000D02*
X059075000Y040250000D01*
D19*
X059075000Y040250000D02*
X059224999Y040250000D01*
D19*
X059224999Y040250000D02*
X059225001Y040250000D01*
D11*
X059225001Y040250000D02*
X060025000Y040250000D01*
D11*
X060025000Y040250000D02*
X060025000Y040250000D01*
D11*
X008650000Y043270000D02*
X008650000Y044150000D01*
D11*
X008650000Y044150000D02*
X007600000Y045200000D01*
D11*
X007600000Y045200000D02*
X004800000Y045200000D01*
D11*
X004800000Y045200000D02*
X002000000Y042400000D01*
D11*
X002000000Y042400000D02*
X001200000Y042400000D01*
D11*
X001200000Y042400000D02*
X000904459Y042104459D01*
D11*
X000904459Y042104459D02*
X000608096Y042104459D01*
D11*
X000608096Y042104459D02*
X-00359768Y042104459D01*
D11*
X-00359768Y042104459D02*
X-01327631Y042104459D01*
D11*
X-01327631Y042104459D02*
X-02295495Y042104459D01*
D11*
X-02295495Y042104459D02*
X-03263359Y042104459D01*
D11*
X-03263359Y042104459D02*
X-04231222Y042104459D01*
D11*
X-04231222Y042104459D02*
X-05199086Y042104459D01*
D11*
X-05199086Y042104459D02*
X-06166950Y042104459D01*
D11*
X-06166950Y042104459D02*
X-07134813Y042104459D01*
D11*
X-07134813Y042104459D02*
X-08102677Y042104459D01*
D11*
X-08102677Y042104459D02*
X-09070541Y042104459D01*
D11*
X-09070541Y042104459D02*
X-09691432Y041483568D01*
D11*
X-09691432Y041483568D02*
X-10312324Y040862676D01*
D11*
X-10312324Y040862676D02*
X-10933216Y040241784D01*
D11*
X-10933216Y040241784D02*
X-11554108Y039620892D01*
D11*
X-11554108Y039620892D02*
X-11774999Y039400001D01*
D11*
X-11774999Y039400001D02*
X-11775001Y039399999D01*
D12*
X-11775001Y039399999D02*
X-12175000Y039000000D01*
D11*
X001570000Y011670000D02*
X003500000Y012000000D01*
D11*
X003500000Y012000000D02*
X005000000Y010500000D01*
D11*
X005000000Y010500000D02*
X005076441Y009683827D01*
D11*
X005076441Y009683827D02*
X005738499Y009021769D01*
D11*
X005738499Y009021769D02*
X006400556Y008359712D01*
D11*
X006400556Y008359712D02*
X006400556Y007593391D01*
D11*
X006400556Y007593391D02*
X006400556Y006827070D01*
D20*
X006400556Y006827070D02*
X006907373Y006320254D01*
D20*
X006907373Y006320254D02*
X006946023Y006281603D01*
D21*
X006946023Y006281603D02*
X007785512Y006234552D01*
D21*
X007785512Y006234552D02*
X008625000Y006187500D01*
D21*
X008625000Y006187500D02*
X008793083Y006281603D01*
D22*
X008793083Y006281603D02*
X009716613Y006281603D01*
D23*
X009716613Y006281603D02*
X010640143Y006281603D01*
D23*
X010640143Y006281603D02*
X010743603Y006281603D01*
D24*
X010743603Y006281603D02*
X010860000Y006398000D01*
D24*
X010860000Y006398000D02*
X010860000Y006398000D01*
D14*
X011634000Y006883000D02*
X011634000Y006883000D01*
D14*
X011634000Y006883000D02*
X012523889Y006883000D01*
D14*
X012523889Y006883000D02*
X013413778Y006883000D01*
D11*
X013413778Y006883000D02*
X014303667Y006883000D01*
D11*
X014303667Y006883000D02*
X015193556Y006883000D01*
D11*
X015193556Y006883000D02*
X016083444Y006883000D01*
D11*
X016083444Y006883000D02*
X016973333Y006883000D01*
D11*
X016973333Y006883000D02*
X017863222Y006883000D01*
D11*
X017863222Y006883000D02*
X018753111Y006883000D01*
D11*
X018753111Y006883000D02*
X019643000Y006883000D01*
D11*
X019643000Y006883000D02*
X020326857Y007566857D01*
D11*
X020326857Y007566857D02*
X021010714Y008250714D01*
D11*
X021010714Y008250714D02*
X021694571Y008934571D01*
D11*
X021694571Y008934571D02*
X022378429Y009618429D01*
D11*
X022378429Y009618429D02*
X023062286Y010302286D01*
D11*
X023062286Y010302286D02*
X023746143Y010986143D01*
D11*
X023746143Y010986143D02*
X024430000Y011670000D01*
D11*
X-41620000Y037810000D02*
X-40646280Y037810000D01*
D11*
X-40646280Y037810000D02*
X-39672560Y037810000D01*
D11*
X-39672560Y037810000D02*
X-38698840Y037810000D01*
D11*
X-38698840Y037810000D02*
X-37725120Y037810000D01*
D11*
X-37725120Y037810000D02*
X-36751400Y037810000D01*
D11*
X-36751400Y037810000D02*
X-35777680Y037810000D01*
D11*
X-35777680Y037810000D02*
X-34803960Y037810000D01*
D11*
X-34803960Y037810000D02*
X-33830240Y037810000D01*
D11*
X-33830240Y037810000D02*
X-32856520Y037810000D01*
D11*
X-32856520Y037810000D02*
X-31882800Y037810000D01*
D11*
X-31882800Y037810000D02*
X-30909080Y037810000D01*
D11*
X-30909080Y037810000D02*
X-29935360Y037810000D01*
D11*
X-29935360Y037810000D02*
X-28961640Y037810000D01*
D11*
X-28961640Y037810000D02*
X-27987920Y037810000D01*
D11*
X-27987920Y037810000D02*
X-27014200Y037810000D01*
D11*
X-27014200Y037810000D02*
X-26040480Y037810000D01*
D11*
X-26040480Y037810000D02*
X-25066760Y037810000D01*
D11*
X-25066760Y037810000D02*
X-24756760Y037500000D01*
D11*
X-24756760Y037500000D02*
X-17000000Y037500000D01*
D11*
X-17000000Y037500000D02*
X-16087500Y037500000D01*
D11*
X-16087500Y037500000D02*
X-16087500Y039000000D01*
D11*
X044190000Y-24000000D02*
X044116394Y-23926394D01*
D11*
X044116394Y-23926394D02*
X042026292Y-23926394D01*
D11*
X042026292Y-23926394D02*
X024430000Y-41670000D01*
D12*
X-12175000Y039000000D02*
X-11775001Y038600001D01*
D12*
X-11775001Y038600001D02*
X-11774999Y038599999D01*
D11*
X-11774999Y038599999D02*
X-02789096Y029614096D01*
D11*
X-02789096Y029614096D02*
X-02789096Y016029096D01*
D11*
X-02789096Y016029096D02*
X001570000Y011670000D01*
D12*
X047825000Y-15000000D02*
X047825000Y-14525001D01*
D12*
X047825000Y-14525001D02*
X047825000Y-14524999D01*
D11*
X047825000Y-14524999D02*
X047825000Y-14325000D01*
D11*
X047825000Y-14325000D02*
X047000000Y-13500000D01*
D11*
X047000000Y-13500000D02*
X043002778Y-10177778D01*
D11*
X043002778Y-10177778D02*
X042313889Y-09488889D01*
D11*
X042313889Y-09488889D02*
X041625000Y-08800000D01*
D11*
X041625000Y-08800000D02*
X040812500Y-08800000D01*
D11*
X040812500Y-08800000D02*
X040000000Y-08800000D01*
D11*
X040000000Y-08800000D02*
X040000000Y-08800000D01*
D11*
X039673000Y-02496000D02*
X039673000Y-02496000D01*
D11*
X039673000Y-02496000D02*
X039593735Y-02416735D01*
D11*
X039593735Y-02416735D02*
X039508287Y-02416735D01*
D11*
X039508287Y-02416735D02*
X038625399Y-02416735D01*
D11*
X038625399Y-02416735D02*
X037742511Y-02416735D01*
D11*
X037742511Y-02416735D02*
X036859623Y-02416735D01*
D11*
X036859623Y-02416735D02*
X035976735Y-02416735D01*
D11*
X035976735Y-02416735D02*
X035297515Y-01737515D01*
D11*
X035297515Y-01737515D02*
X034618295Y-01058295D01*
D11*
X034618295Y-01058295D02*
X033939076Y-00379076D01*
D11*
X033939076Y-00379076D02*
X033259856Y000300144D01*
D11*
X033259856Y000300144D02*
X032580636Y000979364D01*
D11*
X032580636Y000979364D02*
X031901417Y001658583D01*
D11*
X031901417Y001658583D02*
X031222197Y002337803D01*
D11*
X031222197Y002337803D02*
X030542977Y003017023D01*
D11*
X030542977Y003017023D02*
X029863758Y003696242D01*
D11*
X029863758Y003696242D02*
X029184538Y004375462D01*
D11*
X029184538Y004375462D02*
X029538091Y004729016D01*
D11*
X029538091Y004729016D02*
X024783553Y009483553D01*
D11*
X024783553Y009483553D02*
X024430000Y009130000D01*
D10*
X077912500Y-20000000D02*
X076152000Y-21761000D01*
D10*
X076152000Y-21761000D02*
X074233000Y-21761000D01*
D10*
X074233000Y-21761000D02*
X074233000Y-21761000D01*
D10*
X071810000Y-21460000D02*
X073270000Y-20000000D01*
D10*
X073270000Y-20000000D02*
X076087500Y-20000000D01*
D10*
X073080000Y-30000000D02*
X071810000Y-28730000D01*
D10*
X071810000Y-28730000D02*
X071810000Y-26540000D01*
D10*
X071810000Y-26540000D02*
X067144628Y-31205372D01*
D10*
X067144628Y-31205372D02*
X067104964Y-31205372D01*
D10*
X067104964Y-31205372D02*
X061310372Y-31205372D01*
D10*
X061310372Y-31205372D02*
X060635000Y-30530000D01*
D10*
X059912500Y-27000000D02*
X059098735Y-27814265D01*
D10*
X059098735Y-27814265D02*
X059098735Y-30791858D01*
D10*
X059098735Y-30791858D02*
X061376876Y-33070000D01*
D10*
X061376876Y-33070000D02*
X061905000Y-33070000D01*
D10*
X062920000Y-30000000D02*
X062920000Y-28419899D01*
D10*
X062920000Y-28419899D02*
X060745068Y-26139650D01*
D10*
X060745068Y-26139650D02*
X060413443Y-26091126D01*
D10*
X060413443Y-26091126D02*
X060013443Y-26093126D01*
D10*
X060013443Y-26093126D02*
X059613443Y-26098126D01*
D10*
X059613443Y-26098126D02*
X059213443Y-26108126D01*
D10*
X059213443Y-26108126D02*
X059267918Y-26106764D01*
D10*
X059267918Y-26106764D02*
X058902805Y-26106764D01*
D10*
X058902805Y-26106764D02*
X058087500Y-27000000D01*
D10*
X062920000Y-30000000D02*
X065810000Y-30000000D01*
D10*
X065810000Y-30000000D02*
X071810000Y-24000000D01*
D10*
X068912500Y-18000000D02*
X065453000Y-21460000D01*
D10*
X065453000Y-21460000D02*
X064190000Y-21460000D01*
D10*
X057912500Y-20000000D02*
X055310365Y-22602635D01*
D10*
X055310365Y-22602635D02*
X050577002Y-22602635D01*
D10*
X050577002Y-22602635D02*
X048090936Y-25088700D01*
D10*
X048090936Y-25088700D02*
X043536300Y-25088700D01*
D10*
X043536300Y-25088700D02*
X038095000Y-30530000D01*
D10*
X051810000Y-21460000D02*
X054628000Y-21460000D01*
D10*
X054628000Y-21460000D02*
X056087500Y-20000000D01*
D10*
X053080000Y-30000000D02*
X051810000Y-28730000D01*
D10*
X051810000Y-28730000D02*
X051810000Y-26540000D01*
D10*
X051810000Y-26540000D02*
X047113051Y-31236949D01*
D10*
X047113051Y-31236949D02*
X047091874Y-31236949D01*
D10*
X047091874Y-31236949D02*
X041341949Y-31236949D01*
D10*
X041341949Y-31236949D02*
X040635000Y-30530000D01*
D10*
X035912500Y-27000000D02*
X035913000Y-28136000D01*
D10*
X035913000Y-28136000D02*
X035253000Y-28796000D01*
D10*
X035253000Y-28796000D02*
X035253000Y-28796000D01*
D10*
X035347437Y-31834437D02*
X035347437Y-31834437D01*
D10*
X035347437Y-31834437D02*
X035397266Y-31884266D01*
D10*
X035397266Y-31884266D02*
X040719266Y-31884266D01*
D10*
X040719266Y-31884266D02*
X041905000Y-33070000D01*
D10*
X035491000Y-28091000D02*
X035491000Y-28091000D01*
D10*
X035491000Y-28091000D02*
X035179000Y-28091000D01*
D10*
X035179000Y-28091000D02*
X034087500Y-27000000D01*
D10*
X042920000Y-30000000D02*
X045810000Y-30000000D01*
D10*
X045810000Y-30000000D02*
X051810000Y-24000000D01*
D10*
X048912500Y-18000000D02*
X046398000Y-21034000D01*
D10*
X046398000Y-21034000D02*
X046398000Y-21034000D01*
D10*
X047825000Y-10000000D02*
X046545963Y-11279037D01*
D10*
X046545963Y-11279037D02*
X046076414Y-11279037D01*
D10*
X046076414Y-11279037D02*
X046076414Y-11279037D01*
D10*
X046200000Y-14000000D02*
X046200000Y-14000000D01*
D10*
X046200000Y-14000000D02*
X046192321Y-14007679D01*
D10*
X046192321Y-14007679D02*
X046175000Y-14025000D01*
D10*
X046175000Y-14025000D02*
X046175000Y-15000000D01*
D10*
X047825000Y-10000000D02*
X052813000Y-10000000D01*
D10*
X052813000Y-10000000D02*
X053862500Y-11050000D01*
D10*
X070500000Y-06000000D02*
X064500000Y-12000000D01*
D10*
X064500000Y-12000000D02*
X056137500Y-12000000D01*
D10*
X058825000Y044000000D02*
X057175000Y042350000D01*
D10*
X057175000Y042350000D02*
X057175000Y040000000D01*
D10*
X058825000Y044000000D02*
X062460000Y044000000D01*
D10*
X062460000Y044000000D02*
X064460000Y046000000D01*
D11*
X-44160000Y035270000D02*
X-41620000Y035270000D01*
D11*
X-59460000Y025292500D02*
X-49483000Y035270000D01*
D11*
X-49483000Y035270000D02*
X-44160000Y035270000D01*
D11*
X-44160000Y032730000D02*
X-41620000Y032730000D01*
D50*
X-00632000Y-33014000D03*
D50*
X-04000000Y-36800000D03*
D50*
X-00631000Y-27893000D03*
D50*
X016836000Y-00422000D03*
D50*
X008967000Y-08843000D03*
D50*
X006591000Y-09416000D03*
D50*
X-04986000Y-13200000D03*
D50*
X-05865000Y-13985000D03*
D50*
X006817000Y-16827000D03*
D50*
X003563000Y-18619000D03*
D50*
X-00518000Y-20601000D03*
D50*
X-01541000Y-22612000D03*
D50*
X-00376000Y-19899000D03*
D50*
X-02082000Y-23169000D03*
D50*
X060003000Y-17600000D03*
D50*
X061600000Y-17600000D03*
D50*
X027324000Y009175000D03*
D50*
X027071000Y-16803000D03*
D50*
X018858000Y-25203000D03*
D50*
X014640000Y026396000D03*
D50*
X009808000Y023349000D03*
D50*
X009011000Y015437000D03*
D50*
X003805000Y-00575000D03*
D50*
X008805000Y-02242000D03*
D50*
X008712000Y-04609000D03*
D50*
X008376000Y-08493000D03*
D50*
X007598000Y-09028000D03*
D50*
X008200000Y006609000D03*
D50*
X008200000Y005797000D03*
D50*
X011114000Y-08208000D03*
D50*
X010382000Y-08992000D03*
D50*
X-04441000Y-12158000D03*
D50*
X-02157000Y-19003000D03*
D50*
X007177000Y006670000D03*
D50*
X003371000Y013646000D03*
D50*
X003250000Y010986000D03*
D50*
X002600000Y-26700000D03*
D50*
X004430000Y040331000D03*
D50*
X-00154000Y016006000D03*
D50*
X-06000000Y-08400000D03*
D50*
X-07798000Y-13157000D03*
D50*
X-06546000Y-14948000D03*
D50*
X-04508000Y-29459000D03*
D50*
X037252000Y-00386000D03*
D50*
X035692000Y-05944000D03*
D50*
X-11632000Y-36499000D03*
D50*
X055523000Y031133000D03*
D50*
X022249000Y-27046000D03*
D50*
X022535000Y-33772000D03*
D50*
X-48605000Y017014000D03*
D50*
X005616000Y-22699000D03*
D50*
X009150000Y-23008000D03*
D50*
X014025000Y-31309000D03*
D50*
X-60554000Y010151000D03*
D50*
X-61623000Y-10826000D03*
D50*
X023034000Y024626000D03*
D50*
X021679000Y023340000D03*
D50*
X014200000Y017600000D03*
D50*
X-14942000Y037500000D03*
D50*
X-11200000Y036800000D03*
D50*
X051395000Y-13915000D03*
D50*
X050201000Y-13799000D03*
D50*
X044921000Y-16294000D03*
D50*
X045222000Y-18607000D03*
D50*
X060025000Y040250000D03*
D50*
X010860000Y006398000D03*
D50*
X011634000Y006883000D03*
D50*
X040000000Y-08800000D03*
D50*
X039673000Y-02496000D03*
D50*
X074233000Y-21761000D03*
D50*
X035253000Y-28796000D03*
D50*
X035347437Y-31834437D03*
D50*
X035491000Y-28091000D03*
D50*
X046398000Y-21034000D03*
D50*
X046076414Y-11279037D03*
D50*
X046200000Y-14000000D03*
M02*