%TF.GenerationSoftware,tscircuit,circuit-json-to-gerber,0.0.93*%
%TF.CreationDate,2026-08-31T07:14:13.100Z*%
%TF.SameCoordinates,Original*%
%TF.FileFunction,Soldermask,Top*%
%TF.FilePolarity,Negative*%
%FSLAX46Y46*%
%MOMM*%
G04 Gerber Fmt 4.6, Leading zero omitted, Abs format (unit mm)*
G04 Created by tscircuit (builder) date 2026-08-31T07:14:13.100Z*
G01*
%LPD*%
G75*
G04 APERTURE MACROS START*
%AMHORZPILL*
0 Horizontal pill (stadium) shape macro*
0 Parameters:*
0 $1 = Total width*
0 $2 = Total height*
0 $3 = Circle diameter (equal to height)*
0 $4 = Circle center offset
0 21 = Center Line(Exposure, Width, Height, Center X, Center Y, Rotation)*
0 1 = Circle(Exposure, Diameter, Center X, Center Y, Rotation)*
21,1,$1-$3,$2,0.0,0.0,0.0*
1,1,$3,0.0-$4,0.0*
1,1,$3,$4,0.0*%
%AMVERTPILL*
0 Vertical pill (stadium) shape macro*
0 Parameters:*
0 $1 = Total width*
0 $2 = Total height*
0 $3 = Circle diameter (equal to width)*
0 $4 = Circle center offset
0 21 = Center Line(Exposure, Width, Height, Center X, Center Y, Rotation)*
21,1,$1,$2-$3,0.0,0.0,0.0*
1,1,$3,0.0,0.0-$4*
1,1,$3,0.0,$4*%
%AMROUNDRECT*
0 Rectangle with rounded corners*
0 $1 Corner radius*
0 $2 $3 $4 $5 $6 $7 $8 $9 X,Y Position of each corner*
0 Polygon box body*
4,1,4,$2,$3,$4,$5,$6,$7,$8,$9,$2,$3,0*
0 Circles for rounded corners*
1,1,$1+$1,$2,$3*
1,1,$1+$1,$4,$5*
1,1,$1+$1,$6,$7*
1,1,$1+$1,$8,$9*
0 Rectangles between the rounded corners*
20,1,$1+$1,$2,$3,$4,$5,0*
20,1,$1+$1,$4,$5,$6,$7,0*
20,1,$1+$1,$6,$7,$8,$9,0*
20,1,$1+$1,$8,$9,$2,$3,0*%
G04 APERTURE MACROS END*
G04 aperture START LIST*
%ADD10C,0.150000*%
%ADD11C,1.000000*%
%ADD12C,0.800000*%
%ADD13C,0.625000*%
%ADD14C,0.300000*%
%ADD15C,0.275000*%
%ADD16C,0.350000*%
%ADD17C,0.350000*%
%ADD18C,0.600000*%
%ADD19C,0.525000*%
%ADD20C,0.975000*%
%ADD21C,0.900000*%
%ADD22C,0.600000*%
%ADD23C,0.400000*%
%ADD24C,0.375000*%
%ADD25C,0.325000*%
%ADD26C,0.575000*%
%ADD27C,0.650000*%
%ADD28C,3.200000*%
%ADD29R,1.500000X1.500000*%
%ADD30C,1.500000*%
%ADD31C,0.063000*%
%ADD32C,0.200000*%
%ADD33C,0.108000*%
%ADD34C,2.500000*%
%ADD35R,1.800000X1.800000*%
%ADD36C,0.081000*%
%ADD37C,2.180000*%
%ADD38C,0.090000*%
%ADD39C,0.100000*%
%ADD40R,1.700000X1.700000*%
%ADD41R,1.025000X1.400000*%
%ADD42R,0.717500X0.980000*%
%ADD43C,0.120000*%
%ADD44C,0.036000*%
%ADD45R,2.200000X2.200000*%
%ADD46C,0.150000*%
%ADD47R,0.800000X0.950000*%
%ADD48R,0.560000X0.665000*%
%ADD49R,2.800000X2.800000*%
%ADD50C,0.072000*%
%ADD51R,2.000000X2.000000*%
%ADD52R,1.325000X0.600000*%
%ADD53R,0.927500X0.420000*%
%ADD54C,0.045000*%
%ADD55C,1.400000*%
%ADD56C,3.250000*%
%ADD57C,0.300000*%
%TD*%
G04 aperture END LIST*
D28*
X-75000000Y-45000000D03*
D28*
X075000000Y-45000000D03*
D28*
X-75000000Y045000000D03*
D28*
X075000000Y045000000D03*
D29*
X001570000Y-41670000D03*
D30*
X001570000Y-39130000D03*
D30*
X001570000Y-36590000D03*
D30*
X001570000Y-34050000D03*
D30*
X001570000Y-31510000D03*
D30*
X001570000Y-28970000D03*
D30*
X001570000Y-26430000D03*
D30*
X001570000Y-23890000D03*
D30*
X001570000Y-21350000D03*
D30*
X001570000Y-18810000D03*
D30*
X001570000Y-16270000D03*
D30*
X001570000Y-13730000D03*
D30*
X001570000Y-11190000D03*
D30*
X001570000Y-08650000D03*
D30*
X001570000Y-06110000D03*
D30*
X001570000Y-03570000D03*
D30*
X001570000Y-01030000D03*
D30*
X001570000Y001510000D03*
D30*
X001570000Y004050000D03*
D30*
X001570000Y006590000D03*
D30*
X001570000Y009130000D03*
D30*
X001570000Y011670000D03*
D29*
X024430000Y-41670000D03*
D30*
X024430000Y-39130000D03*
D30*
X024430000Y-36590000D03*
D30*
X024430000Y-34050000D03*
D30*
X024430000Y-31510000D03*
D30*
X024430000Y-28970000D03*
D30*
X024430000Y-26430000D03*
D30*
X024430000Y-23890000D03*
D30*
X024430000Y-21350000D03*
D30*
X024430000Y-18810000D03*
D30*
X024430000Y-16270000D03*
D30*
X024430000Y-13730000D03*
D30*
X024430000Y-11190000D03*
D30*
X024430000Y-08650000D03*
D30*
X024430000Y-06110000D03*
D30*
X024430000Y-03570000D03*
D30*
X024430000Y-01030000D03*
D30*
X024430000Y001510000D03*
D30*
X024430000Y004050000D03*
D30*
X024430000Y006590000D03*
D30*
X024430000Y009130000D03*
D30*
X024430000Y011670000D03*
D29*
X-70540000Y-15000000D03*
D30*
X-68000000Y-15000000D03*
D30*
X-65460000Y-15000000D03*
D29*
X-70540000Y000000000D03*
D30*
X-68000000Y000000000D03*
D30*
X-65460000Y000000000D03*
D29*
X-76500000Y015000000D03*
D34*
X-69747000Y043707500D03*
D34*
X-54507000Y043707500D03*
D35*
X-64540000Y025292500D03*
D35*
X-59460000Y025292500D03*
D35*
X-44160000Y040350000D03*
D35*
X-41620000Y040350000D03*
D35*
X-44160000Y037810000D03*
D35*
X-41620000Y037810000D03*
D35*
X-44160000Y035270000D03*
D35*
X-41620000Y035270000D03*
D35*
X-44160000Y032730000D03*
D35*
X-41620000Y032730000D03*
D37*
X-44541000Y044541000D03*
D37*
X-44541000Y023459000D03*
D37*
X-23459000Y044541000D03*
D40*
X-09840000Y-25650000D03*
D40*
X-09840000Y-28190000D03*
D40*
X-09840000Y-30730000D03*
D40*
X-09840000Y-33270000D03*
D40*
X-09840000Y-35810000D03*
D40*
X-09840000Y-38350000D03*
D40*
X-30160000Y-25650000D03*
D40*
X-30160000Y-28190000D03*
D40*
X-30160000Y-30730000D03*
D40*
X-30160000Y-33270000D03*
D40*
X-30160000Y-35810000D03*
D40*
X-30160000Y-38350000D03*
D41*
X-48912500Y-18000000D03*
D41*
X-47087500Y-18000000D03*
D41*
X-48912500Y-12000000D03*
D41*
X-47087500Y-12000000D03*
D41*
X-48912500Y-06000000D03*
D41*
X-47087500Y-06000000D03*
D41*
X-48912500Y000000000D03*
D41*
X-47087500Y000000000D03*
D41*
X-48912500Y006000000D03*
D41*
X-47087500Y006000000D03*
D41*
X-48912500Y012000000D03*
D41*
X-47087500Y012000000D03*
D41*
X-48912500Y018000000D03*
D41*
X-47087500Y018000000D03*
D45*
X069540000Y046000000D03*
D45*
X067000000Y046000000D03*
D45*
X064460000Y046000000D03*
D47*
X057175000Y044000000D03*
D47*
X058825000Y044000000D03*
D47*
X057175000Y040000000D03*
D47*
X058825000Y040000000D03*
D35*
X006110000Y040730000D03*
D35*
X006110000Y043270000D03*
D35*
X008650000Y040730000D03*
D35*
X008650000Y043270000D03*
D35*
X011190000Y040730000D03*
D35*
X011190000Y043270000D03*
D35*
X013730000Y040730000D03*
D35*
X013730000Y043270000D03*
D35*
X016270000Y040730000D03*
D35*
X016270000Y043270000D03*
D35*
X018810000Y040730000D03*
D35*
X018810000Y043270000D03*
D35*
X021350000Y040730000D03*
D35*
X021350000Y043270000D03*
D35*
X023890000Y040730000D03*
D35*
X023890000Y043270000D03*
D49*
X038000000Y036060000D03*
D49*
X038000000Y040020000D03*
D49*
X038000000Y043980000D03*
D49*
X038000000Y047940000D03*
D51*
X065500000Y016000000D03*
D51*
X070500000Y016000000D03*
D52*
X053862500Y010950000D03*
D52*
X053862500Y009050000D03*
D52*
X056137500Y010000000D03*
D47*
X046175000Y012000000D03*
D47*
X047825000Y012000000D03*
D47*
X046175000Y007000000D03*
D47*
X047825000Y007000000D03*
D41*
X-17912500Y039000000D03*
D41*
X-16087500Y039000000D03*
D47*
X-13825000Y039000000D03*
D47*
X-12175000Y039000000D03*
D55*
X041905000Y-33070000D03*
D55*
X040635000Y-30530000D03*
D55*
X039365000Y-33070000D03*
D55*
X038095000Y-30530000D03*
D56*
X045080000Y-39420000D03*
D56*
X034920000Y-39420000D03*
D35*
X044190000Y-09460000D03*
D35*
X044190000Y-12000000D03*
D35*
X044190000Y-14540000D03*
D35*
X051810000Y-14540000D03*
D35*
X051810000Y-12000000D03*
D35*
X051810000Y-09460000D03*
D41*
X047087500Y-06000000D03*
D41*
X048912500Y-06000000D03*
D41*
X034087500Y-15000000D03*
D41*
X035912500Y-15000000D03*
D41*
X056087500Y-08000000D03*
D41*
X057912500Y-08000000D03*
D51*
X042920000Y-18000000D03*
D51*
X053080000Y-18000000D03*
D55*
X061905000Y-33070000D03*
D55*
X060635000Y-30530000D03*
D55*
X059365000Y-33070000D03*
D55*
X058095000Y-30530000D03*
D56*
X065080000Y-39420000D03*
D56*
X054920000Y-39420000D03*
D35*
X064190000Y-09460000D03*
D35*
X064190000Y-12000000D03*
D35*
X064190000Y-14540000D03*
D35*
X071810000Y-14540000D03*
D35*
X071810000Y-12000000D03*
D35*
X071810000Y-09460000D03*
D41*
X067087500Y-06000000D03*
D41*
X068912500Y-06000000D03*
D41*
X058087500Y-15000000D03*
D41*
X059912500Y-15000000D03*
D41*
X076087500Y-08000000D03*
D41*
X077912500Y-08000000D03*
D51*
X062920000Y-18000000D03*
D51*
X073080000Y-18000000D03*
M02*