%TF.GenerationSoftware,tscircuit,circuit-json-to-gerber,0.0.93*%
%TF.CreationDate,2026-08-26T23:47:51.671Z*%
%TF.SameCoordinates,Original*%
%TF.FileFunction,Soldermask,Top*%
%TF.FilePolarity,Negative*%
%FSLAX46Y46*%
%MOMM*%
G04 Gerber Fmt 4.6, Leading zero omitted, Abs format (unit mm)*
G04 Created by tscircuit (builder) date 2026-08-26T23:47:51.671Z*
G01*
%LPD*%
G75*
G04 APERTURE MACROS START*
%AMHORZPILL*
0 Horizontal pill (stadium) shape macro*
0 Parameters:*
0 $1 = Total width*
0 $2 = Total height*
0 $3 = Circle diameter (equal to height)*
0 $4 = Circle center offset
0 21 = Center Line(Exposure, Width, Height, Center X, Center Y, Rotation)*
0 1 = Circle(Exposure, Diameter, Center X, Center Y, Rotation)*
21,1,$1-$3,$2,0.0,0.0,0.0*
1,1,$3,0.0-$4,0.0*
1,1,$3,$4,0.0*%
%AMVERTPILL*
0 Vertical pill (stadium) shape macro*
0 Parameters:*
0 $1 = Total width*
0 $2 = Total height*
0 $3 = Circle diameter (equal to width)*
0 $4 = Circle center offset
0 21 = Center Line(Exposure, Width, Height, Center X, Center Y, Rotation)*
21,1,$1,$2-$3,0.0,0.0,0.0*
1,1,$3,0.0,0.0-$4*
1,1,$3,0.0,$4*%
%AMROUNDRECT*
0 Rectangle with rounded corners*
0 $1 Corner radius*
0 $2 $3 $4 $5 $6 $7 $8 $9 X,Y Position of each corner*
0 Polygon box body*
4,1,4,$2,$3,$4,$5,$6,$7,$8,$9,$2,$3,0*
0 Circles for rounded corners*
1,1,$1+$1,$2,$3*
1,1,$1+$1,$4,$5*
1,1,$1+$1,$6,$7*
1,1,$1+$1,$8,$9*
0 Rectangles between the rounded corners*
20,1,$1+$1,$2,$3,$4,$5,0*
20,1,$1+$1,$4,$5,$6,$7,0*
20,1,$1+$1,$6,$7,$8,$9,0*
20,1,$1+$1,$8,$9,$2,$3,0*%
G04 APERTURE MACROS END*
G04 aperture START LIST*
%ADD10C,0.150000*%
%ADD11C,1.000000*%
%ADD12C,0.800000*%
%ADD13C,0.850000*%
%ADD14C,0.750000*%
%ADD15C,0.300000*%
%ADD16C,0.475000*%
%ADD17C,0.500000*%
%ADD18C,0.700000*%
%ADD19C,0.975000*%
%ADD20C,0.450000*%
%ADD21C,0.375000*%
%ADD22C,0.400000*%
%ADD23C,0.475000*%
%ADD24C,0.250000*%
%ADD25C,0.600000*%
%ADD26C,0.950000*%
%ADD27C,0.825000*%
%ADD28C,0.900000*%
%ADD29C,3.200000*%
%ADD30R,1.500000X1.500000*%
%ADD31C,1.500000*%
%ADD32C,0.063000*%
%ADD33C,0.200000*%
%ADD34C,0.108000*%
%ADD35C,2.500000*%
%ADD36R,3.000000X3.000000*%
%ADD37C,0.081000*%
%ADD38R,1.800000X1.800000*%
%ADD39C,2.180000*%
%ADD40C,0.090000*%
%ADD41C,0.100000*%
%ADD42R,1.700000X1.700000*%
%ADD43R,0.800000X0.950000*%
%ADD44R,0.560000X0.665000*%
%ADD45C,0.120000*%
%ADD46C,0.036000*%
%ADD47R,1.025000X1.400000*%
%ADD48R,0.717500X0.980000*%
%ADD49R,2.000000X2.000000*%
%ADD50R,2.200000X2.200000*%
%ADD51C,0.150000*%
%ADD52R,1.325000X0.600000*%
%ADD53R,0.927500X0.420000*%
%ADD54C,0.045000*%
%ADD55R,1.450000X0.300000*%
%ADD56R,1.015000X0.210000*%
%ADD57C,0.048375*%
%ADD58C,0.300000*%
%TD*%
G04 aperture END LIST*
D29*
X-75000000Y-45000000D03*
D29*
X075000000Y-45000000D03*
D29*
X-75000000Y045000000D03*
D29*
X075000000Y045000000D03*
D30*
X018000000Y-26670000D03*
D31*
X018000000Y-24130000D03*
D31*
X018000000Y-21590000D03*
D31*
X018000000Y-19050000D03*
D31*
X018000000Y-16510000D03*
D31*
X018000000Y-13970000D03*
D31*
X018000000Y-11430000D03*
D31*
X018000000Y-08890000D03*
D31*
X018000000Y-06350000D03*
D31*
X018000000Y-03810000D03*
D31*
X018000000Y-01270000D03*
D31*
X018000000Y001270000D03*
D31*
X018000000Y003810000D03*
D31*
X018000000Y006350000D03*
D31*
X018000000Y008890000D03*
D31*
X018000000Y011430000D03*
D31*
X018000000Y013970000D03*
D31*
X018000000Y016510000D03*
D31*
X018000000Y019050000D03*
D31*
X018000000Y021590000D03*
D31*
X018000000Y024130000D03*
D31*
X018000000Y026670000D03*
D30*
X040860000Y-26670000D03*
D31*
X040860000Y-24130000D03*
D31*
X040860000Y-21590000D03*
D31*
X040860000Y-19050000D03*
D31*
X040860000Y-16510000D03*
D31*
X040860000Y-13970000D03*
D31*
X040860000Y-11430000D03*
D31*
X040860000Y-08890000D03*
D31*
X040860000Y-06350000D03*
D31*
X040860000Y-03810000D03*
D31*
X040860000Y-01270000D03*
D31*
X040860000Y001270000D03*
D31*
X040860000Y003810000D03*
D31*
X040860000Y006350000D03*
D31*
X040860000Y008890000D03*
D31*
X040860000Y011430000D03*
D31*
X040860000Y013970000D03*
D31*
X040860000Y016510000D03*
D31*
X040860000Y019050000D03*
D31*
X040860000Y021590000D03*
D31*
X040860000Y024130000D03*
D31*
X040860000Y026670000D03*
D30*
X-70540000Y-15000000D03*
D31*
X-68000000Y-15000000D03*
D31*
X-65460000Y-15000000D03*
D30*
X-70540000Y000000000D03*
D31*
X-68000000Y000000000D03*
D31*
X-65460000Y000000000D03*
D30*
X-76500000Y015000000D03*
D35*
X-69620000Y023133500D03*
D35*
X-54380000Y023133500D03*
D35*
X-69747000Y045866500D03*
D35*
X-54507000Y045866500D03*
D36*
X-64540000Y017500000D03*
D36*
X-59460000Y017500000D03*
D38*
X-44160000Y040350000D03*
D38*
X-41620000Y040350000D03*
D38*
X-44160000Y037810000D03*
D38*
X-41620000Y037810000D03*
D38*
X-44160000Y035270000D03*
D38*
X-41620000Y035270000D03*
D38*
X-44160000Y032730000D03*
D38*
X-41620000Y032730000D03*
D38*
X-44160000Y030190000D03*
D38*
X-41620000Y030190000D03*
D38*
X-44160000Y027650000D03*
D38*
X-41620000Y027650000D03*
D39*
X-44500000Y023500000D03*
D39*
X-23400000Y023500000D03*
D39*
X-23400000Y044600000D03*
D42*
X-30160000Y-38350000D03*
D42*
X-30160000Y-35810000D03*
D42*
X-30160000Y-33270000D03*
D42*
X-30160000Y-30730000D03*
D42*
X-30160000Y-28190000D03*
D42*
X-30160000Y-25650000D03*
D42*
X-09840000Y-38350000D03*
D42*
X-09840000Y-35810000D03*
D42*
X-09840000Y-33270000D03*
D42*
X-09840000Y-30730000D03*
D42*
X-09840000Y-28190000D03*
D42*
X-09840000Y-25650000D03*
D43*
X-05825000Y-12000000D03*
D43*
X-04175000Y-12000000D03*
D47*
X-48912500Y-18000000D03*
D47*
X-47087500Y-18000000D03*
D47*
X-48912500Y-12000000D03*
D47*
X-47087500Y-12000000D03*
D47*
X-38912500Y-12000000D03*
D47*
X-37087500Y-12000000D03*
D47*
X-48912500Y-06000000D03*
D47*
X-47087500Y-06000000D03*
D47*
X-38912500Y-06000000D03*
D47*
X-37087500Y-06000000D03*
D47*
X-48912500Y000000000D03*
D47*
X-47087500Y000000000D03*
D47*
X-48912500Y006000000D03*
D47*
X-47087500Y006000000D03*
D47*
X-38912500Y006000000D03*
D47*
X-37087500Y006000000D03*
D47*
X-48912500Y012000000D03*
D47*
X-47087500Y012000000D03*
D47*
X-38912500Y012000000D03*
D47*
X-37087500Y012000000D03*
D47*
X-48912500Y018000000D03*
D47*
X-47087500Y018000000D03*
D47*
X-38912500Y018000000D03*
D47*
X-37087500Y018000000D03*
D47*
X057087500Y027000000D03*
D47*
X058912500Y027000000D03*
D49*
X065730000Y027000000D03*
D49*
X068270000Y027000000D03*
D47*
X057087500Y020000000D03*
D47*
X058912500Y020000000D03*
D49*
X065730000Y020000000D03*
D49*
X068270000Y020000000D03*
D50*
X069540000Y036000000D03*
D50*
X067000000Y036000000D03*
D50*
X064460000Y036000000D03*
D43*
X057175000Y036000000D03*
D43*
X058825000Y036000000D03*
D43*
X057175000Y032000000D03*
D43*
X058825000Y032000000D03*
D43*
X051175000Y036000000D03*
D43*
X052825000Y036000000D03*
D30*
X064460000Y008000000D03*
D31*
X067000000Y008000000D03*
D31*
X069540000Y008000000D03*
D47*
X055087500Y008000000D03*
D47*
X056912500Y008000000D03*
D49*
X064500000Y-12000000D03*
D49*
X069500000Y-12000000D03*
D52*
X053862500Y-11050000D03*
D52*
X053862500Y-12950000D03*
D52*
X056137500Y-12000000D03*
D43*
X046175000Y-10000000D03*
D43*
X047825000Y-10000000D03*
D43*
X046175000Y-15000000D03*
D43*
X047825000Y-15000000D03*
D47*
X-17912500Y039000000D03*
D47*
X-16087500Y039000000D03*
D43*
X-13825000Y039000000D03*
D43*
X-12175000Y039000000D03*
D55*
X032775000Y-25250000D03*
D55*
X032775000Y-25750000D03*
D55*
X032775000Y-26250000D03*
D55*
X032775000Y-26750000D03*
D55*
X032775000Y-27250000D03*
D55*
X032775000Y-27750000D03*
D55*
X032775000Y-28250000D03*
D55*
X032775000Y-28750000D03*
D55*
X037225000Y-28750000D03*
D55*
X037225000Y-28250000D03*
D55*
X037225000Y-27750000D03*
D55*
X037225000Y-27250000D03*
D55*
X037225000Y-26750000D03*
D55*
X037225000Y-26250000D03*
D55*
X037225000Y-25750000D03*
D55*
X037225000Y-25250000D03*
D43*
X028175000Y-27000000D03*
D43*
X029825000Y-27000000D03*
D49*
X012460000Y-44420000D03*
D49*
X015230000Y-44420000D03*
D49*
X018000000Y-44420000D03*
D49*
X020770000Y-44420000D03*
D49*
X023540000Y-44420000D03*
D49*
X013845000Y-41580000D03*
D49*
X016615000Y-41580000D03*
D49*
X019385000Y-41580000D03*
D49*
X022155000Y-41580000D03*
D29*
X005505000Y-43000000D03*
D29*
X030495000Y-43000000D03*
D49*
X048460000Y-44420000D03*
D49*
X051230000Y-44420000D03*
D49*
X054000000Y-44420000D03*
D49*
X056770000Y-44420000D03*
D49*
X059540000Y-44420000D03*
D49*
X049845000Y-41580000D03*
D49*
X052615000Y-41580000D03*
D49*
X055385000Y-41580000D03*
D49*
X058155000Y-41580000D03*
D29*
X041505000Y-43000000D03*
D29*
X066495000Y-43000000D03*
M02*