%TF.GenerationSoftware,tscircuit,circuit-json-to-gerber,0.0.93*%
%TF.CreationDate,2026-08-31T06:38:35.112Z*%
%TF.SameCoordinates,Original*%
%TF.FileFunction,Paste,Top*%
%TF.FilePolarity,Positive*%
%FSLAX46Y46*%
%MOMM*%
G04 Gerber Fmt 4.6, Leading zero omitted, Abs format (unit mm)*
G04 Created by tscircuit (builder) date 2026-08-31T06:38:35.112Z*
G01*
%LPD*%
G75*
G04 APERTURE MACROS START*
%AMHORZPILL*
0 Horizontal pill (stadium) shape macro*
0 Parameters:*
0 $1 = Total width*
0 $2 = Total height*
0 $3 = Circle diameter (equal to height)*
0 $4 = Circle center offset
0 21 = Center Line(Exposure, Width, Height, Center X, Center Y, Rotation)*
0 1 = Circle(Exposure, Diameter, Center X, Center Y, Rotation)*
21,1,$1-$3,$2,0.0,0.0,0.0*
1,1,$3,0.0-$4,0.0*
1,1,$3,$4,0.0*%
%AMVERTPILL*
0 Vertical pill (stadium) shape macro*
0 Parameters:*
0 $1 = Total width*
0 $2 = Total height*
0 $3 = Circle diameter (equal to width)*
0 $4 = Circle center offset
0 21 = Center Line(Exposure, Width, Height, Center X, Center Y, Rotation)*
21,1,$1,$2-$3,0.0,0.0,0.0*
1,1,$3,0.0,0.0-$4*
1,1,$3,0.0,$4*%
%AMROUNDRECT*
0 Rectangle with rounded corners*
0 $1 Corner radius*
0 $2 $3 $4 $5 $6 $7 $8 $9 X,Y Position of each corner*
0 Polygon box body*
4,1,4,$2,$3,$4,$5,$6,$7,$8,$9,$2,$3,0*
0 Circles for rounded corners*
1,1,$1+$1,$2,$3*
1,1,$1+$1,$4,$5*
1,1,$1+$1,$6,$7*
1,1,$1+$1,$8,$9*
0 Rectangles between the rounded corners*
20,1,$1+$1,$2,$3,$4,$5,0*
20,1,$1+$1,$4,$5,$6,$7,0*
20,1,$1+$1,$6,$7,$8,$9,0*
20,1,$1+$1,$8,$9,$2,$3,0*%
G04 APERTURE MACROS END*
G04 aperture START LIST*
%ADD10C,0.150000*%
%ADD11C,1.000000*%
%ADD12C,0.800000*%
%ADD13C,0.350000*%
%ADD14C,0.300000*%
%ADD15C,0.600000*%
%ADD16C,0.900000*%
%ADD17C,0.775000*%
%ADD18C,0.850000*%
%ADD19C,0.950000*%
%ADD20C,0.375000*%
%ADD21C,0.275000*%
%ADD22C,0.650000*%
%ADD23C,0.750000*%
%ADD24C,0.525000*%
%ADD25R,1.500000X1.500000*%
%ADD26C,1.500000*%
%ADD27C,0.063000*%
%ADD28C,0.200000*%
%ADD29C,0.108000*%
%ADD30R,1.800000X1.800000*%
%ADD31C,0.081000*%
%ADD32C,0.090000*%
%ADD33C,0.100000*%
%ADD34R,1.700000X1.700000*%
%ADD35R,1.025000X1.400000*%
%ADD36R,0.717500X0.980000*%
%ADD37C,0.120000*%
%ADD38C,0.036000*%
%ADD39R,2.200000X2.200000*%
%ADD40C,0.150000*%
%ADD41R,0.800000X0.950000*%
%ADD42R,0.560000X0.665000*%
%ADD43R,2.800000X2.800000*%
%ADD44C,0.072000*%
%ADD45R,2.000000X2.000000*%
%ADD46R,1.325000X0.600000*%
%ADD47R,0.927500X0.420000*%
%ADD48C,0.045000*%
%ADD49C,1.400000*%
%ADD50C,0.300000*%
%TD*%
G04 aperture END LIST*
D26*
X001570000Y-39130000D03*
D26*
X001570000Y-36590000D03*
D26*
X001570000Y-34050000D03*
D26*
X001570000Y-31510000D03*
D26*
X001570000Y-28970000D03*
D26*
X001570000Y-26430000D03*
D26*
X001570000Y-23890000D03*
D26*
X001570000Y-21350000D03*
D26*
X001570000Y-18810000D03*
D26*
X001570000Y-16270000D03*
D26*
X001570000Y-13730000D03*
D26*
X001570000Y-11190000D03*
D26*
X001570000Y-08650000D03*
D26*
X001570000Y-06110000D03*
D26*
X001570000Y-03570000D03*
D26*
X001570000Y-01030000D03*
D26*
X001570000Y001510000D03*
D26*
X001570000Y004050000D03*
D26*
X001570000Y006590000D03*
D26*
X001570000Y009130000D03*
D26*
X001570000Y011670000D03*
D26*
X024430000Y-39130000D03*
D26*
X024430000Y-36590000D03*
D26*
X024430000Y-34050000D03*
D26*
X024430000Y-31510000D03*
D26*
X024430000Y-28970000D03*
D26*
X024430000Y-26430000D03*
D26*
X024430000Y-23890000D03*
D26*
X024430000Y-21350000D03*
D26*
X024430000Y-18810000D03*
D26*
X024430000Y-16270000D03*
D26*
X024430000Y-13730000D03*
D26*
X024430000Y-11190000D03*
D26*
X024430000Y-08650000D03*
D26*
X024430000Y-06110000D03*
D26*
X024430000Y-03570000D03*
D26*
X024430000Y-01030000D03*
D26*
X024430000Y001510000D03*
D26*
X024430000Y004050000D03*
D26*
X024430000Y006590000D03*
D26*
X024430000Y009130000D03*
D26*
X024430000Y011670000D03*
D26*
X-68000000Y-15000000D03*
D26*
X-65460000Y-15000000D03*
D26*
X-68000000Y000000000D03*
D26*
X-65460000Y000000000D03*
D36*
X-48912500Y-18000000D03*
D36*
X-47087500Y-18000000D03*
D36*
X-48912500Y-12000000D03*
D36*
X-47087500Y-12000000D03*
D36*
X-48912500Y-06000000D03*
D36*
X-47087500Y-06000000D03*
D36*
X-48912500Y000000000D03*
D36*
X-47087500Y000000000D03*
D36*
X-48912500Y006000000D03*
D36*
X-47087500Y006000000D03*
D36*
X-48912500Y012000000D03*
D36*
X-47087500Y012000000D03*
D36*
X-48912500Y018000000D03*
D36*
X-47087500Y018000000D03*
D42*
X057175000Y044000000D03*
D42*
X058825000Y044000000D03*
D42*
X057175000Y040000000D03*
D42*
X058825000Y040000000D03*
D47*
X053862500Y-11050000D03*
D47*
X053862500Y-12950000D03*
D47*
X056137500Y-12000000D03*
D42*
X046175000Y-10000000D03*
D42*
X047825000Y-10000000D03*
D42*
X046175000Y-15000000D03*
D42*
X047825000Y-15000000D03*
D36*
X-17912500Y039000000D03*
D36*
X-16087500Y039000000D03*
D42*
X-13825000Y039000000D03*
D42*
X-12175000Y039000000D03*
D49*
X041905000Y-33070000D03*
D49*
X040635000Y-30530000D03*
D49*
X039365000Y-33070000D03*
D49*
X038095000Y-30530000D03*
D36*
X047087500Y-18000000D03*
D36*
X048912500Y-18000000D03*
D36*
X034087500Y-27000000D03*
D36*
X035912500Y-27000000D03*
D36*
X056087500Y-20000000D03*
D36*
X057912500Y-20000000D03*
D49*
X061905000Y-33070000D03*
D49*
X060635000Y-30530000D03*
D49*
X059365000Y-33070000D03*
D49*
X058095000Y-30530000D03*
D36*
X067087500Y-18000000D03*
D36*
X068912500Y-18000000D03*
D36*
X058087500Y-27000000D03*
D36*
X059912500Y-27000000D03*
D36*
X076087500Y-20000000D03*
D36*
X077912500Y-20000000D03*
M02*