%TF.GenerationSoftware,tscircuit,circuit-json-to-gerber,0.0.93*%
%TF.CreationDate,2026-08-27T11:18:39.263Z*%
%TF.SameCoordinates,Original*%
%TF.FileFunction,Paste,Top*%
%TF.FilePolarity,Positive*%
%FSLAX46Y46*%
%MOMM*%
G04 Gerber Fmt 4.6, Leading zero omitted, Abs format (unit mm)*
G04 Created by tscircuit (builder) date 2026-08-27T11:18:39.263Z*
G01*
%LPD*%
G75*
G04 APERTURE MACROS START*
%AMHORZPILL*
0 Horizontal pill (stadium) shape macro*
0 Parameters:*
0 $1 = Total width*
0 $2 = Total height*
0 $3 = Circle diameter (equal to height)*
0 $4 = Circle center offset
0 21 = Center Line(Exposure, Width, Height, Center X, Center Y, Rotation)*
0 1 = Circle(Exposure, Diameter, Center X, Center Y, Rotation)*
21,1,$1-$3,$2,0.0,0.0,0.0*
1,1,$3,0.0-$4,0.0*
1,1,$3,$4,0.0*%
%AMVERTPILL*
0 Vertical pill (stadium) shape macro*
0 Parameters:*
0 $1 = Total width*
0 $2 = Total height*
0 $3 = Circle diameter (equal to width)*
0 $4 = Circle center offset
0 21 = Center Line(Exposure, Width, Height, Center X, Center Y, Rotation)*
21,1,$1,$2-$3,0.0,0.0,0.0*
1,1,$3,0.0,0.0-$4*
1,1,$3,0.0,$4*%
%AMROUNDRECT*
0 Rectangle with rounded corners*
0 $1 Corner radius*
0 $2 $3 $4 $5 $6 $7 $8 $9 X,Y Position of each corner*
0 Polygon box body*
4,1,4,$2,$3,$4,$5,$6,$7,$8,$9,$2,$3,0*
0 Circles for rounded corners*
1,1,$1+$1,$2,$3*
1,1,$1+$1,$4,$5*
1,1,$1+$1,$6,$7*
1,1,$1+$1,$8,$9*
0 Rectangles between the rounded corners*
20,1,$1+$1,$2,$3,$4,$5,0*
20,1,$1+$1,$4,$5,$6,$7,0*
20,1,$1+$1,$6,$7,$8,$9,0*
20,1,$1+$1,$8,$9,$2,$3,0*%
G04 APERTURE MACROS END*
G04 aperture START LIST*
%ADD10C,0.150000*%
%ADD11C,1.000000*%
%ADD12C,0.800000*%
%ADD13C,0.300000*%
%ADD14C,0.325000*%
%ADD15C,0.425000*%
%ADD16C,0.725000*%
%ADD17C,0.625000*%
%ADD18C,0.400000*%
%ADD19C,0.375000*%
%ADD20C,0.475000*%
%ADD21C,0.350000*%
%ADD22C,0.600000*%
%ADD23C,0.900000*%
%ADD24C,0.550000*%
%ADD25C,0.525000*%
%ADD26R,1.500000X1.500000*%
%ADD27C,1.500000*%
%ADD28C,0.063000*%
%ADD29C,0.200000*%
%ADD30C,0.108000*%
%ADD31R,1.800000X1.800000*%
%ADD32C,0.081000*%
%ADD33C,0.090000*%
%ADD34C,0.100000*%
%ADD35R,1.700000X1.700000*%
%ADD36R,1.025000X1.400000*%
%ADD37R,0.717500X0.980000*%
%ADD38C,0.120000*%
%ADD39C,0.036000*%
%ADD40R,2.200000X2.200000*%
%ADD41C,0.150000*%
%ADD42R,0.800000X0.950000*%
%ADD43R,0.560000X0.665000*%
%ADD44R,2.800000X2.800000*%
%ADD45C,0.072000*%
%ADD46R,2.000000X2.000000*%
%ADD47R,1.325000X0.600000*%
%ADD48R,0.927500X0.420000*%
%ADD49C,0.045000*%
%ADD50C,1.400000*%
%ADD51C,0.300000*%
%TD*%
G04 aperture END LIST*
D27*
X018000000Y-24130000D03*
D27*
X018000000Y-21590000D03*
D27*
X018000000Y-19050000D03*
D27*
X018000000Y-16510000D03*
D27*
X018000000Y-13970000D03*
D27*
X018000000Y-11430000D03*
D27*
X018000000Y-08890000D03*
D27*
X018000000Y-06350000D03*
D27*
X018000000Y-03810000D03*
D27*
X018000000Y-01270000D03*
D27*
X018000000Y001270000D03*
D27*
X018000000Y003810000D03*
D27*
X018000000Y006350000D03*
D27*
X018000000Y008890000D03*
D27*
X018000000Y011430000D03*
D27*
X018000000Y013970000D03*
D27*
X018000000Y016510000D03*
D27*
X018000000Y019050000D03*
D27*
X018000000Y021590000D03*
D27*
X018000000Y024130000D03*
D27*
X018000000Y026670000D03*
D27*
X040860000Y-24130000D03*
D27*
X040860000Y-21590000D03*
D27*
X040860000Y-19050000D03*
D27*
X040860000Y-16510000D03*
D27*
X040860000Y-13970000D03*
D27*
X040860000Y-11430000D03*
D27*
X040860000Y-08890000D03*
D27*
X040860000Y-06350000D03*
D27*
X040860000Y-03810000D03*
D27*
X040860000Y-01270000D03*
D27*
X040860000Y001270000D03*
D27*
X040860000Y003810000D03*
D27*
X040860000Y006350000D03*
D27*
X040860000Y008890000D03*
D27*
X040860000Y011430000D03*
D27*
X040860000Y013970000D03*
D27*
X040860000Y016510000D03*
D27*
X040860000Y019050000D03*
D27*
X040860000Y021590000D03*
D27*
X040860000Y024130000D03*
D27*
X040860000Y026670000D03*
D27*
X-68000000Y-15000000D03*
D27*
X-65460000Y-15000000D03*
D27*
X-68000000Y000000000D03*
D27*
X-65460000Y000000000D03*
D37*
X-48912500Y-18000000D03*
D37*
X-47087500Y-18000000D03*
D37*
X-48912500Y-12000000D03*
D37*
X-47087500Y-12000000D03*
D37*
X-48912500Y-06000000D03*
D37*
X-47087500Y-06000000D03*
D37*
X-48912500Y000000000D03*
D37*
X-47087500Y000000000D03*
D37*
X-48912500Y006000000D03*
D37*
X-47087500Y006000000D03*
D37*
X-48912500Y012000000D03*
D37*
X-47087500Y012000000D03*
D37*
X-48912500Y018000000D03*
D37*
X-47087500Y018000000D03*
D43*
X057175000Y036000000D03*
D43*
X058825000Y036000000D03*
D43*
X057175000Y032000000D03*
D43*
X058825000Y032000000D03*
D48*
X053862500Y-11050000D03*
D48*
X053862500Y-12950000D03*
D48*
X056137500Y-12000000D03*
D43*
X046175000Y-10000000D03*
D43*
X047825000Y-10000000D03*
D43*
X046175000Y-15000000D03*
D43*
X047825000Y-15000000D03*
D37*
X-17912500Y039000000D03*
D37*
X-16087500Y039000000D03*
D43*
X-13825000Y039000000D03*
D43*
X-12175000Y039000000D03*
D50*
X038095000Y-39365000D03*
D50*
X039365000Y-40635000D03*
D50*
X040635000Y-39365000D03*
D50*
X041905000Y-40635000D03*
D37*
X047087500Y-18000000D03*
D37*
X048912500Y-18000000D03*
D37*
X034087500Y-27000000D03*
D37*
X035912500Y-27000000D03*
D37*
X056087500Y-30000000D03*
D37*
X057912500Y-30000000D03*
D50*
X058095000Y-39365000D03*
D50*
X059365000Y-40635000D03*
D50*
X060635000Y-39365000D03*
D50*
X061905000Y-40635000D03*
D37*
X067087500Y-18000000D03*
D37*
X068912500Y-18000000D03*
D37*
X058087500Y-27000000D03*
D37*
X059912500Y-27000000D03*
D37*
X076087500Y-30000000D03*
D37*
X077912500Y-30000000D03*
M02*