%TF.GenerationSoftware,tscircuit,circuit-json-to-gerber,0.0.93*%
%TF.CreationDate,2026-08-27T11:50:27.691Z*%
%TF.SameCoordinates,Original*%
%TF.FileFunction,Paste,Top*%
%TF.FilePolarity,Positive*%
%FSLAX46Y46*%
%MOMM*%
G04 Gerber Fmt 4.6, Leading zero omitted, Abs format (unit mm)*
G04 Created by tscircuit (builder) date 2026-08-27T11:50:27.691Z*
G01*
%LPD*%
G75*
G04 APERTURE MACROS START*
%AMHORZPILL*
0 Horizontal pill (stadium) shape macro*
0 Parameters:*
0 $1 = Total width*
0 $2 = Total height*
0 $3 = Circle diameter (equal to height)*
0 $4 = Circle center offset
0 21 = Center Line(Exposure, Width, Height, Center X, Center Y, Rotation)*
0 1 = Circle(Exposure, Diameter, Center X, Center Y, Rotation)*
21,1,$1-$3,$2,0.0,0.0,0.0*
1,1,$3,0.0-$4,0.0*
1,1,$3,$4,0.0*%
%AMVERTPILL*
0 Vertical pill (stadium) shape macro*
0 Parameters:*
0 $1 = Total width*
0 $2 = Total height*
0 $3 = Circle diameter (equal to width)*
0 $4 = Circle center offset
0 21 = Center Line(Exposure, Width, Height, Center X, Center Y, Rotation)*
21,1,$1,$2-$3,0.0,0.0,0.0*
1,1,$3,0.0,0.0-$4*
1,1,$3,0.0,$4*%
%AMROUNDRECT*
0 Rectangle with rounded corners*
0 $1 Corner radius*
0 $2 $3 $4 $5 $6 $7 $8 $9 X,Y Position of each corner*
0 Polygon box body*
4,1,4,$2,$3,$4,$5,$6,$7,$8,$9,$2,$3,0*
0 Circles for rounded corners*
1,1,$1+$1,$2,$3*
1,1,$1+$1,$4,$5*
1,1,$1+$1,$6,$7*
1,1,$1+$1,$8,$9*
0 Rectangles between the rounded corners*
20,1,$1+$1,$2,$3,$4,$5,0*
20,1,$1+$1,$4,$5,$6,$7,0*
20,1,$1+$1,$6,$7,$8,$9,0*
20,1,$1+$1,$8,$9,$2,$3,0*%
G04 APERTURE MACROS END*
G04 aperture START LIST*
%ADD10C,0.150000*%
%ADD11C,1.000000*%
%ADD12C,0.800000*%
%ADD13C,0.650000*%
%ADD14C,0.625000*%
%ADD15C,0.850000*%
%ADD16C,0.275000*%
%ADD17C,0.925000*%
%ADD18C,0.900000*%
%ADD19C,0.725000*%
%ADD20C,0.575000*%
%ADD21C,0.600000*%
%ADD22R,1.500000X1.500000*%
%ADD23C,1.500000*%
%ADD24C,0.063000*%
%ADD25C,0.200000*%
%ADD26C,0.108000*%
%ADD27R,1.800000X1.800000*%
%ADD28C,0.081000*%
%ADD29C,0.090000*%
%ADD30C,0.100000*%
%ADD31R,1.700000X1.700000*%
%ADD32R,1.025000X1.400000*%
%ADD33R,0.717500X0.980000*%
%ADD34C,0.120000*%
%ADD35C,0.036000*%
%ADD36R,2.200000X2.200000*%
%ADD37C,0.150000*%
%ADD38R,0.800000X0.950000*%
%ADD39R,0.560000X0.665000*%
%ADD40R,2.800000X2.800000*%
%ADD41C,0.072000*%
%ADD42R,2.000000X2.000000*%
%ADD43R,1.325000X0.600000*%
%ADD44R,0.927500X0.420000*%
%ADD45C,0.045000*%
%ADD46C,1.400000*%
%ADD47C,0.300000*%
%TD*%
G04 aperture END LIST*
D23*
X001570000Y-26130000D03*
D23*
X001570000Y-23590000D03*
D23*
X001570000Y-21050000D03*
D23*
X001570000Y-18510000D03*
D23*
X001570000Y-15970000D03*
D23*
X001570000Y-13430000D03*
D23*
X001570000Y-10890000D03*
D23*
X001570000Y-08350000D03*
D23*
X001570000Y-05810000D03*
D23*
X001570000Y-03270000D03*
D23*
X001570000Y-00730000D03*
D23*
X001570000Y001810000D03*
D23*
X001570000Y004350000D03*
D23*
X001570000Y006890000D03*
D23*
X001570000Y009430000D03*
D23*
X001570000Y011970000D03*
D23*
X001570000Y014510000D03*
D23*
X001570000Y017050000D03*
D23*
X001570000Y019590000D03*
D23*
X001570000Y022130000D03*
D23*
X001570000Y024670000D03*
D23*
X024430000Y-26130000D03*
D23*
X024430000Y-23590000D03*
D23*
X024430000Y-21050000D03*
D23*
X024430000Y-18510000D03*
D23*
X024430000Y-15970000D03*
D23*
X024430000Y-13430000D03*
D23*
X024430000Y-10890000D03*
D23*
X024430000Y-08350000D03*
D23*
X024430000Y-05810000D03*
D23*
X024430000Y-03270000D03*
D23*
X024430000Y-00730000D03*
D23*
X024430000Y001810000D03*
D23*
X024430000Y004350000D03*
D23*
X024430000Y006890000D03*
D23*
X024430000Y009430000D03*
D23*
X024430000Y011970000D03*
D23*
X024430000Y014510000D03*
D23*
X024430000Y017050000D03*
D23*
X024430000Y019590000D03*
D23*
X024430000Y022130000D03*
D23*
X024430000Y024670000D03*
D23*
X-68000000Y-15000000D03*
D23*
X-65460000Y-15000000D03*
D23*
X-68000000Y000000000D03*
D23*
X-65460000Y000000000D03*
D33*
X-48912500Y-18000000D03*
D33*
X-47087500Y-18000000D03*
D33*
X-48912500Y-12000000D03*
D33*
X-47087500Y-12000000D03*
D33*
X-48912500Y-06000000D03*
D33*
X-47087500Y-06000000D03*
D33*
X-48912500Y000000000D03*
D33*
X-47087500Y000000000D03*
D33*
X-48912500Y006000000D03*
D33*
X-47087500Y006000000D03*
D33*
X-48912500Y012000000D03*
D33*
X-47087500Y012000000D03*
D33*
X-48912500Y018000000D03*
D33*
X-47087500Y018000000D03*
D39*
X057175000Y036000000D03*
D39*
X058825000Y036000000D03*
D39*
X057175000Y032000000D03*
D39*
X058825000Y032000000D03*
D44*
X053862500Y-11050000D03*
D44*
X053862500Y-12950000D03*
D44*
X056137500Y-12000000D03*
D39*
X046175000Y-10000000D03*
D39*
X047825000Y-10000000D03*
D39*
X046175000Y-15000000D03*
D39*
X047825000Y-15000000D03*
D33*
X-17912500Y039000000D03*
D33*
X-16087500Y039000000D03*
D39*
X-13825000Y039000000D03*
D39*
X-12175000Y039000000D03*
D46*
X038095000Y-39365000D03*
D46*
X039365000Y-40635000D03*
D46*
X040635000Y-39365000D03*
D46*
X041905000Y-40635000D03*
D33*
X047087500Y-18000000D03*
D33*
X048912500Y-18000000D03*
D33*
X034087500Y-27000000D03*
D33*
X035912500Y-27000000D03*
D33*
X056087500Y-30000000D03*
D33*
X057912500Y-30000000D03*
D46*
X058095000Y-39365000D03*
D46*
X059365000Y-40635000D03*
D46*
X060635000Y-39365000D03*
D46*
X061905000Y-40635000D03*
D33*
X067087500Y-18000000D03*
D33*
X068912500Y-18000000D03*
D33*
X058087500Y-27000000D03*
D33*
X059912500Y-27000000D03*
D33*
X076087500Y-30000000D03*
D33*
X077912500Y-30000000D03*
M02*