%TF.GenerationSoftware,tscircuit,circuit-json-to-gerber,0.0.93*%
%TF.CreationDate,2026-08-31T07:14:13.100Z*%
%TF.SameCoordinates,Original*%
%TF.FileFunction,Legend,Top*%
%TF.FilePolarity,Positive*%
%FSLAX46Y46*%
%MOMM*%
G04 Gerber Fmt 4.6, Leading zero omitted, Abs format (unit mm)*
G04 Created by tscircuit (builder) date 2026-08-31T07:14:13.100Z*
G01*
%LPD*%
G75*
G04 APERTURE MACROS START*
%AMHORZPILL*
0 Horizontal pill (stadium) shape macro*
0 Parameters:*
0 $1 = Total width*
0 $2 = Total height*
0 $3 = Circle diameter (equal to height)*
0 $4 = Circle center offset
0 21 = Center Line(Exposure, Width, Height, Center X, Center Y, Rotation)*
0 1 = Circle(Exposure, Diameter, Center X, Center Y, Rotation)*
21,1,$1-$3,$2,0.0,0.0,0.0*
1,1,$3,0.0-$4,0.0*
1,1,$3,$4,0.0*%
%AMVERTPILL*
0 Vertical pill (stadium) shape macro*
0 Parameters:*
0 $1 = Total width*
0 $2 = Total height*
0 $3 = Circle diameter (equal to width)*
0 $4 = Circle center offset
0 21 = Center Line(Exposure, Width, Height, Center X, Center Y, Rotation)*
21,1,$1,$2-$3,0.0,0.0,0.0*
1,1,$3,0.0,0.0-$4*
1,1,$3,0.0,$4*%
%AMROUNDRECT*
0 Rectangle with rounded corners*
0 $1 Corner radius*
0 $2 $3 $4 $5 $6 $7 $8 $9 X,Y Position of each corner*
0 Polygon box body*
4,1,4,$2,$3,$4,$5,$6,$7,$8,$9,$2,$3,0*
0 Circles for rounded corners*
1,1,$1+$1,$2,$3*
1,1,$1+$1,$4,$5*
1,1,$1+$1,$6,$7*
1,1,$1+$1,$8,$9*
0 Rectangles between the rounded corners*
20,1,$1+$1,$2,$3,$4,$5,0*
20,1,$1+$1,$4,$5,$6,$7,0*
20,1,$1+$1,$6,$7,$8,$9,0*
20,1,$1+$1,$8,$9,$2,$3,0*%
G04 APERTURE MACROS END*
G04 aperture START LIST*
%ADD10C,0.150000*%
%ADD11C,1.000000*%
%ADD12C,0.800000*%
%ADD13C,0.625000*%
%ADD14C,0.300000*%
%ADD15C,0.275000*%
%ADD16C,0.350000*%
%ADD17C,0.350000*%
%ADD18C,0.600000*%
%ADD19C,0.525000*%
%ADD20C,0.975000*%
%ADD21C,0.900000*%
%ADD22C,0.600000*%
%ADD23C,0.400000*%
%ADD24C,0.375000*%
%ADD25C,0.325000*%
%ADD26C,0.575000*%
%ADD27C,0.650000*%
%ADD28R,1.500000X1.500000*%
%ADD29C,1.500000*%
%ADD30C,0.063000*%
%ADD31C,0.200000*%
%ADD32C,0.108000*%
%ADD33R,1.800000X1.800000*%
%ADD34C,0.081000*%
%ADD35C,0.090000*%
%ADD36C,0.100000*%
%ADD37R,1.700000X1.700000*%
%ADD38R,1.025000X1.400000*%
%ADD39R,0.717500X0.980000*%
%ADD40C,0.120000*%
%ADD41C,0.036000*%
%ADD42R,2.200000X2.200000*%
%ADD43C,0.150000*%
%ADD44R,0.800000X0.950000*%
%ADD45R,0.560000X0.665000*%
%ADD46R,2.800000X2.800000*%
%ADD47C,0.072000*%
%ADD48R,2.000000X2.000000*%
%ADD49R,1.325000X0.600000*%
%ADD50R,0.927500X0.420000*%
%ADD51C,0.045000*%
%ADD52C,1.400000*%
%ADD53C,0.300000*%
%TD*%
G04 aperture END LIST*
D30*
X-01082212Y-18869358D02*
X-00831725Y-18868881D01*
X-00831725Y-18868881D02*
X-00800378Y-18873460D01*
X-00800378Y-18873460D02*
X-00783413Y-18882150D01*
X-00783413Y-18882150D02*
X-00769923Y-18894336D01*
X-00769923Y-18894336D02*
X-00759590Y-18908923D01*
X-00759590Y-18908923D02*
X-00747142Y-18940944D01*
X-00747142Y-18940944D02*
X-00743552Y-18969480D01*
X-00743552Y-18969480D02*
X-00747717Y-19008159D01*
X-00747717Y-19008159D02*
X-00759147Y-19036673D01*
X-00759147Y-19036673D02*
X-00770220Y-19050544D01*
X-00770220Y-19050544D02*
X-00783647Y-19060660D01*
X-00783647Y-19060660D02*
X-00799079Y-19067327D01*
X-00799079Y-19067327D02*
X-00816166Y-19070849D01*
X-00816166Y-19070849D02*
X-00834558Y-19071532D01*
X-00646306Y-18633273D02*
X-00646306Y-18338268D01*
X-01009275Y-17889600D02*
X-01045854Y-17904608D01*
X-01045854Y-17904608D02*
X-01071753Y-17932140D01*
X-01071753Y-17932140D02*
X-01088672Y-17984280D01*
X-01088672Y-17984280D02*
X-01083505Y-18022809D01*
X-01083505Y-18022809D02*
X-01066163Y-18056763D01*
X-01066163Y-18056763D02*
X-01026138Y-18089918D01*
X-01026138Y-18089918D02*
X-00921076Y-18113068D01*
X-00921076Y-18113068D02*
X-00815461Y-18094901D01*
X-00815461Y-18094901D02*
X-00772930Y-18067800D01*
X-00772930Y-18067800D02*
X-00753028Y-18039624D01*
X-00753028Y-18039624D02*
X-00744005Y-17984734D01*
X-00744005Y-17984734D02*
X-00755537Y-17936897D01*
X-00755537Y-17936897D02*
X-00789190Y-17901477D01*
X-00789190Y-17901477D02*
X-00836688Y-17889600D01*
X-00744005Y-17523627D02*
X-00757552Y-17567170D01*
X-00757552Y-17567170D02*
X-00798769Y-17606972D01*
X-00798769Y-17606972D02*
X-00938667Y-17636407D01*
X-00938667Y-17636407D02*
X-01043375Y-17608370D01*
X-01043375Y-17608370D02*
X-01073198Y-17573971D01*
X-01073198Y-17573971D02*
X-01088672Y-17514411D01*
X-01088672Y-17514411D02*
X-01070097Y-17458336D01*
X-01070097Y-17458336D02*
X-01036149Y-17425504D01*
X-01036149Y-17425504D02*
X-00908606Y-17397388D01*
X-00908606Y-17397388D02*
X-00828084Y-17411381D01*
X-00828084Y-17411381D02*
X-00781548Y-17436317D01*
X-00781548Y-17436317D02*
X-00749849Y-17480609D01*
X-00749849Y-17480609D02*
X-00744005Y-17523627D01*
X-00750005Y-17146707D02*
X-01082212Y-17146707D01*
X-01082212Y-17146707D02*
X-00750005Y-16918215D01*
X-00750005Y-16918215D02*
X-01082212Y-16922699D01*
X-01082212Y-16684282D02*
X-01082212Y-16411767D01*
X-01082212Y-16543978D02*
X-00750005Y-16543978D01*
X-00752385Y-16193984D02*
X-01073608Y-16193984D01*
X-01073608Y-16193984D02*
X-01082212Y-16099799D01*
X-01082212Y-16099799D02*
X-01079335Y-16033692D01*
X-01079335Y-16033692D02*
X-01070496Y-15993814D01*
X-01070496Y-15993814D02*
X-01063289Y-15977045D01*
X-01063289Y-15977045D02*
X-01053909Y-15963245D01*
X-01053909Y-15963245D02*
X-01042120Y-15953049D01*
X-01042120Y-15953049D02*
X-01010150Y-15944059D01*
X-01010150Y-15944059D02*
X-00981799Y-15944903D01*
X-00981799Y-15944903D02*
X-00961270Y-15954104D01*
X-00961270Y-15954104D02*
X-00947206Y-15970619D01*
X-00947206Y-15970619D02*
X-00938248Y-15993401D01*
X-00938248Y-15993401D02*
X-00931418Y-16037045D01*
X-00931418Y-16037045D02*
X-00926083Y-16187741D01*
X-00912520Y-16062595D02*
X-00750005Y-15933192D01*
X-00744005Y-15585881D02*
X-00757552Y-15629424D01*
X-00757552Y-15629424D02*
X-00798769Y-15669227D01*
X-00798769Y-15669227D02*
X-00938667Y-15698661D01*
X-00938667Y-15698661D02*
X-01043375Y-15670624D01*
X-01043375Y-15670624D02*
X-01073198Y-15636225D01*
X-01073198Y-15636225D02*
X-01088672Y-15576665D01*
X-01088672Y-15576665D02*
X-01070097Y-15520590D01*
X-01070097Y-15520590D02*
X-01036149Y-15487759D01*
X-01036149Y-15487759D02*
X-00908606Y-15459642D01*
X-00908606Y-15459642D02*
X-00828084Y-15473635D01*
X-00828084Y-15473635D02*
X-00781548Y-15498571D01*
X-00781548Y-15498571D02*
X-00749849Y-15542863D01*
X-00749849Y-15542863D02*
X-00744005Y-15585881D01*
X-01082212Y-15205253D02*
X-00750005Y-15205253D01*
X-00750005Y-15205253D02*
X-00750005Y-14984178D01*
X-01082212Y-14720816D02*
X-00750005Y-14720816D01*
X-00750005Y-14720816D02*
X-00750005Y-14499741D01*
X-01082212Y-14234107D02*
X-00750005Y-14234107D01*
X-01082212Y-14234107D02*
X-01082212Y-14017578D01*
X-00916109Y-14234107D02*
X-00916109Y-14082537D01*
X-00750005Y-14234107D02*
X-00750005Y-14017578D01*
X-00752385Y-13771802D02*
X-01073608Y-13771802D01*
X-01073608Y-13771802D02*
X-01082212Y-13677617D01*
X-01082212Y-13677617D02*
X-01079335Y-13611510D01*
X-01079335Y-13611510D02*
X-01070496Y-13571632D01*
X-01070496Y-13571632D02*
X-01063289Y-13554863D01*
X-01063289Y-13554863D02*
X-01053909Y-13541063D01*
X-01053909Y-13541063D02*
X-01042120Y-13530867D01*
X-01042120Y-13530867D02*
X-01010150Y-13521877D01*
X-01010150Y-13521877D02*
X-00981799Y-13522721D01*
X-00981799Y-13522721D02*
X-00961270Y-13531922D01*
X-00961270Y-13531922D02*
X-00947206Y-13548437D01*
X-00947206Y-13548437D02*
X-00938248Y-13571219D01*
X-00938248Y-13571219D02*
X-00931418Y-13614863D01*
X-00931418Y-13614863D02*
X-00926083Y-13765559D01*
X-00912520Y-13640413D02*
X-00750005Y-13511010D01*
X-00646306Y-13304473D02*
X-00646306Y-13009467D01*
X-01082212Y-12783071D02*
X-00750005Y-12783071D01*
X-00750005Y-12783071D02*
X-00750005Y-12561996D01*
X-01082212Y-12296362D02*
X-00750005Y-12296362D01*
X-01082212Y-12296362D02*
X-01082212Y-12079833D01*
X-00916109Y-12296362D02*
X-00916109Y-12144791D01*
X-00750005Y-12296362D02*
X-00750005Y-12079833D01*
X-01082212Y-11808815D02*
X-00750005Y-11808815D01*
X-01079953Y-11806424D02*
X-01079953Y-11598507D01*
X-00917238Y-11806424D02*
X-00917238Y-11631965D01*
X-01082212Y-11355482D02*
X-01082212Y-11082967D01*
X-01082212Y-11215178D02*
X-00750005Y-11215178D01*
D31*
X000300000Y-49500000D02*
X025700000Y-49500000D01*
X025700000Y019500000D01*
X000300000Y019500000D01*
X000300000Y-49500000D01*
D30*
X021777788Y-19111576D02*
X022028275Y-19111099D01*
X022028275Y-19111099D02*
X022059622Y-19115678D01*
X022059622Y-19115678D02*
X022076587Y-19124368D01*
X022076587Y-19124368D02*
X022090077Y-19136554D01*
X022090077Y-19136554D02*
X022100410Y-19151141D01*
X022100410Y-19151141D02*
X022112858Y-19183162D01*
X022112858Y-19183162D02*
X022116448Y-19211699D01*
X022116448Y-19211699D02*
X022112283Y-19250377D01*
X022112283Y-19250377D02*
X022100853Y-19278891D01*
X022100853Y-19278891D02*
X022089780Y-19292762D01*
X022089780Y-19292762D02*
X022076353Y-19302878D01*
X022076353Y-19302878D02*
X022060921Y-19309545D01*
X022060921Y-19309545D02*
X022043834Y-19313067D01*
X022043834Y-19313067D02*
X022025442Y-19313750D01*
X022213694Y-18875491D02*
X022213694Y-18580486D01*
X021850725Y-18131818D02*
X021814146Y-18146827D01*
X021814146Y-18146827D02*
X021788247Y-18174358D01*
X021788247Y-18174358D02*
X021771328Y-18226498D01*
X021771328Y-18226498D02*
X021776495Y-18265027D01*
X021776495Y-18265027D02*
X021793837Y-18298981D01*
X021793837Y-18298981D02*
X021833862Y-18332136D01*
X021833862Y-18332136D02*
X021938924Y-18355286D01*
X021938924Y-18355286D02*
X022044539Y-18337119D01*
X022044539Y-18337119D02*
X022087070Y-18310018D01*
X022087070Y-18310018D02*
X022106972Y-18281842D01*
X022106972Y-18281842D02*
X022115995Y-18226952D01*
X022115995Y-18226952D02*
X022104463Y-18179115D01*
X022104463Y-18179115D02*
X022070810Y-18143695D01*
X022070810Y-18143695D02*
X022023312Y-18131818D01*
X022115995Y-17765845D02*
X022102448Y-17809388D01*
X022102448Y-17809388D02*
X022061231Y-17849190D01*
X022061231Y-17849190D02*
X021921333Y-17878625D01*
X021921333Y-17878625D02*
X021816625Y-17850588D01*
X021816625Y-17850588D02*
X021786802Y-17816189D01*
X021786802Y-17816189D02*
X021771328Y-17756629D01*
X021771328Y-17756629D02*
X021789903Y-17700554D01*
X021789903Y-17700554D02*
X021823851Y-17667722D01*
X021823851Y-17667722D02*
X021951394Y-17639606D01*
X021951394Y-17639606D02*
X022031916Y-17653599D01*
X022031916Y-17653599D02*
X022078452Y-17678535D01*
X022078452Y-17678535D02*
X022110151Y-17722827D01*
X022110151Y-17722827D02*
X022115995Y-17765845D01*
X022109995Y-17388925D02*
X021777788Y-17388925D01*
X021777788Y-17388925D02*
X022109995Y-17160433D01*
X022109995Y-17160433D02*
X021777788Y-17164917D01*
X021777788Y-16926501D02*
X021777788Y-16653985D01*
X021777788Y-16786196D02*
X022109995Y-16786196D01*
X022107615Y-16436202D02*
X021786392Y-16436202D01*
X021786392Y-16436202D02*
X021777788Y-16342017D01*
X021777788Y-16342017D02*
X021780665Y-16275911D01*
X021780665Y-16275911D02*
X021789504Y-16236032D01*
X021789504Y-16236032D02*
X021796711Y-16219264D01*
X021796711Y-16219264D02*
X021806091Y-16205463D01*
X021806091Y-16205463D02*
X021817880Y-16195267D01*
X021817880Y-16195267D02*
X021849850Y-16186277D01*
X021849850Y-16186277D02*
X021878201Y-16187121D01*
X021878201Y-16187121D02*
X021898730Y-16196322D01*
X021898730Y-16196322D02*
X021912794Y-16212837D01*
X021912794Y-16212837D02*
X021921752Y-16235619D01*
X021921752Y-16235619D02*
X021928582Y-16279264D01*
X021928582Y-16279264D02*
X021933917Y-16429959D01*
X021947480Y-16304813D02*
X022109995Y-16175411D01*
X022115995Y-15828099D02*
X022102448Y-15871642D01*
X022102448Y-15871642D02*
X022061231Y-15911445D01*
X022061231Y-15911445D02*
X021921333Y-15940880D01*
X021921333Y-15940880D02*
X021816625Y-15912842D01*
X021816625Y-15912842D02*
X021786802Y-15878443D01*
X021786802Y-15878443D02*
X021771328Y-15818883D01*
X021771328Y-15818883D02*
X021789903Y-15762808D01*
X021789903Y-15762808D02*
X021823851Y-15729977D01*
X021823851Y-15729977D02*
X021951394Y-15701861D01*
X021951394Y-15701861D02*
X022031916Y-15715853D01*
X022031916Y-15715853D02*
X022078452Y-15740790D01*
X022078452Y-15740790D02*
X022110151Y-15785082D01*
X022110151Y-15785082D02*
X022115995Y-15828099D01*
X021777788Y-15447471D02*
X022109995Y-15447471D01*
X022109995Y-15447471D02*
X022109995Y-15226396D01*
X021777788Y-14963034D02*
X022109995Y-14963034D01*
X022109995Y-14963034D02*
X022109995Y-14741960D01*
X021777788Y-14476325D02*
X022109995Y-14476325D01*
X021777788Y-14476325D02*
X021777788Y-14259796D01*
X021943891Y-14476325D02*
X021943891Y-14324755D01*
X022109995Y-14476325D02*
X022109995Y-14259796D01*
X022107615Y-14014020D02*
X021786392Y-14014020D01*
X021786392Y-14014020D02*
X021777788Y-13919835D01*
X021777788Y-13919835D02*
X021780665Y-13853729D01*
X021780665Y-13853729D02*
X021789504Y-13813850D01*
X021789504Y-13813850D02*
X021796711Y-13797082D01*
X021796711Y-13797082D02*
X021806091Y-13783281D01*
X021806091Y-13783281D02*
X021817880Y-13773085D01*
X021817880Y-13773085D02*
X021849850Y-13764095D01*
X021849850Y-13764095D02*
X021878201Y-13764939D01*
X021878201Y-13764939D02*
X021898730Y-13774140D01*
X021898730Y-13774140D02*
X021912794Y-13790655D01*
X021912794Y-13790655D02*
X021921752Y-13813437D01*
X021921752Y-13813437D02*
X021928582Y-13857082D01*
X021928582Y-13857082D02*
X021933917Y-14007777D01*
X021947480Y-13882631D02*
X022109995Y-13753229D01*
X022213694Y-13546691D02*
X022213694Y-13251685D01*
X022107615Y-13045148D02*
X021786392Y-13045148D01*
X021786392Y-13045148D02*
X021777788Y-12950962D01*
X021777788Y-12950962D02*
X021780665Y-12884856D01*
X021780665Y-12884856D02*
X021789504Y-12844977D01*
X021789504Y-12844977D02*
X021796711Y-12828209D01*
X021796711Y-12828209D02*
X021806091Y-12814408D01*
X021806091Y-12814408D02*
X021817880Y-12804213D01*
X021817880Y-12804213D02*
X021849850Y-12795223D01*
X021849850Y-12795223D02*
X021878201Y-12796066D01*
X021878201Y-12796066D02*
X021898730Y-12805268D01*
X021898730Y-12805268D02*
X021912794Y-12821782D01*
X021912794Y-12821782D02*
X021921752Y-12844565D01*
X021921752Y-12844565D02*
X021928582Y-12888209D01*
X021928582Y-12888209D02*
X021933917Y-13038904D01*
X021947480Y-12913758D02*
X022109995Y-12784356D01*
X021777788Y-12430315D02*
X022109995Y-12430315D01*
X021784622Y-11849345D02*
X021771328Y-11909817D01*
X021771328Y-11909817D02*
X021776638Y-11973714D01*
X021776638Y-11973714D02*
X021797879Y-12014699D01*
X021797879Y-12014699D02*
X021840077Y-12047049D01*
X021840077Y-12047049D02*
X021931180Y-12065747D01*
X021931180Y-12065747D02*
X022029911Y-12055773D01*
X022029911Y-12055773D02*
X022065517Y-12034158D01*
X022065517Y-12034158D02*
X022094200Y-12000798D01*
X022094200Y-12000798D02*
X022112260Y-11960588D01*
X022112260Y-11960588D02*
X022115995Y-11918418D01*
X022115995Y-11918418D02*
X022101703Y-11879178D01*
X022101703Y-11879178D02*
X022065684Y-11847763D01*
X022065684Y-11847763D02*
X021962819Y-11826010D01*
X021962819Y-11826010D02*
X021962584Y-11931880D01*
X021777788Y-11576167D02*
X022109995Y-11576167D01*
X021936872Y-11576167D02*
X021936872Y-11349241D01*
X021777788Y-11346718D02*
X022109995Y-11346718D01*
X021777788Y-11113264D02*
X021777788Y-10840748D01*
X021777788Y-10972960D02*
X022109995Y-10972960D01*
D30*
X-70900485Y-12347788D02*
X-70900008Y-12598275D01*
X-70900008Y-12598275D02*
X-70904587Y-12629622D01*
X-70904587Y-12629622D02*
X-70913277Y-12646587D01*
X-70913277Y-12646587D02*
X-70925463Y-12660077D01*
X-70925463Y-12660077D02*
X-70940050Y-12670410D01*
X-70940050Y-12670410D02*
X-70972071Y-12682858D01*
X-70972071Y-12682858D02*
X-71000608Y-12686448D01*
X-71000608Y-12686448D02*
X-71039286Y-12682283D01*
X-71039286Y-12682283D02*
X-71067800Y-12670853D01*
X-71067800Y-12670853D02*
X-71081671Y-12659780D01*
X-71081671Y-12659780D02*
X-71091787Y-12646353D01*
X-71091787Y-12646353D02*
X-71098454Y-12630921D01*
X-71098454Y-12630921D02*
X-71101976Y-12613834D01*
X-71101976Y-12613834D02*
X-71102659Y-12595442D01*
X-70664400Y-12783694D02*
X-70369395Y-12783694D01*
X-70179964Y-12347788D02*
X-70140862Y-12675785D01*
X-70140862Y-12675785D02*
X-70040217Y-12446713D01*
X-70040217Y-12446713D02*
X-69932389Y-12679995D01*
X-69932389Y-12679995D02*
X-69884958Y-12347788D01*
X-69656289Y-12347788D02*
X-69656289Y-12679995D01*
X-69656289Y-12347788D02*
X-69439760Y-12347788D01*
X-69656289Y-12513891D02*
X-69504719Y-12513891D01*
X-69656289Y-12679995D02*
X-69439760Y-12679995D01*
X-69202238Y-12679995D02*
X-69068903Y-12347788D01*
X-69068903Y-12347788D02*
X-68924938Y-12679995D01*
X-69134993Y-12550415D02*
X-68998652Y-12550415D01*
X-68692082Y-12679995D02*
X-68692082Y-12354057D01*
X-68692082Y-12354057D02*
X-68625205Y-12347788D01*
X-68625205Y-12347788D02*
X-68565379Y-12351707D01*
X-68565379Y-12351707D02*
X-68526477Y-12362252D01*
X-68526477Y-12362252D02*
X-68509084Y-12370775D01*
X-68509084Y-12370775D02*
X-68481342Y-12395775D01*
X-68481342Y-12395775D02*
X-68469015Y-12422627D01*
X-68469015Y-12422627D02*
X-68466222Y-12461882D01*
X-68466222Y-12461882D02*
X-68477277Y-12486560D01*
X-68477277Y-12486560D02*
X-68494530Y-12500201D01*
X-68494530Y-12500201D02*
X-68522042Y-12511139D01*
X-68522042Y-12511139D02*
X-68561831Y-12518982D01*
X-68561831Y-12518982D02*
X-68615908Y-12523341D01*
X-68615908Y-12523341D02*
X-68686294Y-12523826D01*
X-68101445Y-12685995D02*
X-68144987Y-12672448D01*
X-68144987Y-12672448D02*
X-68184790Y-12631231D01*
X-68184790Y-12631231D02*
X-68214225Y-12491333D01*
X-68214225Y-12491333D02*
X-68186188Y-12386625D01*
X-68186188Y-12386625D02*
X-68151789Y-12356802D01*
X-68151789Y-12356802D02*
X-68092229Y-12341328D01*
X-68092229Y-12341328D02*
X-68036154Y-12359903D01*
X-68036154Y-12359903D02*
X-68003322Y-12393851D01*
X-68003322Y-12393851D02*
X-67975206Y-12521394D01*
X-67975206Y-12521394D02*
X-67989199Y-12601916D01*
X-67989199Y-12601916D02*
X-68014135Y-12648452D01*
X-68014135Y-12648452D02*
X-68058427Y-12680151D01*
X-68058427Y-12680151D02*
X-68101445Y-12685995D01*
X-67724525Y-12679995D02*
X-67724525Y-12347788D01*
X-67724525Y-12347788D02*
X-67496033Y-12679995D01*
X-67496033Y-12679995D02*
X-67500517Y-12347788D01*
X-67273345Y-12783694D02*
X-66978340Y-12783694D01*
X-66751943Y-12347788D02*
X-66751943Y-12679995D01*
X-66751943Y-12679995D02*
X-66530869Y-12679995D01*
X-66265234Y-12347788D02*
X-66265234Y-12679995D01*
X-66265234Y-12347788D02*
X-66048705Y-12347788D01*
X-66265234Y-12513891D02*
X-66113664Y-12513891D01*
X-66265234Y-12679995D02*
X-66048705Y-12679995D01*
X-65777687Y-12347788D02*
X-65777687Y-12679995D01*
X-65775297Y-12350047D02*
X-65567379Y-12350047D01*
X-65775297Y-12512762D02*
X-65600838Y-12512762D01*
X-65324355Y-12347788D02*
X-65051839Y-12347788D01*
X-65184051Y-12347788D02*
X-65184051Y-12679995D01*
D30*
X-71142704Y002652212D02*
X-71142226Y002401725D01*
X-71142226Y002401725D02*
X-71146805Y002370378D01*
X-71146805Y002370378D02*
X-71155496Y002353413D01*
X-71155496Y002353413D02*
X-71167681Y002339923D01*
X-71167681Y002339923D02*
X-71182268Y002329590D01*
X-71182268Y002329590D02*
X-71214289Y002317142D01*
X-71214289Y002317142D02*
X-71242826Y002313552D01*
X-71242826Y002313552D02*
X-71281504Y002317717D01*
X-71281504Y002317717D02*
X-71310019Y002329147D01*
X-71310019Y002329147D02*
X-71323890Y002340220D01*
X-71323890Y002340220D02*
X-71334005Y002353647D01*
X-71334005Y002353647D02*
X-71340672Y002369079D01*
X-71340672Y002369079D02*
X-71344195Y002386166D01*
X-71344195Y002386166D02*
X-71344878Y002404558D01*
X-70906618Y002216306D02*
X-70611613Y002216306D01*
X-70422182Y002652212D02*
X-70383080Y002324215D01*
X-70383080Y002324215D02*
X-70282435Y002553287D01*
X-70282435Y002553287D02*
X-70174607Y002320005D01*
X-70174607Y002320005D02*
X-70127177Y002652212D01*
X-69898507Y002652212D02*
X-69898507Y002320005D01*
X-69898507Y002652212D02*
X-69681978Y002652212D01*
X-69898507Y002486109D02*
X-69746937Y002486109D01*
X-69898507Y002320005D02*
X-69681978Y002320005D01*
X-69444456Y002320005D02*
X-69311121Y002652212D01*
X-69311121Y002652212D02*
X-69167156Y002320005D01*
X-69377211Y002449585D02*
X-69240871Y002449585D01*
X-68934300Y002320005D02*
X-68934300Y002645943D01*
X-68934300Y002645943D02*
X-68867423Y002652212D01*
X-68867423Y002652212D02*
X-68807597Y002648293D01*
X-68807597Y002648293D02*
X-68768696Y002637748D01*
X-68768696Y002637748D02*
X-68751302Y002629225D01*
X-68751302Y002629225D02*
X-68723561Y002604225D01*
X-68723561Y002604225D02*
X-68711233Y002577373D01*
X-68711233Y002577373D02*
X-68708440Y002538118D01*
X-68708440Y002538118D02*
X-68719495Y002513440D01*
X-68719495Y002513440D02*
X-68736748Y002499799D01*
X-68736748Y002499799D02*
X-68764260Y002488861D01*
X-68764260Y002488861D02*
X-68804049Y002481018D01*
X-68804049Y002481018D02*
X-68858126Y002476659D01*
X-68858126Y002476659D02*
X-68928512Y002476174D01*
X-68343663Y002314005D02*
X-68387206Y002327552D01*
X-68387206Y002327552D02*
X-68427008Y002368769D01*
X-68427008Y002368769D02*
X-68456443Y002508667D01*
X-68456443Y002508667D02*
X-68428406Y002613375D01*
X-68428406Y002613375D02*
X-68394007Y002643198D01*
X-68394007Y002643198D02*
X-68334447Y002658672D01*
X-68334447Y002658672D02*
X-68278372Y002640097D01*
X-68278372Y002640097D02*
X-68245540Y002606149D01*
X-68245540Y002606149D02*
X-68217424Y002478606D01*
X-68217424Y002478606D02*
X-68231417Y002398084D01*
X-68231417Y002398084D02*
X-68256353Y002351548D01*
X-68256353Y002351548D02*
X-68300645Y002319849D01*
X-68300645Y002319849D02*
X-68343663Y002314005D01*
X-67966743Y002320005D02*
X-67966743Y002652212D01*
X-67966743Y002652212D02*
X-67738251Y002320005D01*
X-67738251Y002320005D02*
X-67742735Y002652212D01*
X-67515564Y002216306D02*
X-67220558Y002216306D01*
X-67014020Y002322385D02*
X-67014020Y002643608D01*
X-67014020Y002643608D02*
X-66919835Y002652212D01*
X-66919835Y002652212D02*
X-66853729Y002649335D01*
X-66853729Y002649335D02*
X-66813850Y002640496D01*
X-66813850Y002640496D02*
X-66797082Y002633289D01*
X-66797082Y002633289D02*
X-66783281Y002623909D01*
X-66783281Y002623909D02*
X-66773085Y002612120D01*
X-66773085Y002612120D02*
X-66764095Y002580150D01*
X-66764095Y002580150D02*
X-66764939Y002551799D01*
X-66764939Y002551799D02*
X-66774140Y002531270D01*
X-66774140Y002531270D02*
X-66790655Y002517206D01*
X-66790655Y002517206D02*
X-66813437Y002508248D01*
X-66813437Y002508248D02*
X-66857082Y002501418D01*
X-66857082Y002501418D02*
X-67007777Y002496083D01*
X-66882631Y002482520D02*
X-66753229Y002320005D01*
X-66399188Y002652212D02*
X-66399188Y002320005D01*
X-65818218Y002645378D02*
X-65878690Y002658672D01*
X-65878690Y002658672D02*
X-65942587Y002653362D01*
X-65942587Y002653362D02*
X-65983572Y002632121D01*
X-65983572Y002632121D02*
X-66015922Y002589923D01*
X-66015922Y002589923D02*
X-66034620Y002498820D01*
X-66034620Y002498820D02*
X-66024646Y002400089D01*
X-66024646Y002400089D02*
X-66003031Y002364483D01*
X-66003031Y002364483D02*
X-65969670Y002335800D01*
X-65969670Y002335800D02*
X-65929460Y002317740D01*
X-65929460Y002317740D02*
X-65887291Y002314005D01*
X-65887291Y002314005D02*
X-65848051Y002328297D01*
X-65848051Y002328297D02*
X-65816636Y002364316D01*
X-65816636Y002364316D02*
X-65794883Y002467181D01*
X-65794883Y002467181D02*
X-65900753Y002467416D01*
X-65545039Y002652212D02*
X-65545039Y002320005D01*
X-65545039Y002493128D02*
X-65318114Y002493128D01*
X-65315591Y002652212D02*
X-65315591Y002320005D01*
X-65082137Y002652212D02*
X-64809621Y002652212D01*
X-64941832Y002652212D02*
X-64941832Y002320005D01*
D30*
X-77947176Y017652212D02*
X-77946699Y017401725D01*
X-77946699Y017401725D02*
X-77951278Y017370378D01*
X-77951278Y017370378D02*
X-77959968Y017353413D01*
X-77959968Y017353413D02*
X-77972154Y017339923D01*
X-77972154Y017339923D02*
X-77986741Y017329590D01*
X-77986741Y017329590D02*
X-78018762Y017317142D01*
X-78018762Y017317142D02*
X-78047298Y017313552D01*
X-78047298Y017313552D02*
X-78085977Y017317717D01*
X-78085977Y017317717D02*
X-78114491Y017329147D01*
X-78114491Y017329147D02*
X-78128362Y017340220D01*
X-78128362Y017340220D02*
X-78138478Y017353647D01*
X-78138478Y017353647D02*
X-78145145Y017369079D01*
X-78145145Y017369079D02*
X-78148667Y017386166D01*
X-78148667Y017386166D02*
X-78149350Y017404558D01*
X-77711091Y017216306D02*
X-77416086Y017216306D01*
X-77192082Y017320005D02*
X-77192082Y017645943D01*
X-77192082Y017645943D02*
X-77125205Y017652212D01*
X-77125205Y017652212D02*
X-77065379Y017648293D01*
X-77065379Y017648293D02*
X-77026477Y017637748D01*
X-77026477Y017637748D02*
X-77009084Y017629225D01*
X-77009084Y017629225D02*
X-76981342Y017604225D01*
X-76981342Y017604225D02*
X-76969015Y017577373D01*
X-76969015Y017577373D02*
X-76966222Y017538118D01*
X-76966222Y017538118D02*
X-76977277Y017513440D01*
X-76977277Y017513440D02*
X-76994530Y017499799D01*
X-76994530Y017499799D02*
X-77022042Y017488861D01*
X-77022042Y017488861D02*
X-77061831Y017481018D01*
X-77061831Y017481018D02*
X-77115908Y017476659D01*
X-77115908Y017476659D02*
X-77186294Y017476174D01*
X-76594715Y017652212D02*
X-76594715Y017320005D01*
X-76021094Y017606477D02*
X-76058051Y017653936D01*
X-76058051Y017653936D02*
X-76145655Y017658672D01*
X-76145655Y017658672D02*
X-76194757Y017624493D01*
X-76194757Y017624493D02*
X-76214803Y017561786D01*
X-76214803Y017561786D02*
X-76206500Y017530824D01*
X-76206500Y017530824D02*
X-76175435Y017504080D01*
X-76175435Y017504080D02*
X-76052335Y017482514D01*
X-76052335Y017482514D02*
X-76010922Y017457022D01*
X-76010922Y017457022D02*
X-75995555Y017412931D01*
X-75995555Y017412931D02*
X-76015797Y017343973D01*
X-76015797Y017343973D02*
X-76077624Y017314005D01*
X-76077624Y017314005D02*
X-76157118Y017316236D01*
X-76157118Y017316236D02*
X-76200593Y017340551D01*
X-76200593Y017340551D02*
X-76225003Y017397736D01*
X-75762100Y017652212D02*
X-75489585Y017652212D01*
X-75621796Y017652212D02*
X-75621796Y017320005D01*
X-75249671Y017652212D02*
X-75249671Y017320005D01*
X-75249671Y017652212D02*
X-75033142Y017652212D01*
X-75249671Y017486109D02*
X-75098101Y017486109D01*
X-75249671Y017320005D02*
X-75033142Y017320005D01*
D31*
X-72160000Y022752500D02*
X-51840000Y022752500D01*
X-51840000Y046247500D01*
X-72160000Y046247500D01*
X-72160000Y022752500D01*
D32*
X-64015658Y044492363D02*
X-64014769Y044174945D01*
X-64014769Y044174945D02*
X-64008644Y044088597D01*
X-64008644Y044088597D02*
X-63992976Y044024637D01*
X-63992976Y044024637D02*
X-63962936Y043975988D01*
X-63962936Y043975988D02*
X-63923636Y043943821D01*
X-63923636Y043943821D02*
X-63864926Y043920589D01*
X-63864926Y043920589D02*
X-63790846Y043911803D01*
X-63790846Y043911803D02*
X-63738851Y043920599D01*
X-63738851Y043920599D02*
X-63696207Y043943768D01*
X-63696207Y043943768D02*
X-63670687Y043970912D01*
X-63670687Y043970912D02*
X-63659730Y043988756D01*
X-63659730Y043988756D02*
X-63642969Y044034249D01*
X-63642969Y044034249D02*
X-63635144Y044094514D01*
X-63635144Y044094514D02*
X-63630930Y044491506D01*
X-62839943Y044413960D02*
X-62903299Y044495319D01*
X-62903299Y044495319D02*
X-63053476Y044503437D01*
X-63053476Y044503437D02*
X-63137650Y044444845D01*
X-63137650Y044444845D02*
X-63172016Y044337347D01*
X-63172016Y044337347D02*
X-63157783Y044284269D01*
X-63157783Y044284269D02*
X-63104528Y044238422D01*
X-63104528Y044238422D02*
X-62893498Y044201453D01*
X-62893498Y044201453D02*
X-62822505Y044157753D01*
X-62822505Y044157753D02*
X-62796162Y044082168D01*
X-62796162Y044082168D02*
X-62830863Y043963954D01*
X-62830863Y043963954D02*
X-62936852Y043912580D01*
X-62936852Y043912580D02*
X-63073127Y043916405D01*
X-63073127Y043916405D02*
X-63147656Y043958088D01*
X-63147656Y043958088D02*
X-63189502Y044056119D01*
X-62361501Y043922865D02*
X-62361501Y044485679D01*
X-62361501Y044485679D02*
X-62239372Y044492363D01*
X-62239372Y044492363D02*
X-62127543Y044472709D01*
X-62127543Y044472709D02*
X-62052201Y044406747D01*
X-62052201Y044406747D02*
X-62063923Y044310307D01*
X-62063923Y044310307D02*
X-62152575Y044258701D01*
X-62152575Y044258701D02*
X-62344060Y044236554D01*
X-62344060Y044236554D02*
X-62157875Y044224875D01*
X-62157875Y044224875D02*
X-62021375Y044176137D01*
X-62021375Y044176137D02*
X-61963238Y044101207D01*
X-61963238Y044101207D02*
X-61968015Y044004303D01*
X-61968015Y044004303D02*
X-61994184Y043961494D01*
X-61994184Y043961494D02*
X-62059449Y043926706D01*
X-62059449Y043926706D02*
X-62361501Y043922865D01*
X-61438752Y044143731D02*
X-61225061Y044143731D01*
X-60309901Y044367329D02*
X-60335629Y044430035D01*
X-60335629Y044430035D02*
X-60382826Y044474434D01*
X-60382826Y044474434D02*
X-60472209Y044503437D01*
X-60472209Y044503437D02*
X-60538259Y044494580D01*
X-60538259Y044494580D02*
X-60596465Y044464852D01*
X-60596465Y044464852D02*
X-60653302Y044396237D01*
X-60653302Y044396237D02*
X-60692988Y044216131D01*
X-60692988Y044216131D02*
X-60661845Y044035077D01*
X-60661845Y044035077D02*
X-60615386Y043962166D01*
X-60615386Y043962166D02*
X-60567085Y043928047D01*
X-60567085Y043928047D02*
X-60472987Y043912580D01*
X-60472987Y043912580D02*
X-60390981Y043932350D01*
X-60390981Y043932350D02*
X-60330261Y043990041D01*
X-60330261Y043990041D02*
X-60309901Y044071465D01*
D34*
X-64733253Y027567964D02*
X-64723669Y027599355D01*
X-64723669Y027599355D02*
X-64695351Y027628632D01*
X-64695351Y027628632D02*
X-64648941Y027648485D01*
X-64648941Y027648485D02*
X-64619154Y027652578D01*
X-64619154Y027652578D02*
X-64567620Y027648807D01*
X-64567620Y027648807D02*
X-64528960Y027631856D01*
X-64528960Y027631856D02*
X-64507820Y027605861D01*
X-64507820Y027605861D02*
X-64500227Y027575655D01*
X-64500227Y027575655D02*
X-64500731Y027555562D01*
X-64500731Y027555562D02*
X-64509805Y027521929D01*
X-64509805Y027521929D02*
X-64549191Y027456538D01*
X-64549191Y027456538D02*
X-64648376Y027332144D01*
X-64648376Y027332144D02*
X-64752669Y027217732D01*
X-64752669Y027217732D02*
X-64473660Y027217732D01*
X-63990318Y027652578D02*
X-64049810Y027636467D01*
X-64049810Y027636467D02*
X-64103077Y027587377D01*
X-64103077Y027587377D02*
X-64132132Y027516102D01*
X-64132132Y027516102D02*
X-64139050Y027410401D01*
X-64139050Y027410401D02*
X-64122447Y027321779D01*
X-64122447Y027321779D02*
X-64079557Y027248338D01*
X-64079557Y027248338D02*
X-64017988Y027209435D01*
X-64017988Y027209435D02*
X-63962647Y027209435D01*
X-63962647Y027209435D02*
X-63901077Y027248338D01*
X-63901077Y027248338D02*
X-63858187Y027321779D01*
X-63858187Y027321779D02*
X-63841584Y027410401D01*
X-63841584Y027410401D02*
X-63848501Y027516102D01*
X-63848501Y027516102D02*
X-63877556Y027587377D01*
X-63877556Y027587377D02*
X-63930824Y027636467D01*
X-63930824Y027636467D02*
X-63990318Y027652578D01*
X-63539583Y027644273D02*
X-63355465Y027217149D01*
X-63355465Y027217149D02*
X-63195358Y027644273D01*
X-62256975Y027644273D02*
X-62256975Y027217149D01*
X-62253902Y027641368D02*
X-61986579Y027641368D01*
X-62253902Y027432163D02*
X-62029597Y027432163D01*
X-61498930Y027644273D02*
X-61498930Y027217149D01*
X-61060038Y027644273D02*
X-60696043Y027217149D01*
X-60692128Y027644273D02*
X-61056125Y027217149D01*
X-60392434Y027644273D02*
X-60392434Y027217149D01*
X-60392434Y027644273D02*
X-60114039Y027644273D01*
X-60392434Y027430712D02*
X-60197558Y027430712D01*
X-60392434Y027217149D02*
X-60114039Y027217149D01*
X-59779430Y027217149D02*
X-59774778Y027635401D01*
X-59774778Y027635401D02*
X-59712169Y027644273D01*
X-59712169Y027644273D02*
X-59664207Y027643241D01*
X-59664207Y027643241D02*
X-59586300Y027622171D01*
X-59586300Y027622171D02*
X-59528686Y027576668D01*
X-59528686Y027576668D02*
X-59495745Y027515400D01*
X-59495745Y027515400D02*
X-59482614Y027451873D01*
X-59482614Y027451873D02*
X-59481349Y027404043D01*
X-59481349Y027404043D02*
X-59487355Y027363050D01*
X-59487355Y027363050D02*
X-59499642Y027328376D01*
X-59499642Y027328376D02*
X-59539089Y027275912D01*
X-59539089Y027275912D02*
X-59591752Y027242513D01*
X-59591752Y027242513D02*
X-59678158Y027219107D01*
X-59678158Y027219107D02*
X-59779430Y027217149D01*
D31*
X-45430000Y021300000D02*
X-20030000Y021300000D01*
X-20030000Y046700000D01*
X-45430000Y046700000D01*
X-45430000Y021300000D01*
D35*
X-31253690Y034160303D02*
X-31253690Y033919709D01*
X-31253690Y033919709D02*
X-31118798Y033951350D01*
X-31118798Y033951350D02*
X-31022483Y033939449D01*
X-31022483Y033939449D02*
X-30984155Y033917968D01*
X-30984155Y033917968D02*
X-30957536Y033887488D01*
X-30957536Y033887488D02*
X-30937185Y033804419D01*
X-30937185Y033804419D02*
X-30946810Y033761266D01*
X-30946810Y033761266D02*
X-30972064Y033727302D01*
X-30972064Y033727302D02*
X-31021691Y033695759D01*
X-31021691Y033695759D02*
X-31079045Y033679164D01*
X-31079045Y033679164D02*
X-31132977Y033676503D01*
X-31132977Y033676503D02*
X-31178395Y033685163D01*
X-31178395Y033685163D02*
X-31215108Y033702144D01*
X-31215108Y033702144D02*
X-31253690Y033737075D01*
X-31253690Y034160303D02*
X-30937185Y034160303D01*
X-30594622Y034160303D02*
X-30390046Y033685721D01*
X-30390046Y033685721D02*
X-30212150Y034160303D01*
X-29205562Y033689122D02*
X-29205562Y034148011D01*
X-29205562Y034148011D02*
X-29071011Y034160303D01*
X-29071011Y034160303D02*
X-28976573Y034156193D01*
X-28976573Y034156193D02*
X-28919604Y034143565D01*
X-28919604Y034143565D02*
X-28895649Y034133270D01*
X-28895649Y034133270D02*
X-28875934Y034119870D01*
X-28875934Y034119870D02*
X-28861369Y034103028D01*
X-28861369Y034103028D02*
X-28848526Y034057357D01*
X-28848526Y034057357D02*
X-28849731Y034016855D01*
X-28849731Y034016855D02*
X-28862876Y033987528D01*
X-28862876Y033987528D02*
X-28886468Y033967437D01*
X-28886468Y033967437D02*
X-28919015Y033954641D01*
X-28919015Y033954641D02*
X-28981364Y033944883D01*
X-28981364Y033944883D02*
X-29196643Y033937261D01*
X-29017862Y033917886D02*
X-28833002Y033685721D01*
X-28481893Y034160303D02*
X-28481893Y033685721D01*
X-28481893Y034160303D02*
X-28172566Y034160303D01*
X-28481893Y033923013D02*
X-28265365Y033923013D01*
X-28481893Y033685721D02*
X-28172566Y033685721D01*
X-27497272Y034150540D02*
X-27583661Y034169531D01*
X-27583661Y034169531D02*
X-27674943Y034161946D01*
X-27674943Y034161946D02*
X-27733492Y034131602D01*
X-27733492Y034131602D02*
X-27779707Y034071319D01*
X-27779707Y034071319D02*
X-27806418Y033941172D01*
X-27806418Y033941172D02*
X-27792170Y033800128D01*
X-27792170Y033800128D02*
X-27761291Y033749262D01*
X-27761291Y033749262D02*
X-27713633Y033708286D01*
X-27713633Y033708286D02*
X-27656190Y033682486D01*
X-27656190Y033682486D02*
X-27595948Y033677150D01*
X-27595948Y033677150D02*
X-27539891Y033697567D01*
X-27539891Y033697567D02*
X-27495013Y033749023D01*
X-27495013Y033749023D02*
X-27463937Y033895972D01*
X-27463937Y033895972D02*
X-27615180Y033896308D01*
D36*
X-31500000Y-44500000D02*
X-08500000Y-44500000D01*
X-08500000Y-19500000D01*
X-31500000Y-19500000D01*
X-31500000Y-44500000D01*
D36*
X-10840000Y-39620000D02*
X-08840000Y-39620000D01*
X-08840000Y-24380000D01*
X-10840000Y-24380000D01*
X-10840000Y-39620000D01*
D36*
X-31160000Y-39620000D02*
X-29160000Y-39620000D01*
X-29160000Y-24380000D01*
X-31160000Y-24380000D01*
X-31160000Y-39620000D01*
D40*
X-48227064Y-17265000D02*
X-47772936Y-17265000D01*
D40*
X-48227064Y-18735000D02*
X-47772936Y-18735000D01*
D41*
X-50066381Y-16524351D02*
X-50066381Y-16340796D01*
X-50066381Y-16340796D02*
X-50012560Y-16335879D01*
X-50012560Y-16335879D02*
X-49974785Y-16337523D01*
X-49974785Y-16337523D02*
X-49951998Y-16342574D01*
X-49951998Y-16342574D02*
X-49942416Y-16346692D01*
X-49942416Y-16346692D02*
X-49934529Y-16352052D01*
X-49934529Y-16352052D02*
X-49928704Y-16358789D01*
X-49928704Y-16358789D02*
X-49923566Y-16377057D01*
X-49923566Y-16377057D02*
X-49924049Y-16393258D01*
X-49924049Y-16393258D02*
X-49929306Y-16404989D01*
X-49929306Y-16404989D02*
X-49938743Y-16413025D01*
X-49938743Y-16413025D02*
X-49951762Y-16418144D01*
X-49951762Y-16418144D02*
X-49976701Y-16422047D01*
X-49976701Y-16422047D02*
X-50062813Y-16425096D01*
X-49991301Y-16432846D02*
X-49917357Y-16525712D01*
X-49799335Y-16584968D02*
X-49630761Y-16584968D01*
X-49501391Y-16335879D02*
X-49501391Y-16525712D01*
X-49501391Y-16525712D02*
X-49375063Y-16525712D01*
X-49223272Y-16335879D02*
X-49223272Y-16525712D01*
X-49223272Y-16335879D02*
X-49099541Y-16335879D01*
X-49223272Y-16430795D02*
X-49136660Y-16430795D01*
X-49223272Y-16525712D02*
X-49099541Y-16525712D01*
X-48944674Y-16335879D02*
X-48944674Y-16525712D01*
X-48943308Y-16337170D02*
X-48824498Y-16337170D01*
X-48943308Y-16430150D02*
X-48843616Y-16430150D01*
X-48685626Y-16335879D02*
X-48529903Y-16335879D01*
X-48605452Y-16335879D02*
X-48605452Y-16525712D01*
X-48415231Y-16584968D02*
X-48246657Y-16584968D01*
X-48133352Y-16525712D02*
X-48057160Y-16335879D01*
X-48057160Y-16335879D02*
X-47974894Y-16525712D01*
X-48094926Y-16451666D02*
X-48017017Y-16451666D01*
X-47861590Y-16584968D02*
X-47693015Y-16584968D01*
X-47449518Y-16362013D02*
X-47470637Y-16334894D01*
X-47470637Y-16334894D02*
X-47520696Y-16332188D01*
X-47520696Y-16332188D02*
X-47548754Y-16351718D01*
X-47548754Y-16351718D02*
X-47560209Y-16387551D01*
X-47560209Y-16387551D02*
X-47555465Y-16405244D01*
X-47555465Y-16405244D02*
X-47537714Y-16420526D01*
X-47537714Y-16420526D02*
X-47467370Y-16432849D01*
X-47467370Y-16432849D02*
X-47443706Y-16447416D01*
X-47443706Y-16447416D02*
X-47434925Y-16472611D01*
X-47434925Y-16472611D02*
X-47446492Y-16512015D01*
X-47446492Y-16512015D02*
X-47481822Y-16529140D01*
X-47481822Y-16529140D02*
X-47527247Y-16527865D01*
X-47527247Y-16527865D02*
X-47552090Y-16513971D01*
X-47552090Y-16513971D02*
X-47566038Y-16481294D01*
X-47285526Y-16335879D02*
X-47285526Y-16525712D01*
X-47285526Y-16335879D02*
X-47161795Y-16335879D01*
X-47285526Y-16430795D02*
X-47198915Y-16430795D01*
X-47285526Y-16525712D02*
X-47161795Y-16525712D01*
X-47021352Y-16524351D02*
X-47021352Y-16340796D01*
X-47021352Y-16340796D02*
X-46967532Y-16335879D01*
X-46967532Y-16335879D02*
X-46929757Y-16337523D01*
X-46929757Y-16337523D02*
X-46906969Y-16342574D01*
X-46906969Y-16342574D02*
X-46897387Y-16346692D01*
X-46897387Y-16346692D02*
X-46889501Y-16352052D01*
X-46889501Y-16352052D02*
X-46883675Y-16358789D01*
X-46883675Y-16358789D02*
X-46878538Y-16377057D01*
X-46878538Y-16377057D02*
X-46879020Y-16393258D01*
X-46879020Y-16393258D02*
X-46884278Y-16404989D01*
X-46884278Y-16404989D02*
X-46893714Y-16413025D01*
X-46893714Y-16413025D02*
X-46906733Y-16418144D01*
X-46906733Y-16418144D02*
X-46931673Y-16422047D01*
X-46931673Y-16422047D02*
X-47017784Y-16425096D01*
X-46946272Y-16432846D02*
X-46872328Y-16525712D01*
X-46670019Y-16335879D02*
X-46670019Y-16525712D01*
X-46455064Y-16335879D02*
X-46455064Y-16525712D01*
X-46455064Y-16335879D02*
X-46331333Y-16335879D01*
X-46455064Y-16430795D02*
X-46368452Y-16430795D01*
X-46455064Y-16525712D02*
X-46331333Y-16525712D01*
X-46065414Y-16362013D02*
X-46086533Y-16334894D01*
X-46086533Y-16334894D02*
X-46136592Y-16332188D01*
X-46136592Y-16332188D02*
X-46164650Y-16351718D01*
X-46164650Y-16351718D02*
X-46176105Y-16387551D01*
X-46176105Y-16387551D02*
X-46171361Y-16405244D01*
X-46171361Y-16405244D02*
X-46153610Y-16420526D01*
X-46153610Y-16420526D02*
X-46083266Y-16432849D01*
X-46083266Y-16432849D02*
X-46059602Y-16447416D01*
X-46059602Y-16447416D02*
X-46050821Y-16472611D01*
X-46050821Y-16472611D02*
X-46062388Y-16512015D01*
X-46062388Y-16512015D02*
X-46097718Y-16529140D01*
X-46097718Y-16529140D02*
X-46143143Y-16527865D01*
X-46143143Y-16527865D02*
X-46167986Y-16513971D01*
X-46167986Y-16513971D02*
X-46181934Y-16481294D01*
D40*
X-48227064Y-11265000D02*
X-47772936Y-11265000D01*
D40*
X-48227064Y-12735000D02*
X-47772936Y-12735000D01*
D41*
X-50066381Y-10524351D02*
X-50066381Y-10340796D01*
X-50066381Y-10340796D02*
X-50012560Y-10335879D01*
X-50012560Y-10335879D02*
X-49974785Y-10337523D01*
X-49974785Y-10337523D02*
X-49951998Y-10342574D01*
X-49951998Y-10342574D02*
X-49942416Y-10346692D01*
X-49942416Y-10346692D02*
X-49934529Y-10352052D01*
X-49934529Y-10352052D02*
X-49928704Y-10358789D01*
X-49928704Y-10358789D02*
X-49923566Y-10377057D01*
X-49923566Y-10377057D02*
X-49924049Y-10393258D01*
X-49924049Y-10393258D02*
X-49929306Y-10404989D01*
X-49929306Y-10404989D02*
X-49938743Y-10413025D01*
X-49938743Y-10413025D02*
X-49951762Y-10418144D01*
X-49951762Y-10418144D02*
X-49976701Y-10422047D01*
X-49976701Y-10422047D02*
X-50062813Y-10425096D01*
X-49991301Y-10432846D02*
X-49917357Y-10525712D01*
X-49799335Y-10584968D02*
X-49630761Y-10584968D01*
X-49501391Y-10335879D02*
X-49501391Y-10525712D01*
X-49501391Y-10525712D02*
X-49375063Y-10525712D01*
X-49223272Y-10335879D02*
X-49223272Y-10525712D01*
X-49223272Y-10335879D02*
X-49099541Y-10335879D01*
X-49223272Y-10430795D02*
X-49136660Y-10430795D01*
X-49223272Y-10525712D02*
X-49099541Y-10525712D01*
X-48944674Y-10335879D02*
X-48944674Y-10525712D01*
X-48943308Y-10337170D02*
X-48824498Y-10337170D01*
X-48943308Y-10430150D02*
X-48843616Y-10430150D01*
X-48685626Y-10335879D02*
X-48529903Y-10335879D01*
X-48605452Y-10335879D02*
X-48605452Y-10525712D01*
X-48415231Y-10584968D02*
X-48246657Y-10584968D01*
X-48120500Y-10525712D02*
X-48120500Y-10338107D01*
X-48120500Y-10338107D02*
X-48079791Y-10335879D01*
X-48079791Y-10335879D02*
X-48042514Y-10342430D01*
X-48042514Y-10342430D02*
X-48017400Y-10364418D01*
X-48017400Y-10364418D02*
X-48021308Y-10396564D01*
X-48021308Y-10396564D02*
X-48050858Y-10413766D01*
X-48050858Y-10413766D02*
X-48114687Y-10421149D01*
X-48114687Y-10421149D02*
X-48052625Y-10425042D01*
X-48052625Y-10425042D02*
X-48007125Y-10441288D01*
X-48007125Y-10441288D02*
X-47987746Y-10466264D01*
X-47987746Y-10466264D02*
X-47989338Y-10498566D01*
X-47989338Y-10498566D02*
X-47998061Y-10512835D01*
X-47998061Y-10512835D02*
X-48019816Y-10524431D01*
X-48019816Y-10524431D02*
X-48120500Y-10525712D01*
X-47861590Y-10584968D02*
X-47693015Y-10584968D01*
X-47449518Y-10362013D02*
X-47470637Y-10334894D01*
X-47470637Y-10334894D02*
X-47520696Y-10332188D01*
X-47520696Y-10332188D02*
X-47548754Y-10351718D01*
X-47548754Y-10351718D02*
X-47560209Y-10387551D01*
X-47560209Y-10387551D02*
X-47555465Y-10405244D01*
X-47555465Y-10405244D02*
X-47537714Y-10420526D01*
X-47537714Y-10420526D02*
X-47467370Y-10432849D01*
X-47467370Y-10432849D02*
X-47443706Y-10447416D01*
X-47443706Y-10447416D02*
X-47434925Y-10472611D01*
X-47434925Y-10472611D02*
X-47446492Y-10512015D01*
X-47446492Y-10512015D02*
X-47481822Y-10529140D01*
X-47481822Y-10529140D02*
X-47527247Y-10527865D01*
X-47527247Y-10527865D02*
X-47552090Y-10513971D01*
X-47552090Y-10513971D02*
X-47566038Y-10481294D01*
X-47285526Y-10335879D02*
X-47285526Y-10525712D01*
X-47285526Y-10335879D02*
X-47161795Y-10335879D01*
X-47285526Y-10430795D02*
X-47198915Y-10430795D01*
X-47285526Y-10525712D02*
X-47161795Y-10525712D01*
X-47021352Y-10524351D02*
X-47021352Y-10340796D01*
X-47021352Y-10340796D02*
X-46967532Y-10335879D01*
X-46967532Y-10335879D02*
X-46929757Y-10337523D01*
X-46929757Y-10337523D02*
X-46906969Y-10342574D01*
X-46906969Y-10342574D02*
X-46897387Y-10346692D01*
X-46897387Y-10346692D02*
X-46889501Y-10352052D01*
X-46889501Y-10352052D02*
X-46883675Y-10358789D01*
X-46883675Y-10358789D02*
X-46878538Y-10377057D01*
X-46878538Y-10377057D02*
X-46879020Y-10393258D01*
X-46879020Y-10393258D02*
X-46884278Y-10404989D01*
X-46884278Y-10404989D02*
X-46893714Y-10413025D01*
X-46893714Y-10413025D02*
X-46906733Y-10418144D01*
X-46906733Y-10418144D02*
X-46931673Y-10422047D01*
X-46931673Y-10422047D02*
X-47017784Y-10425096D01*
X-46946272Y-10432846D02*
X-46872328Y-10525712D01*
X-46670019Y-10335879D02*
X-46670019Y-10525712D01*
X-46455064Y-10335879D02*
X-46455064Y-10525712D01*
X-46455064Y-10335879D02*
X-46331333Y-10335879D01*
X-46455064Y-10430795D02*
X-46368452Y-10430795D01*
X-46455064Y-10525712D02*
X-46331333Y-10525712D01*
X-46065414Y-10362013D02*
X-46086533Y-10334894D01*
X-46086533Y-10334894D02*
X-46136592Y-10332188D01*
X-46136592Y-10332188D02*
X-46164650Y-10351718D01*
X-46164650Y-10351718D02*
X-46176105Y-10387551D01*
X-46176105Y-10387551D02*
X-46171361Y-10405244D01*
X-46171361Y-10405244D02*
X-46153610Y-10420526D01*
X-46153610Y-10420526D02*
X-46083266Y-10432849D01*
X-46083266Y-10432849D02*
X-46059602Y-10447416D01*
X-46059602Y-10447416D02*
X-46050821Y-10472611D01*
X-46050821Y-10472611D02*
X-46062388Y-10512015D01*
X-46062388Y-10512015D02*
X-46097718Y-10529140D01*
X-46097718Y-10529140D02*
X-46143143Y-10527865D01*
X-46143143Y-10527865D02*
X-46167986Y-10513971D01*
X-46167986Y-10513971D02*
X-46181934Y-10481294D01*
D40*
X-48227064Y-05265000D02*
X-47772936Y-05265000D01*
D40*
X-48227064Y-06735000D02*
X-47772936Y-06735000D01*
D41*
X-50066381Y-04524351D02*
X-50066381Y-04340796D01*
X-50066381Y-04340796D02*
X-50012560Y-04335879D01*
X-50012560Y-04335879D02*
X-49974785Y-04337523D01*
X-49974785Y-04337523D02*
X-49951998Y-04342574D01*
X-49951998Y-04342574D02*
X-49942416Y-04346692D01*
X-49942416Y-04346692D02*
X-49934529Y-04352052D01*
X-49934529Y-04352052D02*
X-49928704Y-04358789D01*
X-49928704Y-04358789D02*
X-49923566Y-04377057D01*
X-49923566Y-04377057D02*
X-49924049Y-04393258D01*
X-49924049Y-04393258D02*
X-49929306Y-04404989D01*
X-49929306Y-04404989D02*
X-49938743Y-04413025D01*
X-49938743Y-04413025D02*
X-49951762Y-04418144D01*
X-49951762Y-04418144D02*
X-49976701Y-04422047D01*
X-49976701Y-04422047D02*
X-50062813Y-04425096D01*
X-49991301Y-04432846D02*
X-49917357Y-04525712D01*
X-49799335Y-04584968D02*
X-49630761Y-04584968D01*
X-49501391Y-04335879D02*
X-49501391Y-04525712D01*
X-49501391Y-04525712D02*
X-49375063Y-04525712D01*
X-49223272Y-04335879D02*
X-49223272Y-04525712D01*
X-49223272Y-04335879D02*
X-49099541Y-04335879D01*
X-49223272Y-04430795D02*
X-49136660Y-04430795D01*
X-49223272Y-04525712D02*
X-49099541Y-04525712D01*
X-48944674Y-04335879D02*
X-48944674Y-04525712D01*
X-48943308Y-04337170D02*
X-48824498Y-04337170D01*
X-48943308Y-04430150D02*
X-48843616Y-04430150D01*
X-48685626Y-04335879D02*
X-48529903Y-04335879D01*
X-48605452Y-04335879D02*
X-48605452Y-04525712D01*
X-48415231Y-04584968D02*
X-48246657Y-04584968D01*
X-47990275Y-04377557D02*
X-47998851Y-04356655D01*
X-47998851Y-04356655D02*
X-48014584Y-04341855D01*
X-48014584Y-04341855D02*
X-48044378Y-04332188D01*
X-48044378Y-04332188D02*
X-48066395Y-04335140D01*
X-48066395Y-04335140D02*
X-48085797Y-04345049D01*
X-48085797Y-04345049D02*
X-48104742Y-04367921D01*
X-48104742Y-04367921D02*
X-48117971Y-04427956D01*
X-48117971Y-04427956D02*
X-48107590Y-04488308D01*
X-48107590Y-04488308D02*
X-48092104Y-04512611D01*
X-48092104Y-04512611D02*
X-48076003Y-04523984D01*
X-48076003Y-04523984D02*
X-48044637Y-04529140D01*
X-48044637Y-04529140D02*
X-48017302Y-04522550D01*
X-48017302Y-04522550D02*
X-47997062Y-04503320D01*
X-47997062Y-04503320D02*
X-47990275Y-04476178D01*
X-47861590Y-04584968D02*
X-47693015Y-04584968D01*
X-47449518Y-04362013D02*
X-47470637Y-04334894D01*
X-47470637Y-04334894D02*
X-47520696Y-04332188D01*
X-47520696Y-04332188D02*
X-47548754Y-04351718D01*
X-47548754Y-04351718D02*
X-47560209Y-04387551D01*
X-47560209Y-04387551D02*
X-47555465Y-04405244D01*
X-47555465Y-04405244D02*
X-47537714Y-04420526D01*
X-47537714Y-04420526D02*
X-47467370Y-04432849D01*
X-47467370Y-04432849D02*
X-47443706Y-04447416D01*
X-47443706Y-04447416D02*
X-47434925Y-04472611D01*
X-47434925Y-04472611D02*
X-47446492Y-04512015D01*
X-47446492Y-04512015D02*
X-47481822Y-04529140D01*
X-47481822Y-04529140D02*
X-47527247Y-04527865D01*
X-47527247Y-04527865D02*
X-47552090Y-04513971D01*
X-47552090Y-04513971D02*
X-47566038Y-04481294D01*
X-47285526Y-04335879D02*
X-47285526Y-04525712D01*
X-47285526Y-04335879D02*
X-47161795Y-04335879D01*
X-47285526Y-04430795D02*
X-47198915Y-04430795D01*
X-47285526Y-04525712D02*
X-47161795Y-04525712D01*
X-47021352Y-04524351D02*
X-47021352Y-04340796D01*
X-47021352Y-04340796D02*
X-46967532Y-04335879D01*
X-46967532Y-04335879D02*
X-46929757Y-04337523D01*
X-46929757Y-04337523D02*
X-46906969Y-04342574D01*
X-46906969Y-04342574D02*
X-46897387Y-04346692D01*
X-46897387Y-04346692D02*
X-46889501Y-04352052D01*
X-46889501Y-04352052D02*
X-46883675Y-04358789D01*
X-46883675Y-04358789D02*
X-46878538Y-04377057D01*
X-46878538Y-04377057D02*
X-46879020Y-04393258D01*
X-46879020Y-04393258D02*
X-46884278Y-04404989D01*
X-46884278Y-04404989D02*
X-46893714Y-04413025D01*
X-46893714Y-04413025D02*
X-46906733Y-04418144D01*
X-46906733Y-04418144D02*
X-46931673Y-04422047D01*
X-46931673Y-04422047D02*
X-47017784Y-04425096D01*
X-46946272Y-04432846D02*
X-46872328Y-04525712D01*
X-46670019Y-04335879D02*
X-46670019Y-04525712D01*
X-46455064Y-04335879D02*
X-46455064Y-04525712D01*
X-46455064Y-04335879D02*
X-46331333Y-04335879D01*
X-46455064Y-04430795D02*
X-46368452Y-04430795D01*
X-46455064Y-04525712D02*
X-46331333Y-04525712D01*
X-46065414Y-04362013D02*
X-46086533Y-04334894D01*
X-46086533Y-04334894D02*
X-46136592Y-04332188D01*
X-46136592Y-04332188D02*
X-46164650Y-04351718D01*
X-46164650Y-04351718D02*
X-46176105Y-04387551D01*
X-46176105Y-04387551D02*
X-46171361Y-04405244D01*
X-46171361Y-04405244D02*
X-46153610Y-04420526D01*
X-46153610Y-04420526D02*
X-46083266Y-04432849D01*
X-46083266Y-04432849D02*
X-46059602Y-04447416D01*
X-46059602Y-04447416D02*
X-46050821Y-04472611D01*
X-46050821Y-04472611D02*
X-46062388Y-04512015D01*
X-46062388Y-04512015D02*
X-46097718Y-04529140D01*
X-46097718Y-04529140D02*
X-46143143Y-04527865D01*
X-46143143Y-04527865D02*
X-46167986Y-04513971D01*
X-46167986Y-04513971D02*
X-46181934Y-04481294D01*
D40*
X-48227064Y000735000D02*
X-47772936Y000735000D01*
D40*
X-48227064Y-00735000D02*
X-47772936Y-00735000D01*
D41*
X-50204791Y001475649D02*
X-50204791Y001659204D01*
X-50204791Y001659204D02*
X-50150971Y001664121D01*
X-50150971Y001664121D02*
X-50113196Y001662477D01*
X-50113196Y001662477D02*
X-50090408Y001657426D01*
X-50090408Y001657426D02*
X-50080826Y001653308D01*
X-50080826Y001653308D02*
X-50072940Y001647948D01*
X-50072940Y001647948D02*
X-50067114Y001641211D01*
X-50067114Y001641211D02*
X-50061977Y001622943D01*
X-50061977Y001622943D02*
X-50062459Y001606742D01*
X-50062459Y001606742D02*
X-50067717Y001595011D01*
X-50067717Y001595011D02*
X-50077154Y001586975D01*
X-50077154Y001586975D02*
X-50090172Y001581856D01*
X-50090172Y001581856D02*
X-50115112Y001577953D01*
X-50115112Y001577953D02*
X-50201224Y001574904D01*
X-50129711Y001567154D02*
X-50055767Y001474288D01*
X-49937746Y001415032D02*
X-49769171Y001415032D01*
X-49651149Y001475649D02*
X-49651149Y001659204D01*
X-49651149Y001659204D02*
X-49597329Y001664121D01*
X-49597329Y001664121D02*
X-49559554Y001662477D01*
X-49559554Y001662477D02*
X-49536766Y001657426D01*
X-49536766Y001657426D02*
X-49527184Y001653308D01*
X-49527184Y001653308D02*
X-49519298Y001647948D01*
X-49519298Y001647948D02*
X-49513472Y001641211D01*
X-49513472Y001641211D02*
X-49508335Y001622943D01*
X-49508335Y001622943D02*
X-49508817Y001606742D01*
X-49508817Y001606742D02*
X-49514075Y001595011D01*
X-49514075Y001595011D02*
X-49523512Y001586975D01*
X-49523512Y001586975D02*
X-49536531Y001581856D01*
X-49536531Y001581856D02*
X-49561470Y001577953D01*
X-49561470Y001577953D02*
X-49647582Y001574904D01*
X-49576070Y001567154D02*
X-49502126Y001474288D01*
X-49299817Y001664121D02*
X-49299817Y001474288D01*
X-48967834Y001660216D02*
X-49002389Y001667812D01*
X-49002389Y001667812D02*
X-49038902Y001664779D01*
X-49038902Y001664779D02*
X-49062322Y001652641D01*
X-49062322Y001652641D02*
X-49080808Y001628528D01*
X-49080808Y001628528D02*
X-49091492Y001576469D01*
X-49091492Y001576469D02*
X-49085793Y001520051D01*
X-49085793Y001520051D02*
X-49073441Y001499705D01*
X-49073441Y001499705D02*
X-49054378Y001483314D01*
X-49054378Y001483314D02*
X-49031401Y001472995D01*
X-49031401Y001472995D02*
X-49007304Y001470860D01*
X-49007304Y001470860D02*
X-48984881Y001479027D01*
X-48984881Y001479027D02*
X-48966930Y001499609D01*
X-48966930Y001499609D02*
X-48954500Y001558389D01*
X-48954500Y001558389D02*
X-49014997Y001558523D01*
X-48811732Y001664121D02*
X-48811732Y001474288D01*
X-48811732Y001573216D02*
X-48682060Y001573216D01*
X-48680618Y001664121D02*
X-48680618Y001474288D01*
X-48547216Y001664121D02*
X-48391493Y001664121D01*
X-48467042Y001664121D02*
X-48467042Y001474288D01*
X-48276821Y001415032D02*
X-48108246Y001415032D01*
X-47994941Y001474288D02*
X-47918750Y001664121D01*
X-47918750Y001664121D02*
X-47836484Y001474288D01*
X-47956515Y001548334D02*
X-47878607Y001548334D01*
X-47723179Y001415032D02*
X-47554605Y001415032D01*
X-47311108Y001637987D02*
X-47332227Y001665106D01*
X-47332227Y001665106D02*
X-47382286Y001667812D01*
X-47382286Y001667812D02*
X-47410344Y001648282D01*
X-47410344Y001648282D02*
X-47421799Y001612449D01*
X-47421799Y001612449D02*
X-47417055Y001594756D01*
X-47417055Y001594756D02*
X-47399303Y001579474D01*
X-47399303Y001579474D02*
X-47328960Y001567151D01*
X-47328960Y001567151D02*
X-47305296Y001552584D01*
X-47305296Y001552584D02*
X-47296514Y001527389D01*
X-47296514Y001527389D02*
X-47308082Y001487985D01*
X-47308082Y001487985D02*
X-47343411Y001470860D01*
X-47343411Y001470860D02*
X-47388836Y001472135D01*
X-47388836Y001472135D02*
X-47413679Y001486029D01*
X-47413679Y001486029D02*
X-47427628Y001518706D01*
X-47147116Y001664121D02*
X-47147116Y001474288D01*
X-47147116Y001664121D02*
X-47023385Y001664121D01*
X-47147116Y001569205D02*
X-47060504Y001569205D01*
X-47147116Y001474288D02*
X-47023385Y001474288D01*
X-46882941Y001475649D02*
X-46882941Y001659204D01*
X-46882941Y001659204D02*
X-46829121Y001664121D01*
X-46829121Y001664121D02*
X-46791346Y001662477D01*
X-46791346Y001662477D02*
X-46768558Y001657426D01*
X-46768558Y001657426D02*
X-46758976Y001653308D01*
X-46758976Y001653308D02*
X-46751090Y001647948D01*
X-46751090Y001647948D02*
X-46745264Y001641211D01*
X-46745264Y001641211D02*
X-46740127Y001622943D01*
X-46740127Y001622943D02*
X-46740609Y001606742D01*
X-46740609Y001606742D02*
X-46745867Y001595011D01*
X-46745867Y001595011D02*
X-46755304Y001586975D01*
X-46755304Y001586975D02*
X-46768323Y001581856D01*
X-46768323Y001581856D02*
X-46793262Y001577953D01*
X-46793262Y001577953D02*
X-46879374Y001574904D01*
X-46807862Y001567154D02*
X-46733918Y001474288D01*
X-46531609Y001664121D02*
X-46531609Y001474288D01*
X-46316653Y001664121D02*
X-46316653Y001474288D01*
X-46316653Y001664121D02*
X-46192922Y001664121D01*
X-46316653Y001569205D02*
X-46230042Y001569205D01*
X-46316653Y001474288D02*
X-46192922Y001474288D01*
X-45927004Y001637987D02*
X-45948123Y001665106D01*
X-45948123Y001665106D02*
X-45998182Y001667812D01*
X-45998182Y001667812D02*
X-46026240Y001648282D01*
X-46026240Y001648282D02*
X-46037695Y001612449D01*
X-46037695Y001612449D02*
X-46032951Y001594756D01*
X-46032951Y001594756D02*
X-46015199Y001579474D01*
X-46015199Y001579474D02*
X-45944856Y001567151D01*
X-45944856Y001567151D02*
X-45921192Y001552584D01*
X-45921192Y001552584D02*
X-45912410Y001527389D01*
X-45912410Y001527389D02*
X-45923978Y001487985D01*
X-45923978Y001487985D02*
X-45959307Y001470860D01*
X-45959307Y001470860D02*
X-46004732Y001472135D01*
X-46004732Y001472135D02*
X-46029575Y001486029D01*
X-46029575Y001486029D02*
X-46043524Y001518706D01*
D40*
X-48227064Y006735000D02*
X-47772936Y006735000D01*
D40*
X-48227064Y005265000D02*
X-47772936Y005265000D01*
D41*
X-50204791Y007475649D02*
X-50204791Y007659204D01*
X-50204791Y007659204D02*
X-50150971Y007664121D01*
X-50150971Y007664121D02*
X-50113196Y007662477D01*
X-50113196Y007662477D02*
X-50090408Y007657426D01*
X-50090408Y007657426D02*
X-50080826Y007653308D01*
X-50080826Y007653308D02*
X-50072940Y007647948D01*
X-50072940Y007647948D02*
X-50067114Y007641211D01*
X-50067114Y007641211D02*
X-50061977Y007622943D01*
X-50061977Y007622943D02*
X-50062459Y007606742D01*
X-50062459Y007606742D02*
X-50067717Y007595011D01*
X-50067717Y007595011D02*
X-50077154Y007586975D01*
X-50077154Y007586975D02*
X-50090172Y007581856D01*
X-50090172Y007581856D02*
X-50115112Y007577953D01*
X-50115112Y007577953D02*
X-50201224Y007574904D01*
X-50129711Y007567154D02*
X-50055767Y007474288D01*
X-49937746Y007415032D02*
X-49769171Y007415032D01*
X-49651149Y007475649D02*
X-49651149Y007659204D01*
X-49651149Y007659204D02*
X-49597329Y007664121D01*
X-49597329Y007664121D02*
X-49559554Y007662477D01*
X-49559554Y007662477D02*
X-49536766Y007657426D01*
X-49536766Y007657426D02*
X-49527184Y007653308D01*
X-49527184Y007653308D02*
X-49519298Y007647948D01*
X-49519298Y007647948D02*
X-49513472Y007641211D01*
X-49513472Y007641211D02*
X-49508335Y007622943D01*
X-49508335Y007622943D02*
X-49508817Y007606742D01*
X-49508817Y007606742D02*
X-49514075Y007595011D01*
X-49514075Y007595011D02*
X-49523512Y007586975D01*
X-49523512Y007586975D02*
X-49536531Y007581856D01*
X-49536531Y007581856D02*
X-49561470Y007577953D01*
X-49561470Y007577953D02*
X-49647582Y007574904D01*
X-49576070Y007567154D02*
X-49502126Y007474288D01*
X-49299817Y007664121D02*
X-49299817Y007474288D01*
X-48967834Y007660216D02*
X-49002389Y007667812D01*
X-49002389Y007667812D02*
X-49038902Y007664779D01*
X-49038902Y007664779D02*
X-49062322Y007652641D01*
X-49062322Y007652641D02*
X-49080808Y007628528D01*
X-49080808Y007628528D02*
X-49091492Y007576469D01*
X-49091492Y007576469D02*
X-49085793Y007520051D01*
X-49085793Y007520051D02*
X-49073441Y007499705D01*
X-49073441Y007499705D02*
X-49054378Y007483314D01*
X-49054378Y007483314D02*
X-49031401Y007472995D01*
X-49031401Y007472995D02*
X-49007304Y007470860D01*
X-49007304Y007470860D02*
X-48984881Y007479027D01*
X-48984881Y007479027D02*
X-48966930Y007499609D01*
X-48966930Y007499609D02*
X-48954500Y007558389D01*
X-48954500Y007558389D02*
X-49014997Y007558523D01*
X-48811732Y007664121D02*
X-48811732Y007474288D01*
X-48811732Y007573216D02*
X-48682060Y007573216D01*
X-48680618Y007664121D02*
X-48680618Y007474288D01*
X-48547216Y007664121D02*
X-48391493Y007664121D01*
X-48467042Y007664121D02*
X-48467042Y007474288D01*
X-48276821Y007415032D02*
X-48108246Y007415032D01*
X-47982090Y007474288D02*
X-47982090Y007661893D01*
X-47982090Y007661893D02*
X-47941380Y007664121D01*
X-47941380Y007664121D02*
X-47904104Y007657570D01*
X-47904104Y007657570D02*
X-47878990Y007635582D01*
X-47878990Y007635582D02*
X-47882897Y007603436D01*
X-47882897Y007603436D02*
X-47912448Y007586234D01*
X-47912448Y007586234D02*
X-47976276Y007578851D01*
X-47976276Y007578851D02*
X-47914214Y007574958D01*
X-47914214Y007574958D02*
X-47868714Y007558712D01*
X-47868714Y007558712D02*
X-47849336Y007533736D01*
X-47849336Y007533736D02*
X-47850928Y007501434D01*
X-47850928Y007501434D02*
X-47859651Y007487165D01*
X-47859651Y007487165D02*
X-47881406Y007475569D01*
X-47881406Y007475569D02*
X-47982090Y007474288D01*
X-47723179Y007415032D02*
X-47554605Y007415032D01*
X-47311108Y007637987D02*
X-47332227Y007665106D01*
X-47332227Y007665106D02*
X-47382286Y007667812D01*
X-47382286Y007667812D02*
X-47410344Y007648282D01*
X-47410344Y007648282D02*
X-47421799Y007612449D01*
X-47421799Y007612449D02*
X-47417055Y007594756D01*
X-47417055Y007594756D02*
X-47399303Y007579474D01*
X-47399303Y007579474D02*
X-47328960Y007567151D01*
X-47328960Y007567151D02*
X-47305296Y007552584D01*
X-47305296Y007552584D02*
X-47296514Y007527389D01*
X-47296514Y007527389D02*
X-47308082Y007487985D01*
X-47308082Y007487985D02*
X-47343411Y007470860D01*
X-47343411Y007470860D02*
X-47388836Y007472135D01*
X-47388836Y007472135D02*
X-47413679Y007486029D01*
X-47413679Y007486029D02*
X-47427628Y007518706D01*
X-47147116Y007664121D02*
X-47147116Y007474288D01*
X-47147116Y007664121D02*
X-47023385Y007664121D01*
X-47147116Y007569205D02*
X-47060504Y007569205D01*
X-47147116Y007474288D02*
X-47023385Y007474288D01*
X-46882941Y007475649D02*
X-46882941Y007659204D01*
X-46882941Y007659204D02*
X-46829121Y007664121D01*
X-46829121Y007664121D02*
X-46791346Y007662477D01*
X-46791346Y007662477D02*
X-46768558Y007657426D01*
X-46768558Y007657426D02*
X-46758976Y007653308D01*
X-46758976Y007653308D02*
X-46751090Y007647948D01*
X-46751090Y007647948D02*
X-46745264Y007641211D01*
X-46745264Y007641211D02*
X-46740127Y007622943D01*
X-46740127Y007622943D02*
X-46740609Y007606742D01*
X-46740609Y007606742D02*
X-46745867Y007595011D01*
X-46745867Y007595011D02*
X-46755304Y007586975D01*
X-46755304Y007586975D02*
X-46768323Y007581856D01*
X-46768323Y007581856D02*
X-46793262Y007577953D01*
X-46793262Y007577953D02*
X-46879374Y007574904D01*
X-46807862Y007567154D02*
X-46733918Y007474288D01*
X-46531609Y007664121D02*
X-46531609Y007474288D01*
X-46316653Y007664121D02*
X-46316653Y007474288D01*
X-46316653Y007664121D02*
X-46192922Y007664121D01*
X-46316653Y007569205D02*
X-46230042Y007569205D01*
X-46316653Y007474288D02*
X-46192922Y007474288D01*
X-45927004Y007637987D02*
X-45948123Y007665106D01*
X-45948123Y007665106D02*
X-45998182Y007667812D01*
X-45998182Y007667812D02*
X-46026240Y007648282D01*
X-46026240Y007648282D02*
X-46037695Y007612449D01*
X-46037695Y007612449D02*
X-46032951Y007594756D01*
X-46032951Y007594756D02*
X-46015199Y007579474D01*
X-46015199Y007579474D02*
X-45944856Y007567151D01*
X-45944856Y007567151D02*
X-45921192Y007552584D01*
X-45921192Y007552584D02*
X-45912410Y007527389D01*
X-45912410Y007527389D02*
X-45923978Y007487985D01*
X-45923978Y007487985D02*
X-45959307Y007470860D01*
X-45959307Y007470860D02*
X-46004732Y007472135D01*
X-46004732Y007472135D02*
X-46029575Y007486029D01*
X-46029575Y007486029D02*
X-46043524Y007518706D01*
D40*
X-48227064Y012735000D02*
X-47772936Y012735000D01*
D40*
X-48227064Y011265000D02*
X-47772936Y011265000D01*
D41*
X-50204791Y013475649D02*
X-50204791Y013659204D01*
X-50204791Y013659204D02*
X-50150971Y013664121D01*
X-50150971Y013664121D02*
X-50113196Y013662477D01*
X-50113196Y013662477D02*
X-50090408Y013657426D01*
X-50090408Y013657426D02*
X-50080826Y013653308D01*
X-50080826Y013653308D02*
X-50072940Y013647948D01*
X-50072940Y013647948D02*
X-50067114Y013641211D01*
X-50067114Y013641211D02*
X-50061977Y013622943D01*
X-50061977Y013622943D02*
X-50062459Y013606742D01*
X-50062459Y013606742D02*
X-50067717Y013595011D01*
X-50067717Y013595011D02*
X-50077154Y013586975D01*
X-50077154Y013586975D02*
X-50090172Y013581856D01*
X-50090172Y013581856D02*
X-50115112Y013577953D01*
X-50115112Y013577953D02*
X-50201224Y013574904D01*
X-50129711Y013567154D02*
X-50055767Y013474288D01*
X-49937746Y013415032D02*
X-49769171Y013415032D01*
X-49651149Y013475649D02*
X-49651149Y013659204D01*
X-49651149Y013659204D02*
X-49597329Y013664121D01*
X-49597329Y013664121D02*
X-49559554Y013662477D01*
X-49559554Y013662477D02*
X-49536766Y013657426D01*
X-49536766Y013657426D02*
X-49527184Y013653308D01*
X-49527184Y013653308D02*
X-49519298Y013647948D01*
X-49519298Y013647948D02*
X-49513472Y013641211D01*
X-49513472Y013641211D02*
X-49508335Y013622943D01*
X-49508335Y013622943D02*
X-49508817Y013606742D01*
X-49508817Y013606742D02*
X-49514075Y013595011D01*
X-49514075Y013595011D02*
X-49523512Y013586975D01*
X-49523512Y013586975D02*
X-49536531Y013581856D01*
X-49536531Y013581856D02*
X-49561470Y013577953D01*
X-49561470Y013577953D02*
X-49647582Y013574904D01*
X-49576070Y013567154D02*
X-49502126Y013474288D01*
X-49299817Y013664121D02*
X-49299817Y013474288D01*
X-48967834Y013660216D02*
X-49002389Y013667812D01*
X-49002389Y013667812D02*
X-49038902Y013664779D01*
X-49038902Y013664779D02*
X-49062322Y013652641D01*
X-49062322Y013652641D02*
X-49080808Y013628528D01*
X-49080808Y013628528D02*
X-49091492Y013576469D01*
X-49091492Y013576469D02*
X-49085793Y013520051D01*
X-49085793Y013520051D02*
X-49073441Y013499705D01*
X-49073441Y013499705D02*
X-49054378Y013483314D01*
X-49054378Y013483314D02*
X-49031401Y013472995D01*
X-49031401Y013472995D02*
X-49007304Y013470860D01*
X-49007304Y013470860D02*
X-48984881Y013479027D01*
X-48984881Y013479027D02*
X-48966930Y013499609D01*
X-48966930Y013499609D02*
X-48954500Y013558389D01*
X-48954500Y013558389D02*
X-49014997Y013558523D01*
X-48811732Y013664121D02*
X-48811732Y013474288D01*
X-48811732Y013573216D02*
X-48682060Y013573216D01*
X-48680618Y013664121D02*
X-48680618Y013474288D01*
X-48547216Y013664121D02*
X-48391493Y013664121D01*
X-48467042Y013664121D02*
X-48467042Y013474288D01*
X-48276821Y013415032D02*
X-48108246Y013415032D01*
X-47851865Y013622443D02*
X-47860441Y013643345D01*
X-47860441Y013643345D02*
X-47876173Y013658145D01*
X-47876173Y013658145D02*
X-47905968Y013667812D01*
X-47905968Y013667812D02*
X-47927984Y013664860D01*
X-47927984Y013664860D02*
X-47947386Y013654951D01*
X-47947386Y013654951D02*
X-47966332Y013632079D01*
X-47966332Y013632079D02*
X-47979561Y013572044D01*
X-47979561Y013572044D02*
X-47969180Y013511692D01*
X-47969180Y013511692D02*
X-47953693Y013487389D01*
X-47953693Y013487389D02*
X-47937593Y013476016D01*
X-47937593Y013476016D02*
X-47906227Y013470860D01*
X-47906227Y013470860D02*
X-47878892Y013477450D01*
X-47878892Y013477450D02*
X-47858652Y013496680D01*
X-47858652Y013496680D02*
X-47851865Y013523822D01*
X-47723179Y013415032D02*
X-47554605Y013415032D01*
X-47311108Y013637987D02*
X-47332227Y013665106D01*
X-47332227Y013665106D02*
X-47382286Y013667812D01*
X-47382286Y013667812D02*
X-47410344Y013648282D01*
X-47410344Y013648282D02*
X-47421799Y013612449D01*
X-47421799Y013612449D02*
X-47417055Y013594756D01*
X-47417055Y013594756D02*
X-47399303Y013579474D01*
X-47399303Y013579474D02*
X-47328960Y013567151D01*
X-47328960Y013567151D02*
X-47305296Y013552584D01*
X-47305296Y013552584D02*
X-47296514Y013527389D01*
X-47296514Y013527389D02*
X-47308082Y013487985D01*
X-47308082Y013487985D02*
X-47343411Y013470860D01*
X-47343411Y013470860D02*
X-47388836Y013472135D01*
X-47388836Y013472135D02*
X-47413679Y013486029D01*
X-47413679Y013486029D02*
X-47427628Y013518706D01*
X-47147116Y013664121D02*
X-47147116Y013474288D01*
X-47147116Y013664121D02*
X-47023385Y013664121D01*
X-47147116Y013569205D02*
X-47060504Y013569205D01*
X-47147116Y013474288D02*
X-47023385Y013474288D01*
X-46882941Y013475649D02*
X-46882941Y013659204D01*
X-46882941Y013659204D02*
X-46829121Y013664121D01*
X-46829121Y013664121D02*
X-46791346Y013662477D01*
X-46791346Y013662477D02*
X-46768558Y013657426D01*
X-46768558Y013657426D02*
X-46758976Y013653308D01*
X-46758976Y013653308D02*
X-46751090Y013647948D01*
X-46751090Y013647948D02*
X-46745264Y013641211D01*
X-46745264Y013641211D02*
X-46740127Y013622943D01*
X-46740127Y013622943D02*
X-46740609Y013606742D01*
X-46740609Y013606742D02*
X-46745867Y013595011D01*
X-46745867Y013595011D02*
X-46755304Y013586975D01*
X-46755304Y013586975D02*
X-46768323Y013581856D01*
X-46768323Y013581856D02*
X-46793262Y013577953D01*
X-46793262Y013577953D02*
X-46879374Y013574904D01*
X-46807862Y013567154D02*
X-46733918Y013474288D01*
X-46531609Y013664121D02*
X-46531609Y013474288D01*
X-46316653Y013664121D02*
X-46316653Y013474288D01*
X-46316653Y013664121D02*
X-46192922Y013664121D01*
X-46316653Y013569205D02*
X-46230042Y013569205D01*
X-46316653Y013474288D02*
X-46192922Y013474288D01*
X-45927004Y013637987D02*
X-45948123Y013665106D01*
X-45948123Y013665106D02*
X-45998182Y013667812D01*
X-45998182Y013667812D02*
X-46026240Y013648282D01*
X-46026240Y013648282D02*
X-46037695Y013612449D01*
X-46037695Y013612449D02*
X-46032951Y013594756D01*
X-46032951Y013594756D02*
X-46015199Y013579474D01*
X-46015199Y013579474D02*
X-45944856Y013567151D01*
X-45944856Y013567151D02*
X-45921192Y013552584D01*
X-45921192Y013552584D02*
X-45912410Y013527389D01*
X-45912410Y013527389D02*
X-45923978Y013487985D01*
X-45923978Y013487985D02*
X-45959307Y013470860D01*
X-45959307Y013470860D02*
X-46004732Y013472135D01*
X-46004732Y013472135D02*
X-46029575Y013486029D01*
X-46029575Y013486029D02*
X-46043524Y013518706D01*
D40*
X-48227064Y018735000D02*
X-47772936Y018735000D01*
D40*
X-48227064Y017265000D02*
X-47772936Y017265000D01*
D41*
X-49927970Y019475649D02*
X-49927970Y019659204D01*
X-49927970Y019659204D02*
X-49874150Y019664121D01*
X-49874150Y019664121D02*
X-49836375Y019662477D01*
X-49836375Y019662477D02*
X-49813587Y019657426D01*
X-49813587Y019657426D02*
X-49804005Y019653308D01*
X-49804005Y019653308D02*
X-49796119Y019647948D01*
X-49796119Y019647948D02*
X-49790293Y019641211D01*
X-49790293Y019641211D02*
X-49785156Y019622943D01*
X-49785156Y019622943D02*
X-49785638Y019606742D01*
X-49785638Y019606742D02*
X-49790896Y019595011D01*
X-49790896Y019595011D02*
X-49800333Y019586975D01*
X-49800333Y019586975D02*
X-49813351Y019581856D01*
X-49813351Y019581856D02*
X-49838291Y019577953D01*
X-49838291Y019577953D02*
X-49924403Y019574904D01*
X-49852890Y019567154D02*
X-49778946Y019474288D01*
X-49660925Y019415032D02*
X-49492350Y019415032D01*
X-49364348Y019474288D02*
X-49364348Y019660539D01*
X-49364348Y019660539D02*
X-49326133Y019664121D01*
X-49326133Y019664121D02*
X-49291946Y019661882D01*
X-49291946Y019661882D02*
X-49269717Y019655856D01*
X-49269717Y019655856D02*
X-49259778Y019650986D01*
X-49259778Y019650986D02*
X-49243926Y019636700D01*
X-49243926Y019636700D02*
X-49236881Y019621356D01*
X-49236881Y019621356D02*
X-49235285Y019598925D01*
X-49235285Y019598925D02*
X-49241602Y019584823D01*
X-49241602Y019584823D02*
X-49251461Y019577028D01*
X-49251461Y019577028D02*
X-49267182Y019570778D01*
X-49267182Y019570778D02*
X-49289919Y019566296D01*
X-49289919Y019566296D02*
X-49320820Y019563805D01*
X-49320820Y019563805D02*
X-49361041Y019563528D01*
X-49022996Y019664121D02*
X-49022996Y019474288D01*
X-48695212Y019637987D02*
X-48716331Y019665106D01*
X-48716331Y019665106D02*
X-48766390Y019667812D01*
X-48766390Y019667812D02*
X-48794448Y019648282D01*
X-48794448Y019648282D02*
X-48805903Y019612449D01*
X-48805903Y019612449D02*
X-48801159Y019594756D01*
X-48801159Y019594756D02*
X-48783407Y019579474D01*
X-48783407Y019579474D02*
X-48713064Y019567151D01*
X-48713064Y019567151D02*
X-48689400Y019552584D01*
X-48689400Y019552584D02*
X-48680618Y019527389D01*
X-48680618Y019527389D02*
X-48692186Y019487985D01*
X-48692186Y019487985D02*
X-48727515Y019470860D01*
X-48727515Y019470860D02*
X-48772940Y019472135D01*
X-48772940Y019472135D02*
X-48797783Y019486029D01*
X-48797783Y019486029D02*
X-48811732Y019518706D01*
X-48547216Y019664121D02*
X-48391493Y019664121D01*
X-48467042Y019664121D02*
X-48467042Y019474288D01*
X-48254399Y019664121D02*
X-48254399Y019474288D01*
X-48254399Y019664121D02*
X-48130668Y019664121D01*
X-48254399Y019569205D02*
X-48167787Y019569205D01*
X-48254399Y019474288D02*
X-48130668Y019474288D01*
X-48000000Y019415032D02*
X-47831425Y019415032D01*
X-47587929Y019637987D02*
X-47609048Y019665106D01*
X-47609048Y019665106D02*
X-47659107Y019667812D01*
X-47659107Y019667812D02*
X-47687165Y019648282D01*
X-47687165Y019648282D02*
X-47698620Y019612449D01*
X-47698620Y019612449D02*
X-47693876Y019594756D01*
X-47693876Y019594756D02*
X-47676124Y019579474D01*
X-47676124Y019579474D02*
X-47605781Y019567151D01*
X-47605781Y019567151D02*
X-47582116Y019552584D01*
X-47582116Y019552584D02*
X-47573335Y019527389D01*
X-47573335Y019527389D02*
X-47584902Y019487985D01*
X-47584902Y019487985D02*
X-47620232Y019470860D01*
X-47620232Y019470860D02*
X-47665657Y019472135D01*
X-47665657Y019472135D02*
X-47690500Y019486029D01*
X-47690500Y019486029D02*
X-47704449Y019518706D01*
X-47423937Y019664121D02*
X-47423937Y019474288D01*
X-47423937Y019664121D02*
X-47300206Y019664121D01*
X-47423937Y019569205D02*
X-47337325Y019569205D01*
X-47423937Y019474288D02*
X-47300206Y019474288D01*
X-47159762Y019475649D02*
X-47159762Y019659204D01*
X-47159762Y019659204D02*
X-47105942Y019664121D01*
X-47105942Y019664121D02*
X-47068167Y019662477D01*
X-47068167Y019662477D02*
X-47045379Y019657426D01*
X-47045379Y019657426D02*
X-47035797Y019653308D01*
X-47035797Y019653308D02*
X-47027911Y019647948D01*
X-47027911Y019647948D02*
X-47022085Y019641211D01*
X-47022085Y019641211D02*
X-47016948Y019622943D01*
X-47016948Y019622943D02*
X-47017430Y019606742D01*
X-47017430Y019606742D02*
X-47022688Y019595011D01*
X-47022688Y019595011D02*
X-47032125Y019586975D01*
X-47032125Y019586975D02*
X-47045143Y019581856D01*
X-47045143Y019581856D02*
X-47070083Y019577953D01*
X-47070083Y019577953D02*
X-47156195Y019574904D01*
X-47084682Y019567154D02*
X-47010738Y019474288D01*
X-46808430Y019664121D02*
X-46808430Y019474288D01*
X-46593474Y019664121D02*
X-46593474Y019474288D01*
X-46593474Y019664121D02*
X-46469743Y019664121D01*
X-46593474Y019569205D02*
X-46506863Y019569205D01*
X-46593474Y019474288D02*
X-46469743Y019474288D01*
X-46203825Y019637987D02*
X-46224944Y019665106D01*
X-46224944Y019665106D02*
X-46275003Y019667812D01*
X-46275003Y019667812D02*
X-46303061Y019648282D01*
X-46303061Y019648282D02*
X-46314516Y019612449D01*
X-46314516Y019612449D02*
X-46309772Y019594756D01*
X-46309772Y019594756D02*
X-46292020Y019579474D01*
X-46292020Y019579474D02*
X-46221677Y019567151D01*
X-46221677Y019567151D02*
X-46198012Y019552584D01*
X-46198012Y019552584D02*
X-46189231Y019527389D01*
X-46189231Y019527389D02*
X-46200798Y019487985D01*
X-46200798Y019487985D02*
X-46236128Y019470860D01*
X-46236128Y019470860D02*
X-46281553Y019472135D01*
X-46281553Y019472135D02*
X-46306396Y019486029D01*
X-46306396Y019486029D02*
X-46320345Y019518706D01*
D10*
X063500000Y046000000D02*
X070500000Y046000000D01*
X070500000Y050800000D01*
X063500000Y050800000D01*
X063500000Y046000000D01*
D40*
X057762742Y044522500D02*
X058237258Y044522500D01*
D40*
X057762742Y043477500D02*
X058237258Y043477500D01*
D41*
X056487261Y045250649D02*
X056487261Y045434204D01*
X056487261Y045434204D02*
X056541081Y045439121D01*
X056541081Y045439121D02*
X056578856Y045437477D01*
X056578856Y045437477D02*
X056601644Y045432426D01*
X056601644Y045432426D02*
X056611226Y045428308D01*
X056611226Y045428308D02*
X056619112Y045422948D01*
X056619112Y045422948D02*
X056624938Y045416211D01*
X056624938Y045416211D02*
X056630075Y045397943D01*
X056630075Y045397943D02*
X056629593Y045381742D01*
X056629593Y045381742D02*
X056624335Y045370011D01*
X056624335Y045370011D02*
X056614898Y045361975D01*
X056614898Y045361975D02*
X056601880Y045356856D01*
X056601880Y045356856D02*
X056576940Y045352953D01*
X056576940Y045352953D02*
X056490828Y045349904D01*
X056562341Y045342154D02*
X056636285Y045249288D01*
X056754306Y045190032D02*
X056922881Y045190032D01*
X057115414Y045439121D02*
X057115414Y045249288D01*
X057317723Y045250649D02*
X057317723Y045434204D01*
X057317723Y045434204D02*
X057371544Y045439121D01*
X057371544Y045439121D02*
X057409319Y045437477D01*
X057409319Y045437477D02*
X057432106Y045432426D01*
X057432106Y045432426D02*
X057441688Y045428308D01*
X057441688Y045428308D02*
X057449575Y045422948D01*
X057449575Y045422948D02*
X057455400Y045416211D01*
X057455400Y045416211D02*
X057460538Y045397943D01*
X057460538Y045397943D02*
X057460055Y045381742D01*
X057460055Y045381742D02*
X057454798Y045370011D01*
X057454798Y045370011D02*
X057445361Y045361975D01*
X057445361Y045361975D02*
X057432342Y045356856D01*
X057432342Y045356856D02*
X057407403Y045352953D01*
X057407403Y045352953D02*
X057321291Y045349904D01*
X057392803Y045342154D02*
X057466747Y045249288D01*
X057584769Y045190032D02*
X057753343Y045190032D01*
X057996840Y045412987D02*
X057975721Y045440106D01*
X057975721Y045440106D02*
X057925662Y045442812D01*
X057925662Y045442812D02*
X057897604Y045423282D01*
X057897604Y045423282D02*
X057886149Y045387449D01*
X057886149Y045387449D02*
X057890893Y045369756D01*
X057890893Y045369756D02*
X057908645Y045354474D01*
X057908645Y045354474D02*
X057978988Y045342151D01*
X057978988Y045342151D02*
X058002652Y045327584D01*
X058002652Y045327584D02*
X058011434Y045302389D01*
X058011434Y045302389D02*
X057999866Y045262985D01*
X057999866Y045262985D02*
X057964537Y045245860D01*
X057964537Y045245860D02*
X057919112Y045247135D01*
X057919112Y045247135D02*
X057894269Y045261029D01*
X057894269Y045261029D02*
X057880320Y045293706D01*
X058158577Y045439121D02*
X058158873Y045333315D01*
X058158873Y045333315D02*
X058160915Y045304532D01*
X058160915Y045304532D02*
X058166137Y045283212D01*
X058166137Y045283212D02*
X058176150Y045266996D01*
X058176150Y045266996D02*
X058189250Y045256274D01*
X058189250Y045256274D02*
X058208820Y045248530D01*
X058208820Y045248530D02*
X058233514Y045245601D01*
X058233514Y045245601D02*
X058250845Y045248533D01*
X058250845Y045248533D02*
X058265060Y045256256D01*
X058265060Y045256256D02*
X058273567Y045265304D01*
X058273567Y045265304D02*
X058277219Y045271252D01*
X058277219Y045271252D02*
X058282806Y045286416D01*
X058282806Y045286416D02*
X058285414Y045306505D01*
X058285414Y045306505D02*
X058286819Y045438835D01*
X058434987Y045249288D02*
X058434987Y045435539D01*
X058434987Y045435539D02*
X058473202Y045439121D01*
X058473202Y045439121D02*
X058507389Y045436882D01*
X058507389Y045436882D02*
X058529618Y045430856D01*
X058529618Y045430856D02*
X058539557Y045425986D01*
X058539557Y045425986D02*
X058555410Y045411700D01*
X058555410Y045411700D02*
X058562454Y045396356D01*
X058562454Y045396356D02*
X058564050Y045373925D01*
X058564050Y045373925D02*
X058557733Y045359823D01*
X058557733Y045359823D02*
X058547874Y045352028D01*
X058547874Y045352028D02*
X058532153Y045345778D01*
X058532153Y045345778D02*
X058509416Y045341296D01*
X058509416Y045341296D02*
X058478515Y045338805D01*
X058478515Y045338805D02*
X058438294Y045338528D01*
X058711808Y045249288D02*
X058711808Y045435539D01*
X058711808Y045435539D02*
X058750023Y045439121D01*
X058750023Y045439121D02*
X058784210Y045436882D01*
X058784210Y045436882D02*
X058806439Y045430856D01*
X058806439Y045430856D02*
X058816378Y045425986D01*
X058816378Y045425986D02*
X058832230Y045411700D01*
X058832230Y045411700D02*
X058839275Y045396356D01*
X058839275Y045396356D02*
X058840871Y045373925D01*
X058840871Y045373925D02*
X058834554Y045359823D01*
X058834554Y045359823D02*
X058824695Y045352028D01*
X058824695Y045352028D02*
X058808974Y045345778D01*
X058808974Y045345778D02*
X058786237Y045341296D01*
X058786237Y045341296D02*
X058755336Y045338805D01*
X058755336Y045338805D02*
X058715115Y045338528D01*
X058989996Y045439121D02*
X058989996Y045249288D01*
X058989996Y045249288D02*
X059116324Y045249288D01*
X059250752Y045439121D02*
X059327771Y045354242D01*
X059409210Y045438851D02*
X059328281Y045353703D01*
X059328281Y045353703D02*
X059331171Y045249288D01*
D36*
X058825000Y040875000D02*
X056575000Y040875000D01*
X056575000Y039125000D01*
X058825000Y039125000D01*
D41*
X056625621Y041397443D02*
X056617045Y041418345D01*
X056617045Y041418345D02*
X056601312Y041433145D01*
X056601312Y041433145D02*
X056571518Y041442812D01*
X056571518Y041442812D02*
X056549501Y041439860D01*
X056549501Y041439860D02*
X056530099Y041429951D01*
X056530099Y041429951D02*
X056511154Y041407079D01*
X056511154Y041407079D02*
X056497925Y041347044D01*
X056497925Y041347044D02*
X056508306Y041286692D01*
X056508306Y041286692D02*
X056523792Y041262389D01*
X056523792Y041262389D02*
X056539893Y041251016D01*
X056539893Y041251016D02*
X056571259Y041245860D01*
X056571259Y041245860D02*
X056598594Y041252450D01*
X056598594Y041252450D02*
X056618834Y041271680D01*
X056618834Y041271680D02*
X056625621Y041298822D01*
X056754306Y041190032D02*
X056922881Y041190032D01*
X057115414Y041439121D02*
X057115414Y041249288D01*
X057317723Y041250649D02*
X057317723Y041434204D01*
X057317723Y041434204D02*
X057371544Y041439121D01*
X057371544Y041439121D02*
X057409319Y041437477D01*
X057409319Y041437477D02*
X057432106Y041432426D01*
X057432106Y041432426D02*
X057441688Y041428308D01*
X057441688Y041428308D02*
X057449575Y041422948D01*
X057449575Y041422948D02*
X057455400Y041416211D01*
X057455400Y041416211D02*
X057460538Y041397943D01*
X057460538Y041397943D02*
X057460055Y041381742D01*
X057460055Y041381742D02*
X057454798Y041370011D01*
X057454798Y041370011D02*
X057445361Y041361975D01*
X057445361Y041361975D02*
X057432342Y041356856D01*
X057432342Y041356856D02*
X057407403Y041352953D01*
X057407403Y041352953D02*
X057321291Y041349904D01*
X057392803Y041342154D02*
X057466747Y041249288D01*
X057584769Y041190032D02*
X057753343Y041190032D01*
X057996840Y041412987D02*
X057975721Y041440106D01*
X057975721Y041440106D02*
X057925662Y041442812D01*
X057925662Y041442812D02*
X057897604Y041423282D01*
X057897604Y041423282D02*
X057886149Y041387449D01*
X057886149Y041387449D02*
X057890893Y041369756D01*
X057890893Y041369756D02*
X057908645Y041354474D01*
X057908645Y041354474D02*
X057978988Y041342151D01*
X057978988Y041342151D02*
X058002652Y041327584D01*
X058002652Y041327584D02*
X058011434Y041302389D01*
X058011434Y041302389D02*
X057999866Y041262985D01*
X057999866Y041262985D02*
X057964537Y041245860D01*
X057964537Y041245860D02*
X057919112Y041247135D01*
X057919112Y041247135D02*
X057894269Y041261029D01*
X057894269Y041261029D02*
X057880320Y041293706D01*
X058158577Y041439121D02*
X058158873Y041333315D01*
X058158873Y041333315D02*
X058160915Y041304532D01*
X058160915Y041304532D02*
X058166137Y041283212D01*
X058166137Y041283212D02*
X058176150Y041266996D01*
X058176150Y041266996D02*
X058189250Y041256274D01*
X058189250Y041256274D02*
X058208820Y041248530D01*
X058208820Y041248530D02*
X058233514Y041245601D01*
X058233514Y041245601D02*
X058250845Y041248533D01*
X058250845Y041248533D02*
X058265060Y041256256D01*
X058265060Y041256256D02*
X058273567Y041265304D01*
X058273567Y041265304D02*
X058277219Y041271252D01*
X058277219Y041271252D02*
X058282806Y041286416D01*
X058282806Y041286416D02*
X058285414Y041306505D01*
X058285414Y041306505D02*
X058286819Y041438835D01*
X058434987Y041249288D02*
X058434987Y041435539D01*
X058434987Y041435539D02*
X058473202Y041439121D01*
X058473202Y041439121D02*
X058507389Y041436882D01*
X058507389Y041436882D02*
X058529618Y041430856D01*
X058529618Y041430856D02*
X058539557Y041425986D01*
X058539557Y041425986D02*
X058555410Y041411700D01*
X058555410Y041411700D02*
X058562454Y041396356D01*
X058562454Y041396356D02*
X058564050Y041373925D01*
X058564050Y041373925D02*
X058557733Y041359823D01*
X058557733Y041359823D02*
X058547874Y041352028D01*
X058547874Y041352028D02*
X058532153Y041345778D01*
X058532153Y041345778D02*
X058509416Y041341296D01*
X058509416Y041341296D02*
X058478515Y041338805D01*
X058478515Y041338805D02*
X058438294Y041338528D01*
X058711808Y041249288D02*
X058711808Y041435539D01*
X058711808Y041435539D02*
X058750023Y041439121D01*
X058750023Y041439121D02*
X058784210Y041436882D01*
X058784210Y041436882D02*
X058806439Y041430856D01*
X058806439Y041430856D02*
X058816378Y041425986D01*
X058816378Y041425986D02*
X058832230Y041411700D01*
X058832230Y041411700D02*
X058839275Y041396356D01*
X058839275Y041396356D02*
X058840871Y041373925D01*
X058840871Y041373925D02*
X058834554Y041359823D01*
X058834554Y041359823D02*
X058824695Y041352028D01*
X058824695Y041352028D02*
X058808974Y041345778D01*
X058808974Y041345778D02*
X058786237Y041341296D01*
X058786237Y041341296D02*
X058755336Y041338805D01*
X058755336Y041338805D02*
X058715115Y041338528D01*
X058989996Y041439121D02*
X058989996Y041249288D01*
X058989996Y041249288D02*
X059116324Y041249288D01*
X059250752Y041439121D02*
X059327771Y041354242D01*
X059409210Y041438851D02*
X059328281Y041353703D01*
X059328281Y041353703D02*
X059331171Y041249288D01*
D31*
X002300000Y036920000D02*
X027700000Y036920000D01*
X027700000Y047080000D01*
X002300000Y047080000D01*
X002300000Y036920000D01*
D34*
X003355727Y040485027D02*
X003782851Y040485027D01*
X003560265Y040485027D02*
X003560265Y040776789D01*
X003355727Y040780032D02*
X003782851Y040780032D01*
X003355727Y041111104D02*
X003593791Y041111770D01*
X003593791Y041111770D02*
X003658552Y041116364D01*
X003658552Y041116364D02*
X003706522Y041128115D01*
X003706522Y041128115D02*
X003743009Y041150645D01*
X003743009Y041150645D02*
X003767134Y041180120D01*
X003767134Y041180120D02*
X003784558Y041224152D01*
X003784558Y041224152D02*
X003791148Y041279712D01*
X003791148Y041279712D02*
X003784551Y041318708D01*
X003784551Y041318708D02*
X003767174Y041350691D01*
X003767174Y041350691D02*
X003746816Y041369831D01*
X003746816Y041369831D02*
X003733433Y041378049D01*
X003733433Y041378049D02*
X003699313Y041390620D01*
X003699313Y041390620D02*
X003654114Y041396489D01*
X003654114Y041396489D02*
X003356371Y041399649D01*
X003782851Y041728875D02*
X003360740Y041728875D01*
X003360740Y041728875D02*
X003355727Y041820471D01*
X003355727Y041820471D02*
X003370468Y041904343D01*
X003370468Y041904343D02*
X003419940Y041960849D01*
X003419940Y041960849D02*
X003492270Y041952058D01*
X003492270Y041952058D02*
X003530975Y041885569D01*
X003530975Y041885569D02*
X003547585Y041741955D01*
X003547585Y041741955D02*
X003556343Y041881594D01*
X003556343Y041881594D02*
X003592897Y041983969D01*
X003592897Y041983969D02*
X003649095Y042027571D01*
X003649095Y042027571D02*
X003721773Y042023989D01*
X003721773Y042023989D02*
X003753879Y042004362D01*
X003753879Y042004362D02*
X003779971Y041955413D01*
X003779971Y041955413D02*
X003782851Y041728875D01*
X003355727Y042356490D02*
X003355727Y042645650D01*
X003355727Y042645650D02*
X003368772Y042623862D01*
X003368772Y042623862D02*
X003377406Y042612407D01*
X003377406Y042612407D02*
X003403051Y042585591D01*
X003403051Y042585591D02*
X003420706Y042571026D01*
X003420706Y042571026D02*
X003442015Y042556219D01*
X003442015Y042556219D02*
X003467302Y042541572D01*
X003467302Y042541572D02*
X003496889Y042527477D01*
X003496889Y042527477D02*
X003531101Y042514334D01*
X003531101Y042514334D02*
X003570260Y042502543D01*
X003570260Y042502543D02*
X003614691Y042492495D01*
X003614691Y042492495D02*
X003691930Y042481572D01*
X003691930Y042481572D02*
X003782851Y042476817D01*
X003355727Y042981489D02*
X003572262Y042981489D01*
X003572262Y042981489D02*
X003543785Y043102893D01*
X003543785Y043102893D02*
X003554496Y043189576D01*
X003554496Y043189576D02*
X003573829Y043224071D01*
X003573829Y043224071D02*
X003601261Y043248028D01*
X003601261Y043248028D02*
X003676023Y043266344D01*
X003676023Y043266344D02*
X003714861Y043257682D01*
X003714861Y043257682D02*
X003745428Y043234953D01*
X003745428Y043234953D02*
X003773817Y043190288D01*
X003773817Y043190288D02*
X003788752Y043138671D01*
X003788752Y043138671D02*
X003791148Y043090132D01*
X003791148Y043090132D02*
X003783353Y043049255D01*
X003783353Y043049255D02*
X003768070Y043016213D01*
X003768070Y043016213D02*
X003736632Y042981489D01*
X003355727Y042981489D02*
X003355727Y043266344D01*
D31*
X032550000Y034110000D02*
X043450000Y034110000D01*
X043450000Y049890000D01*
X032550000Y049890000D01*
X032550000Y034110000D01*
D47*
X033271758Y039822895D02*
X033651423Y039822895D01*
X033453568Y039822895D02*
X033453568Y040082239D01*
X033271758Y040085122D02*
X033651423Y040085122D01*
X033271758Y040379408D02*
X033483370Y040380000D01*
X033483370Y040380000D02*
X033540935Y040384084D01*
X033540935Y040384084D02*
X033583575Y040394529D01*
X033583575Y040394529D02*
X033616008Y040414555D01*
X033616008Y040414555D02*
X033637453Y040440755D01*
X033637453Y040440755D02*
X033652941Y040479895D01*
X033652941Y040479895D02*
X033658798Y040529282D01*
X033658798Y040529282D02*
X033652934Y040563945D01*
X033652934Y040563945D02*
X033637488Y040592374D01*
X033637488Y040592374D02*
X033619392Y040609388D01*
X033619392Y040609388D02*
X033607496Y040616692D01*
X033607496Y040616692D02*
X033577167Y040627867D01*
X033577167Y040627867D02*
X033536991Y040633083D01*
X033536991Y040633083D02*
X033272330Y040635893D01*
X033651423Y040928537D02*
X033276214Y040928537D01*
X033276214Y040928537D02*
X033271758Y041009956D01*
X033271758Y041009956D02*
X033284861Y041084509D01*
X033284861Y041084509D02*
X033328835Y041134737D01*
X033328835Y041134737D02*
X033393129Y041126922D01*
X033393129Y041126922D02*
X033427533Y041067821D01*
X033427533Y041067821D02*
X033442297Y040940164D01*
X033442297Y040940164D02*
X033450083Y041064288D01*
X033450083Y041064288D02*
X033482575Y041155288D01*
X033482575Y041155288D02*
X033532528Y041194046D01*
X033532528Y041194046D02*
X033597131Y041190861D01*
X033597131Y041190861D02*
X033625670Y041173415D01*
X033625670Y041173415D02*
X033648863Y041129905D01*
X033648863Y041129905D02*
X033651423Y040928537D01*
X033271758Y041486417D02*
X033271758Y041743449D01*
X033271758Y041743449D02*
X033283353Y041724082D01*
X033283353Y041724082D02*
X033291028Y041713900D01*
X033291028Y041713900D02*
X033313823Y041690063D01*
X033313823Y041690063D02*
X033329516Y041677116D01*
X033329516Y041677116D02*
X033348458Y041663955D01*
X033348458Y041663955D02*
X033370935Y041650935D01*
X033370935Y041650935D02*
X033397235Y041638406D01*
X033397235Y041638406D02*
X033427645Y041626724D01*
X033427645Y041626724D02*
X033462453Y041616242D01*
X033462453Y041616242D02*
X033501948Y041607311D01*
X033501948Y041607311D02*
X033570604Y041597602D01*
X033570604Y041597602D02*
X033651423Y041593375D01*
X033271758Y042041973D02*
X033464233Y042041973D01*
X033464233Y042041973D02*
X033438920Y042149887D01*
X033438920Y042149887D02*
X033448441Y042226938D01*
X033448441Y042226938D02*
X033465626Y042257601D01*
X033465626Y042257601D02*
X033490009Y042278896D01*
X033490009Y042278896D02*
X033556465Y042295177D01*
X033556465Y042295177D02*
X033590987Y042287477D01*
X033590987Y042287477D02*
X033618158Y042267273D01*
X033618158Y042267273D02*
X033643393Y042227572D01*
X033643393Y042227572D02*
X033656669Y042181689D01*
X033656669Y042181689D02*
X033658798Y042138543D01*
X033658798Y042138543D02*
X033651870Y042102209D01*
X033651870Y042102209D02*
X033638284Y042072838D01*
X033638284Y042072838D02*
X033610340Y042041973D01*
X033271758Y042041973D02*
X033271758Y042295177D01*
X033271758Y043149256D02*
X033464233Y043149256D01*
X033464233Y043149256D02*
X033438920Y043257170D01*
X033438920Y043257170D02*
X033448441Y043334222D01*
X033448441Y043334222D02*
X033465626Y043364884D01*
X033465626Y043364884D02*
X033490009Y043386179D01*
X033490009Y043386179D02*
X033556465Y043402460D01*
X033556465Y043402460D02*
X033590987Y043394760D01*
X033590987Y043394760D02*
X033618158Y043374557D01*
X033618158Y043374557D02*
X033643393Y043334855D01*
X033643393Y043334855D02*
X033656669Y043288972D01*
X033656669Y043288972D02*
X033658798Y043245827D01*
X033658798Y043245827D02*
X033651870Y043209492D01*
X033651870Y043209492D02*
X033638284Y043180121D01*
X033638284Y043180121D02*
X033610340Y043149256D01*
X033271758Y043149256D02*
X033271758Y043402460D01*
X033271758Y043676511D02*
X033651423Y043840171D01*
X033651423Y043840171D02*
X033271758Y043982488D01*
D31*
X074100000Y016000000D02*
X074047814Y016796210D01*
X073892148Y017578796D01*
X073635665Y018334369D01*
X073282755Y019050000D01*
X072839455Y019713445D01*
X072313351Y020313351D01*
X071713445Y020839455D01*
X071050000Y021282755D01*
X070334369Y021635665D01*
X069578796Y021892148D01*
X068796210Y022047814D01*
X068000000Y022100000D01*
X067203790Y022047814D01*
X066421204Y021892148D01*
X065665631Y021635665D01*
X064950000Y021282755D01*
X064286555Y020839455D01*
X063686649Y020313351D01*
X063160545Y019713445D01*
X062717245Y019050000D01*
X062364335Y018334369D01*
X062107852Y017578796D01*
X061952186Y016796210D01*
X061900000Y016000000D01*
X061952186Y015203790D01*
X062107852Y014421204D01*
X062364335Y013665631D01*
X062717245Y012950000D01*
X063160545Y012286555D01*
X063686649Y011686649D01*
X064286555Y011160545D01*
X064950000Y010717245D01*
X065665631Y010364335D01*
X066421204Y010107852D01*
X067203790Y009952186D01*
X068000000Y009900000D01*
X068796210Y009952186D01*
X069578796Y010107852D01*
X070334369Y010364335D01*
X071050000Y010717245D01*
X071713445Y011160545D01*
X072313351Y011686649D01*
X072839455Y012286555D01*
X073282755Y012950000D01*
X073635665Y013665631D01*
X073892148Y014421204D01*
X074047814Y015203790D01*
X074100000Y016000000D01*
D31*
X066750000Y016000000D02*
X066739306Y016163158D01*
X066707407Y016323524D01*
X066654849Y016478354D01*
X066582532Y016625000D01*
X066491692Y016760952D01*
X066383883Y016883883D01*
X066260952Y016991692D01*
X066125000Y017082532D01*
X065978354Y017154849D01*
X065823524Y017207407D01*
X065663158Y017239306D01*
X065500000Y017250000D01*
X065336842Y017239306D01*
X065176476Y017207407D01*
X065021646Y017154849D01*
X064875000Y017082532D01*
X064739048Y016991692D01*
X064616117Y016883883D01*
X064508308Y016760952D01*
X064417468Y016625000D01*
X064345151Y016478354D01*
X064292593Y016323524D01*
X064260694Y016163158D01*
X064250000Y016000000D01*
X064260694Y015836842D01*
X064292593Y015676476D01*
X064345151Y015521646D01*
X064417468Y015375000D01*
X064508308Y015239048D01*
X064616117Y015116117D01*
X064739048Y015008308D01*
X064875000Y014917468D01*
X065021646Y014845151D01*
X065176476Y014792593D01*
X065336842Y014760694D01*
X065500000Y014750000D01*
X065663158Y014760694D01*
X065823524Y014792593D01*
X065978354Y014845151D01*
X066125000Y014917468D01*
X066260952Y015008308D01*
X066383883Y015116117D01*
X066491692Y015239048D01*
X066582532Y015375000D01*
X066654849Y015521646D01*
X066707407Y015676476D01*
X066739306Y015836842D01*
X066750000Y016000000D01*
D51*
X053714748Y011807215D02*
X053684302Y011818124D01*
X053684302Y011818124D02*
X053656473Y011851314D01*
X053656473Y011851314D02*
X053635891Y011963970D01*
X053635891Y011963970D02*
X053655495Y012048288D01*
X053655495Y012048288D02*
X053679547Y012072304D01*
X053679547Y012072304D02*
X053721191Y012084765D01*
X053721191Y012084765D02*
X053760400Y012069806D01*
X053760400Y012069806D02*
X053783356Y012042469D01*
X053783356Y012042469D02*
X053803015Y011939764D01*
X053803015Y011939764D02*
X053793231Y011874922D01*
X053793231Y011874922D02*
X053775795Y011837447D01*
X053775795Y011837447D02*
X053744826Y011811921D01*
X053744826Y011811921D02*
X053714748Y011807215D01*
X053735325Y011889554D02*
X053806619Y011800271D01*
X053961922Y011768790D02*
X054172640Y011768790D01*
X054330336Y011842860D02*
X054330336Y012077366D01*
X054330336Y012077366D02*
X054381223Y012080151D01*
X054381223Y012080151D02*
X054427818Y012071962D01*
X054427818Y012071962D02*
X054459211Y012044478D01*
X054459211Y012044478D02*
X054454326Y012004294D01*
X054454326Y012004294D02*
X054417388Y011982792D01*
X054417388Y011982792D02*
X054337603Y011973564D01*
X054337603Y011973564D02*
X054415180Y011968698D01*
X054415180Y011968698D02*
X054472055Y011948390D01*
X054472055Y011948390D02*
X054496278Y011917170D01*
X054496278Y011917170D02*
X054494288Y011876793D01*
X054494288Y011876793D02*
X054483384Y011858956D01*
X054483384Y011858956D02*
X054456191Y011844461D01*
X054456191Y011844461D02*
X054330336Y011842860D01*
X054679182Y012080151D02*
X054679552Y011947894D01*
X054679552Y011947894D02*
X054682104Y011911916D01*
X054682104Y011911916D02*
X054688632Y011885265D01*
X054688632Y011885265D02*
X054701149Y011864995D01*
X054701149Y011864995D02*
X054717524Y011851592D01*
X054717524Y011851592D02*
X054741986Y011841912D01*
X054741986Y011841912D02*
X054772853Y011838251D01*
X054772853Y011838251D02*
X054794518Y011841916D01*
X054794518Y011841916D02*
X054812286Y011851570D01*
X054812286Y011851570D02*
X054822919Y011862880D01*
X054822919Y011862880D02*
X054827485Y011870315D01*
X054827485Y011870315D02*
X054834469Y011889270D01*
X054834469Y011889270D02*
X054837729Y011914381D01*
X054837729Y011914381D02*
X054839485Y012079794D01*
X055018799Y012080151D02*
X055191919Y012080151D01*
X055191919Y012080151D02*
X055018799Y011842860D01*
X055018799Y011842860D02*
X055191919Y011842860D01*
X055364825Y012080151D02*
X055537945Y012080151D01*
X055537945Y012080151D02*
X055364825Y011842860D01*
X055364825Y011842860D02*
X055537945Y011842860D01*
X055720079Y012080151D02*
X055720079Y011842860D01*
X055720079Y012080151D02*
X055874743Y012080151D01*
X055720079Y011961507D02*
X055828344Y011961507D01*
X055720079Y011842860D02*
X055874743Y011842860D01*
X056050297Y011844561D02*
X056050297Y012074005D01*
X056050297Y012074005D02*
X056117572Y012080151D01*
X056117572Y012080151D02*
X056164791Y012078097D01*
X056164791Y012078097D02*
X056193276Y012071783D01*
X056193276Y012071783D02*
X056205253Y012066635D01*
X056205253Y012066635D02*
X056215111Y012059935D01*
X056215111Y012059935D02*
X056222394Y012051514D01*
X056222394Y012051514D02*
X056228815Y012028679D01*
X056228815Y012028679D02*
X056228212Y012008428D01*
X056228212Y012008428D02*
X056221640Y011993764D01*
X056221640Y011993764D02*
X056209844Y011983719D01*
X056209844Y011983719D02*
X056193571Y011977320D01*
X056193571Y011977320D02*
X056162396Y011972441D01*
X056162396Y011972441D02*
X056054757Y011968631D01*
X056144147Y011958943D02*
X056236577Y011842860D01*
D40*
X046762742Y012522500D02*
X047237258Y012522500D01*
D40*
X046762742Y011477500D02*
X047237258Y011477500D01*
D41*
X045210440Y013250649D02*
X045210440Y013434204D01*
X045210440Y013434204D02*
X045264260Y013439121D01*
X045264260Y013439121D02*
X045302035Y013437477D01*
X045302035Y013437477D02*
X045324823Y013432426D01*
X045324823Y013432426D02*
X045334405Y013428308D01*
X045334405Y013428308D02*
X045342291Y013422948D01*
X045342291Y013422948D02*
X045348117Y013416211D01*
X045348117Y013416211D02*
X045353254Y013397943D01*
X045353254Y013397943D02*
X045352772Y013381742D01*
X045352772Y013381742D02*
X045347514Y013370011D01*
X045347514Y013370011D02*
X045338078Y013361975D01*
X045338078Y013361975D02*
X045325059Y013356856D01*
X045325059Y013356856D02*
X045300119Y013352953D01*
X045300119Y013352953D02*
X045214008Y013349904D01*
X045285520Y013342154D02*
X045359464Y013249288D01*
X045477486Y013190032D02*
X045646060Y013190032D01*
X045772217Y013249288D02*
X045772217Y013436893D01*
X045772217Y013436893D02*
X045812926Y013439121D01*
X045812926Y013439121D02*
X045850202Y013432570D01*
X045850202Y013432570D02*
X045875317Y013410582D01*
X045875317Y013410582D02*
X045871409Y013378436D01*
X045871409Y013378436D02*
X045841858Y013361234D01*
X045841858Y013361234D02*
X045778030Y013353851D01*
X045778030Y013353851D02*
X045840092Y013349958D01*
X045840092Y013349958D02*
X045885592Y013333712D01*
X045885592Y013333712D02*
X045904971Y013308736D01*
X045904971Y013308736D02*
X045903378Y013276434D01*
X045903378Y013276434D02*
X045894656Y013262165D01*
X045894656Y013262165D02*
X045872900Y013250569D01*
X045872900Y013250569D02*
X045772217Y013249288D01*
X046051293Y013439121D02*
X046051590Y013333315D01*
X046051590Y013333315D02*
X046053631Y013304532D01*
X046053631Y013304532D02*
X046058854Y013283212D01*
X046058854Y013283212D02*
X046068867Y013266996D01*
X046068867Y013266996D02*
X046081967Y013256274D01*
X046081967Y013256274D02*
X046101537Y013248530D01*
X046101537Y013248530D02*
X046126231Y013245601D01*
X046126231Y013245601D02*
X046143562Y013248533D01*
X046143562Y013248533D02*
X046157777Y013256256D01*
X046157777Y013256256D02*
X046166283Y013265304D01*
X046166283Y013265304D02*
X046169936Y013271252D01*
X046169936Y013271252D02*
X046175523Y013286416D01*
X046175523Y013286416D02*
X046178131Y013306505D01*
X046178131Y013306505D02*
X046179536Y013438835D01*
X046322987Y013439121D02*
X046461483Y013439121D01*
X046461483Y013439121D02*
X046322987Y013249288D01*
X046322987Y013249288D02*
X046461483Y013249288D01*
X046599808Y013439121D02*
X046738304Y013439121D01*
X046738304Y013439121D02*
X046599808Y013249288D01*
X046599808Y013249288D02*
X046738304Y013249288D01*
X046884011Y013439121D02*
X046884011Y013249288D01*
X046884011Y013439121D02*
X047007742Y013439121D01*
X046884011Y013344205D02*
X046970623Y013344205D01*
X046884011Y013249288D02*
X047007742Y013249288D01*
X047148186Y013250649D02*
X047148186Y013434204D01*
X047148186Y013434204D02*
X047202006Y013439121D01*
X047202006Y013439121D02*
X047239781Y013437477D01*
X047239781Y013437477D02*
X047262569Y013432426D01*
X047262569Y013432426D02*
X047272151Y013428308D01*
X047272151Y013428308D02*
X047280037Y013422948D01*
X047280037Y013422948D02*
X047285863Y013416211D01*
X047285863Y013416211D02*
X047291000Y013397943D01*
X047291000Y013397943D02*
X047290518Y013381742D01*
X047290518Y013381742D02*
X047285260Y013370011D01*
X047285260Y013370011D02*
X047275823Y013361975D01*
X047275823Y013361975D02*
X047262805Y013356856D01*
X047262805Y013356856D02*
X047237865Y013352953D01*
X047237865Y013352953D02*
X047151753Y013349904D01*
X047223266Y013342154D02*
X047297210Y013249288D01*
X047415231Y013190032D02*
X047583806Y013190032D01*
X047831502Y013435216D02*
X047796946Y013442812D01*
X047796946Y013442812D02*
X047760433Y013439779D01*
X047760433Y013439779D02*
X047737014Y013427641D01*
X047737014Y013427641D02*
X047718528Y013403528D01*
X047718528Y013403528D02*
X047707843Y013351469D01*
X047707843Y013351469D02*
X047713543Y013295051D01*
X047713543Y013295051D02*
X047725894Y013274705D01*
X047725894Y013274705D02*
X047744957Y013258314D01*
X047744957Y013258314D02*
X047767934Y013247995D01*
X047767934Y013247995D02*
X047792031Y013245860D01*
X047792031Y013245860D02*
X047814454Y013254027D01*
X047814454Y013254027D02*
X047832405Y013274609D01*
X047832405Y013274609D02*
X047844836Y013333389D01*
X047844836Y013333389D02*
X047784339Y013333523D01*
X047973932Y013249288D02*
X048050123Y013439121D01*
X048050123Y013439121D02*
X048132389Y013249288D01*
X048012358Y013323334D02*
X048090266Y013323334D01*
X048252119Y013439121D02*
X048407842Y013439121D01*
X048332293Y013439121D02*
X048332293Y013249288D01*
X048544936Y013439121D02*
X048544936Y013249288D01*
X048544936Y013439121D02*
X048668667Y013439121D01*
X048544936Y013344205D02*
X048631548Y013344205D01*
X048544936Y013249288D02*
X048668667Y013249288D01*
D40*
X046762742Y007522500D02*
X047237258Y007522500D01*
D40*
X046762742Y006477500D02*
X047237258Y006477500D01*
D41*
X043964747Y008250649D02*
X043964747Y008434204D01*
X043964747Y008434204D02*
X044018567Y008439121D01*
X044018567Y008439121D02*
X044056342Y008437477D01*
X044056342Y008437477D02*
X044079130Y008432426D01*
X044079130Y008432426D02*
X044088712Y008428308D01*
X044088712Y008428308D02*
X044096598Y008422948D01*
X044096598Y008422948D02*
X044102424Y008416211D01*
X044102424Y008416211D02*
X044107561Y008397943D01*
X044107561Y008397943D02*
X044107079Y008381742D01*
X044107079Y008381742D02*
X044101821Y008370011D01*
X044101821Y008370011D02*
X044092384Y008361975D01*
X044092384Y008361975D02*
X044079365Y008356856D01*
X044079365Y008356856D02*
X044054426Y008352953D01*
X044054426Y008352953D02*
X043968314Y008349904D01*
X044039826Y008342154D02*
X044113770Y008249288D01*
X044231792Y008190032D02*
X044400367Y008190032D01*
X044526523Y008249288D02*
X044526523Y008436893D01*
X044526523Y008436893D02*
X044567232Y008439121D01*
X044567232Y008439121D02*
X044604509Y008432570D01*
X044604509Y008432570D02*
X044629623Y008410582D01*
X044629623Y008410582D02*
X044625716Y008378436D01*
X044625716Y008378436D02*
X044596165Y008361234D01*
X044596165Y008361234D02*
X044532337Y008353851D01*
X044532337Y008353851D02*
X044594398Y008349958D01*
X044594398Y008349958D02*
X044639898Y008333712D01*
X044639898Y008333712D02*
X044659277Y008308736D01*
X044659277Y008308736D02*
X044657685Y008276434D01*
X044657685Y008276434D02*
X044648962Y008262165D01*
X044648962Y008262165D02*
X044627207Y008250569D01*
X044627207Y008250569D02*
X044526523Y008249288D01*
X044805600Y008439121D02*
X044805896Y008333315D01*
X044805896Y008333315D02*
X044807938Y008304532D01*
X044807938Y008304532D02*
X044813160Y008283212D01*
X044813160Y008283212D02*
X044823174Y008266996D01*
X044823174Y008266996D02*
X044836273Y008256274D01*
X044836273Y008256274D02*
X044855844Y008248530D01*
X044855844Y008248530D02*
X044880537Y008245601D01*
X044880537Y008245601D02*
X044897868Y008248533D01*
X044897868Y008248533D02*
X044912083Y008256256D01*
X044912083Y008256256D02*
X044920590Y008265304D01*
X044920590Y008265304D02*
X044924242Y008271252D01*
X044924242Y008271252D02*
X044929829Y008286416D01*
X044929829Y008286416D02*
X044932438Y008306505D01*
X044932438Y008306505D02*
X044933842Y008438835D01*
X045077293Y008439121D02*
X045215790Y008439121D01*
X045215790Y008439121D02*
X045077293Y008249288D01*
X045077293Y008249288D02*
X045215790Y008249288D01*
X045354114Y008439121D02*
X045492611Y008439121D01*
X045492611Y008439121D02*
X045354114Y008249288D01*
X045354114Y008249288D02*
X045492611Y008249288D01*
X045638318Y008439121D02*
X045638318Y008249288D01*
X045638318Y008439121D02*
X045762049Y008439121D01*
X045638318Y008344205D02*
X045724929Y008344205D01*
X045638318Y008249288D02*
X045762049Y008249288D01*
X045902492Y008250649D02*
X045902492Y008434204D01*
X045902492Y008434204D02*
X045956312Y008439121D01*
X045956312Y008439121D02*
X045994087Y008437477D01*
X045994087Y008437477D02*
X046016875Y008432426D01*
X046016875Y008432426D02*
X046026457Y008428308D01*
X046026457Y008428308D02*
X046034343Y008422948D01*
X046034343Y008422948D02*
X046040169Y008416211D01*
X046040169Y008416211D02*
X046045306Y008397943D01*
X046045306Y008397943D02*
X046044824Y008381742D01*
X046044824Y008381742D02*
X046039566Y008370011D01*
X046039566Y008370011D02*
X046030130Y008361975D01*
X046030130Y008361975D02*
X046017111Y008356856D01*
X046017111Y008356856D02*
X045992171Y008352953D01*
X045992171Y008352953D02*
X045906060Y008349904D01*
X045977572Y008342154D02*
X046051516Y008249288D01*
X046169538Y008190032D02*
X046338112Y008190032D01*
X046585808Y008435216D02*
X046551252Y008442812D01*
X046551252Y008442812D02*
X046514740Y008439779D01*
X046514740Y008439779D02*
X046491320Y008427641D01*
X046491320Y008427641D02*
X046472834Y008403528D01*
X046472834Y008403528D02*
X046462150Y008351469D01*
X046462150Y008351469D02*
X046467849Y008295051D01*
X046467849Y008295051D02*
X046480201Y008274705D01*
X046480201Y008274705D02*
X046499264Y008258314D01*
X046499264Y008258314D02*
X046522241Y008247995D01*
X046522241Y008247995D02*
X046546338Y008245860D01*
X046546338Y008245860D02*
X046568760Y008254027D01*
X046568760Y008254027D02*
X046586712Y008274609D01*
X046586712Y008274609D02*
X046599142Y008333389D01*
X046599142Y008333389D02*
X046538645Y008333523D01*
X046728238Y008249288D02*
X046804429Y008439121D01*
X046804429Y008439121D02*
X046886695Y008249288D01*
X046766664Y008323334D02*
X046844573Y008323334D01*
X047006426Y008439121D02*
X047162149Y008439121D01*
X047086600Y008439121D02*
X047086600Y008249288D01*
X047299243Y008439121D02*
X047299243Y008249288D01*
X047299243Y008439121D02*
X047422974Y008439121D01*
X047299243Y008344205D02*
X047385854Y008344205D01*
X047299243Y008249288D02*
X047422974Y008249288D01*
X047553642Y008190032D02*
X047722216Y008190032D01*
X047850218Y008249288D02*
X047850218Y008435539D01*
X047850218Y008435539D02*
X047888434Y008439121D01*
X047888434Y008439121D02*
X047922620Y008436882D01*
X047922620Y008436882D02*
X047944849Y008430856D01*
X047944849Y008430856D02*
X047954789Y008425986D01*
X047954789Y008425986D02*
X047970641Y008411700D01*
X047970641Y008411700D02*
X047977685Y008396356D01*
X047977685Y008396356D02*
X047979281Y008373925D01*
X047979281Y008373925D02*
X047972964Y008359823D01*
X047972964Y008359823D02*
X047963105Y008352028D01*
X047963105Y008352028D02*
X047947384Y008345778D01*
X047947384Y008345778D02*
X047924647Y008341296D01*
X047924647Y008341296D02*
X047893746Y008338805D01*
X047893746Y008338805D02*
X047853525Y008338528D01*
X048127449Y008439121D02*
X048127746Y008333315D01*
X048127746Y008333315D02*
X048129787Y008304532D01*
X048129787Y008304532D02*
X048135010Y008283212D01*
X048135010Y008283212D02*
X048145023Y008266996D01*
X048145023Y008266996D02*
X048158123Y008256274D01*
X048158123Y008256274D02*
X048177693Y008248530D01*
X048177693Y008248530D02*
X048202387Y008245601D01*
X048202387Y008245601D02*
X048219718Y008248533D01*
X048219718Y008248533D02*
X048233933Y008256256D01*
X048233933Y008256256D02*
X048242439Y008265304D01*
X048242439Y008265304D02*
X048246092Y008271252D01*
X048246092Y008271252D02*
X048251679Y008286416D01*
X048251679Y008286416D02*
X048254287Y008306505D01*
X048254287Y008306505D02*
X048255692Y008438835D01*
X048405227Y008439121D02*
X048405227Y008249288D01*
X048405227Y008249288D02*
X048531556Y008249288D01*
X048682048Y008439121D02*
X048682048Y008249288D01*
X048682048Y008249288D02*
X048808376Y008249288D01*
X048955793Y008249288D02*
X048957860Y008435178D01*
X048957860Y008435178D02*
X048985686Y008439121D01*
X048985686Y008439121D02*
X049007003Y008438663D01*
X049007003Y008438663D02*
X049041628Y008429298D01*
X049041628Y008429298D02*
X049067235Y008409075D01*
X049067235Y008409075D02*
X049081875Y008381845D01*
X049081875Y008381845D02*
X049087711Y008353610D01*
X049087711Y008353610D02*
X049088273Y008332352D01*
X049088273Y008332352D02*
X049085604Y008314133D01*
X049085604Y008314133D02*
X049080143Y008298723D01*
X049080143Y008298723D02*
X049062611Y008275405D01*
X049062611Y008275405D02*
X049039205Y008260561D01*
X049039205Y008260561D02*
X049000802Y008250159D01*
X049000802Y008250159D02*
X048955793Y008249288D01*
X049295008Y008245860D02*
X049270127Y008253601D01*
X049270127Y008253601D02*
X049247382Y008277154D01*
X049247382Y008277154D02*
X049230563Y008357095D01*
X049230563Y008357095D02*
X049246584Y008416929D01*
X049246584Y008416929D02*
X049266240Y008433970D01*
X049266240Y008433970D02*
X049300275Y008442812D01*
X049300275Y008442812D02*
X049332318Y008432198D01*
X049332318Y008432198D02*
X049351078Y008412799D01*
X049351078Y008412799D02*
X049367145Y008339918D01*
X049367145Y008339918D02*
X049359149Y008293905D01*
X049359149Y008293905D02*
X049344900Y008267313D01*
X049344900Y008267313D02*
X049319590Y008249200D01*
X049319590Y008249200D02*
X049295008Y008245860D01*
X049491387Y008439121D02*
X049513731Y008251694D01*
X049513731Y008251694D02*
X049571243Y008382592D01*
X049571243Y008382592D02*
X049632859Y008249288D01*
X049632859Y008249288D02*
X049659962Y008439121D01*
X049787212Y008249288D02*
X049787212Y008439121D01*
X049787212Y008439121D02*
X049917779Y008249288D01*
X049917779Y008249288D02*
X049915217Y008439121D01*
D36*
X-16087500Y040100000D02*
X-18625000Y040100000D01*
X-18625000Y037900000D01*
X-16087500Y037900000D01*
D41*
X-18097558Y040622443D02*
X-18106135Y040643345D01*
X-18106135Y040643345D02*
X-18121867Y040658145D01*
X-18121867Y040658145D02*
X-18151661Y040667812D01*
X-18151661Y040667812D02*
X-18173678Y040664860D01*
X-18173678Y040664860D02*
X-18193080Y040654951D01*
X-18193080Y040654951D02*
X-18212026Y040632079D01*
X-18212026Y040632079D02*
X-18225254Y040572044D01*
X-18225254Y040572044D02*
X-18214873Y040511692D01*
X-18214873Y040511692D02*
X-18199387Y040487389D01*
X-18199387Y040487389D02*
X-18183286Y040476016D01*
X-18183286Y040476016D02*
X-18151920Y040470860D01*
X-18151920Y040470860D02*
X-18124585Y040477450D01*
X-18124585Y040477450D02*
X-18104345Y040496680D01*
X-18104345Y040496680D02*
X-18097558Y040523822D01*
X-17968873Y040415032D02*
X-17800298Y040415032D01*
X-17684259Y040664121D02*
X-17602429Y040474288D01*
X-17602429Y040474288D02*
X-17531270Y040664121D01*
X-17394245Y040664121D02*
X-17394245Y040567884D01*
X-17394245Y040567884D02*
X-17340288Y040580540D01*
X-17340288Y040580540D02*
X-17301762Y040575779D01*
X-17301762Y040575779D02*
X-17286431Y040567187D01*
X-17286431Y040567187D02*
X-17275783Y040554995D01*
X-17275783Y040554995D02*
X-17267643Y040521768D01*
X-17267643Y040521768D02*
X-17271493Y040504506D01*
X-17271493Y040504506D02*
X-17281594Y040490921D01*
X-17281594Y040490921D02*
X-17301445Y040478304D01*
X-17301445Y040478304D02*
X-17324387Y040471666D01*
X-17324387Y040471666D02*
X-17345959Y040470601D01*
X-17345959Y040470601D02*
X-17364127Y040474065D01*
X-17364127Y040474065D02*
X-17378812Y040480858D01*
X-17378812Y040480858D02*
X-17394245Y040494830D01*
X-17394245Y040664121D02*
X-17267643Y040664121D01*
X-17138410Y040415032D02*
X-16969836Y040415032D01*
X-16843679Y040474288D02*
X-16843679Y040661893D01*
X-16843679Y040661893D02*
X-16802970Y040664121D01*
X-16802970Y040664121D02*
X-16765694Y040657570D01*
X-16765694Y040657570D02*
X-16740579Y040635582D01*
X-16740579Y040635582D02*
X-16744487Y040603436D01*
X-16744487Y040603436D02*
X-16774038Y040586234D01*
X-16774038Y040586234D02*
X-16837866Y040578851D01*
X-16837866Y040578851D02*
X-16775804Y040574958D01*
X-16775804Y040574958D02*
X-16730304Y040558712D01*
X-16730304Y040558712D02*
X-16710925Y040533736D01*
X-16710925Y040533736D02*
X-16712518Y040501434D01*
X-16712518Y040501434D02*
X-16721240Y040487165D01*
X-16721240Y040487165D02*
X-16742996Y040475569D01*
X-16742996Y040475569D02*
X-16843679Y040474288D01*
X-16564603Y040664121D02*
X-16564306Y040558315D01*
X-16564306Y040558315D02*
X-16562265Y040529532D01*
X-16562265Y040529532D02*
X-16557042Y040508212D01*
X-16557042Y040508212D02*
X-16547029Y040491996D01*
X-16547029Y040491996D02*
X-16533929Y040481274D01*
X-16533929Y040481274D02*
X-16514359Y040473530D01*
X-16514359Y040473530D02*
X-16489665Y040470601D01*
X-16489665Y040470601D02*
X-16472334Y040473533D01*
X-16472334Y040473533D02*
X-16458119Y040481256D01*
X-16458119Y040481256D02*
X-16449613Y040490304D01*
X-16449613Y040490304D02*
X-16445960Y040496252D01*
X-16445960Y040496252D02*
X-16440373Y040511416D01*
X-16440373Y040511416D02*
X-16437765Y040531505D01*
X-16437765Y040531505D02*
X-16436360Y040663835D01*
X-16286825Y040664121D02*
X-16286825Y040474288D01*
X-16286825Y040474288D02*
X-16160496Y040474288D01*
X-16021215Y040664121D02*
X-16021215Y040474288D01*
X-15890495Y040651466D02*
X-16021215Y040547410D01*
X-15971632Y040576939D02*
X-15872465Y040478507D01*
D36*
X-12175000Y039875000D02*
X-14425000Y039875000D01*
X-14425000Y038125000D01*
X-12175000Y038125000D01*
D41*
X-14374379Y040397443D02*
X-14382955Y040418345D01*
X-14382955Y040418345D02*
X-14398688Y040433145D01*
X-14398688Y040433145D02*
X-14428482Y040442812D01*
X-14428482Y040442812D02*
X-14450499Y040439860D01*
X-14450499Y040439860D02*
X-14469901Y040429951D01*
X-14469901Y040429951D02*
X-14488846Y040407079D01*
X-14488846Y040407079D02*
X-14502075Y040347044D01*
X-14502075Y040347044D02*
X-14491694Y040286692D01*
X-14491694Y040286692D02*
X-14476208Y040262389D01*
X-14476208Y040262389D02*
X-14460107Y040251016D01*
X-14460107Y040251016D02*
X-14428741Y040245860D01*
X-14428741Y040245860D02*
X-14401406Y040252450D01*
X-14401406Y040252450D02*
X-14381166Y040271680D01*
X-14381166Y040271680D02*
X-14374379Y040298822D01*
X-14245694Y040190032D02*
X-14077119Y040190032D01*
X-13961080Y040439121D02*
X-13879250Y040249288D01*
X-13879250Y040249288D02*
X-13808091Y040439121D01*
X-13671066Y040439121D02*
X-13671066Y040342884D01*
X-13671066Y040342884D02*
X-13617109Y040355540D01*
X-13617109Y040355540D02*
X-13578583Y040350779D01*
X-13578583Y040350779D02*
X-13563251Y040342187D01*
X-13563251Y040342187D02*
X-13552604Y040329995D01*
X-13552604Y040329995D02*
X-13544464Y040296768D01*
X-13544464Y040296768D02*
X-13548313Y040279506D01*
X-13548313Y040279506D02*
X-13558415Y040265921D01*
X-13558415Y040265921D02*
X-13578266Y040253304D01*
X-13578266Y040253304D02*
X-13601207Y040246666D01*
X-13601207Y040246666D02*
X-13622780Y040245601D01*
X-13622780Y040245601D02*
X-13640948Y040249065D01*
X-13640948Y040249065D02*
X-13655633Y040255858D01*
X-13655633Y040255858D02*
X-13671066Y040269830D01*
X-13671066Y040439121D02*
X-13544464Y040439121D01*
X-13415231Y040190032D02*
X-13246657Y040190032D01*
X-13120500Y040249288D02*
X-13120500Y040436893D01*
X-13120500Y040436893D02*
X-13079791Y040439121D01*
X-13079791Y040439121D02*
X-13042514Y040432570D01*
X-13042514Y040432570D02*
X-13017400Y040410582D01*
X-13017400Y040410582D02*
X-13021308Y040378436D01*
X-13021308Y040378436D02*
X-13050858Y040361234D01*
X-13050858Y040361234D02*
X-13114687Y040353851D01*
X-13114687Y040353851D02*
X-13052625Y040349958D01*
X-13052625Y040349958D02*
X-13007125Y040333712D01*
X-13007125Y040333712D02*
X-12987746Y040308736D01*
X-12987746Y040308736D02*
X-12989338Y040276434D01*
X-12989338Y040276434D02*
X-12998061Y040262165D01*
X-12998061Y040262165D02*
X-13019816Y040250569D01*
X-13019816Y040250569D02*
X-13120500Y040249288D01*
X-12856531Y040439121D02*
X-12779513Y040354242D01*
X-12698074Y040438851D02*
X-12779002Y040353703D01*
X-12779002Y040353703D02*
X-12776112Y040249288D01*
X-12565013Y040249288D02*
X-12565013Y040435539D01*
X-12565013Y040435539D02*
X-12526798Y040439121D01*
X-12526798Y040439121D02*
X-12492611Y040436882D01*
X-12492611Y040436882D02*
X-12470382Y040430856D01*
X-12470382Y040430856D02*
X-12460443Y040425986D01*
X-12460443Y040425986D02*
X-12444590Y040411700D01*
X-12444590Y040411700D02*
X-12437546Y040396356D01*
X-12437546Y040396356D02*
X-12435950Y040373925D01*
X-12435950Y040373925D02*
X-12442267Y040359823D01*
X-12442267Y040359823D02*
X-12452126Y040352028D01*
X-12452126Y040352028D02*
X-12467847Y040345778D01*
X-12467847Y040345778D02*
X-12490584Y040341296D01*
X-12490584Y040341296D02*
X-12521485Y040338805D01*
X-12521485Y040338805D02*
X-12561706Y040338528D01*
X-12302889Y040249288D02*
X-12226698Y040439121D01*
X-12226698Y040439121D02*
X-12144432Y040249288D01*
X-12264463Y040323334D02*
X-12186555Y040323334D01*
X-11895877Y040412987D02*
X-11916996Y040440106D01*
X-11916996Y040440106D02*
X-11967055Y040442812D01*
X-11967055Y040442812D02*
X-11995113Y040423282D01*
X-11995113Y040423282D02*
X-12006568Y040387449D01*
X-12006568Y040387449D02*
X-12001824Y040369756D01*
X-12001824Y040369756D02*
X-11984072Y040354474D01*
X-11984072Y040354474D02*
X-11913729Y040342151D01*
X-11913729Y040342151D02*
X-11890064Y040327584D01*
X-11890064Y040327584D02*
X-11881283Y040302389D01*
X-11881283Y040302389D02*
X-11892850Y040262985D01*
X-11892850Y040262985D02*
X-11928180Y040245860D01*
X-11928180Y040245860D02*
X-11973605Y040247135D01*
X-11973605Y040247135D02*
X-11998448Y040261029D01*
X-11998448Y040261029D02*
X-12012397Y040293706D01*
X-11619056Y040412987D02*
X-11640175Y040440106D01*
X-11640175Y040440106D02*
X-11690234Y040442812D01*
X-11690234Y040442812D02*
X-11718292Y040423282D01*
X-11718292Y040423282D02*
X-11729747Y040387449D01*
X-11729747Y040387449D02*
X-11725003Y040369756D01*
X-11725003Y040369756D02*
X-11707251Y040354474D01*
X-11707251Y040354474D02*
X-11636908Y040342151D01*
X-11636908Y040342151D02*
X-11613244Y040327584D01*
X-11613244Y040327584D02*
X-11604462Y040302389D01*
X-11604462Y040302389D02*
X-11616030Y040262985D01*
X-11616030Y040262985D02*
X-11651359Y040245860D01*
X-11651359Y040245860D02*
X-11696784Y040247135D01*
X-11696784Y040247135D02*
X-11721627Y040261029D01*
X-11721627Y040261029D02*
X-11735576Y040293706D01*
D31*
X032060000Y-50027000D02*
X047940000Y-50027000D01*
X047940000Y-29067000D01*
X032060000Y-29067000D01*
X032060000Y-50027000D01*
D34*
X043059786Y-30444273D02*
X043059786Y-30017149D01*
X043056712Y-30441368D02*
X042789390Y-30441368D01*
X043056712Y-30232163D02*
X042832407Y-30232163D01*
X042480005Y-30017149D02*
X042308574Y-30444273D01*
X042308574Y-30444273D02*
X042123476Y-30017149D01*
X042393546Y-30183752D02*
X042218252Y-30183752D01*
X041759028Y-30182798D02*
X041598759Y-30182798D01*
X041056048Y-30452578D02*
X041115540Y-30436467D01*
X041115540Y-30436467D02*
X041168807Y-30387377D01*
X041168807Y-30387377D02*
X041197862Y-30316102D01*
X041197862Y-30316102D02*
X041204780Y-30210401D01*
X041204780Y-30210401D02*
X041188177Y-30121779D01*
X041188177Y-30121779D02*
X041145287Y-30048338D01*
X041145287Y-30048338D02*
X041083718Y-30009435D01*
X041083718Y-30009435D02*
X041028376Y-30009435D01*
X041028376Y-30009435D02*
X040966806Y-30048338D01*
X040966806Y-30048338D02*
X040923917Y-30121779D01*
X040923917Y-30121779D02*
X040907314Y-30210401D01*
X040907314Y-30210401D02*
X040914231Y-30316102D01*
X040914231Y-30316102D02*
X040943286Y-30387377D01*
X040943286Y-30387377D02*
X040996554Y-30436467D01*
X040996554Y-30436467D02*
X041056048Y-30452578D01*
X040575628Y-30444273D02*
X040575628Y-30227738D01*
X040575628Y-30227738D02*
X040454224Y-30256215D01*
X040454224Y-30256215D02*
X040367541Y-30245504D01*
X040367541Y-30245504D02*
X040333046Y-30226171D01*
X040333046Y-30226171D02*
X040309089Y-30198739D01*
X040309089Y-30198739D02*
X040290773Y-30123977D01*
X040290773Y-30123977D02*
X040299435Y-30085139D01*
X040299435Y-30085139D02*
X040322164Y-30054572D01*
X040322164Y-30054572D02*
X040366829Y-30026183D01*
X040366829Y-30026183D02*
X040418446Y-30011248D01*
X040418446Y-30011248D02*
X040466985Y-30008852D01*
X040466985Y-30008852D02*
X040507862Y-30016647D01*
X040507862Y-30016647D02*
X040540904Y-30031930D01*
X040540904Y-30031930D02*
X040575628Y-30063368D01*
X040575628Y-30444273D02*
X040290773Y-30444273D01*
X039336547Y-30017149D02*
X039331895Y-30435401D01*
X039331895Y-30435401D02*
X039269286Y-30444273D01*
X039269286Y-30444273D02*
X039221324Y-30443241D01*
X039221324Y-30443241D02*
X039143417Y-30422171D01*
X039143417Y-30422171D02*
X039085803Y-30376668D01*
X039085803Y-30376668D02*
X039052862Y-30315400D01*
X039052862Y-30315400D02*
X039039731Y-30251873D01*
X039039731Y-30251873D02*
X039038466Y-30204043D01*
X039038466Y-30204043D02*
X039044472Y-30163050D01*
X039044472Y-30163050D02*
X039056759Y-30128376D01*
X039056759Y-30128376D02*
X039096206Y-30075912D01*
X039096206Y-30075912D02*
X039148869Y-30042513D01*
X039148869Y-30042513D02*
X039235275Y-30019107D01*
X039235275Y-30019107D02*
X039336547Y-30017149D01*
X038742924Y-30017149D02*
X038571494Y-30444273D01*
X038571494Y-30444273D02*
X038386395Y-30017149D01*
X038656466Y-30183752D02*
X038481171Y-30183752D01*
X038117002Y-30444273D02*
X037766625Y-30444273D01*
X037936611Y-30444273D02*
X037936611Y-30017149D01*
X037497231Y-30017149D02*
X037325800Y-30444273D01*
X037325800Y-30444273D02*
X037140702Y-30017149D01*
X037410772Y-30183752D02*
X037235478Y-30183752D01*
D31*
X042900000Y-15700000D02*
X053100000Y-15700000D01*
X053100000Y-08300000D01*
X042900000Y-08300000D01*
X042900000Y-15700000D01*
D31*
X045300000Y-09500000D02*
X045295722Y-09434737D01*
X045282963Y-09370590D01*
X045261940Y-09308658D01*
X045233013Y-09250000D01*
X045196677Y-09195619D01*
X045153553Y-09146447D01*
X045104381Y-09103323D01*
X045050000Y-09066987D01*
X044991342Y-09038060D01*
X044929410Y-09017037D01*
X044865263Y-09004278D01*
X044800000Y-09000000D01*
X044734737Y-09004278D01*
X044670590Y-09017037D01*
X044608658Y-09038060D01*
X044550000Y-09066987D01*
X044495619Y-09103323D01*
X044446447Y-09146447D01*
X044403323Y-09195619D01*
X044366987Y-09250000D01*
X044338060Y-09308658D01*
X044317037Y-09370590D01*
X044304278Y-09434737D01*
X044300000Y-09500000D01*
X044304278Y-09565263D01*
X044317037Y-09629410D01*
X044338060Y-09691342D01*
X044366987Y-09750000D01*
X044403323Y-09804381D01*
X044446447Y-09853553D01*
X044495619Y-09896677D01*
X044550000Y-09933013D01*
X044608658Y-09961940D01*
X044670590Y-09982963D01*
X044734737Y-09995722D01*
X044800000Y-10000000D01*
X044865263Y-09995722D01*
X044929410Y-09982963D01*
X044991342Y-09961940D01*
X045050000Y-09933013D01*
X045104381Y-09896677D01*
X045153553Y-09853553D01*
X045196677Y-09804381D01*
X045233013Y-09750000D01*
X045261940Y-09691342D01*
X045282963Y-09629410D01*
X045295722Y-09565263D01*
X045300000Y-09500000D01*
D40*
X047772936Y-05265000D02*
X048227064Y-05265000D01*
D40*
X047772936Y-06735000D02*
X048227064Y-06735000D01*
D41*
X045103157Y-04524351D02*
X045103157Y-04340796D01*
X045103157Y-04340796D02*
X045156977Y-04335879D01*
X045156977Y-04335879D02*
X045194752Y-04337523D01*
X045194752Y-04337523D02*
X045217540Y-04342574D01*
X045217540Y-04342574D02*
X045227122Y-04346692D01*
X045227122Y-04346692D02*
X045235008Y-04352052D01*
X045235008Y-04352052D02*
X045240834Y-04358789D01*
X045240834Y-04358789D02*
X045245971Y-04377057D01*
X045245971Y-04377057D02*
X045245489Y-04393258D01*
X045245489Y-04393258D02*
X045240231Y-04404989D01*
X045240231Y-04404989D02*
X045230794Y-04413025D01*
X045230794Y-04413025D02*
X045217776Y-04418144D01*
X045217776Y-04418144D02*
X045192836Y-04422047D01*
X045192836Y-04422047D02*
X045106724Y-04425096D01*
X045178237Y-04432846D02*
X045252181Y-04525712D01*
X045370202Y-04584968D02*
X045538777Y-04584968D01*
X045671222Y-04335879D02*
X045671222Y-04525712D01*
X045672588Y-04337170D02*
X045791398Y-04337170D01*
X045672588Y-04430150D02*
X045772280Y-04430150D01*
X045928903Y-04525712D02*
X046005094Y-04335879D01*
X046005094Y-04335879D02*
X046087360Y-04525712D01*
X045967329Y-04451666D02*
X046045237Y-04451666D01*
X046208458Y-04335879D02*
X046290288Y-04525712D01*
X046290288Y-04525712D02*
X046361446Y-04335879D01*
X046499907Y-04335879D02*
X046499907Y-04525712D01*
X046499907Y-04335879D02*
X046623638Y-04335879D01*
X046499907Y-04430795D02*
X046586519Y-04430795D01*
X046499907Y-04525712D02*
X046623638Y-04525712D01*
X046764082Y-04524351D02*
X046764082Y-04340796D01*
X046764082Y-04340796D02*
X046817902Y-04335879D01*
X046817902Y-04335879D02*
X046855677Y-04337523D01*
X046855677Y-04337523D02*
X046878465Y-04342574D01*
X046878465Y-04342574D02*
X046888047Y-04346692D01*
X046888047Y-04346692D02*
X046895933Y-04352052D01*
X046895933Y-04352052D02*
X046901759Y-04358789D01*
X046901759Y-04358789D02*
X046906896Y-04377057D01*
X046906896Y-04377057D02*
X046906414Y-04393258D01*
X046906414Y-04393258D02*
X046901156Y-04404989D01*
X046901156Y-04404989D02*
X046891719Y-04413025D01*
X046891719Y-04413025D02*
X046878701Y-04418144D01*
X046878701Y-04418144D02*
X046853761Y-04422047D01*
X046853761Y-04422047D02*
X046767649Y-04425096D01*
X046839162Y-04432846D02*
X046913106Y-04525712D01*
X047111569Y-04529140D02*
X047086688Y-04521399D01*
X047086688Y-04521399D02*
X047063943Y-04497846D01*
X047063943Y-04497846D02*
X047047123Y-04417905D01*
X047047123Y-04417905D02*
X047063145Y-04358071D01*
X047063145Y-04358071D02*
X047082801Y-04341030D01*
X047082801Y-04341030D02*
X047116835Y-04332188D01*
X047116835Y-04332188D02*
X047148878Y-04342802D01*
X047148878Y-04342802D02*
X047167639Y-04362201D01*
X047167639Y-04362201D02*
X047183706Y-04435082D01*
X047183706Y-04435082D02*
X047175710Y-04481095D01*
X047175710Y-04481095D02*
X047161460Y-04507687D01*
X047161460Y-04507687D02*
X047136151Y-04525800D01*
X047136151Y-04525800D02*
X047111569Y-04529140D01*
X047307948Y-04584968D02*
X047476523Y-04584968D01*
X047602816Y-04525712D02*
X047604883Y-04339822D01*
X047604883Y-04339822D02*
X047632710Y-04335879D01*
X047632710Y-04335879D02*
X047654026Y-04336337D01*
X047654026Y-04336337D02*
X047688652Y-04345702D01*
X047688652Y-04345702D02*
X047714258Y-04365925D01*
X047714258Y-04365925D02*
X047728898Y-04393155D01*
X047728898Y-04393155D02*
X047734734Y-04421390D01*
X047734734Y-04421390D02*
X047735297Y-04442648D01*
X047735297Y-04442648D02*
X047732627Y-04460867D01*
X047732627Y-04460867D02*
X047727166Y-04476277D01*
X047727166Y-04476277D02*
X047709634Y-04499595D01*
X047709634Y-04499595D02*
X047686228Y-04514439D01*
X047686228Y-04514439D02*
X047647826Y-04524841D01*
X047647826Y-04524841D02*
X047602816Y-04525712D01*
X047866648Y-04525712D02*
X047942840Y-04335879D01*
X047942840Y-04335879D02*
X048025106Y-04525712D01*
X047905074Y-04451666D02*
X047982983Y-04451666D01*
X048144836Y-04335879D02*
X048300559Y-04335879D01*
X048225010Y-04335879D02*
X048225010Y-04525712D01*
X048420290Y-04525712D02*
X048496481Y-04335879D01*
X048496481Y-04335879D02*
X048578747Y-04525712D01*
X048458716Y-04451666D02*
X048536625Y-04451666D01*
X048692052Y-04584968D02*
X048860627Y-04584968D01*
X049030592Y-04374366D02*
X049075728Y-04335879D01*
X049075728Y-04335879D02*
X049075728Y-04525710D01*
X049245694Y-04584968D02*
X049414268Y-04584968D01*
X049606802Y-04335879D02*
X049606802Y-04525712D01*
X049818339Y-04525712D02*
X049818339Y-04335879D01*
X049818339Y-04335879D02*
X049948906Y-04525712D01*
X049948906Y-04525712D02*
X049946344Y-04335879D01*
X050095912Y-04525712D02*
X050095912Y-04339461D01*
X050095912Y-04339461D02*
X050134127Y-04335879D01*
X050134127Y-04335879D02*
X050168314Y-04338118D01*
X050168314Y-04338118D02*
X050190543Y-04344144D01*
X050190543Y-04344144D02*
X050200482Y-04349014D01*
X050200482Y-04349014D02*
X050216334Y-04363300D01*
X050216334Y-04363300D02*
X050223379Y-04378644D01*
X050223379Y-04378644D02*
X050224975Y-04401075D01*
X050224975Y-04401075D02*
X050218658Y-04415177D01*
X050218658Y-04415177D02*
X050208799Y-04422972D01*
X050208799Y-04422972D02*
X050193078Y-04429222D01*
X050193078Y-04429222D02*
X050170341Y-04433704D01*
X050170341Y-04433704D02*
X050139440Y-04436195D01*
X050139440Y-04436195D02*
X050099219Y-04436472D01*
X050373143Y-04335879D02*
X050373439Y-04441685D01*
X050373439Y-04441685D02*
X050375481Y-04470468D01*
X050375481Y-04470468D02*
X050380704Y-04491788D01*
X050380704Y-04491788D02*
X050390717Y-04508004D01*
X050390717Y-04508004D02*
X050403817Y-04518726D01*
X050403817Y-04518726D02*
X050423387Y-04526470D01*
X050423387Y-04526470D02*
X050448080Y-04529399D01*
X050448080Y-04529399D02*
X050465412Y-04526467D01*
X050465412Y-04526467D02*
X050479626Y-04518744D01*
X050479626Y-04518744D02*
X050488133Y-04509696D01*
X050488133Y-04509696D02*
X050491785Y-04503748D01*
X050491785Y-04503748D02*
X050497373Y-04488584D01*
X050497373Y-04488584D02*
X050499981Y-04468495D01*
X050499981Y-04468495D02*
X050501385Y-04336165D01*
X050636223Y-04335879D02*
X050791946Y-04335879D01*
X050716397Y-04335879D02*
X050716397Y-04525712D01*
D40*
X034772936Y-14265000D02*
X035227064Y-14265000D01*
D40*
X034772936Y-15735000D02*
X035227064Y-15735000D01*
D41*
X032241567Y-13524351D02*
X032241567Y-13340796D01*
X032241567Y-13340796D02*
X032295388Y-13335879D01*
X032295388Y-13335879D02*
X032333163Y-13337523D01*
X032333163Y-13337523D02*
X032355950Y-13342574D01*
X032355950Y-13342574D02*
X032365532Y-13346692D01*
X032365532Y-13346692D02*
X032373419Y-13352052D01*
X032373419Y-13352052D02*
X032379244Y-13358789D01*
X032379244Y-13358789D02*
X032384382Y-13377057D01*
X032384382Y-13377057D02*
X032383899Y-13393258D01*
X032383899Y-13393258D02*
X032378642Y-13404989D01*
X032378642Y-13404989D02*
X032369205Y-13413025D01*
X032369205Y-13413025D02*
X032356186Y-13418144D01*
X032356186Y-13418144D02*
X032331247Y-13422047D01*
X032331247Y-13422047D02*
X032245135Y-13425096D01*
X032316647Y-13432846D02*
X032390591Y-13525712D01*
X032508613Y-13584968D02*
X032677187Y-13584968D01*
X032809633Y-13335879D02*
X032809633Y-13525712D01*
X032810999Y-13337170D02*
X032929809Y-13337170D01*
X032810999Y-13430150D02*
X032910690Y-13430150D01*
X033067313Y-13525712D02*
X033143505Y-13335879D01*
X033143505Y-13335879D02*
X033225770Y-13525712D01*
X033105739Y-13451666D02*
X033183648Y-13451666D01*
X033346868Y-13335879D02*
X033428698Y-13525712D01*
X033428698Y-13525712D02*
X033499857Y-13335879D01*
X033638318Y-13335879D02*
X033638318Y-13525712D01*
X033638318Y-13335879D02*
X033762049Y-13335879D01*
X033638318Y-13430795D02*
X033724929Y-13430795D01*
X033638318Y-13525712D02*
X033762049Y-13525712D01*
X033902492Y-13524351D02*
X033902492Y-13340796D01*
X033902492Y-13340796D02*
X033956312Y-13335879D01*
X033956312Y-13335879D02*
X033994087Y-13337523D01*
X033994087Y-13337523D02*
X034016875Y-13342574D01*
X034016875Y-13342574D02*
X034026457Y-13346692D01*
X034026457Y-13346692D02*
X034034343Y-13352052D01*
X034034343Y-13352052D02*
X034040169Y-13358789D01*
X034040169Y-13358789D02*
X034045306Y-13377057D01*
X034045306Y-13377057D02*
X034044824Y-13393258D01*
X034044824Y-13393258D02*
X034039566Y-13404989D01*
X034039566Y-13404989D02*
X034030130Y-13413025D01*
X034030130Y-13413025D02*
X034017111Y-13418144D01*
X034017111Y-13418144D02*
X033992171Y-13422047D01*
X033992171Y-13422047D02*
X033906060Y-13425096D01*
X033977572Y-13432846D02*
X034051516Y-13525712D01*
X034249980Y-13529140D02*
X034225098Y-13521399D01*
X034225098Y-13521399D02*
X034202354Y-13497846D01*
X034202354Y-13497846D02*
X034185534Y-13417905D01*
X034185534Y-13417905D02*
X034201555Y-13358071D01*
X034201555Y-13358071D02*
X034221212Y-13341030D01*
X034221212Y-13341030D02*
X034255246Y-13332188D01*
X034255246Y-13332188D02*
X034287289Y-13342802D01*
X034287289Y-13342802D02*
X034306050Y-13362201D01*
X034306050Y-13362201D02*
X034322116Y-13435082D01*
X034322116Y-13435082D02*
X034314120Y-13481095D01*
X034314120Y-13481095D02*
X034299871Y-13507687D01*
X034299871Y-13507687D02*
X034274561Y-13525800D01*
X034274561Y-13525800D02*
X034249980Y-13529140D01*
X034446358Y-13584968D02*
X034614933Y-13584968D01*
X034741226Y-13525712D02*
X034743294Y-13339822D01*
X034743294Y-13339822D02*
X034771120Y-13335879D01*
X034771120Y-13335879D02*
X034792437Y-13336337D01*
X034792437Y-13336337D02*
X034827062Y-13345702D01*
X034827062Y-13345702D02*
X034852668Y-13365925D01*
X034852668Y-13365925D02*
X034867309Y-13393155D01*
X034867309Y-13393155D02*
X034873145Y-13421390D01*
X034873145Y-13421390D02*
X034873707Y-13442648D01*
X034873707Y-13442648D02*
X034871037Y-13460867D01*
X034871037Y-13460867D02*
X034865577Y-13476277D01*
X034865577Y-13476277D02*
X034848045Y-13499595D01*
X034848045Y-13499595D02*
X034824639Y-13514439D01*
X034824639Y-13514439D02*
X034786236Y-13524841D01*
X034786236Y-13524841D02*
X034741226Y-13525712D01*
X035005059Y-13525712D02*
X035081250Y-13335879D01*
X035081250Y-13335879D02*
X035163516Y-13525712D01*
X035043485Y-13451666D02*
X035121393Y-13451666D01*
X035283247Y-13335879D02*
X035438970Y-13335879D01*
X035363420Y-13335879D02*
X035363420Y-13525712D01*
X035558700Y-13525712D02*
X035634892Y-13335879D01*
X035634892Y-13335879D02*
X035717158Y-13525712D01*
X035597126Y-13451666D02*
X035675035Y-13451666D01*
X035830462Y-13584968D02*
X035999037Y-13584968D01*
X036169002Y-13374366D02*
X036214138Y-13335879D01*
X036214138Y-13335879D02*
X036214138Y-13525710D01*
X036384104Y-13584968D02*
X036552679Y-13584968D01*
X036682048Y-13335879D02*
X036682048Y-13525712D01*
X036682048Y-13525712D02*
X036808376Y-13525712D01*
X037018188Y-13529140D02*
X036993306Y-13521399D01*
X036993306Y-13521399D02*
X036970562Y-13497846D01*
X036970562Y-13497846D02*
X036953742Y-13417905D01*
X036953742Y-13417905D02*
X036969763Y-13358071D01*
X036969763Y-13358071D02*
X036989420Y-13341030D01*
X036989420Y-13341030D02*
X037023454Y-13332188D01*
X037023454Y-13332188D02*
X037055497Y-13342802D01*
X037055497Y-13342802D02*
X037074258Y-13362201D01*
X037074258Y-13362201D02*
X037090324Y-13435082D01*
X037090324Y-13435082D02*
X037082328Y-13481095D01*
X037082328Y-13481095D02*
X037068079Y-13507687D01*
X037068079Y-13507687D02*
X037042769Y-13525800D01*
X037042769Y-13525800D02*
X037018188Y-13529140D01*
X037295008Y-13529140D02*
X037270127Y-13521399D01*
X037270127Y-13521399D02*
X037247382Y-13497846D01*
X037247382Y-13497846D02*
X037230563Y-13417905D01*
X037230563Y-13417905D02*
X037246584Y-13358071D01*
X037246584Y-13358071D02*
X037266240Y-13341030D01*
X037266240Y-13341030D02*
X037300275Y-13332188D01*
X037300275Y-13332188D02*
X037332318Y-13342802D01*
X037332318Y-13342802D02*
X037351078Y-13362201D01*
X037351078Y-13362201D02*
X037367145Y-13435082D01*
X037367145Y-13435082D02*
X037359149Y-13481095D01*
X037359149Y-13481095D02*
X037344900Y-13507687D01*
X037344900Y-13507687D02*
X037319590Y-13525800D01*
X037319590Y-13525800D02*
X037295008Y-13529140D01*
X037511143Y-13525712D02*
X037511143Y-13339461D01*
X037511143Y-13339461D02*
X037549358Y-13335879D01*
X037549358Y-13335879D02*
X037583545Y-13338118D01*
X037583545Y-13338118D02*
X037605774Y-13344144D01*
X037605774Y-13344144D02*
X037615713Y-13349014D01*
X037615713Y-13349014D02*
X037631566Y-13363300D01*
X037631566Y-13363300D02*
X037638610Y-13378644D01*
X037638610Y-13378644D02*
X037640206Y-13401075D01*
X037640206Y-13401075D02*
X037633889Y-13415177D01*
X037633889Y-13415177D02*
X037624030Y-13422972D01*
X037624030Y-13422972D02*
X037608309Y-13429222D01*
X037608309Y-13429222D02*
X037585572Y-13433704D01*
X037585572Y-13433704D02*
X037554671Y-13436195D01*
X037554671Y-13436195D02*
X037514450Y-13436472D01*
D40*
X056772936Y-07265000D02*
X057227064Y-07265000D01*
D40*
X056772936Y-08735000D02*
X057227064Y-08735000D01*
D41*
X054241567Y-06524351D02*
X054241567Y-06340796D01*
X054241567Y-06340796D02*
X054295388Y-06335879D01*
X054295388Y-06335879D02*
X054333163Y-06337523D01*
X054333163Y-06337523D02*
X054355950Y-06342574D01*
X054355950Y-06342574D02*
X054365532Y-06346692D01*
X054365532Y-06346692D02*
X054373419Y-06352052D01*
X054373419Y-06352052D02*
X054379244Y-06358789D01*
X054379244Y-06358789D02*
X054384382Y-06377057D01*
X054384382Y-06377057D02*
X054383899Y-06393258D01*
X054383899Y-06393258D02*
X054378642Y-06404989D01*
X054378642Y-06404989D02*
X054369205Y-06413025D01*
X054369205Y-06413025D02*
X054356186Y-06418144D01*
X054356186Y-06418144D02*
X054331247Y-06422047D01*
X054331247Y-06422047D02*
X054245135Y-06425096D01*
X054316647Y-06432846D02*
X054390591Y-06525712D01*
X054508613Y-06584968D02*
X054677187Y-06584968D01*
X054809633Y-06335879D02*
X054809633Y-06525712D01*
X054810999Y-06337170D02*
X054929809Y-06337170D01*
X054810999Y-06430150D02*
X054910690Y-06430150D01*
X055067313Y-06525712D02*
X055143505Y-06335879D01*
X055143505Y-06335879D02*
X055225770Y-06525712D01*
X055105739Y-06451666D02*
X055183648Y-06451666D01*
X055346868Y-06335879D02*
X055428698Y-06525712D01*
X055428698Y-06525712D02*
X055499857Y-06335879D01*
X055638318Y-06335879D02*
X055638318Y-06525712D01*
X055638318Y-06335879D02*
X055762049Y-06335879D01*
X055638318Y-06430795D02*
X055724929Y-06430795D01*
X055638318Y-06525712D02*
X055762049Y-06525712D01*
X055902492Y-06524351D02*
X055902492Y-06340796D01*
X055902492Y-06340796D02*
X055956312Y-06335879D01*
X055956312Y-06335879D02*
X055994087Y-06337523D01*
X055994087Y-06337523D02*
X056016875Y-06342574D01*
X056016875Y-06342574D02*
X056026457Y-06346692D01*
X056026457Y-06346692D02*
X056034343Y-06352052D01*
X056034343Y-06352052D02*
X056040169Y-06358789D01*
X056040169Y-06358789D02*
X056045306Y-06377057D01*
X056045306Y-06377057D02*
X056044824Y-06393258D01*
X056044824Y-06393258D02*
X056039566Y-06404989D01*
X056039566Y-06404989D02*
X056030130Y-06413025D01*
X056030130Y-06413025D02*
X056017111Y-06418144D01*
X056017111Y-06418144D02*
X055992171Y-06422047D01*
X055992171Y-06422047D02*
X055906060Y-06425096D01*
X055977572Y-06432846D02*
X056051516Y-06525712D01*
X056249980Y-06529140D02*
X056225098Y-06521399D01*
X056225098Y-06521399D02*
X056202354Y-06497846D01*
X056202354Y-06497846D02*
X056185534Y-06417905D01*
X056185534Y-06417905D02*
X056201555Y-06358071D01*
X056201555Y-06358071D02*
X056221212Y-06341030D01*
X056221212Y-06341030D02*
X056255246Y-06332188D01*
X056255246Y-06332188D02*
X056287289Y-06342802D01*
X056287289Y-06342802D02*
X056306050Y-06362201D01*
X056306050Y-06362201D02*
X056322116Y-06435082D01*
X056322116Y-06435082D02*
X056314120Y-06481095D01*
X056314120Y-06481095D02*
X056299871Y-06507687D01*
X056299871Y-06507687D02*
X056274561Y-06525800D01*
X056274561Y-06525800D02*
X056249980Y-06529140D01*
X056446358Y-06584968D02*
X056614933Y-06584968D01*
X056741226Y-06525712D02*
X056743294Y-06339822D01*
X056743294Y-06339822D02*
X056771120Y-06335879D01*
X056771120Y-06335879D02*
X056792437Y-06336337D01*
X056792437Y-06336337D02*
X056827062Y-06345702D01*
X056827062Y-06345702D02*
X056852668Y-06365925D01*
X056852668Y-06365925D02*
X056867309Y-06393155D01*
X056867309Y-06393155D02*
X056873145Y-06421390D01*
X056873145Y-06421390D02*
X056873707Y-06442648D01*
X056873707Y-06442648D02*
X056871037Y-06460867D01*
X056871037Y-06460867D02*
X056865577Y-06476277D01*
X056865577Y-06476277D02*
X056848045Y-06499595D01*
X056848045Y-06499595D02*
X056824639Y-06514439D01*
X056824639Y-06514439D02*
X056786236Y-06524841D01*
X056786236Y-06524841D02*
X056741226Y-06525712D01*
X057005059Y-06525712D02*
X057081250Y-06335879D01*
X057081250Y-06335879D02*
X057163516Y-06525712D01*
X057043485Y-06451666D02*
X057121393Y-06451666D01*
X057283247Y-06335879D02*
X057438970Y-06335879D01*
X057363420Y-06335879D02*
X057363420Y-06525712D01*
X057558700Y-06525712D02*
X057634892Y-06335879D01*
X057634892Y-06335879D02*
X057717158Y-06525712D01*
X057597126Y-06451666D02*
X057675035Y-06451666D01*
X057830462Y-06584968D02*
X057999037Y-06584968D01*
X058169002Y-06374366D02*
X058214138Y-06335879D01*
X058214138Y-06335879D02*
X058214138Y-06525710D01*
X058384104Y-06584968D02*
X058552679Y-06584968D01*
X058678835Y-06525712D02*
X058678835Y-06338107D01*
X058678835Y-06338107D02*
X058719544Y-06335879D01*
X058719544Y-06335879D02*
X058756821Y-06342430D01*
X058756821Y-06342430D02*
X058781935Y-06364418D01*
X058781935Y-06364418D02*
X058778028Y-06396564D01*
X058778028Y-06396564D02*
X058748477Y-06413766D01*
X058748477Y-06413766D02*
X058684649Y-06421149D01*
X058684649Y-06421149D02*
X058746710Y-06425042D01*
X058746710Y-06425042D02*
X058792210Y-06441288D01*
X058792210Y-06441288D02*
X058811589Y-06466264D01*
X058811589Y-06466264D02*
X058809997Y-06498566D01*
X058809997Y-06498566D02*
X058801274Y-06512835D01*
X058801274Y-06512835D02*
X058779519Y-06524431D01*
X058779519Y-06524431D02*
X058678835Y-06525712D01*
X058942804Y-06525712D02*
X059018996Y-06335879D01*
X059018996Y-06335879D02*
X059101262Y-06525712D01*
X058981230Y-06451666D02*
X059059139Y-06451666D01*
X059349817Y-06362013D02*
X059328698Y-06334894D01*
X059328698Y-06334894D02*
X059278639Y-06332188D01*
X059278639Y-06332188D02*
X059250581Y-06351718D01*
X059250581Y-06351718D02*
X059239126Y-06387551D01*
X059239126Y-06387551D02*
X059243870Y-06405244D01*
X059243870Y-06405244D02*
X059261622Y-06420526D01*
X059261622Y-06420526D02*
X059331965Y-06432849D01*
X059331965Y-06432849D02*
X059355629Y-06447416D01*
X059355629Y-06447416D02*
X059364410Y-06472611D01*
X059364410Y-06472611D02*
X059352843Y-06512015D01*
X059352843Y-06512015D02*
X059317513Y-06529140D01*
X059317513Y-06529140D02*
X059272088Y-06527865D01*
X059272088Y-06527865D02*
X059247245Y-06513971D01*
X059247245Y-06513971D02*
X059233297Y-06481294D01*
X059513809Y-06335879D02*
X059513809Y-06525712D01*
X059513809Y-06335879D02*
X059637540Y-06335879D01*
X059513809Y-06430795D02*
X059600421Y-06430795D01*
X059513809Y-06525712D02*
X059637540Y-06525712D01*
D31*
X045000000Y-19300000D02*
X051000000Y-19300000D01*
X051000000Y-16700000D01*
X045000000Y-16700000D01*
X045000000Y-19300000D01*
D53*
X046000000Y-19300000D02*
X046000000Y-16700000D01*
D31*
X052060000Y-50027000D02*
X067940000Y-50027000D01*
X067940000Y-29067000D01*
X052060000Y-29067000D01*
X052060000Y-50027000D01*
D34*
X063059786Y-30444273D02*
X063059786Y-30017149D01*
X063056712Y-30441368D02*
X062789390Y-30441368D01*
X063056712Y-30232163D02*
X062832407Y-30232163D01*
X062480005Y-30017149D02*
X062308574Y-30444273D01*
X062308574Y-30444273D02*
X062123476Y-30017149D01*
X062393546Y-30183752D02*
X062218252Y-30183752D01*
X061759028Y-30182798D02*
X061598759Y-30182798D01*
X061056048Y-30452578D02*
X061115540Y-30436467D01*
X061115540Y-30436467D02*
X061168807Y-30387377D01*
X061168807Y-30387377D02*
X061197862Y-30316102D01*
X061197862Y-30316102D02*
X061204780Y-30210401D01*
X061204780Y-30210401D02*
X061188177Y-30121779D01*
X061188177Y-30121779D02*
X061145287Y-30048338D01*
X061145287Y-30048338D02*
X061083718Y-30009435D01*
X061083718Y-30009435D02*
X061028376Y-30009435D01*
X061028376Y-30009435D02*
X060966806Y-30048338D01*
X060966806Y-30048338D02*
X060923917Y-30121779D01*
X060923917Y-30121779D02*
X060907314Y-30210401D01*
X060907314Y-30210401D02*
X060914231Y-30316102D01*
X060914231Y-30316102D02*
X060943286Y-30387377D01*
X060943286Y-30387377D02*
X060996554Y-30436467D01*
X060996554Y-30436467D02*
X061056048Y-30452578D01*
X060575628Y-30444273D02*
X060575628Y-30227738D01*
X060575628Y-30227738D02*
X060454224Y-30256215D01*
X060454224Y-30256215D02*
X060367541Y-30245504D01*
X060367541Y-30245504D02*
X060333046Y-30226171D01*
X060333046Y-30226171D02*
X060309089Y-30198739D01*
X060309089Y-30198739D02*
X060290773Y-30123977D01*
X060290773Y-30123977D02*
X060299435Y-30085139D01*
X060299435Y-30085139D02*
X060322164Y-30054572D01*
X060322164Y-30054572D02*
X060366829Y-30026183D01*
X060366829Y-30026183D02*
X060418446Y-30011248D01*
X060418446Y-30011248D02*
X060466985Y-30008852D01*
X060466985Y-30008852D02*
X060507862Y-30016647D01*
X060507862Y-30016647D02*
X060540904Y-30031930D01*
X060540904Y-30031930D02*
X060575628Y-30063368D01*
X060575628Y-30444273D02*
X060290773Y-30444273D01*
X059336547Y-30017149D02*
X059331895Y-30435401D01*
X059331895Y-30435401D02*
X059269286Y-30444273D01*
X059269286Y-30444273D02*
X059221324Y-30443241D01*
X059221324Y-30443241D02*
X059143417Y-30422171D01*
X059143417Y-30422171D02*
X059085803Y-30376668D01*
X059085803Y-30376668D02*
X059052862Y-30315400D01*
X059052862Y-30315400D02*
X059039731Y-30251873D01*
X059039731Y-30251873D02*
X059038466Y-30204043D01*
X059038466Y-30204043D02*
X059044472Y-30163050D01*
X059044472Y-30163050D02*
X059056759Y-30128376D01*
X059056759Y-30128376D02*
X059096206Y-30075912D01*
X059096206Y-30075912D02*
X059148869Y-30042513D01*
X059148869Y-30042513D02*
X059235275Y-30019107D01*
X059235275Y-30019107D02*
X059336547Y-30017149D01*
X058742924Y-30017149D02*
X058571494Y-30444273D01*
X058571494Y-30444273D02*
X058386395Y-30017149D01*
X058656466Y-30183752D02*
X058481171Y-30183752D01*
X058117002Y-30444273D02*
X057766625Y-30444273D01*
X057936611Y-30444273D02*
X057936611Y-30017149D01*
X057497231Y-30017149D02*
X057325800Y-30444273D01*
X057325800Y-30444273D02*
X057140702Y-30017149D01*
X057410772Y-30183752D02*
X057235478Y-30183752D01*
D31*
X062900000Y-15700000D02*
X073100000Y-15700000D01*
X073100000Y-08300000D01*
X062900000Y-08300000D01*
X062900000Y-15700000D01*
D31*
X065300000Y-09500000D02*
X065295722Y-09434737D01*
X065282963Y-09370590D01*
X065261940Y-09308658D01*
X065233013Y-09250000D01*
X065196677Y-09195619D01*
X065153553Y-09146447D01*
X065104381Y-09103323D01*
X065050000Y-09066987D01*
X064991342Y-09038060D01*
X064929410Y-09017037D01*
X064865263Y-09004278D01*
X064800000Y-09000000D01*
X064734737Y-09004278D01*
X064670590Y-09017037D01*
X064608658Y-09038060D01*
X064550000Y-09066987D01*
X064495619Y-09103323D01*
X064446447Y-09146447D01*
X064403323Y-09195619D01*
X064366987Y-09250000D01*
X064338060Y-09308658D01*
X064317037Y-09370590D01*
X064304278Y-09434737D01*
X064300000Y-09500000D01*
X064304278Y-09565263D01*
X064317037Y-09629410D01*
X064338060Y-09691342D01*
X064366987Y-09750000D01*
X064403323Y-09804381D01*
X064446447Y-09853553D01*
X064495619Y-09896677D01*
X064550000Y-09933013D01*
X064608658Y-09961940D01*
X064670590Y-09982963D01*
X064734737Y-09995722D01*
X064800000Y-10000000D01*
X064865263Y-09995722D01*
X064929410Y-09982963D01*
X064991342Y-09961940D01*
X065050000Y-09933013D01*
X065104381Y-09896677D01*
X065153553Y-09853553D01*
X065196677Y-09804381D01*
X065233013Y-09750000D01*
X065261940Y-09691342D01*
X065282963Y-09629410D01*
X065295722Y-09565263D01*
X065300000Y-09500000D01*
D40*
X067772936Y-05265000D02*
X068227064Y-05265000D01*
D40*
X067772936Y-06735000D02*
X068227064Y-06735000D01*
D41*
X065103157Y-04524351D02*
X065103157Y-04340796D01*
X065103157Y-04340796D02*
X065156977Y-04335879D01*
X065156977Y-04335879D02*
X065194752Y-04337523D01*
X065194752Y-04337523D02*
X065217540Y-04342574D01*
X065217540Y-04342574D02*
X065227122Y-04346692D01*
X065227122Y-04346692D02*
X065235008Y-04352052D01*
X065235008Y-04352052D02*
X065240834Y-04358789D01*
X065240834Y-04358789D02*
X065245971Y-04377057D01*
X065245971Y-04377057D02*
X065245489Y-04393258D01*
X065245489Y-04393258D02*
X065240231Y-04404989D01*
X065240231Y-04404989D02*
X065230794Y-04413025D01*
X065230794Y-04413025D02*
X065217776Y-04418144D01*
X065217776Y-04418144D02*
X065192836Y-04422047D01*
X065192836Y-04422047D02*
X065106724Y-04425096D01*
X065178237Y-04432846D02*
X065252181Y-04525712D01*
X065370202Y-04584968D02*
X065538777Y-04584968D01*
X065671222Y-04335879D02*
X065671222Y-04525712D01*
X065672588Y-04337170D02*
X065791398Y-04337170D01*
X065672588Y-04430150D02*
X065772280Y-04430150D01*
X065928903Y-04525712D02*
X066005094Y-04335879D01*
X066005094Y-04335879D02*
X066087360Y-04525712D01*
X065967329Y-04451666D02*
X066045237Y-04451666D01*
X066208458Y-04335879D02*
X066290288Y-04525712D01*
X066290288Y-04525712D02*
X066361446Y-04335879D01*
X066499907Y-04335879D02*
X066499907Y-04525712D01*
X066499907Y-04335879D02*
X066623638Y-04335879D01*
X066499907Y-04430795D02*
X066586519Y-04430795D01*
X066499907Y-04525712D02*
X066623638Y-04525712D01*
X066764082Y-04524351D02*
X066764082Y-04340796D01*
X066764082Y-04340796D02*
X066817902Y-04335879D01*
X066817902Y-04335879D02*
X066855677Y-04337523D01*
X066855677Y-04337523D02*
X066878465Y-04342574D01*
X066878465Y-04342574D02*
X066888047Y-04346692D01*
X066888047Y-04346692D02*
X066895933Y-04352052D01*
X066895933Y-04352052D02*
X066901759Y-04358789D01*
X066901759Y-04358789D02*
X066906896Y-04377057D01*
X066906896Y-04377057D02*
X066906414Y-04393258D01*
X066906414Y-04393258D02*
X066901156Y-04404989D01*
X066901156Y-04404989D02*
X066891719Y-04413025D01*
X066891719Y-04413025D02*
X066878701Y-04418144D01*
X066878701Y-04418144D02*
X066853761Y-04422047D01*
X066853761Y-04422047D02*
X066767649Y-04425096D01*
X066839162Y-04432846D02*
X066913106Y-04525712D01*
X067111569Y-04529140D02*
X067086688Y-04521399D01*
X067086688Y-04521399D02*
X067063943Y-04497846D01*
X067063943Y-04497846D02*
X067047123Y-04417905D01*
X067047123Y-04417905D02*
X067063145Y-04358071D01*
X067063145Y-04358071D02*
X067082801Y-04341030D01*
X067082801Y-04341030D02*
X067116835Y-04332188D01*
X067116835Y-04332188D02*
X067148878Y-04342802D01*
X067148878Y-04342802D02*
X067167639Y-04362201D01*
X067167639Y-04362201D02*
X067183706Y-04435082D01*
X067183706Y-04435082D02*
X067175710Y-04481095D01*
X067175710Y-04481095D02*
X067161460Y-04507687D01*
X067161460Y-04507687D02*
X067136151Y-04525800D01*
X067136151Y-04525800D02*
X067111569Y-04529140D01*
X067307948Y-04584968D02*
X067476523Y-04584968D01*
X067602816Y-04525712D02*
X067604883Y-04339822D01*
X067604883Y-04339822D02*
X067632710Y-04335879D01*
X067632710Y-04335879D02*
X067654026Y-04336337D01*
X067654026Y-04336337D02*
X067688652Y-04345702D01*
X067688652Y-04345702D02*
X067714258Y-04365925D01*
X067714258Y-04365925D02*
X067728898Y-04393155D01*
X067728898Y-04393155D02*
X067734734Y-04421390D01*
X067734734Y-04421390D02*
X067735297Y-04442648D01*
X067735297Y-04442648D02*
X067732627Y-04460867D01*
X067732627Y-04460867D02*
X067727166Y-04476277D01*
X067727166Y-04476277D02*
X067709634Y-04499595D01*
X067709634Y-04499595D02*
X067686228Y-04514439D01*
X067686228Y-04514439D02*
X067647826Y-04524841D01*
X067647826Y-04524841D02*
X067602816Y-04525712D01*
X067866648Y-04525712D02*
X067942840Y-04335879D01*
X067942840Y-04335879D02*
X068025106Y-04525712D01*
X067905074Y-04451666D02*
X067982983Y-04451666D01*
X068144836Y-04335879D02*
X068300559Y-04335879D01*
X068225010Y-04335879D02*
X068225010Y-04525712D01*
X068420290Y-04525712D02*
X068496481Y-04335879D01*
X068496481Y-04335879D02*
X068578747Y-04525712D01*
X068458716Y-04451666D02*
X068536625Y-04451666D01*
X068692052Y-04584968D02*
X068860627Y-04584968D01*
X068999787Y-04369794D02*
X069004047Y-04355842D01*
X069004047Y-04355842D02*
X069016633Y-04342830D01*
X069016633Y-04342830D02*
X069037259Y-04334007D01*
X069037259Y-04334007D02*
X069050498Y-04332188D01*
X069050498Y-04332188D02*
X069073402Y-04333864D01*
X069073402Y-04333864D02*
X069090584Y-04341397D01*
X069090584Y-04341397D02*
X069099980Y-04352950D01*
X069099980Y-04352950D02*
X069103355Y-04366376D01*
X069103355Y-04366376D02*
X069103131Y-04375306D01*
X069103131Y-04375306D02*
X069099097Y-04390254D01*
X069099097Y-04390254D02*
X069081593Y-04419317D01*
X069081593Y-04419317D02*
X069037510Y-04474603D01*
X069037510Y-04474603D02*
X068991158Y-04525453D01*
X068991158Y-04525453D02*
X069115162Y-04525453D01*
X069245694Y-04584968D02*
X069414268Y-04584968D01*
X069606802Y-04335879D02*
X069606802Y-04525712D01*
X069818339Y-04525712D02*
X069818339Y-04335879D01*
X069818339Y-04335879D02*
X069948906Y-04525712D01*
X069948906Y-04525712D02*
X069946344Y-04335879D01*
X070095912Y-04525712D02*
X070095912Y-04339461D01*
X070095912Y-04339461D02*
X070134127Y-04335879D01*
X070134127Y-04335879D02*
X070168314Y-04338118D01*
X070168314Y-04338118D02*
X070190543Y-04344144D01*
X070190543Y-04344144D02*
X070200482Y-04349014D01*
X070200482Y-04349014D02*
X070216334Y-04363300D01*
X070216334Y-04363300D02*
X070223379Y-04378644D01*
X070223379Y-04378644D02*
X070224975Y-04401075D01*
X070224975Y-04401075D02*
X070218658Y-04415177D01*
X070218658Y-04415177D02*
X070208799Y-04422972D01*
X070208799Y-04422972D02*
X070193078Y-04429222D01*
X070193078Y-04429222D02*
X070170341Y-04433704D01*
X070170341Y-04433704D02*
X070139440Y-04436195D01*
X070139440Y-04436195D02*
X070099219Y-04436472D01*
X070373143Y-04335879D02*
X070373439Y-04441685D01*
X070373439Y-04441685D02*
X070375481Y-04470468D01*
X070375481Y-04470468D02*
X070380704Y-04491788D01*
X070380704Y-04491788D02*
X070390717Y-04508004D01*
X070390717Y-04508004D02*
X070403817Y-04518726D01*
X070403817Y-04518726D02*
X070423387Y-04526470D01*
X070423387Y-04526470D02*
X070448080Y-04529399D01*
X070448080Y-04529399D02*
X070465412Y-04526467D01*
X070465412Y-04526467D02*
X070479626Y-04518744D01*
X070479626Y-04518744D02*
X070488133Y-04509696D01*
X070488133Y-04509696D02*
X070491785Y-04503748D01*
X070491785Y-04503748D02*
X070497373Y-04488584D01*
X070497373Y-04488584D02*
X070499981Y-04468495D01*
X070499981Y-04468495D02*
X070501385Y-04336165D01*
X070636223Y-04335879D02*
X070791946Y-04335879D01*
X070716397Y-04335879D02*
X070716397Y-04525712D01*
D40*
X058772936Y-14265000D02*
X059227064Y-14265000D01*
D40*
X058772936Y-15735000D02*
X059227064Y-15735000D01*
D41*
X056241567Y-13524351D02*
X056241567Y-13340796D01*
X056241567Y-13340796D02*
X056295388Y-13335879D01*
X056295388Y-13335879D02*
X056333163Y-13337523D01*
X056333163Y-13337523D02*
X056355950Y-13342574D01*
X056355950Y-13342574D02*
X056365532Y-13346692D01*
X056365532Y-13346692D02*
X056373419Y-13352052D01*
X056373419Y-13352052D02*
X056379244Y-13358789D01*
X056379244Y-13358789D02*
X056384382Y-13377057D01*
X056384382Y-13377057D02*
X056383899Y-13393258D01*
X056383899Y-13393258D02*
X056378642Y-13404989D01*
X056378642Y-13404989D02*
X056369205Y-13413025D01*
X056369205Y-13413025D02*
X056356186Y-13418144D01*
X056356186Y-13418144D02*
X056331247Y-13422047D01*
X056331247Y-13422047D02*
X056245135Y-13425096D01*
X056316647Y-13432846D02*
X056390591Y-13525712D01*
X056508613Y-13584968D02*
X056677187Y-13584968D01*
X056809633Y-13335879D02*
X056809633Y-13525712D01*
X056810999Y-13337170D02*
X056929809Y-13337170D01*
X056810999Y-13430150D02*
X056910690Y-13430150D01*
X057067313Y-13525712D02*
X057143505Y-13335879D01*
X057143505Y-13335879D02*
X057225770Y-13525712D01*
X057105739Y-13451666D02*
X057183648Y-13451666D01*
X057346868Y-13335879D02*
X057428698Y-13525712D01*
X057428698Y-13525712D02*
X057499857Y-13335879D01*
X057638318Y-13335879D02*
X057638318Y-13525712D01*
X057638318Y-13335879D02*
X057762049Y-13335879D01*
X057638318Y-13430795D02*
X057724929Y-13430795D01*
X057638318Y-13525712D02*
X057762049Y-13525712D01*
X057902492Y-13524351D02*
X057902492Y-13340796D01*
X057902492Y-13340796D02*
X057956312Y-13335879D01*
X057956312Y-13335879D02*
X057994087Y-13337523D01*
X057994087Y-13337523D02*
X058016875Y-13342574D01*
X058016875Y-13342574D02*
X058026457Y-13346692D01*
X058026457Y-13346692D02*
X058034343Y-13352052D01*
X058034343Y-13352052D02*
X058040169Y-13358789D01*
X058040169Y-13358789D02*
X058045306Y-13377057D01*
X058045306Y-13377057D02*
X058044824Y-13393258D01*
X058044824Y-13393258D02*
X058039566Y-13404989D01*
X058039566Y-13404989D02*
X058030130Y-13413025D01*
X058030130Y-13413025D02*
X058017111Y-13418144D01*
X058017111Y-13418144D02*
X057992171Y-13422047D01*
X057992171Y-13422047D02*
X057906060Y-13425096D01*
X057977572Y-13432846D02*
X058051516Y-13525712D01*
X058249980Y-13529140D02*
X058225098Y-13521399D01*
X058225098Y-13521399D02*
X058202354Y-13497846D01*
X058202354Y-13497846D02*
X058185534Y-13417905D01*
X058185534Y-13417905D02*
X058201555Y-13358071D01*
X058201555Y-13358071D02*
X058221212Y-13341030D01*
X058221212Y-13341030D02*
X058255246Y-13332188D01*
X058255246Y-13332188D02*
X058287289Y-13342802D01*
X058287289Y-13342802D02*
X058306050Y-13362201D01*
X058306050Y-13362201D02*
X058322116Y-13435082D01*
X058322116Y-13435082D02*
X058314120Y-13481095D01*
X058314120Y-13481095D02*
X058299871Y-13507687D01*
X058299871Y-13507687D02*
X058274561Y-13525800D01*
X058274561Y-13525800D02*
X058249980Y-13529140D01*
X058446358Y-13584968D02*
X058614933Y-13584968D01*
X058741226Y-13525712D02*
X058743294Y-13339822D01*
X058743294Y-13339822D02*
X058771120Y-13335879D01*
X058771120Y-13335879D02*
X058792437Y-13336337D01*
X058792437Y-13336337D02*
X058827062Y-13345702D01*
X058827062Y-13345702D02*
X058852668Y-13365925D01*
X058852668Y-13365925D02*
X058867309Y-13393155D01*
X058867309Y-13393155D02*
X058873145Y-13421390D01*
X058873145Y-13421390D02*
X058873707Y-13442648D01*
X058873707Y-13442648D02*
X058871037Y-13460867D01*
X058871037Y-13460867D02*
X058865577Y-13476277D01*
X058865577Y-13476277D02*
X058848045Y-13499595D01*
X058848045Y-13499595D02*
X058824639Y-13514439D01*
X058824639Y-13514439D02*
X058786236Y-13524841D01*
X058786236Y-13524841D02*
X058741226Y-13525712D01*
X059005059Y-13525712D02*
X059081250Y-13335879D01*
X059081250Y-13335879D02*
X059163516Y-13525712D01*
X059043485Y-13451666D02*
X059121393Y-13451666D01*
X059283247Y-13335879D02*
X059438970Y-13335879D01*
X059363420Y-13335879D02*
X059363420Y-13525712D01*
X059558700Y-13525712D02*
X059634892Y-13335879D01*
X059634892Y-13335879D02*
X059717158Y-13525712D01*
X059597126Y-13451666D02*
X059675035Y-13451666D01*
X059830462Y-13584968D02*
X059999037Y-13584968D01*
X060138198Y-13369794D02*
X060142457Y-13355842D01*
X060142457Y-13355842D02*
X060155043Y-13342830D01*
X060155043Y-13342830D02*
X060175670Y-13334007D01*
X060175670Y-13334007D02*
X060188908Y-13332188D01*
X060188908Y-13332188D02*
X060211813Y-13333864D01*
X060211813Y-13333864D02*
X060228994Y-13341397D01*
X060228994Y-13341397D02*
X060238390Y-13352950D01*
X060238390Y-13352950D02*
X060241765Y-13366376D01*
X060241765Y-13366376D02*
X060241541Y-13375306D01*
X060241541Y-13375306D02*
X060237508Y-13390254D01*
X060237508Y-13390254D02*
X060220003Y-13419317D01*
X060220003Y-13419317D02*
X060175921Y-13474603D01*
X060175921Y-13474603D02*
X060129568Y-13525453D01*
X060129568Y-13525453D02*
X060253573Y-13525453D01*
X060384104Y-13584968D02*
X060552679Y-13584968D01*
X060682048Y-13335879D02*
X060682048Y-13525712D01*
X060682048Y-13525712D02*
X060808376Y-13525712D01*
X061018188Y-13529140D02*
X060993306Y-13521399D01*
X060993306Y-13521399D02*
X060970562Y-13497846D01*
X060970562Y-13497846D02*
X060953742Y-13417905D01*
X060953742Y-13417905D02*
X060969763Y-13358071D01*
X060969763Y-13358071D02*
X060989420Y-13341030D01*
X060989420Y-13341030D02*
X061023454Y-13332188D01*
X061023454Y-13332188D02*
X061055497Y-13342802D01*
X061055497Y-13342802D02*
X061074258Y-13362201D01*
X061074258Y-13362201D02*
X061090324Y-13435082D01*
X061090324Y-13435082D02*
X061082328Y-13481095D01*
X061082328Y-13481095D02*
X061068079Y-13507687D01*
X061068079Y-13507687D02*
X061042769Y-13525800D01*
X061042769Y-13525800D02*
X061018188Y-13529140D01*
X061295008Y-13529140D02*
X061270127Y-13521399D01*
X061270127Y-13521399D02*
X061247382Y-13497846D01*
X061247382Y-13497846D02*
X061230563Y-13417905D01*
X061230563Y-13417905D02*
X061246584Y-13358071D01*
X061246584Y-13358071D02*
X061266240Y-13341030D01*
X061266240Y-13341030D02*
X061300275Y-13332188D01*
X061300275Y-13332188D02*
X061332318Y-13342802D01*
X061332318Y-13342802D02*
X061351078Y-13362201D01*
X061351078Y-13362201D02*
X061367145Y-13435082D01*
X061367145Y-13435082D02*
X061359149Y-13481095D01*
X061359149Y-13481095D02*
X061344900Y-13507687D01*
X061344900Y-13507687D02*
X061319590Y-13525800D01*
X061319590Y-13525800D02*
X061295008Y-13529140D01*
X061511143Y-13525712D02*
X061511143Y-13339461D01*
X061511143Y-13339461D02*
X061549358Y-13335879D01*
X061549358Y-13335879D02*
X061583545Y-13338118D01*
X061583545Y-13338118D02*
X061605774Y-13344144D01*
X061605774Y-13344144D02*
X061615713Y-13349014D01*
X061615713Y-13349014D02*
X061631566Y-13363300D01*
X061631566Y-13363300D02*
X061638610Y-13378644D01*
X061638610Y-13378644D02*
X061640206Y-13401075D01*
X061640206Y-13401075D02*
X061633889Y-13415177D01*
X061633889Y-13415177D02*
X061624030Y-13422972D01*
X061624030Y-13422972D02*
X061608309Y-13429222D01*
X061608309Y-13429222D02*
X061585572Y-13433704D01*
X061585572Y-13433704D02*
X061554671Y-13436195D01*
X061554671Y-13436195D02*
X061514450Y-13436472D01*
D40*
X076772936Y-07265000D02*
X077227064Y-07265000D01*
D40*
X076772936Y-08735000D02*
X077227064Y-08735000D01*
D41*
X074241567Y-06524351D02*
X074241567Y-06340796D01*
X074241567Y-06340796D02*
X074295388Y-06335879D01*
X074295388Y-06335879D02*
X074333163Y-06337523D01*
X074333163Y-06337523D02*
X074355950Y-06342574D01*
X074355950Y-06342574D02*
X074365532Y-06346692D01*
X074365532Y-06346692D02*
X074373419Y-06352052D01*
X074373419Y-06352052D02*
X074379244Y-06358789D01*
X074379244Y-06358789D02*
X074384382Y-06377057D01*
X074384382Y-06377057D02*
X074383899Y-06393258D01*
X074383899Y-06393258D02*
X074378642Y-06404989D01*
X074378642Y-06404989D02*
X074369205Y-06413025D01*
X074369205Y-06413025D02*
X074356186Y-06418144D01*
X074356186Y-06418144D02*
X074331247Y-06422047D01*
X074331247Y-06422047D02*
X074245135Y-06425096D01*
X074316647Y-06432846D02*
X074390591Y-06525712D01*
X074508613Y-06584968D02*
X074677187Y-06584968D01*
X074809633Y-06335879D02*
X074809633Y-06525712D01*
X074810999Y-06337170D02*
X074929809Y-06337170D01*
X074810999Y-06430150D02*
X074910690Y-06430150D01*
X075067313Y-06525712D02*
X075143505Y-06335879D01*
X075143505Y-06335879D02*
X075225770Y-06525712D01*
X075105739Y-06451666D02*
X075183648Y-06451666D01*
X075346868Y-06335879D02*
X075428698Y-06525712D01*
X075428698Y-06525712D02*
X075499857Y-06335879D01*
X075638318Y-06335879D02*
X075638318Y-06525712D01*
X075638318Y-06335879D02*
X075762049Y-06335879D01*
X075638318Y-06430795D02*
X075724929Y-06430795D01*
X075638318Y-06525712D02*
X075762049Y-06525712D01*
X075902492Y-06524351D02*
X075902492Y-06340796D01*
X075902492Y-06340796D02*
X075956312Y-06335879D01*
X075956312Y-06335879D02*
X075994087Y-06337523D01*
X075994087Y-06337523D02*
X076016875Y-06342574D01*
X076016875Y-06342574D02*
X076026457Y-06346692D01*
X076026457Y-06346692D02*
X076034343Y-06352052D01*
X076034343Y-06352052D02*
X076040169Y-06358789D01*
X076040169Y-06358789D02*
X076045306Y-06377057D01*
X076045306Y-06377057D02*
X076044824Y-06393258D01*
X076044824Y-06393258D02*
X076039566Y-06404989D01*
X076039566Y-06404989D02*
X076030130Y-06413025D01*
X076030130Y-06413025D02*
X076017111Y-06418144D01*
X076017111Y-06418144D02*
X075992171Y-06422047D01*
X075992171Y-06422047D02*
X075906060Y-06425096D01*
X075977572Y-06432846D02*
X076051516Y-06525712D01*
X076249980Y-06529140D02*
X076225098Y-06521399D01*
X076225098Y-06521399D02*
X076202354Y-06497846D01*
X076202354Y-06497846D02*
X076185534Y-06417905D01*
X076185534Y-06417905D02*
X076201555Y-06358071D01*
X076201555Y-06358071D02*
X076221212Y-06341030D01*
X076221212Y-06341030D02*
X076255246Y-06332188D01*
X076255246Y-06332188D02*
X076287289Y-06342802D01*
X076287289Y-06342802D02*
X076306050Y-06362201D01*
X076306050Y-06362201D02*
X076322116Y-06435082D01*
X076322116Y-06435082D02*
X076314120Y-06481095D01*
X076314120Y-06481095D02*
X076299871Y-06507687D01*
X076299871Y-06507687D02*
X076274561Y-06525800D01*
X076274561Y-06525800D02*
X076249980Y-06529140D01*
X076446358Y-06584968D02*
X076614933Y-06584968D01*
X076741226Y-06525712D02*
X076743294Y-06339822D01*
X076743294Y-06339822D02*
X076771120Y-06335879D01*
X076771120Y-06335879D02*
X076792437Y-06336337D01*
X076792437Y-06336337D02*
X076827062Y-06345702D01*
X076827062Y-06345702D02*
X076852668Y-06365925D01*
X076852668Y-06365925D02*
X076867309Y-06393155D01*
X076867309Y-06393155D02*
X076873145Y-06421390D01*
X076873145Y-06421390D02*
X076873707Y-06442648D01*
X076873707Y-06442648D02*
X076871037Y-06460867D01*
X076871037Y-06460867D02*
X076865577Y-06476277D01*
X076865577Y-06476277D02*
X076848045Y-06499595D01*
X076848045Y-06499595D02*
X076824639Y-06514439D01*
X076824639Y-06514439D02*
X076786236Y-06524841D01*
X076786236Y-06524841D02*
X076741226Y-06525712D01*
X077005059Y-06525712D02*
X077081250Y-06335879D01*
X077081250Y-06335879D02*
X077163516Y-06525712D01*
X077043485Y-06451666D02*
X077121393Y-06451666D01*
X077283247Y-06335879D02*
X077438970Y-06335879D01*
X077363420Y-06335879D02*
X077363420Y-06525712D01*
X077558700Y-06525712D02*
X077634892Y-06335879D01*
X077634892Y-06335879D02*
X077717158Y-06525712D01*
X077597126Y-06451666D02*
X077675035Y-06451666D01*
X077830462Y-06584968D02*
X077999037Y-06584968D01*
X078138198Y-06369794D02*
X078142457Y-06355842D01*
X078142457Y-06355842D02*
X078155043Y-06342830D01*
X078155043Y-06342830D02*
X078175670Y-06334007D01*
X078175670Y-06334007D02*
X078188908Y-06332188D01*
X078188908Y-06332188D02*
X078211813Y-06333864D01*
X078211813Y-06333864D02*
X078228994Y-06341397D01*
X078228994Y-06341397D02*
X078238390Y-06352950D01*
X078238390Y-06352950D02*
X078241765Y-06366376D01*
X078241765Y-06366376D02*
X078241541Y-06375306D01*
X078241541Y-06375306D02*
X078237508Y-06390254D01*
X078237508Y-06390254D02*
X078220003Y-06419317D01*
X078220003Y-06419317D02*
X078175921Y-06474603D01*
X078175921Y-06474603D02*
X078129568Y-06525453D01*
X078129568Y-06525453D02*
X078253573Y-06525453D01*
X078384104Y-06584968D02*
X078552679Y-06584968D01*
X078678835Y-06525712D02*
X078678835Y-06338107D01*
X078678835Y-06338107D02*
X078719544Y-06335879D01*
X078719544Y-06335879D02*
X078756821Y-06342430D01*
X078756821Y-06342430D02*
X078781935Y-06364418D01*
X078781935Y-06364418D02*
X078778028Y-06396564D01*
X078778028Y-06396564D02*
X078748477Y-06413766D01*
X078748477Y-06413766D02*
X078684649Y-06421149D01*
X078684649Y-06421149D02*
X078746710Y-06425042D01*
X078746710Y-06425042D02*
X078792210Y-06441288D01*
X078792210Y-06441288D02*
X078811589Y-06466264D01*
X078811589Y-06466264D02*
X078809997Y-06498566D01*
X078809997Y-06498566D02*
X078801274Y-06512835D01*
X078801274Y-06512835D02*
X078779519Y-06524431D01*
X078779519Y-06524431D02*
X078678835Y-06525712D01*
X078942804Y-06525712D02*
X079018996Y-06335879D01*
X079018996Y-06335879D02*
X079101262Y-06525712D01*
X078981230Y-06451666D02*
X079059139Y-06451666D01*
X079349817Y-06362013D02*
X079328698Y-06334894D01*
X079328698Y-06334894D02*
X079278639Y-06332188D01*
X079278639Y-06332188D02*
X079250581Y-06351718D01*
X079250581Y-06351718D02*
X079239126Y-06387551D01*
X079239126Y-06387551D02*
X079243870Y-06405244D01*
X079243870Y-06405244D02*
X079261622Y-06420526D01*
X079261622Y-06420526D02*
X079331965Y-06432849D01*
X079331965Y-06432849D02*
X079355629Y-06447416D01*
X079355629Y-06447416D02*
X079364410Y-06472611D01*
X079364410Y-06472611D02*
X079352843Y-06512015D01*
X079352843Y-06512015D02*
X079317513Y-06529140D01*
X079317513Y-06529140D02*
X079272088Y-06527865D01*
X079272088Y-06527865D02*
X079247245Y-06513971D01*
X079247245Y-06513971D02*
X079233297Y-06481294D01*
X079513809Y-06335879D02*
X079513809Y-06525712D01*
X079513809Y-06335879D02*
X079637540Y-06335879D01*
X079513809Y-06430795D02*
X079600421Y-06430795D01*
X079513809Y-06525712D02*
X079637540Y-06525712D01*
D31*
X065000000Y-19300000D02*
X071000000Y-19300000D01*
X071000000Y-16700000D01*
X065000000Y-16700000D01*
X065000000Y-19300000D01*
D53*
X066000000Y-19300000D02*
X066000000Y-16700000D01*
M02*